<svg width="852" height="391" viewBox="0 0 852 391" fill="none" xmlns="http://www.w3.org/2000/svg">
<path d="M9.93994 0H845.035V195H9.93994V0Z" fill="#E2E2E2" fill-opacity="0.99"/>
<g filter="url(#filter0_d_98_24)">
<path d="M9.93994 195H845.035V390H9.93994V195Z" fill="url(#paint0_linear_98_24)" fill-opacity="0.99" shape-rendering="crispEdges"/>
</g>
<g filter="url(#filter1_d_98_24)">
<path d="M9.9562 130.902H845.035V220.277H9.93994L9.9562 130.902Z" fill="#666666"/>
</g>
<g filter="url(#filter2_dd_98_24)">
<path d="M4 111.041H848L845.056 130.902H9.44148L4 111.041Z" fill="#3E3E3E" fill-opacity="0.85" shape-rendering="crispEdges"/>
</g>
<g filter="url(#filter3_d_98_24)">
<rect x="13.8972" y="150.24" width="102.11" height="63.7169" rx="1" fill="#F8F7F2"/>
</g>
<g filter="url(#filter4_d_98_24)">
<ellipse cx="105.152" cy="182.098" rx="4.40131" ry="4.01577" fill="#342B69"/>
</g>
<g filter="url(#filter5_d_98_24)">
<rect x="227.616" y="136.319" width="101.913" height="36.1111" rx="1" fill="#F8F7F2"/>
</g>
<g filter="url(#filter6_d_98_24)">
<ellipse cx="319.832" cy="154.754" rx="5.36281" ry="4.89306" fill="#342B69"/>
</g>
<g filter="url(#filter7_d_98_24)">
<rect x="227.616" y="176.945" width="101.913" height="37.0139" rx="1" fill="#F8F7F2"/>
</g>
<g filter="url(#filter8_d_98_24)">
<ellipse cx="319.832" cy="195.379" rx="5.36281" ry="4.89306" fill="#342B69"/>
</g>
<g filter="url(#filter9_d_98_24)">
<rect width="101.913" height="36.1111" rx="1" transform="matrix(-1 0 0 1 627.354 136.319)" fill="#F8F7F2"/>
</g>
<g filter="url(#filter10_d_98_24)">
<ellipse cx="5.36281" cy="4.89306" rx="5.36281" ry="4.89306" transform="matrix(-1 0 0 1 540.501 149.861)" fill="#342B69"/>
</g>
<g filter="url(#filter11_d_98_24)">
<rect width="101.913" height="37.0139" rx="1" transform="matrix(-1 0 0 1 627.354 176.945)" fill="#F8F7F2"/>
</g>
<g filter="url(#filter12_d_98_24)">
<ellipse cx="5.36281" cy="4.89306" rx="5.36281" ry="4.89306" transform="matrix(-1 0 0 1 540.501 190.486)" fill="#342B69"/>
</g>
<g filter="url(#filter13_d_98_24)">
<rect x="13.897" y="136.319" width="102.11" height="13.9214" rx="1" fill="#F8F7F2"/>
</g>
<g filter="url(#filter14_d_98_24)">
<rect x="54.9749" y="141.139" width="19.3658" height="4.28349" rx="2" fill="#2E2E2E"/>
</g>
<g filter="url(#filter15_d_98_24)">
<rect x="119.672" y="200.036" width="102.11" height="13.9214" rx="1" fill="#F8F7F2"/>
</g>
<g filter="url(#filter16_d_98_24)">
<rect x="160.749" y="204.856" width="19.3658" height="4.28349" rx="2" fill="#2E2E2E"/>
</g>
<g filter="url(#filter17_d_98_24)">
<rect x="119.67" y="136.32" width="102.11" height="34.8034" rx="1" fill="#F8F7F2"/>
</g>
<g filter="url(#filter18_d_98_24)">
<rect x="160.748" y="142.806" width="19.3658" height="5.76624" rx="2" fill="#2E2E2E"/>
</g>
<g filter="url(#filter19_d_98_24)">
<rect x="119.672" y="172.192" width="102.11" height="26.7718" rx="1" fill="#F8F7F2"/>
</g>
<g filter="url(#filter20_d_98_24)">
<rect x="160.749" y="182.366" width="19.3658" height="4.28349" rx="2" fill="#2E2E2E"/>
</g>
<g filter="url(#filter21_d_98_24)">
<rect x="633.285" y="150.24" width="102.11" height="63.7169" rx="1" fill="#F8F7F2"/>
</g>
<g filter="url(#filter22_d_98_24)">
<ellipse cx="641.643" cy="182.098" rx="4.40131" ry="4.01577" fill="#342B69"/>
</g>
<g filter="url(#filter23_d_98_24)">
<rect x="633.285" y="136.319" width="102.11" height="13.9214" rx="1" fill="#F8F7F2"/>
</g>
<g filter="url(#filter24_d_98_24)">
<rect x="674.362" y="141.139" width="19.3658" height="4.28349" rx="2" fill="#2E2E2E"/>
</g>
<g filter="url(#filter25_d_98_24)">
<rect x="743.023" y="200.036" width="99.0376" height="13.9214" rx="1" fill="#F8F7F2"/>
</g>
<g filter="url(#filter26_d_98_24)">
<rect x="782.862" y="204.856" width="18.783" height="4.28349" rx="2" fill="#2E2E2E"/>
</g>
<g filter="url(#filter27_d_98_24)">
<rect x="743.021" y="136.32" width="99.0376" height="34.8034" rx="1" fill="#F8F7F2"/>
</g>
<g filter="url(#filter28_d_98_24)">
<rect x="782.86" y="142.806" width="18.783" height="5.76624" rx="2" fill="#2E2E2E"/>
</g>
<g filter="url(#filter29_d_98_24)">
<rect x="743.023" y="172.192" width="99.0376" height="26.7718" rx="1" fill="#F8F7F2"/>
</g>
<g filter="url(#filter30_d_98_24)">
<rect x="782.862" y="182.366" width="18.783" height="4.28349" rx="2" fill="#2E2E2E"/>
</g>
<g filter="url(#filter31_b_98_24)">
<path d="M236.263 289H630.477L643 372H212L236.263 289Z" fill="url(#paint1_radial_98_24)" fill-opacity="0.14"/>
</g>
<g filter="url(#filter32_b_98_24)">
<path d="M845 306L9.99994 306V223L845 223V306Z" fill="url(#paint2_linear_98_24)" fill-opacity="0.14"/>
</g>
<g filter="url(#filter33_d_98_24)">
<g filter="url(#filter34_d_98_24)">
<rect x="305.104" y="194.807" width="18.2486" height="106.561" fill="#A37547"/>
<rect x="305.604" y="195.307" width="17.2486" height="105.561" stroke="black"/>
</g>
<g filter="url(#filter35_d_98_24)">
<path d="M269.116 256.305H289.142V353.637H269.116V256.305Z" fill="#C58F5A"/>
<path d="M269.616 256.805H288.642V353.137H269.616V256.805Z" stroke="black"/>
</g>
<g filter="url(#filter36_d_98_24)">
<rect x="525" y="194.807" width="18.2486" height="111.556" fill="#986D43"/>
<rect x="525.5" y="195.307" width="17.2486" height="110.556" stroke="black"/>
</g>
<g filter="url(#filter37_d_98_24)">
<rect x="566.059" y="256.412" width="20.9859" height="92.4084" fill="#C58F5A"/>
<rect x="566.559" y="256.912" width="19.9859" height="91.4084" stroke="black"/>
</g>
</g>
<g filter="url(#filter38_d_98_24)">
<path d="M565 350.291C565 348.082 566.791 346.291 569 346.291H584.492C586.701 346.291 588.492 348.082 588.492 350.291V357.535H565V350.291Z" fill="black"/>
<path d="M565.5 350.291C565.5 348.358 567.067 346.791 569 346.791H584.492C586.425 346.791 587.992 348.358 587.992 350.291V357.035H565.5V350.291Z" stroke="black"/>
</g>
<g filter="url(#filter39_d_98_24)">
<path d="M267.187 349.555C267.187 347.346 268.978 345.555 271.187 345.555H286.679C288.888 345.555 290.679 347.346 290.679 349.555V356.799H267.187V349.555Z" fill="black"/>
<path d="M267.687 349.555C267.687 347.622 269.254 346.055 271.187 346.055H286.679C288.612 346.055 290.179 347.622 290.179 349.555V356.299H267.687V349.555Z" stroke="black"/>
</g>
<g filter="url(#filter40_d_98_24)">
<path d="M303.278 300.373C303.278 298.164 305.069 296.373 307.278 296.373H320.264C322.473 296.373 324.264 298.164 324.264 300.373V306.363H303.278V300.373Z" fill="black"/>
<path d="M303.778 300.373C303.778 298.44 305.345 296.873 307.278 296.873H320.264C322.197 296.873 323.764 298.44 323.764 300.373V305.863H303.778V300.373Z" stroke="black"/>
</g>
<g filter="url(#filter41_d_98_24)">
<path d="M524.086 307.033C524.086 304.824 525.877 303.033 528.086 303.033H541.072C543.282 303.033 545.072 304.824 545.072 307.033V313.023H524.086V307.033Z" fill="black"/>
<path d="M524.586 307.033C524.586 305.1 526.153 303.533 528.086 303.533H541.072C543.005 303.533 544.572 305.1 544.572 307.033V312.523H524.586V307.033Z" stroke="black"/>
</g>
<g filter="url(#filter42_d_98_24)">
<rect x="267" y="256" width="322" height="12" fill="#C58F5A"/>
<rect x="266" y="255" width="324" height="14" stroke="black" stroke-width="2"/>
</g>
<g filter="url(#filter43_i_98_24)">
<path d="M283.352 190H581.528L591 257H265L283.352 190Z" fill="#DAA067"/>
</g>
<path d="M283.352 189H282.589L282.388 189.736L264.036 256.736L263.689 258H265H591H592.151L591.99 256.86L582.518 189.86L582.396 189H581.528H283.352Z" stroke="black" stroke-width="2"/>
<path d="M157.511 114.022C154.66 109.519 148.082 101.922 148.082 99.9221C148.082 97.9218 148.082 81.0234 148.082 81.0234C148.082 81.0234 148.365 80.0294 148.795 79.7594C150.033 78.9494 148.634 77.8327 147.76 77.8327C146.885 77.8327 146.657 77.8327 146.657 77.8327H143.267H142.595H140.443C140.443 77.8327 140.228 77.8327 139.34 77.8327C138.466 77.8327 137.053 78.9617 138.304 79.7594C138.735 80.0294 139.017 81.0234 139.017 81.0234C139.017 81.0234 139.017 97.9218 139.017 99.9221C139.017 101.922 132.44 109.519 129.589 114.022C126.751 118.514 130.624 120.416 131.566 120.416H142.595H142.931H143.267H155.534C156.489 120.416 160.362 118.514 157.511 114.022Z" fill="white"/>
<path d="M157.515 114.024C154.663 109.521 148.086 101.924 148.086 99.9239C148.086 99.0649 148.086 95.4201 148.086 91.5545C145.235 91.7877 141.173 91.7754 139.034 91.6895C139.034 95.506 139.034 99.0772 139.034 99.9239C139.034 101.924 132.457 109.521 129.606 114.024C126.754 118.516 130.628 120.418 131.569 120.418H142.598H142.935H143.271H155.537C156.492 120.418 160.366 118.516 157.515 114.024Z" fill="url(#paint3_linear_98_24)" stroke="white" stroke-miterlimit="10"/>
<g opacity="0.2">
<path d="M138.118 78.4113C137.755 78.804 137.661 79.3194 138.32 79.749C138.75 80.0189 139.033 81.013 139.033 81.013C139.033 81.013 139.033 97.9113 139.033 99.9116C139.033 101.912 132.456 109.508 129.604 114.012C126.753 118.516 130.627 120.418 131.568 120.418H132.173C130.667 118.602 131.756 117.08 131.756 117.08C131.756 117.08 140.203 103.691 140.62 102.661C141.05 101.617 140.97 99.6294 140.97 99.6294V81.5406C140.822 79.8226 139.154 78.8531 138.118 78.4113Z" fill="white"/>
</g>
<path d="M158.266 113.619C157.19 111.926 155.589 109.79 154.042 107.717C151.89 104.845 148.945 100.918 148.945 99.9116V81.0129L148.918 81.2093C149.012 80.8779 149.214 80.4607 149.321 80.3625C149.321 80.3625 149.308 80.3748 149.295 80.3748C150.021 79.9084 150.303 79.2089 150.061 78.5217C149.738 77.6136 148.609 77 147.748 77H146.645H143.255H142.583H140.431H139.328C138.467 77 137.337 77.6136 137.015 78.5217C136.773 79.2089 137.055 79.8962 137.781 80.3748C137.768 80.3625 137.754 80.3625 137.754 80.3625C137.862 80.4607 138.05 80.8656 138.158 81.2093L138.131 81.0006V99.8993C138.131 100.918 135.185 104.845 133.033 107.704C131.487 109.766 129.886 111.901 128.81 113.607C127.142 116.245 127.6 118.074 128.286 119.142C129.173 120.541 130.747 121.191 131.541 121.191H142.57H142.906H143.242H155.508C156.302 121.191 157.876 120.541 158.763 119.142C159.476 118.086 159.934 116.258 158.266 113.619ZM155.535 119.632H143.269H142.933H142.596H131.567H131.581C131.366 119.62 130.317 119.24 129.779 118.307C129.187 117.301 129.389 115.951 130.357 114.429C131.393 112.785 132.98 110.674 134.513 108.637C137.862 104.17 139.906 101.36 139.906 99.9361V81.0374V80.9393L139.88 80.8411C139.772 80.4607 139.449 79.528 138.83 79.1353C138.723 79.0617 138.696 79.0249 138.696 79.0249C138.696 79.0371 138.709 79.0494 138.696 79.0617C138.723 78.9144 139.14 78.6322 139.355 78.6322H140.458H142.61H143.282H146.672H147.775C148.003 78.6322 148.407 78.9144 148.434 79.0617C148.434 79.0494 148.434 79.0371 148.434 79.0249C148.434 79.0249 148.407 79.0739 148.299 79.1353C147.681 79.528 147.358 80.4607 147.25 80.8411L147.223 80.9393V81.0374V99.9361C147.223 101.36 149.268 104.17 152.617 108.637C154.15 110.674 155.724 112.785 156.773 114.429C157.741 115.963 157.943 117.301 157.351 118.307C156.8 119.228 155.751 119.62 155.535 119.632Z" fill="#020203"/>
<path d="M760.401 115.509C757.974 111.676 752.377 105.211 752.377 103.508C752.377 101.806 752.377 87.4242 752.377 87.4242C752.377 87.4242 752.617 86.5782 752.983 86.3484C754.036 85.6591 752.846 84.7087 752.102 84.7087C751.358 84.7087 751.163 84.7087 751.163 84.7087H748.279H747.706H745.875C745.875 84.7087 745.692 84.7087 744.936 84.7087C744.192 84.7087 742.99 85.6695 744.055 86.3484C744.421 86.5782 744.661 87.4242 744.661 87.4242C744.661 87.4242 744.661 101.806 744.661 103.508C744.661 105.211 739.064 111.676 736.637 115.509C734.222 119.331 737.519 120.95 738.32 120.95H747.706H747.992H748.279H758.718C759.531 120.95 762.828 119.331 760.401 115.509Z" fill="white"/>
<path d="M760.404 115.51C757.977 111.677 752.38 105.212 752.38 103.51C752.38 102.779 752.38 99.6768 752.38 96.3868C749.953 96.5853 746.496 96.5748 744.676 96.5017C744.676 99.7499 744.676 102.789 744.676 103.51C744.676 105.212 739.078 111.677 736.652 115.51C734.225 119.333 737.522 120.952 738.323 120.952H747.709H747.996H748.282H758.721C759.534 120.952 762.831 119.333 760.404 115.51Z" fill="url(#paint4_linear_98_24)" stroke="white" stroke-miterlimit="10"/>
<g opacity="0.2">
<path d="M743.896 85.2011C743.587 85.5353 743.507 85.974 744.068 86.3395C744.434 86.5693 744.675 87.4153 744.675 87.4153C744.675 87.4153 744.675 101.797 744.675 103.499C744.675 105.202 739.077 111.667 736.65 115.5C734.224 119.333 737.52 120.952 738.322 120.952H738.837C737.555 119.406 738.482 118.111 738.482 118.111C738.482 118.111 745.671 106.716 746.025 105.839C746.392 104.951 746.323 103.259 746.323 103.259V87.8644C746.197 86.4022 744.778 85.5771 743.896 85.2011Z" fill="white"/>
</g>
<path d="M761.043 115.166C760.128 113.724 758.765 111.907 757.449 110.142C755.617 107.698 753.111 104.356 753.111 103.499V87.4153L753.088 87.5824C753.168 87.3004 753.34 86.9453 753.431 86.8617C753.431 86.8617 753.42 86.8722 753.408 86.8722C754.026 86.4753 754.267 85.88 754.061 85.2951C753.786 84.5222 752.824 84 752.092 84H751.153H748.269H747.696H745.865H744.926C744.193 84 743.232 84.5222 742.957 85.2951C742.751 85.88 742.992 86.4648 743.61 86.8722C743.598 86.8617 743.587 86.8617 743.587 86.8617C743.678 86.9453 743.839 87.2899 743.93 87.5824L743.907 87.4048V103.489C743.907 104.356 741.4 107.698 739.569 110.131C738.253 111.886 736.89 113.703 735.975 115.155C734.555 117.401 734.944 118.957 735.528 119.865C736.284 121.056 737.623 121.61 738.298 121.61H747.685H747.971H748.257H758.697C759.372 121.61 760.711 121.056 761.467 119.865C762.074 118.967 762.463 117.411 761.043 115.166ZM758.72 120.283H748.28H747.994H747.708H738.321H738.333C738.149 120.273 737.257 119.949 736.799 119.155C736.295 118.299 736.467 117.15 737.291 115.855C738.172 114.455 739.523 112.659 740.828 110.925C743.678 107.123 745.418 104.732 745.418 103.52V87.4361V87.3526L745.395 87.269C745.304 86.9453 745.029 86.1515 744.503 85.8173C744.411 85.7546 744.388 85.7233 744.388 85.7233C744.388 85.7337 744.399 85.7442 744.388 85.7546C744.411 85.6293 744.766 85.3891 744.949 85.3891H745.888H747.719H748.291H751.176H752.115C752.309 85.3891 752.653 85.6293 752.676 85.7546C752.676 85.7442 752.676 85.7337 752.676 85.7233C752.676 85.7233 752.653 85.7651 752.561 85.8173C752.035 86.1515 751.76 86.9453 751.668 87.269L751.645 87.3526V87.4361V103.52C751.645 104.732 753.385 107.123 756.236 110.925C757.541 112.659 758.88 114.455 759.773 115.855C760.597 117.16 760.769 118.299 760.265 119.155C759.796 119.939 758.903 120.273 758.72 120.283Z" fill="#020203"/>
<path d="M796.344 111.923H788.222L788 111.872L792.234 105.569L794.924 109.333L796.344 111.923Z" stroke="#FB0000" stroke-width="19"/>
<path d="M789.072 93.9197C788.906 94.3534 788.445 94.7344 787.884 94.644C787.324 94.5536 787.995 94.2515 788.09 93.7613C788.185 93.271 788.176 92.8574 788.736 92.9478C789.163 93.0195 789.167 93.4295 789.072 93.9197Z" fill="black"/>
<path d="M788.17 93.6017C784.964 97.9901 778.944 107.219 778.65 107.853C778.186 108.854 775.869 113.915 777.138 117.67C778.215 120.854 782.666 121.875 790.564 121.875C798.767 121.875 799.547 121.829 801.549 121.422C803.55 121.015 805.306 119.389 806.576 117.399C807.591 115.806 807.644 112.313 807.064 110.884C806.235 108.844 804.038 104.957 803.256 103.555C802.161 101.594 795.981 93.6017 795.981 93.6017L795.493 77.7671L795.054 55.5536C795.641 55.278 795.983 54.7364 796.129 54.1964C796.327 53.4684 795.737 52.3372 795.054 52.0206C793.202 51.1627 789.483 51.3862 788.121 52.0206C787.83 52.1563 786.901 52.3411 786.901 54.1964C786.901 54.6749 787.34 55.6743 788.121 55.5536V93.6017" stroke="black" stroke-width="2"/>
<defs>
<filter id="filter0_d_98_24" x="5.93994" y="188" width="843.095" height="203" filterUnits="userSpaceOnUse" color-interpolation-filters="sRGB">
<feFlood flood-opacity="0" result="BackgroundImageFix"/>
<feColorMatrix in="SourceAlpha" type="matrix" values="0 0 0 0 0 0 0 0 0 0 0 0 0 0 0 0 0 0 127 0" result="hardAlpha"/>
<feOffset dy="-3"/>
<feGaussianBlur stdDeviation="2"/>
<feComposite in2="hardAlpha" operator="out"/>
<feColorMatrix type="matrix" values="0 0 0 0 0 0 0 0 0 0 0 0 0 0 0 0 0 0 0.25 0"/>
<feBlend mode="normal" in2="BackgroundImageFix" result="effect1_dropShadow_98_24"/>
<feBlend mode="normal" in="SourceGraphic" in2="effect1_dropShadow_98_24" result="shape"/>
</filter>
<filter id="filter1_d_98_24" x="1.93994" y="126.902" width="843.095" height="97.375" filterUnits="userSpaceOnUse" color-interpolation-filters="sRGB">
<feFlood flood-opacity="0" result="BackgroundImageFix"/>
<feColorMatrix in="SourceAlpha" type="matrix" values="0 0 0 0 0 0 0 0 0 0 0 0 0 0 0 0 0 0 127 0" result="hardAlpha"/>
<feOffset dx="-4"/>
<feGaussianBlur stdDeviation="2"/>
<feComposite in2="hardAlpha" operator="out"/>
<feColorMatrix type="matrix" values="0 0 0 0 1 0 0 0 0 1 0 0 0 0 1 0 0 0 0.25 0"/>
<feBlend mode="normal" in2="BackgroundImageFix" result="effect1_dropShadow_98_24"/>
<feBlend mode="normal" in="SourceGraphic" in2="effect1_dropShadow_98_24" result="shape"/>
</filter>
<filter id="filter2_dd_98_24" x="0" y="102.041" width="852" height="36.8611" filterUnits="userSpaceOnUse" color-interpolation-filters="sRGB">
<feFlood flood-opacity="0" result="BackgroundImageFix"/>
<feColorMatrix in="SourceAlpha" type="matrix" values="0 0 0 0 0 0 0 0 0 0 0 0 0 0 0 0 0 0 127 0" result="hardAlpha"/>
<feOffset dy="-5"/>
<feGaussianBlur stdDeviation="2"/>
<feComposite in2="hardAlpha" operator="out"/>
<feColorMatrix type="matrix" values="0 0 0 0 1 0 0 0 0 1 0 0 0 0 1 0 0 0 0.25 0"/>
<feBlend mode="normal" in2="BackgroundImageFix" result="effect1_dropShadow_98_24"/>
<feColorMatrix in="SourceAlpha" type="matrix" values="0 0 0 0 0 0 0 0 0 0 0 0 0 0 0 0 0 0 127 0" result="hardAlpha"/>
<feOffset dy="4"/>
<feGaussianBlur stdDeviation="2"/>
<feComposite in2="hardAlpha" operator="out"/>
<feColorMatrix type="matrix" values="0 0 0 0 0 0 0 0 0 0 0 0 0 0 0 0 0 0 0.25 0"/>
<feBlend mode="normal" in2="effect1_dropShadow_98_24" result="effect2_dropShadow_98_24"/>
<feBlend mode="normal" in="SourceGraphic" in2="effect2_dropShadow_98_24" result="shape"/>
</filter>
<filter id="filter3_d_98_24" x="8.89722" y="150.24" width="110.11" height="71.7169" filterUnits="userSpaceOnUse" color-interpolation-filters="sRGB">
<feFlood flood-opacity="0" result="BackgroundImageFix"/>
<feColorMatrix in="SourceAlpha" type="matrix" values="0 0 0 0 0 0 0 0 0 0 0 0 0 0 0 0 0 0 127 0" result="hardAlpha"/>
<feOffset dx="-1" dy="4"/>
<feGaussianBlur stdDeviation="2"/>
<feComposite in2="hardAlpha" operator="out"/>
<feColorMatrix type="matrix" values="0 0 0 0 0 0 0 0 0 0 0 0 0 0 0 0 0 0 0.25 0"/>
<feBlend mode="normal" in2="BackgroundImageFix" result="effect1_dropShadow_98_24"/>
<feBlend mode="normal" in="SourceGraphic" in2="effect1_dropShadow_98_24" result="shape"/>
</filter>
<filter id="filter4_d_98_24" x="96.7505" y="178.082" width="16.8026" height="16.0315" filterUnits="userSpaceOnUse" color-interpolation-filters="sRGB">
<feFlood flood-opacity="0" result="BackgroundImageFix"/>
<feColorMatrix in="SourceAlpha" type="matrix" values="0 0 0 0 0 0 0 0 0 0 0 0 0 0 0 0 0 0 127 0" result="hardAlpha"/>
<feOffset dy="4"/>
<feGaussianBlur stdDeviation="2"/>
<feComposite in2="hardAlpha" operator="out"/>
<feColorMatrix type="matrix" values="0 0 0 0 0 0 0 0 0 0 0 0 0 0 0 0 0 0 0.25 0"/>
<feBlend mode="normal" in2="BackgroundImageFix" result="effect1_dropShadow_98_24"/>
<feBlend mode="normal" in="SourceGraphic" in2="effect1_dropShadow_98_24" result="shape"/>
</filter>
<filter id="filter5_d_98_24" x="222.616" y="136.319" width="109.913" height="44.1111" filterUnits="userSpaceOnUse" color-interpolation-filters="sRGB">
<feFlood flood-opacity="0" result="BackgroundImageFix"/>
<feColorMatrix in="SourceAlpha" type="matrix" values="0 0 0 0 0 0 0 0 0 0 0 0 0 0 0 0 0 0 127 0" result="hardAlpha"/>
<feOffset dx="-1" dy="4"/>
<feGaussianBlur stdDeviation="2"/>
<feComposite in2="hardAlpha" operator="out"/>
<feColorMatrix type="matrix" values="0 0 0 0 0 0 0 0 0 0 0 0 0 0 0 0 0 0 0.25 0"/>
<feBlend mode="normal" in2="BackgroundImageFix" result="effect1_dropShadow_98_24"/>
<feBlend mode="normal" in="SourceGraphic" in2="effect1_dropShadow_98_24" result="shape"/>
</filter>
<filter id="filter6_d_98_24" x="310.469" y="149.861" width="18.7256" height="17.7861" filterUnits="userSpaceOnUse" color-interpolation-filters="sRGB">
<feFlood flood-opacity="0" result="BackgroundImageFix"/>
<feColorMatrix in="SourceAlpha" type="matrix" values="0 0 0 0 0 0 0 0 0 0 0 0 0 0 0 0 0 0 127 0" result="hardAlpha"/>
<feOffset dy="4"/>
<feGaussianBlur stdDeviation="2"/>
<feComposite in2="hardAlpha" operator="out"/>
<feColorMatrix type="matrix" values="0 0 0 0 0 0 0 0 0 0 0 0 0 0 0 0 0 0 0.25 0"/>
<feBlend mode="normal" in2="BackgroundImageFix" result="effect1_dropShadow_98_24"/>
<feBlend mode="normal" in="SourceGraphic" in2="effect1_dropShadow_98_24" result="shape"/>
</filter>
<filter id="filter7_d_98_24" x="222.616" y="176.945" width="109.913" height="45.0139" filterUnits="userSpaceOnUse" color-interpolation-filters="sRGB">
<feFlood flood-opacity="0" result="BackgroundImageFix"/>
<feColorMatrix in="SourceAlpha" type="matrix" values="0 0 0 0 0 0 0 0 0 0 0 0 0 0 0 0 0 0 127 0" result="hardAlpha"/>
<feOffset dx="-1" dy="4"/>
<feGaussianBlur stdDeviation="2"/>
<feComposite in2="hardAlpha" operator="out"/>
<feColorMatrix type="matrix" values="0 0 0 0 0 0 0 0 0 0 0 0 0 0 0 0 0 0 0.25 0"/>
<feBlend mode="normal" in2="BackgroundImageFix" result="effect1_dropShadow_98_24"/>
<feBlend mode="normal" in="SourceGraphic" in2="effect1_dropShadow_98_24" result="shape"/>
</filter>
<filter id="filter8_d_98_24" x="310.469" y="190.486" width="18.7256" height="17.7861" filterUnits="userSpaceOnUse" color-interpolation-filters="sRGB">
<feFlood flood-opacity="0" result="BackgroundImageFix"/>
<feColorMatrix in="SourceAlpha" type="matrix" values="0 0 0 0 0 0 0 0 0 0 0 0 0 0 0 0 0 0 127 0" result="hardAlpha"/>
<feOffset dy="4"/>
<feGaussianBlur stdDeviation="2"/>
<feComposite in2="hardAlpha" operator="out"/>
<feColorMatrix type="matrix" values="0 0 0 0 0 0 0 0 0 0 0 0 0 0 0 0 0 0 0.25 0"/>
<feBlend mode="normal" in2="BackgroundImageFix" result="effect1_dropShadow_98_24"/>
<feBlend mode="normal" in="SourceGraphic" in2="effect1_dropShadow_98_24" result="shape"/>
</filter>
<filter id="filter9_d_98_24" x="520.441" y="136.319" width="109.913" height="44.1111" filterUnits="userSpaceOnUse" color-interpolation-filters="sRGB">
<feFlood flood-opacity="0" result="BackgroundImageFix"/>
<feColorMatrix in="SourceAlpha" type="matrix" values="0 0 0 0 0 0 0 0 0 0 0 0 0 0 0 0 0 0 127 0" result="hardAlpha"/>
<feOffset dx="-1" dy="4"/>
<feGaussianBlur stdDeviation="2"/>
<feComposite in2="hardAlpha" operator="out"/>
<feColorMatrix type="matrix" values="0 0 0 0 0 0 0 0 0 0 0 0 0 0 0 0 0 0 0.25 0"/>
<feBlend mode="normal" in2="BackgroundImageFix" result="effect1_dropShadow_98_24"/>
<feBlend mode="normal" in="SourceGraphic" in2="effect1_dropShadow_98_24" result="shape"/>
</filter>
<filter id="filter10_d_98_24" x="525.775" y="149.861" width="18.7256" height="17.7861" filterUnits="userSpaceOnUse" color-interpolation-filters="sRGB">
<feFlood flood-opacity="0" result="BackgroundImageFix"/>
<feColorMatrix in="SourceAlpha" type="matrix" values="0 0 0 0 0 0 0 0 0 0 0 0 0 0 0 0 0 0 127 0" result="hardAlpha"/>
<feOffset dy="4"/>
<feGaussianBlur stdDeviation="2"/>
<feComposite in2="hardAlpha" operator="out"/>
<feColorMatrix type="matrix" values="0 0 0 0 0 0 0 0 0 0 0 0 0 0 0 0 0 0 0.25 0"/>
<feBlend mode="normal" in2="BackgroundImageFix" result="effect1_dropShadow_98_24"/>
<feBlend mode="normal" in="SourceGraphic" in2="effect1_dropShadow_98_24" result="shape"/>
</filter>
<filter id="filter11_d_98_24" x="520.441" y="176.945" width="109.913" height="45.0139" filterUnits="userSpaceOnUse" color-interpolation-filters="sRGB">
<feFlood flood-opacity="0" result="BackgroundImageFix"/>
<feColorMatrix in="SourceAlpha" type="matrix" values="0 0 0 0 0 0 0 0 0 0 0 0 0 0 0 0 0 0 127 0" result="hardAlpha"/>
<feOffset dx="-1" dy="4"/>
<feGaussianBlur stdDeviation="2"/>
<feComposite in2="hardAlpha" operator="out"/>
<feColorMatrix type="matrix" values="0 0 0 0 0 0 0 0 0 0 0 0 0 0 0 0 0 0 0.25 0"/>
<feBlend mode="normal" in2="BackgroundImageFix" result="effect1_dropShadow_98_24"/>
<feBlend mode="normal" in="SourceGraphic" in2="effect1_dropShadow_98_24" result="shape"/>
</filter>
<filter id="filter12_d_98_24" x="525.775" y="190.486" width="18.7256" height="17.7861" filterUnits="userSpaceOnUse" color-interpolation-filters="sRGB">
<feFlood flood-opacity="0" result="BackgroundImageFix"/>
<feColorMatrix in="SourceAlpha" type="matrix" values="0 0 0 0 0 0 0 0 0 0 0 0 0 0 0 0 0 0 127 0" result="hardAlpha"/>
<feOffset dy="4"/>
<feGaussianBlur stdDeviation="2"/>
<feComposite in2="hardAlpha" operator="out"/>
<feColorMatrix type="matrix" values="0 0 0 0 0 0 0 0 0 0 0 0 0 0 0 0 0 0 0.25 0"/>
<feBlend mode="normal" in2="BackgroundImageFix" result="effect1_dropShadow_98_24"/>
<feBlend mode="normal" in="SourceGraphic" in2="effect1_dropShadow_98_24" result="shape"/>
</filter>
<filter id="filter13_d_98_24" x="7.89697" y="134.319" width="110.11" height="21.9213" filterUnits="userSpaceOnUse" color-interpolation-filters="sRGB">
<feFlood flood-opacity="0" result="BackgroundImageFix"/>
<feColorMatrix in="SourceAlpha" type="matrix" values="0 0 0 0 0 0 0 0 0 0 0 0 0 0 0 0 0 0 127 0" result="hardAlpha"/>
<feOffset dx="-2" dy="2"/>
<feGaussianBlur stdDeviation="2"/>
<feComposite in2="hardAlpha" operator="out"/>
<feColorMatrix type="matrix" values="0 0 0 0 0 0 0 0 0 0 0 0 0 0 0 0 0 0 0.25 0"/>
<feBlend mode="normal" in2="BackgroundImageFix" result="effect1_dropShadow_98_24"/>
<feBlend mode="normal" in="SourceGraphic" in2="effect1_dropShadow_98_24" result="shape"/>
</filter>
<filter id="filter14_d_98_24" x="52.9749" y="138.139" width="27.3657" height="12.2835" filterUnits="userSpaceOnUse" color-interpolation-filters="sRGB">
<feFlood flood-opacity="0" result="BackgroundImageFix"/>
<feColorMatrix in="SourceAlpha" type="matrix" values="0 0 0 0 0 0 0 0 0 0 0 0 0 0 0 0 0 0 127 0" result="hardAlpha"/>
<feOffset dx="2" dy="1"/>
<feGaussianBlur stdDeviation="2"/>
<feComposite in2="hardAlpha" operator="out"/>
<feColorMatrix type="matrix" values="0 0 0 0 0 0 0 0 0 0 0 0 0 0 0 0 0 0 0.25 0"/>
<feBlend mode="normal" in2="BackgroundImageFix" result="effect1_dropShadow_98_24"/>
<feBlend mode="normal" in="SourceGraphic" in2="effect1_dropShadow_98_24" result="shape"/>
</filter>
<filter id="filter15_d_98_24" x="113.672" y="198.036" width="110.11" height="21.9214" filterUnits="userSpaceOnUse" color-interpolation-filters="sRGB">
<feFlood flood-opacity="0" result="BackgroundImageFix"/>
<feColorMatrix in="SourceAlpha" type="matrix" values="0 0 0 0 0 0 0 0 0 0 0 0 0 0 0 0 0 0 127 0" result="hardAlpha"/>
<feOffset dx="-2" dy="2"/>
<feGaussianBlur stdDeviation="2"/>
<feComposite in2="hardAlpha" operator="out"/>
<feColorMatrix type="matrix" values="0 0 0 0 0 0 0 0 0 0 0 0 0 0 0 0 0 0 0.25 0"/>
<feBlend mode="normal" in2="BackgroundImageFix" result="effect1_dropShadow_98_24"/>
<feBlend mode="normal" in="SourceGraphic" in2="effect1_dropShadow_98_24" result="shape"/>
</filter>
<filter id="filter16_d_98_24" x="158.749" y="201.856" width="27.3657" height="12.2834" filterUnits="userSpaceOnUse" color-interpolation-filters="sRGB">
<feFlood flood-opacity="0" result="BackgroundImageFix"/>
<feColorMatrix in="SourceAlpha" type="matrix" values="0 0 0 0 0 0 0 0 0 0 0 0 0 0 0 0 0 0 127 0" result="hardAlpha"/>
<feOffset dx="2" dy="1"/>
<feGaussianBlur stdDeviation="2"/>
<feComposite in2="hardAlpha" operator="out"/>
<feColorMatrix type="matrix" values="0 0 0 0 0 0 0 0 0 0 0 0 0 0 0 0 0 0 0.25 0"/>
<feBlend mode="normal" in2="BackgroundImageFix" result="effect1_dropShadow_98_24"/>
<feBlend mode="normal" in="SourceGraphic" in2="effect1_dropShadow_98_24" result="shape"/>
</filter>
<filter id="filter17_d_98_24" x="113.67" y="134.32" width="110.11" height="42.8033" filterUnits="userSpaceOnUse" color-interpolation-filters="sRGB">
<feFlood flood-opacity="0" result="BackgroundImageFix"/>
<feColorMatrix in="SourceAlpha" type="matrix" values="0 0 0 0 0 0 0 0 0 0 0 0 0 0 0 0 0 0 127 0" result="hardAlpha"/>
<feOffset dx="-2" dy="2"/>
<feGaussianBlur stdDeviation="2"/>
<feComposite in2="hardAlpha" operator="out"/>
<feColorMatrix type="matrix" values="0 0 0 0 0 0 0 0 0 0 0 0 0 0 0 0 0 0 0.25 0"/>
<feBlend mode="normal" in2="BackgroundImageFix" result="effect1_dropShadow_98_24"/>
<feBlend mode="normal" in="SourceGraphic" in2="effect1_dropShadow_98_24" result="shape"/>
</filter>
<filter id="filter18_d_98_24" x="158.748" y="139.806" width="27.3657" height="13.7662" filterUnits="userSpaceOnUse" color-interpolation-filters="sRGB">
<feFlood flood-opacity="0" result="BackgroundImageFix"/>
<feColorMatrix in="SourceAlpha" type="matrix" values="0 0 0 0 0 0 0 0 0 0 0 0 0 0 0 0 0 0 127 0" result="hardAlpha"/>
<feOffset dx="2" dy="1"/>
<feGaussianBlur stdDeviation="2"/>
<feComposite in2="hardAlpha" operator="out"/>
<feColorMatrix type="matrix" values="0 0 0 0 0 0 0 0 0 0 0 0 0 0 0 0 0 0 0.25 0"/>
<feBlend mode="normal" in2="BackgroundImageFix" result="effect1_dropShadow_98_24"/>
<feBlend mode="normal" in="SourceGraphic" in2="effect1_dropShadow_98_24" result="shape"/>
</filter>
<filter id="filter19_d_98_24" x="113.672" y="170.192" width="110.11" height="34.7719" filterUnits="userSpaceOnUse" color-interpolation-filters="sRGB">
<feFlood flood-opacity="0" result="BackgroundImageFix"/>
<feColorMatrix in="SourceAlpha" type="matrix" values="0 0 0 0 0 0 0 0 0 0 0 0 0 0 0 0 0 0 127 0" result="hardAlpha"/>
<feOffset dx="-2" dy="2"/>
<feGaussianBlur stdDeviation="2"/>
<feComposite in2="hardAlpha" operator="out"/>
<feColorMatrix type="matrix" values="0 0 0 0 0 0 0 0 0 0 0 0 0 0 0 0 0 0 0.25 0"/>
<feBlend mode="normal" in2="BackgroundImageFix" result="effect1_dropShadow_98_24"/>
<feBlend mode="normal" in="SourceGraphic" in2="effect1_dropShadow_98_24" result="shape"/>
</filter>
<filter id="filter20_d_98_24" x="158.749" y="179.366" width="27.3657" height="12.2834" filterUnits="userSpaceOnUse" color-interpolation-filters="sRGB">
<feFlood flood-opacity="0" result="BackgroundImageFix"/>
<feColorMatrix in="SourceAlpha" type="matrix" values="0 0 0 0 0 0 0 0 0 0 0 0 0 0 0 0 0 0 127 0" result="hardAlpha"/>
<feOffset dx="2" dy="1"/>
<feGaussianBlur stdDeviation="2"/>
<feComposite in2="hardAlpha" operator="out"/>
<feColorMatrix type="matrix" values="0 0 0 0 0 0 0 0 0 0 0 0 0 0 0 0 0 0 0.25 0"/>
<feBlend mode="normal" in2="BackgroundImageFix" result="effect1_dropShadow_98_24"/>
<feBlend mode="normal" in="SourceGraphic" in2="effect1_dropShadow_98_24" result="shape"/>
</filter>
<filter id="filter21_d_98_24" x="628.285" y="150.24" width="110.11" height="71.7169" filterUnits="userSpaceOnUse" color-interpolation-filters="sRGB">
<feFlood flood-opacity="0" result="BackgroundImageFix"/>
<feColorMatrix in="SourceAlpha" type="matrix" values="0 0 0 0 0 0 0 0 0 0 0 0 0 0 0 0 0 0 127 0" result="hardAlpha"/>
<feOffset dx="-1" dy="4"/>
<feGaussianBlur stdDeviation="2"/>
<feComposite in2="hardAlpha" operator="out"/>
<feColorMatrix type="matrix" values="0 0 0 0 0 0 0 0 0 0 0 0 0 0 0 0 0 0 0.25 0"/>
<feBlend mode="normal" in2="BackgroundImageFix" result="effect1_dropShadow_98_24"/>
<feBlend mode="normal" in="SourceGraphic" in2="effect1_dropShadow_98_24" result="shape"/>
</filter>
<filter id="filter22_d_98_24" x="633.242" y="178.082" width="16.8026" height="16.0315" filterUnits="userSpaceOnUse" color-interpolation-filters="sRGB">
<feFlood flood-opacity="0" result="BackgroundImageFix"/>
<feColorMatrix in="SourceAlpha" type="matrix" values="0 0 0 0 0 0 0 0 0 0 0 0 0 0 0 0 0 0 127 0" result="hardAlpha"/>
<feOffset dy="4"/>
<feGaussianBlur stdDeviation="2"/>
<feComposite in2="hardAlpha" operator="out"/>
<feColorMatrix type="matrix" values="0 0 0 0 0 0 0 0 0 0 0 0 0 0 0 0 0 0 0.25 0"/>
<feBlend mode="normal" in2="BackgroundImageFix" result="effect1_dropShadow_98_24"/>
<feBlend mode="normal" in="SourceGraphic" in2="effect1_dropShadow_98_24" result="shape"/>
</filter>
<filter id="filter23_d_98_24" x="627.285" y="134.319" width="110.11" height="21.9213" filterUnits="userSpaceOnUse" color-interpolation-filters="sRGB">
<feFlood flood-opacity="0" result="BackgroundImageFix"/>
<feColorMatrix in="SourceAlpha" type="matrix" values="0 0 0 0 0 0 0 0 0 0 0 0 0 0 0 0 0 0 127 0" result="hardAlpha"/>
<feOffset dx="-2" dy="2"/>
<feGaussianBlur stdDeviation="2"/>
<feComposite in2="hardAlpha" operator="out"/>
<feColorMatrix type="matrix" values="0 0 0 0 0 0 0 0 0 0 0 0 0 0 0 0 0 0 0.25 0"/>
<feBlend mode="normal" in2="BackgroundImageFix" result="effect1_dropShadow_98_24"/>
<feBlend mode="normal" in="SourceGraphic" in2="effect1_dropShadow_98_24" result="shape"/>
</filter>
<filter id="filter24_d_98_24" x="672.362" y="138.139" width="27.3658" height="12.2835" filterUnits="userSpaceOnUse" color-interpolation-filters="sRGB">
<feFlood flood-opacity="0" result="BackgroundImageFix"/>
<feColorMatrix in="SourceAlpha" type="matrix" values="0 0 0 0 0 0 0 0 0 0 0 0 0 0 0 0 0 0 127 0" result="hardAlpha"/>
<feOffset dx="2" dy="1"/>
<feGaussianBlur stdDeviation="2"/>
<feComposite in2="hardAlpha" operator="out"/>
<feColorMatrix type="matrix" values="0 0 0 0 0 0 0 0 0 0 0 0 0 0 0 0 0 0 0.25 0"/>
<feBlend mode="normal" in2="BackgroundImageFix" result="effect1_dropShadow_98_24"/>
<feBlend mode="normal" in="SourceGraphic" in2="effect1_dropShadow_98_24" result="shape"/>
</filter>
<filter id="filter25_d_98_24" x="737.023" y="198.036" width="107.038" height="21.9214" filterUnits="userSpaceOnUse" color-interpolation-filters="sRGB">
<feFlood flood-opacity="0" result="BackgroundImageFix"/>
<feColorMatrix in="SourceAlpha" type="matrix" values="0 0 0 0 0 0 0 0 0 0 0 0 0 0 0 0 0 0 127 0" result="hardAlpha"/>
<feOffset dx="-2" dy="2"/>
<feGaussianBlur stdDeviation="2"/>
<feComposite in2="hardAlpha" operator="out"/>
<feColorMatrix type="matrix" values="0 0 0 0 0 0 0 0 0 0 0 0 0 0 0 0 0 0 0.25 0"/>
<feBlend mode="normal" in2="BackgroundImageFix" result="effect1_dropShadow_98_24"/>
<feBlend mode="normal" in="SourceGraphic" in2="effect1_dropShadow_98_24" result="shape"/>
</filter>
<filter id="filter26_d_98_24" x="780.862" y="201.856" width="26.783" height="12.2834" filterUnits="userSpaceOnUse" color-interpolation-filters="sRGB">
<feFlood flood-opacity="0" result="BackgroundImageFix"/>
<feColorMatrix in="SourceAlpha" type="matrix" values="0 0 0 0 0 0 0 0 0 0 0 0 0 0 0 0 0 0 127 0" result="hardAlpha"/>
<feOffset dx="2" dy="1"/>
<feGaussianBlur stdDeviation="2"/>
<feComposite in2="hardAlpha" operator="out"/>
<feColorMatrix type="matrix" values="0 0 0 0 0 0 0 0 0 0 0 0 0 0 0 0 0 0 0.25 0"/>
<feBlend mode="normal" in2="BackgroundImageFix" result="effect1_dropShadow_98_24"/>
<feBlend mode="normal" in="SourceGraphic" in2="effect1_dropShadow_98_24" result="shape"/>
</filter>
<filter id="filter27_d_98_24" x="737.021" y="134.32" width="107.038" height="42.8033" filterUnits="userSpaceOnUse" color-interpolation-filters="sRGB">
<feFlood flood-opacity="0" result="BackgroundImageFix"/>
<feColorMatrix in="SourceAlpha" type="matrix" values="0 0 0 0 0 0 0 0 0 0 0 0 0 0 0 0 0 0 127 0" result="hardAlpha"/>
<feOffset dx="-2" dy="2"/>
<feGaussianBlur stdDeviation="2"/>
<feComposite in2="hardAlpha" operator="out"/>
<feColorMatrix type="matrix" values="0 0 0 0 0 0 0 0 0 0 0 0 0 0 0 0 0 0 0.25 0"/>
<feBlend mode="normal" in2="BackgroundImageFix" result="effect1_dropShadow_98_24"/>
<feBlend mode="normal" in="SourceGraphic" in2="effect1_dropShadow_98_24" result="shape"/>
</filter>
<filter id="filter28_d_98_24" x="780.86" y="139.806" width="26.783" height="13.7662" filterUnits="userSpaceOnUse" color-interpolation-filters="sRGB">
<feFlood flood-opacity="0" result="BackgroundImageFix"/>
<feColorMatrix in="SourceAlpha" type="matrix" values="0 0 0 0 0 0 0 0 0 0 0 0 0 0 0 0 0 0 127 0" result="hardAlpha"/>
<feOffset dx="2" dy="1"/>
<feGaussianBlur stdDeviation="2"/>
<feComposite in2="hardAlpha" operator="out"/>
<feColorMatrix type="matrix" values="0 0 0 0 0 0 0 0 0 0 0 0 0 0 0 0 0 0 0.25 0"/>
<feBlend mode="normal" in2="BackgroundImageFix" result="effect1_dropShadow_98_24"/>
<feBlend mode="normal" in="SourceGraphic" in2="effect1_dropShadow_98_24" result="shape"/>
</filter>
<filter id="filter29_d_98_24" x="737.023" y="170.192" width="107.038" height="34.7719" filterUnits="userSpaceOnUse" color-interpolation-filters="sRGB">
<feFlood flood-opacity="0" result="BackgroundImageFix"/>
<feColorMatrix in="SourceAlpha" type="matrix" values="0 0 0 0 0 0 0 0 0 0 0 0 0 0 0 0 0 0 127 0" result="hardAlpha"/>
<feOffset dx="-2" dy="2"/>
<feGaussianBlur stdDeviation="2"/>
<feComposite in2="hardAlpha" operator="out"/>
<feColorMatrix type="matrix" values="0 0 0 0 0 0 0 0 0 0 0 0 0 0 0 0 0 0 0.25 0"/>
<feBlend mode="normal" in2="BackgroundImageFix" result="effect1_dropShadow_98_24"/>
<feBlend mode="normal" in="SourceGraphic" in2="effect1_dropShadow_98_24" result="shape"/>
</filter>
<filter id="filter30_d_98_24" x="780.862" y="179.366" width="26.783" height="12.2834" filterUnits="userSpaceOnUse" color-interpolation-filters="sRGB">
<feFlood flood-opacity="0" result="BackgroundImageFix"/>
<feColorMatrix in="SourceAlpha" type="matrix" values="0 0 0 0 0 0 0 0 0 0 0 0 0 0 0 0 0 0 127 0" result="hardAlpha"/>
<feOffset dx="2" dy="1"/>
<feGaussianBlur stdDeviation="2"/>
<feComposite in2="hardAlpha" operator="out"/>
<feColorMatrix type="matrix" values="0 0 0 0 0 0 0 0 0 0 0 0 0 0 0 0 0 0 0.25 0"/>
<feBlend mode="normal" in2="BackgroundImageFix" result="effect1_dropShadow_98_24"/>
<feBlend mode="normal" in="SourceGraphic" in2="effect1_dropShadow_98_24" result="shape"/>
</filter>
<filter id="filter31_b_98_24" x="208" y="285" width="439" height="91" filterUnits="userSpaceOnUse" color-interpolation-filters="sRGB">
<feFlood flood-opacity="0" result="BackgroundImageFix"/>
<feGaussianBlur in="BackgroundImageFix" stdDeviation="2"/>
<feComposite in2="SourceAlpha" operator="in" result="effect1_backgroundBlur_98_24"/>
<feBlend mode="normal" in="SourceGraphic" in2="effect1_backgroundBlur_98_24" result="shape"/>
</filter>
<filter id="filter32_b_98_24" x="6" y="219" width="843" height="91" filterUnits="userSpaceOnUse" color-interpolation-filters="sRGB">
<feFlood flood-opacity="0" result="BackgroundImageFix"/>
<feGaussianBlur in="BackgroundImageFix" stdDeviation="2"/>
<feComposite in2="SourceAlpha" operator="in" result="effect1_backgroundBlur_98_24"/>
<feBlend mode="normal" in="SourceGraphic" in2="effect1_backgroundBlur_98_24" result="shape"/>
</filter>
<filter id="filter33_d_98_24" x="265.116" y="194.807" width="325.929" height="166.83" filterUnits="userSpaceOnUse" color-interpolation-filters="sRGB">
<feFlood flood-opacity="0" result="BackgroundImageFix"/>
<feColorMatrix in="SourceAlpha" type="matrix" values="0 0 0 0 0 0 0 0 0 0 0 0 0 0 0 0 0 0 127 0" result="hardAlpha"/>
<feOffset dy="4"/>
<feGaussianBlur stdDeviation="2"/>
<feComposite in2="hardAlpha" operator="out"/>
<feColorMatrix type="matrix" values="0 0 0 0 0 0 0 0 0 0 0 0 0 0 0 0 0 0 0.25 0"/>
<feBlend mode="normal" in2="BackgroundImageFix" result="effect1_dropShadow_98_24"/>
<feBlend mode="normal" in="SourceGraphic" in2="effect1_dropShadow_98_24" result="shape"/>
</filter>
<filter id="filter34_d_98_24" x="305.104" y="190.807" width="26.2487" height="114.561" filterUnits="userSpaceOnUse" color-interpolation-filters="sRGB">
<feFlood flood-opacity="0" result="BackgroundImageFix"/>
<feColorMatrix in="SourceAlpha" type="matrix" values="0 0 0 0 0 0 0 0 0 0 0 0 0 0 0 0 0 0 127 0" result="hardAlpha"/>
<feOffset dx="4"/>
<feGaussianBlur stdDeviation="2"/>
<feComposite in2="hardAlpha" operator="out"/>
<feColorMatrix type="matrix" values="0 0 0 0 0 0 0 0 0 0 0 0 0 0 0 0 0 0 0.25 0"/>
<feBlend mode="normal" in2="BackgroundImageFix" result="effect1_dropShadow_98_24"/>
<feBlend mode="normal" in="SourceGraphic" in2="effect1_dropShadow_98_24" result="shape"/>
</filter>
<filter id="filter35_d_98_24" x="267.116" y="252.305" width="28.026" height="105.333" filterUnits="userSpaceOnUse" color-interpolation-filters="sRGB">
<feFlood flood-opacity="0" result="BackgroundImageFix"/>
<feColorMatrix in="SourceAlpha" type="matrix" values="0 0 0 0 0 0 0 0 0 0 0 0 0 0 0 0 0 0 127 0" result="hardAlpha"/>
<feOffset dx="2"/>
<feGaussianBlur stdDeviation="2"/>
<feComposite in2="hardAlpha" operator="out"/>
<feColorMatrix type="matrix" values="0 0 0 0 0 0 0 0 0 0 0 0 0 0 0 0 0 0 0.25 0"/>
<feBlend mode="normal" in2="BackgroundImageFix" result="effect1_dropShadow_98_24"/>
<feBlend mode="normal" in="SourceGraphic" in2="effect1_dropShadow_98_24" result="shape"/>
</filter>
<filter id="filter36_d_98_24" x="525" y="190.807" width="26.2487" height="119.556" filterUnits="userSpaceOnUse" color-interpolation-filters="sRGB">
<feFlood flood-opacity="0" result="BackgroundImageFix"/>
<feColorMatrix in="SourceAlpha" type="matrix" values="0 0 0 0 0 0 0 0 0 0 0 0 0 0 0 0 0 0 127 0" result="hardAlpha"/>
<feOffset dx="4"/>
<feGaussianBlur stdDeviation="2"/>
<feComposite in2="hardAlpha" operator="out"/>
<feColorMatrix type="matrix" values="0 0 0 0 0 0 0 0 0 0 0 0 0 0 0 0 0 0 0.25 0"/>
<feBlend mode="normal" in2="BackgroundImageFix" result="effect1_dropShadow_98_24"/>
<feBlend mode="normal" in="SourceGraphic" in2="effect1_dropShadow_98_24" result="shape"/>
</filter>
<filter id="filter37_d_98_24" x="564.059" y="252.412" width="28.986" height="100.408" filterUnits="userSpaceOnUse" color-interpolation-filters="sRGB">
<feFlood flood-opacity="0" result="BackgroundImageFix"/>
<feColorMatrix in="SourceAlpha" type="matrix" values="0 0 0 0 0 0 0 0 0 0 0 0 0 0 0 0 0 0 127 0" result="hardAlpha"/>
<feOffset dx="2"/>
<feGaussianBlur stdDeviation="2"/>
<feComposite in2="hardAlpha" operator="out"/>
<feColorMatrix type="matrix" values="0 0 0 0 0 0 0 0 0 0 0 0 0 0 0 0 0 0 0.25 0"/>
<feBlend mode="normal" in2="BackgroundImageFix" result="effect1_dropShadow_98_24"/>
<feBlend mode="normal" in="SourceGraphic" in2="effect1_dropShadow_98_24" result="shape"/>
</filter>
<filter id="filter38_d_98_24" x="561" y="346.291" width="31.4921" height="19.2441" filterUnits="userSpaceOnUse" color-interpolation-filters="sRGB">
<feFlood flood-opacity="0" result="BackgroundImageFix"/>
<feColorMatrix in="SourceAlpha" type="matrix" values="0 0 0 0 0 0 0 0 0 0 0 0 0 0 0 0 0 0 127 0" result="hardAlpha"/>
<feOffset dy="4"/>
<feGaussianBlur stdDeviation="2"/>
<feComposite in2="hardAlpha" operator="out"/>
<feColorMatrix type="matrix" values="0 0 0 0 0 0 0 0 0 0 0 0 0 0 0 0 0 0 0.25 0"/>
<feBlend mode="normal" in2="BackgroundImageFix" result="effect1_dropShadow_98_24"/>
<feBlend mode="normal" in="SourceGraphic" in2="effect1_dropShadow_98_24" result="shape"/>
</filter>
<filter id="filter39_d_98_24" x="263.187" y="345.555" width="31.4921" height="19.2441" filterUnits="userSpaceOnUse" color-interpolation-filters="sRGB">
<feFlood flood-opacity="0" result="BackgroundImageFix"/>
<feColorMatrix in="SourceAlpha" type="matrix" values="0 0 0 0 0 0 0 0 0 0 0 0 0 0 0 0 0 0 127 0" result="hardAlpha"/>
<feOffset dy="4"/>
<feGaussianBlur stdDeviation="2"/>
<feComposite in2="hardAlpha" operator="out"/>
<feColorMatrix type="matrix" values="0 0 0 0 0 0 0 0 0 0 0 0 0 0 0 0 0 0 0.25 0"/>
<feBlend mode="normal" in2="BackgroundImageFix" result="effect1_dropShadow_98_24"/>
<feBlend mode="normal" in="SourceGraphic" in2="effect1_dropShadow_98_24" result="shape"/>
</filter>
<filter id="filter40_d_98_24" x="299.278" y="296.373" width="28.986" height="17.9901" filterUnits="userSpaceOnUse" color-interpolation-filters="sRGB">
<feFlood flood-opacity="0" result="BackgroundImageFix"/>
<feColorMatrix in="SourceAlpha" type="matrix" values="0 0 0 0 0 0 0 0 0 0 0 0 0 0 0 0 0 0 127 0" result="hardAlpha"/>
<feOffset dy="4"/>
<feGaussianBlur stdDeviation="2"/>
<feComposite in2="hardAlpha" operator="out"/>
<feColorMatrix type="matrix" values="0 0 0 0 0 0 0 0 0 0 0 0 0 0 0 0 0 0 0.25 0"/>
<feBlend mode="normal" in2="BackgroundImageFix" result="effect1_dropShadow_98_24"/>
<feBlend mode="normal" in="SourceGraphic" in2="effect1_dropShadow_98_24" result="shape"/>
</filter>
<filter id="filter41_d_98_24" x="520.086" y="303.033" width="28.986" height="17.9901" filterUnits="userSpaceOnUse" color-interpolation-filters="sRGB">
<feFlood flood-opacity="0" result="BackgroundImageFix"/>
<feColorMatrix in="SourceAlpha" type="matrix" values="0 0 0 0 0 0 0 0 0 0 0 0 0 0 0 0 0 0 127 0" result="hardAlpha"/>
<feOffset dy="4"/>
<feGaussianBlur stdDeviation="2"/>
<feComposite in2="hardAlpha" operator="out"/>
<feColorMatrix type="matrix" values="0 0 0 0 0 0 0 0 0 0 0 0 0 0 0 0 0 0 0.25 0"/>
<feBlend mode="normal" in2="BackgroundImageFix" result="effect1_dropShadow_98_24"/>
<feBlend mode="normal" in="SourceGraphic" in2="effect1_dropShadow_98_24" result="shape"/>
</filter>
<filter id="filter42_d_98_24" x="261" y="246" width="334" height="24" filterUnits="userSpaceOnUse" color-interpolation-filters="sRGB">
<feFlood flood-opacity="0" result="BackgroundImageFix"/>
<feColorMatrix in="SourceAlpha" type="matrix" values="0 0 0 0 0 0 0 0 0 0 0 0 0 0 0 0 0 0 127 0" result="hardAlpha"/>
<feOffset dy="-4"/>
<feGaussianBlur stdDeviation="2"/>
<feComposite in2="hardAlpha" operator="out"/>
<feColorMatrix type="matrix" values="0 0 0 0 0 0 0 0 0 0 0 0 0 0 0 0 0 0 0.25 0"/>
<feBlend mode="normal" in2="BackgroundImageFix" result="effect1_dropShadow_98_24"/>
<feBlend mode="normal" in="SourceGraphic" in2="effect1_dropShadow_98_24" result="shape"/>
</filter>
<filter id="filter43_i_98_24" x="262.378" y="188" width="330.924" height="71" filterUnits="userSpaceOnUse" color-interpolation-filters="sRGB">
<feFlood flood-opacity="0" result="BackgroundImageFix"/>
<feBlend mode="normal" in="SourceGraphic" in2="BackgroundImageFix" result="shape"/>
<feColorMatrix in="SourceAlpha" type="matrix" values="0 0 0 0 0 0 0 0 0 0 0 0 0 0 0 0 0 0 127 0" result="hardAlpha"/>
<feOffset/>
<feGaussianBlur stdDeviation="2"/>
<feComposite in2="hardAlpha" operator="arithmetic" k2="-1" k3="1"/>
<feColorMatrix type="matrix" values="0 0 0 0 0 0 0 0 0 0 0 0 0 0 0 0 0 0 0.25 0"/>
<feBlend mode="normal" in2="shape" result="effect1_innerShadow_98_24"/>
</filter>
<linearGradient id="paint0_linear_98_24" x1="14.3925" y1="288.437" x2="855.424" y2="288.437" gradientUnits="userSpaceOnUse">
<stop stop-color="#505050"/>
<stop offset="0.498718" stop-color="#505050" stop-opacity="0.7"/>
<stop offset="0.789583" stop-color="#727070" stop-opacity="0.6"/>
<stop offset="0.9999" stop-color="#505050" stop-opacity="0.45"/>
<stop offset="1" stop-color="#505050" stop-opacity="0"/>
</linearGradient>
<radialGradient id="paint1_radial_98_24" cx="0" cy="0" r="1" gradientUnits="userSpaceOnUse" gradientTransform="translate(427.5 330.5) rotate(90) scale(41.5 215.5)">
<stop/>
<stop offset="1" stop-opacity="0"/>
</radialGradient>
<linearGradient id="paint2_linear_98_24" x1="427.5" y1="306" x2="427.5" y2="223" gradientUnits="userSpaceOnUse">
<stop stop-opacity="0"/>
<stop offset="1"/>
</linearGradient>
<linearGradient id="paint3_linear_98_24" x1="128.571" y1="105.983" x2="158.544" y2="105.983" gradientUnits="userSpaceOnUse">
<stop offset="1" stop-color="#458C19"/>
</linearGradient>
<linearGradient id="paint4_linear_98_24" x1="735.771" y1="108.667" x2="761.28" y2="108.667" gradientUnits="userSpaceOnUse">
<stop offset="1" stop-color="#4F6FB4"/>
</linearGradient>
</defs>
</svg>
