<svg width="171" height="107" viewBox="0 0 171 107" fill="none" xmlns="http://www.w3.org/2000/svg">
<mask id="mask0_66_4233" style="mask-type:luminance" maskUnits="userSpaceOnUse" x="0" y="-64" width="171" height="171">
<path d="M132.12 106.64H38.52C17.25 106.64 0 89.39 0 68.12V-25.48C0 -46.75 17.25 -64 38.52 -64H132.12C153.39 -64 170.64 -46.75 170.64 -25.48V68.12C170.64 89.4 153.39 106.64 132.12 106.64Z" fill="white"/>
</mask>
<g mask="url(#mask0_66_4233)">
<path d="M65.9501 -26.1908L51.8501 -15.1208L39.6801 6.80919L33.8301 32.4592L38.9701 43.5492L61.8601 54.4292L79.5801 60.6092L109.87 58.8892L120 54.4292L127.81 10.1292L124.63 -12.9208L102.44 -38.0108L66.5901 -37.4508L65.9501 -26.1908Z" fill="#F0C0A1"/>
<path d="M61.3899 125.269C61.9999 125.019 62.4199 124.729 62.9999 124.819C63.2599 125.889 63.4999 127.149 63.6799 128.129C63.7099 128.249 63.6899 128.489 63.4999 128.539C62.9199 129.419 62.5299 130.239 61.8799 131.599C63.7799 131.329 65.1199 131.129 66.5199 130.929C66.6399 131.859 66.7599 132.809 66.9099 133.989C68.2799 133.349 69.3299 132.869 70.4199 132.359C70.6899 133.439 70.9099 134.299 71.1799 135.349C72.2199 134.739 73.0199 134.279 73.8199 133.819C74.1399 134.709 74.4499 135.559 74.9099 136.859C76.1899 135.749 77.1899 134.879 78.3899 133.839C79.1299 134.919 79.8599 135.999 80.7499 137.309C81.7099 135.949 82.1799 135.269 82.6799 134.559C83.2499 135.169 83.7499 135.689 83.8999 135.849C85.1599 135.679 86.0299 135.569 87.0599 135.429C87.0599 135.359 87.1399 134.879 87.0399 134.449C86.8999 133.809 86.6299 133.199 86.5299 132.379C87.0399 130.649 87.4399 129.109 87.8399 127.569C88.0699 127.589 88.2999 127.599 88.5299 127.619C88.8599 129.299 89.1899 130.969 89.4399 132.849C89.1599 134.109 88.9699 135.159 88.6199 137.029C90.2199 136.009 91.1299 135.429 92.1299 134.789C92.4699 135.609 92.8199 136.429 93.4399 137.919C94.3199 136.609 94.9299 135.699 95.6099 134.699C96.3099 135.849 96.7899 136.649 97.4099 137.669C98.1799 136.629 98.6699 135.969 99.1799 135.279C99.7499 136.129 100.25 136.859 101.06 138.059C101.96 136.509 102.63 135.359 103.28 134.239C104.49 134.859 105.71 135.479 107.13 136.209C107.5 134.939 107.77 134.019 108.05 133.069C108.98 133.619 109.74 134.069 110.69 134.629C111.25 133.119 111.69 131.899 112.14 130.459C111.38 127.009 110.62 123.779 109.79 120.349C108.33 120.459 106.95 120.769 105.35 121.019C97.6399 122.289 90.1299 123.389 82.5199 122.339C77.9299 121.709 73.3799 120.759 68.6699 119.829C68.0399 119.599 67.3299 119.489 66.8399 119.279C66.8299 119.179 67.0199 118.969 67.0399 118.739C67.0699 118.199 66.8499 117.529 67.0899 117.229C82.1599 121.929 97.1299 122.149 111.96 116.999C109.75 108.349 107.65 100.129 105.54 91.8692C104.44 92.1192 103.64 92.2992 102.52 92.5492C106.12 84.6692 109.58 77.0792 113.28 68.9492C110.15 67.3492 107.45 65.9592 104.64 64.3992C102.54 63.2592 100.66 63.1992 98.7699 64.6092C91.6599 69.8992 83.7999 70.1292 76.5199 65.2292C74.8799 64.1292 73.3899 63.6092 71.4499 64.7892C66.5099 69.5592 61.7599 74.3492 57.0499 79.0892C60.7399 82.3892 63.8599 85.1792 66.7799 88.0592C62.7199 86.7892 58.8599 85.4192 54.7499 83.9692C54.1699 84.8792 53.5299 85.8792 52.7999 86.9592C52.7099 87.0292 52.6599 87.2592 52.4999 87.3592C52.4099 88.1792 52.1999 89.2392 52.5899 89.5592C56.8399 93.0392 61.1799 96.4092 66.0299 100.239C66.3299 98.5692 66.4499 97.8792 66.6699 97.0192C66.8199 96.1992 66.8799 95.5392 67.0499 94.7292C67.1699 94.2992 67.1799 94.0292 67.2999 93.5892C67.3299 91.5692 69.4399 89.5192 67.1399 87.8592C67.8699 87.3992 68.6399 87.0692 68.7799 86.5692C69.4199 84.1992 69.8399 81.7692 70.4599 79.3892C70.6299 78.7392 71.1899 78.1992 71.5699 77.6092C71.8199 77.7192 72.0799 77.8192 72.3299 77.9292C72.2199 78.8192 72.1599 79.7192 71.9899 80.5992C69.8299 91.7392 67.6299 102.869 65.4999 114.019C65.3099 114.999 65.6999 116.259 65.4899 117.299C64.4099 117.519 63.3499 117.509 62.3499 117.559C62.3199 116.519 62.3299 115.609 62.5499 114.749C63.5299 110.899 64.6099 107.079 65.5599 103.229C65.7199 102.589 65.6499 101.469 65.2599 101.199C62.0999 99.0292 58.8399 97.0192 54.9899 94.5692C52.9199 101.049 50.9799 107.149 49.0199 113.249C48.8799 113.669 48.6299 114.079 48.3499 114.429C46.4899 116.829 46.6299 117.219 49.6399 118.019C48.9799 121.119 49.4399 121.569 52.4799 120.719C53.5299 124.059 53.7999 124.059 56.3199 121.749C57.1399 120.999 58.7799 120.129 59.4799 120.469C61.5699 121.469 61.9999 120.249 62.7499 118.899C63.5899 119.969 64.2299 120.999 64.9299 122.169C64.9199 122.489 64.8599 122.659 64.6299 122.919C63.9699 123.339 63.4699 123.689 62.8199 123.889C61.1899 123.549 58.9199 122.669 58.3499 123.299C55.7099 126.239 53.7699 125.839 50.5699 123.799C48.4799 122.469 47.4199 120.709 45.9599 119.089C43.7799 116.679 45.2899 114.749 46.8399 112.829C46.9499 112.699 46.9399 112.469 46.9999 112.289C48.6299 107.469 50.1199 102.599 51.9499 97.8592C52.7499 95.8092 53.0499 94.1292 51.6499 92.2892C49.8499 89.9192 49.7499 87.5992 51.8399 85.1992C53.6199 83.1592 53.1799 82.0392 50.4999 81.2692C43.0599 79.1092 37.9299 74.1492 34.0599 67.6892C32.9699 65.8592 32.0599 63.9292 31.0599 62.0392C30.7399 62.9192 30.8999 63.5992 31.1499 64.2492C33.5999 70.8092 36.3099 77.2992 38.4099 83.9692C39.2299 86.5892 41.1199 89.3392 39.3399 92.2892C38.7199 91.1892 38.2499 90.1992 37.8999 89.1692C36.7399 85.7392 35.6299 82.2992 34.5099 78.8692C34.5099 78.8692 34.4999 78.8892 34.5099 78.6692C33.9499 77.0692 33.3699 75.6892 32.7999 74.2992C32.7999 74.2992 32.7899 74.3192 32.7999 74.1192C32.4299 73.0892 32.0399 72.2692 31.6599 71.4492C31.6599 71.4492 31.6499 71.4692 31.6599 71.2492C30.1499 67.5492 28.6199 64.0792 27.0999 60.6092C27.0999 60.6092 27.0799 60.6292 27.1099 60.3892C26.9899 59.3192 26.9199 58.4592 26.6899 57.6492C25.3899 52.9792 24.6799 48.2792 25.9499 43.3792C26.2499 42.4092 26.3699 41.5192 26.4999 40.3792C26.1399 36.4792 25.7599 32.8392 25.3899 29.1892C25.0799 26.1192 24.7699 23.0392 24.3099 19.6292C23.9999 19.1692 23.9199 19.0092 23.7499 18.8992C23.7499 18.8992 23.8099 18.9692 23.6699 18.7892C23.3699 18.4092 23.2899 18.0692 23.0999 17.7992C23.0999 17.7992 23.0899 17.8292 23.0799 17.6292C22.5099 16.5992 21.9499 15.7792 21.3899 14.9492C21.3899 14.9492 21.3699 14.9692 21.3999 14.7192C20.4399 9.50918 20.4899 4.66918 23.1099 0.139183C23.1099 0.139183 23.0899 0.129181 23.2599 0.0591812C24.0899 -0.910819 24.7399 -1.82082 25.3999 -2.72082C26.0199 -3.25082 26.6499 -3.79082 27.5899 -4.25082C28.1499 -4.27082 28.5699 -4.32082 28.5999 -4.46082C29.6499 -9.63082 30.6699 -14.8008 31.6899 -19.9708M31.7199 -20.0008C31.7199 -20.0008 31.7299 -20.1208 31.8599 -20.3408C32.6499 -22.8008 33.3199 -25.0408 33.9799 -27.2808C33.9799 -27.2808 33.9599 -27.2808 34.1199 -27.3908C34.5599 -28.3808 34.8399 -29.2508 35.1199 -30.1308C35.1199 -30.1308 35.0999 -30.1408 35.2399 -30.2208C35.4899 -30.6308 35.5899 -30.9508 35.6899 -31.2808C35.6899 -31.2808 35.6599 -31.2808 35.8099 -31.3908C36.8199 -33.5208 37.6799 -35.5308 38.5299 -37.5408C38.5299 -37.5408 38.5099 -37.5508 38.6599 -37.5908C38.8999 -37.7908 38.9999 -37.9508 39.0999 -38.1208C39.0999 -38.1208 39.0799 -38.1208 39.2299 -38.2108C39.4799 -38.6208 39.5699 -38.9408 39.6699 -39.2608C39.6699 -39.2608 39.6499 -39.2708 39.7899 -39.3108C40.0299 -39.5108 40.1399 -39.6708 40.2399 -39.8408C40.2399 -39.8408 40.2199 -39.8408 40.3699 -39.9308C40.6199 -40.3408 40.7099 -40.6608 40.8099 -40.9808C40.8099 -40.9808 40.7899 -40.9908 40.9299 -41.0308C41.1699 -41.2308 41.2799 -41.3908 41.3799 -41.5508C41.3799 -41.5508 41.3599 -41.5508 41.5299 -41.6208C42.0499 -42.2108 42.3899 -42.7308 42.7299 -43.2408C42.8399 -43.2808 42.9299 -43.3508 43.1799 -43.6608C43.4599 -44.2408 43.5499 -44.6008 43.6499 -44.9608C43.6499 -44.9608 43.6399 -44.9708 43.7899 -45.0008C44.0299 -45.2008 44.1299 -45.3608 44.2199 -45.5308C44.2199 -45.5308 44.2199 -45.5408 44.4199 -45.5308C45.4399 -46.4808 46.2599 -47.4208 47.0799 -48.3708C47.0799 -48.3708 47.0699 -48.3808 47.2199 -48.4108C47.4599 -48.6108 47.5499 -48.7808 47.6399 -48.9408C47.6399 -48.9408 47.6299 -48.9608 47.8199 -48.9208C48.2599 -49.0908 48.5199 -49.3008 48.7799 -49.5108C48.7799 -49.5108 48.7699 -49.5208 48.9199 -49.5608C49.1599 -49.7608 49.2599 -49.9208 49.3599 -50.0808C49.3599 -50.0808 49.3499 -50.0908 49.5299 -50.0808C49.9999 -50.2508 50.2899 -50.4308 50.6899 -50.6808C50.9599 -50.8708 51.0499 -51.0308 51.0699 -51.2208C51.0699 -51.2208 51.0499 -51.2308 51.2599 -51.2508C53.6199 -52.5808 55.7699 -53.9008 57.9199 -55.2208C57.9199 -55.2208 57.8999 -55.2308 58.1199 -55.2108C60.6799 -56.1508 63.0099 -57.1108 65.3399 -58.0708C65.3399 -58.0708 65.3199 -58.0808 65.5499 -58.0608C67.5299 -58.4408 69.2699 -58.8508 71.2599 -59.2608C73.3599 -59.5708 75.2099 -59.9608 77.0799 -60.1708C87.4699 -61.3508 97.8199 -61.6108 107.96 -58.4208C111.83 -57.2008 115.68 -55.9008 119.54 -54.6408C119.54 -54.6408 119.55 -54.6608 119.64 -54.4908C120.81 -53.8608 121.88 -53.3908 122.95 -52.9308C122.95 -52.9308 122.96 -52.9508 123.05 -52.7708C123.84 -52.3208 124.54 -52.0608 125.24 -51.7908C125.24 -51.7908 125.25 -51.8108 125.32 -51.6208C126.29 -50.9108 127.19 -50.3808 128.08 -49.8508C128.14 -49.7408 128.22 -49.6508 128.54 -49.3908C129.29 -48.9208 129.83 -48.6408 130.37 -48.3508C130.37 -48.3508 130.39 -48.3708 130.46 -48.2008C131.05 -47.7608 131.57 -47.4908 132.08 -47.2108C132.08 -47.2108 132.09 -47.2208 132.17 -47.0608C132.57 -46.8108 132.9 -46.7208 133.23 -46.6408C133.23 -46.6408 133.23 -46.6608 133.22 -46.4508C133.98 -45.6108 134.74 -44.9808 135.5 -44.3508C135.5 -44.3508 135.52 -44.3608 135.55 -44.2208C135.75 -43.9808 135.91 -43.8808 136.07 -43.7808C136.07 -43.7808 136.08 -43.7908 136.12 -43.6508C136.32 -43.4108 136.48 -43.3108 136.64 -43.2108C136.64 -43.2108 136.65 -43.2308 136.69 -43.0808C136.89 -42.8408 137.05 -42.7408 137.21 -42.6408C137.21 -42.6408 137.22 -42.6508 137.26 -42.5108C137.46 -42.2708 137.62 -42.1708 137.78 -42.0708C137.78 -42.0708 137.79 -42.0808 137.83 -41.9408C138.03 -41.7008 138.19 -41.6008 138.35 -41.5008C138.35 -41.5008 138.35 -41.5108 138.36 -41.3108C139.12 -40.2908 139.87 -39.4608 140.62 -38.6408C140.62 -38.6408 140.63 -38.6508 140.68 -38.5108C140.88 -38.2708 141.04 -38.1708 141.2 -38.0708C141.2 -38.0708 141.21 -38.0708 141.2 -37.8808C141.58 -37.2408 141.96 -36.8008 142.33 -36.3508C142.33 -36.3508 142.34 -36.3708 142.36 -36.1608C143.69 -33.6108 145.01 -31.2708 146.33 -28.9308C146.33 -28.9308 146.34 -28.9508 146.33 -28.7308C148.47 -22.2008 149.5 -15.7308 149.22 -9.06081C149.19 -8.46081 149.56 -7.84081 149.75 -7.23081C149.75 -6.98081 149.75 -6.73082 149.54 -6.24082C148.91 -2.90082 148.39 0.189187 148.11 3.29919C147.92 5.46919 148.06 7.65919 148.27 9.87919C149.48 10.0892 150.48 10.2692 151.47 10.4392C151.47 10.4392 151.48 10.4192 151.56 10.5692C151.97 10.8192 152.29 10.9092 152.62 11.0092C152.62 11.0092 152.62 10.9892 152.66 11.1292C152.86 11.3792 153.03 11.4792 153.19 11.5792C153.19 11.5792 153.19 11.5492 153.27 11.7092C153.68 11.9592 154 12.0492 154.33 12.1392C154.33 12.1392 154.34 12.1192 154.36 12.2792C154.55 12.5292 154.73 12.6192 154.9 12.7092C154.9 12.7092 154.91 12.6892 154.88 12.8692C155.06 13.3192 155.26 13.5792 155.47 13.8492C155.47 13.8492 155.48 13.8392 155.51 13.9892C155.71 14.2292 155.88 14.3292 156.04 14.4292C156.04 14.4292 156.05 14.4092 156.02 14.6492C157.99 20.0392 157.28 24.9892 154.88 29.8192C154.88 29.8192 154.9 29.8292 154.75 29.9092C154.51 30.3192 154.41 30.6392 154.31 30.9592C154.31 30.9592 154.33 30.9692 154.16 31.0092C153.83 31.2092 153.66 31.3692 153.49 31.5292C153.38 31.5792 153.3 31.6592 153.06 31.9792C151.45 33.4892 150.02 34.7892 148.59 36.0892C148.59 36.0892 148.61 36.0992 148.4 36.0892C147.15 36.5592 145.02 36.1692 146.29 38.4692C146.37 38.7492 146.44 39.0392 146.69 39.5892C147.06 40.1292 147.27 40.4092 147.47 40.6892C147.47 40.6892 147.48 40.6592 147.49 40.8592C148.06 41.8792 148.62 42.7092 149.17 43.5292C149.17 43.5292 149.19 43.5192 149.16 43.7292C149.72 45.1392 150.3 46.3292 150.89 47.5292C150.89 47.5292 150.9 47.5092 150.88 47.7292C151.83 50.1392 152.78 52.3292 153.74 54.5192C153.74 54.5192 153.71 54.6492 153.55 54.8892C153.12 59.2492 152.84 63.3592 152.42 67.6192C151.05 70.7092 149.82 73.6492 148.58 76.5992C148.58 76.5992 148.59 76.6092 148.42 76.6792C147.98 77.2692 147.71 77.7892 147.44 78.3092C147.44 78.3092 147.45 78.3192 147.27 78.3892C146.63 79.1692 146.18 79.8792 145.72 80.5992C145.72 80.5992 145.73 80.6192 145.58 80.6592C145.28 80.8592 145.13 81.0192 144.98 81.1692C144.85 81.2292 144.74 81.3192 144.47 81.6592C143.8 82.5892 143.33 83.2992 142.86 84.0192C142.86 84.0192 142.87 84.0292 142.73 84.0692C142.49 84.2692 142.39 84.4292 142.29 84.5992C142.29 84.5992 142.3 84.6092 142.16 84.6492C141.92 84.8492 141.82 85.0092 141.72 85.1692C141.72 85.1692 141.73 85.1692 141.56 85.2392C141.11 85.8292 140.84 86.3492 140.57 86.8792C140.57 86.8792 140.59 86.8992 140.41 86.9692C139.96 87.7592 139.7 88.4592 139.43 89.1692C139.43 89.1692 139.46 89.1692 139.31 89.2592C139.06 89.6692 138.96 89.9892 138.86 90.3192C138.86 90.3192 138.89 90.3192 138.72 90.4492C137.42 93.7792 137.13 96.9392 138.87 100.039C138.87 100.039 138.88 100.019 138.87 100.229C139.43 101.439 140 102.449 140.57 103.449C140.57 103.449 140.58 103.459 140.59 103.659C141.54 104.679 142.49 105.499 143.43 106.319C143.43 106.319 143.44 106.309 143.53 106.459C143.94 106.709 144.27 106.799 144.59 106.899C144.59 106.899 144.59 106.869 144.74 107.029C145.91 107.279 146.94 107.469 147.96 107.419C150.07 107.309 152.18 107.079 154.29 106.899C154.29 106.899 154.3 106.869 154.39 107.009C154.8 107.249 155.12 107.359 155.44 107.459C155.44 107.459 155.44 107.439 155.48 107.579C155.68 107.819 155.84 107.929 156 108.029C156 108.029 156 108.009 156.05 108.149C156.25 108.389 156.41 108.499 156.58 108.599C156.58 108.599 156.58 108.569 156.58 108.749C156.76 109.199 156.95 109.469 157.14 109.739C157.14 109.739 157.15 109.719 157.13 109.979C156.77 112.509 156.43 114.789 156.09 117.069C155.32 120.359 152.65 121.779 150.01 123.229C149.28 123.629 148.54 123.999 147.56 124.389C147.15 124.449 146.98 124.509 146.81 124.569C146.81 124.569 146.55 124.559 146.18 124.579C140.73 124.759 135.64 124.829 130.57 125.119C129.09 125.199 127.65 125.869 126.19 126.269C126.19 126.269 125.99 126.249 125.66 126.279C121.4 127.029 117.47 127.729 113.19 128.499C113.78 129.329 114.34 130.109 114.9 130.899C114.73 132.219 114.56 133.539 114.14 135.139C112.53 137.639 113.52 139.459 114.88 141.209C114.88 141.209 114.86 141.419 114.87 141.739C115.07 142.699 115.27 143.339 115.46 143.979C115.46 143.979 115.47 143.959 115.46 144.169C116.22 145.179 116.98 145.989 117.75 146.789C117.75 146.789 118 146.819 118.16 147.049C118.71 149.379 119.03 151.499 119.52 153.579C119.98 155.529 120.62 157.439 121.18 159.369C120.99 161.289 120.8 163.209 120.46 165.449C120.02 166.109 119.74 166.439 119.45 166.779C119.45 166.779 119.46 166.799 119.25 166.819C115.31 167.789 111.63 169.199 107.85 169.539C103.79 169.909 99.6299 169.259 95.5099 169.059C95.5099 169.059 95.4999 169.079 95.4099 168.929C95.0099 168.679 94.6899 168.589 94.3699 168.489C94.3699 168.489 94.3499 168.509 94.2799 168.329C93.6899 167.879 93.1699 167.619 92.6499 167.349C92.6499 167.349 92.6299 167.369 92.6299 167.189C92.4399 166.739 92.2599 166.459 92.0699 166.179C91.2799 163.769 89.8399 161.569 91.7899 158.799C92.5799 157.679 92.0799 155.469 91.7899 153.819C91.0099 149.399 90.0899 144.999 89.0799 140.619C88.8499 139.649 88.0199 138.809 87.4699 137.909C87.0999 138.859 86.3799 139.839 86.4199 140.769C86.6799 146.039 87.1199 151.299 87.5099 157.079C86.9299 160.839 86.3499 164.089 85.7699 167.349C85.7699 167.349 85.7899 167.359 85.6599 167.409C85.3599 167.569 85.2599 167.719 85.2099 167.919C85.2099 167.919 85.2299 167.919 84.9999 167.909C76.8099 170.689 68.7899 170.979 60.7099 168.479C60.7099 168.479 60.6999 168.499 60.6099 168.329C60.0199 167.859 59.5099 167.549 58.9999 167.249C58.8999 166.969 58.7999 166.679 58.5199 166.079C58.1699 164.199 57.9999 162.639 57.8299 161.079C57.8299 161.079 57.8399 160.809 58.0199 160.579C58.8799 159.449 60.0799 158.569 60.1399 157.629C60.3499 154.419 60.1499 151.189 60.1099 147.959C60.1099 147.709 60.1199 147.459 60.3099 146.899C60.7299 146.099 61.1299 145.629 61.1699 145.119C61.4299 141.879 61.7199 138.629 61.7699 135.379C61.7899 134.419 61.0699 133.449 60.6999 132.489C60.2599 131.209 59.8199 129.919 59.1499 128.419C58.7399 128.029 58.5599 127.859 58.3699 127.689C58.1899 127.979 58.0099 128.259 57.8299 128.549C56.4599 128.559 55.0999 128.569 53.2499 128.579C51.7899 128.369 50.8099 128.159 49.7499 127.829C49.4999 127.619 49.3399 127.539 48.9399 127.449C46.2299 126.669 43.7499 125.889 41.2599 125.109C40.7499 124.649 40.2299 124.189 39.7499 123.439C40.1199 123.019 40.4699 122.899 40.9999 122.829M95.6199 34.8992C95.6199 34.8992 95.6699 34.8892 95.5499 34.5292C95.0099 33.8292 94.4699 33.1192 93.9099 32.0792C93.6899 31.6992 93.4599 31.3092 93.1999 30.4792C93.0599 27.2092 93.3499 23.8892 93.2899 20.2192C94.0899 18.6792 94.4699 17.1992 95.6099 15.5192C99.7299 10.0992 104.7 6.15919 111.93 6.15919C114.11 6.15919 113.9 4.94918 113.2 3.06918C113.22 0.459176 111.96 -0.300813 109.36 -0.450813C106.7 -0.600813 103.89 -1.31082 101.53 -2.52082C100.29 -3.16082 99.1399 -5.43082 99.2599 -6.86082C99.3599 -8.10082 101.15 -9.41082 102.47 -10.2708C103.5 -10.9408 104.96 -10.9708 106.73 -11.4108C104.07 -14.6208 101.62 -17.5608 99.0499 -20.8708C98.0299 -21.8608 97.0199 -22.8608 95.8999 -24.2108C94.8799 -25.1208 93.8499 -26.0308 92.6499 -27.2708C91.9599 -27.8008 91.2699 -28.3308 90.4299 -29.1808C86.8999 -33.4908 82.7599 -32.7308 78.0599 -30.5908C76.0799 -29.6908 74.1099 -28.7908 71.8599 -27.8708C71.6799 -27.7708 71.5899 -27.6208 71.1799 -27.3608C69.7499 -26.5508 68.3299 -25.7408 66.4999 -24.8308C63.7499 -22.7908 60.9999 -20.7408 58.3699 -18.7908C61.0899 -17.5208 63.5199 -16.7008 65.5799 -15.3208C67.3499 -14.1408 68.4199 -12.1408 67.5699 -9.86082C66.7299 -7.60082 64.6599 -7.09082 62.6199 -7.44082C59.2699 -8.02082 55.9399 -8.83081 52.6799 -9.81081C51.1299 -10.2808 50.3399 -10.0408 49.5599 -8.38082C49.1299 -7.84082 48.6999 -7.30081 47.9199 -6.59081C47.4699 -5.86081 47.0099 -5.14082 46.7099 -4.66082C50.4899 -4.28082 54.0299 -3.93082 57.5099 -3.53082C57.5099 -3.53082 57.5099 -3.61081 57.6299 -3.20081C58.0099 -3.09081 58.3999 -2.98081 59.1499 -2.81081C63.4799 0.319186 64.9999 5.02919 66.2799 10.2392C66.3599 11.4192 66.4299 12.6092 66.3299 13.8992C66.3999 14.0592 66.4599 14.2092 66.6599 14.8192C66.5299 16.4692 66.4099 18.1092 66.0199 20.0692C65.3199 21.7592 64.6199 23.4392 63.7699 25.0892C63.7699 25.0892 63.6199 25.0692 63.3999 24.9892C63.3399 25.1792 63.2899 25.3792 63.1099 25.9192C61.7199 27.0792 60.3299 28.2392 58.5099 29.4492C57.9499 29.5592 57.3799 29.6792 56.4499 29.7592C55.9999 29.8992 55.5499 30.0392 54.6399 30.2892C54.0199 30.2492 53.3899 30.2092 52.4699 29.9392C52.0999 29.9192 51.7299 29.8992 51.1999 29.9492C51.1999 29.9492 51.0799 29.8292 50.9999 29.6392C50.8399 29.6692 50.6699 29.6892 50.2099 29.7892C50.1099 29.8092 50.0099 29.8292 49.6999 29.6492C49.4499 29.4892 49.2099 29.3392 49.0099 28.9492C48.7999 28.9292 48.5899 28.9092 48.2899 28.8892C48.2899 28.8892 48.2299 28.8292 48.0299 28.4792C47.6599 28.3592 47.2999 28.2492 46.5399 28.1292C46.1599 28.0392 45.7799 27.9592 45.2699 27.5492C44.7499 27.0992 44.2199 26.6592 43.5799 25.8492C42.8099 24.3692 42.0499 22.8992 41.3299 20.9492C40.8099 19.0292 40.2899 17.1092 39.7699 15.1892C39.4999 15.2092 39.2399 15.2292 38.9699 15.2592C38.8199 15.9292 38.6799 16.5992 38.4999 17.7392C38.1399 20.9992 37.7699 24.2592 37.2599 27.9792C37.1499 28.6292 37.0199 29.2692 36.9199 29.9192C36.1099 34.8892 39.0899 40.7392 43.7399 43.3392C44.0999 43.5692 44.4499 43.7892 45.0999 44.2692C46.2199 45.1292 51.8499 49.5492 52.7699 50.0392C69.9599 59.2692 88.1799 60.6092 107 56.9592C109.71 56.4292 112.28 55.2092 115.12 53.9192C115.2 52.7292 115.28 51.5292 115.48 49.8192C115.48 46.7592 115.48 43.7092 115.48 40.5392C113.38 40.7492 111.34 40.9492 108.82 41.1292C107.64 40.9892 106.46 40.8492 105.05 40.3592C102.88 39.3992 100.71 38.4292 98.3299 37.2092C98.0099 37.1592 97.6899 37.1092 97.3699 36.7092C97.2299 36.5492 97.0899 36.3792 96.9199 36.1592C96.9199 36.1592 96.8499 36.1392 96.7199 35.8192C96.5399 35.6992 96.3499 35.5692 96.1699 35.4892M96.1699 35.4892C96.1699 35.4892 96.2099 35.4792 96.1199 35.1892ZM62.0499 4.78918C61.8399 4.51918 61.6199 4.23918 61.2399 3.61918C60.4799 3.18918 59.7199 2.76919 58.8899 1.90919C54.4099 -2.29081 49.4399 -2.14082 44.4699 1.89918C44.0599 2.76918 43.6599 3.63918 43.1699 4.89918C41.1699 9.55918 41.0299 14.3392 42.5599 19.1092C43.9799 23.5492 46.8399 26.7092 51.5199 27.8492C56.5599 29.0692 61.6399 26.2892 62.5699 21.8092C62.5699 21.8092 62.5199 21.8692 62.8699 21.9492C62.9099 21.7192 62.9599 21.4892 63.3399 21.2192C63.6599 20.7192 63.9799 20.2192 64.5599 19.3492C64.4699 16.4392 64.3899 13.5392 64.3699 10.5292C64.3699 10.5292 64.3099 10.4192 64.3599 10.1192C64.1399 9.60918 63.9199 9.08918 63.6499 8.61918C63.6499 8.61918 63.7099 8.61918 63.7199 8.22918C63.5299 7.89918 63.3499 7.56918 63.1899 7.08918C63.1899 7.08918 63.0999 6.96919 63.0399 6.65919C62.8799 6.53919 62.7299 6.40919 62.5899 6.32919M115.45 19.2192C115.41 19.1192 115.37 19.0192 115.37 18.5292C115.27 17.8892 115.18 17.2492 115.13 16.2392C115.09 15.9992 115.04 15.7592 115.01 15.1192C114.97 14.8592 114.93 14.6092 114.96 13.8792C114.5 12.4292 114.5 10.2992 113.51 9.63918C110.7 7.75918 102.71 10.6292 100.37 13.8392C95.8899 17.3492 93.8599 21.9592 94.7099 27.5792C96.0999 36.7992 107.73 40.3392 115.02 38.0992C115.52 37.9392 115.98 36.8092 116.01 36.1092C116.11 33.8392 116 31.5492 116.11 28.8892C115.97 28.2292 115.83 27.5692 115.74 26.4592C115.72 25.8592 115.69 25.2692 115.84 24.3192C115.7 22.7292 115.56 21.1292 115.45 19.2192ZM114.76 61.9992C114.83 60.7392 114.9 59.4692 114.97 58.0992C109.69 59.1092 104.78 60.0092 99.8999 61.0192C99.1299 61.1792 98.4699 61.8792 97.7599 62.3292C97.9099 62.7692 98.0599 63.1992 98.2199 63.6392C100.8 60.4792 103.4 62.1792 105.94 63.0092C107.1 63.3892 108.16 64.0692 109.51 64.9092C110.8 65.7292 112.1 66.5492 113.64 67.5392C113.96 65.4792 114.21 63.9092 114.76 61.9992ZM146.77 16.1892C146.74 16.2492 146.67 16.3292 146.68 16.3592C146.74 16.4692 146.83 16.5592 147.05 17.0292C148.31 17.7592 149.6 18.4392 150.82 19.2192C152.05 20.0092 152.61 20.9192 150.58 21.7492C149.37 21.1392 148.15 20.5192 146.73 19.7992C146.01 24.2592 145.36 28.2592 144.73 32.2692C144.63 32.9192 144.62 33.5892 144.4 34.3692C144.56 34.4392 144.72 34.4992 145.3 34.5992C147.54 32.9892 149.78 31.3692 152.3 29.4792C154.53 26.3492 155.58 22.8992 155.01 19.0392C154.39 14.8092 151.65 12.2692 147.6 12.2492C147.39 13.5092 147.16 14.7992 146.77 16.1892ZM122.74 96.6392C122.54 96.6892 122.42 96.8192 121.98 97.0992C118.31 98.7592 114.63 100.419 110.85 102.129C112.36 105.949 113.92 109.709 115.31 113.529C115.73 114.679 115.71 115.999 115.84 117.239C116.02 118.939 115.69 120.929 118.67 119.749C119.52 119.409 121.07 120.099 121.96 120.769C124.89 122.959 125.32 122.879 126.22 119.599C127.11 119.699 128 119.809 128.89 119.909C128.83 118.809 128.78 117.699 129.17 116.689C129.93 116.289 130.97 116.059 131.33 115.439C131.55 115.069 130.74 114.059 130.36 113.359C130.06 112.819 129.45 112.309 129.43 111.769C129.23 106.649 126.55 102.509 124.22 97.8792C124.04 97.6092 123.86 97.3492 123.59 96.7492C123.4 96.7292 123.2 96.6992 122.74 96.6392ZM84.6699 157.119C84.8699 154.499 85.1099 151.869 85.2299 149.239C85.2399 149.009 84.5399 148.739 83.8399 148.179C82.0599 148.199 80.2199 147.939 78.5099 148.309C76.5799 148.719 74.8099 149.689 77.2999 151.879C77.5899 152.139 77.7599 152.709 77.7299 153.129C77.6199 155.079 77.4199 157.019 77.2899 158.559C75.5099 159.829 73.7599 161.079 71.4699 162.719C78.8799 163.029 78.8799 163.029 83.0499 158.569C83.4399 158.149 83.8299 157.729 84.6699 157.119ZM116.57 156.399C116.62 154.199 116.62 151.999 116.73 149.799C116.81 148.119 116.07 147.349 114.1 147.069C113.07 147.019 112.01 146.799 111.01 146.949C107.01 147.559 106.68 148.299 108.87 151.439C108.98 151.589 109.11 151.759 109.13 151.929C109.38 154.059 109.62 156.189 109.81 157.869C108.34 159.129 106.88 160.369 105.11 161.879C111.25 162.829 113.34 161.759 116.57 156.399ZM124.77 88.6792C123.55 86.3592 122.33 84.0392 121.19 81.8592C117.1 84.7692 113.21 87.5492 108.88 90.3992C108.46 91.0092 107.59 91.6892 107.69 92.2092C108.18 94.8492 108.91 97.4492 109.77 100.929C114.84 98.3492 119.42 96.0192 124.01 93.6992C126.34 92.5092 126.62 90.9892 124.77 88.6792ZM34.8999 -20.6008C37.6199 -24.2408 40.0599 -28.1308 43.1099 -31.4608C51.0899 -40.1808 61.3799 -44.9008 72.7899 -47.2008C78.1499 -48.2808 83.6399 -48.7808 89.0899 -49.3208C92.0999 -49.6208 92.2299 -51.6108 92.6999 -54.5608C86.1199 -54.0908 79.8099 -54.1908 73.7299 -53.0808C62.4499 -51.0308 52.8899 -45.2208 44.2199 -37.8508C38.7999 -33.2408 35.3399 -27.6108 34.2799 -20.3208C34.2899 -20.1208 34.2999 -19.9108 34.3099 -19.7108C34.3899 -19.9408 34.4699 -20.1708 34.8999 -20.6008ZM69.7899 63.9792C72.1199 63.1092 74.1799 60.6692 77.0399 62.7792C77.2099 62.8992 77.8899 62.3292 78.3299 62.0892C78.0399 61.6492 77.8299 60.9392 77.4399 60.8192C76.1799 60.4392 74.8699 60.2292 73.5599 60.0492C64.8999 58.8092 56.9099 55.6892 49.4699 51.2092C45.7899 48.9992 42.4399 46.2392 38.9399 43.7292C38.6999 43.7792 38.4499 43.8292 38.2099 43.8892C38.4899 45.0792 38.7599 46.2792 39.0599 47.9192C41.7799 59.7992 47.9899 69.7192 56.0899 78.3292C60.5699 73.5292 64.9799 68.7792 69.7899 63.9792ZM140.26 50.3892C136.79 60.2092 131.51 68.9992 124.76 76.8792C122.68 79.3092 122.05 81.2692 124.26 83.9292C125.38 85.2792 125.79 87.2092 126.78 88.6992C128.33 91.0292 127.83 93.2992 127.16 95.7292C126.86 96.7992 126.86 98.1592 127.26 99.1692C129.24 104.229 131.43 109.209 133.47 114.249C133.72 114.879 133.77 115.849 133.46 116.399C132.22 118.539 130.79 120.569 128.99 123.299C134.89 122.949 140.39 122.729 145.87 122.239C149.39 121.929 152.06 119.789 154.01 117.019C155.44 114.989 156.4 112.519 154.83 110.089C153.29 107.709 151 108.669 148.89 109.159C145.23 110.009 141.64 108.629 139.48 105.549C134.87 98.9592 134.74 91.7392 139.25 85.1292C140.58 83.1792 142.18 81.4192 143.69 79.5992C148.37 73.9792 151.14 67.6392 151.6 60.2392C151.91 55.1592 149.94 50.7992 147.92 45.9792C146.54 43.4692 145.17 40.9592 143.79 38.4492C143.54 38.5492 143.29 38.6392 143.04 38.7392C142.25 42.5892 141.46 46.4392 140.26 50.3892ZM115.38 83.5492C115.97 83.0792 116.59 82.6292 117.15 82.1192C126.05 74.0192 131.5 63.7892 135.05 52.4992C138.46 41.6692 140.05 30.5292 139.54 19.1492C139.16 10.7392 137.33 2.64918 133.84 -5.03082C128.94 -15.8408 121.92 -25.1208 112.74 -32.5508C106.94 -37.2408 100.5 -41.1208 94.3199 -45.3308C92.6599 -46.4608 91.4199 -46.3808 90.7599 -44.0908C90.0199 -41.5408 89.0899 -39.0408 88.0799 -36.5908C87.4199 -34.9708 87.8199 -34.0408 89.1999 -33.0008C96.5599 -27.5008 102.85 -20.8308 107.87 -13.2308C119.09 3.75919 123.4 22.6292 121.17 42.8492C119.81 55.1592 116.48 67.0192 111.51 78.3892C110.09 81.6492 108.59 84.8692 107.12 88.1092C107.3 88.3092 107.48 88.4992 107.66 88.6992C110.12 87.0592 112.58 85.4192 115.38 83.5492ZM35.6599 22.6492C37.1499 16.8792 38.1299 10.9192 40.2299 5.37919C47.7999 -14.6508 61.4599 -28.3808 82.4899 -34.1508C83.3699 -34.3908 84.6499 -34.7508 84.9199 -35.3908C86.3899 -38.9308 87.6099 -42.5808 89.0899 -46.6708C87.0399 -46.6708 85.6099 -46.8608 84.2499 -46.6408C79.0299 -45.7808 73.7199 -45.1908 68.6499 -43.7708C54.3899 -39.7808 43.4499 -31.5008 36.4499 -18.1608C29.5099 -4.94082 27.8499 9.41919 27.2399 23.9392C27.0099 29.3592 28.0399 34.8692 28.8199 40.2892C30.7599 53.7592 36.4099 65.4492 46.3199 74.8892C48.5999 77.0592 51.3599 78.7392 53.8899 80.6392C54.0599 80.4292 54.2299 80.2092 54.3999 79.9992C54.2199 79.6892 54.0899 79.3292 53.8499 79.0692C44.7399 69.0192 38.0899 57.5892 36.1399 44.0692C35.1599 37.2192 35.7499 30.1392 35.6599 22.6492ZM74.9099 146.919C78.1299 146.479 81.3599 146.029 84.6999 145.569C84.6999 143.829 84.7599 141.749 84.6599 139.679C84.6299 139.159 84.0099 138.179 83.8199 138.219C81.7399 138.629 79.7699 138.739 78.0299 137.249C75.8199 139.269 73.6199 137.829 71.4899 137.139C68.9799 136.319 66.5599 135.239 63.9199 134.209C63.5399 137.659 63.1499 141.319 62.7199 145.229C64.5399 145.479 66.0699 145.709 67.6099 145.899C69.8899 146.189 72.1699 146.459 74.9099 146.919ZM105.11 -54.8208C123.28 -50.2908 136.33 -39.2108 145.54 -23.0608C145.54 -24.4808 145.32 -25.7208 144.87 -26.8708C142.05 -34.0908 137.56 -40.0408 131.45 -44.8808C122.06 -52.3308 111.16 -56.1408 99.6599 -58.5708C98.7899 -58.7508 97.6999 -57.8808 96.7199 -57.5008C96.7999 -57.1308 96.8799 -56.7708 96.9599 -56.4008C99.5299 -55.9208 102.1 -55.4508 105.11 -54.8208ZM112.42 141.059C112.16 140.049 111.8 139.059 111.67 138.029C111.45 136.249 110.36 135.799 109.18 136.799C106.91 138.719 103.96 137.829 101.34 139.049C98.5299 140.359 94.4799 139.019 90.7299 138.819C91.0699 140.799 91.4599 143.069 91.8999 145.579C99.2299 144.779 106.3 147.129 113.31 144.409C113.09 143.489 112.84 142.499 112.42 141.059ZM91.0699 -56.3808C92.5199 -56.3108 94.4899 -55.3408 94.2899 -58.1908C82.3999 -63.9208 46.2399 -51.3408 43.8699 -41.2608C49.1399 -44.4408 54.5799 -48.3108 60.5099 -51.1408C69.9499 -55.6408 80.0299 -57.6908 91.0699 -56.3808ZM83.9799 61.2592C82.9699 61.2592 81.9599 61.2592 80.9899 61.2592C80.8799 62.7492 80.7799 64.0092 80.6799 65.3192C83.8599 67.5192 87.5699 67.0792 91.0099 66.7292C95.0399 66.3292 95.8699 64.8592 95.2599 61.2892C91.6999 61.2892 88.1099 61.2892 83.9799 61.2592ZM61.7199 -9.10082C63.1099 -9.66082 64.5999 -10.0808 65.8199 -10.9008C66.0899 -11.0808 65.6699 -12.9208 65.0999 -13.6108C61.4199 -18.0608 54.7099 -16.9508 52.4399 -11.3508C55.3999 -10.6108 58.3199 -9.89082 61.7199 -9.10082ZM101.93 -4.20081C104.8 -2.38081 107.89 -1.85082 111.54 -2.38082C110.74 -3.94082 110.12 -5.19082 109.46 -6.43082C109.2 -6.93082 108.92 -7.43082 108.58 -7.88082C107.48 -9.35082 104.09 -9.54082 102.11 -8.30082C100.41 -7.23082 100.47 -5.94081 101.93 -4.20081ZM24.2299 2.73919C22.1099 7.30919 22.4899 11.6892 25.1999 16.5792C25.9399 10.6392 26.5899 5.41919 27.2499 0.189186C26.9299 0.109186 26.6199 0.0191861 26.2999 -0.0608139C25.6899 0.749186 25.0699 1.54919 24.2299 2.73919ZM121.77 125.199C122.29 124.059 120.8 122.139 119.12 122.289C115.86 122.569 113.9 121.399 113.5 117.769C110.91 119.809 112.71 121.849 112.98 123.659C113.09 124.399 114.16 125.519 114.86 125.569C117.01 125.729 119.19 125.449 121.77 125.199ZM117.86 32.3492C117.86 36.9892 117.86 41.6292 117.86 46.2592C119.88 36.1992 119.73 26.1792 117.86 17.3292C117.86 21.4092 117.86 26.5992 117.86 32.3492ZM72.3699 158.099C68.4799 157.189 67.0799 157.899 64.6299 162.059C67.8899 163.409 70.7399 162.119 72.3699 158.099ZM98.4999 160.169C98.1299 160.659 97.7599 161.159 97.3499 161.699C101.41 163.229 103.98 161.829 104.95 157.769C100.58 157.169 100.37 157.239 98.4999 160.169ZM65.2399 150.379C65.1999 149.529 65.4499 148.449 65.0199 147.909C64.6799 147.479 63.3199 147.389 62.7699 147.729C62.3499 147.999 62.4499 149.159 62.3999 149.929C62.3599 150.579 62.2499 151.329 62.5099 151.879C62.8599 152.649 63.5299 153.279 64.0599 153.959C64.2999 153.789 64.5399 153.619 64.7799 153.449C63.1399 152.389 63.2699 151.469 65.2399 150.379ZM100.81 167.629C101.72 167.429 102.68 167.329 103.52 166.959C103.68 166.889 103.52 165.289 103.27 165.219C101.84 164.819 100.35 164.669 98.8699 164.429C98.7099 164.739 98.5499 165.039 98.3899 165.349C99.0599 166.069 99.7099 166.779 100.81 167.629ZM28.3299 56.6892C28.8799 58.0592 29.4199 59.4192 29.9699 60.7892C30.1399 60.7292 30.3099 60.6692 30.4799 60.6192C29.4599 56.0892 28.4299 51.5492 27.4099 47.0192C27.1799 47.0592 26.9499 47.0992 26.7299 47.1392C27.2199 50.1692 27.7199 53.2092 28.3299 56.6892ZM73.3699 148.759C70.1399 146.549 68.4299 146.869 67.7899 150.199C69.2099 150.199 70.5799 150.299 71.9299 150.149C72.5199 150.089 73.0399 149.499 73.3699 148.759ZM65.3999 165.119C65.4199 165.939 65.2399 167.389 65.5099 167.479C66.5299 167.829 67.7799 167.989 68.7999 167.699C69.3299 167.549 69.5399 166.309 70.0799 165.169C68.2899 165.099 67.0799 165.049 65.3999 165.119ZM104 148.449C102.43 148.079 100.87 147.619 99.2799 147.409C98.9399 147.359 98.3799 148.169 98.1199 148.689C98.0399 148.849 98.6099 149.639 98.8299 149.619C100.59 149.459 102.34 149.169 104 148.449ZM94.9599 147.629C92.0499 147.379 92.0499 147.379 93.5899 152.529C93.5299 150.729 97.9999 150.729 94.9599 147.629ZM62.0999 160.849C63.0599 159.299 64.0299 157.749 65.0399 156.119C64.1399 155.769 63.4099 155.479 62.4799 155.119C62.2099 157.139 61.9699 158.959 62.0999 160.849ZM95.8199 158.159C96.1299 157.349 96.4499 156.549 96.7899 155.669C96.0499 155.669 95.0899 155.669 93.9599 155.669C94.0999 157.389 94.2299 159.069 94.3599 160.749C94.5099 160.819 94.6499 160.899 94.7999 160.969C95.2099 160.159 95.6199 159.339 95.8199 158.159ZM72.5099 165.109C72.3499 166.129 72.1899 167.159 72.0199 168.179C72.6399 167.919 73.5399 167.829 73.8199 167.359C74.3899 166.449 75.0799 165.129 72.5099 165.109ZM105.59 165.709C106.14 166.359 106.7 167.019 107.25 167.669C107.54 166.869 107.83 166.069 108.12 165.269C107.26 165.279 106.39 165.279 105.59 165.709ZM40.1199 12.7092C39.9999 12.7392 39.8699 12.7592 39.7499 12.7892C39.7899 12.9492 39.8399 13.1192 39.8799 13.2792C39.9799 13.1692 40.0699 13.0592 40.1199 12.7092ZM112.42 112.159C112.38 112.119 112.34 112.079 112.42 112.159ZM145.96 -21.4808C146.05 -21.5108 146.15 -21.5408 146.24 -21.5708C146.14 -21.6108 146.05 -21.6408 145.96 -21.4808ZM42.0999 74.3892C42.1699 74.3192 42.2399 74.2592 42.3099 74.1892C42.2399 74.1992 42.1699 74.2092 42.0999 74.3892ZM38.1099 42.2492C38.1699 42.3292 38.2299 42.4192 38.2899 42.4992C38.2699 42.3792 38.2599 42.2692 38.1099 42.2492Z" fill="#0B0A0B"/>
<path d="M27.1401 60.6191C28.6701 63.8691 30.1901 67.3491 31.7201 71.0391C30.1901 67.7891 28.6601 64.3191 27.1401 60.6191Z" fill="#333D3C"/>
<path d="M32.8301 74.3292C33.4201 75.4892 33.9901 76.8692 34.5701 78.4692C33.9901 77.3092 33.4101 75.9292 32.8301 74.3292Z" fill="#333D3C"/>
<path d="M21.4297 14.9492C21.9897 15.5692 22.5397 16.3892 23.1297 17.4092C22.5797 16.7992 21.9997 15.9792 21.4297 14.9492Z" fill="#0B0A0B"/>
<path d="M31.6997 71.4592C32.0897 72.0692 32.4697 72.8892 32.8597 73.9092C32.4697 73.2992 32.0797 72.4892 31.6997 71.4592Z" fill="#333D3C"/>
<path d="M23.1401 17.7692C23.3201 17.8692 23.5201 18.1392 23.7101 18.5792C23.5301 18.4792 23.3401 18.2092 23.1401 17.7692Z" fill="#0B0A0B"/>
<path d="M145.25 80.9192C145.24 80.8092 145.39 80.6492 145.69 80.4392C145.69 80.5492 145.55 80.7092 145.25 80.9192Z" fill="#0B0A0B"/>
<path d="M153.75 31.2792C153.74 31.1492 153.9 30.9892 154.23 30.7792C154.24 30.8992 154.08 31.0792 153.75 31.2792Z" fill="#0B0A0B"/>
<path d="M23.77 18.8792C23.87 18.8592 24.04 18.9692 24.25 19.2392C24.14 19.2592 23.99 19.1392 23.77 18.8792Z" fill="#0B0A0B"/>
<path d="M115.49 83.7292C112.86 85.4892 110.16 87.2192 107.7 88.8592C107.52 88.6592 107.19 88.2392 107.01 88.0392C108.48 84.7992 110.11 81.4692 111.53 78.2092C116.5 66.8392 119.83 54.9792 121.19 42.6692C123.43 22.4492 119.11 3.57916 107.89 -13.4108C102.17 -20.5408 96.5601 -27.5008 89.2001 -33.0008C87.8201 -34.0308 87.4401 -35.1508 88.1001 -36.7708C89.1101 -39.2308 90.0401 -41.7208 90.7801 -44.2708C91.4401 -46.5708 92.6801 -46.6508 94.3401 -45.5108C100.52 -41.3008 106.97 -37.4208 112.76 -32.7308C121.94 -25.3108 128.96 -16.0208 133.86 -5.21085C137.34 2.47915 139.18 10.5592 139.56 18.9692C140.07 30.3492 138.48 41.4892 135.07 52.3192C131.52 63.6092 126.28 73.9992 117.37 82.0892C116.82 82.5992 116.25 83.1392 115.49 83.7292Z" fill="#2B2A2D"/>
<path d="M104.77 64.6092C107.47 65.9892 110.17 67.3792 113.3 68.9792C109.6 77.0992 106.13 84.6892 102.54 92.5792C103.66 92.3292 104.47 92.1492 105.56 91.8992C107.67 100.169 109.77 108.709 111.98 117.359C97.1501 122.509 82.4201 122.309 67.2301 117.489C66.4401 117.259 65.9901 117.169 65.5401 117.079C65.5201 116.059 65.3301 115.009 65.5201 114.039C67.6501 102.889 69.8501 91.7592 72.0101 80.6192C72.1801 79.7392 72.2401 78.8392 72.3501 77.9492C72.1001 77.8392 71.8401 77.7392 71.5901 77.6292C71.2101 78.2192 70.6501 78.7592 70.4801 79.4092C69.8701 81.7892 69.4501 84.2192 68.8001 86.5892C68.6601 87.0892 67.6701 87.9192 66.9601 88.3992C66.7401 88.1892 66.7901 88.0892 66.7901 88.0892C63.6701 85.2992 60.7501 82.4192 57.0601 79.1192C61.7701 74.3692 66.5201 69.5892 71.5001 64.9992C72.9301 66.3792 73.9401 67.8692 75.3501 68.6992C83.8501 73.7092 98.0501 72.2392 104.77 64.6092Z" fill="#DCB1D3"/>
<path d="M35.6701 22.7191C35.7701 29.9491 35.1801 37.0391 36.1701 43.8891C38.1201 57.4091 44.7701 68.8391 53.8801 78.8891C54.1201 79.1491 54.6301 79.6491 54.8101 79.9591C54.6401 80.1691 54.1001 80.6991 53.9301 80.9191C51.3901 79.0191 48.6201 76.8791 46.3401 74.7091C36.4401 65.2691 29.4301 53.7891 28.8401 40.1091C28.0601 34.6891 26.7201 29.5191 27.2601 23.7591C27.8601 9.23913 29.5301 -5.11086 36.4701 -18.3409C43.4701 -31.6809 54.4101 -39.9509 68.6701 -43.9509C73.7401 -45.3709 79.0501 -45.9609 84.2701 -46.8209C85.6301 -47.0409 87.6101 -47.2609 89.6601 -47.2609C88.1801 -43.1709 86.6701 -38.6709 85.2001 -35.1209C84.9301 -34.4709 83.1001 -33.7009 82.2201 -33.4609C61.1901 -27.7009 48.7901 -14.0509 40.2601 5.19913C37.8501 10.6091 38.1101 18.5791 35.6701 22.7191Z" fill="#2A2A2C"/>
<path d="M148.12 46.1592C149.96 50.6192 151.94 54.9792 151.62 60.0592C151.16 67.4592 149 73.9592 144.32 79.5892C142.81 81.4092 141.64 83.5492 140.31 85.4992C135.8 92.1092 134.88 98.7892 139.49 105.379C141.65 108.459 145.23 109.839 148.9 108.989C151.01 108.499 153.3 107.539 154.84 109.919C156.41 112.349 155.97 115.269 154.54 117.299C152.59 120.079 149.59 122.259 146.07 122.569C140.59 123.049 134.56 123.099 128.67 123.459C130.47 120.719 132.23 118.369 133.48 116.229C133.8 115.679 133.39 114.899 133.14 114.269C131.1 109.229 129.03 104.099 127.04 99.0392C126.64 98.0192 126.89 96.6092 127.18 95.5492C127.86 93.1192 128.07 91.0292 126.52 88.6892C125.53 87.1992 125.12 85.4092 124 84.0592C121.79 81.3992 122.7 79.1392 124.78 76.7092C131.53 68.8292 136.47 60.1292 140.26 50.3992C140.99 50.3992 141.81 50.3392 142.14 50.1192C144.16 48.8292 146.13 47.4792 148.12 46.1592Z" fill="#2A2A2C"/>
<path d="M141.24 35.8692C141.45 30.7592 141.8 25.6392 141.83 20.5292C141.92 5.45919 136.78 -7.84081 128 -19.9208C119.46 -31.6708 108.33 -40.3108 95.8201 -47.3908C95.0201 -47.8408 93.9201 -49.3008 94.1201 -49.7308C94.8501 -51.2508 94.5501 -54.2108 97.3001 -53.6808C102.56 -52.6608 107.96 -51.7608 112.92 -49.8208C130.59 -42.9408 141.37 -29.5108 146.99 -11.8108C147.99 -8.67081 147.22 -4.88082 146.86 -1.43082C145.88 7.87918 144.73 17.1692 143.54 26.4492C143.11 29.8192 142.41 33.1592 141.69 36.6592C141.45 36.4792 141.35 36.1792 141.24 35.8692Z" fill="#2A2A2C"/>
<path d="M41.1197 122.619C40.4297 122.069 39.9397 121.549 39.2897 120.949C37.6697 119.719 36.3597 118.109 34.6997 117.539C29.6597 115.819 31.5297 113.919 29.7997 108.759C28.7697 105.679 28.4197 106.249 27.1597 100.879C27.6697 100.639 27.9897 100.009 28.4897 99.3492C28.8597 99.1492 29.1397 99.1592 29.6397 99.4092C31.1297 101.289 32.4597 102.759 34.8197 101.499C34.9397 101.459 35.0697 101.449 35.5397 101.499C39.8797 101.019 41.4297 97.3792 39.6497 92.6692C39.6197 92.5592 39.5997 92.4492 39.5897 92.2592C41.1597 89.1392 39.0497 86.4292 38.2297 83.8092C36.1297 77.1392 33.4397 71.2892 30.9897 64.7292C30.7497 64.0792 30.7797 62.7192 31.0997 61.8392C32.0897 63.7292 32.9997 65.6592 34.0997 67.4892C37.9697 73.9492 43.0897 78.9092 50.5397 81.0692C53.2197 81.8492 53.9797 82.9192 51.8797 84.9992C49.7897 87.3992 49.8897 89.7192 51.6897 92.0892C53.0897 93.9292 52.7897 95.5992 51.9897 97.6592C50.1497 102.399 48.6697 107.269 47.0397 112.089C46.9797 112.269 46.9897 112.489 46.8797 112.629C45.3297 114.539 43.8097 116.479 45.9997 118.889C47.4697 120.509 48.5297 122.259 50.6097 123.599C53.7997 125.639 55.7497 126.029 58.3897 123.099C58.9597 122.459 61.2197 123.349 62.8697 123.859C63.0197 124.399 63.0097 124.619 62.9997 124.839C62.5197 124.959 62.0497 125.079 61.2597 125.339C60.7097 125.499 60.4697 125.509 60.2297 125.529C56.5697 125.559 52.8597 125.959 49.2597 125.489C46.5397 125.109 43.9597 123.639 41.1197 122.619Z" fill="#2A2A2B"/>
<path d="M70.0698 64.0292C65.6598 68.7792 60.6198 73.7292 56.1598 78.5292C48.0498 69.9192 41.8198 59.6192 39.2598 47.5892C40.2498 48.2292 41.0498 49.0192 41.8898 49.7792C49.7898 56.9692 59.6698 61.7292 70.0698 64.0292Z" fill="#2B2A2D"/>
<path d="M62.7901 118.679C62.2201 120.069 61.6101 121.259 59.5201 120.249C58.8101 119.909 57.1701 120.779 56.3601 121.529C53.8301 123.849 53.5701 123.839 52.5201 120.509C49.4801 121.349 49.0201 120.909 49.6801 117.809C46.6601 116.999 46.5301 116.609 48.3901 114.219C48.6701 113.859 48.9201 113.459 49.0601 113.039C51.0201 106.949 52.9601 100.849 55.0301 94.3591C58.8801 96.8091 62.1401 98.8291 65.3001 100.989C65.6901 101.259 65.7601 102.379 65.6001 103.019C64.6501 106.869 63.5701 110.689 62.5901 114.539C62.3701 115.399 62.3601 116.309 62.3701 117.539C62.5101 118.129 62.7401 118.429 62.7901 118.679Z" fill="#ECBEA0"/>
<path d="M58.4301 13.9691C57.4601 14.6691 55.0501 14.3191 53.3601 14.6191C52.4301 17.4991 53.2301 15.1591 55.3501 17.7691C58.9501 17.5991 60.3501 18.9391 64.2901 18.7991C64.1801 19.3491 63.0101 24.9391 58.0101 27.0991C55.2101 28.3091 52.5001 27.8791 51.5501 27.6791C50.9901 27.5591 48.9301 27.0891 46.8701 25.4591C44.8501 23.8691 43.4501 21.6391 42.5901 18.9391C41.0601 14.1691 41.0101 9.38914 43.2001 4.41914C43.6401 3.19914 44.2501 2.25914 44.6301 1.61914C49.3801 -2.86086 54.5201 -2.63086 58.9201 1.72914C58.8401 1.88914 61.4901 3.46914 61.2701 3.43914C59.6401 3.98914 62.5501 11.9391 61.1801 12.5291" fill="#F7F5F5"/>
<path d="M116.03 35.9291C116 36.6291 115.54 37.7591 115.04 37.9191C107.75 40.1691 96.12 36.6191 94.73 27.3991C93.88 21.7791 97.13 15.5391 101.8 12.2491L104.24 10.7191L108.17 9.25914L111.14 8.87915L112.44 9.02914L113.53 9.47914L114.06 10.1292L114.42 11.1691L114.82 13.0991L114.98 13.7291L115.04 15.1591L115.41 18.7991L115.84 24.0091L115.74 25.5091L115.76 26.3091L116.13 28.7392C116.13 28.7092 116.13 33.6591 116.03 35.9291Z" fill="#F6F6F5"/>
<path d="M126.23 119.599C125.52 123.109 124.89 122.959 121.97 120.769C121.08 120.099 119.47 119.519 118.63 119.849C115.65 121.029 116.05 118.759 115.87 117.049C115.74 115.799 115.56 114.469 115.14 113.319C113.75 109.499 112.39 105.759 110.88 101.939C114.66 100.229 118.61 98.2592 122.47 96.7692C121.67 99.1892 119.96 101.099 120.93 103.519C121.28 104.389 121.63 105.259 121.92 106.159C123.3 110.499 124.85 115.259 126.23 119.599Z" fill="#EBBD9F"/>
<path d="M64.5198 19.2792C62.6998 19.2392 60.8597 19.2192 58.9997 19.2092C57.3997 19.1992 55.8097 19.1992 54.2497 19.2092C54.1697 19.4792 54.0898 19.7392 54.0098 20.0092C54.7198 20.6792 55.3798 21.8392 56.1598 21.9292C58.6198 22.1992 61.1197 22.0592 63.7097 22.0592C63.9797 21.9392 64.1497 21.8392 64.3197 21.7392C63.9997 22.2392 63.6797 22.7392 63.0697 23.3192C62.6997 23.5592 62.6198 23.7192 62.5498 23.8792C62.5498 23.8792 62.5997 23.8192 62.6297 23.8392C58.7197 24.0092 54.8597 23.8292 52.0997 20.4292C49.9897 17.8192 48.8497 14.9292 49.7797 12.0592C51.4697 11.7592 53.0197 11.8592 53.9897 11.1692C54.5097 10.7992 54.0397 9.04918 53.9597 7.46918C53.8797 6.66918 53.8697 6.31918 53.8597 5.96918C53.8597 5.96918 53.9097 6.01917 54.0997 6.03917C56.3397 5.09917 58.5898 4.14917 60.8298 3.20917C60.9698 3.26917 61.1997 3.37917 61.4497 3.53917C62.6497 4.29917 63.4997 5.64918 64.0697 8.26918C65.0197 12.5992 64.6398 17.8692 64.5198 19.2792Z" fill="#AB5C34"/>
<path d="M69.97 64.0292C59.37 61.7592 49.79 56.9592 41.89 49.7892C41.05 49.0292 40.24 48.2292 39.25 47.3692C38.8 46.0892 38.52 44.8992 38.25 43.7092C38.49 43.6592 38.74 43.6092 38.98 43.5492C42.48 46.0592 45.83 48.8192 49.51 51.0292C56.95 55.4992 64.94 58.6292 73.6 59.8692C74.91 60.0592 76.22 60.2692 77.48 60.6392C77.87 60.7592 78.3 61.5092 78.59 61.9492C78.15 62.1992 77.37 63.0492 77.21 62.9292C74.33 60.8192 72.5 63.1392 69.97 64.0292Z" fill="#1C1C1C"/>
<path d="M109.32 89.9592C113.22 87.1792 117.25 84.4792 121.34 81.5592C122.49 83.7392 123.71 86.0592 124.76 88.6792C120.32 92.6992 115.16 95.0992 109.32 97.1692C109.32 94.5092 109.32 92.1392 109.32 89.9592Z" fill="#DAB0D3"/>
<path d="M104.65 64.2091C98.0499 72.0291 83.8499 73.4891 75.3399 68.4791C73.9299 67.6491 72.9199 66.1591 71.6899 64.7891C73.3999 63.4191 74.8899 63.9291 76.5299 65.0391C83.8099 69.9491 91.6799 69.7091 98.7799 64.4191C100.67 63.0091 102.54 63.0691 104.65 64.2091Z" fill="#E4C0DC"/>
<path d="M66.9299 87.7292C69.4599 89.3192 67.5899 91.3491 67.3899 93.4691C67.4299 94.3391 67.1499 95.0291 66.8799 95.4991C65.6399 95.1591 63.9699 94.3292 63.0199 93.6992C59.5999 91.4292 56.2599 89.0392 52.8999 86.6892C53.5399 85.6892 54.1799 84.6792 54.7599 83.7692C58.8699 85.2192 62.6099 86.6792 66.6699 87.9492C66.8699 87.8592 66.9499 87.7392 66.9299 87.7292Z" fill="#DAB0D3"/>
<path d="M84.2799 61.0892C88.1399 61.1092 91.7299 61.1092 95.2899 61.1092C95.9099 64.6792 95.1899 66.4992 91.1499 66.9092C87.7099 67.2492 83.8699 67.5192 80.6899 65.3292C80.7899 64.0192 80.9099 62.5692 81.0199 61.0892C81.9799 61.0792 82.9899 61.0792 84.2799 61.0892Z" fill="#E0B195"/>
<path d="M152.23 29.6791C149.99 31.2891 147.83 33.2291 145.3 34.7491C145.01 34.6491 144.28 34.4591 144.28 34.4591C144.33 33.7991 144.65 32.7391 144.75 32.0891C145.38 28.0791 146.03 24.0791 146.75 19.6191C148.17 20.3391 149.38 20.9491 150.82 21.8591C151.39 24.6291 151.9 27.1991 152.23 29.6791Z" fill="#BB7761"/>
<path d="M126.23 119.599C124.75 115.139 123.3 110.499 121.9 106.159C121.61 105.269 121.26 104.399 120.91 103.519C119.94 101.089 119.82 98.8692 122.38 97.0492C122.43 96.6292 122.55 96.4992 122.98 96.5692C123.38 96.7392 123.41 96.7192 123.59 96.7492C123.77 97.0192 124.06 97.4292 124.08 97.9992C124.41 104.639 126.54 111.049 129.12 116.829C128.91 117.969 128.84 118.799 128.89 119.909C128.01 119.809 127.22 119.829 126.23 119.599Z" fill="#E6B195"/>
<path d="M152.23 29.6792C151.76 27.3492 150.99 24.4192 150.63 21.7392C152.24 20.5392 152 20.0292 150.77 19.2492C149.55 18.4692 148.33 18.0892 147.05 17.0292C146.87 16.6692 146.7 16.4592 146.68 16.3592C146.91 15.0692 147.42 13.3392 147.64 12.0792C151.69 12.1092 154.43 14.6392 155.05 18.8692C155.61 22.7192 154.6 26.4092 152.23 29.6792Z" fill="#CA8871"/>
<path d="M109.32 89.9592C109.54 92.1092 109.32 94.5092 109.32 97.1692C115.17 95.0892 120.31 92.4892 124.76 88.6792C126.76 90.4892 126.33 92.5092 123.99 93.6892C119.4 96.0092 114.82 98.3492 109.75 100.919C108.89 97.4392 108.18 94.6592 107.7 92.0092C107.61 91.5092 108.69 90.5992 109.32 89.9592Z" fill="#E4C0DC"/>
<path d="M109.25 64.8592C108.15 64.3092 106.92 63.5592 105.76 63.1892C103.21 62.3592 100.82 60.5692 98.2499 63.7292C98.0999 63.2892 97.7999 62.6492 97.6499 62.2092C98.3599 61.7592 99.1599 60.9992 99.9299 60.8392C104.81 59.8192 109.72 58.9292 115 57.9192C114.93 59.2892 115.25 60.4992 114.9 61.8492C112.96 62.7592 110.9 64.0492 109.25 64.8592Z" fill="#1C1C1C"/>
<path d="M95.46 15.3991C96.14 10.8891 99.44 8.20914 103.22 5.47914C104.53 4.86914 105.53 4.44914 106.52 4.03914C106.96 3.93914 107.41 3.83914 108.01 3.66914C109.69 3.53914 111.22 3.47915 113 3.37915C113.91 4.75915 114.12 5.96914 111.94 5.97914C104.72 5.97914 99.75 9.91914 95.46 15.3991Z" fill="#8D5647"/>
<path d="M64.6297 1.13914C65.4197 4.03914 66.0497 6.82915 66.5197 9.74915C65.0097 5.05915 63.6197 0.649143 59.0197 -2.69086C58.3797 -3.02086 57.8897 -3.23086 57.5297 -3.36086C57.5297 -3.36086 57.5297 -3.51086 57.4897 -3.72086C55.1097 -4.51086 52.7697 -5.06085 50.4497 -5.70085C49.6897 -5.91085 48.8797 -6.42086 48.1597 -6.77086C48.5897 -7.31086 49.1497 -7.82086 49.7397 -8.44086C51.3097 -8.18086 52.7197 -7.83086 54.1397 -7.46086C58.8897 -6.24086 62.0397 -3.04085 64.6297 1.13914Z" fill="#8D5647"/>
<path d="M128.78 116.969C125.99 111.139 124.32 103.929 124 97.4691C126.47 101.629 129.25 106.479 129.45 111.599C129.47 112.139 130.09 112.639 130.38 113.189C130.76 113.889 131.84 115.149 131.62 115.519C131.26 116.139 129.76 116.619 128.78 116.969Z" fill="#D9A78C"/>
<path d="M148.03 46.2492C146.13 47.7492 144.16 48.8292 142.14 50.1192C141.81 50.3292 140.78 50.4592 140.26 50.3992C140.94 46.4092 142.27 42.4192 143.06 38.5692C143.31 38.4692 143.56 38.3792 143.81 38.2792C145.19 40.7792 146.57 43.5592 148.03 46.2492Z" fill="#1C1C1C"/>
<path d="M24.2297 2.54916C24.9597 1.55916 25.6897 0.749158 26.3097 -0.0508423C26.6297 0.0291577 26.9397 0.119158 27.2597 0.199158C26.6097 5.41916 25.9597 10.6492 25.2097 16.5892C22.4897 11.6892 21.9997 7.30916 24.2297 2.54916Z" fill="#CA8871"/>
<path d="M117.88 31.8892C117.88 26.4192 117.88 21.2292 117.88 17.1592C119.75 26.0092 119.9 36.0292 117.88 46.0892C117.88 41.4492 117.88 36.8092 117.88 31.8892Z" fill="#202121"/>
<path d="M66.6699 96.9992C66.5499 97.6892 66.3299 98.5492 66.0299 100.219C61.1699 96.3892 56.6299 93.0692 52.3899 89.5892C51.9999 89.2692 52.7199 87.3192 52.9099 86.6892C56.6299 89.5192 59.7599 92.9792 63.2899 95.6292C64.2099 96.3192 65.5499 96.5592 66.6699 96.9992Z" fill="#CEACCB"/>
<path d="M66.6701 96.9992C65.4601 96.7292 64.2101 96.3192 63.2801 95.6192C59.7501 92.9692 56.3201 90.1692 52.7701 87.2392C52.6801 87.0492 52.8101 86.7592 52.9001 86.6792C56.3601 88.9492 59.6101 91.4192 63.0201 93.6892C63.9701 94.3192 65.1601 94.6092 66.5001 94.9192C66.7601 94.7792 66.9601 94.6892 66.9601 94.6892C66.9001 95.3492 66.8201 96.1792 66.6701 96.9992Z" fill="#ECCCE3"/>
<path d="M109.25 64.8592C110.77 63.8992 113.11 62.5892 114.89 61.8492C114.78 63.4992 113.97 65.6392 113.64 67.6992C112.1 66.7192 110.67 65.8292 109.25 64.8592Z" fill="#2B2A2D"/>
<path d="M28.2897 56.2892C27.7397 53.0292 27.2397 49.9892 26.7397 46.9492C26.9697 46.9092 27.1997 46.8692 27.4197 46.8292C28.4397 51.3592 29.7697 56.3892 30.7897 60.9192C30.6197 60.9792 30.1498 60.5492 29.9798 60.6092C29.4398 59.2392 28.8997 57.8792 28.2897 56.2892Z" fill="#2A2A2B"/>
<path d="M41.3401 20.9991C40.5501 19.8191 39.7801 18.4091 38.7801 17.0391C38.7001 16.4091 38.8501 15.7391 39.0001 15.0691C39.2701 15.0491 39.5301 15.0291 39.8001 14.9991C40.3201 16.9191 40.8401 18.8491 41.3401 20.9991Z" fill="#1A1513"/>
<path d="M95.6297 34.5192C95.1097 34.0292 94.5197 33.3492 93.9497 32.4592C94.4897 32.9292 95.0297 33.6392 95.6297 34.5192Z" fill="#D9A78C"/>
<path d="M25.9898 43.1792C25.9598 42.4192 26.0998 41.5792 26.3898 40.5892C26.4098 41.3192 26.2898 42.2092 25.9898 43.1792Z" fill="#080A0A"/>
<path d="M40.1698 12.6492C40.0998 12.8792 39.9998 12.9892 39.9098 13.0992C39.8698 12.9392 39.8198 12.7692 39.7798 12.6092C39.8998 12.5792 40.0198 12.5592 40.1698 12.6492Z" fill="#1A1513"/>
<path d="M56.6498 29.5992C56.8298 29.6192 56.7698 29.8092 56.7598 29.9092C56.3398 30.0392 55.9298 30.0692 55.3198 30.0592C55.5598 29.8692 56.0198 29.7292 56.6498 29.5992Z" fill="#1A1513"/>
<path d="M52.64 29.8892C52.7 30.0492 52.61 30.0992 52.24 30.1292C51.87 30.1292 51.78 30.1492 51.69 30.1692C51.69 30.1692 51.53 29.9492 51.46 29.8292C51.75 29.7292 52.12 29.7492 52.64 29.8892Z" fill="#1A1513"/>
<path d="M48.1601 28.4691C47.9001 28.5191 47.5501 28.3891 47.0801 28.0991C47.3301 28.0691 47.7001 28.1791 48.1601 28.4691Z" fill="#1A1513"/>
<path d="M38.1998 42.0192C38.2798 42.0892 38.2998 42.1992 38.3098 42.3192C38.2498 42.2292 38.1898 42.1492 38.1998 42.0192Z" fill="#1C1C1C"/>
<path d="M96.1797 35.1492C96.0697 35.1792 95.9197 35.0592 95.6997 34.7992C95.7997 34.7792 95.9697 34.8892 96.1797 35.1492Z" fill="#D9A78C"/>
<path d="M96.81 35.7892C96.7 35.8192 96.53 35.6792 96.27 35.4092C96.38 35.3892 96.56 35.5092 96.81 35.7892Z" fill="#D9A78C"/>
<path d="M51.0597 29.5591C50.9997 29.6691 50.8897 29.6891 50.6597 29.6191C50.6897 29.5191 50.8597 29.4891 51.0597 29.5591Z" fill="#1A1513"/>
<path d="M49.01 28.8792C48.87 28.9792 48.76 28.9692 48.52 28.8292C48.61 28.7292 48.83 28.7492 49.01 28.8792Z" fill="#1A1513"/>
<path d="M63.52 24.8492C63.59 24.9892 63.55 25.0992 63.38 25.2992C63.31 25.1992 63.36 25.0092 63.52 24.8492Z" fill="#1A1513"/>
<path d="M66.4297 13.6692C66.5597 13.7092 66.5897 13.8092 66.5897 14.0392C66.4797 14.0392 66.4097 13.8792 66.4297 13.6692Z" fill="#1A1513"/>
<path d="M67.6698 38.4692C70.7798 38.5792 73.7498 38.8892 76.7298 39.0892C78.6898 39.2192 80.6698 39.2092 83.0798 39.2592C83.7698 39.2292 84.0098 39.1892 84.2498 39.1592C85.9498 39.6792 87.6398 40.1992 89.4598 40.8392C90.4998 43.8192 89.2898 45.5192 86.7798 46.9092C81.4898 49.8392 72.8098 49.3392 68.2098 45.5992C65.5198 43.3992 65.3098 41.2492 67.6698 38.4692ZM76.5298 41.2292C74.3798 40.9592 72.2398 40.6292 70.0898 40.4692C69.5498 40.4292 68.6698 40.7992 68.4998 41.2192C68.3098 41.6792 68.5498 42.7292 68.9298 42.9592C70.6498 43.9792 72.4798 44.7892 74.5598 46.0492C78.0198 47.2892 81.3698 46.9192 84.7898 45.6692C82.8998 42.2392 80.5198 40.5592 76.5298 41.2292Z" fill="#7A1A25"/>
<path d="M81.2798 32.8692C80.9998 33.5192 80.6498 34.0092 80.0898 34.3292C78.9298 33.1892 77.9798 31.4592 77.0098 31.4392C75.7898 31.4192 74.5398 32.8092 73.3098 33.5892C72.9898 33.4492 72.6798 33.2992 72.2598 33.0892C73.3398 29.0892 76.4598 28.2292 80.4698 30.9192C80.8298 31.5892 81.0098 32.1492 81.2798 32.8692Z" fill="#1A1513"/>
<path d="M51.6001 30.2291C51.7801 30.1391 51.8801 30.1292 52.1001 30.1692C51.9901 30.2592 51.7501 30.2791 51.6001 30.2291Z" fill="#E5A98C"/>
<path d="M77.3799 36.6692C79.2199 36.8792 81.0899 37.3092 83.0099 37.9492Z" fill="#EBB496"/>
<path d="M84.0798 39.0792C83.9298 39.2092 83.6798 39.2492 83.2598 39.2392C83.3798 39.1192 83.6898 39.0492 84.0798 39.0792Z" fill="#E6B195"/>
<path d="M73.52 33.6192C74.53 32.8092 75.78 31.4192 77 31.4392C77.97 31.4592 78.92 33.1892 79.93 34.3692C77.91 34.2792 75.83 33.9692 73.52 33.6192Z" fill="#D7957B"/>
<path d="M76.7798 41.1592C80.4398 40.1892 82.9998 42.2692 84.8998 45.6892C81.4698 46.9392 77.5498 47.4391 74.0498 45.8191C74.7998 44.1991 75.9998 42.4092 76.7798 41.1592Z" fill="#C34B95"/>
<path d="M76.7799 41.1992C76.1599 42.5992 74.9799 44.3892 74.0799 45.8292C72.1799 45.1292 70.5599 43.9892 68.8399 42.9792C68.4499 42.7492 68.2099 41.6992 68.4099 41.2392C68.5799 40.8292 69.4599 40.4492 69.9999 40.4892C72.1499 40.6492 74.4699 40.7792 76.7799 41.1992Z" fill="#93344E"/>
<path d="M52.6501 29.3492C60.1446 29.3492 66.2201 21.9485 66.2201 12.8192C66.2201 3.68992 60.1446 -3.71082 52.6501 -3.71082C45.1556 -3.71082 39.0801 3.68992 39.0801 12.8192C39.0801 21.9485 45.1556 29.3492 52.6501 29.3492Z" stroke="#0B0A0B" stroke-width="3" stroke-miterlimit="10"/>
<path d="M115.89 26.9892C114.07 26.9492 111.59 27.8391 109.73 27.8291C108.13 27.8191 106.54 27.8191 104.98 27.8291C104.9 28.0991 104.82 28.3592 104.74 28.6292C105.45 29.2992 106.11 30.4591 106.89 30.5491C109.35 30.8191 111.85 30.6791 114.44 30.6791C114.71 30.5591 116.12 30.4191 116.12 30.2191C116.12 31.0891 116.1 30.8392 116.1 32.3792C115.73 32.6192 113.34 32.3491 113.27 32.5091C113.27 32.5091 113.32 32.4491 113.35 32.4691C109.44 32.6391 105.58 32.4591 102.82 29.0591C100.71 26.4491 99.57 23.5591 100.5 20.6891C102.19 20.3891 103.74 20.4891 104.71 19.7991C105.23 19.4291 104.76 17.6791 104.68 16.0991C104.6 15.2991 104.59 14.9491 104.58 14.5991C104.58 14.5991 104.63 14.6491 104.82 14.6691C107.06 13.7291 111.83 11.3191 114.08 10.3691C114.23 10.4291 114.99 13.2891 114.98 13.5891C114.96 14.3091 115.22 14.9492 115.49 18.4892C115.68 21.0292 115.78 22.3391 115.83 24.0091C115.88 25.1991 115.89 26.2292 115.89 26.9892Z" fill="#AB5C34"/>
<path d="M25.9901 43.1791C25.9901 43.1791 23.4901 50.7792 27.1401 60.6292C30.7901 70.4792 36.0601 84.0991 36.0601 84.0991" fill="#0B0A0B"/>
<path d="M35.5698 82.8191L39.2598 92.5891C39.2598 92.5891 40.4898 99.8891 35.5698 100.999C30.6498 102.119 30.6098 99.1991 30.6098 99.1991C30.6098 99.1991 28.6598 97.5291 27.2298 100.619C25.7998 103.709 31.5698 118.319 36.6198 121.659C41.6798 124.999 44.3098 125.819 44.3098 125.819V123.909C44.3098 123.909 39.1098 121.279 36.0598 117.759C33.0098 114.239 30.5298 111.059 29.4098 107.709C28.2898 104.359 28.9798 101.439 29.3198 101.359C29.6598 101.269 31.3798 103.079 33.6098 102.559C35.8398 102.039 37.6498 104.189 39.7898 101.099C41.9398 98.0091 40.9098 91.1391 40.9098 90.7991C40.9098 90.4591 37.2198 81.2691 37.2198 81.2691L35.2498 79.9791L35.5698 82.8191Z" fill="#0B0A0B"/>
<path d="M115.47 41.1292C115.47 41.1292 108.02 41.7192 104.24 39.9892C100.46 38.2592 95.9601 38.1592 93.3501 30.9492C90.7401 23.7392 94.5101 17.2392 94.5101 17.2392C94.5101 17.2392 104.13 7.13917 113.52 5.64917C122.91 4.15917 100.18 12.9792 100.18 12.9792L96.5401 15.9592L95.6301 17.3592L94.4701 19.4492L94.1001 22.3092L93.4401 24.7692L94.4701 26.3692V28.1992L95.1501 29.7492L96.8101 35.3492L97.9601 36.2192L100.19 37.3192L104.56 38.4792L110.04 39.7092L115.8 39.8792L115.47 41.1292Z" fill="#0B0A0B"/>
<path d="M23.29 0.0291672C22.8 -0.650833 25.9 -2.59083 28.04 -6.67083C29.72 -9.87083 29.55 -11.9808 30.19 -16.0308C31.31 -23.2108 33.7 -28.4808 35.6 -32.6908C37.28 -36.4008 39.05 -40.3208 42.47 -44.4508C43.48 -45.6808 47.7 -50.6208 56.21 -55.1008C57.57 -55.8108 60.77 -57.4708 65.4 -58.9808C79.56 -63.6008 92.81 -62.3508 97.68 -61.7108C111.5 -59.9108 121.09 -54.8008 123.61 -53.4708C127.83 -51.2308 133.09 -48.3908 138.29 -42.7408C138.29 -42.7408 142.29 -38.5008 144.78 -33.8108C146 -31.5208 146.87 -29.1708 146.87 -29.1708C146.91 -29.0708 147.2 -28.2708 147.49 -27.3608C148.6 -23.8308 149.14 -20.0508 149.28 -19.0408C150.11 -13.0908 150.52 -10.1208 150.31 -7.19083C150.13 -4.70083 149.67 -2.09083 149.24 0.279167C148.43 4.77917 147.7 7.21917 149.02 8.51917C149.75 9.23917 150.39 8.76917 151.94 9.54917C154.55 10.8592 155.91 13.0692 156.32 13.7592C158.42 17.2692 157.89 20.9692 157.61 22.9492C157.02 27.0592 155.15 29.6992 153.06 32.6492C152.28 33.7592 146.64 38.0392 145.53 37.5692C145.17 37.4192 147.45 35.5792 147.48 35.1692C147.53 34.1892 149.46 34.3992 151.26 32.6492C152.1 31.8292 152.69 31.0592 152.98 30.6792C153.26 30.3092 153.72 29.6992 154.18 28.8792C154.73 27.8992 154.75 27.5792 155.73 25.0992C156.48 23.1892 156.53 23.2092 156.59 22.7792C156.74 21.7292 156.44 21.4892 156.16 19.3492C155.91 17.4192 156.12 17.3592 155.82 16.3392C155.59 15.5592 155.26 14.9592 154.62 13.7592C153.96 12.5292 153.62 11.9192 153.34 11.6692C152.35 10.7992 151.62 11.2592 149.56 10.3292C148.64 9.90917 148.16 9.68916 147.76 9.20916C146.76 8.01916 147.07 6.24917 147.33 4.82917C148.19 0.21917 148.6 -1.73083 148.79 -2.81083C149.39 -6.15083 149.24 -8.78084 149.05 -12.4308C148.96 -14.1908 148.84 -16.1808 148.36 -18.7808C147.95 -21.0008 147.22 -23.3208 145.78 -27.8808C144.78 -31.0408 144.27 -32.6408 143.89 -33.4608C141.98 -37.5508 139.53 -40.0608 138.82 -40.7608C137.89 -41.6808 137.05 -42.3508 135.81 -43.3408C133.9 -44.8608 132.45 -45.8308 131.43 -46.5208C127.33 -49.3008 126.72 -50.0908 124.47 -51.5908C120.97 -53.9308 118.07 -54.9308 112.62 -56.8308C107.3 -58.6808 102.88 -59.6608 101.11 -60.0108C95.82 -61.0508 81.08 -63.9508 64.53 -57.6908C59.93 -55.9508 52.31 -52.9708 45.38 -45.6708C42.64 -42.7808 37.68 -37.5508 35.42 -29.4408C33.88 -23.9208 31.45 -9.37083 29.67 -4.45083C29.55 -4.12083 29.13 -3.00084 28.12 -1.96084C26.39 -0.160838 23.7 0.609167 23.29 0.0291672Z" fill="#0B0A0B"/>
</g>
</svg>
