<svg width="171" height="126" viewBox="0 0 171 126" fill="none" xmlns="http://www.w3.org/2000/svg">
<mask id="mask0_66_4075" style="mask-type:luminance" maskUnits="userSpaceOnUse" x="0" y="-45" width="171" height="171">
<path d="M132.12 125.64H38.52C17.25 125.64 0 108.39 0 87.12V-6.48C0 -27.75 17.25 -45 38.52 -45H132.12C153.39 -45 170.64 -27.75 170.64 -6.48V87.12C170.64 108.39 153.4 125.64 132.12 125.64Z" fill="white"/>
</mask>
<g mask="url(#mask0_66_4075)">
<path d="M28.7099 43.18C28.2799 44.84 28.7599 45.33 30.3999 44.97C31.1999 44.8 32.0199 44.75 33.2499 44.59C32.8299 45.31 32.6699 45.65 32.4499 45.95C30.7999 48.18 30.6599 50.55 31.9699 52.93C32.2499 53.44 33.2399 54.06 33.6299 53.92C34.5599 53.56 34.2299 52.73 33.7799 52.02C33.0499 50.88 33.0899 49.68 33.5799 48.44C34.5399 51.66 36.0899 54.78 34.9799 58.51C30.4799 57.36 27.2399 54.87 25.4399 50.46C25.7599 49.09 25.8999 47.87 26.2699 46.73C26.7199 45.33 27.0099 43.75 28.7099 43.18Z" fill="#79A33F"/>
<path d="M28.6996 43.18C27.0096 43.75 26.7196 45.33 26.2696 46.73C25.8996 47.87 25.7496 49.09 25.4296 50.35C23.7096 46.16 23.6696 41.99 26.3296 38.08C27.6896 36.08 29.6296 34.97 32.2396 34.96C32.4296 35.11 32.4896 35.15 32.5696 35.18C32.5596 36.71 32.5396 38.24 32.3896 39.91C30.4296 40.26 28.9196 41.59 28.6996 43.18Z" fill="#89C060"/>
<path d="M28.8198 43.16C28.9198 41.59 30.4298 40.26 32.3498 40.05C32.5398 40.78 32.6198 41.52 32.7098 42.25C31.3498 42.57 30.1498 42.86 28.8198 43.16Z" fill="#79A33F"/>
<path d="M32.5799 35.11C32.4899 35.16 32.4299 35.11 32.3599 34.99C32.4499 34.89 32.5399 34.93 32.5799 35.11Z" fill="#79A33F"/>
<path d="M132.03 -0.0100096C132.09 -0.0500096 132.16 -0.0300066 132.2 0.0399934C132.15 0.0799934 132.05 0.0399904 132.03 -0.0100096Z" fill="white"/>
<path d="M146.15 65.7C143.28 69.39 137.57 71.2399 132.63 70.0499C133.78 66.0499 134.92 62.0599 136.08 58.0299C138.25 59.3199 138.69 61.9399 137.19 63.8599C136.97 64.1399 136.59 64.3299 136.48 64.6399C136.28 65.1799 136.23 65.77 136.11 66.34C136.74 66.28 137.56 66.4599 137.98 66.1399C140.9 63.8799 141.06 59.54 138.41 56.88C137.93 56.4 137.41 55.96 136.61 55.23C139.54 54.83 141.87 55.41 144.08 56.66C144.6 56.95 145.15 57.2 145.8 57.6C146.02 60.32 146.13 62.8899 146.24 65.4699C146.24 65.4699 146.24 65.44 146.2 65.46C146.13 65.5 146.07 65.5199 146.07 65.5299C146.09 65.5799 146.12 65.64 146.15 65.7Z" fill="#79A33F"/>
<path d="M146.33 65.41C146.12 62.88 146.02 60.3 145.9 57.59C147.01 56.66 146.83 55.84 145.82 55.18C144.85 54.55 143.78 54.08 142.66 53.37C142.29 52.9 142.08 52.47 141.74 52.29C140.56 51.69 139.33 51.17 138.11 50.63C138.59 48.12 138.74 48 141.26 47.98C146.08 47.95 149.21 50.82 149.58 55.63C149.87 59.31 148.7 62.52 146.33 65.41Z" fill="#89C060"/>
<path d="M138.05 50.74C139.32 51.18 140.55 51.7 141.73 52.3C142.07 52.47 142.28 52.9 142.55 53.33C140.94 53.2 139.33 52.95 137.6 52.69C137.73 52.09 137.86 51.47 138.05 50.74Z" fill="#79A33F"/>
<path d="M36.3599 70.01L46.9299 82.41L67.0799 91.28L90.3299 93.81L112.61 90.91L120.9 86.71L128.91 74.98L141.69 34.07C141.95 30.51 141.94 25.75 140.89 20.29C140.03 15.79 138.69 12.04 137.43 9.13997C135.78 7.01997 134.14 4.88997 132.49 2.76997C131.24 1.60997 129.98 0.449978 128.73 -0.710022C126.61 3.49998 124.49 7.70998 122.38 11.93C115.98 15.19 109.57 18.45 103.17 21.71C95.0699 21.95 86.9699 22.18 78.8699 22.42C71.8699 19.57 64.8799 16.72 57.8799 13.86C54.4199 10.53 50.9699 7.20997 47.5099 3.87997C46.8699 2.43997 46.2199 0.999982 45.5799 -0.440018C43.6699 1.16998 41.3799 3.46998 39.3199 6.58998C35.0699 13.04 34.1499 19.46 33.9199 22.91C34.0599 27.34 34.2099 31.76 34.3499 36.19C35.0099 47.47 35.6899 58.74 36.3599 70.01Z" fill="#678B44"/>
<path d="M117.2 87.41C117.42 88.6 116.75 89.12 115.76 89.56C109.67 92.25 103.27 93.72 96.6799 94.42C96.3299 94.46 95.9799 94.49 95.5699 94.52C95.3199 95.76 95.4099 96.41 96.9599 96.68C101.3 97.43 105.47 98.68 108.58 102.42C112.19 106.46 115.78 110.27 119.11 114.3C121.38 117.05 121.58 116.41 119.13 119.59C118.85 119.96 118.61 120.65 118.76 121.01C120.53 125 122.37 128.95 124.21 133.01C124.53 133.65 124.83 134.19 125.14 134.83C125.78 137.12 126.4 139.3 127.07 141.47C127.24 142.01 127.59 142.49 127.9 143.09C130.73 145.91 128.06 148 127.05 150.22C126.65 151.11 125.78 151.81 125.07 152.54C124.89 152.72 124.47 152.64 124.2 152.76C123.81 152.94 123.38 153.13 123.11 153.44C121.2 155.58 119.18 155.5 117.19 153.33C116.74 152.84 115.78 152.45 115.14 152.55C112.21 153 110.18 151.47 110.44 148.45C110.6 146.5 110.05 144.89 109.26 143.13C108.84 141.84 108.42 140.67 108 139.49C107.88 139.53 107.76 139.57 107.64 139.6C108.06 141.03 108.47 142.46 108.91 144.01C109.03 144.62 109.07 145.14 109.24 145.6C109.77 147.05 109.54 148.17 107.87 148.77C107.37 148.87 106.97 148.96 106.44 149.03C105.37 149.19 104.43 149.36 103.35 149.54C97.6999 150.3 92.1898 151.06 86.5298 151.8C84.8498 151.8 83.3199 151.81 81.6399 151.8C76.8999 151.56 72.3698 150.92 67.9498 149.58C67.4398 149.43 66.8798 149.46 66.2298 149.37C65.6398 149.24 65.1698 149.15 64.6998 148.96C63.8498 147.84 64.1098 146.73 64.4498 145.6C64.6798 144.84 64.7898 144.05 65.0598 143.21C65.2998 142.26 65.4498 141.38 65.6698 140.45C65.7698 140.21 65.7999 140.03 65.8299 139.84C65.7699 139.83 65.7098 139.83 65.6498 139.82C65.6398 140.05 65.6199 140.28 65.5299 140.58C65.2099 141.54 64.9799 142.43 64.7199 143.42C64.2499 144.89 63.6999 146.23 63.4099 147.63C63.1499 148.87 63.1898 150.18 63.0098 151.51C62.1698 152.91 61.0099 153.65 59.5199 153.22C58.3099 152.87 57.7399 153.36 56.9099 154.11C56.0799 154.87 54.6098 155.89 53.8598 155.61C51.7399 154.82 49.6799 153.62 47.9099 152.19C46.8399 151.32 46.3099 149.75 45.6199 148.44C44.6899 146.69 45.0398 145.55 47.0598 143.44C47.7898 140.78 48.4698 138.23 49.0998 135.67C49.2198 135.19 49.1698 134.66 49.1998 134.16C49.2798 134.01 49.3698 133.86 49.4498 133.61C51.4598 132.08 51.6399 129.63 52.6199 127.64C53.6999 125.42 54.5299 123.07 55.3499 120.74C55.5199 120.27 55.3599 119.48 55.0499 119.07C52.3699 115.47 52.6098 116.75 55.1198 113.37C56.2698 111.83 57.5598 110.4 58.9198 108.79C61.5198 106.09 63.9298 103.48 66.4498 100.97C68.5698 98.85 71.0898 97.35 74.0598 96.69C74.9898 96.48 75.9299 96.33 76.8199 96.17C77.1499 94.72 76.6199 94.32 75.2499 94.06C71.0699 93.26 66.9299 92.22 62.7799 91.24C61.5598 90.95 60.3799 90.52 59.0799 90.11C57.2599 89.24 55.5399 88.41 53.8299 87.56C48.8399 85.11 44.3298 81.98 40.2798 78.17C38.6498 75.91 36.8098 73.77 35.4498 71.36C33.6098 68.1 32.7198 64.56 34.1698 61.1C31.8498 59.75 29.4499 58.71 27.4699 57.14C21.4399 52.34 19.9098 41.66 25.3098 35.78C27.3298 33.58 29.8298 32.61 32.9898 32.63C33.1398 30.91 33.2899 29.26 33.4299 27.61C33.5699 26.04 33.6099 24.45 33.8999 22.91C33.9999 22.36 34.6999 21.93 35.3299 21.49C35.7799 22.18 36.2398 22.83 36.2398 23.47C36.2498 25.54 36.0899 27.61 35.9299 29.78C34.2799 36.94 34.9599 43.89 36.8299 50.86C36.9099 51.09 36.9699 51.23 37.0399 51.5C37.1999 52.14 37.3599 52.66 37.4999 53.31C38.1899 56.23 37.6698 58.92 36.6398 61.5C35.6598 63.94 35.8998 66.29 36.8198 68.63C37.9698 71.55 39.7499 74.07 42.1098 76.3C42.8398 77.01 43.5199 77.62 44.2299 78.33C47.9399 81.63 52.0799 84.08 56.4699 86.14C65.8499 90.55 75.7998 92.31 86.0798 92.4C96.0798 92.48 105.87 91.32 115.12 87.16C115.68 86.94 116.5 87.32 117.2 87.41ZM105.3 130.9C105.26 130.82 105.22 130.74 105.18 130.66C105.22 130.8 105.25 130.94 105.3 131.26C105.33 131.42 105.36 131.58 105.39 131.74C105.45 131.72 105.52 131.7 105.58 131.68C105.49 131.46 105.4 131.25 105.3 130.9ZM66.3599 138.29C66.3699 138.13 66.3799 137.97 66.3899 137.81C66.3499 137.81 66.3099 137.81 66.2699 137.81C66.2499 138 66.2398 138.2 66.0898 138.5C66.0498 138.67 66.0099 138.83 65.9599 139C66.0199 139.01 66.0898 139.02 66.1498 139.04C66.1698 138.81 66.1899 138.6 66.3599 138.29ZM28.9399 43.15C30.1499 42.86 31.3598 42.57 32.7098 42.24C32.6298 41.51 32.5499 40.78 32.5199 39.76C32.5299 38.23 32.5499 36.7 32.5899 35.03C32.5399 34.92 32.4499 34.89 32.0899 34.89C29.6299 34.98 27.6899 36.09 26.3299 38.09C23.6699 42 23.7099 46.16 25.3699 50.65C27.2299 54.87 30.4799 57.37 34.9799 58.52C36.0899 54.79 34.5399 51.67 33.5799 48.45C33.0899 49.69 33.0498 50.89 33.7798 52.03C34.2298 52.73 34.5698 53.57 33.6298 53.93C33.2398 54.08 32.2499 53.46 31.9699 52.94C30.6599 50.55 30.7998 48.19 32.4498 45.96C32.6698 45.66 32.8299 45.32 33.2499 44.6C32.0299 44.76 31.1999 44.81 30.3999 44.98C28.7599 45.34 28.2699 44.84 28.6899 43.18C28.6999 43.17 28.6999 43.18 28.9399 43.15ZM115.27 123.33C115.27 123.33 115.26 123.32 115.05 123.38C111.96 125.5 108.45 126.39 104.76 126.79C107.36 133.18 109.91 139.43 112.42 145.7C112.61 146.18 112.62 146.81 112.49 147.32C112.2 148.47 112.05 149.7 113.11 150.36C113.67 150.71 114.69 150.34 115.5 150.3C116.08 150.27 116.71 150.47 117.28 150.77C117.73 151 118.25 151.27 118.5 151.66C119.02 152.48 119.55 153.28 120.64 152.95C121.69 152.63 121.86 151.7 121.75 150.71C121.73 150.52 121.75 150.32 121.75 150.09C124.24 151.31 125.03 151.06 125.14 148.86C124.9 148.36 124.65 147.85 124.36 147.25C125.57 147.63 126.74 147.67 127.09 146.36C127.47 144.96 126.32 144.32 125.56 143.94C125.06 141.69 124.92 139.55 124.12 137.69C122.02 132.76 119.65 127.95 117.32 122.85C117.21 122.59 117.1 122.33 116.91 121.89C116.3 122.44 115.79 122.89 115.27 123.33ZM79.3098 96.81C79.2198 98.14 79.0098 99.39 79.9498 100.65C81.6598 102.94 83.1398 105.41 84.9798 108.19C87.5598 105.57 89.8198 103.2 92.1698 100.91C94.1098 99.02 93.5398 96.92 93.0098 94.69C92.3598 94.72 91.8098 94.75 91.0598 94.73C90.9298 94.75 90.7899 94.78 90.4099 94.77C89.9899 94.79 89.5598 94.81 88.8598 94.76C85.6298 94.76 82.4098 94.76 79.0398 94.76C79.1398 95.39 79.2498 95.98 79.3098 96.81ZM98.6299 98.99C96.1499 98.48 96.1698 98.49 94.7498 100.52C92.3698 103.92 89.3898 106.73 86.1398 109.27C85.0198 110.14 84.2098 110.17 83.3998 108.92C81.3098 105.69 79.1299 102.51 77.0999 99.23C76.5999 98.42 76.1298 98.15 75.2898 98.38C74.7598 98.52 74.2299 98.7 73.4899 98.88C73.1899 99.03 72.8999 99.19 72.3899 99.36C71.7599 99.68 71.0698 99.93 70.5098 100.34C64.7298 104.62 60.1798 110.09 55.7598 115.68C55.5598 115.93 55.5599 116.59 55.7499 116.84C57.8699 119.56 60.3399 121.86 63.9099 123.03C65.6699 123.45 67.4099 123.96 69.1899 124.27C70.6099 124.52 71.4699 123.25 70.8899 121.91C70.3199 120.57 69.7399 119.23 69.1599 117.64C69.0199 116.99 68.7498 116.34 68.7898 115.71C68.8198 115.16 69.2099 114.63 69.4399 114.08C69.8399 114.48 70.4099 114.81 70.5999 115.29C71.4199 117.35 72.1599 119.45 72.8599 121.55C73.0399 122.08 73.1398 122.74 72.9798 123.25C71.1098 129.41 69.1599 135.54 67.2999 141.7C66.7799 143.42 66.4499 145.21 66.0199 147.05C67.0899 147.38 67.9998 147.69 68.9198 147.94C75.3398 149.68 81.8499 150.49 88.7699 149.75C95.0999 149.29 101.31 148.17 107.36 146.71C107.44 146.45 107.48 146.4 107.47 146.36C105.68 140.12 103.9 133.88 102.09 127.65C102.02 127.42 101.69 127.07 101.5 127.09C99.9098 127.19 99.7798 126.01 99.4698 124.92C99.2398 124.1 98.9399 123.29 98.6599 122.24C97.8899 119.45 97.0898 116.66 96.3898 113.86C96.2898 113.47 96.7099 112.94 96.8799 112.48C97.3099 112.73 97.7998 112.9 98.1398 113.24C98.3598 113.46 98.3699 113.9 98.4599 114.24C99.3899 117.51 100.29 120.79 101.29 124.04C101.42 124.45 102.05 125 102.45 124.99C108.7 124.96 114.11 123.01 118.11 117.92C118.69 117.17 118.75 116.68 118.11 115.98C114.1 111.6 110.24 107.08 106.06 102.88C104.6 101.41 102.35 100.74 100.3 99.53C99.8299 99.37 99.3499 99.22 98.6299 98.99ZM55.4999 152.86C55.9099 151.1 57.8798 151.61 58.5098 150.79C59.3798 150.98 60.2499 151.43 60.5799 151.18C61.1399 150.75 61.4599 149.91 61.6599 149.18C61.7699 148.76 61.4299 148.23 61.3299 147.74C61.2699 147.42 61.1598 147.05 61.2598 146.78C62.5698 143.21 63.8898 139.64 65.2598 136.09C66.5098 132.83 67.8099 129.59 69.1299 126.23C64.6799 125.65 60.7599 124.14 57.4099 121.47C54.9499 127.13 52.4999 132.59 50.2299 138.13C49.5699 139.74 49.3598 141.56 49.1098 143.31C48.9798 144.23 49.0098 144.99 48.0698 145.61C47.5998 145.92 47.2598 147.03 47.4598 147.54C47.6398 148 48.6399 148.14 49.2999 148.38C49.4799 148.45 49.7199 148.36 49.5799 148.37C49.5799 149.4 49.2599 150.94 49.6499 151.14C50.4699 151.57 51.6499 151.3 52.4399 151.31C52.7399 151.96 52.9899 152.88 53.5499 153.53C53.7299 153.74 54.7399 153.24 55.4999 152.86ZM105.93 133.66C105.97 133.73 106.02 133.81 106.06 133.88C106.1 133.8 106.19 133.71 106.17 133.65C106.15 133.59 106.03 133.57 105.93 133.66ZM104.46 128.98C104.51 128.96 104.56 128.95 104.61 128.93C104.56 128.91 104.51 128.89 104.46 128.98ZM104 127.15C103.96 127.1 103.93 127.05 103.89 127.01C103.9 127.07 103.91 127.14 104 127.15ZM105.84 132.53C105.79 132.55 105.74 132.56 105.69 132.58C105.73 132.6 105.79 132.62 105.84 132.53ZM104.3 128.06C104.26 128.01 104.23 127.96 104.19 127.91C104.21 127.99 104.21 128.05 104.3 128.06ZM104.77 129.78C104.81 129.83 104.84 129.88 104.88 129.93C104.87 129.86 104.86 129.79 104.77 129.78Z" fill="#0B0F0D"/>
<path d="M92.07 -31.22C93.77 -29.48 95.52 -27.78 97.14 -25.97C97.76 -25.27 98.28 -25.38 98.99 -25.59C103.93 -27.03 108.88 -27.32 113.8 -25.51C120.14 -23.18 124.11 -18.39 126.59 -12.38C127.73 -9.61 128.11 -6.53001 128.87 -3.60001C128.99 -3.15001 129.2 -2.68001 129.51 -2.35001C130.24 -1.57001 131.05 -0.880006 131.92 -0.100006C132.01 -0.0500061 132.02 -0.0600098 132.04 -0.0100098C132.06 0.0399902 132.16 0.0799927 132.19 0.179993C133.05 1.19999 133.87 2.14 134.71 3.06C135.42 3.84 135.51 4.62999 134.69 5.45999C133.99 5.16999 133.29 4.97999 132.84 4.53999C131.46 3.17999 130.18 1.71999 128.68 0.109985C127.4 6.39999 124.2 11.02 119.38 14.42C116.57 16.39 113.44 17.89 110.33 19.61C108.78 20.15 107.34 20.68 105.78 21.21C101.94 21.93 98.24 22.92 94.48 23.31C84.01 24.41 73.81 23.2 64.2 18.68C61.42 17.37 58.85 15.62 56.18 14.08C56.17 14.09 56.2 14.09 56.17 14.02C56.05 13.9 55.95 13.86 55.82 13.72C51.66 10.1 48 6.22999 46.11 0.709991C45.58 1.37999 45.2 1.82999 44.85 2.29999C41.39 6.89999 38.95 12 37.47 17.55C37.21 18.53 36.84 19.27 35.65 19.13C35.44 18.55 34.99 17.93 35.07 17.39C35.26 16.16 35.71 14.96 36.16 13.57C36.53 12.63 36.74 11.84 37.09 11.12C38.22 8.75 39.4 6.40999 40.65 4.00999C42.09 2.12999 43.46 0.309991 44.78 -1.54001C45.04 -1.90001 45.26 -2.44001 45.19 -2.85001C44.35 -7.91001 44.53 -12.93 45.77 -17.97C45.88 -18.12 45.89 -18.22 45.92 -18.39C46 -18.57 46.01 -18.7 46.07 -18.92C48.48 -25.94 52.92 -31.08 59.49 -34.24C64.19 -36.5 69.2 -37.72 74.58 -37.76C76.42 -37.49 78.12 -37.24 79.83 -37.05C80.38 -36.99 80.95 -37.1 81.52 -37.14C81.52 -37.14 81.64 -37.14 81.74 -37.03C82.06 -36.71 82.25 -36.4 82.51 -36.32C86.05 -35.29 89.11 -33.36 92.07 -31.22ZM117.51 -21.29C117.51 -21.29 117.53 -21.29 117.46 -21.43C117.38 -21.49 117.29 -21.54 117.09 -21.77C114.63 -23.18 112.11 -24.44 108.91 -24.56C107.31 -24.57 105.72 -24.58 103.87 -24.63C102.91 -24.4 101.95 -24.18 100.76 -23.96C100.03 -23.78 99.31 -23.6 98.35 -23.41C97.81 -23.3 97.26 -23.19 96.6 -23.24C95.54 -24.59 94.6 -26.06 93.4 -27.27C85.17 -35.53 75.4 -37.64 64.38 -34.17C58.86 -32.43 54.03 -29.5 50.91 -24.49C45.41 -15.65 45.3 -6.37001 49.18 3.31999C50.02 4.30999 50.87 5.28999 51.77 6.48999C53.1 9.05999 55.2 10.86 57.65 12.47C57.72 12.46 57.8 12.45 57.87 12.44C57.81 12.38 57.74 12.33 57.65 12.05C57.22 11.13 56.76 10.23 56.36 9.29999C53.35 2.27999 53.33 -4.55001 57.49 -11.2C60.8 -16.5 66.4 -18.21 71.47 -15.21C74.19 -13.61 75.95 -11.15 76.87 -7.87001C76.92 -6.62001 76.97 -5.36 76.88 -3.94C76.79 -3.77 76.74 -3.53001 76.59 -3.43001C76.11 -3.10001 75.6 -2.82 75.11 -2.52C74.99 -3.07 74.82 -3.62001 74.78 -4.17001C74.76 -4.50001 75 -4.84 75.04 -5.19C75.45 -8.47 73.14 -12.27 69.77 -13.9C66.71 -15.38 63.33 -14.77 60.86 -12.17C57.83 -8.98001 56.3 -5.09001 56.18 -0.730011C56.05 3.92999 57.63 8.14999 60.01 12.08C60.79 13.38 61.48 15 62.66 15.73C66.08 17.82 69.83 19.29 74 20.1C75.17 20.35 76.34 20.59 77.75 20.9C84.52 22.1 91.31 22.16 98.06 20.95C100.82 20.46 103.49 19.46 106.45 18.72C107.4 18.44 108.35 18.17 109.52 17.82C112.1 16.45 114.84 15.28 117.23 13.63C119.18 12.28 120.73 10.34 122.65 8.59999C123.58 7.16999 124.51 5.74999 125.54 4.12999C126.02 1.91999 126.8 -0.280015 126.9 -2.50002C127.14 -7.66002 125.11 -12.2 122.27 -16.38C121.48 -17.54 120.33 -18.46 119.34 -19.48C119.34 -19.48 119.36 -19.48 119.4 -19.7C118.87 -20.14 118.35 -20.58 117.82 -21.01C117.82 -21.01 117.84 -21.01 117.8 -21.17C117.7 -21.2 117.6 -21.26 117.51 -21.29Z" fill="#0A0E0C"/>
<path d="M119.46 86.69C118.75 85.67 119.02 85 119.96 84.38C124.98 81.07 128.06 76.37 129.7 70.63C131.61 63.94 133.54 57.25 135.55 50.59C136.53 47.34 137.82 44.17 138.78 40.91C141.06 33.12 141.81 25.23 139.44 17.32C138.63 14.62 137.26 12.08 136.23 9.43998C135.99 8.82998 136.11 8.06998 136.23 7.26998C137.41 6.86998 137.84 7.49999 138.28 8.25999C143.07 16.5 144.08 25.4 142.63 34.63C142.04 38.37 140.94 42.03 140.05 45.85C140.79 45.85 141.64 45.79 142.48 45.86C146.41 46.19 149.16 48.12 150.86 51.74C154.24 58.94 148.85 69.53 140.78 71.87C137.94 72.7 135.08 72.74 132.18 72.43C131.87 72.79 131.42 73.1 131.29 73.52C129.58 78.77 126.31 82.84 121.86 86C121.23 86.45 120.33 86.51 119.46 86.69ZM146.23 65.43C146.23 65.43 146.23 65.46 146.42 65.37C148.7 62.52 149.86 59.31 149.58 55.64C149.21 50.83 146.08 47.96 141.26 47.99C138.73 48.01 138.59 48.13 137.99 50.84C137.86 51.46 137.73 52.08 137.61 52.68C139.34 52.94 140.95 53.18 142.76 53.53C143.78 54.07 144.85 54.55 145.82 55.18C146.83 55.84 147.01 56.66 145.68 57.44C145.14 57.17 144.6 56.93 144.08 56.64C141.87 55.39 139.55 54.81 136.61 55.21C137.41 55.94 137.93 56.38 138.41 56.86C141.06 59.52 140.9 63.86 137.98 66.12C137.56 66.45 136.74 66.27 136.11 66.32C136.22 65.75 136.28 65.16 136.48 64.62C136.59 64.32 136.97 64.12 137.19 63.84C138.7 61.91 138.26 59.3 136.08 58.01C134.92 62.04 133.78 66.04 132.63 70.03C137.58 71.23 143.29 69.38 146.25 65.56C146.24 65.58 146.26 65.43 146.23 65.43Z" fill="#0A0F0C"/>
<path d="M88.5099 149.7C81.8599 150.5 75.3499 149.68 68.9299 147.95C68.0099 147.7 67.0999 147.39 66.0299 147.06C66.4699 145.22 66.7899 143.43 67.3099 141.71C69.1799 135.55 71.1299 129.42 72.9899 123.26C73.1399 122.75 73.0399 122.09 72.8699 121.56C72.1699 119.45 71.4299 117.36 70.6099 115.3C70.4199 114.82 69.8399 114.49 69.4499 114.09C69.2199 114.63 68.8399 115.16 68.7999 115.72C68.7599 116.35 69.0299 117.01 69.0499 117.79C67.2099 119.58 65.4899 121.23 63.7699 122.89C60.3499 121.88 57.8799 119.58 55.7599 116.86C55.5699 116.61 55.5699 115.94 55.7699 115.7C60.1899 110.11 64.7299 104.63 70.5199 100.36C71.0799 99.94 71.7699 99.7 72.5099 99.48C73.5299 101.1 74.3699 102.66 75.3699 104.11C77.1799 106.72 79.0899 109.27 80.9299 111.95C80.0399 114.03 80.1299 114.32 82.2099 116.52C82.0499 121.63 81.8599 126.61 81.8299 131.59C81.8099 135.77 81.2799 134.95 85.7399 135.15C87.1399 135.21 87.3699 134.6 87.3799 133.34C87.3999 127.19 87.5199 121.05 87.6499 114.9C87.6599 114.35 87.8699 113.67 88.2499 113.29C90.8599 110.66 93.6499 108.2 96.1699 105.48C97.7999 103.72 99.0699 101.64 100.51 99.7C102.4 100.74 104.65 101.42 106.11 102.88C110.3 107.08 114.15 111.61 118.16 115.98C118.8 116.68 118.74 117.17 118.16 117.92C114.16 123.01 108.76 124.96 102.5 124.99C102.1 124.99 101.47 124.45 101.34 124.04C100.34 120.79 99.4399 117.51 98.5099 114.24C98.4099 113.9 98.4099 113.46 98.1899 113.24C97.8499 112.91 97.3499 112.73 96.9299 112.48C96.7499 112.94 96.3399 113.46 96.4399 113.86C97.1399 116.67 97.9399 119.45 98.6099 122.44C98.0399 126.89 97.6499 131.15 97.0799 135.39C96.5199 139.52 95.0699 143.33 92.2099 146.45C91.0699 147.64 89.7299 148.62 88.5099 149.7Z" fill="#F1E8DC"/>
<path d="M55.4399 152.96C54.7399 153.24 53.7399 153.74 53.5499 153.53C52.9799 152.89 52.7399 151.96 52.4399 151.31C51.6399 151.3 50.4698 151.56 49.6498 151.14C49.2698 150.94 49.5799 149.4 49.5799 148.37C49.7199 148.36 49.4799 148.44 49.2999 148.38C48.6399 148.14 47.6398 147.99 47.4598 147.54C47.2598 147.03 47.5998 145.92 48.0698 145.61C49.0098 144.99 48.9898 144.23 49.1098 143.31C49.3498 141.56 49.5699 139.74 50.2299 138.13C52.4999 132.59 54.9499 127.13 57.4099 121.47C60.7699 124.15 64.6799 125.66 69.1299 126.23C67.8099 129.59 66.5098 132.83 65.2598 136.09C63.8998 139.64 62.5698 143.21 61.2598 146.78C61.1598 147.06 61.2699 147.43 61.3299 147.74C61.4299 148.23 61.7699 148.76 61.6599 149.18C61.4599 149.91 61.1399 150.75 60.5799 151.18C60.2499 151.43 59.3798 150.98 58.5098 150.79C57.8798 151.61 55.9099 151.1 55.4399 152.96Z" fill="#9CC97C"/>
<path d="M125.12 149.07C125.04 151.06 124.25 151.31 121.76 150.09C121.76 150.32 121.74 150.51 121.76 150.71C121.87 151.7 121.7 152.63 120.65 152.95C119.56 153.28 119.04 152.48 118.51 151.66C118.25 151.26 117.73 151 117.29 150.77C116.71 150.47 116.08 150.27 115.51 150.3C114.7 150.34 113.68 150.71 113.12 150.36C112.06 149.7 112.21 148.47 112.5 147.32C112.63 146.81 112.62 146.18 112.43 145.7C109.92 139.43 107.37 133.19 104.77 126.79C108.46 126.39 111.97 125.5 115.18 123.47C114.51 124.5 113.71 125.44 112.9 126.39C114.1 126 115.37 125.6 116.83 125.13C116.76 126.87 114.36 128.44 117.01 129.67C117.19 129.36 117.37 129.06 117.54 128.77C117.71 128.8 117.88 128.84 118.04 128.87C117.98 129.82 118.07 130.82 117.81 131.72C117.49 132.84 117.37 133.74 118.37 134.59C118.8 134.96 119.36 135.71 119.24 136.09C118.83 137.38 119.75 138 120.23 138.9C120.78 139.94 121.09 141.11 121.48 142.24C121.99 143.72 121.15 145.44 122.34 146.84C122.59 147.14 122.38 147.82 122.4 148.33C122.42 148.81 122.48 149.29 122.54 150.07C123.56 149.67 124.34 149.37 125.12 149.07Z" fill="#9BC97B"/>
<path d="M88.6396 149.72C89.7296 148.61 91.0697 147.63 92.1597 146.44C95.0197 143.32 96.4696 139.51 97.0296 135.38C97.5996 131.14 97.9897 126.88 98.5697 122.55C98.9397 123.29 99.2397 124.09 99.4697 124.91C99.7697 125.99 99.8996 127.18 101.5 127.08C101.69 127.07 102.02 127.41 102.09 127.64C103.9 133.87 105.69 140.11 107.47 146.35C107.48 146.39 107.44 146.44 107.36 146.7C101.32 148.17 95.1096 149.29 88.6396 149.72Z" fill="#E5D4BE"/>
<path d="M73.6997 98.87C74.2297 98.71 74.7597 98.53 75.2897 98.39C76.1297 98.16 76.5997 98.44 77.0997 99.24C79.1297 102.51 81.2997 105.69 83.3997 108.93C84.1997 110.17 85.0197 110.15 86.1397 109.28C89.3897 106.73 92.3697 103.93 94.7497 100.53C96.1697 98.5 96.1597 98.49 98.7697 99.15C98.6397 99.83 98.4897 100.46 98.0997 100.87C94.6397 104.57 91.2197 108.3 87.5997 111.85C86.5297 112.89 86.1097 113.9 86.1097 115.26C86.0797 120.75 86.0397 126.23 86.0097 131.72C85.9997 133.98 85.6897 134.2 83.1297 133.45C83.3197 127.75 83.5197 121.98 83.8197 116.18C85.1897 115.56 85.9597 114.6 85.7097 113.16C85.4597 111.72 84.3297 111.18 83.0097 110.98C82.6197 110.92 82.2197 110.9 81.7997 110.76C79.0797 106.71 76.3897 102.79 73.6997 98.87Z" fill="#E8E2DA"/>
<path d="M89.1299 94.83C89.5499 94.81 89.9799 94.79 90.5699 94.85C90.9099 94.88 91.0799 94.83 91.2499 94.79C91.7999 94.76 92.3499 94.73 92.9999 94.7C93.5299 96.93 94.0999 99.03 92.1599 100.92C89.8099 103.2 87.5499 105.57 84.9699 108.2C83.1399 105.42 81.6499 102.95 79.9399 100.66C78.9999 99.4 79.2099 98.15 79.4399 96.71C81.6899 96.42 83.8199 96.33 85.9199 96.01C87.0299 95.83 88.0599 95.23 89.1299 94.83Z" fill="#9CC97C"/>
<path d="M125.13 148.97C124.34 149.38 123.55 149.67 122.54 150.06C122.47 149.28 122.42 148.8 122.4 148.32C122.38 147.81 122.59 147.13 122.34 146.83C121.15 145.43 121.99 143.71 121.48 142.23C121.09 141.1 120.78 139.93 120.23 138.89C119.75 137.99 118.83 137.37 119.24 136.08C119.36 135.7 118.8 134.95 118.37 134.58C117.37 133.73 117.49 132.83 117.81 131.71C118.07 130.81 117.98 129.81 118.04 128.86C117.87 128.83 117.7 128.79 117.54 128.76C117.37 129.06 117.19 129.35 117.01 129.66C114.36 128.44 116.76 126.86 116.83 125.12C115.37 125.59 114.1 126 112.9 126.38C113.71 125.43 114.51 124.49 115.28 123.44C115.25 123.33 115.27 123.34 115.41 123.37C116.16 123.3 116.78 123.19 117.39 123.09C119.66 127.95 122.03 132.76 124.13 137.69C124.92 139.55 125.07 141.69 125.57 143.94C126.33 144.32 127.47 144.96 127.1 146.36C126.75 147.67 125.58 147.63 124.37 147.25C124.65 147.85 124.9 148.35 125.13 148.97Z" fill="#95C674"/>
<path d="M83.71 116.18C83.51 121.95 83.32 127.73 83.12 133.42C85.68 134.18 85.99 133.95 86 131.69C86.03 126.2 86.07 120.72 86.1 115.23C86.11 113.87 86.53 112.86 87.59 111.82C91.2 108.28 94.63 104.54 98.09 100.84C98.48 100.43 98.63 99.8 98.88 99.16C99.35 99.21 99.83 99.36 100.39 99.6C99.04 101.62 97.76 103.71 96.13 105.46C93.61 108.17 90.83 110.64 88.21 113.27C87.84 113.64 87.63 114.33 87.61 114.88C87.48 121.03 87.37 127.17 87.34 133.32C87.33 134.58 87.11 135.2 85.7 135.13C81.24 134.93 81.77 135.74 81.79 131.57C81.82 126.59 82.01 121.62 82.27 116.51C82.86 116.31 83.29 116.25 83.71 116.18Z" fill="#7696B2"/>
<path d="M63.8398 122.96C65.4898 121.23 67.2099 119.57 69.0499 117.91C69.7499 119.24 70.3298 120.58 70.8998 121.92C71.4698 123.26 70.6098 124.53 69.1998 124.28C67.4098 123.97 65.6698 123.46 63.8398 122.96Z" fill="#E5D4BE"/>
<path d="M73.5898 98.87C76.3898 102.78 79.0798 106.71 81.7598 110.82C81.4798 111.28 81.2098 111.55 80.9398 111.82C79.0698 109.25 77.1599 106.7 75.3499 104.09C74.3399 102.64 73.4998 101.07 72.5898 99.45C72.8898 99.19 73.1898 99.04 73.5898 98.87Z" fill="#7696B2"/>
<path d="M88.9898 94.8C88.0598 95.23 87.0298 95.83 85.9198 96C83.8298 96.32 81.6898 96.41 79.4598 96.58C79.2398 95.98 79.1398 95.4 79.0298 94.78C82.3998 94.77 85.6198 94.77 88.9898 94.8Z" fill="#89C060"/>
<path d="M117.36 122.96C116.78 123.18 116.17 123.29 115.42 123.36C115.79 122.88 116.3 122.43 116.92 121.88C117.1 122.32 117.21 122.58 117.36 122.96Z" fill="#9BC97B"/>
<path d="M91.1497 94.76C91.0797 94.83 90.9097 94.87 90.6997 94.86C90.7897 94.78 90.9197 94.76 91.1497 94.76Z" fill="#89C060"/>
<path d="M49.14 3.10998C45.31 -6.38002 45.42 -15.66 50.92 -24.5C54.04 -29.51 58.86 -32.45 64.39 -34.18C75.41 -37.65 85.17 -35.54 93.41 -27.28C94.61 -26.07 95.5499 -24.6 96.6699 -23.06C97.4599 -21.31 98.2499 -19.78 98.8999 -18.2C101.11 -12.86 101.98 -7.39002 99.96 -1.79002C98.14 3.25998 95.11 7.44999 91 10.95C86.33 14.93 81.15 17.82 75.19 19.31C74.72 19.43 74.3 19.72 73.86 19.93C69.85 19.29 66.1 17.82 62.68 15.73C61.49 15 60.81 13.37 60.03 12.08C57.65 8.14998 56.0699 3.92998 56.1999 -0.730019C56.3199 -5.09002 57.85 -8.98002 60.88 -12.17C63.35 -14.78 66.7299 -15.38 69.7899 -13.9C73.1699 -12.27 75.4699 -8.47001 75.0599 -5.19001C75.0199 -4.84001 74.78 -4.50002 74.8 -4.17002C74.84 -3.61002 75.01 -3.07001 75.13 -2.52001C75.63 -2.82001 76.14 -3.10002 76.61 -3.43002C76.75 -3.53002 76.7999 -3.77002 77.0599 -4.06002C80.9099 -8.38002 79.71 -15.17 75.41 -18.53C68.01 -24.33 58.84 -21.45 54.0599 -14.54C50.7399 -9.74002 49.27 -4.30002 49.41 1.54998C49.41 2.05998 49.23 2.58998 49.14 3.10998Z" fill="#6A9558"/>
<path d="M98.5799 -23.42C99.3099 -23.6 100.03 -23.78 100.9 -23.86C101.25 -23.63 101.45 -23.47 101.67 -23.38C105.47 -21.91 108.59 -19.47 110.88 -16.16C114.46 -11 114.55 -5.08999 113.69 0.800011C112.9 6.21001 110.93 11.26 107.83 15.83C107.21 16.74 106.74 17.74 106.2 18.7C103.49 19.47 100.82 20.47 98.0499 20.96C91.2999 22.17 84.5099 22.12 77.6899 20.79C81.6299 19.33 85.3699 17.53 88.8299 15.08C94.4899 11.07 99.0499 6.18001 101.51 -0.389992C103.25 -5.01999 103.43 -9.81998 102.03 -14.55C101.14 -17.59 99.7499 -20.47 98.5799 -23.42Z" fill="#6A9558"/>
<path d="M104.13 -24.6C105.73 -24.59 107.32 -24.58 109.09 -24.45C109.79 -24.02 110.31 -23.71 110.83 -23.4C114.33 -21.3 117.59 -18.95 119.88 -15.46C123.04 -10.65 124.29 -5.39998 123.64 0.290024C123.32 3.09002 122.85 5.88003 122.45 8.67003C120.73 10.35 119.18 12.29 117.23 13.64C114.84 15.3 112.11 16.46 109.35 17.79C109.35 17.29 109.45 16.78 109.71 16.37C114.6 8.78003 116.83 0.560025 115.7 -8.48997C115.18 -12.69 113.77 -16.5 110.64 -19.42C108.61 -21.3 106.31 -22.88 104.13 -24.6Z" fill="#6A9458"/>
<path d="M57.6296 12.34C55.2096 10.86 53.1096 9.06001 51.7996 6.25001C51.7296 3.05001 51.2596 0.0400183 51.6496 -2.86998C52.3796 -8.40998 54.3696 -13.51 59.0796 -17C64.3696 -20.92 70.7596 -20.5 75.0396 -16.27C77.4696 -13.86 78.1496 -10.43 76.8896 -8.11998C75.9796 -11.16 74.2097 -13.61 71.4897 -15.22C66.4197 -18.21 60.8196 -16.5 57.5096 -11.21C53.3496 -4.55998 53.3696 2.27002 56.3796 9.29002C56.7796 10.22 57.2396 11.13 57.6696 12.17C57.6596 12.31 57.6296 12.34 57.6296 12.34Z" fill="#698F58"/>
<path d="M98.4697 -23.42C99.7597 -20.47 101.15 -17.59 102.05 -14.56C103.45 -9.83999 103.27 -5.02999 101.53 -0.399986C99.0697 6.17001 94.5097 11.06 88.8497 15.07C85.3897 17.52 81.6497 19.33 77.5797 20.75C76.3497 20.59 75.1797 20.35 73.9297 20.02C74.2997 19.72 74.7197 19.43 75.1797 19.31C81.1397 17.82 86.3197 14.93 90.9897 10.95C95.0997 7.45002 98.1297 3.26001 99.9497 -1.78999C101.97 -7.38999 101.1 -12.86 98.8897 -18.2C98.2397 -19.78 97.4497 -21.31 96.7197 -22.98C97.2597 -23.19 97.8097 -23.3 98.4697 -23.42Z" fill="#405D35"/>
<path d="M76.8799 -7.99001C78.1399 -10.42 77.4499 -13.85 75.0199 -16.26C70.7499 -20.5 64.3499 -20.91 59.0599 -16.99C54.3499 -13.5 52.3699 -8.39002 51.6299 -2.86002C51.2499 0.0399804 51.7099 3.05999 51.7499 6.14999C50.8599 5.28999 50.0199 4.30998 49.1499 3.21998C49.2199 2.58998 49.3999 2.05999 49.3899 1.53999C49.2499 -4.32001 50.7199 -9.75001 54.0399 -14.55C58.8199 -21.46 67.9799 -24.33 75.3899 -18.54C79.6899 -15.17 80.8899 -8.38001 77.1099 -4.15001C76.9799 -5.36001 76.9299 -6.61001 76.8799 -7.99001Z" fill="#36512D"/>
<path d="M104 -24.62C106.31 -22.88 108.61 -21.3 110.64 -19.42C113.77 -16.5 115.18 -12.69 115.7 -8.48999C116.83 0.56001 114.6 8.78001 109.71 16.37C109.45 16.77 109.35 17.28 109.24 17.82C108.35 18.17 107.4 18.45 106.33 18.71C106.75 17.74 107.22 16.73 107.84 15.83C110.94 11.26 112.92 6.21 113.7 0.800003C114.56 -5.09 114.47 -11 110.89 -16.16C108.59 -19.47 105.48 -21.9 101.68 -23.38C101.46 -23.47 101.26 -23.63 101.02 -23.85C101.95 -24.18 102.91 -24.41 104 -24.62Z" fill="#405D35"/>
<path d="M122.55 8.63998C122.85 5.86998 123.33 3.08998 123.65 0.279982C124.3 -5.41002 123.04 -10.66 119.89 -15.47C117.6 -18.96 114.34 -21.31 110.84 -23.41C110.32 -23.72 109.8 -24.03 109.24 -24.42C112.12 -24.45 114.64 -23.19 117.12 -21.64C117.27 -21.44 117.41 -21.37 117.55 -21.3C117.55 -21.3 117.53 -21.3 117.56 -21.23C117.68 -21.11 117.76 -21.05 117.85 -20.99C117.85 -20.99 117.83 -20.99 117.84 -20.89C118.36 -20.35 118.87 -19.91 119.38 -19.47C119.38 -19.47 119.36 -19.47 119.37 -19.36C119.44 -19.12 119.48 -18.96 119.57 -18.85C124.74 -12.91 126.43 -5.97001 125.5 1.73999C125.4 2.59999 125.46 3.47999 125.45 4.33999C124.51 5.75999 123.58 7.18998 122.55 8.63998Z" fill="#36512D"/>
<path d="M125.49 4.24001C125.45 3.47001 125.38 2.59001 125.48 1.73001C126.42 -5.97999 124.72 -12.91 119.55 -18.86C119.46 -18.97 119.42 -19.13 119.35 -19.37C120.33 -18.45 121.48 -17.53 122.27 -16.37C125.12 -12.2 127.14 -7.64999 126.9 -2.48999C126.81 -0.25999 126.02 1.94001 125.49 4.24001Z" fill="#648059"/>
<path d="M56.1798 14.01C56.0598 14.02 55.9098 13.96 55.8198 13.85C55.9598 13.85 56.0498 13.89 56.1798 14.01Z" fill="#9ECA7B"/>
<path d="M57.6797 12.29C57.7597 12.33 57.8197 12.39 57.8897 12.44C57.8197 12.45 57.7397 12.46 57.6497 12.4C57.6297 12.34 57.6597 12.31 57.6797 12.29Z" fill="#698F58"/>
<path d="M57.0499 19.68C57.1899 19.67 57.3399 19.67 57.6099 19.72C57.7399 19.79 57.8499 19.82 57.8499 19.82L57.9499 19.75C58.2999 19.77 58.6499 19.8 59.1799 19.96C59.8599 20.13 60.3599 20.16 60.8599 20.19C61.4899 20.43 62.1099 20.67 62.8499 21.08C63.0899 21.3 63.2199 21.35 63.3399 21.4C64.0699 21.95 64.7999 22.51 65.5699 23.26C65.7299 23.59 65.8499 23.72 65.9699 23.86C65.9699 23.86 65.9299 23.87 65.9499 23.93C66.0399 24.06 66.1199 24.13 66.1899 24.2C66.3299 24.57 66.4699 24.95 66.5699 25.56C66.4399 26.51 66.3499 27.22 66.2599 27.93C66.2599 27.93 66.2499 27.9 66.1799 27.93C66.0699 28.07 66.0299 28.17 65.9899 28.28C65.9899 28.28 65.9799 28.23 65.9099 28.25C65.7599 28.42 65.6799 28.57 65.5999 28.72C65.5999 28.72 65.5599 28.81 65.4099 28.83C65.1699 28.95 65.0699 29.04 64.9799 29.13C64.7899 29.23 64.5899 29.34 64.1699 29.42C62.7699 29.46 61.5999 29.53 60.4399 29.59C59.9999 29.54 59.5499 29.48 58.8899 29.38C57.8899 29.12 57.0999 28.92 56.1099 28.66C56.3699 29.7 56.5399 30.43 56.7799 31.24C56.9699 31.38 57.0999 31.44 57.3299 31.47C57.8199 31.74 58.2199 32.03 58.6499 32.42C58.8499 32.6 59.0299 32.68 59.2999 32.8C59.8399 33.31 60.2999 33.78 60.7499 34.34C60.9299 34.59 61.1099 34.74 61.3599 34.94C61.5099 35.2 61.5899 35.41 61.6999 35.72C61.8499 35.91 61.9699 35.99 62.1699 36.13C62.5799 36.91 62.9199 37.62 63.2299 38.45C63.3999 38.76 63.5799 38.96 63.8299 39.25C64.4799 41.92 65.0699 44.51 65.6599 47.09C65.6499 48.02 65.6499 48.95 65.6199 50.14C65.5899 50.82 65.5899 51.24 65.5799 51.66C65.4299 52.23 65.2199 52.8 65.1499 53.38C64.8899 55.49 63.8899 57.31 62.8299 59.3C61.0899 61.64 59.2399 63.56 56.4399 64.21C53.4499 64.77 50.5699 64.54 47.7799 62.93C45.2099 61.21 43.4099 58.95 41.9199 56.16C41.5299 55.29 41.2299 54.6 40.9299 53.91C40.9299 53.91 40.9899 53.89 40.9899 53.75C40.8599 53.45 40.7199 53.29 40.5899 53.13C40.5899 53.13 40.5899 53.01 40.6199 52.82C39.5699 47.77 38.9499 42.9 40.6399 37.96C41.0099 37.13 41.3099 36.36 41.6899 35.54C43.0799 34.16 44.3699 32.82 45.7499 31.46C45.9099 31.36 45.9899 31.27 46.1099 31.16C46.1499 31.14 46.2299 31.16 46.3299 31.14C46.4999 31.02 46.5799 30.92 46.7199 30.76C46.9999 30.65 47.2299 30.6 47.5399 30.54C47.7199 30.45 47.8099 30.37 47.9999 30.26C48.3799 30.22 48.6599 30.22 49.0899 30.24C49.9099 30.09 50.5799 29.92 51.3699 29.73C51.9199 29.39 52.3699 29.08 52.9099 28.71C54.1199 27.66 53.0699 27.73 52.3599 27.56C51.6399 27.3 51.0399 27.06 50.3299 26.76C49.7699 26.55 49.3099 26.39 48.8299 26.16C48.6199 26.05 48.4199 26.02 48.1099 26C47.4699 25.76 46.9399 25.53 46.3899 25.19C45.9699 24.89 45.5699 24.69 45.1699 24.49C45.1699 24.49 45.1699 24.49 45.1599 24.39C44.9699 24.15 44.7899 24.01 44.5199 23.85C44.3899 23.83 44.3299 23.81 44.2799 23.8C44.2999 23.67 44.3099 23.53 44.3999 23.25C44.3099 22.95 44.1599 22.8 43.9999 22.65C43.9899 22.59 43.9799 22.54 44.0699 22.32C44.1899 21.87 44.1999 21.59 44.2099 21.3C44.2099 21.3 44.1699 21.21 44.2899 21.12C44.5299 20.73 44.6699 20.42 44.7999 20.12C44.7999 20.12 44.8099 20.16 44.8799 20.14C44.9999 20.02 45.0599 19.92 45.1099 19.82C45.1099 19.82 45.1599 19.85 45.2399 19.86C45.4799 19.75 45.6399 19.64 45.7999 19.52C45.7999 19.52 45.8699 19.5 46.0199 19.54C46.6499 19.47 47.1199 19.36 47.5999 19.26C48.2299 19.19 48.8699 19.13 49.6199 19.03C50.3799 19.1 51.0099 19.2 51.8499 19.4C52.7999 19.47 53.5499 19.43 54.2999 19.4C54.7499 19.42 55.2099 19.44 55.8099 19.6C56.3199 19.73 56.6799 19.71 57.0499 19.68ZM54.0699 26.6C54.9499 26.81 55.8299 27.04 56.7199 27.23C58.9799 27.71 61.1999 28.59 63.5799 27.88C65.3999 27.34 65.9799 25.47 64.6899 24.08C64.0799 23.42 63.2799 22.94 62.5299 22.16C62.2899 22.04 62.0499 21.93 61.5599 21.81C60.0999 21.62 58.6499 21.32 57.1799 21.26C53.8399 21.12 50.4999 21.03 47.1599 21.07C46.5899 21.08 46.0399 21.84 45.4799 22.26C45.9899 22.81 46.3899 23.59 47.0199 23.86C49.0999 24.78 51.2699 25.51 53.4999 26.48C53.5999 26.52 53.7099 26.56 54.0699 26.6ZM48.9399 61.23C53.9799 63.85 58.9899 62.33 61.5899 57.31C62.2199 56.1 62.6699 54.79 63.0499 53.47C65.0099 46.6 62.3899 38.79 56.9499 35.15C52.5699 32.22 47.3299 33.28 44.4199 37.68C42.9199 39.95 42.1499 42.48 42.0399 45.15C41.7699 51.5 43.2299 57.17 48.9399 61.23Z" fill="#0C0D0C"/>
<path d="M47.46 19.26C47.11 19.39 46.63 19.49 46.02 19.59C46.37 19.47 46.85 19.36 47.46 19.26Z" fill="#10100C"/>
<path d="M44.6901 20.18C44.6501 20.44 44.5201 20.74 44.3101 21.1C44.3401 20.84 44.4701 20.53 44.6901 20.18Z" fill="#10100C"/>
<path d="M44.14 21.4C44.19 21.6 44.17 21.89 44.09 22.26C44.02 22.34 43.99 22.2 43.96 22.13C43.98 21.87 44.03 21.68 44.14 21.4Z" fill="#10100C"/>
<path d="M45.6799 19.54C45.6199 19.66 45.4599 19.77 45.1899 19.87C45.2499 19.75 45.4199 19.64 45.6799 19.54Z" fill="#10100C"/>
<path d="M45.0101 19.86C45.0401 19.94 44.9901 20.04 44.8401 20.16C44.8101 20.07 44.8701 19.97 45.0101 19.86Z" fill="#10100C"/>
<path d="M109.65 38.35C110.45 37.92 110.99 36.71 112.29 37.67C112.63 38.31 112.88 38.79 113.14 39.39C113.33 39.99 113.42 40.81 113.72 40.88C116.79 41.69 119.18 43.55 121.49 45.59C121.49 45.58 121.48 45.59 121.48 45.68C121.65 45.96 121.82 46.14 122.03 46.41C122.91 48.44 124.01 50.31 124.51 52.33C125.68 57.07 124.4 61.46 122.01 65.59C119.85 68.51 117.27 70.95 113.83 72.67C113.64 72.79 113.6 72.82 113.45 72.84C112.78 73.09 112.22 73.34 111.65 73.59C111.65 73.58 111.63 73.58 111.51 73.58C108.92 73.81 106.46 74.19 104 74.2C102.52 74.21 101.03 73.64 99.5499 73.32C99.5499 73.32 99.4999 73.36 99.4899 73.26C99.2899 73.11 99.1099 73.06 98.9299 73.01C98.7899 72.92 98.6599 72.84 98.3799 72.65C97.8599 72.38 97.4899 72.22 97.1099 72.05C96.9599 71.89 96.7999 71.73 96.5599 71.54C96.4699 71.52 96.4899 71.52 96.4399 71.43C96.1199 71.16 95.8399 70.99 95.5799 70.71C93.2999 68.29 91.7899 65.52 90.9599 62.28C90.9099 61.92 90.8399 61.65 90.7899 61.26C90.7399 60.23 90.6699 59.33 90.6099 58.43C91.1599 56.08 91.7099 53.72 92.3599 51.2C92.4999 50.88 92.5299 50.72 92.5699 50.56C92.5699 50.56 92.5799 50.54 92.6599 50.47C95.6799 45.07 100.11 41.69 106.09 40.58C107.7 40.26 108.95 39.89 109.65 38.35ZM121.19 52.8C120.13 51.15 119.35 49.21 117.97 47.88C111.64 41.77 101.13 42.82 95.7599 49.93C91.4399 55.65 91.7399 63.86 96.4299 68.41C101.3 73.13 108.42 73.68 114.7 69.82C120.4 66.34 123.16 59.27 121.19 52.8Z" fill="#0C0C0C"/>
<path d="M115.25 28.8C115.38 28.8 115.44 28.86 115.57 28.93C116.7 29.29 117.7 29.59 118.7 29.89C118.82 29.96 118.94 30.03 119.18 30.16C119.46 30.26 119.62 30.31 119.82 30.42C119.98 30.54 120.09 30.59 120.25 30.73C121.48 31.82 121.92 33.04 121.41 34.55C120.6 35.97 119.16 36.36 117.75 36.36C112.89 36.36 108.03 36.3 103.17 36.04C100.99 35.93 98.89 35.17 97.4 33.35C95.63 31.18 96.14 28.33 98.73 27.36C100.33 26.76 102.22 26.43 103.89 26.65C107.67 27.13 111.39 28.05 115.25 28.8ZM110.32 29.39C108.28 28.99 106.26 28.45 104.21 28.25C102.79 28.11 101.25 28.25 99.89 28.67C99.14 28.9 98.25 29.89 98.13 30.65C98.02 31.33 98.67 32.52 99.32 32.86C100.76 33.63 102.39 34.42 103.97 34.49C108.72 34.69 113.48 34.55 118.23 34.54C118.38 34.54 118.57 34.57 118.68 34.5C119.11 34.21 119.71 33.95 119.87 33.54C119.99 33.22 119.63 32.6 119.32 32.27C118.99 31.92 118.49 31.67 118.02 31.54C115.54 30.81 113.06 30.13 110.32 29.39Z" fill="#0C0E0B"/>
<path d="M80.91 111.94C81.21 111.56 81.48 111.29 81.78 110.93C82.21 110.88 82.61 110.9 83 110.96C84.32 111.16 85.45 111.7 85.7 113.14C85.95 114.58 85.18 115.54 83.81 116.16C83.28 116.25 82.86 116.32 82.33 116.38C80.11 114.31 80.02 114.02 80.91 111.94ZM82.17 112.23C81.13 113.57 81.36 114.99 82.7 115.12C83.25 115.17 84.02 114.88 84.36 114.47C84.65 114.12 84.71 113.09 84.45 112.88C83.92 112.44 83.1 112.36 82.17 112.23Z" fill="#5C7991"/>
<path d="M71.1098 68.56C70.8798 67.03 71.5598 66.04 72.7798 65.42C74.5798 64.51 76.3998 64.49 78.0598 65.72C79.1698 66.54 79.8198 67.66 79.2898 69.24C79.1698 69.35 79.0998 69.39 78.9198 69.56C78.6098 69.42 78.3298 69.22 78.2598 68.96C77.6398 66.77 75.4198 65.81 73.4598 67.02C72.7698 67.45 72.2898 68.23 71.7098 68.85C71.5198 68.78 71.3398 68.71 71.1098 68.56Z" fill="#10100C"/>
<path d="M97.1099 72.15C97.4799 72.2 97.8599 72.36 98.2899 72.62C97.9299 72.56 97.5199 72.42 97.1099 72.15Z" fill="#99B273"/>
<path d="M98.96 73.08C99.1 73.04 99.28 73.09 99.5 73.23C99.36 73.26 99.18 73.21 98.96 73.08Z" fill="#99B273"/>
<path d="M40.5996 53.26C40.7296 53.31 40.8596 53.47 40.9996 53.73C40.8696 53.68 40.7296 53.53 40.5996 53.26Z" fill="#99B273"/>
<path d="M43.9697 22.77C44.1397 22.82 44.2897 22.97 44.3997 23.17C44.2197 23.11 44.0897 22.99 43.9697 22.77Z" fill="#10100C"/>
<path d="M60.5698 29.64C61.5998 29.54 62.7698 29.47 64.0798 29.42C63.0598 29.51 61.8898 29.59 60.5698 29.64Z" fill="#10100C"/>
<path d="M66.3599 27.86C66.3699 27.21 66.4599 26.5 66.5699 25.66C66.5399 26.28 66.4899 27.04 66.3599 27.86Z" fill="#10100C"/>
<path d="M54.1597 19.38C53.5397 19.45 52.7997 19.48 51.9697 19.43C52.5997 19.35 53.3097 19.35 54.1597 19.38Z" fill="#10100C"/>
<path d="M65.6697 51.6C65.5897 51.24 65.5997 50.82 65.6397 50.28C65.6997 50.62 65.7197 51.08 65.6697 51.6Z" fill="#999F72"/>
<path d="M60.7698 20.12C60.3698 20.17 59.8598 20.13 59.2798 20.01C59.6898 19.96 60.1798 20 60.7698 20.12Z" fill="#10100C"/>
<path d="M56.9299 19.64C56.6799 19.7 56.3199 19.73 55.8999 19.67C56.1699 19.59 56.4899 19.59 56.9299 19.64Z" fill="#10100C"/>
<path d="M65.9799 23.77C65.8699 23.73 65.7499 23.59 65.6299 23.36C65.7299 23.4 65.8499 23.54 65.9799 23.77Z" fill="#10100C"/>
<path d="M65.6899 28.69C65.6899 28.57 65.7699 28.42 65.9399 28.26C65.9399 28.39 65.8599 28.52 65.6899 28.69Z" fill="#10100C"/>
<path d="M92.4698 50.58C92.5198 50.7 92.4898 50.86 92.3998 51.08C92.3598 50.96 92.3698 50.79 92.4698 50.58Z" fill="#8E5844"/>
<path d="M63.2997 21.32C63.2297 21.35 63.0997 21.3 62.9297 21.16C63.0097 21.13 63.1297 21.18 63.2997 21.32Z" fill="#10100C"/>
<path d="M66.1997 24.12C66.1297 24.13 66.0597 24.06 65.9697 23.91C66.0397 23.9 66.1197 23.97 66.1997 24.12Z" fill="#10100C"/>
<path d="M57.8899 19.72C57.9499 19.76 57.8499 19.83 57.8499 19.83C57.8499 19.83 57.7299 19.8 57.7099 19.76C57.6899 19.72 57.8299 19.68 57.8899 19.72Z" fill="#10100C"/>
<path d="M66.0798 28.24C66.0398 28.17 66.0798 28.06 66.2098 27.93C66.2498 28.01 66.1998 28.11 66.0798 28.24Z" fill="#10100C"/>
<path d="M65.09 29.12C65.08 29.04 65.18 28.95 65.37 28.84C65.38 28.91 65.28 29.01 65.09 29.12Z" fill="#10100C"/>
<path d="M48.8398 61.17C43.2298 57.17 41.7698 51.49 42.0398 45.15C42.1498 42.48 42.9198 39.95 44.4198 37.68C47.3298 33.28 52.5698 32.22 56.9498 35.15C62.3898 38.79 65.0198 46.6 63.0498 53.47C62.6798 54.78 62.2198 56.1 61.5898 57.31C58.9898 62.33 53.9698 63.85 48.8398 61.17Z" fill="#FDFDFD"/>
<path d="M62.56 22.38C63.27 22.94 64.07 23.43 64.68 24.08C65.98 25.47 65.4 27.34 63.57 27.88C61.2 28.59 58.97 27.71 56.71 27.23C55.82 27.04 54.95 26.81 53.88 26.53C53.59 26.41 53.49 26.37 53.38 26.32C51.25 25.51 49.08 24.78 47 23.86C46.37 23.58 45.97 22.81 45.46 22.26C46.02 21.85 46.58 21.08 47.14 21.07C50.48 21.03 53.82 21.12 57.16 21.26C58.62 21.32 60.08 21.62 61.71 21.9C62.12 22.12 62.34 22.25 62.56 22.38Z" fill="#625442"/>
<path d="M49.0801 30.26C49.6301 30.07 50.3101 29.89 51.1201 29.75C50.5801 29.94 49.9001 30.11 49.0801 30.26Z" fill="#10100C"/>
<path d="M46.3699 25.21C46.0099 25.11 45.6099 24.9 45.1899 24.61C45.5499 24.71 45.9499 24.91 46.3699 25.21Z" fill="#10100C"/>
<path d="M48.82 26.18C48.66 26.24 48.48 26.21 48.25 26.1C48.41 26.04 48.6 26.07 48.82 26.18Z" fill="#10100C"/>
<path d="M62.5399 22.27C62.3399 22.25 62.1199 22.12 61.8599 21.9C62.0399 21.93 62.2799 22.04 62.5399 22.27Z" fill="#10100C"/>
<path d="M63.23 38.46C63.42 38.55 63.59 38.75 63.76 39.06C63.59 38.97 63.4 38.77 63.23 38.46Z" fill="#10100C"/>
<path d="M45.1396 24.41C44.9696 24.36 44.7896 24.21 44.5996 23.97C44.7696 24.03 44.9496 24.17 45.1396 24.41Z" fill="#10100C"/>
<path d="M60.75 34.34C60.92 34.4 61.1 34.55 61.28 34.8C61.11 34.74 60.93 34.59 60.75 34.34Z" fill="#10100C"/>
<path d="M58.6499 32.41C58.7999 32.39 58.9699 32.48 59.1799 32.66C59.0299 32.67 58.8599 32.59 58.6499 32.41Z" fill="#10100C"/>
<path d="M47.54 30.56C47.54 30.49 47.63 30.42 47.81 30.33C47.81 30.4 47.72 30.47 47.54 30.56Z" fill="#10100C"/>
<path d="M46.3299 31.17C46.3199 31.1 46.3999 31.01 46.5699 30.89C46.5799 30.95 46.4999 31.05 46.3299 31.17Z" fill="#10100C"/>
<path d="M61.6997 35.72C61.7797 35.7 61.8997 35.78 62.0497 35.97C61.9697 35.99 61.8497 35.91 61.6997 35.72Z" fill="#10100C"/>
<path d="M45.7596 31.48C45.7496 31.41 45.8296 31.33 45.9996 31.23C45.9996 31.29 45.9196 31.38 45.7596 31.48Z" fill="#10100C"/>
<path d="M56.7798 31.24C56.8598 31.2 56.9898 31.25 57.1798 31.39C57.1098 31.44 56.9698 31.38 56.7798 31.24Z" fill="#10100C"/>
<path d="M53.4399 26.4C53.4999 26.37 53.5999 26.42 53.7699 26.54C53.7099 26.56 53.5999 26.52 53.4399 26.4Z" fill="#10100C"/>
<path d="M80.5397 76.3C81.0997 76.39 81.5597 76.54 82.0197 76.7C81.8097 77.12 81.7197 77.69 81.3897 77.92C79.8297 79.04 78.2097 80.08 76.5897 81.11C75.2897 81.93 74.0497 81.77 73.0497 80.6C71.8697 79.22 70.7097 77.81 69.6597 76.33C69.4197 75.98 69.6797 75.28 69.6997 74.75C70.1897 74.95 70.8297 75.01 71.1497 75.36C72.1997 76.52 73.1397 77.77 74.0897 79.02C74.7297 79.86 75.3597 79.81 76.1597 79.24C77.5497 78.24 79.0097 77.31 80.5397 76.3Z" fill="#864C4B"/>
<path d="M121.23 52.92C123.16 59.27 120.4 66.34 114.71 69.83C108.43 73.68 101.31 73.13 96.44 68.42C91.74 63.87 91.45 55.66 95.77 49.94C101.14 42.83 111.65 41.78 117.98 47.89C119.35 49.21 120.14 51.15 121.23 52.92Z" fill="#FDFEFD"/>
<path d="M113.44 72.83C112.99 73.1 112.44 73.37 111.77 73.61C112.21 73.33 112.77 73.08 113.44 72.83Z" fill="#99B273"/>
<path d="M90.9499 62.26C90.8199 62.07 90.6999 61.78 90.6699 61.43C90.8299 61.64 90.8999 61.9 90.9499 62.26Z" fill="#9ECA7B"/>
<path d="M96.4398 71.41C96.1798 71.34 95.8698 71.19 95.5698 70.91C95.8398 70.97 96.1198 71.14 96.4398 71.41Z" fill="#98C774"/>
<path d="M121.47 45.67C121.65 45.75 121.84 45.92 122 46.2C121.81 46.13 121.64 45.95 121.47 45.67Z" fill="#8E5844"/>
<path d="M110.45 29.42C113.06 30.14 115.54 30.81 118.02 31.53C118.49 31.67 118.99 31.92 119.32 32.26C119.63 32.59 119.99 33.21 119.87 33.53C119.72 33.94 119.11 34.2 118.68 34.49C118.57 34.56 118.38 34.53 118.23 34.53C113.47 34.54 108.71 34.68 103.97 34.48C102.39 34.41 100.76 33.62 99.3199 32.85C98.6699 32.5 98.0199 31.31 98.1299 30.64C98.2599 29.88 99.1399 28.89 99.8899 28.66C101.25 28.24 102.79 28.1 104.21 28.24C106.26 28.45 108.29 28.99 110.45 29.42Z" fill="#625442"/>
<path d="M82.2898 112.18C83.0998 112.36 83.9198 112.44 84.4498 112.87C84.7098 113.08 84.6498 114.11 84.3598 114.46C84.0198 114.87 83.2498 115.16 82.6998 115.11C81.3598 114.99 81.1298 113.57 82.2898 112.18Z" fill="#E8E2DA"/>
</g>
</svg>
