<svg width="16" height="16" viewBox="0 0 16 16" fill="none" xmlns="http://www.w3.org/2000/svg">
<path d="M7.22937 0.0205858C6.08521 0.139695 4.84356 0.555178 3.86902 1.14028C2.80812 1.7832 1.79012 2.80188 1.14767 3.86374C0.3573 5.17853 -0.0612954 6.80027 0.00728048 8.31009C0.0939785 10.3075 0.870005 12.1279 2.23782 13.5474C2.91273 14.2518 3.61661 14.7647 4.48647 15.1909C5.64142 15.7581 6.69532 16 8.00554 16C9.31575 16 10.3768 15.7581 11.5246 15.1909C12.3981 14.7611 13.0983 14.2482 13.7623 13.562C14.9462 12.3303 15.668 10.8531 15.9351 9.12296C16.0216 8.55583 16.0216 7.45058 15.9351 6.88358C15.7979 5.98794 15.5741 5.26903 15.188 4.48164C13.8634 1.77634 11.1997 0.071557 8.18594 0.00295298C7.83935 -0.00456618 7.40991 0.00261962 7.22937 0.0205858ZM8.76337 2.55255C9.89299 2.83781 10.7882 3.78056 11.0192 4.92913C11.1022 5.3337 11.077 5.991 10.965 6.37754C10.5354 7.86566 9.05202 8.81933 7.53608 8.58092C6.46426 8.41117 5.55108 7.68507 5.15404 6.69188C4.86162 5.955 4.86162 5.08091 5.16125 4.3658C5.7459 2.95352 7.28353 2.18051 8.76337 2.55255ZM11.1815 9.93184C11.9214 10.0691 12.5747 10.3472 13.0872 10.7373C13.4156 10.99 13.7802 11.3838 13.7802 11.4886C13.7802 11.5319 13.6863 11.7016 13.5673 11.8714C11.8421 14.3419 8.71635 15.3786 5.85792 14.4287C4.49011 13.9735 3.27359 13.0633 2.44354 11.8714C2.32452 11.7016 2.23068 11.5319 2.23068 11.4886C2.23068 11.3802 2.63136 10.9504 2.94527 10.7192C3.56602 10.2568 4.31328 9.98234 5.21191 9.88479C5.36718 9.86663 6.69895 9.85585 8.16802 9.85944C10.5572 9.86683 10.8747 9.87401 11.1815 9.93184Z" fill="#C2C2C2"/>
</svg>
