<svg width="171" height="172" viewBox="0 0 171 172" fill="none" xmlns="http://www.w3.org/2000/svg">
<path opacity="0.75" d="M132.71 171.32H37.5898C19.7798 171.32 5.33984 156.88 5.33984 139.07V37.01C5.33984 19.2 19.7798 4.76001 37.5898 4.76001H132.71C150.52 4.76001 164.96 19.2 164.96 37.01V139.08C164.96 156.89 150.52 171.32 132.71 171.32Z" fill="#010202"/>
<mask id="mask0_247_3" style="mask-type:luminance" maskUnits="userSpaceOnUse" x="0" y="0" width="171" height="171">
<path d="M132.12 170.64H38.52C17.25 170.64 0 153.39 0 132.12V38.52C0 17.25 17.25 0 38.52 0H132.12C153.39 0 170.64 17.25 170.64 38.52V132.12C170.64 153.4 153.39 170.64 132.12 170.64Z" fill="white"/>
</mask>
<g mask="url(#mask0_247_3)">
<path d="M65.9501 37.8092L51.8501 48.8792L39.6801 70.8092L33.8301 96.4592L38.9701 107.549L61.8601 118.429L79.5801 124.609L109.87 122.889L120 118.429L127.81 74.1292L124.63 51.0792L102.44 25.9892L66.5901 26.5492L65.9501 37.8092Z" fill="#F0C0A1"/>
<path d="M61.3899 189.269C61.9999 189.019 62.4199 188.729 62.9999 188.819C63.2599 189.889 63.4999 191.149 63.6799 192.129C63.7099 192.249 63.6899 192.489 63.4999 192.539C62.9199 193.419 62.5299 194.239 61.8799 195.599C63.7799 195.329 65.1199 195.129 66.5199 194.929C66.6399 195.859 66.7599 196.809 66.9099 197.989C68.2799 197.349 69.3299 196.869 70.4199 196.359C70.6899 197.439 70.9099 198.299 71.1799 199.349C72.2199 198.739 73.0199 198.279 73.8199 197.819C74.1399 198.709 74.4499 199.559 74.9099 200.859C76.1899 199.749 77.1899 198.879 78.3899 197.839C79.1299 198.919 79.8599 199.999 80.7499 201.309C81.7099 199.949 82.1799 199.269 82.6799 198.559C83.2499 199.169 83.7499 199.689 83.8999 199.849C85.1599 199.679 86.0299 199.569 87.0599 199.429C87.0599 199.359 87.1399 198.879 87.0399 198.449C86.8999 197.809 86.6299 197.199 86.5299 196.379C87.0399 194.649 87.4399 193.109 87.8399 191.569C88.0699 191.589 88.2999 191.599 88.5299 191.619C88.8599 193.299 89.1899 194.969 89.4399 196.849C89.1599 198.109 88.9699 199.159 88.6199 201.029C90.2199 200.009 91.1299 199.429 92.1299 198.789C92.4699 199.609 92.8199 200.429 93.4399 201.919C94.3199 200.609 94.9299 199.699 95.6099 198.699C96.3099 199.849 96.7899 200.649 97.4099 201.669C98.1799 200.629 98.6699 199.969 99.1799 199.279C99.7499 200.129 100.25 200.859 101.06 202.059C101.96 200.509 102.63 199.359 103.28 198.239C104.49 198.859 105.71 199.479 107.13 200.209C107.5 198.939 107.77 198.019 108.05 197.069C108.98 197.619 109.74 198.069 110.69 198.629C111.25 197.119 111.69 195.899 112.14 194.459C111.38 191.009 110.62 187.779 109.79 184.349C108.33 184.459 106.95 184.769 105.35 185.019C97.6399 186.289 90.1299 187.389 82.5199 186.339C77.9299 185.709 73.3799 184.759 68.6699 183.829C68.0399 183.599 67.3299 183.489 66.8399 183.279C66.8299 183.179 67.0199 182.969 67.0399 182.739C67.0699 182.199 66.8499 181.529 67.0899 181.229C82.1599 185.929 97.1299 186.149 111.96 180.999C109.75 172.349 107.65 164.129 105.54 155.869C104.44 156.119 103.64 156.299 102.52 156.549C106.12 148.669 109.58 141.079 113.28 132.949C110.15 131.349 107.45 129.959 104.64 128.399C102.54 127.259 100.66 127.199 98.7699 128.609C91.6599 133.899 83.7999 134.129 76.5199 129.229C74.8799 128.129 73.3899 127.609 71.4499 128.789C66.5099 133.559 61.7599 138.349 57.0499 143.089C60.7399 146.389 63.8599 149.179 66.7799 152.059C62.7199 150.789 58.8599 149.419 54.7499 147.969C54.1699 148.879 53.5299 149.879 52.7999 150.959C52.7099 151.029 52.6599 151.259 52.4999 151.359C52.4099 152.179 52.1999 153.239 52.5899 153.559C56.8399 157.039 61.1799 160.409 66.0299 164.239C66.3299 162.569 66.4499 161.879 66.6699 161.019C66.8199 160.199 66.8799 159.539 67.0499 158.729C67.1699 158.299 67.1799 158.029 67.2999 157.589C67.3299 155.569 69.4399 153.519 67.1399 151.859C67.8699 151.399 68.6399 151.069 68.7799 150.569C69.4199 148.199 69.8399 145.769 70.4599 143.389C70.6299 142.739 71.1899 142.199 71.5699 141.609C71.8199 141.719 72.0799 141.819 72.3299 141.929C72.2199 142.819 72.1599 143.719 71.9899 144.599C69.8299 155.739 67.6299 166.869 65.4999 178.019C65.3099 178.999 65.6999 180.259 65.4899 181.299C64.4099 181.519 63.3499 181.509 62.3499 181.559C62.3199 180.519 62.3299 179.609 62.5499 178.749C63.5299 174.899 64.6099 171.079 65.5599 167.229C65.7199 166.589 65.6499 165.469 65.2599 165.199C62.0999 163.029 58.8399 161.019 54.9899 158.569C52.9199 165.049 50.9799 171.149 49.0199 177.249C48.8799 177.669 48.6299 178.079 48.3499 178.429C46.4899 180.829 46.6299 181.219 49.6399 182.019C48.9799 185.119 49.4399 185.569 52.4799 184.719C53.5299 188.059 53.7999 188.059 56.3199 185.749C57.1399 184.999 58.7799 184.129 59.4799 184.469C61.5699 185.469 61.9999 184.249 62.7499 182.899C63.5899 183.969 64.2299 184.999 64.9299 186.169C64.9199 186.489 64.8599 186.659 64.6299 186.919C63.9699 187.339 63.4699 187.689 62.8199 187.889C61.1899 187.549 58.9199 186.669 58.3499 187.299C55.7099 190.239 53.7699 189.839 50.5699 187.799C48.4799 186.469 47.4199 184.709 45.9599 183.089C43.7799 180.679 45.2899 178.749 46.8399 176.829C46.9499 176.699 46.9399 176.469 46.9999 176.289C48.6299 171.469 50.1199 166.599 51.9499 161.859C52.7499 159.809 53.0499 158.129 51.6499 156.289C49.8499 153.919 49.7499 151.599 51.8399 149.199C53.6199 147.159 53.1799 146.039 50.4999 145.269C43.0599 143.109 37.9299 138.149 34.0599 131.689C32.9699 129.859 32.0599 127.929 31.0599 126.039C30.7399 126.919 30.8999 127.599 31.1499 128.249C33.5999 134.809 36.3099 141.299 38.4099 147.969C39.2299 150.589 41.1199 153.339 39.3399 156.289C38.7199 155.189 38.2499 154.199 37.8999 153.169C36.7399 149.739 35.6299 146.299 34.5099 142.869C34.5099 142.869 34.4999 142.889 34.5099 142.669C33.9499 141.069 33.3699 139.689 32.7999 138.299C32.7999 138.299 32.7899 138.319 32.7999 138.119C32.4299 137.089 32.0399 136.269 31.6599 135.449C31.6599 135.449 31.6499 135.469 31.6599 135.249C30.1499 131.549 28.6199 128.079 27.0999 124.609C27.0999 124.609 27.0799 124.629 27.1099 124.389C26.9899 123.319 26.9199 122.459 26.6899 121.649C25.3899 116.979 24.6799 112.279 25.9499 107.379C26.2499 106.409 26.3699 105.519 26.4999 104.379C26.1399 100.479 25.7599 96.8392 25.3899 93.1892C25.0799 90.1192 24.7699 87.0392 24.3099 83.6292C23.9999 83.1692 23.9199 83.0092 23.7499 82.8992C23.7499 82.8992 23.8099 82.9692 23.6699 82.7892C23.3699 82.4092 23.2899 82.0692 23.0999 81.7992C23.0999 81.7992 23.0899 81.8292 23.0799 81.6292C22.5099 80.5992 21.9499 79.7792 21.3899 78.9492C21.3899 78.9492 21.3699 78.9692 21.3999 78.7192C20.4399 73.5092 20.4899 68.6692 23.1099 64.1392C23.1099 64.1392 23.0899 64.1292 23.2599 64.0592C24.0899 63.0892 24.7399 62.1792 25.3999 61.2792C26.0199 60.7492 26.6499 60.2092 27.5899 59.7492C28.1499 59.7292 28.5699 59.6792 28.5999 59.5392C29.6499 54.3692 30.6699 49.1992 31.6899 44.0292M31.7199 43.9992C31.7199 43.9992 31.7299 43.8792 31.8599 43.6592C32.6499 41.1992 33.3199 38.9592 33.9799 36.7192C33.9799 36.7192 33.9599 36.7192 34.1199 36.6092C34.5599 35.6192 34.8399 34.7492 35.1199 33.8692C35.1199 33.8692 35.0999 33.8592 35.2399 33.7792C35.4899 33.3692 35.5899 33.0492 35.6899 32.7192C35.6899 32.7192 35.6599 32.7192 35.8099 32.6092C36.8199 30.4792 37.6799 28.4692 38.5299 26.4592C38.5299 26.4592 38.5099 26.4492 38.6599 26.4092C38.8999 26.2092 38.9999 26.0492 39.0999 25.8792C39.0999 25.8792 39.0799 25.8792 39.2299 25.7892C39.4799 25.3792 39.5699 25.0592 39.6699 24.7392C39.6699 24.7392 39.6499 24.7292 39.7899 24.6892C40.0299 24.4892 40.1399 24.3292 40.2399 24.1592C40.2399 24.1592 40.2199 24.1592 40.3699 24.0692C40.6199 23.6592 40.7099 23.3392 40.8099 23.0192C40.8099 23.0192 40.7899 23.0092 40.9299 22.9692C41.1699 22.7692 41.2799 22.6092 41.3799 22.4492C41.3799 22.4492 41.3599 22.4492 41.5299 22.3792C42.0499 21.7892 42.3899 21.2692 42.7299 20.7592C42.8399 20.7192 42.9299 20.6492 43.1799 20.3392C43.4599 19.7592 43.5499 19.3992 43.6499 19.0392C43.6499 19.0392 43.6399 19.0292 43.7899 18.9992C44.0299 18.7992 44.1299 18.6392 44.2199 18.4692C44.2199 18.4692 44.2199 18.4592 44.4199 18.4692C45.4399 17.5192 46.2599 16.5792 47.0799 15.6292C47.0799 15.6292 47.0699 15.6192 47.2199 15.5892C47.4599 15.3892 47.5499 15.2192 47.6399 15.0592C47.6399 15.0592 47.6299 15.0392 47.8199 15.0792C48.2599 14.9092 48.5199 14.6992 48.7799 14.4892C48.7799 14.4892 48.7699 14.4792 48.9199 14.4392C49.1599 14.2392 49.2599 14.0792 49.3599 13.9192C49.3599 13.9192 49.3499 13.9092 49.5299 13.9192C49.9999 13.7492 50.2899 13.5692 50.6899 13.3192C50.9599 13.1292 51.0499 12.9692 51.0699 12.7792C51.0699 12.7792 51.0499 12.7692 51.2599 12.7492C53.6199 11.4192 55.7699 10.0992 57.9199 8.77918C57.9199 8.77918 57.8999 8.76919 58.1199 8.78919C60.6799 7.84919 63.0099 6.88919 65.3399 5.92919C65.3399 5.92919 65.3199 5.91918 65.5499 5.93918C67.5299 5.55918 69.2699 5.14918 71.2599 4.73918C73.3599 4.42918 75.2099 4.03919 77.0799 3.82919C87.4699 2.64919 97.8199 2.38919 107.96 5.57919C111.83 6.79919 115.68 8.09919 119.54 9.35919C119.54 9.35919 119.55 9.33918 119.64 9.50918C120.81 10.1392 121.88 10.6092 122.95 11.0692C122.95 11.0692 122.96 11.0492 123.05 11.2292C123.84 11.6792 124.54 11.9392 125.24 12.2092C125.24 12.2092 125.25 12.1892 125.32 12.3792C126.29 13.0892 127.19 13.6192 128.08 14.1492C128.14 14.2592 128.22 14.3492 128.54 14.6092C129.29 15.0792 129.83 15.3592 130.37 15.6492C130.37 15.6492 130.39 15.6292 130.46 15.7992C131.05 16.2392 131.57 16.5092 132.08 16.7892C132.08 16.7892 132.09 16.7792 132.17 16.9392C132.57 17.1892 132.9 17.2792 133.23 17.3592C133.23 17.3592 133.23 17.3392 133.22 17.5492C133.98 18.3892 134.74 19.0192 135.5 19.6492C135.5 19.6492 135.52 19.6392 135.55 19.7792C135.75 20.0192 135.91 20.1192 136.07 20.2192C136.07 20.2192 136.08 20.2092 136.12 20.3492C136.32 20.5892 136.48 20.6892 136.64 20.7892C136.64 20.7892 136.65 20.7692 136.69 20.9192C136.89 21.1592 137.05 21.2592 137.21 21.3592C137.21 21.3592 137.22 21.3492 137.26 21.4892C137.46 21.7292 137.62 21.8292 137.78 21.9292C137.78 21.9292 137.79 21.9192 137.83 22.0592C138.03 22.2992 138.19 22.3992 138.35 22.4992C138.35 22.4992 138.35 22.4892 138.36 22.6892C139.12 23.7092 139.87 24.5392 140.62 25.3592C140.62 25.3592 140.63 25.3492 140.68 25.4892C140.88 25.7292 141.04 25.8292 141.2 25.9292C141.2 25.9292 141.21 25.9292 141.2 26.1192C141.58 26.7592 141.96 27.1992 142.33 27.6492C142.33 27.6492 142.34 27.6292 142.36 27.8392C143.69 30.3892 145.01 32.7292 146.33 35.0692C146.33 35.0692 146.34 35.0492 146.33 35.2692C148.47 41.7992 149.5 48.2692 149.22 54.9392C149.19 55.5392 149.56 56.1592 149.75 56.7692C149.75 57.0192 149.75 57.2692 149.54 57.7592C148.91 61.0992 148.39 64.1892 148.11 67.2992C147.92 69.4692 148.06 71.6592 148.27 73.8792C149.48 74.0892 150.48 74.2692 151.47 74.4392C151.47 74.4392 151.48 74.4192 151.56 74.5692C151.97 74.8192 152.29 74.9092 152.62 75.0092C152.62 75.0092 152.62 74.9892 152.66 75.1292C152.86 75.3792 153.03 75.4792 153.19 75.5792C153.19 75.5792 153.19 75.5492 153.27 75.7092C153.68 75.9592 154 76.0492 154.33 76.1392C154.33 76.1392 154.34 76.1192 154.36 76.2792C154.55 76.5292 154.73 76.6192 154.9 76.7092C154.9 76.7092 154.91 76.6892 154.88 76.8692C155.06 77.3192 155.26 77.5792 155.47 77.8492C155.47 77.8492 155.48 77.8392 155.51 77.9892C155.71 78.2292 155.88 78.3292 156.04 78.4292C156.04 78.4292 156.05 78.4092 156.02 78.6492C157.99 84.0392 157.28 88.9892 154.88 93.8192C154.88 93.8192 154.9 93.8292 154.75 93.9092C154.51 94.3192 154.41 94.6392 154.31 94.9592C154.31 94.9592 154.33 94.9692 154.16 95.0092C153.83 95.2092 153.66 95.3692 153.49 95.5292C153.38 95.5792 153.3 95.6592 153.06 95.9792C151.45 97.4892 150.02 98.7892 148.59 100.089C148.59 100.089 148.61 100.099 148.4 100.089C147.15 100.559 145.02 100.169 146.29 102.469C146.37 102.749 146.44 103.039 146.69 103.589C147.06 104.129 147.27 104.409 147.47 104.689C147.47 104.689 147.48 104.659 147.49 104.859C148.06 105.879 148.62 106.709 149.17 107.529C149.17 107.529 149.19 107.519 149.16 107.729C149.72 109.139 150.3 110.329 150.89 111.529C150.89 111.529 150.9 111.509 150.88 111.729C151.83 114.139 152.78 116.329 153.74 118.519C153.74 118.519 153.71 118.649 153.55 118.889C153.12 123.249 152.84 127.359 152.42 131.619C151.05 134.709 149.82 137.649 148.58 140.599C148.58 140.599 148.59 140.609 148.42 140.679C147.98 141.269 147.71 141.789 147.44 142.309C147.44 142.309 147.45 142.319 147.27 142.389C146.63 143.169 146.18 143.879 145.72 144.599C145.72 144.599 145.73 144.619 145.58 144.659C145.28 144.859 145.13 145.019 144.98 145.169C144.85 145.229 144.74 145.319 144.47 145.659C143.8 146.589 143.33 147.299 142.86 148.019C142.86 148.019 142.87 148.029 142.73 148.069C142.49 148.269 142.39 148.429 142.29 148.599C142.29 148.599 142.3 148.609 142.16 148.649C141.92 148.849 141.82 149.009 141.72 149.169C141.72 149.169 141.73 149.169 141.56 149.239C141.11 149.829 140.84 150.349 140.57 150.879C140.57 150.879 140.59 150.899 140.41 150.969C139.96 151.759 139.7 152.459 139.43 153.169C139.43 153.169 139.46 153.169 139.31 153.259C139.06 153.669 138.96 153.989 138.86 154.319C138.86 154.319 138.89 154.319 138.72 154.449C137.42 157.779 137.13 160.939 138.87 164.039C138.87 164.039 138.88 164.019 138.87 164.229C139.43 165.439 140 166.449 140.57 167.449C140.57 167.449 140.58 167.459 140.59 167.659C141.54 168.679 142.49 169.499 143.43 170.319C143.43 170.319 143.44 170.309 143.53 170.459C143.94 170.709 144.27 170.799 144.59 170.899C144.59 170.899 144.59 170.869 144.74 171.029C145.91 171.279 146.94 171.469 147.96 171.419C150.07 171.309 152.18 171.079 154.29 170.899C154.29 170.899 154.3 170.869 154.39 171.009C154.8 171.249 155.12 171.359 155.44 171.459C155.44 171.459 155.44 171.439 155.48 171.579C155.68 171.819 155.84 171.929 156 172.029C156 172.029 156 172.009 156.05 172.149C156.25 172.389 156.41 172.499 156.58 172.599C156.58 172.599 156.58 172.569 156.58 172.749C156.76 173.199 156.95 173.469 157.14 173.739C157.14 173.739 157.15 173.719 157.13 173.979C156.77 176.509 156.43 178.789 156.09 181.069C155.32 184.359 152.65 185.779 150.01 187.229C149.28 187.629 148.54 187.999 147.56 188.389C147.15 188.449 146.98 188.509 146.81 188.569C146.81 188.569 146.55 188.559 146.18 188.579C140.73 188.759 135.64 188.829 130.57 189.119C129.09 189.199 127.65 189.869 126.19 190.269C126.19 190.269 125.99 190.249 125.66 190.279C121.4 191.029 117.47 191.729 113.19 192.499C113.78 193.329 114.34 194.109 114.9 194.899C114.73 196.219 114.56 197.539 114.14 199.139C112.53 201.639 113.52 203.459 114.88 205.209C114.88 205.209 114.86 205.419 114.87 205.739C115.07 206.699 115.27 207.339 115.46 207.979C115.46 207.979 115.47 207.959 115.46 208.169C116.22 209.179 116.98 209.989 117.75 210.789C117.75 210.789 118 210.819 118.16 211.049C118.71 213.379 119.03 215.499 119.52 217.579C119.98 219.529 120.62 221.439 121.18 223.369C120.99 225.289 120.8 227.209 120.46 229.449C120.02 230.109 119.74 230.439 119.45 230.779C119.45 230.779 119.46 230.799 119.25 230.819C115.31 231.789 111.63 233.199 107.85 233.539C103.79 233.909 99.6299 233.259 95.5099 233.059C95.5099 233.059 95.4999 233.079 95.4099 232.929C95.0099 232.679 94.6899 232.589 94.3699 232.489C94.3699 232.489 94.3499 232.509 94.2799 232.329C93.6899 231.879 93.1699 231.619 92.6499 231.349C92.6499 231.349 92.6299 231.369 92.6299 231.189C92.4399 230.739 92.2599 230.459 92.0699 230.179C91.2799 227.769 89.8399 225.569 91.7899 222.799C92.5799 221.679 92.0799 219.469 91.7899 217.819C91.0099 213.399 90.0899 208.999 89.0799 204.619C88.8499 203.649 88.0199 202.809 87.4699 201.909C87.0999 202.859 86.3799 203.839 86.4199 204.769C86.6799 210.039 87.1199 215.299 87.5099 221.079C86.9299 224.839 86.3499 228.089 85.7699 231.349C85.7699 231.349 85.7899 231.359 85.6599 231.409C85.3599 231.569 85.2599 231.719 85.2099 231.919C85.2099 231.919 85.2299 231.919 84.9999 231.909C76.8099 234.689 68.7899 234.979 60.7099 232.479C60.7099 232.479 60.6999 232.499 60.6099 232.329C60.0199 231.859 59.5099 231.549 58.9999 231.249C58.8999 230.969 58.7999 230.679 58.5199 230.079C58.1699 228.199 57.9999 226.639 57.8299 225.079C57.8299 225.079 57.8399 224.809 58.0199 224.579C58.8799 223.449 60.0799 222.569 60.1399 221.629C60.3499 218.419 60.1499 215.189 60.1099 211.959C60.1099 211.709 60.1199 211.459 60.3099 210.899C60.7299 210.099 61.1299 209.629 61.1699 209.119C61.4299 205.879 61.7199 202.629 61.7699 199.379C61.7899 198.419 61.0699 197.449 60.6999 196.489C60.2599 195.209 59.8199 193.919 59.1499 192.419C58.7399 192.029 58.5599 191.859 58.3699 191.689C58.1899 191.979 58.0099 192.259 57.8299 192.549C56.4599 192.559 55.0999 192.569 53.2499 192.579C51.7899 192.369 50.8099 192.159 49.7499 191.829C49.4999 191.619 49.3399 191.539 48.9399 191.449C46.2299 190.669 43.7499 189.889 41.2599 189.109C40.7499 188.649 40.2299 188.189 39.7499 187.439C40.1199 187.019 40.4699 186.899 40.9999 186.829M95.6199 98.8992C95.6199 98.8992 95.6699 98.8892 95.5499 98.5292C95.0099 97.8292 94.4699 97.1192 93.9099 96.0792C93.6899 95.6992 93.4599 95.3092 93.1999 94.4792C93.0599 91.2092 93.3499 87.8892 93.2899 84.2192C94.0899 82.6792 94.4699 81.1992 95.6099 79.5192C99.7299 74.0992 104.7 70.1592 111.93 70.1592C114.11 70.1592 113.9 68.9492 113.2 67.0692C113.22 64.4592 111.96 63.6992 109.36 63.5492C106.7 63.3992 103.89 62.6892 101.53 61.4792C100.29 60.8392 99.1399 58.5692 99.2599 57.1392C99.3599 55.8992 101.15 54.5892 102.47 53.7292C103.5 53.0592 104.96 53.0292 106.73 52.5892C104.07 49.3792 101.62 46.4392 99.0499 43.1292C98.0299 42.1392 97.0199 41.1392 95.8999 39.7892C94.8799 38.8792 93.8499 37.9692 92.6499 36.7292C91.9599 36.1992 91.2699 35.6692 90.4299 34.8192C86.8999 30.5092 82.7599 31.2692 78.0599 33.4092C76.0799 34.3092 74.1099 35.2092 71.8599 36.1292C71.6799 36.2292 71.5899 36.3792 71.1799 36.6392C69.7499 37.4492 68.3299 38.2592 66.4999 39.1692C63.7499 41.2092 60.9999 43.2592 58.3699 45.2092C61.0899 46.4792 63.5199 47.2992 65.5799 48.6792C67.3499 49.8592 68.4199 51.8592 67.5699 54.1392C66.7299 56.3992 64.6599 56.9092 62.6199 56.5592C59.2699 55.9792 55.9399 55.1692 52.6799 54.1892C51.1299 53.7192 50.3399 53.9592 49.5599 55.6192C49.1299 56.1592 48.6999 56.6992 47.9199 57.4092C47.4699 58.1392 47.0099 58.8592 46.7099 59.3392C50.4899 59.7192 54.0299 60.0692 57.5099 60.4692C57.5099 60.4692 57.5099 60.3892 57.6299 60.7992C58.0099 60.9092 58.3999 61.0192 59.1499 61.1892C63.4799 64.3192 64.9999 69.0292 66.2799 74.2392C66.3599 75.4192 66.4299 76.6092 66.3299 77.8992C66.3999 78.0592 66.4599 78.2092 66.6599 78.8192C66.5299 80.4692 66.4099 82.1092 66.0199 84.0692C65.3199 85.7592 64.6199 87.4392 63.7699 89.0892C63.7699 89.0892 63.6199 89.0692 63.3999 88.9892C63.3399 89.1792 63.2899 89.3792 63.1099 89.9192C61.7199 91.0792 60.3299 92.2392 58.5099 93.4492C57.9499 93.5592 57.3799 93.6792 56.4499 93.7592C55.9999 93.8992 55.5499 94.0392 54.6399 94.2892C54.0199 94.2492 53.3899 94.2092 52.4699 93.9392C52.0999 93.9192 51.7299 93.8992 51.1999 93.9492C51.1999 93.9492 51.0799 93.8292 50.9999 93.6392C50.8399 93.6692 50.6699 93.6892 50.2099 93.7892C50.1099 93.8092 50.0099 93.8292 49.6999 93.6492C49.4499 93.4892 49.2099 93.3392 49.0099 92.9492C48.7999 92.9292 48.5899 92.9092 48.2899 92.8892C48.2899 92.8892 48.2299 92.8292 48.0299 92.4792C47.6599 92.3592 47.2999 92.2492 46.5399 92.1292C46.1599 92.0392 45.7799 91.9592 45.2699 91.5492C44.7499 91.0992 44.2199 90.6592 43.5799 89.8492C42.8099 88.3692 42.0499 86.8992 41.3299 84.9492C40.8099 83.0292 40.2899 81.1092 39.7699 79.1892C39.4999 79.2092 39.2399 79.2292 38.9699 79.2592C38.8199 79.9292 38.6799 80.5992 38.4999 81.7392C38.1399 84.9992 37.7699 88.2592 37.2599 91.9792C37.1499 92.6292 37.0199 93.2692 36.9199 93.9192C36.1099 98.8892 39.0899 104.739 43.7399 107.339C44.0999 107.569 44.4499 107.789 45.0999 108.269C46.2199 109.129 51.8499 113.549 52.7699 114.039C69.9599 123.269 88.1799 124.609 107 120.959C109.71 120.429 112.28 119.209 115.12 117.919C115.2 116.729 115.28 115.529 115.48 113.819C115.48 110.759 115.48 107.709 115.48 104.539C113.38 104.749 111.34 104.949 108.82 105.129C107.64 104.989 106.46 104.849 105.05 104.359C102.88 103.399 100.71 102.429 98.3299 101.209C98.0099 101.159 97.6899 101.109 97.3699 100.709C97.2299 100.549 97.0899 100.379 96.9199 100.159C96.9199 100.159 96.8499 100.139 96.7199 99.8192C96.5399 99.6992 96.3499 99.5692 96.1699 99.4892M96.1699 99.4892C96.1699 99.4892 96.2099 99.4792 96.1199 99.1892L96.1699 99.4892ZM62.0499 68.7892C61.8399 68.5192 61.6199 68.2392 61.2399 67.6192C60.4799 67.1892 59.7199 66.7692 58.8899 65.9092C54.4099 61.7092 49.4399 61.8592 44.4699 65.8992C44.0599 66.7692 43.6599 67.6392 43.1699 68.8992C41.1699 73.5592 41.0299 78.3392 42.5599 83.1092C43.9799 87.5492 46.8399 90.7092 51.5199 91.8492C56.5599 93.0692 61.6399 90.2892 62.5699 85.8092C62.5699 85.8092 62.5199 85.8692 62.8699 85.9492C62.9099 85.7192 62.9599 85.4892 63.3399 85.2192C63.6599 84.7192 63.9799 84.2192 64.5599 83.3492C64.4699 80.4392 64.3899 77.5392 64.3699 74.5292C64.3699 74.5292 64.3099 74.4192 64.3599 74.1192C64.1399 73.6092 63.9199 73.0892 63.6499 72.6192C63.6499 72.6192 63.7099 72.6192 63.7199 72.2292C63.5299 71.8992 63.3499 71.5692 63.1899 71.0892C63.1899 71.0892 63.0999 70.9692 63.0399 70.6592C62.8799 70.5392 62.7299 70.4092 62.5899 70.3292M115.45 83.2192C115.41 83.1192 115.37 83.0192 115.37 82.5292C115.27 81.8892 115.18 81.2492 115.13 80.2392C115.09 79.9992 115.04 79.7592 115.01 79.1192C114.97 78.8592 114.93 78.6092 114.96 77.8792C114.5 76.4292 114.5 74.2992 113.51 73.6392C110.7 71.7592 102.71 74.6292 100.37 77.8392C95.8899 81.3492 93.8599 85.9592 94.7099 91.5792C96.0999 100.799 107.73 104.339 115.02 102.099C115.52 101.939 115.98 100.809 116.01 100.109C116.11 97.8392 116 95.5492 116.11 92.8892C115.97 92.2292 115.83 91.5692 115.74 90.4592C115.72 89.8592 115.69 89.2692 115.84 88.3192C115.7 86.7292 115.56 85.1292 115.45 83.2192ZM114.76 125.999C114.83 124.739 114.9 123.469 114.97 122.099C109.69 123.109 104.78 124.009 99.8999 125.019C99.1299 125.179 98.4699 125.879 97.7599 126.329C97.9099 126.769 98.0599 127.199 98.2199 127.639C100.8 124.479 103.4 126.179 105.94 127.009C107.1 127.389 108.16 128.069 109.51 128.909C110.8 129.729 112.1 130.549 113.64 131.539C113.96 129.479 114.21 127.909 114.76 125.999ZM146.77 80.1892C146.74 80.2492 146.67 80.3292 146.68 80.3592C146.74 80.4692 146.83 80.5592 147.05 81.0292C148.31 81.7592 149.6 82.4392 150.82 83.2192C152.05 84.0092 152.61 84.9192 150.58 85.7492C149.37 85.1392 148.15 84.5192 146.73 83.7992C146.01 88.2592 145.36 92.2592 144.73 96.2692C144.63 96.9192 144.62 97.5892 144.4 98.3692C144.56 98.4392 144.72 98.4992 145.3 98.5992C147.54 96.9892 149.78 95.3692 152.3 93.4792C154.53 90.3492 155.58 86.8992 155.01 83.0392C154.39 78.8092 151.65 76.2692 147.6 76.2492C147.39 77.5092 147.16 78.7992 146.77 80.1892ZM122.74 160.639C122.54 160.689 122.42 160.819 121.98 161.099C118.31 162.759 114.63 164.419 110.85 166.129C112.36 169.949 113.92 173.709 115.31 177.529C115.73 178.679 115.71 179.999 115.84 181.239C116.02 182.939 115.69 184.929 118.67 183.749C119.52 183.409 121.07 184.099 121.96 184.769C124.89 186.959 125.32 186.879 126.22 183.599C127.11 183.699 128 183.809 128.89 183.909C128.83 182.809 128.78 181.699 129.17 180.689C129.93 180.289 130.97 180.059 131.33 179.439C131.55 179.069 130.74 178.059 130.36 177.359C130.06 176.819 129.45 176.309 129.43 175.769C129.23 170.649 126.55 166.509 124.22 161.879C124.04 161.609 123.86 161.349 123.59 160.749C123.4 160.729 123.2 160.699 122.74 160.639ZM84.6699 221.119C84.8699 218.499 85.1099 215.869 85.2299 213.239C85.2399 213.009 84.5399 212.739 83.8399 212.179C82.0599 212.199 80.2199 211.939 78.5099 212.309C76.5799 212.719 74.8099 213.689 77.2999 215.879C77.5899 216.139 77.7599 216.709 77.7299 217.129C77.6199 219.079 77.4199 221.019 77.2899 222.559C75.5099 223.829 73.7599 225.079 71.4699 226.719C78.8799 227.029 78.8799 227.029 83.0499 222.569C83.4399 222.149 83.8299 221.729 84.6699 221.119ZM116.57 220.399C116.62 218.199 116.62 215.999 116.73 213.799C116.81 212.119 116.07 211.349 114.1 211.069C113.07 211.019 112.01 210.799 111.01 210.949C107.01 211.559 106.68 212.299 108.87 215.439C108.98 215.589 109.11 215.759 109.13 215.929C109.38 218.059 109.62 220.189 109.81 221.869C108.34 223.129 106.88 224.369 105.11 225.879C111.25 226.829 113.34 225.759 116.57 220.399ZM124.77 152.679C123.55 150.359 122.33 148.039 121.19 145.859C117.1 148.769 113.21 151.549 108.88 154.399C108.46 155.009 107.59 155.689 107.69 156.209C108.18 158.849 108.91 161.449 109.77 164.929C114.84 162.349 119.42 160.019 124.01 157.699C126.34 156.509 126.62 154.989 124.77 152.679ZM34.8999 43.3992C37.6199 39.7592 40.0599 35.8692 43.1099 32.5392C51.0899 23.8192 61.3799 19.0992 72.7899 16.7992C78.1499 15.7192 83.6399 15.2192 89.0899 14.6792C92.0999 14.3792 92.2299 12.3892 92.6999 9.43918C86.1199 9.90918 79.8099 9.80918 73.7299 10.9192C62.4499 12.9692 52.8899 18.7792 44.2199 26.1492C38.7999 30.7592 35.3399 36.3892 34.2799 43.6792C34.2899 43.8792 34.2999 44.0892 34.3099 44.2892C34.3899 44.0592 34.4699 43.8292 34.8999 43.3992ZM69.7899 127.979C72.1199 127.109 74.1799 124.669 77.0399 126.779C77.2099 126.899 77.8899 126.329 78.3299 126.089C78.0399 125.649 77.8299 124.939 77.4399 124.819C76.1799 124.439 74.8699 124.229 73.5599 124.049C64.8999 122.809 56.9099 119.689 49.4699 115.209C45.7899 112.999 42.4399 110.239 38.9399 107.729C38.6999 107.779 38.4499 107.829 38.2099 107.889C38.4899 109.079 38.7599 110.279 39.0599 111.919C41.7799 123.799 47.9899 133.719 56.0899 142.329C60.5699 137.529 64.9799 132.779 69.7899 127.979ZM140.26 114.389C136.79 124.209 131.51 132.999 124.76 140.879C122.68 143.309 122.05 145.269 124.26 147.929C125.38 149.279 125.79 151.209 126.78 152.699C128.33 155.029 127.83 157.299 127.16 159.729C126.86 160.799 126.86 162.159 127.26 163.169C129.24 168.229 131.43 173.209 133.47 178.249C133.72 178.879 133.77 179.849 133.46 180.399C132.22 182.539 130.79 184.569 128.99 187.299C134.89 186.949 140.39 186.729 145.87 186.239C149.39 185.929 152.06 183.789 154.01 181.019C155.44 178.989 156.4 176.519 154.83 174.089C153.29 171.709 151 172.669 148.89 173.159C145.23 174.009 141.64 172.629 139.48 169.549C134.87 162.959 134.74 155.739 139.25 149.129C140.58 147.179 142.18 145.419 143.69 143.599C148.37 137.979 151.14 131.639 151.6 124.239C151.91 119.159 149.94 114.799 147.92 109.979C146.54 107.469 145.17 104.959 143.79 102.449C143.54 102.549 143.29 102.639 143.04 102.739C142.25 106.589 141.46 110.439 140.26 114.389ZM115.38 147.549C115.97 147.079 116.59 146.629 117.15 146.119C126.05 138.019 131.5 127.789 135.05 116.499C138.46 105.669 140.05 94.5292 139.54 83.1492C139.16 74.7392 137.33 66.6492 133.84 58.9692C128.94 48.1592 121.92 38.8792 112.74 31.4492C106.94 26.7592 100.5 22.8792 94.3199 18.6692C92.6599 17.5392 91.4199 17.6192 90.7599 19.9092C90.0199 22.4592 89.0899 24.9592 88.0799 27.4092C87.4199 29.0292 87.8199 29.9592 89.1999 30.9992C96.5599 36.4992 102.85 43.1692 107.87 50.7692C119.09 67.7592 123.4 86.6292 121.17 106.849C119.81 119.159 116.48 131.019 111.51 142.389C110.09 145.649 108.59 148.869 107.12 152.109C107.3 152.309 107.48 152.499 107.66 152.699C110.12 151.059 112.58 149.419 115.38 147.549ZM35.6599 86.6492C37.1499 80.8792 38.1299 74.9192 40.2299 69.3792C47.7999 49.3492 61.4599 35.6192 82.4899 29.8492C83.3699 29.6092 84.6499 29.2492 84.9199 28.6092C86.3899 25.0692 87.6099 21.4192 89.0899 17.3292C87.0399 17.3292 85.6099 17.1392 84.2499 17.3592C79.0299 18.2192 73.7199 18.8092 68.6499 20.2292C54.3899 24.2192 43.4499 32.4992 36.4499 45.8392C29.5099 59.0592 27.8499 73.4192 27.2399 87.9392C27.0099 93.3592 28.0399 98.8692 28.8199 104.289C30.7599 117.759 36.4099 129.449 46.3199 138.889C48.5999 141.059 51.3599 142.739 53.8899 144.639C54.0599 144.429 54.2299 144.209 54.3999 143.999C54.2199 143.689 54.0899 143.329 53.8499 143.069C44.7399 133.019 38.0899 121.589 36.1399 108.069C35.1599 101.219 35.7499 94.1392 35.6599 86.6492ZM74.9099 210.919C78.1299 210.479 81.3599 210.029 84.6999 209.569C84.6999 207.829 84.7599 205.749 84.6599 203.679C84.6299 203.159 84.0099 202.179 83.8199 202.219C81.7399 202.629 79.7699 202.739 78.0299 201.249C75.8199 203.269 73.6199 201.829 71.4899 201.139C68.9799 200.319 66.5599 199.239 63.9199 198.209C63.5399 201.659 63.1499 205.319 62.7199 209.229C64.5399 209.479 66.0699 209.709 67.6099 209.899C69.8899 210.189 72.1699 210.459 74.9099 210.919ZM105.11 9.17919C123.28 13.7092 136.33 24.7892 145.54 40.9392C145.54 39.5192 145.32 38.2792 144.87 37.1292C142.05 29.9092 137.56 23.9592 131.45 19.1192C122.06 11.6692 111.16 7.85919 99.6599 5.42919C98.7899 5.24919 97.6999 6.11919 96.7199 6.49919C96.7999 6.86919 96.8799 7.22918 96.9599 7.59918C99.5299 8.07918 102.1 8.54919 105.11 9.17919ZM112.42 205.059C112.16 204.049 111.8 203.059 111.67 202.029C111.45 200.249 110.36 199.799 109.18 200.799C106.91 202.719 103.96 201.829 101.34 203.049C98.5299 204.359 94.4799 203.019 90.7299 202.819C91.0699 204.799 91.4599 207.069 91.8999 209.579C99.2299 208.779 106.3 211.129 113.31 208.409C113.09 207.489 112.84 206.499 112.42 205.059ZM91.0699 7.61918C92.5199 7.68918 94.4899 8.65918 94.2899 5.80918C82.3999 0.0791829 46.2399 12.6592 43.8699 22.7392C49.1399 19.5592 54.5799 15.6892 60.5099 12.8592C69.9499 8.35919 80.0299 6.30918 91.0699 7.61918ZM83.9799 125.259C82.9699 125.259 81.9599 125.259 80.9899 125.259C80.8799 126.749 80.7799 128.009 80.6799 129.319C83.8599 131.519 87.5699 131.079 91.0099 130.729C95.0399 130.329 95.8699 128.859 95.2599 125.289C91.6999 125.289 88.1099 125.289 83.9799 125.259ZM61.7199 54.8992C63.1099 54.3392 64.5999 53.9192 65.8199 53.0992C66.0899 52.9192 65.6699 51.0792 65.0999 50.3892C61.4199 45.9392 54.7099 47.0492 52.4399 52.6492C55.3999 53.3892 58.3199 54.1092 61.7199 54.8992ZM101.93 59.7992C104.8 61.6192 107.89 62.1492 111.54 61.6192C110.74 60.0592 110.12 58.8092 109.46 57.5692C109.2 57.0692 108.92 56.5692 108.58 56.1192C107.48 54.6492 104.09 54.4592 102.11 55.6992C100.41 56.7692 100.47 58.0592 101.93 59.7992ZM24.2299 66.7392C22.1099 71.3092 22.4899 75.6892 25.1999 80.5792C25.9399 74.6392 26.5899 69.4192 27.2499 64.1892C26.9299 64.1092 26.6199 64.0192 26.2999 63.9392C25.6899 64.7492 25.0699 65.5492 24.2299 66.7392ZM121.77 189.199C122.29 188.059 120.8 186.139 119.12 186.289C115.86 186.569 113.9 185.399 113.5 181.769C110.91 183.809 112.71 185.849 112.98 187.659C113.09 188.399 114.16 189.519 114.86 189.569C117.01 189.729 119.19 189.449 121.77 189.199ZM117.86 96.3492C117.86 100.989 117.86 105.629 117.86 110.259C119.88 100.199 119.73 90.1792 117.86 81.3292C117.86 85.4092 117.86 90.5992 117.86 96.3492ZM72.3699 222.099C68.4799 221.189 67.0799 221.899 64.6299 226.059C67.8899 227.409 70.7399 226.119 72.3699 222.099ZM98.4999 224.169C98.1299 224.659 97.7599 225.159 97.3499 225.699C101.41 227.229 103.98 225.829 104.95 221.769C100.58 221.169 100.37 221.239 98.4999 224.169ZM65.2399 214.379C65.1999 213.529 65.4499 212.449 65.0199 211.909C64.6799 211.479 63.3199 211.389 62.7699 211.729C62.3499 211.999 62.4499 213.159 62.3999 213.929C62.3599 214.579 62.2499 215.329 62.5099 215.879C62.8599 216.649 63.5299 217.279 64.0599 217.959C64.2999 217.789 64.5399 217.619 64.7799 217.449C63.1399 216.389 63.2699 215.469 65.2399 214.379ZM100.81 231.629C101.72 231.429 102.68 231.329 103.52 230.959C103.68 230.889 103.52 229.289 103.27 229.219C101.84 228.819 100.35 228.669 98.8699 228.429C98.7099 228.739 98.5499 229.039 98.3899 229.349C99.0599 230.069 99.7099 230.779 100.81 231.629ZM28.3299 120.689C28.8799 122.059 29.4199 123.419 29.9699 124.789C30.1399 124.729 30.3099 124.669 30.4799 124.619C29.4599 120.089 28.4299 115.549 27.4099 111.019C27.1799 111.059 26.9499 111.099 26.7299 111.139C27.2199 114.169 27.7199 117.209 28.3299 120.689ZM73.3699 212.759C70.1399 210.549 68.4299 210.869 67.7899 214.199C69.2099 214.199 70.5799 214.299 71.9299 214.149C72.5199 214.089 73.0399 213.499 73.3699 212.759ZM65.3999 229.119C65.4199 229.939 65.2399 231.389 65.5099 231.479C66.5299 231.829 67.7799 231.989 68.7999 231.699C69.3299 231.549 69.5399 230.309 70.0799 229.169C68.2899 229.099 67.0799 229.049 65.3999 229.119ZM104 212.449C102.43 212.079 100.87 211.619 99.2799 211.409C98.9399 211.359 98.3799 212.169 98.1199 212.689C98.0399 212.849 98.6099 213.639 98.8299 213.619C100.59 213.459 102.34 213.169 104 212.449ZM94.9599 211.629C92.0499 211.379 92.0499 211.379 93.5899 216.529C93.5299 214.729 97.9999 214.729 94.9599 211.629ZM62.0999 224.849C63.0599 223.299 64.0299 221.749 65.0399 220.119C64.1399 219.769 63.4099 219.479 62.4799 219.119C62.2099 221.139 61.9699 222.959 62.0999 224.849ZM95.8199 222.159C96.1299 221.349 96.4499 220.549 96.7899 219.669C96.0499 219.669 95.0899 219.669 93.9599 219.669C94.0999 221.389 94.2299 223.069 94.3599 224.749C94.5099 224.819 94.6499 224.899 94.7999 224.969C95.2099 224.159 95.6199 223.339 95.8199 222.159ZM72.5099 229.109C72.3499 230.129 72.1899 231.159 72.0199 232.179C72.6399 231.919 73.5399 231.829 73.8199 231.359C74.3899 230.449 75.0799 229.129 72.5099 229.109ZM105.59 229.709C106.14 230.359 106.7 231.019 107.25 231.669C107.54 230.869 107.83 230.069 108.12 229.269C107.26 229.279 106.39 229.279 105.59 229.709ZM40.1199 76.7092C39.9999 76.7392 39.8699 76.7592 39.7499 76.7892C39.7899 76.9492 39.8399 77.1192 39.8799 77.2792C39.9799 77.1692 40.0699 77.0592 40.1199 76.7092ZM112.42 176.159C112.34 176.079 112.38 176.119 112.42 176.159V176.159ZM145.96 42.5192C146.05 42.4892 146.15 42.4592 146.24 42.4292C146.14 42.3892 146.05 42.3592 145.96 42.5192ZM42.0999 138.389C42.1699 138.319 42.2399 138.259 42.3099 138.189C42.2399 138.199 42.1699 138.209 42.0999 138.389ZM38.1099 106.249C38.1699 106.329 38.2299 106.419 38.2899 106.499C38.2699 106.379 38.2599 106.269 38.1099 106.249Z" fill="#0B0A0B"/>
<path d="M27.1401 124.619C28.6701 127.869 30.1901 131.349 31.7201 135.039C30.1901 131.789 28.6601 128.319 27.1401 124.619Z" fill="#333D3C"/>
<path d="M146.41 34.6092C145.08 32.4992 143.76 30.1492 142.42 27.6092C143.74 29.7392 145.08 32.0592 146.41 34.6092Z" fill="#333D3C"/>
<path d="M32.8301 138.329C33.4201 139.489 33.9901 140.869 34.5701 142.469C33.9901 141.309 33.4101 139.929 32.8301 138.329Z" fill="#333D3C"/>
<path d="M140.7 24.9192C139.94 24.2992 139.19 23.4792 138.42 22.4692C139.17 23.0892 139.94 23.8992 140.7 24.9192Z" fill="#333D3C"/>
<path d="M135.54 19.2292C134.79 18.7992 134.02 18.1692 133.26 17.3392C134.02 17.7692 134.77 18.3992 135.54 19.2292Z" fill="#333D3C"/>
<path d="M122.97 10.6591C121.92 10.3991 120.85 9.93914 119.67 9.30914C120.69 9.57914 121.82 10.0191 122.97 10.6591Z" fill="#333D3C"/>
<path d="M21.4297 78.9492C21.9897 79.5692 22.5397 80.3892 23.1297 81.4092C22.5797 80.7992 21.9997 79.9792 21.4297 78.9492Z" fill="#0B0A0B"/>
<path d="M128.12 13.7192C127.23 13.4192 126.34 12.8892 125.36 12.1792C126.22 12.4992 127.17 12.9992 128.12 13.7192Z" fill="#333D3C"/>
<path d="M31.6997 135.459C32.0897 136.069 32.4697 136.889 32.8597 137.909C32.4697 137.299 32.0797 136.489 31.6997 135.459Z" fill="#333D3C"/>
<path d="M125.2 11.8192C124.58 11.7392 123.87 11.4692 123.08 11.0292C123.71 11.1192 124.41 11.3792 125.2 11.8192Z" fill="#333D3C"/>
<path d="M142.41 27.2092C142.02 26.9692 141.64 26.5192 141.26 25.8892C141.64 26.1392 142.03 26.5692 142.41 27.2092Z" fill="#333D3C"/>
<path d="M130.39 15.2291C129.88 15.1491 129.34 14.8691 128.67 14.4391C129.15 14.5291 129.76 14.7691 130.39 15.2291Z" fill="#333D3C"/>
<path d="M132.1 16.3692C131.6 16.2992 131.09 16.0192 130.49 15.5892C130.97 15.6792 131.52 15.9292 132.1 16.3692Z" fill="#333D3C"/>
<path d="M23.1401 81.7692C23.3201 81.8692 23.5201 82.1392 23.7101 82.5792C23.5301 82.4792 23.3401 82.2092 23.1401 81.7692Z" fill="#0B0A0B"/>
<path d="M133.18 16.9992C132.95 17.0592 132.62 16.9692 132.21 16.7292C132.45 16.6592 132.77 16.7592 133.18 16.9992Z" fill="#333D3C"/>
<path d="M138.36 22.1392C138.25 22.1692 138.09 22.0792 137.88 21.8392C137.99 21.7992 138.15 21.9092 138.36 22.1392Z" fill="#333D3C"/>
<path d="M141.21 25.5592C141.1 25.5892 140.94 25.4892 140.74 25.2592C140.84 25.2292 141 25.3292 141.21 25.5592Z" fill="#333D3C"/>
<path d="M137.79 21.5692C137.68 21.6092 137.52 21.5092 137.31 21.2692C137.42 21.2292 137.58 21.3292 137.79 21.5692Z" fill="#333D3C"/>
<path d="M137.21 20.9992C137.1 21.0292 136.94 20.9292 136.74 20.6992C136.85 20.6592 137 20.7592 137.21 20.9992Z" fill="#333D3C"/>
<path d="M136.07 19.8592C135.96 19.8892 135.8 19.7892 135.59 19.5492C135.71 19.5192 135.86 19.6192 136.07 19.8592Z" fill="#333D3C"/>
<path d="M136.64 20.4292C136.53 20.4592 136.37 20.3592 136.16 20.1192C136.28 20.0892 136.43 20.1992 136.64 20.4292Z" fill="#333D3C"/>
<path d="M145.25 144.919C145.24 144.809 145.39 144.649 145.69 144.439C145.69 144.549 145.55 144.709 145.25 144.919Z" fill="#0B0A0B"/>
<path d="M153.75 95.2792C153.74 95.1492 153.9 94.9892 154.23 94.7792C154.24 94.8992 154.08 95.0792 153.75 95.2792Z" fill="#0B0A0B"/>
<path d="M23.77 82.8792C23.87 82.8592 24.04 82.9692 24.25 83.2392C24.14 83.2592 23.99 83.1392 23.77 82.8792Z" fill="#0B0A0B"/>
<path d="M115.49 147.729C112.86 149.489 110.16 151.219 107.7 152.859C107.52 152.659 107.19 152.239 107.01 152.039C108.48 148.799 110.11 145.469 111.53 142.209C116.5 130.839 119.83 118.979 121.19 106.669C123.43 86.4492 119.11 67.5792 107.89 50.5892C102.17 43.4592 96.5601 36.4992 89.2001 30.9992C87.8201 29.9692 87.4401 28.8492 88.1001 27.2292C89.1101 24.7692 90.0401 22.2792 90.7801 19.7292C91.4401 17.4292 92.6801 17.3492 94.3401 18.4892C100.52 22.6992 106.97 26.5792 112.76 31.2692C121.94 38.6892 128.96 47.9792 133.86 58.7892C137.34 66.4792 139.18 74.5592 139.56 82.9692C140.07 94.3492 138.48 105.489 135.07 116.319C131.52 127.609 126.28 137.999 117.37 146.089C116.82 146.599 116.25 147.139 115.49 147.729Z" fill="#2B2A2D"/>
<path d="M104.77 128.609C107.47 129.989 110.17 131.379 113.3 132.979C109.6 141.099 106.13 148.689 102.54 156.579C103.66 156.329 104.47 156.149 105.56 155.899C107.67 164.169 109.77 172.709 111.98 181.359C97.1501 186.509 82.4201 186.309 67.2301 181.489C66.4401 181.259 65.9901 181.169 65.5401 181.079C65.5201 180.059 65.3301 179.009 65.5201 178.039C67.6501 166.889 69.8501 155.759 72.0101 144.619C72.1801 143.739 72.2401 142.839 72.3501 141.949C72.1001 141.839 71.8401 141.739 71.5901 141.629C71.2101 142.219 70.6501 142.759 70.4801 143.409C69.8701 145.789 69.4501 148.219 68.8001 150.589C68.6601 151.089 67.6701 151.919 66.9601 152.399C66.7401 152.189 66.7901 152.089 66.7901 152.089C63.6701 149.299 60.7501 146.419 57.0601 143.119C61.7701 138.369 66.5201 133.589 71.5001 128.999C72.9301 130.379 73.9401 131.869 75.3501 132.699C83.8501 137.709 98.0501 136.239 104.77 128.609Z" fill="#DCB1D3"/>
<path d="M35.6701 86.7191C35.7701 93.9491 35.1801 101.039 36.1701 107.889C38.1201 121.409 44.7701 132.839 53.8801 142.889C54.1201 143.149 54.6301 143.649 54.8101 143.959C54.6401 144.169 54.1001 144.699 53.9301 144.919C51.3901 143.019 48.6201 140.879 46.3401 138.709C36.4401 129.269 29.4301 117.789 28.8401 104.109C28.0601 98.6891 26.7201 93.5191 27.2601 87.7591C27.8601 73.2391 29.5301 58.8891 36.4701 45.6591C43.4701 32.3191 54.4101 24.0491 68.6701 20.0491C73.7401 18.6291 79.0501 18.0391 84.2701 17.1791C85.6301 16.9591 87.6101 16.7391 89.6601 16.7391C88.1801 20.8291 86.6701 25.3291 85.2001 28.8791C84.9301 29.5291 83.1001 30.2991 82.2201 30.5391C61.1901 36.2991 48.7901 49.9491 40.2601 69.1991C37.8501 74.6091 38.1101 82.5791 35.6701 86.7191Z" fill="#2A2A2C"/>
<path d="M148.12 110.159C149.96 114.619 151.94 118.979 151.62 124.059C151.16 131.459 149 137.959 144.32 143.589C142.81 145.409 141.64 147.549 140.31 149.499C135.8 156.109 134.88 162.789 139.49 169.379C141.65 172.459 145.23 173.839 148.9 172.989C151.01 172.499 153.3 171.539 154.84 173.919C156.41 176.349 155.97 179.269 154.54 181.299C152.59 184.079 149.59 186.259 146.07 186.569C140.59 187.049 134.56 187.099 128.67 187.459C130.47 184.719 132.23 182.369 133.48 180.229C133.8 179.679 133.39 178.899 133.14 178.269C131.1 173.229 129.03 168.099 127.04 163.039C126.64 162.019 126.89 160.609 127.18 159.549C127.86 157.119 128.07 155.029 126.52 152.689C125.53 151.199 125.12 149.409 124 148.059C121.79 145.399 122.7 143.139 124.78 140.709C131.53 132.829 136.47 124.129 140.26 114.399C140.99 114.399 141.81 114.339 142.14 114.119C144.16 112.829 146.13 111.479 148.12 110.159Z" fill="#2A2A2C"/>
<path d="M141.24 99.8692C141.45 94.7592 141.8 89.6392 141.83 84.5292C141.92 69.4592 136.78 56.1592 128 44.0792C119.46 32.3292 108.33 23.6892 95.8201 16.6092C95.0201 16.1592 93.9201 14.6992 94.1201 14.2692C94.8501 12.7492 94.5501 9.78919 97.3001 10.3192C102.56 11.3392 107.96 12.2392 112.92 14.1792C130.59 21.0592 141.37 34.4892 146.99 52.1892C147.99 55.3292 147.22 59.1192 146.86 62.5692C145.88 71.8792 144.73 81.1692 143.54 90.4492C143.11 93.8192 142.41 97.1592 141.69 100.659C141.45 100.479 141.35 100.179 141.24 99.8692Z" fill="#2A2A2C"/>
<path d="M41.1197 186.619C40.4297 186.069 39.9397 185.549 39.2897 184.949C37.6697 183.719 36.3597 182.109 34.6997 181.539C29.6597 179.819 31.5297 177.919 29.7997 172.759C28.7697 169.679 28.4197 170.249 27.1597 164.879C27.6697 164.639 27.9897 164.009 28.4897 163.349C28.8597 163.149 29.1397 163.159 29.6397 163.409C31.1297 165.289 32.4597 166.759 34.8197 165.499C34.9397 165.459 35.0697 165.449 35.5397 165.499C39.8797 165.019 41.4297 161.379 39.6497 156.669C39.6197 156.559 39.5997 156.449 39.5897 156.259C41.1597 153.139 39.0497 150.429 38.2297 147.809C36.1297 141.139 33.4397 135.289 30.9897 128.729C30.7497 128.079 30.7797 126.719 31.0997 125.839C32.0897 127.729 32.9997 129.659 34.0997 131.489C37.9697 137.949 43.0897 142.909 50.5397 145.069C53.2197 145.849 53.9797 146.919 51.8797 148.999C49.7897 151.399 49.8897 153.719 51.6897 156.089C53.0897 157.929 52.7897 159.599 51.9897 161.659C50.1497 166.399 48.6697 171.269 47.0397 176.089C46.9797 176.269 46.9897 176.489 46.8797 176.629C45.3297 178.539 43.8097 180.479 45.9997 182.889C47.4697 184.509 48.5297 186.259 50.6097 187.599C53.7997 189.639 55.7497 190.029 58.3897 187.099C58.9597 186.459 61.2197 187.349 62.8697 187.859C63.0197 188.399 63.0097 188.619 62.9997 188.839C62.5197 188.959 62.0497 189.079 61.2597 189.339C60.7097 189.499 60.4697 189.509 60.2297 189.529C56.5697 189.559 52.8597 189.959 49.2597 189.489C46.5397 189.109 43.9597 187.639 41.1197 186.619Z" fill="#2A2A2B"/>
<path d="M70.0698 128.029C65.6598 132.779 60.6198 137.729 56.1598 142.529C48.0498 133.919 41.8198 123.619 39.2598 111.589C40.2498 112.229 41.0498 113.019 41.8898 113.779C49.7898 120.969 59.6698 125.729 70.0698 128.029Z" fill="#2B2A2D"/>
<path d="M62.7901 182.679C62.2201 184.069 61.6101 185.259 59.5201 184.249C58.8101 183.909 57.1701 184.779 56.3601 185.529C53.8301 187.849 53.5701 187.839 52.5201 184.509C49.4801 185.349 49.0201 184.909 49.6801 181.809C46.6601 180.999 46.5301 180.609 48.3901 178.219C48.6701 177.859 48.9201 177.459 49.0601 177.039C51.0201 170.949 52.9601 164.849 55.0301 158.359C58.8801 160.809 62.1401 162.829 65.3001 164.989C65.6901 165.259 65.7601 166.379 65.6001 167.019C64.6501 170.869 63.5701 174.689 62.5901 178.539C62.3701 179.399 62.3601 180.309 62.3701 181.539C62.5101 182.129 62.7401 182.429 62.7901 182.679Z" fill="#ECBEA0"/>
<path d="M58.4301 77.9691C57.4601 78.6691 55.0501 78.3191 53.3601 78.6191C52.4301 81.4991 53.2301 79.1591 55.3501 81.7691C58.9501 81.5991 60.3501 82.9391 64.2901 82.7991C64.1801 83.3491 63.0101 88.9391 58.0101 91.0991C55.2101 92.3091 52.5001 91.8791 51.5501 91.6791C50.9901 91.5591 48.9301 91.0891 46.8701 89.4591C44.8501 87.8691 43.4501 85.6391 42.5901 82.9391C41.0601 78.1691 41.0101 73.3891 43.2001 68.4191C43.6401 67.1991 44.2501 66.2591 44.6301 65.6191C49.3801 61.1391 54.5201 61.3691 58.9201 65.7291C58.8401 65.8891 61.4901 67.4691 61.2701 67.4391C59.6401 67.9891 62.5501 75.9391 61.1801 76.5291" fill="#F7F5F5"/>
<path d="M33.83 42.9592C34.67 35.8192 38.8101 30.5792 44.2301 25.9692C52.9001 18.5992 62.45 12.7892 73.74 10.7392C79.83 9.62916 86.1301 9.72916 92.7101 9.25916C92.2401 12.2092 92.12 14.8392 89.1101 15.1392C83.66 15.6792 78.1301 16.1792 72.7701 17.2592C61.3701 19.5592 51.45 24.3992 43.46 33.1092C40.41 36.4392 36.7301 41.4092 33.83 45.1292C33.64 45.2192 33.83 42.9592 33.83 42.9592Z" fill="#2A2A2B"/>
<path d="M116.03 99.9291C116 100.629 115.54 101.759 115.04 101.919C107.75 104.169 96.12 100.619 94.73 91.3991C93.88 85.7791 97.13 79.5391 101.8 76.2491L104.24 74.7191L108.17 73.2591L111.14 72.8792L112.44 73.0291L113.53 73.4791L114.06 74.1292L114.42 75.1691L114.82 77.0991L114.98 77.7291L115.04 79.1591L115.41 82.7991L115.84 88.0091L115.74 89.5091L115.76 90.3091L116.13 92.7392C116.13 92.7092 116.13 97.6591 116.03 99.9291Z" fill="#F6F6F5"/>
<path d="M126.23 183.599C125.52 187.109 124.89 186.959 121.97 184.769C121.08 184.099 119.47 183.519 118.63 183.849C115.65 185.029 116.05 182.759 115.87 181.049C115.74 179.799 115.56 178.469 115.14 177.319C113.75 173.499 112.39 169.759 110.88 165.939C114.66 164.229 118.61 162.259 122.47 160.769C121.67 163.189 119.96 165.099 120.93 167.519C121.28 168.389 121.63 169.259 121.92 170.159C123.3 174.499 124.85 179.259 126.23 183.599Z" fill="#EBBD9F"/>
<path d="M64.5198 83.2792C62.6998 83.2392 60.8597 83.2192 58.9997 83.2092C57.3997 83.1992 55.8097 83.1992 54.2497 83.2092C54.1697 83.4792 54.0898 83.7392 54.0098 84.0092C54.7198 84.6792 55.3798 85.8392 56.1598 85.9292C58.6198 86.1992 61.1197 86.0592 63.7097 86.0592C63.9797 85.9392 64.1497 85.8392 64.3197 85.7392C63.9997 86.2392 63.6797 86.7392 63.0697 87.3192C62.6997 87.5592 62.6198 87.7192 62.5498 87.8792C62.5498 87.8792 62.5997 87.8192 62.6297 87.8392C58.7197 88.0092 54.8597 87.8292 52.0997 84.4292C49.9897 81.8192 48.8497 78.9292 49.7797 76.0592C51.4697 75.7592 53.0197 75.8592 53.9897 75.1692C54.5097 74.7992 54.0397 73.0492 53.9597 71.4692C53.8797 70.6692 53.8697 70.3192 53.8597 69.9692C53.8597 69.9692 53.9097 70.0192 54.0997 70.0392C56.3397 69.0992 58.5898 68.1492 60.8298 67.2092C60.9698 67.2692 61.1997 67.3792 61.4497 67.5392C62.6497 68.2992 63.4997 69.6492 64.0697 72.2692C65.0197 76.5992 64.6398 81.8692 64.5198 83.2792Z" fill="#AB5C34"/>
<path d="M69.97 128.029C59.37 125.759 49.79 120.959 41.89 113.789C41.05 113.029 40.24 112.229 39.25 111.369C38.8 110.089 38.52 108.899 38.25 107.709C38.49 107.659 38.74 107.609 38.98 107.549C42.48 110.059 45.83 112.819 49.51 115.029C56.95 119.499 64.94 122.629 73.6 123.869C74.91 124.059 76.22 124.269 77.48 124.639C77.87 124.759 78.3 125.509 78.59 125.949C78.15 126.199 77.37 127.049 77.21 126.929C74.33 124.819 72.5 127.139 69.97 128.029Z" fill="#1C1C1C"/>
<path d="M105.06 10.2591C102.27 9.70914 98.8697 9.20915 96.2997 8.73915C96.2197 8.36914 96.8297 6.68915 96.7497 6.32915C97.7397 5.94915 98.8297 5.07914 99.6897 5.25914C111.19 7.68914 122.1 11.5091 131.48 18.9491C137.58 23.7891 142.07 29.7291 144.9 36.9591C145.35 38.1091 145.57 39.3492 145.57 40.7691C136.35 24.6192 123.45 14.8691 105.06 10.2591Z" fill="#282729"/>
<path d="M91.8299 8.38914C81.0299 7.08914 70.2499 8.86914 60.7999 13.3791C54.8699 16.2091 48.3899 20.3791 43.1099 23.5591C43.5099 12.9091 83.1999 -0.32086 95.0899 5.40914C95.2999 8.25914 93.5299 8.46914 91.8299 8.38914Z" fill="#282729"/>
<path d="M109.32 153.959C113.22 151.179 117.25 148.479 121.34 145.559C122.49 147.739 123.71 150.059 124.76 152.679C120.32 156.699 115.16 159.099 109.32 161.169C109.32 158.509 109.32 156.139 109.32 153.959Z" fill="#DAB0D3"/>
<path d="M104.65 128.209C98.0499 136.029 83.8499 137.489 75.3399 132.479C73.9299 131.649 72.9199 130.159 71.6899 128.789C73.3999 127.419 74.8899 127.929 76.5299 129.039C83.8099 133.949 91.6799 133.709 98.7799 128.419C100.67 127.009 102.54 127.069 104.65 128.209Z" fill="#E4C0DC"/>
<path d="M66.9299 151.729C69.4599 153.319 67.5899 155.349 67.3899 157.469C67.4299 158.339 67.1499 159.029 66.8799 159.499C65.6399 159.159 63.9699 158.329 63.0199 157.699C59.5999 155.429 56.2599 153.039 52.8999 150.689C53.5399 149.689 54.1799 148.679 54.7599 147.769C58.8699 149.219 62.6099 150.679 66.6699 151.949C66.8699 151.859 66.9499 151.739 66.9299 151.729Z" fill="#DAB0D3"/>
<path d="M84.2799 125.089C88.1399 125.109 91.7299 125.109 95.2899 125.109C95.9099 128.679 95.1899 130.499 91.1499 130.909C87.7099 131.249 83.8699 131.519 80.6899 129.329C80.7899 128.019 80.9099 126.569 81.0199 125.089C81.9799 125.079 82.9899 125.079 84.2799 125.089Z" fill="#E0B195"/>
<path d="M152.23 93.6791C149.99 95.2891 147.83 97.2291 145.3 98.7491C145.01 98.6491 144.28 98.4591 144.28 98.4591C144.33 97.7991 144.65 96.7391 144.75 96.0891C145.38 92.0791 146.03 88.0791 146.75 83.6191C148.17 84.3391 149.38 84.9491 150.82 85.8591C151.39 88.6291 151.9 91.1991 152.23 93.6791Z" fill="#BB7761"/>
<path d="M126.23 183.599C124.75 179.139 123.3 174.499 121.9 170.159C121.61 169.269 121.26 168.399 120.91 167.519C119.94 165.089 119.82 162.869 122.38 161.049C122.43 160.629 122.55 160.499 122.98 160.569C123.38 160.739 123.41 160.719 123.59 160.749C123.77 161.019 124.06 161.429 124.08 161.999C124.41 168.639 126.54 175.049 129.12 180.829C128.91 181.969 128.84 182.799 128.89 183.909C128.01 183.809 127.22 183.829 126.23 183.599Z" fill="#E6B195"/>
<path d="M61.69 55.0792C58.53 54.3192 55.23 53.4792 52.27 52.7392C54.55 47.1392 61.44 45.7691 65.12 50.2091C65.69 50.8991 66.37 52.8992 66.1 53.0792C64.88 53.8992 63.32 54.5492 61.69 55.0792Z" fill="#5F5142"/>
<path d="M152.23 93.6792C151.76 91.3492 150.99 88.4192 150.63 85.7392C152.24 84.5392 152 84.0292 150.77 83.2492C149.55 82.4692 148.33 82.0892 147.05 81.0292C146.87 80.6692 146.7 80.4592 146.68 80.3592C146.91 79.0692 147.42 77.3392 147.64 76.0792C151.69 76.1092 154.43 78.6392 155.05 82.8692C155.61 86.7192 154.6 90.4092 152.23 93.6792Z" fill="#CA8871"/>
<path d="M109.32 153.959C109.54 156.109 109.32 158.509 109.32 161.169C115.17 159.089 120.31 156.489 124.76 152.679C126.76 154.489 126.33 156.509 123.99 157.689C119.4 160.009 114.82 162.349 109.75 164.919C108.89 161.439 108.18 158.659 107.7 156.009C107.61 155.509 108.69 154.599 109.32 153.959Z" fill="#E4C0DC"/>
<path d="M109.25 128.859C108.15 128.309 106.92 127.559 105.76 127.189C103.21 126.359 100.82 124.569 98.2499 127.729C98.0999 127.289 97.7999 126.649 97.6499 126.209C98.3599 125.759 99.1599 124.999 99.9299 124.839C104.81 123.819 109.72 122.929 115 121.919C114.93 123.289 115.25 124.499 114.9 125.849C112.96 126.759 110.9 128.049 109.25 128.859Z" fill="#1C1C1C"/>
<path d="M101.79 59.9092C100.49 58.3192 100.43 56.5892 102.13 55.5192C104.1 54.2692 107.5 54.4692 108.6 55.9392C108.94 56.3892 109.22 56.8892 109.48 57.3892C110.13 58.6292 110.96 60.1592 111.75 61.7192C108.11 62.2392 104.82 61.8892 101.79 59.9092Z" fill="#5F5142"/>
<path d="M95.46 79.3991C96.14 74.8891 99.44 72.2091 103.22 69.4791C104.53 68.8691 105.53 68.4491 106.52 68.0391C106.96 67.9391 107.41 67.8391 108.01 67.6691C109.69 67.5391 111.22 67.4792 113 67.3792C113.91 68.7592 114.12 69.9691 111.94 69.9791C104.72 69.9791 99.75 73.9191 95.46 79.3991Z" fill="#8D5647"/>
<path d="M64.6297 65.1391C65.4197 68.0391 66.0497 70.8291 66.5197 73.7491C65.0097 69.0591 63.6197 64.6491 59.0197 61.3091C58.3797 60.9791 57.8897 60.7691 57.5297 60.6391C57.5297 60.6391 57.5297 60.4891 57.4897 60.2791C55.1097 59.4891 52.7697 58.9391 50.4497 58.2991C49.6897 58.0891 48.8797 57.5791 48.1597 57.2291C48.5897 56.6891 49.1497 56.1791 49.7397 55.5591C51.3097 55.8191 52.7197 56.1691 54.1397 56.5391C58.8897 57.7591 62.0397 60.9591 64.6297 65.1391Z" fill="#8D5647"/>
<path d="M128.78 180.969C125.99 175.139 124.32 167.929 124 161.469C126.47 165.629 129.25 170.479 129.45 175.599C129.47 176.139 130.09 176.639 130.38 177.189C130.76 177.889 131.84 179.149 131.62 179.519C131.26 180.139 129.76 180.619 128.78 180.969Z" fill="#D9A78C"/>
<path d="M148.03 110.249C146.13 111.749 144.16 112.829 142.14 114.119C141.81 114.329 140.78 114.459 140.26 114.399C140.94 110.409 142.27 106.419 143.06 102.569C143.31 102.469 143.56 102.379 143.81 102.279C145.19 104.779 146.57 107.559 148.03 110.249Z" fill="#1C1C1C"/>
<path d="M24.2297 66.5492C24.9597 65.5592 25.6897 64.7492 26.3097 63.9492C26.6297 64.0292 26.9397 64.1192 27.2597 64.1992C26.6097 69.4192 25.9597 74.6492 25.2097 80.5892C22.4897 75.6892 21.9997 71.3092 24.2297 66.5492Z" fill="#CA8871"/>
<path d="M117.88 95.8892C117.88 90.4192 117.88 85.2292 117.88 81.1592C119.75 90.0092 119.9 100.029 117.88 110.089C117.88 105.449 117.88 100.809 117.88 95.8892Z" fill="#202121"/>
<path d="M66.6699 160.999C66.5499 161.689 66.3299 162.549 66.0299 164.219C61.1699 160.389 56.6299 157.069 52.3899 153.589C51.9999 153.269 52.7199 151.319 52.9099 150.689C56.6299 153.519 59.7599 156.979 63.2899 159.629C64.2099 160.319 65.5499 160.559 66.6699 160.999Z" fill="#CEACCB"/>
<path d="M66.6701 160.999C65.4601 160.729 64.2101 160.319 63.2801 159.619C59.7501 156.969 56.3201 154.169 52.7701 151.239C52.6801 151.049 52.8101 150.759 52.9001 150.679C56.3601 152.949 59.6101 155.419 63.0201 157.689C63.9701 158.319 65.1601 158.609 66.5001 158.919C66.7601 158.779 66.9601 158.689 66.9601 158.689C66.9001 159.349 66.8201 160.179 66.6701 160.999Z" fill="#ECCCE3"/>
<path d="M109.25 128.859C110.77 127.899 113.11 126.589 114.89 125.849C114.78 127.499 113.97 129.639 113.64 131.699C112.1 130.719 110.67 129.829 109.25 128.859Z" fill="#2B2A2D"/>
<path d="M28.2897 120.289C27.7397 117.029 27.2397 113.989 26.7397 110.949C26.9697 110.909 27.1997 110.869 27.4197 110.829C28.4397 115.359 29.7697 120.389 30.7897 124.919C30.6197 124.979 30.1498 124.549 29.9798 124.609C29.4398 123.239 28.8997 121.879 28.2897 120.289Z" fill="#2A2A2B"/>
<path d="M47.8899 56.9492C48.7799 57.2192 49.6899 57.9092 50.4499 58.1192C52.7599 58.7692 55.1099 59.3092 57.5199 60.0792C57.5399 60.2492 57.5499 60.4892 57.4099 60.6792C56.8699 61.4692 54.6599 60.6892 52.1999 60.1392C50.8799 59.8492 48.9799 59.5092 46.6099 59.3792C46.8999 58.8992 47.2499 57.7592 47.8899 56.9492Z" fill="#0B0A0B"/>
<path d="M41.3401 84.9991C40.5501 83.8191 39.7801 82.4091 38.7801 81.0391C38.7001 80.4091 38.8501 79.7391 39.0001 79.0691C39.2701 79.0491 39.5301 79.0291 39.8001 78.9991C40.3201 80.9191 40.8401 82.8491 41.3401 84.9991Z" fill="#1A1513"/>
<path d="M95.6297 98.5192C95.1097 98.0292 94.5197 97.3492 93.9497 96.4592C94.4897 96.9292 95.0297 97.6392 95.6297 98.5192Z" fill="#D9A78C"/>
<path d="M25.9898 107.179C25.9598 106.419 26.0998 105.579 26.3898 104.589C26.4098 105.319 26.2898 106.209 25.9898 107.179Z" fill="#080A0A"/>
<path d="M40.1698 76.6492C40.0998 76.8792 39.9998 76.9892 39.9098 77.0992C39.8698 76.9392 39.8198 76.7692 39.7798 76.6092C39.8998 76.5792 40.0198 76.5592 40.1698 76.6492Z" fill="#1A1513"/>
<path d="M56.6498 93.5992C56.8298 93.6192 56.7698 93.8092 56.7598 93.9092C56.3398 94.0392 55.9298 94.0692 55.3198 94.0592C55.5598 93.8692 56.0198 93.7292 56.6498 93.5992Z" fill="#1A1513"/>
<path d="M52.64 93.8892C52.7 94.0492 52.61 94.0992 52.24 94.1292C51.87 94.1292 51.78 94.1492 51.69 94.1692C51.69 94.1692 51.53 93.9492 51.46 93.8292C51.75 93.7292 52.12 93.7492 52.64 93.8892Z" fill="#1A1513"/>
<path d="M48.1601 92.4691C47.9001 92.5191 47.5501 92.3891 47.0801 92.0991C47.3301 92.0691 47.7001 92.1791 48.1601 92.4691Z" fill="#1A1513"/>
<path d="M145.98 42.2392C146.07 42.1792 146.17 42.2092 146.26 42.2392C146.17 42.2692 146.07 42.2992 145.98 42.2392Z" fill="#282729"/>
<path d="M34.5598 43.3991C34.4898 43.6491 34.3998 43.8791 34.3198 44.1191C34.3098 43.9191 34.2998 43.7091 34.3898 43.4291C34.5098 43.3491 34.5498 43.3791 34.5598 43.3991Z" fill="#2A2A2B"/>
<path d="M38.1998 106.019C38.2798 106.089 38.2998 106.199 38.3098 106.319C38.2498 106.229 38.1898 106.149 38.1998 106.019Z" fill="#1C1C1C"/>
<path d="M96.1797 99.1492C96.0697 99.1792 95.9197 99.0592 95.6997 98.7992C95.7997 98.7792 95.9697 98.8892 96.1797 99.1492Z" fill="#D9A78C"/>
<path d="M96.81 99.7892C96.7 99.8192 96.53 99.6792 96.27 99.4092C96.38 99.3892 96.56 99.5092 96.81 99.7892Z" fill="#D9A78C"/>
<path d="M51.0597 93.5591C50.9997 93.6691 50.8897 93.6891 50.6597 93.6191C50.6897 93.5191 50.8597 93.4891 51.0597 93.5591Z" fill="#1A1513"/>
<path d="M49.01 92.8792C48.87 92.9792 48.76 92.9692 48.52 92.8292C48.61 92.7292 48.83 92.7492 49.01 92.8792Z" fill="#1A1513"/>
<path d="M63.52 88.8492C63.59 88.9892 63.55 89.0992 63.38 89.2992C63.31 89.1992 63.36 89.0092 63.52 88.8492Z" fill="#1A1513"/>
<path d="M66.4297 77.6692C66.5597 77.7092 66.5897 77.8092 66.5897 78.0392C66.4797 78.0392 66.4097 77.8792 66.4297 77.6692Z" fill="#1A1513"/>
<path d="M67.6698 102.469C70.7798 102.579 73.7498 102.889 76.7298 103.089C78.6898 103.219 80.6698 103.209 83.0798 103.259C83.7698 103.229 84.0098 103.189 84.2498 103.159C85.9498 103.679 87.6398 104.199 89.4598 104.839C90.4998 107.819 89.2898 109.519 86.7798 110.909C81.4898 113.839 72.8098 113.339 68.2098 109.599C65.5198 107.399 65.3098 105.249 67.6698 102.469ZM76.5298 105.229C74.3798 104.959 72.2398 104.629 70.0898 104.469C69.5498 104.429 68.6698 104.799 68.4998 105.219C68.3098 105.679 68.5498 106.729 68.9298 106.959C70.6498 107.979 72.4798 108.789 74.5598 110.049C78.0198 111.289 81.3698 110.919 84.7898 109.669C82.8998 106.239 80.5198 104.559 76.5298 105.229Z" fill="#7A1A25"/>
<path d="M81.2798 96.8692C80.9998 97.5192 80.6498 98.0092 80.0898 98.3292C78.9298 97.1892 77.9798 95.4592 77.0098 95.4392C75.7898 95.4192 74.5398 96.8092 73.3098 97.5892C72.9898 97.4492 72.6798 97.2992 72.2598 97.0892C73.3398 93.0892 76.4598 92.2292 80.4698 94.9192C80.8298 95.5892 81.0098 96.1492 81.2798 96.8692Z" fill="#1A1513"/>
<path d="M51.6001 94.2291C51.7801 94.1391 51.8801 94.1292 52.1001 94.1692C51.9901 94.2592 51.7501 94.2791 51.6001 94.2291Z" fill="#E5A98C"/>
<path d="M77.3799 100.669C79.2199 100.879 81.0899 101.309 83.0099 101.949L77.3799 100.669Z" fill="#EBB496"/>
<path d="M84.0798 103.079C83.9298 103.209 83.6798 103.249 83.2598 103.239C83.3798 103.119 83.6898 103.049 84.0798 103.079Z" fill="#E6B195"/>
<path d="M73.52 97.6192C74.53 96.8092 75.78 95.4192 77 95.4392C77.97 95.4592 78.92 97.1892 79.93 98.3692C77.91 98.2792 75.83 97.9692 73.52 97.6192Z" fill="#D7957B"/>
<path d="M76.7798 105.159C80.4398 104.189 82.9998 106.269 84.8998 109.689C81.4698 110.939 77.5498 111.439 74.0498 109.819C74.7998 108.199 75.9998 106.409 76.7798 105.159Z" fill="#C34B95"/>
<path d="M76.7799 105.199C76.1599 106.599 74.9799 108.389 74.0799 109.829C72.1799 109.129 70.5599 107.989 68.8399 106.979C68.4499 106.749 68.2099 105.699 68.4099 105.239C68.5799 104.829 69.4599 104.449 69.9999 104.489C72.1499 104.649 74.4699 104.779 76.7799 105.199Z" fill="#93344E"/>
<path d="M52.6501 93.3492C60.1446 93.3492 66.2201 85.9485 66.2201 76.8192C66.2201 67.6899 60.1446 60.2892 52.6501 60.2892C45.1556 60.2892 39.0801 67.6899 39.0801 76.8192C39.0801 85.9485 45.1556 93.3492 52.6501 93.3492Z" stroke="#0B0A0B" stroke-width="3" stroke-miterlimit="10"/>
<path d="M115.89 90.9892C114.07 90.9492 111.59 91.8391 109.73 91.8291C108.13 91.8191 106.54 91.8191 104.98 91.8291C104.9 92.0991 104.82 92.3591 104.74 92.6292C105.45 93.2992 106.11 94.4591 106.89 94.5491C109.35 94.8191 111.85 94.6791 114.44 94.6791C114.71 94.5591 116.12 94.4191 116.12 94.2191C116.12 95.0891 116.1 94.8391 116.1 96.3792C115.73 96.6192 113.34 96.3491 113.27 96.5091C113.27 96.5091 113.32 96.4491 113.35 96.4691C109.44 96.6391 105.58 96.4591 102.82 93.0591C100.71 90.4491 99.57 87.5591 100.5 84.6891C102.19 84.3891 103.74 84.4891 104.71 83.7991C105.23 83.4291 104.76 81.6791 104.68 80.0991C104.6 79.2991 104.59 78.9491 104.58 78.5991C104.58 78.5991 104.63 78.6491 104.82 78.6691C107.06 77.7291 111.83 75.3191 114.08 74.3691C114.23 74.4291 114.99 77.2891 114.98 77.5891C114.96 78.3091 115.22 78.9492 115.49 82.4892C115.68 85.0292 115.78 86.3391 115.83 88.0091C115.88 89.1991 115.89 90.2292 115.89 90.9892Z" fill="#AB5C34"/>
<path d="M25.9901 107.179C25.9901 107.179 23.4901 114.779 27.1401 124.629C30.7901 134.479 36.0601 148.099 36.0601 148.099" fill="#0B0A0B"/>
<path d="M35.5698 146.819L39.2598 156.589C39.2598 156.589 40.4898 163.889 35.5698 164.999C30.6498 166.119 30.6098 163.199 30.6098 163.199C30.6098 163.199 28.6598 161.529 27.2298 164.619C25.7998 167.709 31.5698 182.319 36.6198 185.659C41.6798 188.999 44.3098 189.819 44.3098 189.819V187.909C44.3098 187.909 39.1098 185.279 36.0598 181.759C33.0098 178.239 30.5298 175.059 29.4098 171.709C28.2898 168.359 28.9798 165.439 29.3198 165.359C29.6598 165.269 31.3798 167.079 33.6098 166.559C35.8398 166.039 37.6498 168.189 39.7898 165.099C41.9398 162.009 40.9098 155.139 40.9098 154.799C40.9098 154.459 37.2198 145.269 37.2198 145.269L35.2498 143.979L35.5698 146.819Z" fill="#0B0A0B"/>
<path d="M115.47 105.129C115.47 105.129 108.02 105.719 104.24 103.989C100.46 102.259 95.9601 102.159 93.3501 94.9492C90.7401 87.7392 94.5101 81.2392 94.5101 81.2392C94.5101 81.2392 104.13 71.1392 113.52 69.6492C122.91 68.1592 100.18 76.9792 100.18 76.9792L96.5401 79.9592L95.6301 81.3592L94.4701 83.4492L94.1001 86.3092L93.4401 88.7692L94.4701 90.3692V92.1992L95.1501 93.7492L96.8101 99.3492L97.9601 100.219L100.19 101.319L104.56 102.479L110.04 103.709L115.8 103.879L115.47 105.129Z" fill="#0B0A0B"/>
<path d="M23.29 64.0292C22.8 63.3492 25.9 61.4092 28.04 57.3292C29.72 54.1292 29.55 52.0192 30.19 47.9692C31.31 40.7892 33.7 35.5192 35.6 31.3092C37.28 27.5992 39.05 23.6792 42.47 19.5492C43.48 18.3192 47.7 13.3792 56.21 8.89917C57.57 8.18917 60.77 6.52916 65.4 5.01916C79.56 0.399165 92.81 1.64917 97.68 2.28917C111.5 4.08917 121.09 9.19917 123.61 10.5292C127.83 12.7692 133.09 15.6092 138.29 21.2592C138.29 21.2592 142.29 25.4992 144.78 30.1892C146 32.4792 146.87 34.8292 146.87 34.8292C146.91 34.9292 147.2 35.7292 147.49 36.6392C148.6 40.1692 149.14 43.9492 149.28 44.9592C150.11 50.9092 150.52 53.8792 150.31 56.8092C150.13 59.2992 149.67 61.9092 149.24 64.2792C148.43 68.7792 147.7 71.2192 149.02 72.5192C149.75 73.2392 150.39 72.7692 151.94 73.5492C154.55 74.8592 155.91 77.0692 156.32 77.7592C158.42 81.2692 157.89 84.9692 157.61 86.9492C157.02 91.0592 155.15 93.6992 153.06 96.6492C152.28 97.7592 146.64 102.039 145.53 101.569C145.17 101.419 147.45 99.5792 147.48 99.1692C147.53 98.1892 149.46 98.3992 151.26 96.6492C152.1 95.8292 152.69 95.0592 152.98 94.6792C153.26 94.3092 153.72 93.6992 154.18 92.8792C154.73 91.8992 154.75 91.5792 155.73 89.0992C156.48 87.1892 156.53 87.2092 156.59 86.7792C156.74 85.7292 156.44 85.4892 156.16 83.3492C155.91 81.4192 156.12 81.3592 155.82 80.3392C155.59 79.5592 155.26 78.9592 154.62 77.7592C153.96 76.5292 153.62 75.9192 153.34 75.6692C152.35 74.7992 151.62 75.2592 149.56 74.3292C148.64 73.9092 148.16 73.6892 147.76 73.2092C146.76 72.0192 147.07 70.2492 147.33 68.8292C148.19 64.2192 148.6 62.2692 148.79 61.1892C149.39 57.8492 149.24 55.2192 149.05 51.5692C148.96 49.8092 148.84 47.8192 148.36 45.2192C147.95 42.9992 147.22 40.6792 145.78 36.1192C144.78 32.9592 144.27 31.3592 143.89 30.5392C141.98 26.4492 139.53 23.9392 138.82 23.2392C137.89 22.3192 137.05 21.6492 135.81 20.6592C133.9 19.1392 132.45 18.1692 131.43 17.4792C127.33 14.6992 126.72 13.9092 124.47 12.4092C120.97 10.0692 118.07 9.06917 112.62 7.16917C107.3 5.31917 102.88 4.33917 101.11 3.98917C95.82 2.94917 81.08 0.0491652 64.53 6.30917C59.93 8.04917 52.31 11.0292 45.38 18.3292C42.64 21.2192 37.68 26.4492 35.42 34.5592C33.88 40.0792 31.45 54.6292 29.67 59.5492C29.55 59.8792 29.13 60.9992 28.12 62.0392C26.39 63.8392 23.7 64.6092 23.29 64.0292Z" fill="#0B0A0B"/>
</g>
</svg>
