<svg width="24" height="37" viewBox="0 0 24 37" fill="none" xmlns="http://www.w3.org/2000/svg">
<path d="M22.3301 31.0798C20.2101 27.4098 15.3201 21.2198 15.3201 19.5898C15.3201 18.8898 15.3201 15.9198 15.3201 12.7698C13.2001 12.9598 10.1801 12.9498 8.59007 12.8798C8.59007 15.9898 8.59007 18.8998 8.59007 19.5898C8.59007 21.2198 3.70008 27.4098 1.58008 31.0798C-0.539921 34.7498 2.34008 36.2898 3.05008 36.2898H11.2501H11.5001H11.7501H20.8701C21.5601 36.2998 24.4401 34.7498 22.3301 31.0798Z" fill="url(#paint0_linear_125_6259)"/>
<path d="M22.8801 30.7598C22.0801 29.3798 20.8901 27.6398 19.7401 25.9498C18.1401 23.6098 15.9501 20.4098 15.9501 19.5898V12.7698V12.0598L15.2501 12.1198C13.1001 12.3198 10.0301 12.2898 8.60006 12.2298L7.93007 12.1998V12.8698V19.5798C7.93007 20.4098 5.74007 23.6098 4.14007 25.9398C2.99007 27.6198 1.80007 29.3598 1.00007 30.7498C-0.239934 32.8998 0.100066 34.3898 0.610066 35.2598C1.27007 36.3998 2.44006 36.9298 3.03006 36.9298H11.2301H11.4801H11.7301H20.8501C21.4401 36.9298 22.6101 36.3998 23.2701 35.2598C23.7801 34.3998 24.1201 32.9098 22.8801 30.7598ZM20.8601 35.6498H11.7401H11.4901H11.2401H3.04007H3.05007C2.89006 35.6398 2.11006 35.3298 1.71006 34.5698C1.27006 33.7498 1.42007 32.6498 2.14007 31.4098C2.91007 30.0698 4.09007 28.3498 5.23007 26.6898C7.72007 23.0498 9.24006 20.7598 9.24006 19.5998V12.8898L8.57007 13.5298C10.0901 13.5998 13.1601 13.6198 15.3901 13.4198L14.6901 12.7798V19.5998C14.6901 20.7598 16.2101 23.0498 18.7001 26.6898C19.8401 28.3498 21.0101 30.0698 21.7901 31.4098C22.5101 32.6598 22.6601 33.7498 22.2201 34.5698C21.7901 35.3298 21.0201 35.6398 20.8601 35.6498Z" fill="#AE1917"/>
<g opacity="0.2">
<path d="M7.90007 2.05981C7.63007 2.37981 7.56007 2.79981 8.05007 3.14981C8.37007 3.36981 8.58007 4.17981 8.58007 4.17981C8.58007 4.17981 8.58007 17.9498 8.58007 19.5798C8.58007 21.2098 3.69007 27.3998 1.57007 31.0698C-0.549932 34.7398 2.33007 36.2798 3.04007 36.2798H3.49007C2.37007 34.7998 3.18007 33.5598 3.18007 33.5598C3.18007 33.5598 9.46006 22.6498 9.77007 21.8098C10.0901 20.9598 10.0301 19.3398 10.0301 19.3398V4.61981C9.91007 3.21981 8.67007 2.42981 7.90007 2.05981Z" fill="white"/>
</g>
<path d="M17.8802 31.93C17.8802 32.75 17.2202 33.41 16.4002 33.41C15.5802 33.41 14.9202 32.75 14.9202 31.93C14.9202 31.11 15.5802 30.45 16.4002 30.45C17.2202 30.45 17.8802 31.11 17.8802 31.93Z" fill="url(#paint1_linear_125_6259)"/>
<path d="M17.5601 31.9299C17.5601 32.5699 17.0401 33.0899 16.4001 33.0899C15.7601 33.0899 15.2401 32.5699 15.2401 31.9299C15.2401 31.2899 15.7601 30.7699 16.4001 30.7699C17.0401 30.7699 17.5601 31.2899 17.5601 31.9299ZM16.4001 30.1299C15.4101 30.1299 14.6001 30.9399 14.6001 31.9299C14.6001 32.9199 15.4101 33.7299 16.4001 33.7299C17.3901 33.7299 18.2001 32.9199 18.2001 31.9299C18.2001 30.9299 17.3901 30.1299 16.4001 30.1299Z" fill="#AE1917"/>
<path d="M22.88 30.7599C22.08 29.3799 20.89 27.6399 19.74 25.9499C18.14 23.6099 15.95 20.4099 15.95 19.5899V4.18992L15.93 4.34992C16 4.07992 16.15 3.73992 16.23 3.65992C16.23 3.65992 16.22 3.66992 16.21 3.66992C16.75 3.28992 16.96 2.71992 16.78 2.15992C16.54 1.41992 15.7 0.919922 15.06 0.919922H14.24H11.72H11.22H9.62005H8.80005C8.16005 0.919922 7.32005 1.41992 7.08005 2.15992C6.90005 2.71992 7.11005 3.27992 7.65005 3.66992C7.64005 3.65992 7.63004 3.65992 7.63004 3.65992C7.71004 3.73992 7.85005 4.06992 7.93005 4.34992L7.91005 4.17992V19.5799C7.91005 20.4099 5.72005 23.6099 4.12005 25.9399C2.97005 27.6199 1.78005 29.3599 0.980046 30.7499C-0.259954 32.8999 0.0800469 34.3899 0.590047 35.2599C1.25005 36.3999 2.42005 36.9299 3.01005 36.9299H11.21H11.46H11.71H20.83C21.42 36.9299 22.59 36.3999 23.25 35.2599C23.78 34.3999 24.12 32.9099 22.88 30.7599ZM20.86 35.6499H11.74H11.49H11.24H3.04005H3.05005C2.89005 35.6399 2.11005 35.3299 1.71005 34.5699C1.27005 33.7499 1.42005 32.6499 2.14005 31.4099C2.91005 30.0699 4.09005 28.3499 5.23005 26.6899C7.72005 23.0499 9.24004 20.7599 9.24004 19.5999V4.19992V4.11992L9.22005 4.03992C9.14005 3.72992 8.90005 2.96993 8.44005 2.64993C8.36005 2.58993 8.34004 2.55993 8.34004 2.55993C8.34004 2.56993 8.35004 2.57992 8.34004 2.58992C8.36004 2.46992 8.67005 2.23993 8.83005 2.23993H9.65005H11.25H11.75H14.27H15.09C15.26 2.23993 15.56 2.46992 15.58 2.58992C15.58 2.57992 15.58 2.56993 15.58 2.55993C15.58 2.55993 15.5601 2.59993 15.4801 2.64993C15.0201 2.96993 14.78 3.72992 14.7 4.03992L14.68 4.11992V4.19992V19.5999C14.68 20.7599 16.2 23.0499 18.69 26.6899C19.83 28.3499 21 30.0699 21.78 31.4099C22.5 32.6599 22.65 33.7499 22.21 34.5699C21.79 35.3299 21.02 35.6399 20.86 35.6499Z" fill="#020203"/>
<path d="M15.7502 28.9499C15.7502 29.2299 15.5202 29.4599 15.2402 29.4599C14.9602 29.4599 14.7302 29.2299 14.7302 28.9499C14.7302 28.6699 14.9602 28.4399 15.2402 28.4399C15.5202 28.4399 15.7502 28.6699 15.7502 28.9499Z" fill="url(#paint2_linear_125_6259)"/>
<path d="M15.6401 28.9498C15.6401 29.1698 15.4601 29.3498 15.2401 29.3498C15.0201 29.3498 14.8401 29.1698 14.8401 28.9498C14.8401 28.7298 15.0201 28.5498 15.2401 28.5498C15.4601 28.5498 15.6401 28.7298 15.6401 28.9498ZM15.2401 28.3198C14.9001 28.3198 14.6101 28.5998 14.6101 28.9498C14.6101 29.2898 14.8901 29.5798 15.2401 29.5798C15.5801 29.5798 15.8701 29.2998 15.8701 28.9498C15.8701 28.6098 15.5901 28.3198 15.2401 28.3198Z" fill="#AE1917"/>
<path d="M16.9702 28.24C16.9702 28.38 16.8602 28.5 16.7102 28.5C16.5602 28.5 16.4502 28.39 16.4502 28.24C16.4502 28.09 16.5602 27.98 16.7102 27.98C16.8602 27.98 16.9702 28.09 16.9702 28.24Z" fill="url(#paint3_linear_125_6259)"/>
<path d="M16.9101 28.2399C16.9101 28.3499 16.8201 28.4399 16.7101 28.4399C16.6001 28.4399 16.5101 28.3499 16.5101 28.2399C16.5101 28.1299 16.6001 28.0399 16.7101 28.0399C16.8201 28.0299 16.9101 28.1299 16.9101 28.2399ZM16.7101 27.9199C16.5401 27.9199 16.4001 28.0599 16.4001 28.2299C16.4001 28.3999 16.5401 28.5399 16.7101 28.5399C16.8801 28.5399 17.0201 28.3999 17.0201 28.2299C17.0201 28.0599 16.8801 27.9199 16.7101 27.9199Z" fill="#AE1917"/>
<defs>
<linearGradient id="paint0_linear_125_6259" x1="0.805978" y1="24.5352" x2="23.0907" y2="24.5352" gradientUnits="userSpaceOnUse">
<stop offset="0.8422" stop-color="#E41B17"/>
<stop offset="1" stop-color="#AE1917"/>
</linearGradient>
<linearGradient id="paint1_linear_125_6259" x1="14.9189" y1="31.9278" x2="17.8776" y2="31.9278" gradientUnits="userSpaceOnUse">
<stop offset="0.8422" stop-color="#E41B17"/>
<stop offset="1" stop-color="#AE1917"/>
</linearGradient>
<linearGradient id="paint2_linear_125_6259" x1="14.7276" y1="28.9498" x2="15.7543" y2="28.9498" gradientUnits="userSpaceOnUse">
<stop offset="0.8422" stop-color="#E41B17"/>
<stop offset="1" stop-color="#AE1917"/>
</linearGradient>
<linearGradient id="paint3_linear_125_6259" x1="16.4542" y1="28.2358" x2="16.9675" y2="28.2358" gradientUnits="userSpaceOnUse">
<stop offset="0.8422" stop-color="#E41B17"/>
<stop offset="1" stop-color="#AE1917"/>
</linearGradient>
</defs>
</svg>
