<svg width="223" height="224" viewBox="0 0 223 224" fill="none" xmlns="http://www.w3.org/2000/svg">
<g id="Mundo_Vermelho">
<path id="Vector" d="M182.962 25.9006C230.21 65.3484 236.567 135.654 197.085 182.936C157.637 230.219 87.3317 236.541 40.049 197.059C-7.2336 157.611 -13.5563 87.3059 25.9261 40.0235C65.3741 -7.22462 135.68 -13.5473 182.962 25.9006Z" fill="#AE1917"/>
<g id="Group">
<g id="Group_2">
<path id="Vector_2" d="M171.451 152.353C168.977 145.825 156.915 140.705 154.579 138.746C152.242 136.787 134.855 144.553 131.006 146.787C127.158 149.02 127.707 151.941 127.707 151.941C127.707 151.941 117.433 175.548 119.254 181.046C121.11 186.544 101.076 195.1 97.0904 192.763C93.1044 190.427 79.6687 185.169 78.2598 184.482C76.851 183.795 53.1409 190.255 51.3884 191.767C50.5637 192.488 48.8456 197.127 47.5055 202.797C90.699 233.139 149.287 228.775 187.532 193.004C182.756 188.502 177.43 185.375 171.76 179.843C164.372 172.696 168.599 174.723 170.557 166.476C172.516 158.161 173.925 158.848 171.451 152.353Z" fill="#E41B17"/>
<path id="Vector_3" d="M186.707 165.274C188.391 168.641 190.693 170.428 194.335 168.023C197.016 166.27 198.012 163.521 199.352 160.807C200.555 158.436 202.376 156.099 203.27 153.487C217.496 109.847 187.016 120.156 191.724 139.743C193.373 146.581 185.676 148.677 183.717 149.192C175.024 151.529 184.783 161.391 186.707 165.274Z" fill="#E41B17"/>
<path id="Vector_4" d="M75.5793 5.93605C78.6376 16.7602 84.4448 28.5464 95.5439 31.5359C117.398 37.3775 120.732 20.3682 135.198 49.3012C149.665 78.2342 133.652 77.2377 157.121 94.8312C180.556 112.425 197.394 119.538 203.442 111.703C209.49 103.868 180.831 76.4817 200.315 59.0944C202.651 57.0327 204.919 55.4177 207.119 54.1463C200.865 43.7345 192.824 34.1475 182.962 25.9349C152.001 0.0601034 111.144 -6.1251 75.5793 5.93605Z" fill="#E41B17"/>
<path id="Vector_5" d="M12.1122 123.764C22.0429 120.191 22.9707 118.473 43.0727 119.916C63.1747 121.359 56.0961 135.757 64.4461 147.681C72.7962 159.604 80.8713 165.377 87.7782 164.209C94.685 163.04 114.168 136.719 104.272 131.427C94.3414 126.101 82.7269 116.892 72.7962 108.611C62.8654 100.329 75.3733 98.4051 79.325 85.3474C83.2767 72.3241 64.5836 59.6788 61.3879 56.9986C58.1922 54.3183 39.3616 51.9473 30.9771 54.8681C27.4378 56.1052 20.4623 57.2391 13.5554 58.1669C0.841339 81.4301 -2.80107 107.992 2.11275 133.042C5.23972 130.843 6.71731 125.723 12.1122 123.764Z" fill="#E41B17"/>
<path id="Vector_6" d="M99.599 97.7517C95.9566 97.5111 91.3176 87.3055 89.0841 90.0889C88.2938 91.0854 87.6409 92.185 87.1942 93.3189C85.0981 98.4733 87.1942 104.521 90.9397 108.473C94.101 111.84 108.19 120.396 109.598 121.084C111.007 121.771 114.478 124.142 116.54 126.41C117.674 127.612 118.876 122.63 119.014 122.115C119.804 118.953 135.508 110.878 133.618 108.095C118.464 86.206 133.79 88.8518 115.234 87.1337C103.757 86.1029 108.533 98.3358 99.599 97.7517Z" fill="#E41B17"/>
</g>
</g>
<g id="Group_3" opacity="0.4">
<path id="Vector_7" opacity="0.2" d="M202.309 47.1022C168.462 95.9309 98.9124 182.111 27.954 184.963C48.3653 208.261 78.2949 222.968 111.695 222.968C173.169 222.968 222.995 173.143 222.995 111.669C222.995 87.5809 215.332 65.3142 202.309 47.1022Z" fill="#222A3C"/>
<path id="Vector_8" opacity="0.2" d="M222.925 108.164C187.635 152.491 123.824 211.904 42.179 198.605C61.2157 213.862 85.3725 223.003 111.66 223.003C173.134 223.003 222.959 173.177 222.959 111.703C222.994 110.501 222.959 109.332 222.925 108.164Z" fill="#222A3C"/>
</g>
<path id="Vector_9" opacity="0.3" d="M152.414 38.6492C167.259 63.9055 150.352 101.429 114.615 122.39C78.9129 143.385 37.9186 139.915 23.0741 114.624C8.22953 89.3679 25.1358 51.8443 60.8383 30.8834C96.5408 9.88804 137.535 13.3586 152.414 38.6492Z" fill="url(#paint0_linear_123_2079)"/>
</g>
<defs>
<linearGradient id="paint0_linear_123_2079" x1="63.2948" y1="45.3153" x2="114.659" y2="109.968" gradientUnits="userSpaceOnUse">
<stop stop-color="white"/>
<stop offset="1" stop-color="white" stop-opacity="0"/>
</linearGradient>
</defs>
</svg>
