<svg width="276" height="18" viewBox="0 0 276 18" fill="none" xmlns="http://www.w3.org/2000/svg">
<g id="Barra_Mundo_Vermelho">
<path id="Vector" d="M267.465 16.07H8.535C4.37172 16.07 1 12.6983 1 8.535C1 4.37172 4.37172 1 8.535 1H267.465C271.628 1 275 4.37172 275 8.535C275 12.6983 271.628 16.07 267.465 16.07Z" stroke="url(#paint0_linear_123_2101)" stroke-width="2" stroke-miterlimit="10"/>
<path id="Vector_2" d="M6.73341 13C5.77674 13 5 10.9835 5 8.5C5 6.01646 5.77674 4 6.73341 4H27.2666C28.2233 4 29 6.01646 29 8.5C29 10.9835 28.2233 13 27.2666 13H6.73341Z" fill="url(#paint1_linear_123_2101)"/>
</g>
<defs>
<linearGradient id="paint0_linear_123_2101" x1="0.620814" y1="8.535" x2="275.382" y2="8.535" gradientUnits="userSpaceOnUse">
<stop offset="0.8422" stop-color="#E41B17"/>
<stop offset="1" stop-color="#AE1917"/>
</linearGradient>
<linearGradient id="paint1_linear_123_2101" x1="100.375" y1="36.3241" x2="8.77346" y2="31.7882" gradientUnits="userSpaceOnUse">
<stop offset="0.8422" stop-color="#E41B17"/>
<stop offset="1" stop-color="#AE1917"/>
</linearGradient>
</defs>
</svg>
