<svg width="24" height="36" viewBox="0 0 24 36" fill="none" xmlns="http://www.w3.org/2000/svg">
<path d="M22.3299 30.0801C20.2099 26.4101 15.3199 20.2201 15.3199 18.5901C15.3199 16.9601 15.3199 3.19009 15.3199 3.19009C15.3199 3.19009 15.5299 2.38009 15.8499 2.16009C16.7699 1.50009 15.7299 0.590088 15.0799 0.590088C14.4299 0.590088 14.2599 0.590088 14.2599 0.590088H11.7399H11.2399H9.63995C9.63995 0.590088 9.47995 0.590088 8.81995 0.590088C8.16995 0.590088 7.11995 1.51009 8.04995 2.16009C8.36995 2.38009 8.57995 3.19009 8.57995 3.19009C8.57995 3.19009 8.57995 16.9601 8.57995 18.5901C8.57995 20.2201 3.68995 26.4101 1.56995 30.0801C-0.550054 33.7501 2.32995 35.2901 3.03995 35.2901H11.2399H11.4899H11.7399H20.8599C21.5599 35.3001 24.4399 33.7501 22.3299 30.0801Z" fill="white"/>
</svg>
