<svg width="24" height="36" viewBox="0 0 24 36" fill="none" xmlns="http://www.w3.org/2000/svg">
<path d="M22.3301 30.0801C20.2101 26.4101 15.3201 20.2201 15.3201 18.5901C15.3201 16.9601 15.3201 3.19009 15.3201 3.19009C15.3201 3.19009 15.5301 2.38009 15.8501 2.16009C16.7701 1.50009 15.7301 0.590088 15.0801 0.590088C14.4301 0.590088 14.2601 0.590088 14.2601 0.590088H11.7401H11.2401H9.64007C9.64007 0.590088 9.48007 0.590088 8.82007 0.590088C8.17007 0.590088 7.12007 1.51009 8.05007 2.16009C8.37007 2.38009 8.58007 3.19009 8.58007 3.19009C8.58007 3.19009 8.58007 16.9601 8.58007 18.5901C8.58007 20.2201 3.69007 26.4101 1.57007 30.0801C-0.549932 33.7501 2.33007 35.2901 3.04007 35.2901H11.2401H11.4901H11.7401H20.8601C21.5601 35.3001 24.4401 33.7501 22.3301 30.0801Z" fill="white"/>
</svg>
