<svg width="100" height="100" viewBox="0 0 100 100" fill="none" xmlns="http://www.w3.org/2000/svg">
<mask id="mask0_203_3" style="mask-type:luminance" maskUnits="userSpaceOnUse" x="0" y="0" width="100" height="100">
<path d="M77.4262 100H22.5738C10.109 100 0 89.891 0 77.4262V22.5738C0 10.109 10.109 0 22.5738 0H77.4262C89.891 0 100 10.109 100 22.5738V77.4262C100 89.891 89.8969 100 77.4262 100Z" fill="white"/>
</mask>
<g mask="url(#mask0_203_3)">
<path d="M16.8241 51.6758C16.5722 52.6486 16.8535 52.9357 17.8145 52.7248C18.2834 52.6251 18.7639 52.5958 19.4847 52.5021C19.2386 52.924 19.1448 53.1233 19.0159 53.2991C18.0489 54.6059 17.9669 55.9948 18.7346 57.3896C18.8987 57.6884 19.4789 58.0518 19.7074 57.9697C20.2524 57.7588 20.059 57.2724 19.7953 56.8563C19.3675 56.1882 19.391 55.485 19.6781 54.7583C20.2407 56.6453 21.149 58.4737 20.4986 60.6596C17.8614 59.9857 15.9627 58.5265 14.9078 55.9421C15.0954 55.1392 15.1774 54.4243 15.3942 53.7562C15.658 52.9357 15.8279 52.0098 16.8241 51.6758Z" fill="#79A33F"/>
<path d="M16.8198 51.6762C15.8294 52.0102 15.6595 52.9361 15.3958 53.7566C15.1789 54.4246 15.091 55.1396 14.9035 55.878C13.8955 53.4225 13.8721 50.9788 15.4309 48.6874C16.2279 47.5154 17.3648 46.8649 18.8944 46.859C19.0057 46.9469 19.0409 46.9704 19.0877 46.9879C19.0819 47.8846 19.0702 48.7812 18.9823 49.7599C17.8336 49.965 16.9487 50.7444 16.8198 51.6762Z" fill="#89C060"/>
<path d="M16.89 51.6642C16.9486 50.7442 17.8335 49.9647 18.9587 49.8417C19.07 50.2695 19.1169 50.7031 19.1697 51.1309C18.3727 51.3185 17.6694 51.4884 16.89 51.6642Z" fill="#79A33F"/>
<path d="M19.0926 46.9466C19.0398 46.9759 19.0046 46.9466 18.9636 46.8762C19.0164 46.8176 19.0691 46.8411 19.0926 46.9466Z" fill="#79A33F"/>
<path d="M77.3735 26.3654C77.4087 26.342 77.4497 26.3537 77.4732 26.3947C77.4439 26.4181 77.3853 26.3947 77.3735 26.3654Z" fill="white"/>
<path d="M85.6483 64.8734C83.9664 67.0359 80.6202 68.12 77.7252 67.4226C78.3992 65.0785 79.0672 62.7403 79.747 60.3786C81.0187 61.1345 81.2766 62.6699 80.3975 63.7951C80.2686 63.9592 80.0459 64.0705 79.9814 64.2522C79.8642 64.5687 79.8349 64.9144 79.7646 65.2485C80.1338 65.2133 80.6143 65.3188 80.8605 65.1313C82.5717 63.8068 82.6654 61.2635 81.1125 59.7046C80.8312 59.4233 80.5264 59.1655 80.0576 58.7377C81.7747 58.5033 83.1401 58.8432 84.4353 59.5757C84.74 59.7457 85.0623 59.8922 85.4432 60.1266C85.5721 61.7206 85.6366 63.2267 85.7011 64.7386C85.7011 64.7386 85.7011 64.721 85.6776 64.7328C85.6366 64.7562 85.6015 64.7679 85.6015 64.7738C85.6132 64.8031 85.6307 64.8383 85.6483 64.8734Z" fill="#79A33F"/>
<path d="M85.7536 64.7034C85.6305 63.2207 85.5719 61.7088 85.5016 60.1206C86.1521 59.5756 86.0466 59.0951 85.4547 58.7083C84.8862 58.3391 84.2592 58.0637 83.6028 57.6476C83.386 57.3722 83.2629 57.1202 83.0637 57.0147C82.3722 56.6631 81.6514 56.3583 80.9364 56.0419C81.2177 54.5709 81.3056 54.5006 82.7824 54.4889C85.607 54.4713 87.4413 56.1532 87.6582 58.972C87.8281 61.1286 87.1424 63.0098 85.7536 64.7034Z" fill="#89C060"/>
<path d="M80.901 56.1066C81.6453 56.3644 82.3661 56.6692 83.0576 57.0208C83.2569 57.1204 83.3799 57.3724 83.5382 57.6244C82.5947 57.5482 81.6512 57.4017 80.6373 57.2493C80.7135 56.8977 80.7897 56.5344 80.901 56.1066Z" fill="#79A33F"/>
<path d="M21.3076 67.3992L27.5019 74.6659L39.3104 79.864L52.9356 81.3467L65.9923 79.6472L70.8505 77.1859L75.5446 70.3117L83.034 46.3373C83.1864 44.251 83.1805 41.4615 82.5652 38.2618C82.0612 35.6247 81.276 33.4271 80.5376 31.7276C79.5706 30.4852 78.6095 29.237 77.6426 27.9946C76.91 27.3148 76.1716 26.635 75.4391 25.9552C74.1967 28.4224 72.9543 30.8896 71.7178 33.3626C67.9672 35.2731 64.2108 37.1835 60.4602 39.094C55.7134 39.2346 50.9665 39.3694 46.2197 39.5101C42.1175 37.8399 38.0211 36.1697 33.9189 34.4936C31.8913 32.5422 29.8695 30.5965 27.8418 28.6451C27.4668 27.8012 27.0858 26.9573 26.7108 26.1134C25.5915 27.0569 24.2495 28.4048 23.0422 30.2332C20.5516 34.0131 20.0125 37.7754 19.8777 39.7972C19.9597 42.3933 20.0476 44.9836 20.1297 47.5797C20.5165 54.1901 20.915 60.7946 21.3076 67.3992Z" fill="#678B44"/>
<path d="M68.683 77.5959C68.812 78.2933 68.4193 78.598 67.8392 78.8558C64.2702 80.4323 60.5197 81.2937 56.6577 81.7039C56.4526 81.7274 56.2475 81.745 56.0072 81.7625C55.8607 82.4892 55.9135 82.8701 56.8218 83.0284C59.3652 83.4679 61.8089 84.2004 63.6315 86.3922C65.747 88.7597 67.8509 90.9925 69.8024 93.3542C71.1326 94.9658 71.2498 94.5907 69.8141 96.4543C69.65 96.6711 69.5093 97.0755 69.5972 97.2865C70.6345 99.6247 71.7128 101.94 72.7911 104.319C72.9786 104.694 73.1544 105.01 73.3361 105.385C73.7112 106.727 74.0745 108.005 74.4671 109.277C74.5668 109.593 74.7719 109.874 74.9535 110.226C76.612 111.879 75.0473 113.103 74.4554 114.404C74.221 114.926 73.7112 115.336 73.2951 115.764C73.1896 115.869 72.9435 115.823 72.7852 115.893C72.5567 115.998 72.3047 116.11 72.1465 116.291C71.0272 117.545 69.8434 117.499 68.6772 116.227C68.4135 115.94 67.8509 115.711 67.4758 115.77C65.7588 116.034 64.5691 115.137 64.7215 113.367C64.8152 112.224 64.4929 111.281 64.03 110.249C63.7838 109.493 63.5377 108.808 63.2916 108.116C63.2212 108.14 63.1509 108.163 63.0806 108.181C63.3267 109.019 63.567 109.857 63.8249 110.765C63.8952 111.123 63.9186 111.427 64.0182 111.697C64.3288 112.547 64.1941 113.203 63.2154 113.555C62.9224 113.613 62.688 113.666 62.3774 113.707C61.7503 113.801 61.1995 113.9 60.5665 114.006C57.2555 114.451 54.0265 114.897 50.7095 115.33C49.725 115.33 48.8284 115.336 47.8438 115.33C45.0661 115.19 42.4114 114.815 39.8211 114.029C39.5222 113.941 39.1941 113.959 38.8131 113.906C38.4674 113.83 38.1919 113.777 37.9165 113.666C37.4184 113.01 37.5708 112.359 37.77 111.697C37.9048 111.252 37.9693 110.789 38.1275 110.296C38.2681 109.74 38.356 109.224 38.485 108.679C38.5436 108.538 38.5611 108.433 38.5787 108.321C38.5436 108.316 38.5084 108.316 38.4732 108.31C38.4674 108.444 38.4557 108.579 38.4029 108.755C38.2154 109.318 38.0806 109.839 37.9282 110.419C37.6528 111.281 37.3305 112.066 37.1605 112.887C37.0082 113.613 37.0316 114.381 36.9261 115.16C36.4339 115.981 35.7541 116.414 34.8809 116.162C34.1718 115.957 33.8378 116.244 33.3514 116.684C32.865 117.129 32.0035 117.727 31.564 117.563C30.3216 117.1 29.1144 116.397 28.0771 115.559C27.45 115.049 27.1394 114.129 26.7351 113.361C26.1901 112.336 26.3952 111.668 27.579 110.431C28.0068 108.872 28.4053 107.378 28.7745 105.878C28.8448 105.596 28.8155 105.286 28.8331 104.993C28.8799 104.905 28.9327 104.817 28.9796 104.67C30.1575 103.774 30.263 102.338 30.8373 101.172C31.4702 99.8708 31.9566 98.4937 32.4371 97.1282C32.5368 96.8528 32.443 96.3898 32.2613 96.1496C30.6908 94.0399 30.8314 94.79 32.3024 92.8092C32.9763 91.9067 33.7323 91.0687 34.5293 90.1252C36.0529 88.5429 37.4653 87.0134 38.9421 85.5424C40.1844 84.3 41.6612 83.421 43.4017 83.0342C43.9468 82.9112 44.4976 82.8233 45.0192 82.7295C45.2126 81.8798 44.902 81.6453 44.0991 81.493C41.6495 81.0242 39.2234 80.4147 36.7913 79.8404C36.0764 79.6704 35.3849 79.4184 34.623 79.1782C33.5565 78.6683 32.5485 78.1819 31.5464 77.6838C28.6221 76.248 25.9791 74.4137 23.6057 72.181C22.6505 70.8566 21.5722 69.6024 20.7752 68.1901C19.6969 66.2797 19.1753 64.2051 20.0251 62.1775C18.6655 61.3863 17.259 60.7768 16.0987 59.8568C12.5649 57.0438 11.6683 50.785 14.8328 47.3392C16.0166 46.0499 17.4817 45.4815 19.3335 45.4932C19.4214 44.4852 19.5093 43.5183 19.5914 42.5513C19.6734 41.6313 19.6969 40.6995 19.8668 39.797C19.9254 39.4747 20.3356 39.2227 20.7048 38.9648C20.9686 39.3692 21.2381 39.7501 21.2381 40.1252C21.244 41.3383 21.1502 42.5513 21.0565 43.823C20.0895 48.019 20.488 52.0919 21.5839 56.1765C21.6308 56.3113 21.6659 56.3933 21.707 56.5516C21.8007 56.9266 21.8945 57.2314 21.9765 57.6123C22.3809 59.3235 22.0762 60.8999 21.4725 62.4119C20.8982 63.8418 21.0389 65.2189 21.578 66.5903C22.252 68.3015 23.2951 69.7782 24.6781 71.0851C25.1059 71.5012 25.5044 71.8587 25.9205 72.2747C28.0947 74.2086 30.5208 75.6444 33.0935 76.8516C38.5905 79.436 44.4214 80.4674 50.4458 80.5202C56.3061 80.567 62.0433 79.8873 67.4641 77.4494C67.7923 77.3204 68.2728 77.5431 68.683 77.5959ZM61.7093 103.082C61.6859 103.035 61.6624 102.989 61.639 102.942C61.6624 103.024 61.68 103.106 61.7093 103.293C61.7269 103.387 61.7445 103.481 61.762 103.575C61.7972 103.563 61.8382 103.551 61.8734 103.539C61.8206 103.41 61.7679 103.287 61.7093 103.082ZM38.8893 107.413C38.8952 107.319 38.901 107.226 38.9069 107.132C38.8835 107.132 38.86 107.132 38.8366 107.132C38.8249 107.243 38.819 107.36 38.7311 107.536C38.7077 107.636 38.6842 107.729 38.6549 107.829C38.6901 107.835 38.7311 107.841 38.7663 107.853C38.778 107.718 38.7897 107.595 38.8893 107.413ZM16.9601 51.6582C17.6692 51.4883 18.3783 51.3183 19.1694 51.1249C19.1226 50.6971 19.0757 50.2693 19.0581 49.6716C19.064 48.775 19.0757 47.8783 19.0991 46.8997C19.0698 46.8352 19.0171 46.8176 18.8061 46.8176C17.3645 46.8704 16.2276 47.5209 15.4306 48.6929C13.8717 50.9843 13.8952 53.4222 14.868 56.0535C15.958 58.5265 17.8626 59.9916 20.4997 60.6655C21.1502 58.4796 20.2419 56.6512 19.6793 54.7642C19.3921 55.4909 19.3687 56.1941 19.7965 56.8622C20.0602 57.2724 20.2595 57.7647 19.7086 57.9756C19.48 58.0635 18.8999 57.7002 18.7358 57.3955C17.9681 55.9948 18.0501 54.6118 19.0171 53.305C19.146 53.1292 19.2398 52.9299 19.4859 52.508C18.7709 52.6017 18.2845 52.631 17.8157 52.7307C16.8546 52.9416 16.5675 52.6486 16.8136 51.6758C16.8195 51.67 16.8195 51.6758 16.9601 51.6582ZM67.552 98.646C67.552 98.646 67.5461 98.6402 67.4231 98.6753C65.6122 99.9177 63.5553 100.439 61.3928 100.674C62.9165 104.418 64.4109 108.081 65.8818 111.756C65.9932 112.037 65.999 112.406 65.9228 112.705C65.7529 113.379 65.665 114.1 66.2862 114.486C66.6144 114.692 67.2121 114.475 67.6868 114.451C68.0267 114.434 68.3959 114.551 68.7299 114.727C68.9936 114.861 69.2984 115.02 69.4449 115.248C69.7496 115.729 70.0602 116.198 70.699 116.004C71.3143 115.817 71.4139 115.272 71.3495 114.692C71.3377 114.58 71.3495 114.463 71.3495 114.328C72.8087 115.043 73.2716 114.897 73.3361 113.607C73.1955 113.314 73.049 113.015 72.879 112.664C73.5881 112.887 74.2738 112.91 74.4789 112.142C74.7016 111.322 74.0276 110.947 73.5822 110.724C73.2892 109.406 73.2072 108.151 72.7384 107.061C71.5077 104.172 70.1188 101.353 68.7534 98.3647C68.6889 98.2124 68.6244 98.06 68.5131 97.8022C68.1556 98.1245 67.8567 98.3882 67.552 98.646ZM46.4784 83.1046C46.4257 83.884 46.3026 84.6165 46.8535 85.3549C47.8556 86.6969 48.7229 88.1444 49.8012 89.7736C51.3131 88.2382 52.6376 86.8493 54.0147 85.5073C55.1516 84.3997 54.8176 83.169 54.507 81.8622C54.1261 81.8797 53.8038 81.8973 53.3642 81.8856C53.2881 81.8973 53.206 81.9149 52.9833 81.9091C52.7372 81.9208 52.4852 81.9325 52.075 81.9032C50.1821 81.9032 48.2951 81.9032 46.3202 81.9032C46.3788 82.2724 46.4432 82.6182 46.4784 83.1046ZM57.8005 84.3821C56.3471 84.0832 56.3588 84.0891 55.5267 85.2787C54.1319 87.2712 52.3856 88.918 50.481 90.4065C49.8246 90.9163 49.3499 90.9339 48.8753 90.2014C47.6505 88.3085 46.3729 86.4449 45.1833 84.5227C44.8903 84.0481 44.6148 83.8898 44.1226 84.0246C43.812 84.1067 43.5014 84.2121 43.0677 84.3176C42.8919 84.4055 42.722 84.4993 42.4231 84.5989C42.0539 84.7865 41.6495 84.933 41.3213 85.1732C37.9341 87.6814 35.2677 90.887 32.6774 94.1629C32.5602 94.3094 32.5602 94.6962 32.6716 94.8427C33.9139 96.4367 35.3614 97.7846 37.4536 98.4702C38.485 98.7164 39.5047 99.0152 40.5478 99.1969C41.3799 99.3434 41.8839 98.5992 41.544 97.8139C41.21 97.0286 40.8701 96.2433 40.5302 95.3115C40.4482 94.9306 40.2899 94.5497 40.3134 94.1805C40.331 93.8582 40.5595 93.5476 40.6943 93.2253C40.9287 93.4597 41.2627 93.6531 41.3741 93.9344C41.8546 95.1416 42.2883 96.3723 42.6985 97.6029C42.804 97.9135 42.8626 98.3003 42.7688 98.5992C41.673 102.209 40.5302 105.801 39.4402 109.411C39.1355 110.419 38.9421 111.468 38.6901 112.547C39.3171 112.74 39.8504 112.922 40.3896 113.068C44.1519 114.088 47.9669 114.563 52.0222 114.129C55.7318 113.859 59.371 113.203 62.9165 112.347C62.9634 112.195 62.9868 112.166 62.981 112.142C61.932 108.485 60.8888 104.829 59.8281 101.178C59.7871 101.043 59.5937 100.838 59.4824 100.85C58.5506 100.908 58.4744 100.217 58.2927 99.5778C58.158 99.0973 57.9822 98.6226 57.8181 98.0073C57.3668 96.3723 56.898 94.7372 56.4878 93.0964C56.4292 92.8678 56.6753 92.5572 56.7749 92.2876C57.0269 92.4341 57.3141 92.5338 57.5133 92.733C57.6423 92.8619 57.6481 93.1198 57.7009 93.319C58.2459 95.2354 58.7733 97.1575 59.3593 99.0621C59.4355 99.3024 59.8047 99.6247 60.0391 99.6189C63.7018 99.6013 66.8722 98.4585 69.2163 95.4756C69.5562 95.0361 69.5914 94.749 69.2163 94.3387C66.8663 91.7719 64.6043 89.1231 62.1547 86.6617C61.2991 85.8003 59.9805 85.4076 58.7791 84.6985C58.5037 84.6048 58.2224 84.5169 57.8005 84.3821ZM32.5251 115.951C32.7653 114.92 33.9198 115.219 34.289 114.738C34.7988 114.85 35.3087 115.113 35.5021 114.967C35.8303 114.715 36.0178 114.223 36.135 113.795C36.1995 113.549 36.0002 113.238 35.9416 112.951C35.9064 112.763 35.842 112.547 35.9006 112.388C36.6683 110.296 37.4418 108.204 38.2447 106.124C38.9772 104.213 39.7391 102.315 40.5126 100.346C37.9048 100.006 35.6076 99.1207 33.6444 97.556C32.2027 100.873 30.767 104.073 29.4367 107.319C29.0499 108.263 28.9268 109.329 28.7803 110.355C28.7041 110.894 28.7217 111.339 28.1709 111.703C27.8954 111.884 27.6962 112.535 27.8134 112.834C27.9189 113.103 28.5049 113.185 28.8917 113.326C28.9972 113.367 29.1378 113.314 29.0558 113.32C29.0558 113.924 28.8682 114.826 29.0968 114.944C29.5773 115.196 30.2688 115.037 30.7318 115.043C30.9076 115.424 31.0541 115.963 31.3823 116.344C31.4878 116.467 32.0797 116.174 32.5251 115.951ZM62.0785 104.7C62.1019 104.741 62.1312 104.788 62.1547 104.829C62.1781 104.782 62.2309 104.729 62.2191 104.694C62.2074 104.659 62.1371 104.647 62.0785 104.7ZM61.217 101.957C61.2463 101.945 61.2756 101.94 61.3049 101.928C61.2756 101.916 61.2463 101.904 61.217 101.957ZM60.9475 100.885C60.924 100.855 60.9064 100.826 60.883 100.803C60.8889 100.838 60.8947 100.879 60.9475 100.885ZM62.0257 104.038C61.9964 104.049 61.9671 104.055 61.9378 104.067C61.9613 104.079 61.9964 104.09 62.0257 104.038ZM61.1233 101.418C61.0998 101.389 61.0822 101.359 61.0588 101.33C61.0705 101.377 61.0705 101.412 61.1233 101.418ZM61.3987 102.426C61.4221 102.455 61.4397 102.485 61.4632 102.514C61.4573 102.473 61.4514 102.432 61.3987 102.426Z" fill="#0B0F0D"/>
<path d="M53.9567 8.07537C54.9529 9.09506 55.9785 10.0913 56.9278 11.152C57.2912 11.5622 57.5959 11.4978 58.012 11.3747C60.907 10.5308 63.8078 10.3609 66.6911 11.4216C70.4065 12.787 72.733 15.5941 74.1864 19.1162C74.8545 20.7395 75.0771 22.5444 75.5225 24.2615C75.5929 24.5252 75.7159 24.8006 75.8976 24.994C76.3254 25.4511 76.8001 25.8555 77.3099 26.3126C77.3627 26.3419 77.3685 26.336 77.3802 26.3653C77.392 26.3946 77.4506 26.4181 77.4682 26.4767C77.9721 27.0744 78.4527 27.6253 78.9449 28.1644C79.361 28.6216 79.4138 29.0845 78.9332 29.5709C78.523 29.401 78.1128 29.2896 77.8491 29.0318C77.0403 28.2348 76.2902 27.3792 75.4112 26.4357C74.6611 30.1218 72.7858 32.8292 69.9611 34.8217C68.3144 35.9762 66.4801 36.8553 64.6576 37.8632C63.7492 38.1797 62.9053 38.4903 61.9911 38.8009C59.7408 39.2228 57.5725 39.803 55.369 40.0315C49.2333 40.6762 43.2558 39.9671 37.624 37.3182C35.9949 36.5505 34.4888 35.525 32.9241 34.6225C32.9182 34.6283 32.9358 34.6283 32.9182 34.5873C32.8479 34.517 32.7893 34.4936 32.7131 34.4115C30.2752 32.2901 28.1304 30.0222 27.0228 26.7873C26.7122 27.1799 26.4895 27.4436 26.2844 27.7191C24.2567 30.4148 22.8268 33.4035 21.9595 36.656C21.8071 37.2303 21.5903 37.664 20.8929 37.5819C20.7698 37.242 20.5061 36.8787 20.553 36.5622C20.6644 35.8414 20.9281 35.1382 21.1918 34.3236C21.4086 33.7727 21.5317 33.3098 21.7368 32.8878C22.399 31.499 23.0905 30.1276 23.823 28.7212C24.6669 27.6194 25.4698 26.5529 26.2433 25.4687C26.3957 25.2577 26.5246 24.9413 26.4836 24.701C25.9914 21.7357 26.0968 18.7938 26.8235 15.8403C26.888 15.7523 26.8938 15.6937 26.9114 15.5941C26.9583 15.4886 26.9642 15.4125 26.9993 15.2835C28.4117 11.1696 31.0136 8.15741 34.8638 6.30556C37.6182 4.98114 40.5542 4.26618 43.707 4.24274C44.7853 4.40096 45.7816 4.54747 46.7837 4.65882C47.106 4.69398 47.44 4.62952 47.7741 4.60608C47.7741 4.60608 47.8444 4.60608 47.903 4.67054C48.0905 4.85807 48.2019 5.03974 48.3542 5.08662C50.4288 5.69023 52.222 6.82127 53.9567 8.07537ZM68.8652 13.8946C68.8652 13.8946 68.877 13.8946 68.8359 13.8126C68.7891 13.7774 68.7363 13.7481 68.6191 13.6133C67.1775 12.787 65.7007 12.0486 63.8254 11.9783C62.8877 11.9725 61.956 11.9666 60.8718 11.9373C60.3092 12.0721 59.7466 12.201 59.0493 12.3299C58.6215 12.4354 58.1995 12.5409 57.6369 12.6523C57.3205 12.7167 56.9982 12.7812 56.6114 12.7519C55.9902 11.9607 55.4393 11.0993 54.7361 10.3902C49.9131 5.54958 44.1876 4.31306 37.7295 6.34658C34.4946 7.36627 31.6641 9.08334 29.8357 12.0193C26.6125 17.1998 26.5481 22.6382 28.8219 28.3168C29.3141 28.897 29.8123 29.4713 30.3397 30.1745C31.1191 31.6806 32.3498 32.7355 33.7855 33.679C33.8266 33.6731 33.8734 33.6673 33.9145 33.6614C33.8793 33.6262 33.8383 33.5969 33.7855 33.4328C33.5335 32.8937 33.264 32.3663 33.0296 31.8213C31.2656 27.7073 31.2539 23.7048 33.6918 19.8077C35.6315 16.7017 38.9133 15.6996 41.8845 17.4577C43.4785 18.3953 44.5099 19.837 45.049 21.7591C45.0783 22.4917 45.1076 23.2301 45.0549 24.0622C45.0021 24.1619 44.9728 24.3025 44.8849 24.3611C44.6036 24.5545 44.3048 24.7186 44.0176 24.8944C43.9473 24.5721 43.8477 24.2498 43.8242 23.9275C43.8125 23.7341 43.9531 23.5348 43.9766 23.3297C44.2169 21.4075 42.8631 19.1806 40.8882 18.2254C39.095 17.3581 37.1142 17.7155 35.6667 19.2392C33.891 21.1087 32.9944 23.3883 32.9241 25.9434C32.8479 28.6743 33.7738 31.1473 35.1686 33.4504C35.6257 34.2123 36.03 35.1616 36.7215 35.5894C38.7258 36.8142 40.9234 37.6757 43.3671 38.1504C44.0528 38.2969 44.7384 38.4375 45.5647 38.6192C49.5321 39.3224 53.5113 39.3576 57.467 38.6485C59.0844 38.3614 60.6491 37.7753 62.3838 37.3417C62.9405 37.1776 63.4972 37.0193 64.1829 36.8142C65.6948 36.0114 67.3005 35.3257 68.7012 34.3588C69.8439 33.5676 70.7523 32.4307 71.8774 31.411C72.4224 30.573 72.9674 29.7409 73.5711 28.7915C73.8523 27.4964 74.3094 26.2071 74.3681 24.9061C74.5087 21.8822 73.3191 19.2216 71.6547 16.772C71.1918 16.0922 70.5178 15.5531 69.9377 14.9553C69.9377 14.9553 69.9494 14.9553 69.9728 14.8264C69.6622 14.5686 69.3575 14.3107 69.0469 14.0587C69.0469 14.0587 69.0586 14.0587 69.0352 13.965C68.9766 13.9474 68.918 13.9122 68.8652 13.8946Z" fill="#0A0E0C"/>
<path d="M70.0072 77.1743C69.5911 76.5765 69.7493 76.1839 70.3002 75.8206C73.242 73.8808 75.047 71.1265 76.0081 67.7627C77.1274 63.8421 78.2585 59.9216 79.4364 56.0187C80.0107 54.1141 80.7667 52.2563 81.3292 50.3459C82.6654 45.7807 83.1049 41.157 81.716 36.5215C81.2413 34.9392 80.4385 33.4507 79.8349 31.9036C79.6942 31.5461 79.7645 31.1007 79.8349 30.6319C80.5264 30.3975 80.7784 30.7667 81.0362 31.212C83.8433 36.0409 84.4352 41.2566 83.5855 46.6656C83.2397 48.8574 82.5951 51.0022 82.0735 53.2409C82.5072 53.2409 83.0053 53.2057 83.4976 53.2467C85.8006 53.4401 87.4122 54.5712 88.4085 56.6926C90.3893 60.912 87.2306 67.118 82.5013 68.4894C80.837 68.9758 79.1609 68.9992 77.4615 68.8175C77.2798 69.0285 77.0161 69.2102 76.9399 69.4563C75.9378 72.533 74.0215 74.9181 71.4136 76.7699C71.0444 77.0337 70.517 77.0688 70.0072 77.1743ZM85.6952 64.7153C85.6952 64.7153 85.6952 64.7329 85.8065 64.6802C87.1427 63.01 87.8224 61.1288 87.6584 58.9781C87.4415 56.1593 85.6073 54.4774 82.7826 54.495C81.2999 54.5067 81.2179 54.577 80.8663 56.1652C80.7901 56.5285 80.7139 56.8918 80.6436 57.2435C81.6574 57.3958 82.6009 57.5365 83.6616 57.7416C84.2594 58.058 84.8864 58.3393 85.4549 58.7085C86.0468 59.0953 86.1523 59.5758 85.3729 60.033C85.0564 59.8747 84.7399 59.7341 84.4352 59.5641C83.1401 58.8316 81.7805 58.4917 80.0576 58.7261C80.5264 59.1539 80.8311 59.4118 81.1124 59.6931C82.6654 61.2519 82.5716 63.7953 80.8604 65.1197C80.6143 65.3131 80.1337 65.2076 79.7645 65.2369C79.829 64.9029 79.8642 64.5571 79.9814 64.2406C80.0458 64.0648 80.2685 63.9476 80.3975 63.7835C81.2824 62.6525 81.0245 61.123 79.747 60.367C79.0672 62.7287 78.3991 65.0728 77.7252 67.4111C80.626 68.1143 83.9722 67.0301 85.7069 64.7915C85.701 64.8032 85.7127 64.7153 85.6952 64.7153Z" fill="#0A0F0C"/>
<path d="M51.8696 114.1C47.9725 114.569 44.1575 114.088 40.3952 113.074C39.856 112.928 39.3227 112.746 38.6957 112.553C38.9535 111.474 39.141 110.425 39.4458 109.417C40.5417 105.808 41.6844 102.215 42.7744 98.6053C42.8623 98.3064 42.8037 97.9196 42.7041 97.609C42.2939 96.3725 41.8602 95.1477 41.3797 93.9405C41.2683 93.6592 40.9284 93.4658 40.6999 93.2314C40.5651 93.5478 40.3424 93.8584 40.319 94.1866C40.2955 94.5558 40.4538 94.9426 40.4655 95.3997C39.3872 96.4487 38.3792 97.4156 37.3712 98.3884C35.367 97.7965 33.9195 96.4487 32.6771 94.8547C32.5658 94.7082 32.5658 94.3155 32.683 94.1749C35.2733 90.899 37.9338 87.6875 41.3269 85.1852C41.6551 84.9391 42.0595 84.7984 42.4931 84.6695C43.0909 85.6189 43.5831 86.5331 44.1692 87.3828C45.2299 88.9123 46.3492 90.4067 47.4275 91.9773C46.9059 93.1962 46.9587 93.3662 48.1776 94.6554C48.0839 97.65 47.9725 100.568 47.9549 103.487C47.9432 105.936 47.6326 105.456 50.2463 105.573C51.0667 105.608 51.2015 105.251 51.2074 104.512C51.2191 100.908 51.2894 97.3101 51.3656 93.7061C51.3715 93.3837 51.4945 92.9852 51.7172 92.7626C53.2468 91.2213 54.8818 89.7797 56.3586 88.1857C57.3138 87.1543 58.0581 85.9353 58.9019 84.7984C60.0095 85.4079 61.3281 85.8064 62.1837 86.662C64.6392 89.1233 66.8954 91.778 69.2454 94.339C69.6204 94.7492 69.5853 95.0364 69.2454 95.4759C66.9012 98.4588 63.7367 99.6015 60.0681 99.6191C59.8337 99.6191 59.4645 99.3026 59.3884 99.0624C58.8023 97.1578 58.2749 95.2356 57.7299 93.3193C57.6713 93.12 57.6713 92.8622 57.5424 92.7333C57.3431 92.5399 57.0501 92.4344 56.804 92.2879C56.6985 92.5574 56.4582 92.8622 56.5168 93.0966C56.927 94.7433 57.3959 96.3725 57.7885 98.1247C57.4545 100.733 57.2259 103.229 56.8919 105.714C56.5637 108.134 55.714 110.367 54.0379 112.195C53.3698 112.893 52.5846 113.467 51.8696 114.1Z" fill="#F1E8DC"/>
<path d="M32.4895 116.01C32.0793 116.174 31.4932 116.467 31.3819 116.344C31.0478 115.969 30.9072 115.424 30.7314 115.043C30.2626 115.038 29.5769 115.19 29.0964 114.944C28.8737 114.827 29.0553 113.924 29.0553 113.321C29.1374 113.315 28.9967 113.362 28.8913 113.326C28.5045 113.186 27.9184 113.098 27.813 112.834C27.6958 112.535 27.895 111.885 28.1704 111.703C28.7213 111.34 28.7096 110.894 28.7799 110.355C28.9206 109.33 29.0495 108.263 29.4363 107.32C30.7665 104.073 32.2023 100.873 33.6439 97.5563C35.613 99.1269 37.9044 100.012 40.5122 100.346C39.7387 102.315 38.9768 104.214 38.2443 106.124C37.4473 108.204 36.6679 110.297 35.9002 112.389C35.8416 112.553 35.906 112.77 35.9412 112.951C35.9998 113.238 36.199 113.549 36.1346 113.795C36.0174 114.223 35.8298 114.715 35.5017 114.967C35.3083 115.114 34.7984 114.85 34.2886 114.739C33.9194 115.219 32.7649 114.92 32.4895 116.01Z" fill="#9CC97C"/>
<path d="M73.324 113.731C73.2771 114.897 72.8142 115.043 71.3549 114.328C71.3549 114.463 71.3432 114.574 71.3549 114.692C71.4194 115.272 71.3198 115.817 70.7045 116.004C70.0657 116.198 69.7609 115.729 69.4503 115.248C69.298 115.014 68.9932 114.862 68.7354 114.727C68.3955 114.551 68.0263 114.434 67.6923 114.451C67.2176 114.475 66.6198 114.692 66.2917 114.487C65.6705 114.1 65.7584 113.379 65.9283 112.705C66.0045 112.406 65.9986 112.037 65.8873 111.756C64.4164 108.081 62.922 104.424 61.3983 100.674C63.5608 100.439 65.6177 99.9178 67.4989 98.7282C67.1062 99.3318 66.6374 99.8827 66.1627 100.439C66.866 100.211 67.6102 99.9765 68.4658 99.701C68.4248 100.721 67.0183 101.641 68.5713 102.362C68.6768 102.18 68.7823 102.004 68.8819 101.834C68.9815 101.852 69.0812 101.875 69.1749 101.893C69.1398 102.449 69.1925 103.036 69.0401 103.563C68.8526 104.219 68.7823 104.747 69.3683 105.245C69.6203 105.462 69.9485 105.901 69.8782 106.124C69.6379 106.88 70.177 107.243 70.4583 107.771C70.7806 108.38 70.9623 109.066 71.1909 109.728C71.4897 110.595 70.9975 111.603 71.6948 112.424C71.8413 112.6 71.7183 112.998 71.73 113.297C71.7417 113.578 71.7769 113.859 71.812 114.317C72.4098 114.082 72.8669 113.906 73.324 113.731Z" fill="#9BC97B"/>
<path d="M51.9456 114.112C52.5843 113.461 53.3696 112.887 54.0084 112.189C55.6844 110.361 56.5342 108.128 56.8623 105.708C57.1964 103.223 57.4249 100.727 57.7648 98.1891C57.9817 98.6228 58.1575 99.0916 58.2923 99.5722C58.4681 100.205 58.5442 100.902 59.4819 100.844C59.5932 100.838 59.7866 101.037 59.8276 101.172C60.8884 104.823 61.9374 108.48 62.9805 112.137C62.9863 112.16 62.9629 112.189 62.916 112.342C59.3764 113.203 55.7372 113.86 51.9456 114.112Z" fill="#E5D4BE"/>
<path d="M43.1908 84.312C43.5014 84.2182 43.812 84.1127 44.1226 84.0307C44.6148 83.8959 44.8903 84.06 45.1833 84.5288C46.3729 86.4451 47.6446 88.3087 48.8753 90.2074C49.3441 90.9341 49.8246 90.9224 50.481 90.4125C52.3856 88.9182 54.132 87.2773 55.5267 85.2848C56.3589 84.0952 56.353 84.0893 57.8825 84.4761C57.8064 84.8746 57.7185 85.2438 57.4899 85.484C55.4622 87.6524 53.458 89.8382 51.3366 91.9186C50.7096 92.5281 50.4634 93.12 50.4634 93.917C50.4458 97.1343 50.4224 100.346 50.4048 103.563C50.399 104.887 50.2173 105.016 48.7171 104.577C48.8284 101.237 48.9456 97.8551 49.1214 94.4561C49.9243 94.0928 50.3755 93.5302 50.229 92.6863C50.0825 91.8425 49.4203 91.526 48.6467 91.4088C48.4182 91.3736 48.1838 91.3619 47.9376 91.2799C46.3436 88.9065 44.7672 86.6092 43.1908 84.312Z" fill="#E8E2DA"/>
<path d="M52.2327 81.9445C52.4788 81.9328 52.7308 81.9211 53.0766 81.9562C53.2758 81.9738 53.3754 81.9445 53.4751 81.9211C53.7974 81.9035 54.1197 81.8859 54.5006 81.8683C54.8112 83.1752 55.1453 84.4059 54.0084 85.5134C52.6312 86.8496 51.3068 88.2385 49.7948 89.7797C48.7224 88.1506 47.8492 86.7031 46.8471 85.3611C46.2962 84.6227 46.4193 83.8901 46.5541 83.0463C47.8726 82.8763 49.1209 82.8236 50.3515 82.636C51.002 82.5306 51.6056 82.1789 52.2327 81.9445Z" fill="#9CC97C"/>
<path d="M73.33 113.672C72.867 113.912 72.4041 114.082 71.8122 114.311C71.7711 113.854 71.7418 113.572 71.7301 113.291C71.7184 112.992 71.8415 112.594 71.695 112.418C70.9976 111.597 71.4898 110.589 71.191 109.722C70.9624 109.06 70.7808 108.374 70.4584 107.765C70.1771 107.237 69.638 106.874 69.8783 106.118C69.9486 105.895 69.6204 105.456 69.3684 105.239C68.7824 104.741 68.8527 104.213 69.0402 103.557C69.1926 103.03 69.1399 102.444 69.175 101.887C69.0754 101.869 68.9758 101.846 68.882 101.828C68.7824 102.004 68.6769 102.174 68.5714 102.356C67.0184 101.641 68.4249 100.715 68.4659 99.6951C67.6103 99.9705 66.8661 100.211 66.1628 100.433C66.6375 99.8767 67.1064 99.3259 67.5576 98.7105C67.54 98.6461 67.5517 98.6519 67.6338 98.6695C68.0733 98.6285 68.4366 98.564 68.7941 98.5054C70.1244 101.354 71.5133 104.172 72.744 107.061C73.2069 108.151 73.2948 109.406 73.5878 110.724C74.0332 110.947 74.7013 111.322 74.4845 112.142C74.2794 112.91 73.5937 112.887 72.8846 112.664C73.0487 113.016 73.1952 113.309 73.33 113.672Z" fill="#95C674"/>
<path d="M49.0565 94.456C48.9393 97.8374 48.8279 101.225 48.7107 104.559C50.211 105.005 50.3926 104.87 50.3985 103.545C50.4161 100.328 50.4395 97.1166 50.4571 93.8993C50.463 93.1023 50.7091 92.5104 51.3303 91.9009C53.4458 89.8264 55.4559 87.6347 57.4836 85.4663C57.7121 85.2261 57.8 84.8569 57.9466 84.4818C58.222 84.5111 58.5033 84.599 58.8315 84.7397C58.0403 85.9234 57.2902 87.1482 56.335 88.1738C54.8582 89.7619 53.229 91.2094 51.6936 92.7507C51.4768 92.9675 51.3537 93.3719 51.342 93.6942C51.2658 97.2983 51.2014 100.896 51.1838 104.501C51.1779 105.239 51.049 105.602 50.2227 105.561C47.609 105.444 47.9196 105.919 47.9313 103.475C47.9489 100.557 48.0602 97.644 48.2126 94.6494C48.5584 94.5322 48.8104 94.497 49.0565 94.456Z" fill="#7696B2"/>
<path d="M37.4122 98.4295C38.3792 97.4156 39.3872 96.4428 40.4654 95.47C40.8757 96.2495 41.2156 97.0347 41.5496 97.82C41.8836 98.6053 41.3796 99.3495 40.5533 99.203C39.5044 99.0214 38.4847 98.7225 37.4122 98.4295Z" fill="#E5D4BE"/>
<path d="M43.1261 84.3121C44.7669 86.6034 46.3434 88.9065 47.9139 91.3151C47.7498 91.5847 47.5916 91.7429 47.4334 91.9011C46.3375 90.3951 45.2182 88.9007 44.1575 87.3711C43.5656 86.5214 43.0733 85.6013 42.54 84.652C42.7158 84.4996 42.8917 84.4117 43.1261 84.3121Z" fill="#7696B2"/>
<path d="M52.1511 81.9267C51.6061 82.1787 51.0024 82.5303 50.3519 82.63C49.1271 82.8175 47.8731 82.8702 46.5662 82.9699C46.4373 82.6182 46.3787 82.2783 46.3142 81.915C48.2891 81.9091 50.1761 81.9091 52.1511 81.9267Z" fill="#89C060"/>
<path d="M68.7761 98.4295C68.4362 98.5585 68.0787 98.6229 67.6392 98.664C67.856 98.3827 68.1549 98.1189 68.5182 97.7966C68.6237 98.0545 68.6882 98.2068 68.7761 98.4295Z" fill="#9BC97B"/>
<path d="M53.4169 81.9034C53.3759 81.9445 53.2763 81.9679 53.1532 81.962C53.2059 81.9152 53.2821 81.9034 53.4169 81.9034Z" fill="#89C060"/>
<path d="M28.7976 28.1936C26.5531 22.6322 26.6176 17.1939 29.8408 12.0134C31.6692 9.07735 34.4938 7.35443 37.7346 6.3406C44.1926 4.30708 49.9123 5.5436 54.7411 10.3842C55.4444 11.0933 55.9952 11.9548 56.6516 12.8572C57.1145 13.8828 57.5775 14.7794 57.9584 15.7053C59.2536 18.8347 59.7634 22.0403 58.5796 25.3221C57.5131 28.2815 55.7374 30.737 53.3288 32.7881C50.592 35.1205 47.5564 36.8141 44.0637 37.6873C43.7883 37.7576 43.5421 37.9276 43.2843 38.0506C40.9343 37.6756 38.7367 36.8141 36.7325 35.5893C36.0351 35.1615 35.6366 34.2063 35.1795 33.4503C33.7847 31.1472 32.8588 28.6742 32.935 25.9433C33.0053 23.3882 33.9019 21.1085 35.6776 19.2391C37.1251 17.7096 39.1059 17.3579 40.8991 18.2253C42.8799 19.1805 44.2278 21.4074 43.9875 23.3296C43.9641 23.5347 43.8234 23.7339 43.8351 23.9273C43.8586 24.2555 43.9582 24.572 44.0285 24.8943C44.3215 24.7185 44.6204 24.5544 44.8958 24.361C44.9779 24.3024 45.0072 24.1617 45.1596 23.9918C47.4158 21.4601 46.7125 17.481 44.1926 15.512C39.856 12.113 34.4821 13.8007 31.6809 17.8502C29.7353 20.6631 28.8738 23.8511 28.9559 27.2794C28.9559 27.5783 28.8504 27.8889 28.7976 28.1936Z" fill="#6A9558"/>
<path d="M57.7713 12.6465C58.1991 12.541 58.6211 12.4355 59.1309 12.3886C59.336 12.5234 59.4532 12.6172 59.5821 12.6699C61.8091 13.5314 63.6375 14.9613 64.9795 16.901C67.0775 19.9249 67.1302 23.3884 66.6262 26.8401C66.1633 30.0105 65.0088 32.97 63.1921 35.6481C62.8288 36.1814 62.5533 36.7674 62.2369 37.33C60.6487 37.7813 59.084 38.3673 57.4607 38.6544C53.505 39.3635 49.5259 39.3342 45.5292 38.5548C47.8381 37.6992 50.0299 36.6444 52.0575 35.2086C55.3745 32.8586 58.0468 29.9929 59.4884 26.1427C60.5081 23.4294 60.6136 20.6165 59.7931 17.8445C59.2716 16.063 58.457 14.3753 57.7713 12.6465Z" fill="#6A9558"/>
<path d="M61.0229 11.9549C61.9606 11.9608 62.8924 11.9666 63.9296 12.0428C64.3399 12.2948 64.6446 12.4765 64.9493 12.6581C67.0004 13.8888 68.9109 15.266 70.2529 17.3112C72.1048 20.13 72.8373 23.2067 72.4564 26.5412C72.2688 28.182 71.9934 29.8171 71.759 31.4521C70.751 32.4366 69.8427 33.5735 68.6999 34.3646C67.2993 35.3374 65.6995 36.0172 64.082 36.7967C64.082 36.5037 64.1406 36.2048 64.293 35.9645C67.1587 31.5165 68.4655 26.6994 67.8033 21.3958C67.4986 18.9345 66.6723 16.7017 64.838 14.9905C63.6484 13.8888 62.3005 12.9629 61.0229 11.9549Z" fill="#6A9458"/>
<path d="M33.773 33.6029C32.3548 32.7356 31.1241 31.6807 30.3564 30.034C30.3154 28.1587 30.04 26.3947 30.2685 24.6894C30.6963 21.4428 31.8625 18.454 34.6227 16.4088C37.7228 14.1116 41.4675 14.3577 43.9757 16.8366C45.3998 18.2489 45.7983 20.259 45.0599 21.6127C44.5266 19.8312 43.4894 18.3954 41.8954 17.4519C38.9242 15.6997 35.6424 16.7018 33.7027 19.8019C31.2648 23.699 31.2765 27.7016 33.0405 31.8155C33.2749 32.3605 33.5444 32.8938 33.7964 33.5033C33.7906 33.5853 33.773 33.6029 33.773 33.6029Z" fill="#698F58"/>
<path d="M57.7062 12.6465C58.4622 14.3753 59.2768 16.063 59.8042 17.8387C60.6246 20.6048 60.5192 23.4236 59.4995 26.1369C58.0578 29.9871 55.3856 32.8528 52.0686 35.2027C50.041 36.6385 47.8492 37.6992 45.4641 38.5314C44.7433 38.4376 44.0576 38.297 43.3251 38.1036C43.5419 37.9278 43.788 37.7578 44.0576 37.6875C47.5503 36.8143 50.586 35.1207 53.3227 32.7883C55.7313 30.7372 57.507 28.2817 58.5735 25.3223C59.7573 22.0405 59.2475 18.8349 57.9524 15.7056C57.5714 14.7796 57.1085 13.883 56.6807 12.9043C56.9971 12.7813 57.3194 12.7168 57.7062 12.6465Z" fill="#405D35"/>
<path d="M45.0547 21.6889C45.7931 20.2649 45.3887 18.2548 43.9647 16.8425C41.4623 14.3577 37.7117 14.1174 34.6116 16.4147C31.8514 18.4599 30.6911 21.4545 30.2574 24.6953C30.0347 26.3947 30.3043 28.1646 30.3278 29.9754C29.8062 29.4714 29.3139 28.8971 28.8041 28.2583C28.8451 27.8891 28.9506 27.5785 28.9447 27.2738C28.8627 23.8397 29.7241 20.6575 31.6698 17.8446C34.471 13.7951 39.839 12.1132 44.1815 15.5063C46.7014 17.4812 47.4046 21.4604 45.1895 23.9393C45.1133 23.2302 45.084 22.4977 45.0547 21.6889Z" fill="#36512D"/>
<path d="M60.9474 11.9431C62.3011 12.9627 63.649 13.8887 64.8386 14.9904C66.6729 16.7016 67.4992 18.9344 67.804 21.3957C68.4662 26.6993 67.1593 31.5164 64.2936 35.9644C64.1413 36.1988 64.0827 36.4977 64.0182 36.8141C63.4966 37.0192 62.9399 37.1833 62.3129 37.3357C62.559 36.7672 62.8344 36.1754 63.1978 35.6479C65.0145 32.9698 66.1748 30.0103 66.6319 26.8399C67.1359 23.3882 67.0831 19.9248 64.9852 16.9009C63.6373 14.9611 61.8147 13.5371 59.5878 12.6697C59.4589 12.617 59.3417 12.5232 59.201 12.3943C59.7461 12.2009 60.3086 12.0661 60.9474 11.9431Z" fill="#405D35"/>
<path d="M71.8175 31.4346C71.9933 29.8113 72.2746 28.1821 72.4621 26.5354C72.843 23.2009 72.1047 20.1242 70.2587 17.3054C68.9167 15.2602 67.0062 13.883 64.9551 12.6524C64.6504 12.4707 64.3456 12.289 64.0175 12.0605C65.7052 12.0429 67.182 12.7813 68.6354 13.6896C68.7233 13.8069 68.8053 13.8479 68.8874 13.8889C68.8874 13.8889 68.8756 13.8889 68.8932 13.9299C68.9635 14.0002 69.0104 14.0354 69.0632 14.0706C69.0632 14.0706 69.0514 14.0706 69.0573 14.1292C69.362 14.4456 69.6609 14.7035 69.9598 14.9613C69.9598 14.9613 69.9481 14.9613 69.9539 15.0258C69.9949 15.1664 70.0184 15.2602 70.0711 15.3247C73.1009 18.8057 74.0913 22.8727 73.5463 27.391C73.4877 27.895 73.5228 28.4107 73.517 28.9147C72.9661 29.7468 72.4211 30.5849 71.8175 31.4346Z" fill="#36512D"/>
<path d="M73.5407 28.8562C73.5173 28.4049 73.4763 27.8892 73.5349 27.3852C74.0857 22.867 73.0895 18.8058 70.0597 15.3189C70.007 15.2544 69.9835 15.1607 69.9425 15.02C70.5168 15.5592 71.1907 16.0983 71.6537 16.7781C73.3239 19.2218 74.5077 21.8883 74.367 24.9122C74.3143 26.219 73.8513 27.5083 73.5407 28.8562Z" fill="#648059"/>
<path d="M69.9605 14.9026C69.6499 14.7033 69.351 14.4455 69.0521 14.1232C69.3569 14.3224 69.6616 14.5803 69.9605 14.9026Z" fill="#648059"/>
<path d="M68.8587 13.8538C68.8001 13.8538 68.718 13.8128 68.6653 13.7424C68.7356 13.7483 68.7884 13.7776 68.8587 13.8538Z" fill="#648059"/>
<path d="M32.9235 34.5817C32.8532 34.5875 32.7653 34.5524 32.7125 34.4879C32.7946 34.4879 32.8473 34.5114 32.9235 34.5817Z" fill="#9ECA7B"/>
<path d="M33.8021 33.5735C33.849 33.597 33.8841 33.6321 33.9252 33.6614C33.8841 33.6673 33.8372 33.6732 33.7845 33.638C33.7728 33.6028 33.7904 33.5853 33.8021 33.5735Z" fill="#698F58"/>
<path d="M26.9163 15.5827C26.8811 15.5475 26.887 15.4772 26.9339 15.3717C26.9632 15.401 26.9573 15.4772 26.9163 15.5827Z" fill="#92D0D2"/>
<path d="M69.0399 14.0236C68.9989 14.0353 68.9462 14.006 68.8759 13.924C68.9169 13.9122 68.9755 13.9474 69.0399 14.0236Z" fill="#648059"/>
<path d="M33.4328 37.9042C33.5149 37.8983 33.6028 37.8983 33.761 37.9276C33.8372 37.9686 33.9017 37.9862 33.9017 37.9862L33.9603 37.9452C34.1654 37.9569 34.3705 37.9745 34.6811 38.0683C35.0796 38.1679 35.3726 38.1855 35.6656 38.2031C36.0348 38.3437 36.3981 38.4843 36.8318 38.7246C36.9725 38.8535 37.0486 38.8828 37.119 38.9121C37.5468 39.2345 37.9746 39.5626 38.4258 40.0022C38.5196 40.1956 38.5899 40.2717 38.6602 40.3538C38.6602 40.3538 38.6368 40.3596 38.6485 40.3948C38.7012 40.471 38.7481 40.512 38.7891 40.553C38.8712 40.7699 38.9532 40.9926 39.0118 41.35C38.9357 41.9068 38.8829 42.3228 38.8302 42.7389C38.8302 42.7389 38.8243 42.7213 38.7833 42.7389C38.7188 42.821 38.6954 42.8796 38.6719 42.944C38.6719 42.944 38.6661 42.9147 38.6251 42.9264C38.5372 43.0261 38.4903 43.114 38.4434 43.2019C38.4434 43.2019 38.4199 43.2546 38.332 43.2663C38.1914 43.3367 38.1328 43.3894 38.08 43.4422C37.9687 43.5008 37.8515 43.5652 37.6054 43.6121C36.7849 43.6355 36.0993 43.6766 35.4195 43.7117C35.1616 43.6824 34.8979 43.6473 34.5111 43.5887C33.9251 43.4363 33.4621 43.3191 32.882 43.1667C33.0343 43.7762 33.134 44.204 33.2746 44.6787C33.386 44.7607 33.4621 44.7959 33.5969 44.8135C33.8841 44.9717 34.1185 45.1416 34.3705 45.3702C34.4877 45.4757 34.5932 45.5226 34.7514 45.5929C35.0679 45.8918 35.3374 46.1672 35.6011 46.4954C35.7066 46.6419 35.8121 46.7298 35.9586 46.847C36.0465 46.9993 36.0934 47.1224 36.1579 47.3041C36.2458 47.4154 36.3161 47.4623 36.4333 47.5444C36.6736 48.0015 36.8728 48.4175 37.0545 48.9039C37.1541 49.0856 37.2596 49.2028 37.4061 49.3728C37.787 50.9375 38.1328 52.4553 38.4786 53.9672C38.4727 54.5122 38.4727 55.0572 38.4551 55.7546C38.4375 56.1531 38.4375 56.3993 38.4317 56.6454C38.3438 56.9794 38.2207 57.3135 38.1797 57.6534C38.0273 58.8899 37.4413 59.9565 36.8201 61.1227C35.8004 62.494 34.7162 63.6191 33.0754 64.0001C31.3231 64.3282 29.6354 64.1934 28.0003 63.2499C26.4943 62.242 25.4394 60.9175 24.5662 59.2825C24.3377 58.7727 24.1619 58.3683 23.9861 57.964C23.9861 57.964 24.0212 57.9522 24.0212 57.8702C23.945 57.6944 23.863 57.6006 23.7868 57.5069C23.7868 57.5069 23.7868 57.4365 23.8044 57.3252C23.1891 54.3657 22.8257 51.5118 23.8161 48.6168C24.0329 48.1304 24.2087 47.6791 24.4314 47.1986C25.246 46.3899 26.002 45.6046 26.8107 44.8076C26.9045 44.749 26.9514 44.6963 27.0217 44.6318C27.0451 44.6201 27.092 44.6318 27.1506 44.6201C27.2502 44.5497 27.2971 44.4911 27.3792 44.3974C27.5432 44.3329 27.678 44.3036 27.8597 44.2685C27.9652 44.2157 28.0179 44.1688 28.1293 44.1044C28.352 44.0809 28.5161 44.0809 28.768 44.0926C29.2486 44.0047 29.6412 43.9051 30.1042 43.7938C30.4265 43.5945 30.6902 43.4129 31.0067 43.196C31.7158 42.5807 31.1004 42.6217 30.6844 42.5221C30.2624 42.3697 29.9108 42.2291 29.4947 42.0533C29.1665 41.9302 28.897 41.8364 28.6157 41.7016C28.4926 41.6372 28.3754 41.6196 28.1937 41.6079C27.8187 41.4672 27.5081 41.3324 27.1858 41.1332C26.9396 40.9574 26.7052 40.8402 26.4708 40.723C26.4708 40.723 26.4708 40.723 26.465 40.6644C26.3536 40.5237 26.2481 40.4417 26.0899 40.3479C26.0137 40.3362 25.9785 40.3245 25.9492 40.3186C25.961 40.2424 25.9668 40.1604 26.0196 39.9963C25.9668 39.8205 25.8789 39.7326 25.7852 39.6447C25.7793 39.6095 25.7734 39.5802 25.8262 39.4513C25.8965 39.1876 25.9024 39.0235 25.9082 38.8535C25.9082 38.8535 25.8848 38.8008 25.9551 38.7481C26.0958 38.5195 26.1778 38.3378 26.254 38.162C26.254 38.162 26.2598 38.1855 26.3009 38.1737C26.3712 38.1034 26.4064 38.0448 26.4357 37.9862C26.4357 37.9862 26.465 38.0038 26.5118 38.0097C26.6525 37.9452 26.7462 37.8807 26.84 37.8104C26.84 37.8104 26.881 37.7987 26.9689 37.8221C27.3381 37.7811 27.6136 37.7167 27.8949 37.658C28.2641 37.617 28.6391 37.5819 29.0786 37.5233C29.524 37.5643 29.8932 37.6229 30.3855 37.7401C30.9422 37.7811 31.3817 37.7577 31.8213 37.7401C32.085 37.7518 32.3545 37.7635 32.7062 37.8573C33.005 37.9335 33.216 37.9218 33.4328 37.9042ZM31.6865 41.9595C32.2022 42.0826 32.7179 42.2174 33.2394 42.3287C34.5639 42.61 35.8649 43.1257 37.2596 42.7096C38.3262 42.3932 38.6661 41.2973 37.9101 40.4827C37.5526 40.0959 37.0838 39.8146 36.6443 39.3575C36.5036 39.2872 36.363 39.2227 36.0758 39.1524C35.2202 39.0411 34.3705 38.8653 33.509 38.8301C31.5517 38.7481 29.5944 38.6953 27.637 38.7188C27.303 38.7246 26.9807 39.17 26.6525 39.4161C26.9514 39.7385 27.1858 40.1955 27.555 40.3538C28.7739 40.8929 30.0456 41.3207 31.3524 41.8892C31.411 41.9126 31.4755 41.9361 31.6865 41.9595ZM28.6801 62.2537C31.6337 63.7891 34.5697 62.8983 36.0934 59.9565C36.4626 59.2474 36.7263 58.4797 36.949 57.7061C38.0976 53.6801 36.5622 49.1032 33.3742 46.97C30.8074 45.253 27.7366 45.8742 26.0313 48.4527C25.1522 49.783 24.701 51.2656 24.6365 52.8303C24.4783 56.5516 25.3339 59.8744 28.6801 62.2537Z" fill="#0C0D0C"/>
<path d="M27.8123 37.6583C27.6072 37.7345 27.3259 37.7931 26.9684 37.8517C27.1735 37.7814 27.4548 37.7169 27.8123 37.6583Z" fill="#10100C"/>
<path d="M26.1901 38.1973C26.1667 38.3497 26.0905 38.5255 25.9674 38.7365C25.985 38.5841 26.0612 38.4024 26.1901 38.1973Z" fill="#10100C"/>
<path d="M25.867 38.9122C25.8963 39.0294 25.8845 39.1994 25.8377 39.4162C25.7966 39.4631 25.7791 39.3811 25.7615 39.34C25.7732 39.1877 25.8025 39.0763 25.867 38.9122Z" fill="#10100C"/>
<path d="M26.7703 37.8223C26.7351 37.8927 26.6414 37.9571 26.4832 38.0157C26.5183 37.9454 26.6179 37.8809 26.7703 37.8223Z" fill="#10100C"/>
<path d="M26.3766 38.0096C26.3942 38.0565 26.3649 38.1151 26.277 38.1855C26.2594 38.1327 26.2946 38.0741 26.3766 38.0096Z" fill="#10100C"/>
<path d="M26.8638 13.9473C26.94 13.9414 26.9986 13.9707 27.063 14C27.0162 14.0235 26.9751 14.0411 26.8931 14.0645C26.8521 14.0645 26.8521 13.9824 26.8638 13.9473Z" fill="#92D0D2"/>
<path d="M64.2586 48.8455C64.7274 48.5935 65.0439 47.8844 65.8057 48.447C66.0049 48.822 66.1515 49.1033 66.3038 49.4549C66.4152 49.8065 66.4679 50.2871 66.6437 50.3281C68.4428 50.8028 69.8434 51.8928 71.1972 53.0883C71.1972 53.0825 71.1913 53.0883 71.1913 53.1411C71.2909 53.3051 71.3906 53.4106 71.5136 53.5689C72.0293 54.7585 72.674 55.8544 72.967 57.0381C73.6526 59.8159 72.9025 62.3886 71.5019 64.8089C70.2361 66.5201 68.7241 67.95 66.7082 68.958C66.5968 69.0283 66.5734 69.0459 66.4855 69.0576C66.0928 69.2041 65.7647 69.3506 65.4306 69.4971C65.4306 69.4913 65.4189 69.4913 65.3486 69.4913C63.8308 69.626 62.3891 69.8487 60.9475 69.8546C60.0802 69.8605 59.207 69.5264 58.3397 69.3389C58.3397 69.3389 58.3104 69.3623 58.3045 69.3037C58.1873 69.2158 58.0818 69.1865 57.9764 69.1572C57.8943 69.1045 57.8181 69.0576 57.654 68.9463C57.3493 68.788 57.1325 68.6943 56.9098 68.5946C56.8219 68.5009 56.7281 68.4071 56.5875 68.2958C56.5347 68.284 56.5464 68.284 56.5171 68.2313C56.3296 68.0731 56.1655 67.9734 56.0132 67.8094C54.677 66.3912 53.7921 64.7679 53.3057 62.8691C53.2764 62.6582 53.2354 62.4999 53.2061 62.2714C53.1768 61.6678 53.1357 61.1403 53.1006 60.6129C53.4229 59.2358 53.7452 57.8527 54.1261 56.3759C54.2082 56.1884 54.2258 56.0946 54.2492 56.0009C54.2492 56.0009 54.2551 55.9891 54.3019 55.9481C56.0718 52.7836 58.6679 50.8028 62.1723 50.1523C63.1158 49.9648 63.8484 49.7479 64.2586 48.8455ZM71.0214 57.3136C70.4002 56.3466 69.9431 55.2097 69.1343 54.4303C65.4248 50.8497 59.2656 51.465 56.1186 55.6317C53.587 58.9838 53.7628 63.7951 56.5113 66.4615C59.3652 69.2275 63.5378 69.5499 67.218 67.2878C70.5584 65.2484 72.1758 61.1052 71.0214 57.3136Z" fill="#0C0C0C"/>
<path d="M67.5406 43.2488C67.6168 43.2488 67.6519 43.284 67.7281 43.325C68.3903 43.5359 68.9764 43.7118 69.5624 43.8876C69.6327 43.9286 69.703 43.9696 69.8437 44.0458C70.0078 44.1044 70.1015 44.1337 70.2187 44.1982C70.3125 44.2685 70.377 44.2978 70.4707 44.3798C71.1916 45.0186 71.4494 45.7336 71.1505 46.6185C70.6758 47.4506 69.832 47.6792 69.0057 47.6792C66.1576 47.6792 63.3095 47.644 60.4614 47.4916C59.1838 47.4272 57.9532 46.9818 57.08 45.9152C56.0427 44.6435 56.3416 42.9734 57.8594 42.4049C58.797 42.0533 59.9046 41.8599 60.8833 41.9888C63.0985 42.2701 65.2785 42.8093 67.5406 43.2488ZM64.6515 43.5945C63.456 43.3601 62.2722 43.0437 61.0708 42.9265C60.2387 42.8444 59.3362 42.9265 58.5392 43.1726C58.0997 43.3074 57.5781 43.8876 57.5078 44.3329C57.4433 44.7314 57.8242 45.4288 58.2052 45.6281C59.049 46.0793 60.0043 46.5423 60.9302 46.5833C63.7138 46.7005 66.5033 46.6185 69.287 46.6126C69.3749 46.6126 69.4862 46.6302 69.5507 46.5892C69.8027 46.4192 70.1543 46.2668 70.248 46.0266C70.3184 45.839 70.1074 45.4757 69.9257 45.2823C69.7323 45.0772 69.4393 44.9307 69.1639 44.8545C67.7105 44.4267 66.2572 44.0282 64.6515 43.5945Z" fill="#0C0E0B"/>
<path d="M47.4159 91.9713C47.5917 91.7486 47.7499 91.5904 47.9257 91.3794C48.1777 91.3501 48.4121 91.3618 48.6407 91.397C49.4142 91.5142 50.0765 91.8306 50.223 92.6745C50.3695 93.5184 49.9182 94.081 49.1154 94.4443C48.8048 94.4971 48.5586 94.5381 48.248 94.5733C46.9471 93.3602 46.8943 93.1902 47.4159 91.9713ZM48.1543 92.1412C47.5448 92.9265 47.6796 93.7587 48.4649 93.8349C48.7872 93.8642 49.2384 93.6942 49.4377 93.4539C49.6076 93.2488 49.6428 92.6452 49.4904 92.5222C49.1798 92.2643 48.6993 92.2174 48.1543 92.1412Z" fill="#5C7991"/>
<path d="M41.6726 66.5495C41.5378 65.6529 41.9363 65.0727 42.6513 64.7094C43.7061 64.1761 44.7727 64.1643 45.7455 64.8852C46.396 65.3657 46.7769 66.0221 46.4663 66.948C46.396 67.0124 46.355 67.0359 46.2495 67.1355C46.0678 67.0535 45.9037 66.9363 45.8627 66.7839C45.4994 65.5005 44.1984 64.9379 43.0498 65.647C42.6454 65.899 42.3641 66.3561 42.0242 66.7194C41.9129 66.6784 41.8074 66.6374 41.6726 66.5495Z" fill="#10100C"/>
<path d="M56.9099 68.6535C57.1267 68.6828 57.3494 68.7766 57.6014 68.9289C57.3905 68.8938 57.1502 68.8117 56.9099 68.6535Z" fill="#99B273"/>
<path d="M57.9941 69.1984C58.0762 69.175 58.1817 69.2043 58.3106 69.2863C58.2285 69.3039 58.1231 69.2746 57.9941 69.1984Z" fill="#99B273"/>
<path d="M23.7931 57.5833C23.8693 57.6126 23.9455 57.7063 24.0275 57.8587C23.9513 57.8294 23.8693 57.7415 23.7931 57.5833Z" fill="#99B273"/>
<path d="M25.7676 39.7152C25.8672 39.7445 25.9551 39.8324 26.0196 39.9496C25.9141 39.9145 25.8379 39.8441 25.7676 39.7152Z" fill="#10100C"/>
<path d="M35.4957 43.7412C36.0993 43.6826 36.785 43.6416 37.5527 43.6123C36.9549 43.665 36.2693 43.7119 35.4957 43.7412Z" fill="#10100C"/>
<path d="M38.8893 42.6982C38.8951 42.3173 38.9479 41.9012 39.0124 41.4089C38.9948 41.7723 38.9655 42.2177 38.8893 42.6982Z" fill="#10100C"/>
<path d="M31.7399 37.7287C31.3766 37.7697 30.9429 37.7873 30.4565 37.758C30.8257 37.7111 31.2418 37.7111 31.7399 37.7287Z" fill="#10100C"/>
<path d="M38.4844 56.6104C38.4376 56.3994 38.4434 56.1533 38.4669 55.8369C38.502 56.0361 38.5137 56.3057 38.4844 56.6104Z" fill="#999F72"/>
<path d="M35.6137 38.162C35.3793 38.1913 35.0804 38.1679 34.7405 38.0975C34.9808 38.0682 35.2679 38.0917 35.6137 38.162Z" fill="#10100C"/>
<path d="M33.3628 37.8811C33.2163 37.9162 33.0053 37.9338 32.7592 37.8986C32.9174 37.8518 33.1049 37.8518 33.3628 37.8811Z" fill="#10100C"/>
<path d="M38.6664 40.3011C38.6019 40.2776 38.5316 40.1956 38.4613 40.0608C38.5199 40.0842 38.5902 40.1663 38.6664 40.3011Z" fill="#10100C"/>
<path d="M38.4965 43.1845C38.4965 43.1142 38.5433 43.0263 38.643 42.9325C38.643 43.0087 38.5961 43.0849 38.4965 43.1845Z" fill="#10100C"/>
<path d="M54.1906 56.0128C54.2199 56.0831 54.2023 56.1768 54.1496 56.3058C54.1261 56.2354 54.132 56.1358 54.1906 56.0128Z" fill="#8E5844"/>
<path d="M37.0959 38.8655C37.0548 38.8831 36.9787 38.8538 36.879 38.7718C36.9259 38.7542 36.9962 38.7835 37.0959 38.8655Z" fill="#10100C"/>
<path d="M38.7952 40.5064C38.7542 40.5122 38.7131 40.4712 38.6604 40.3833C38.7014 40.3774 38.7483 40.4185 38.7952 40.5064Z" fill="#10100C"/>
<path d="M33.9255 37.9278C33.9606 37.9512 33.902 37.9923 33.902 37.9923C33.902 37.9923 33.8317 37.9747 33.82 37.9512C33.8083 37.9278 33.8903 37.9044 33.9255 37.9278Z" fill="#10100C"/>
<path d="M38.7249 42.9208C38.7014 42.8798 38.7249 42.8153 38.8011 42.7391C38.8245 42.786 38.7952 42.8446 38.7249 42.9208Z" fill="#10100C"/>
<path d="M38.1451 43.4365C38.1392 43.3896 38.1978 43.3369 38.3091 43.2724C38.315 43.3134 38.2564 43.372 38.1451 43.4365Z" fill="#10100C"/>
<path d="M28.6214 62.2188C25.3338 59.8747 24.4782 56.546 24.6364 52.8306C24.7009 51.2659 25.1521 49.7833 26.0312 48.453C27.7365 45.8744 30.8073 45.2532 33.3741 46.9703C36.5621 49.1035 38.1034 53.6803 36.9489 57.7064C36.7321 58.4741 36.4625 59.2476 36.0933 59.9567C34.5696 62.8986 31.6278 63.7894 28.6214 62.2188Z" fill="#FDFDFD"/>
<path d="M36.6615 39.4864C37.0776 39.8145 37.5464 40.1017 37.9039 40.4826C38.6657 41.2972 38.3258 42.3931 37.2534 42.7095C35.8645 43.1256 34.5576 42.6099 33.2332 42.3286C32.7116 42.2173 32.2018 42.0825 31.5747 41.9184C31.4048 41.8481 31.3462 41.8246 31.2817 41.7953C30.0335 41.3206 28.7618 40.8928 27.5429 40.3537C27.1737 40.1896 26.9393 39.7384 26.6404 39.416C26.9686 39.1758 27.2967 38.7245 27.6249 38.7187C29.5822 38.6952 31.5396 38.748 33.4969 38.83C34.3525 38.8652 35.2081 39.041 36.1634 39.2051C36.4036 39.334 36.5326 39.4102 36.6615 39.4864Z" fill="#625442"/>
<path d="M28.7628 44.1046C29.0851 43.9933 29.4836 43.8878 29.9583 43.8057C29.6419 43.9171 29.2434 44.0167 28.7628 44.1046Z" fill="#10100C"/>
<path d="M27.1747 41.1453C26.9637 41.0867 26.7293 40.9636 26.4832 40.7936C26.6941 40.8522 26.9285 40.9695 27.1747 41.1453Z" fill="#10100C"/>
<path d="M28.6102 41.7136C28.5164 41.7487 28.4109 41.7311 28.2761 41.6667C28.3699 41.6315 28.4812 41.6491 28.6102 41.7136Z" fill="#10100C"/>
<path d="M36.6503 39.4224C36.5331 39.4107 36.4042 39.3345 36.2518 39.2056C36.3573 39.2231 36.498 39.2876 36.6503 39.4224Z" fill="#10100C"/>
<path d="M37.0552 48.9102C37.1665 48.9629 37.2661 49.0801 37.3658 49.2618C37.2661 49.209 37.1548 49.0918 37.0552 48.9102Z" fill="#10100C"/>
<path d="M26.4533 40.6765C26.3537 40.6472 26.2482 40.5593 26.1368 40.4186C26.2365 40.4538 26.342 40.5358 26.4533 40.6765Z" fill="#10100C"/>
<path d="M35.6011 46.4954C35.7007 46.5306 35.8062 46.6185 35.9117 46.765C35.812 46.7298 35.7066 46.6419 35.6011 46.4954Z" fill="#10100C"/>
<path d="M34.3705 45.3645C34.4584 45.3527 34.558 45.4055 34.6811 45.511C34.5932 45.5168 34.4935 45.4699 34.3705 45.3645Z" fill="#10100C"/>
<path d="M27.8595 44.28C27.8595 44.239 27.9122 44.1979 28.0177 44.1452C28.0177 44.1862 27.965 44.2273 27.8595 44.28Z" fill="#10100C"/>
<path d="M27.1505 44.6377C27.1447 44.5967 27.1915 44.544 27.2912 44.4736C27.297 44.5088 27.2501 44.5674 27.1505 44.6377Z" fill="#10100C"/>
<path d="M36.158 47.304C36.2048 47.2923 36.2752 47.3392 36.3631 47.4505C36.3162 47.4622 36.2459 47.4153 36.158 47.304Z" fill="#10100C"/>
<path d="M26.8163 44.8193C26.8104 44.7783 26.8573 44.7314 26.9569 44.6728C26.9569 44.708 26.91 44.7607 26.8163 44.8193Z" fill="#10100C"/>
<path d="M33.2749 44.6787C33.3218 44.6553 33.398 44.6846 33.5093 44.7666C33.4683 44.7959 33.3862 44.7608 33.2749 44.6787Z" fill="#10100C"/>
<path d="M31.3179 41.8423C31.353 41.8247 31.4116 41.854 31.5113 41.9244C31.4761 41.9361 31.4116 41.9126 31.3179 41.8423Z" fill="#10100C"/>
<path d="M47.1983 71.0854C47.5265 71.1382 47.7961 71.2261 48.0656 71.3198C47.9426 71.566 47.8898 71.9 47.6964 72.0348C46.7822 72.6911 45.8329 73.3006 44.8835 73.9042C44.1216 74.3848 43.395 74.291 42.8089 73.6053C42.1174 72.7966 41.4376 71.9703 40.8223 71.103C40.6817 70.8979 40.834 70.4877 40.8457 70.1771C41.1329 70.2943 41.508 70.3294 41.6955 70.5345C42.3108 71.2143 42.8617 71.9469 43.4184 72.6794C43.7935 73.1717 44.1627 73.1424 44.6315 72.8083C45.4461 72.2223 46.3017 71.6773 47.1983 71.0854Z" fill="#864C4B"/>
<path d="M71.0446 57.3841C72.1756 61.1054 70.5582 65.2486 67.2237 67.2938C63.5434 69.55 59.3709 69.2277 56.5169 66.4675C53.7626 63.8011 53.5927 58.9898 56.1243 55.6377C59.2713 51.471 65.4304 50.8557 69.14 54.4363C69.9429 55.2099 70.4058 56.3468 71.0446 57.3841Z" fill="#FDFEFD"/>
<path d="M66.4793 69.0518C66.2156 69.21 65.8932 69.3682 65.5006 69.5089C65.7585 69.3448 66.0866 69.1983 66.4793 69.0518Z" fill="#99B273"/>
<path d="M53.2998 62.8575C53.2236 62.7462 53.1533 62.5762 53.1357 62.3711C53.2295 62.4942 53.2705 62.6465 53.2998 62.8575Z" fill="#9ECA7B"/>
<path d="M56.5164 68.2198C56.3641 68.1788 56.1824 68.0909 56.0066 67.9268C56.1648 67.962 56.3289 68.0616 56.5164 68.2198Z" fill="#98C774"/>
<path d="M71.1853 53.1353C71.2908 53.1822 71.4021 53.2818 71.4959 53.4459C71.3846 53.4049 71.2849 53.2994 71.1853 53.1353Z" fill="#8E5844"/>
<path d="M64.7268 43.6125C66.2563 44.0344 67.7097 44.4271 69.163 44.849C69.4385 44.931 69.7315 45.0776 69.9249 45.2768C70.1066 45.4702 70.3175 45.8335 70.2472 46.0211C70.1593 46.2613 69.8018 46.4137 69.5498 46.5836C69.4854 46.6247 69.374 46.6071 69.2861 46.6071C66.4966 46.6129 63.7071 46.695 60.9293 46.5778C60.0034 46.5368 59.0482 46.0738 58.2043 45.6226C57.8234 45.4174 57.4425 44.7201 57.5069 44.3274C57.5831 43.882 58.0988 43.3019 58.5383 43.1671C59.3353 42.921 60.2378 42.8389 61.07 42.921C62.2713 43.044 63.461 43.3605 64.7268 43.6125Z" fill="#625442"/>
<path d="M48.225 92.112C48.6997 92.2175 49.1802 92.2644 49.4908 92.5164C49.6432 92.6394 49.608 93.243 49.4381 93.4481C49.2388 93.6884 48.7876 93.8584 48.4652 93.8291C47.68 93.7587 47.5452 92.9266 48.225 92.112Z" fill="#E8E2DA"/>
</g>
</svg>
