<svg width="110" height="38" viewBox="0 0 110 38" fill="none" xmlns="http://www.w3.org/2000/svg">
<rect x="0.5" y="0.5" width="108.299" height="37" rx="18.5" fill="#165135" stroke="black"/>
<path d="M35.6624 21.452L37.6544 15.212H39.1424L36.4664 23H34.9784L32.3384 15.212H33.8384L35.8064 21.452H35.6624ZM40.4569 23V15.212H45.4609V16.436H41.8729V18.488H45.2449V19.712H41.8729V21.764H45.4609V23H40.4569ZM47.4878 15.212H49.0358L52.5758 20.768H52.4678V15.212H53.8838V23H52.4438L48.6758 17.108H48.9038V23H47.4878V15.212ZM56.1134 15.212H58.6334C59.4254 15.212 60.1194 15.372 60.7154 15.692C61.3114 16.008 61.7754 16.458 62.1074 17.042C62.4394 17.626 62.6054 18.316 62.6054 19.112C62.6054 19.9 62.4394 20.586 62.1074 21.17C61.7754 21.75 61.3114 22.2 60.7154 22.52C60.1194 22.84 59.4254 23 58.6334 23H56.1134V15.212ZM57.5294 16.496V21.728H58.6334C59.1374 21.728 59.5714 21.614 59.9354 21.386C60.3034 21.158 60.5854 20.848 60.7814 20.456C60.9814 20.06 61.0814 19.612 61.0814 19.112C61.0814 18.604 60.9814 18.154 60.7814 17.762C60.5854 17.37 60.3034 17.062 59.9354 16.838C59.5714 16.61 59.1374 16.496 58.6334 16.496H57.5294ZM64.3397 23V15.212H69.3437V16.436H65.7557V18.488H69.1277V19.712H65.7557V21.764H69.3437V23H64.3397ZM71.3947 23V15.212H74.2747C75.2067 15.212 75.9207 15.43 76.4167 15.866C76.9167 16.302 77.1667 16.88 77.1667 17.6C77.1667 18.308 76.9167 18.88 76.4167 19.316C75.9207 19.748 75.2067 19.964 74.2747 19.964H72.8107V23H71.3947ZM75.6067 23L73.5427 19.352H75.0547L77.4547 23H75.6067ZM72.8107 19.016H74.1307C74.6507 19.016 75.0447 18.898 75.3127 18.662C75.5807 18.422 75.7147 18.112 75.7147 17.732C75.7147 17.344 75.5927 17.032 75.3487 16.796C75.1047 16.556 74.7467 16.436 74.2747 16.436H72.8107V19.016Z" fill="white"/>
<path d="M35.6624 21.452L34.7098 21.1479L34.2935 22.452H35.6624V21.452ZM37.6544 15.212V14.212H36.9239L36.7018 14.9079L37.6544 15.212ZM39.1424 15.212L40.0881 15.537L40.5434 14.212H39.1424V15.212ZM36.4664 23V24H37.1802L37.4121 23.325L36.4664 23ZM34.9784 23L34.0313 23.321L34.2615 24H34.9784V23ZM32.3384 15.212V14.212H30.9435L31.3913 15.533L32.3384 15.212ZM33.8384 15.212L34.7921 14.9112L34.5716 14.212H33.8384V15.212ZM35.8064 21.452V22.452H37.1703L36.7601 21.1512L35.8064 21.452ZM36.615 21.7561L38.607 15.5161L36.7018 14.9079L34.7098 21.1479L36.615 21.7561ZM37.6544 16.212H39.1424V14.212H37.6544V16.212ZM38.1967 14.887L35.5207 22.675L37.4121 23.325L40.0881 15.537L38.1967 14.887ZM36.4664 22H34.9784V24H36.4664V22ZM35.9255 22.679L33.2855 14.891L31.3913 15.533L34.0313 23.321L35.9255 22.679ZM32.3384 16.212H33.8384V14.212H32.3384V16.212ZM32.8847 15.5128L34.8527 21.7528L36.7601 21.1512L34.7921 14.9112L32.8847 15.5128ZM35.8064 20.452H35.6624V22.452H35.8064V20.452ZM40.4569 23H39.4569V24H40.4569V23ZM40.4569 15.212V14.212H39.4569V15.212H40.4569ZM45.4609 15.212H46.4609V14.212H45.4609V15.212ZM45.4609 16.436V17.436H46.4609V16.436H45.4609ZM41.8729 16.436V15.436H40.8729V16.436H41.8729ZM41.8729 18.488H40.8729V19.488H41.8729V18.488ZM45.2449 18.488H46.2449V17.488H45.2449V18.488ZM45.2449 19.712V20.712H46.2449V19.712H45.2449ZM41.8729 19.712V18.712H40.8729V19.712H41.8729ZM41.8729 21.764H40.8729V22.764H41.8729V21.764ZM45.4609 21.764H46.4609V20.764H45.4609V21.764ZM45.4609 23V24H46.4609V23H45.4609ZM41.4569 23V15.212H39.4569V23H41.4569ZM40.4569 16.212H45.4609V14.212H40.4569V16.212ZM44.4609 15.212V16.436H46.4609V15.212H44.4609ZM45.4609 15.436H41.8729V17.436H45.4609V15.436ZM40.8729 16.436V18.488H42.8729V16.436H40.8729ZM41.8729 19.488H45.2449V17.488H41.8729V19.488ZM44.2449 18.488V19.712H46.2449V18.488H44.2449ZM45.2449 18.712H41.8729V20.712H45.2449V18.712ZM40.8729 19.712V21.764H42.8729V19.712H40.8729ZM41.8729 22.764H45.4609V20.764H41.8729V22.764ZM44.4609 21.764V23H46.4609V21.764H44.4609ZM45.4609 22H40.4569V24H45.4609V22ZM47.4878 15.212V14.212H46.4878V15.212H47.4878ZM49.0358 15.212L49.8792 14.6747L49.5844 14.212H49.0358V15.212ZM52.5758 20.768V21.768H54.3987L53.4192 20.2307L52.5758 20.768ZM52.4678 20.768H51.4678V21.768H52.4678V20.768ZM52.4678 15.212V14.212H51.4678V15.212H52.4678ZM53.8838 15.212H54.8838V14.212H53.8838V15.212ZM53.8838 23V24H54.8838V23H53.8838ZM52.4438 23L51.6014 23.5388L51.8963 24H52.4438V23ZM48.6758 17.108V16.108H46.8493L47.8334 17.6468L48.6758 17.108ZM48.9038 17.108H49.9038V16.108H48.9038V17.108ZM48.9038 23V24H49.9038V23H48.9038ZM47.4878 23H46.4878V24H47.4878V23ZM47.4878 16.212H49.0358V14.212H47.4878V16.212ZM48.1925 15.7493L51.7325 21.3053L53.4192 20.2307L49.8792 14.6747L48.1925 15.7493ZM52.5758 19.768H52.4678V21.768H52.5758V19.768ZM53.4678 20.768V15.212H51.4678V20.768H53.4678ZM52.4678 16.212H53.8838V14.212H52.4678V16.212ZM52.8838 15.212V23H54.8838V15.212H52.8838ZM53.8838 22H52.4438V24H53.8838V22ZM53.2863 22.4612L49.5183 16.5692L47.8334 17.6468L51.6014 23.5388L53.2863 22.4612ZM48.6758 18.108H48.9038V16.108H48.6758V18.108ZM47.9038 17.108V23H49.9038V17.108H47.9038ZM48.9038 22H47.4878V24H48.9038V22ZM48.4878 23V15.212H46.4878V23H48.4878ZM56.1134 15.212V14.212H55.1134V15.212H56.1134ZM60.7154 15.692L60.2424 16.5731L60.247 16.5755L60.7154 15.692ZM62.1074 17.042L62.9767 16.5478V16.5478L62.1074 17.042ZM62.1074 21.17L62.9753 21.6668L62.9767 21.6642L62.1074 21.17ZM60.7154 22.52L61.1884 23.401L60.7154 22.52ZM56.1134 23H55.1134V24H56.1134V23ZM57.5294 16.496V15.496H56.5294V16.496H57.5294ZM57.5294 21.728H56.5294V22.728H57.5294V21.728ZM59.9354 21.386L59.4087 20.5359L59.4046 20.5385L59.9354 21.386ZM60.7814 20.456L59.8888 20.0052L59.887 20.0088L60.7814 20.456ZM60.7814 17.762L59.8869 18.2092L59.8906 18.2165L60.7814 17.762ZM59.9354 16.838L59.4045 17.6855L59.4155 17.6922L59.9354 16.838ZM56.1134 16.212H58.6334V14.212H56.1134V16.212ZM58.6334 16.212C59.2886 16.212 59.8148 16.3435 60.2424 16.573L61.1884 14.811C60.424 14.4005 59.5622 14.212 58.6334 14.212V16.212ZM60.247 16.5755C60.6758 16.8029 61.0004 17.1182 61.2381 17.5362L62.9767 16.5478C62.5504 15.7978 61.947 15.2131 61.1838 14.8085L60.247 16.5755ZM61.2381 17.5362C61.4698 17.9439 61.6054 18.4571 61.6054 19.112H63.6054C63.6054 18.1749 63.409 17.3081 62.9767 16.5478L61.2381 17.5362ZM61.6054 19.112C61.6054 19.7569 61.4707 20.2666 61.2381 20.6758L62.9767 21.6642C63.4081 20.9054 63.6054 20.0431 63.6054 19.112H61.6054ZM61.2395 20.6732C61.0018 21.0886 60.6755 21.4064 60.2424 21.639L61.1884 23.401C61.9473 22.9936 62.549 22.4114 62.9753 21.6668L61.2395 20.6732ZM60.2424 21.639C59.8148 21.8685 59.2886 22 58.6334 22V24C59.5622 24 60.424 23.8115 61.1884 23.401L60.2424 21.639ZM58.6334 22H56.1134V24H58.6334V22ZM57.1134 23V15.212H55.1134V23H57.1134ZM56.5294 16.496V21.728H58.5294V16.496H56.5294ZM57.5294 22.728H58.6334V20.728H57.5294V22.728ZM58.6334 22.728C59.2921 22.728 59.9172 22.5773 60.4662 22.2335L59.4046 20.5385C59.2256 20.6507 58.9827 20.728 58.6334 20.728V22.728ZM60.4621 22.2361C60.9897 21.9092 61.398 21.4588 61.6758 20.9032L59.887 20.0088C59.7728 20.2372 59.6171 20.4068 59.4087 20.5359L60.4621 22.2361ZM61.674 20.9068C61.9531 20.3541 62.0814 19.7485 62.0814 19.112H60.0814C60.0814 19.4755 60.0097 19.7659 59.8888 20.0052L61.674 20.9068ZM62.0814 19.112C62.0814 18.4705 61.9543 17.8605 61.6722 17.3075L59.8906 18.2165C60.0085 18.4475 60.0814 18.7375 60.0814 19.112H62.0814ZM61.6758 17.3148C61.3973 16.7577 60.9869 16.3073 60.4553 15.9838L59.4155 17.6922C59.6199 17.8167 59.7735 17.9823 59.887 18.2092L61.6758 17.3148ZM60.4662 15.9905C59.9172 15.6467 59.2921 15.496 58.6334 15.496V17.496C58.9827 17.496 59.2256 17.5733 59.4046 17.6855L60.4662 15.9905ZM58.6334 15.496H57.5294V17.496H58.6334V15.496ZM64.3397 23H63.3397V24H64.3397V23ZM64.3397 15.212V14.212H63.3397V15.212H64.3397ZM69.3437 15.212H70.3437V14.212H69.3437V15.212ZM69.3437 16.436V17.436H70.3437V16.436H69.3437ZM65.7557 16.436V15.436H64.7557V16.436H65.7557ZM65.7557 18.488H64.7557V19.488H65.7557V18.488ZM69.1277 18.488H70.1277V17.488H69.1277V18.488ZM69.1277 19.712V20.712H70.1277V19.712H69.1277ZM65.7557 19.712V18.712H64.7557V19.712H65.7557ZM65.7557 21.764H64.7557V22.764H65.7557V21.764ZM69.3437 21.764H70.3437V20.764H69.3437V21.764ZM69.3437 23V24H70.3437V23H69.3437ZM65.3397 23V15.212H63.3397V23H65.3397ZM64.3397 16.212H69.3437V14.212H64.3397V16.212ZM68.3437 15.212V16.436H70.3437V15.212H68.3437ZM69.3437 15.436H65.7557V17.436H69.3437V15.436ZM64.7557 16.436V18.488H66.7557V16.436H64.7557ZM65.7557 19.488H69.1277V17.488H65.7557V19.488ZM68.1277 18.488V19.712H70.1277V18.488H68.1277ZM69.1277 18.712H65.7557V20.712H69.1277V18.712ZM64.7557 19.712V21.764H66.7557V19.712H64.7557ZM65.7557 22.764H69.3437V20.764H65.7557V22.764ZM68.3437 21.764V23H70.3437V21.764H68.3437ZM69.3437 22H64.3397V24H69.3437V22ZM71.3947 23H70.3947V24H71.3947V23ZM71.3947 15.212V14.212H70.3947V15.212H71.3947ZM76.4167 15.866L75.7564 16.6171L75.7594 16.6197L76.4167 15.866ZM76.4167 19.316L77.0734 20.0701L77.0739 20.0697L76.4167 19.316ZM72.8107 19.964V18.964H71.8107V19.964H72.8107ZM72.8107 23V24H73.8107V23H72.8107ZM75.6067 23L74.7363 23.4924L75.0235 24H75.6067V23ZM73.5427 19.352V18.352H71.8279L72.6723 19.8444L73.5427 19.352ZM75.0547 19.352L75.8901 18.8024L75.5938 18.352H75.0547V19.352ZM77.4547 23V24H79.3096L78.2901 22.4504L77.4547 23ZM72.8107 19.016H71.8107V20.016H72.8107V19.016ZM75.3127 18.662L75.9736 19.4125L75.9798 19.4069L75.3127 18.662ZM75.3487 16.796L74.6474 17.509L74.6534 17.5148L75.3487 16.796ZM72.8107 16.436V15.436H71.8107V16.436H72.8107ZM72.3947 23V15.212H70.3947V23H72.3947ZM71.3947 16.212H74.2747V14.212H71.3947V16.212ZM74.2747 16.212C75.0629 16.212 75.5058 16.3967 75.7564 16.6171L77.0769 15.1149C76.3355 14.4633 75.3504 14.212 74.2747 14.212V16.212ZM75.7594 16.6197C76.0215 16.8482 76.1667 17.1411 76.1667 17.6H78.1667C78.1667 16.6189 77.8118 15.7558 77.0739 15.1123L75.7594 16.6197ZM76.1667 17.6C76.1667 18.0411 76.0256 18.3302 75.7594 18.5623L77.0739 20.0697C77.8077 19.4298 78.1667 18.5749 78.1667 17.6H76.1667ZM75.7599 18.5619C75.5092 18.7803 75.0649 18.964 74.2747 18.964V20.964C75.3484 20.964 76.3321 20.7157 77.0734 20.0701L75.7599 18.5619ZM74.2747 18.964H72.8107V20.964H74.2747V18.964ZM71.8107 19.964V23H73.8107V19.964H71.8107ZM72.8107 22H71.3947V24H72.8107V22ZM76.477 22.5076L74.413 18.8596L72.6723 19.8444L74.7363 23.4924L76.477 22.5076ZM73.5427 20.352H75.0547V18.352H73.5427V20.352ZM74.2192 19.9016L76.6192 23.5496L78.2901 22.4504L75.8901 18.8024L74.2192 19.9016ZM77.4547 22H75.6067V24H77.4547V22ZM72.8107 20.016H74.1307V18.016H72.8107V20.016ZM74.1307 20.016C74.785 20.016 75.4551 19.8691 75.9735 19.4125L74.6518 17.9115C74.6343 17.9269 74.5163 18.016 74.1307 18.016V20.016ZM75.9798 19.4069C76.4727 18.9655 76.7147 18.3782 76.7147 17.732H74.7147C74.7147 17.8458 74.6886 17.8785 74.6455 17.917L75.9798 19.4069ZM76.7147 17.732C76.7147 17.1153 76.5111 16.5291 76.0439 16.0772L74.6534 17.5148C74.6742 17.5349 74.7147 17.5727 74.7147 17.732H76.7147ZM76.0499 16.0831C75.5573 15.5986 74.9078 15.436 74.2747 15.436V17.436C74.4285 17.436 74.5247 17.4558 74.5793 17.4742C74.6294 17.4909 74.6445 17.506 74.6474 17.5089L76.0499 16.0831ZM74.2747 15.436H72.8107V17.436H74.2747V15.436ZM71.8107 16.436V19.016H73.8107V16.436H71.8107Z" fill="black"/>
</svg>
