<svg width="110" height="38" viewBox="0 0 110 38" fill="none" xmlns="http://www.w3.org/2000/svg">
<rect x="0.5" y="0.5" width="108.299" height="37" rx="18.5" fill="#165135" stroke="black"/>
<path d="M17.6858 21.452L19.6778 15.212H21.1658L18.4898 23H17.0018L14.3618 15.212H15.8618L17.8298 21.452H17.6858ZM22.4803 23V15.212H27.4843V16.436H23.8963V18.488H27.2683V19.712H23.8963V21.764H27.4843V23H22.4803ZM29.5353 23V15.212H32.4153C33.3473 15.212 34.0613 15.43 34.5573 15.866C35.0573 16.302 35.3073 16.88 35.3073 17.6C35.3073 18.308 35.0573 18.88 34.5573 19.316C34.0613 19.748 33.3473 19.964 32.4153 19.964H30.9513V23H29.5353ZM33.7473 23L31.6833 19.352H33.1953L35.5953 23H33.7473ZM30.9513 19.016H32.2713C32.7913 19.016 33.1853 18.898 33.4533 18.662C33.7213 18.422 33.8553 18.112 33.8553 17.732C33.8553 17.344 33.7333 17.032 33.4893 16.796C33.2453 16.556 32.8873 16.436 32.4153 16.436H30.9513V19.016ZM40.2931 15.212H42.3211L44.5171 19.976H44.3971L46.5931 15.212H48.5491V23H47.1211V16.844H47.3371L44.9131 22.148H43.9891L41.5771 16.868H41.7091V23H40.2931V15.212ZM50.7694 23V15.212H55.7734V16.436H52.1854V18.488H55.5574V19.712H52.1854V21.764H55.7734V23H50.7694ZM57.8243 23V15.212H60.7043C61.6363 15.212 62.3503 15.43 62.8463 15.866C63.3463 16.302 63.5963 16.88 63.5963 17.6C63.5963 18.308 63.3463 18.88 62.8463 19.316C62.3503 19.748 61.6363 19.964 60.7043 19.964H59.2403V23H57.8243ZM62.0363 23L59.9723 19.352H61.4843L63.8843 23H62.0363ZM59.2403 19.016H60.5603C61.0803 19.016 61.4743 18.898 61.7423 18.662C62.0103 18.422 62.1443 18.112 62.1443 17.732C62.1443 17.344 62.0223 17.032 61.7783 16.796C61.5343 16.556 61.1763 16.436 60.7043 16.436H59.2403V19.016ZM68.379 23.168C67.695 23.168 67.099 23.006 66.591 22.682C66.087 22.354 65.695 21.886 65.415 21.278C65.135 20.67 64.995 19.94 64.995 19.088C64.995 18.208 65.139 17.47 65.427 16.874C65.719 16.274 66.119 15.822 66.627 15.518C67.139 15.21 67.723 15.056 68.379 15.056C69.287 15.056 69.995 15.276 70.503 15.716C71.015 16.156 71.343 16.728 71.487 17.432L69.975 17.708C69.851 17.3 69.653 16.97 69.381 16.718C69.109 16.466 68.775 16.34 68.379 16.34C68.031 16.34 67.717 16.442 67.437 16.646C67.157 16.846 66.933 17.15 66.765 17.558C66.601 17.966 66.519 18.476 66.519 19.088C66.519 19.664 66.591 20.16 66.735 20.576C66.883 20.992 67.095 21.312 67.371 21.536C67.647 21.76 67.983 21.872 68.379 21.872C68.887 21.872 69.279 21.738 69.555 21.47C69.835 21.198 69.975 20.852 69.975 20.432H71.487C71.487 21.012 71.361 21.506 71.109 21.914C70.861 22.318 70.505 22.628 70.041 22.844C69.577 23.06 69.023 23.168 68.379 23.168ZM72.3005 23L74.9525 15.212H76.7285L79.2725 23H77.7845L77.2445 21.32H74.3525L73.8005 23H72.3005ZM74.7125 20.252H76.9085L75.8165 16.904L74.7125 20.252ZM80.6642 15.212H83.1842C83.9762 15.212 84.6702 15.372 85.2662 15.692C85.8622 16.008 86.3262 16.458 86.6582 17.042C86.9902 17.626 87.1562 18.316 87.1562 19.112C87.1562 19.9 86.9902 20.586 86.6582 21.17C86.3262 21.75 85.8622 22.2 85.2662 22.52C84.6702 22.84 83.9762 23 83.1842 23H80.6642V15.212ZM82.0802 16.496V21.728H83.1842C83.6882 21.728 84.1222 21.614 84.4862 21.386C84.8542 21.158 85.1362 20.848 85.3322 20.456C85.5322 20.06 85.6322 19.612 85.6322 19.112C85.6322 18.604 85.5322 18.154 85.3322 17.762C85.1362 17.37 84.8542 17.062 84.4862 16.838C84.1222 16.61 83.6882 16.496 83.1842 16.496H82.0802ZM91.8785 23.168C91.1865 23.168 90.5745 23.016 90.0425 22.712C89.5145 22.408 89.1005 21.954 88.8005 21.35C88.5005 20.746 88.3505 19.996 88.3505 19.1C88.3505 18.188 88.5005 17.434 88.8005 16.838C89.1005 16.238 89.5145 15.792 90.0425 15.5C90.5745 15.204 91.1865 15.056 91.8785 15.056C92.5745 15.056 93.1885 15.208 93.7205 15.512C94.2525 15.812 94.6685 16.262 94.9685 16.862C95.2685 17.462 95.4185 18.208 95.4185 19.1C95.4185 20.008 95.2685 20.764 94.9685 21.368C94.6685 21.972 94.2525 22.424 93.7205 22.724C93.1885 23.02 92.5745 23.168 91.8785 23.168ZM91.8785 21.884C92.5145 21.884 93.0185 21.644 93.3905 21.164C93.7665 20.684 93.9545 19.992 93.9545 19.088C93.9545 18.216 93.7665 17.538 93.3905 17.054C93.0185 16.57 92.5145 16.328 91.8785 16.328C91.2545 16.328 90.7545 16.572 90.3785 17.06C90.0025 17.544 89.8145 18.224 89.8145 19.1C89.8145 20 90.0025 20.69 90.3785 21.17C90.7545 21.646 91.2545 21.884 91.8785 21.884Z" fill="white"/>
<path d="M17.6858 21.452L16.7332 21.1479L16.3169 22.452H17.6858V21.452ZM19.6778 15.212V14.212H18.9474L18.7252 14.9079L19.6778 15.212ZM21.1658 15.212L22.1116 15.537L22.5668 14.212H21.1658V15.212ZM18.4898 23V24H19.2036L19.4356 23.325L18.4898 23ZM17.0018 23L16.0548 23.321L16.2849 24H17.0018V23ZM14.3618 15.212V14.212H12.967L13.4148 15.533L14.3618 15.212ZM15.8618 15.212L16.8155 14.9112L16.595 14.212H15.8618V15.212ZM17.8298 21.452V22.452H19.1938L18.7835 21.1512L17.8298 21.452ZM18.6385 21.7561L20.6305 15.5161L18.7252 14.9079L16.7332 21.1479L18.6385 21.7561ZM19.6778 16.212H21.1658V14.212H19.6778V16.212ZM20.2201 14.887L17.5441 22.675L19.4356 23.325L22.1116 15.537L20.2201 14.887ZM18.4898 22H17.0018V24H18.4898V22ZM17.9489 22.679L15.3089 14.891L13.4148 15.533L16.0548 23.321L17.9489 22.679ZM14.3618 16.212H15.8618V14.212H14.3618V16.212ZM14.9081 15.5128L16.8761 21.7528L18.7835 21.1512L16.8155 14.9112L14.9081 15.5128ZM17.8298 20.452H17.6858V22.452H17.8298V20.452ZM22.4803 23H21.4803V24H22.4803V23ZM22.4803 15.212V14.212H21.4803V15.212H22.4803ZM27.4843 15.212H28.4843V14.212H27.4843V15.212ZM27.4843 16.436V17.436H28.4843V16.436H27.4843ZM23.8963 16.436V15.436H22.8963V16.436H23.8963ZM23.8963 18.488H22.8963V19.488H23.8963V18.488ZM27.2683 18.488H28.2683V17.488H27.2683V18.488ZM27.2683 19.712V20.712H28.2683V19.712H27.2683ZM23.8963 19.712V18.712H22.8963V19.712H23.8963ZM23.8963 21.764H22.8963V22.764H23.8963V21.764ZM27.4843 21.764H28.4843V20.764H27.4843V21.764ZM27.4843 23V24H28.4843V23H27.4843ZM23.4803 23V15.212H21.4803V23H23.4803ZM22.4803 16.212H27.4843V14.212H22.4803V16.212ZM26.4843 15.212V16.436H28.4843V15.212H26.4843ZM27.4843 15.436H23.8963V17.436H27.4843V15.436ZM22.8963 16.436V18.488H24.8963V16.436H22.8963ZM23.8963 19.488H27.2683V17.488H23.8963V19.488ZM26.2683 18.488V19.712H28.2683V18.488H26.2683ZM27.2683 18.712H23.8963V20.712H27.2683V18.712ZM22.8963 19.712V21.764H24.8963V19.712H22.8963ZM23.8963 22.764H27.4843V20.764H23.8963V22.764ZM26.4843 21.764V23H28.4843V21.764H26.4843ZM27.4843 22H22.4803V24H27.4843V22ZM29.5353 23H28.5353V24H29.5353V23ZM29.5353 15.212V14.212H28.5353V15.212H29.5353ZM34.5573 15.866L33.8971 16.6171L33.9001 16.6197L34.5573 15.866ZM34.5573 19.316L35.2141 20.0701L35.2145 20.0697L34.5573 19.316ZM30.9513 19.964V18.964H29.9513V19.964H30.9513ZM30.9513 23V24H31.9513V23H30.9513ZM33.7473 23L32.8769 23.4924L33.1641 24H33.7473V23ZM31.6833 19.352V18.352H29.9685L30.8129 19.8444L31.6833 19.352ZM33.1953 19.352L34.0307 18.8024L33.7344 18.352H33.1953V19.352ZM35.5953 23V24H37.4502L36.4307 22.4504L35.5953 23ZM30.9513 19.016H29.9513V20.016H30.9513V19.016ZM33.4533 18.662L34.1142 19.4125L34.1204 19.4069L33.4533 18.662ZM33.4893 16.796L32.788 17.509L32.7941 17.5148L33.4893 16.796ZM30.9513 16.436V15.436H29.9513V16.436H30.9513ZM30.5353 23V15.212H28.5353V23H30.5353ZM29.5353 16.212H32.4153V14.212H29.5353V16.212ZM32.4153 16.212C33.2035 16.212 33.6464 16.3967 33.8971 16.6171L35.2175 15.1149C34.4761 14.4633 33.491 14.212 32.4153 14.212V16.212ZM33.9001 16.6197C34.1622 16.8482 34.3073 17.1411 34.3073 17.6H36.3073C36.3073 16.6189 35.9524 15.7558 35.2145 15.1123L33.9001 16.6197ZM34.3073 17.6C34.3073 18.0411 34.1662 18.3302 33.9001 18.5623L35.2145 20.0697C35.9483 19.4298 36.3073 18.5749 36.3073 17.6H34.3073ZM33.9005 18.5619C33.6498 18.7803 33.2055 18.964 32.4153 18.964V20.964C33.489 20.964 34.4728 20.7157 35.2141 20.0701L33.9005 18.5619ZM32.4153 18.964H30.9513V20.964H32.4153V18.964ZM29.9513 19.964V23H31.9513V19.964H29.9513ZM30.9513 22H29.5353V24H30.9513V22ZM34.6176 22.5076L32.5536 18.8596L30.8129 19.8444L32.8769 23.4924L34.6176 22.5076ZM31.6833 20.352H33.1953V18.352H31.6833V20.352ZM32.3599 19.9016L34.7599 23.5496L36.4307 22.4504L34.0307 18.8024L32.3599 19.9016ZM35.5953 22H33.7473V24H35.5953V22ZM30.9513 20.016H32.2713V18.016H30.9513V20.016ZM32.2713 20.016C32.9257 20.016 33.5957 19.8691 34.1142 19.4125L32.7924 17.9115C32.7749 17.9269 32.6569 18.016 32.2713 18.016V20.016ZM34.1204 19.4069C34.6133 18.9655 34.8553 18.3782 34.8553 17.732H32.8553C32.8553 17.8458 32.8292 17.8785 32.7862 17.917L34.1204 19.4069ZM34.8553 17.732C34.8553 17.1153 34.6518 16.5291 34.1845 16.0772L32.7941 17.5148C32.8148 17.5349 32.8553 17.5727 32.8553 17.732H34.8553ZM34.1905 16.0831C33.6979 15.5986 33.0484 15.436 32.4153 15.436V17.436C32.5691 17.436 32.6653 17.4558 32.72 17.4742C32.77 17.4909 32.7851 17.506 32.788 17.5089L34.1905 16.0831ZM32.4153 15.436H30.9513V17.436H32.4153V15.436ZM29.9513 16.436V19.016H31.9513V16.436H29.9513ZM40.2931 15.212V14.212H39.2931V15.212H40.2931ZM42.3211 15.212L43.2293 14.7934L42.9613 14.212H42.3211V15.212ZM44.5171 19.976V20.976H46.0792L45.4253 19.5574L44.5171 19.976ZM44.3971 19.976L43.4889 19.5574L42.835 20.976H44.3971V19.976ZM46.5931 15.212V14.212H45.9529L45.6849 14.7934L46.5931 15.212ZM48.5491 15.212H49.5491V14.212H48.5491V15.212ZM48.5491 23V24H49.5491V23H48.5491ZM47.1211 23H46.1211V24H47.1211V23ZM47.1211 16.844V15.844H46.1211V16.844H47.1211ZM47.3371 16.844L48.2466 17.2597L48.8936 15.844H47.3371V16.844ZM44.9131 22.148V23.148H45.5556L45.8226 22.5637L44.9131 22.148ZM43.9891 22.148L43.0795 22.5635L43.3465 23.148H43.9891V22.148ZM41.5771 16.868V15.868H40.0209L40.6675 17.2835L41.5771 16.868ZM41.7091 16.868H42.7091V15.868H41.7091V16.868ZM41.7091 23V24H42.7091V23H41.7091ZM40.2931 23H39.2931V24H40.2931V23ZM40.2931 16.212H42.3211V14.212H40.2931V16.212ZM41.4129 15.6306L43.6089 20.3946L45.4253 19.5574L43.2293 14.7934L41.4129 15.6306ZM44.5171 18.976H44.3971V20.976H44.5171V18.976ZM45.3053 20.3946L47.5013 15.6306L45.6849 14.7934L43.4889 19.5574L45.3053 20.3946ZM46.5931 16.212H48.5491V14.212H46.5931V16.212ZM47.5491 15.212V23H49.5491V15.212H47.5491ZM48.5491 22H47.1211V24H48.5491V22ZM48.1211 23V16.844H46.1211V23H48.1211ZM47.1211 17.844H47.3371V15.844H47.1211V17.844ZM46.4276 16.4283L44.0036 21.7323L45.8226 22.5637L48.2466 17.2597L46.4276 16.4283ZM44.9131 21.148H43.9891V23.148H44.9131V21.148ZM44.8987 21.7325L42.4867 16.4525L40.6675 17.2835L43.0795 22.5635L44.8987 21.7325ZM41.5771 17.868H41.7091V15.868H41.5771V17.868ZM40.7091 16.868V23H42.7091V16.868H40.7091ZM41.7091 22H40.2931V24H41.7091V22ZM41.2931 23V15.212H39.2931V23H41.2931ZM50.7694 23H49.7694V24H50.7694V23ZM50.7694 15.212V14.212H49.7694V15.212H50.7694ZM55.7734 15.212H56.7734V14.212H55.7734V15.212ZM55.7734 16.436V17.436H56.7734V16.436H55.7734ZM52.1854 16.436V15.436H51.1854V16.436H52.1854ZM52.1854 18.488H51.1854V19.488H52.1854V18.488ZM55.5574 18.488H56.5574V17.488H55.5574V18.488ZM55.5574 19.712V20.712H56.5574V19.712H55.5574ZM52.1854 19.712V18.712H51.1854V19.712H52.1854ZM52.1854 21.764H51.1854V22.764H52.1854V21.764ZM55.7734 21.764H56.7734V20.764H55.7734V21.764ZM55.7734 23V24H56.7734V23H55.7734ZM51.7694 23V15.212H49.7694V23H51.7694ZM50.7694 16.212H55.7734V14.212H50.7694V16.212ZM54.7734 15.212V16.436H56.7734V15.212H54.7734ZM55.7734 15.436H52.1854V17.436H55.7734V15.436ZM51.1854 16.436V18.488H53.1854V16.436H51.1854ZM52.1854 19.488H55.5574V17.488H52.1854V19.488ZM54.5574 18.488V19.712H56.5574V18.488H54.5574ZM55.5574 18.712H52.1854V20.712H55.5574V18.712ZM51.1854 19.712V21.764H53.1854V19.712H51.1854ZM52.1854 22.764H55.7734V20.764H52.1854V22.764ZM54.7734 21.764V23H56.7734V21.764H54.7734ZM55.7734 22H50.7694V24H55.7734V22ZM57.8243 23H56.8243V24H57.8243V23ZM57.8243 15.212V14.212H56.8243V15.212H57.8243ZM62.8463 15.866L62.1861 16.6171L62.1891 16.6197L62.8463 15.866ZM62.8463 19.316L63.5031 20.0701L63.5036 20.0697L62.8463 19.316ZM59.2403 19.964V18.964H58.2403V19.964H59.2403ZM59.2403 23V24H60.2403V23H59.2403ZM62.0363 23L61.166 23.4924L61.4532 24H62.0363V23ZM59.9723 19.352V18.352H58.2576L59.102 19.8444L59.9723 19.352ZM61.4843 19.352L62.3198 18.8024L62.0235 18.352H61.4843V19.352ZM63.8843 23V24H65.7392L64.7198 22.4504L63.8843 23ZM59.2403 19.016H58.2403V20.016H59.2403V19.016ZM61.7423 18.662L62.4032 19.4125L62.4095 19.4069L61.7423 18.662ZM61.7783 16.796L61.0771 17.509L61.0831 17.5148L61.7783 16.796ZM59.2403 16.436V15.436H58.2403V16.436H59.2403ZM58.8243 23V15.212H56.8243V23H58.8243ZM57.8243 16.212H60.7043V14.212H57.8243V16.212ZM60.7043 16.212C61.4926 16.212 61.9355 16.3967 62.1861 16.6171L63.5066 15.1149C62.7652 14.4633 61.7801 14.212 60.7043 14.212V16.212ZM62.1891 16.6197C62.4512 16.8482 62.5963 17.1411 62.5963 17.6H64.5963C64.5963 16.6189 64.2415 15.7558 63.5036 15.1123L62.1891 16.6197ZM62.5963 17.6C62.5963 18.0411 62.4553 18.3302 62.1891 18.5623L63.5036 20.0697C64.2374 19.4298 64.5963 18.5749 64.5963 17.6H62.5963ZM62.1896 18.5619C61.9389 18.7803 61.4946 18.964 60.7043 18.964V20.964C61.7781 20.964 62.7618 20.7157 63.5031 20.0701L62.1896 18.5619ZM60.7043 18.964H59.2403V20.964H60.7043V18.964ZM58.2403 19.964V23H60.2403V19.964H58.2403ZM59.2403 22H57.8243V24H59.2403V22ZM62.9067 22.5076L60.8427 18.8596L59.102 19.8444L61.166 23.4924L62.9067 22.5076ZM59.9723 20.352H61.4843V18.352H59.9723V20.352ZM60.6489 19.9016L63.0489 23.5496L64.7198 22.4504L62.3198 18.8024L60.6489 19.9016ZM63.8843 22H62.0363V24H63.8843V22ZM59.2403 20.016H60.5603V18.016H59.2403V20.016ZM60.5603 20.016C61.2147 20.016 61.8847 19.8691 62.4032 19.4125L61.0815 17.9115C61.0639 17.9269 60.946 18.016 60.5603 18.016V20.016ZM62.4095 19.4069C62.9024 18.9655 63.1443 18.3782 63.1443 17.732H61.1443C61.1443 17.8458 61.1183 17.8785 61.0752 17.917L62.4095 19.4069ZM63.1443 17.732C63.1443 17.1153 62.9408 16.5291 62.4736 16.0772L61.0831 17.5148C61.1039 17.5349 61.1443 17.5727 61.1443 17.732H63.1443ZM62.4796 16.0831C61.987 15.5986 61.3374 15.436 60.7043 15.436V17.436C60.8581 17.436 60.9544 17.4558 61.009 17.4742C61.0591 17.4909 61.0742 17.506 61.0771 17.5089L62.4796 16.0831ZM60.7043 15.436H59.2403V17.436H60.7043V15.436ZM58.2403 16.436V19.016H60.2403V16.436H58.2403ZM66.591 22.682L66.0455 23.5202L66.0533 23.5251L66.591 22.682ZM65.415 21.278L64.5067 21.6963L65.415 21.278ZM65.427 16.874L64.5278 16.4364L64.5266 16.4389L65.427 16.874ZM66.627 15.518L67.1405 16.3761L67.1425 16.3749L66.627 15.518ZM70.503 15.716L69.8483 16.4719L69.8512 16.4744L70.503 15.716ZM71.487 17.432L71.6666 18.4157L72.6714 18.2323L72.4667 17.2316L71.487 17.432ZM69.975 17.708L69.0182 17.9988L69.2775 18.8518L70.1546 18.6917L69.975 17.708ZM69.381 16.718L70.0606 15.9844L70.0606 15.9844L69.381 16.718ZM67.437 16.646L68.0183 17.4598L68.0259 17.4542L67.437 16.646ZM66.765 17.558L65.8403 17.1772L65.8372 17.185L66.765 17.558ZM66.735 20.576L65.79 20.9031L65.7928 20.9112L66.735 20.576ZM67.371 21.536L66.7408 22.3125L67.371 21.536ZM69.555 21.47L70.2516 22.1874L70.2518 22.1873L69.555 21.47ZM69.975 20.432V19.432H68.975V20.432H69.975ZM71.487 20.432H72.487V19.432H71.487V20.432ZM71.109 21.914L70.2582 21.3885L70.2568 21.3908L71.109 21.914ZM70.041 22.844L70.463 23.7506L70.041 22.844ZM68.379 22.168C67.8591 22.168 67.4551 22.0471 67.1287 21.8389L66.0533 23.5251C66.7429 23.9649 67.5309 24.168 68.379 24.168V22.168ZM67.1365 21.8439C66.8081 21.6302 66.5336 21.3163 66.3233 20.8597L64.5067 21.6963C64.8564 22.4557 65.3659 23.0778 66.0455 23.5201L67.1365 21.8439ZM66.3233 20.8597C66.1178 20.4135 65.995 19.8336 65.995 19.088H63.995C63.995 20.0464 64.1522 20.9265 64.5067 21.6963L66.3233 20.8597ZM65.995 19.088C65.995 18.3113 66.1228 17.7324 66.3274 17.3091L64.5266 16.4389C64.1552 17.2076 63.995 18.1047 63.995 19.088H65.995ZM66.3262 17.3116C66.5443 16.8633 66.8198 16.568 67.1405 16.3761L66.1135 14.6599C65.4182 15.076 64.8937 15.6847 64.5278 16.4364L66.3262 17.3116ZM67.1425 16.3749C67.4838 16.1696 67.8863 16.056 68.379 16.056V14.056C67.5597 14.056 66.7942 14.2504 66.1115 14.6611L67.1425 16.3749ZM68.379 16.056C69.1315 16.056 69.5774 16.2373 69.8483 16.4719L71.1577 14.9601C70.4126 14.3147 69.4425 14.056 68.379 14.056V16.056ZM69.8512 16.4744C70.1838 16.7603 70.4047 17.1307 70.5073 17.6324L72.4667 17.2316C72.2813 16.3253 71.8461 15.5517 71.1548 14.9576L69.8512 16.4744ZM71.3074 16.4483L69.7954 16.7243L70.1546 18.6917L71.6666 18.4157L71.3074 16.4483ZM70.9318 17.4172C70.7641 16.8655 70.4811 16.374 70.0606 15.9844L68.7014 17.4516C68.8249 17.566 68.9379 17.7345 69.0182 17.9988L70.9318 17.4172ZM70.0606 15.9844C69.5904 15.5488 69.0083 15.34 68.379 15.34V17.34C68.5417 17.34 68.6276 17.3832 68.7014 17.4516L70.0606 15.9844ZM68.379 15.34C67.8204 15.34 67.3 15.5085 66.8481 15.8378L68.0259 17.4542C68.134 17.3755 68.2416 17.34 68.379 17.34V15.34ZM66.8558 15.8323C66.3852 16.1684 66.0599 16.6439 65.8403 17.1772L67.6897 17.9387C67.8061 17.6561 67.9288 17.5236 68.0182 17.4597L66.8558 15.8323ZM65.8372 17.185C65.6108 17.7483 65.519 18.3947 65.519 19.088H67.519C67.519 18.5573 67.5912 18.1837 67.6928 17.931L65.8372 17.185ZM65.519 19.088C65.519 19.7429 65.6003 20.3551 65.79 20.9031L67.68 20.2489C67.5817 19.9649 67.519 19.5851 67.519 19.088H65.519ZM65.7928 20.9112C65.9875 21.4585 66.2915 21.9478 66.7408 22.3125L68.0012 20.7595C67.8985 20.6762 67.7784 20.5255 67.6771 20.2408L65.7928 20.9112ZM66.7408 22.3125C67.2155 22.6977 67.7813 22.872 68.379 22.872V20.872C68.1847 20.872 68.0785 20.8223 68.0012 20.7595L66.7408 22.3125ZM68.379 22.872C69.0611 22.872 69.7353 22.6888 70.2516 22.1874L68.8584 20.7526C68.8227 20.7872 68.7129 20.872 68.379 20.872V22.872ZM70.2518 22.1873C70.7414 21.7117 70.975 21.0995 70.975 20.432H68.975C68.975 20.6045 68.9286 20.6843 68.8582 20.7527L70.2518 22.1873ZM69.975 21.432H71.487V19.432H69.975V21.432ZM70.487 20.432C70.487 20.8654 70.394 21.1687 70.2582 21.3885L71.9598 22.4395C72.328 21.8433 72.487 21.1586 72.487 20.432H70.487ZM70.2568 21.3908C70.1197 21.6142 69.9199 21.7973 69.619 21.9374L70.463 23.7506C71.0901 23.4587 71.6023 23.0218 71.9612 22.4372L70.2568 21.3908ZM69.619 21.9374C69.3167 22.0781 68.9137 22.168 68.379 22.168V24.168C69.1323 24.168 69.8373 24.0419 70.463 23.7506L69.619 21.9374ZM72.3005 23L71.3538 22.6777L70.9036 24H72.3005V23ZM74.9525 15.212V14.212H74.2366L74.0058 14.8897L74.9525 15.212ZM76.7285 15.212L77.679 14.9015L77.4538 14.212H76.7285V15.212ZM79.2725 23V24H80.6511L80.223 22.6895L79.2725 23ZM77.7845 23L76.8324 23.306L77.0555 24H77.7845V23ZM77.2445 21.32L78.1965 21.014L77.9734 20.32H77.2445V21.32ZM74.3525 21.32V20.32H73.6284L73.4024 21.0078L74.3525 21.32ZM73.8005 23V24H74.5245L74.7505 23.3122L73.8005 23ZM74.7125 20.252L73.7628 19.9388L73.3298 21.252H74.7125V20.252ZM76.9085 20.252V21.252H78.2865L77.8592 19.9419L76.9085 20.252ZM75.8165 16.904L76.7672 16.5939L75.8217 13.695L74.8668 16.5908L75.8165 16.904ZM73.2471 23.3223L75.8991 15.5343L74.0058 14.8897L71.3538 22.6777L73.2471 23.3223ZM74.9525 16.212H76.7285V14.212H74.9525V16.212ZM75.7779 15.5225L78.3219 23.3105L80.223 22.6895L77.679 14.9015L75.7779 15.5225ZM79.2725 22H77.7845V24H79.2725V22ZM78.7365 22.694L78.1965 21.014L76.2924 21.626L76.8324 23.306L78.7365 22.694ZM77.2445 20.32H74.3525V22.32H77.2445V20.32ZM73.4024 21.0078L72.8504 22.6878L74.7505 23.3122L75.3025 21.6322L73.4024 21.0078ZM73.8005 22H72.3005V24H73.8005V22ZM74.7125 21.252H76.9085V19.252H74.7125V21.252ZM77.8592 19.9419L76.7672 16.5939L74.8658 17.2141L75.9578 20.5621L77.8592 19.9419ZM74.8668 16.5908L73.7628 19.9388L75.6622 20.5652L76.7662 17.2172L74.8668 16.5908ZM80.6642 15.212V14.212H79.6642V15.212H80.6642ZM85.2662 15.692L84.7931 16.5731L84.7978 16.5755L85.2662 15.692ZM86.6582 17.042L87.5275 16.5478V16.5478L86.6582 17.042ZM86.6582 21.17L87.5261 21.6668L87.5275 21.6642L86.6582 21.17ZM85.2662 22.52L85.7392 23.401L85.2662 22.52ZM80.6642 23H79.6642V24H80.6642V23ZM82.0802 16.496V15.496H81.0802V16.496H82.0802ZM82.0802 21.728H81.0802V22.728H82.0802V21.728ZM84.4862 21.386L83.9595 20.5359L83.9554 20.5385L84.4862 21.386ZM85.3322 20.456L84.4396 20.0052L84.4378 20.0088L85.3322 20.456ZM85.3322 17.762L84.4377 18.2092L84.4414 18.2165L85.3322 17.762ZM84.4862 16.838L83.9553 17.6855L83.9662 17.6922L84.4862 16.838ZM80.6642 16.212H83.1842V14.212H80.6642V16.212ZM83.1842 16.212C83.8394 16.212 84.3656 16.3435 84.7931 16.573L85.7392 14.811C84.9748 14.4005 84.113 14.212 83.1842 14.212V16.212ZM84.7978 16.5755C85.2266 16.8029 85.5512 17.1182 85.7888 17.5362L87.5275 16.5478C87.1012 15.7978 86.4978 15.2131 85.7346 14.8085L84.7978 16.5755ZM85.7888 17.5362C86.0206 17.9439 86.1562 18.4571 86.1562 19.112H88.1562C88.1562 18.1749 87.9598 17.3081 87.5275 16.5478L85.7888 17.5362ZM86.1562 19.112C86.1562 19.7569 86.0214 20.2666 85.7888 20.6758L87.5275 21.6642C87.9589 20.9054 88.1562 20.0431 88.1562 19.112H86.1562ZM85.7903 20.6732C85.5525 21.0886 85.2263 21.4064 84.7931 21.639L85.7392 23.401C86.4981 22.9936 87.0998 22.4114 87.5261 21.6668L85.7903 20.6732ZM84.7931 21.639C84.3656 21.8685 83.8394 22 83.1842 22V24C84.113 24 84.9748 23.8115 85.7392 23.401L84.7931 21.639ZM83.1842 22H80.6642V24H83.1842V22ZM81.6642 23V15.212H79.6642V23H81.6642ZM81.0802 16.496V21.728H83.0802V16.496H81.0802ZM82.0802 22.728H83.1842V20.728H82.0802V22.728ZM83.1842 22.728C83.8429 22.728 84.468 22.5773 85.017 22.2335L83.9554 20.5385C83.7763 20.6507 83.5335 20.728 83.1842 20.728V22.728ZM85.0129 22.2361C85.5405 21.9092 85.9488 21.4588 86.2266 20.9032L84.4378 20.0088C84.3236 20.2372 84.1679 20.4068 83.9595 20.5359L85.0129 22.2361ZM86.2248 20.9068C86.5039 20.3541 86.6322 19.7485 86.6322 19.112H84.6322C84.6322 19.4755 84.5604 19.7659 84.4396 20.0052L86.2248 20.9068ZM86.6322 19.112C86.6322 18.4705 86.5051 17.8605 86.2229 17.3075L84.4414 18.2165C84.5593 18.4475 84.6322 18.7375 84.6322 19.112H86.6322ZM86.2266 17.3148C85.9481 16.7577 85.5377 16.3073 85.0061 15.9838L83.9662 17.6922C84.1707 17.8167 84.3243 17.9823 84.4378 18.2092L86.2266 17.3148ZM85.017 15.9905C84.468 15.6467 83.8429 15.496 83.1842 15.496V17.496C83.5335 17.496 83.7763 17.5733 83.9554 17.6855L85.017 15.9905ZM83.1842 15.496H82.0802V17.496H83.1842V15.496ZM90.0425 22.712L89.5435 23.5786L89.5463 23.5802L90.0425 22.712ZM88.8005 21.35L87.9049 21.7948L88.8005 21.35ZM88.8005 16.838L89.6937 17.2876L89.6949 17.2852L88.8005 16.838ZM90.0425 15.5L90.5264 16.3751L90.5287 16.3738L90.0425 15.5ZM93.7205 15.512L93.2243 16.3803L93.2293 16.3831L93.7205 15.512ZM94.9685 16.862L94.074 17.3092V17.3092L94.9685 16.862ZM94.9685 21.368L94.0729 20.9232V20.9232L94.9685 21.368ZM93.7205 22.724L94.2067 23.5979L94.2117 23.5951L93.7205 22.724ZM93.3905 21.164L92.6032 20.5473L92.6001 20.5514L93.3905 21.164ZM93.3905 17.054L92.5976 17.6634L92.6008 17.6675L93.3905 17.054ZM90.3785 17.06L91.1682 17.6735L91.1706 17.6703L90.3785 17.06ZM90.3785 21.17L89.5912 21.7867L89.5938 21.7899L90.3785 21.17ZM91.8785 22.168C91.3376 22.168 90.9008 22.0507 90.5386 21.8438L89.5463 23.5802C90.2482 23.9813 91.0354 24.168 91.8785 24.168V22.168ZM90.5414 21.8454C90.2024 21.6502 89.9181 21.3522 89.6961 20.9052L87.9049 21.7948C88.2828 22.5558 88.8265 23.1658 89.5435 23.5786L90.5414 21.8454ZM89.6961 20.9052C89.4835 20.4771 89.3505 19.8902 89.3505 19.1H87.3505C87.3505 20.1018 87.5175 21.0149 87.9049 21.7948L89.6961 20.9052ZM89.3505 19.1C89.3505 18.2898 89.4848 17.7026 89.6937 17.2876L87.9072 16.3884C87.5161 17.1654 87.3505 18.0862 87.3505 19.1H89.3505ZM89.6949 17.2852C89.915 16.845 90.1949 16.5584 90.5264 16.3751L89.5585 14.6249C88.834 15.0256 88.2859 15.631 87.906 16.3908L89.6949 17.2852ZM90.5287 16.3738C90.8926 16.1713 91.333 16.056 91.8785 16.056V14.056C91.0399 14.056 90.2563 14.2367 89.5563 14.6262L90.5287 16.3738ZM91.8785 16.056C92.4245 16.056 92.863 16.1738 93.2243 16.3802L94.2166 14.6438C93.5139 14.2422 92.7244 14.056 91.8785 14.056V16.056ZM93.2293 16.3831C93.5706 16.5755 93.854 16.8692 94.074 17.3092L95.8629 16.4148C95.4829 15.6548 94.9343 15.0485 94.2117 14.6409L93.2293 16.3831ZM94.074 17.3092C94.2856 17.7323 94.4185 18.3143 94.4185 19.1H96.4185C96.4185 18.1017 96.2513 17.1917 95.8629 16.4148L94.074 17.3092ZM94.4185 19.1C94.4185 19.9046 94.2847 20.4967 94.0729 20.9232L95.8641 21.8128C96.2523 21.0313 96.4185 20.1114 96.4185 19.1H94.4185ZM94.0729 20.9232C93.8523 21.3673 93.5688 21.6615 93.2293 21.8529L94.2117 23.5951C94.9361 23.1865 95.4847 22.5767 95.8641 21.8128L94.0729 20.9232ZM93.2343 21.8502C92.8711 22.0522 92.429 22.168 91.8785 22.168V24.168C92.7199 24.168 93.5058 23.9878 94.2067 23.5978L93.2343 21.8502ZM91.8785 22.884C92.8067 22.884 93.6093 22.5141 94.1809 21.7766L92.6001 20.5514C92.4276 20.7739 92.2223 20.884 91.8785 20.884V22.884ZM94.1777 21.7807C94.7441 21.0576 94.9545 20.112 94.9545 19.088H92.9545C92.9545 19.872 92.7888 20.3104 92.6032 20.5473L94.1777 21.7807ZM94.9545 19.088C94.9545 18.0853 94.7396 17.1606 94.1802 16.4405L92.6008 17.6675C92.7933 17.9154 92.9545 18.3467 92.9545 19.088H94.9545ZM94.1833 16.4446C93.613 15.7026 92.8099 15.328 91.8785 15.328V17.328C92.219 17.328 92.4239 17.4374 92.5976 17.6634L94.1833 16.4446ZM91.8785 15.328C90.949 15.328 90.1545 15.7122 89.5863 16.4497L91.1706 17.6703C91.3544 17.4318 91.56 17.328 91.8785 17.328V15.328ZM89.5888 16.4465C89.0288 17.1673 88.8145 18.0946 88.8145 19.1H90.8145C90.8145 18.3534 90.9761 17.9207 91.1682 17.6735L89.5888 16.4465ZM88.8145 19.1C88.8145 20.1212 89.0253 21.0642 89.5912 21.7867L91.1657 20.5533C90.9796 20.3158 90.8145 19.8788 90.8145 19.1H88.8145ZM89.5938 21.7899C90.1656 22.5139 90.9587 22.884 91.8785 22.884V20.884C91.5502 20.884 91.3433 20.7781 91.1632 20.5501L89.5938 21.7899Z" fill="black"/>
</svg>
