<svg width="135" height="209" viewBox="0 0 135 209" fill="none" xmlns="http://www.w3.org/2000/svg">
<path d="M44.2469 32.4144L30.4115 42.3434L18.4757 61.996L12.7394 84.9883L17.7832 94.9301L40.2277 104.684L57.6097 110.225L87.3251 108.686L97.2629 104.684L104.918 64.9764L101.797 44.3104L80.0307 21.8184L44.8738 22.323L44.2469 32.4144Z" fill="#F0C0A1"/>
<path d="M39.7693 168.183C40.3682 167.961 40.7752 167.7 41.346 167.777C41.5987 168.739 41.8327 169.863 42.0151 170.744C42.0432 170.847 42.0292 171.065 41.8373 171.112C41.2618 171.899 40.8828 172.639 40.2512 173.857C42.1181 173.613 43.4281 173.438 44.799 173.259C44.916 174.092 45.0377 174.939 45.1874 176.004C46.5302 175.435 47.5596 174.995 48.6263 174.546C48.893 175.516 49.1083 176.286 49.3656 177.222C50.3903 176.679 51.1717 176.269 51.9577 175.854C52.2712 176.654 52.5706 177.419 53.0245 178.574C54.2784 177.577 55.2656 176.795 56.4354 175.863C57.1559 176.833 57.8764 177.8 58.7467 178.971C59.6872 177.748 60.1504 177.145 60.6417 176.508C61.2031 177.051 61.6897 177.522 61.8348 177.663C63.0747 177.513 63.9215 177.411 64.9322 177.291C64.9322 177.227 65.007 176.799 64.9134 176.41C64.7777 175.837 64.5157 175.29 64.4128 174.559C64.9135 173.006 65.3065 171.625 65.6995 170.244C65.9241 170.257 66.1533 170.27 66.3779 170.287C66.7008 171.792 67.0236 173.293 67.2669 174.973C66.9955 176.098 66.8037 177.047 66.4622 178.719C68.0296 177.8 68.9185 177.282 69.9058 176.705C70.2427 177.436 70.5795 178.172 71.1925 179.51C72.0534 178.339 72.657 177.518 73.3167 176.624C73.9998 177.65 74.477 178.368 75.0853 179.288C75.8386 178.36 76.3252 177.761 76.8258 177.145C77.3873 177.902 77.8739 178.561 78.6693 179.638C79.5583 178.244 80.2133 177.218 80.8496 176.213C82.0334 176.765 83.2312 177.325 84.6208 177.975C84.9811 176.842 85.2431 176.017 85.5191 175.161C86.4315 175.653 87.1754 176.055 88.1065 176.555C88.6493 175.2 89.0891 174.11 89.5289 172.818C88.785 169.727 88.041 166.827 87.2175 163.753C85.7858 163.851 84.4336 164.134 82.8615 164.352C75.3052 165.493 67.9313 166.477 60.4685 165.54C55.9675 164.976 51.5085 164.121 46.8858 163.291C46.2635 163.09 45.5757 162.992 45.0891 162.804C45.0844 162.71 45.2716 162.53 45.2856 162.32C45.3184 161.833 45.0938 161.239 45.3324 160.965C60.1083 165.173 74.7999 165.374 89.3464 160.76C87.1801 153.003 85.1214 145.64 83.0534 138.229C81.9772 138.452 81.1912 138.614 80.0916 138.841C83.6195 131.777 87.0163 124.969 90.6471 117.691C87.5778 116.255 84.9296 115.015 82.1691 113.612C80.1057 112.59 78.2669 112.539 76.4141 113.8C69.4473 118.542 61.7318 118.752 54.5872 114.352C52.9824 113.364 51.5179 112.902 49.6136 113.954C44.7663 118.235 40.1108 122.523 35.4881 126.778C39.1096 129.737 42.1695 132.234 45.033 134.821C41.0513 133.68 37.2614 132.452 33.2376 131.152C32.6715 131.965 32.0398 132.867 31.3239 133.834C31.235 133.898 31.1883 134.103 31.0339 134.188C30.945 134.92 30.7391 135.869 31.1227 136.16C35.2869 139.281 39.5447 142.304 44.3078 145.734C44.6025 144.241 44.7242 143.621 44.9394 142.852C45.0891 142.112 45.1453 141.53 45.3137 140.795C45.4307 140.41 45.44 140.171 45.5617 139.773C45.5944 137.96 47.6578 136.125 45.3979 134.637C46.1091 134.223 46.8718 133.928 47.0075 133.479C47.6391 131.353 48.0508 129.173 48.6544 127.043C48.8182 126.466 49.3703 125.978 49.7446 125.448C49.9926 125.542 50.2406 125.636 50.4932 125.73C50.3856 126.53 50.3294 127.338 50.161 128.129C48.0368 138.114 45.8845 148.094 43.7931 158.083C43.6106 158.96 43.9849 160.088 43.7837 161.021C42.7216 161.222 41.6876 161.209 40.7004 161.251C40.6676 160.319 40.6817 159.503 40.9016 158.729C41.8654 155.282 42.9275 151.857 43.8586 148.402C44.013 147.833 43.9522 146.828 43.5638 146.585C40.4664 144.643 37.2661 142.839 33.4949 140.637C31.469 146.448 29.5647 151.917 27.6417 157.377C27.506 157.758 27.258 158.121 26.9866 158.438C25.1666 160.584 25.2976 160.935 28.2546 161.658C27.6043 164.437 28.0628 164.835 31.0385 164.078C32.0726 167.071 32.3299 167.075 34.805 164.997C35.6051 164.326 37.2146 163.543 37.9071 163.847C39.9564 164.749 40.3775 163.65 41.1168 162.44C41.9356 163.402 42.5672 164.326 43.255 165.369C43.2457 165.652 43.1848 165.814 42.9603 166.041C42.3099 166.421 41.8186 166.733 41.1823 166.904C39.5821 166.601 37.3597 165.805 36.7982 166.374C34.2108 169.004 32.3018 168.658 29.1717 166.827C27.127 165.634 26.0836 164.057 24.6472 162.607C22.5043 160.448 23.9922 158.716 25.5128 157.001C25.6204 156.881 25.6111 156.676 25.6719 156.518C27.2674 152.199 28.7272 147.833 30.5285 143.587C31.3099 141.748 31.6047 140.248 30.2338 138.597C28.4652 136.472 28.3669 134.394 30.4162 132.243C32.1568 130.413 31.731 129.416 29.1062 128.719C21.8071 126.782 16.7774 122.34 12.9875 116.55C11.916 114.912 11.0224 113.176 10.0492 111.487C9.73102 112.278 9.89478 112.885 10.1334 113.467C12.5383 119.351 15.1959 125.162 17.2593 131.144C18.0687 133.487 19.9216 135.954 18.1717 138.597C17.5634 137.609 17.1002 136.724 16.7587 135.805C15.6264 132.735 14.5362 129.652 13.4273 126.569C13.4273 126.569 13.418 126.59 13.432 126.393C12.8799 124.956 12.3137 123.716 11.7523 122.481C11.7523 122.481 11.7429 122.502 11.7523 122.314C11.3873 121.395 11.0084 120.659 10.634 119.919C10.634 119.919 10.6247 119.941 10.634 119.74C9.15085 116.426 7.65361 113.313 6.15638 110.2C6.15638 110.2 6.14234 110.217 6.16106 109.999C6.04409 109.037 5.9739 108.271 5.74932 107.549C4.46731 103.367 3.77951 99.1506 5.02409 94.7591C5.31886 93.891 5.43584 93.0957 5.56217 92.0737C5.20657 88.5802 4.84162 85.3133 4.47667 82.0464C4.17254 79.2926 3.86374 76.5346 3.41457 73.4729C3.11045 73.0624 3.0309 72.9213 2.86714 72.8187C2.86714 72.8187 2.92797 72.8828 2.78293 72.7161C2.48816 72.374 2.41329 72.0704 2.22614 71.8267C2.22614 71.8267 2.22145 71.8523 2.20274 71.6727C1.64127 70.7534 1.09385 70.0093 0.551102 69.2696C0.551102 69.2696 0.537075 69.2867 0.560469 69.0643C-0.379981 64.3949 -0.333194 60.059 2.24018 55.9968C2.24018 55.9968 2.21679 55.9882 2.3899 55.9241C3.20402 55.0518 3.84502 54.2393 4.48602 53.4311C5.09895 52.9522 5.70721 52.4733 6.6383 52.0585C7.1904 52.0414 7.60214 51.9944 7.63021 51.8747C8.66424 47.2437 9.66084 42.6042 10.6621 37.969M10.6668 37.9647C10.6668 37.9647 10.6761 37.8535 10.8025 37.6568C11.5792 35.4504 12.2295 33.4407 12.8799 31.4309C12.8799 31.4309 12.8565 31.4266 13.0203 31.3283C13.4554 30.4432 13.7268 29.6606 14.0028 28.8739C14.0028 28.8739 13.9794 28.8696 14.1245 28.7883C14.3678 28.4206 14.466 28.1298 14.5643 27.839C14.5643 27.839 14.5362 27.839 14.6859 27.7364C15.6779 25.8293 16.5154 24.0248 17.3576 22.2203C17.3576 22.2203 17.3435 22.2075 17.4839 22.1819C17.7225 22.0023 17.8208 21.8569 17.919 21.7072C17.919 21.7072 17.8956 21.7029 18.0453 21.626C18.2887 21.2625 18.3822 20.9717 18.4758 20.6852C18.4758 20.6852 18.4571 20.6767 18.5975 20.6425C18.8361 20.4629 18.939 20.3175 19.0373 20.1721C19.0373 20.1721 19.0139 20.1678 19.1589 20.0909C19.4022 19.7274 19.4958 19.4409 19.594 19.1501C19.594 19.1501 19.58 19.1416 19.7157 19.1031C19.9543 18.9235 20.0526 18.7781 20.1555 18.6327C20.1555 18.6327 20.1321 18.6327 20.3052 18.5686C20.8152 18.0384 21.1521 17.5766 21.4843 17.1105C21.5919 17.072 21.6761 17.0121 21.9288 16.7385C22.2002 16.2211 22.2938 15.8961 22.392 15.5711C22.392 15.5711 22.378 15.5625 22.5277 15.5369C22.7663 15.3616 22.8599 15.2119 22.9488 15.0622C22.9488 15.0622 22.9441 15.058 23.1406 15.058C24.1419 14.2113 24.9467 13.3604 25.7467 12.5094C25.7467 12.5094 25.7327 12.5009 25.8871 12.4752C26.1257 12.2956 26.2146 12.146 26.3035 11.9963C26.3035 11.9963 26.2988 11.9835 26.4766 12.0134C26.9118 11.8595 27.1691 11.6713 27.4218 11.4875C27.4218 11.4875 27.4124 11.4746 27.5528 11.4404C27.7914 11.2608 27.885 11.1155 27.9832 10.9744C27.9832 10.9744 27.9739 10.9701 28.1517 10.9744C28.6102 10.8204 28.8909 10.6622 29.2933 10.4398C29.56 10.2688 29.6442 10.1277 29.6676 9.95238C29.6676 9.95238 29.6536 9.94382 29.8548 9.92672C32.1661 8.72943 34.281 7.54924 36.3911 6.36478C36.3911 6.36478 36.3678 6.3605 36.5877 6.37333C39.0955 5.52668 41.3835 4.66719 43.6714 3.80771C43.6714 3.80771 43.648 3.79916 43.8726 3.82054C45.8144 3.47418 47.5268 3.11072 49.4732 2.74725C51.5319 2.47359 53.3473 2.12295 55.1814 1.93053C65.372 0.874347 75.5251 0.639164 85.4723 3.49983C89.2716 4.5945 93.0427 5.75758 96.8279 6.89073C96.8279 6.89073 96.8326 6.86935 96.9262 7.02329C98.0725 7.592 99.1252 8.00678 100.173 8.42156C100.173 8.42156 100.187 8.40873 100.267 8.56694C101.039 8.96461 101.727 9.20407 102.414 9.44353C102.414 9.44353 102.424 9.42642 102.499 9.59319C103.448 10.2303 104.328 10.705 105.208 11.1796C105.264 11.2822 105.348 11.3635 105.662 11.5858C106.396 12.0092 106.925 12.2614 107.454 12.518C107.454 12.518 107.468 12.5009 107.538 12.6548C108.113 13.0525 108.623 13.2962 109.129 13.54C109.129 13.54 109.143 13.5271 109.218 13.6725C109.615 13.8949 109.933 13.9719 110.252 14.0488C110.252 14.0488 110.256 14.036 110.247 14.2199C110.986 14.9682 111.739 15.5326 112.488 16.1013C112.488 16.1013 112.502 16.0928 112.54 16.2168C112.736 16.4306 112.895 16.5204 113.054 16.6102C113.054 16.6102 113.064 16.5973 113.101 16.7256C113.297 16.9437 113.457 17.0335 113.616 17.1233C113.616 17.1233 113.625 17.1105 113.662 17.2345C113.859 17.4526 114.013 17.5423 114.172 17.6321C114.172 17.6321 114.182 17.6193 114.219 17.7519C114.416 17.97 114.575 18.0555 114.734 18.1453C114.734 18.1453 114.743 18.1324 114.781 18.265C114.977 18.4831 115.136 18.5729 115.295 18.6584C115.295 18.6584 115.295 18.6498 115.309 18.8252C116.058 19.7402 116.793 20.48 117.527 21.2197C117.527 21.2197 117.541 21.2112 117.583 21.3352C117.78 21.549 117.934 21.6388 118.093 21.7286C118.093 21.7286 118.098 21.7243 118.098 21.8954C118.468 22.4641 118.837 22.866 119.212 23.268C119.212 23.268 119.226 23.2551 119.24 23.4433C120.55 25.731 121.841 27.8262 123.137 29.9258C123.137 29.9258 123.146 29.9044 123.137 30.1096C125.233 35.9635 126.249 41.7618 125.968 47.744C125.944 48.2828 126.3 48.8387 126.482 49.386C126.482 49.6084 126.487 49.835 126.281 50.2754C125.664 53.2687 125.149 56.0395 124.878 58.8232C124.69 60.7645 124.831 62.7315 125.037 64.7242C126.225 64.9166 127.203 65.0705 128.181 65.2245C128.181 65.2245 128.186 65.2074 128.265 65.3442C128.663 65.5665 128.981 65.6521 129.304 65.7333C129.304 65.7333 129.309 65.7162 129.346 65.8402C129.542 66.0583 129.706 66.1524 129.865 66.2464C129.865 66.2464 129.865 66.225 129.945 66.3662C130.343 66.5885 130.661 66.674 130.984 66.7553C130.984 66.7553 130.988 66.7382 131.012 66.8793C131.203 67.1016 131.372 67.1829 131.545 67.2684C131.545 67.2684 131.55 67.2513 131.522 67.4138C131.695 67.8157 131.896 68.0509 132.097 68.2904C132.097 68.2904 132.111 68.2775 132.139 68.4144C132.336 68.6325 132.5 68.718 132.663 68.8035C132.663 68.8035 132.668 68.7864 132.645 68.9959C134.577 73.8279 133.875 78.2664 131.526 82.5937C131.526 82.5937 131.545 82.6023 131.4 82.6792C131.161 83.0427 131.068 83.3335 130.97 83.62C130.97 83.62 130.984 83.6242 130.82 83.6627C130.492 83.8423 130.329 83.9877 130.165 84.1331C130.062 84.1801 129.982 84.2486 129.744 84.535C128.162 85.8948 126.763 87.0579 125.36 88.2253C125.36 88.2253 125.383 88.2338 125.172 88.221C123.947 88.64 121.855 88.2894 123.1 90.359C123.175 90.6113 123.249 90.8679 123.488 91.3596C123.853 91.8471 124.054 92.0951 124.251 92.3431C124.251 92.3431 124.255 92.3174 124.269 92.497C124.831 93.4121 125.374 94.1519 125.921 94.8916C125.921 94.8916 125.94 94.8788 125.912 95.0712C126.459 96.3326 127.035 97.4059 127.605 98.4749C127.605 98.4749 127.615 98.4578 127.601 98.6588C128.527 100.822 129.468 102.785 130.413 104.748C130.413 104.748 130.38 104.868 130.23 105.086C129.804 108.99 129.533 112.68 129.126 116.494C127.779 119.261 126.571 121.903 125.364 124.542C125.364 124.542 125.378 124.554 125.205 124.61C124.77 125.136 124.508 125.602 124.246 126.068C124.246 126.068 124.255 126.081 124.078 126.137C123.451 126.834 123.006 127.475 122.557 128.116C122.557 128.116 122.571 128.134 122.421 128.172C122.126 128.352 121.981 128.493 121.836 128.634C121.705 128.685 121.607 128.766 121.34 129.07C120.685 129.904 120.222 130.541 119.759 131.182C119.759 131.182 119.768 131.195 119.628 131.229C119.394 131.409 119.296 131.554 119.202 131.7C119.202 131.7 119.216 131.708 119.076 131.743C118.837 131.922 118.739 132.067 118.641 132.209C118.641 132.209 118.655 132.213 118.482 132.273C118.047 132.803 117.78 133.269 117.513 133.739C117.513 133.739 117.527 133.752 117.354 133.825C116.914 134.53 116.652 135.163 116.39 135.796C116.39 135.796 116.418 135.8 116.273 135.873C116.03 136.241 115.932 136.532 115.833 136.822C115.833 136.822 115.861 136.822 115.698 136.942C114.42 139.923 114.135 142.762 115.847 145.533C115.847 145.533 115.857 145.511 115.847 145.7C116.395 146.786 116.956 147.688 117.518 148.586C117.518 148.586 117.532 148.59 117.537 148.774C118.468 149.689 119.399 150.425 120.325 151.16C120.325 151.16 120.339 151.147 120.419 151.284C120.821 151.506 121.139 151.592 121.462 151.673C121.462 151.673 121.462 151.647 121.612 151.793C122.763 152.015 123.773 152.186 124.77 152.143C126.843 152.049 128.906 151.84 130.979 151.677C130.979 151.677 130.988 151.652 131.072 151.78C131.475 151.998 131.788 152.092 132.102 152.186C132.102 152.186 132.102 152.165 132.144 152.289C132.34 152.507 132.5 152.601 132.659 152.695C132.659 152.695 132.663 152.674 132.705 152.798C132.907 153.016 133.061 153.11 133.22 153.204C133.22 153.204 133.225 153.183 133.22 153.337C133.403 153.738 133.585 153.978 133.772 154.222C133.772 154.222 133.782 154.205 133.763 154.435C133.412 156.706 133.08 158.75 132.747 160.79C131.994 163.74 129.374 165.014 126.787 166.31C126.071 166.669 125.341 166.998 124.386 167.349C123.984 167.405 123.82 167.456 123.652 167.512C123.652 167.512 123.394 167.503 123.034 167.524C117.686 167.683 112.699 167.751 107.725 168.008C106.275 168.08 104.857 168.683 103.425 169.042C103.425 169.042 103.229 169.021 102.906 169.055C98.7275 169.722 94.8722 170.355 90.6752 171.048C91.2554 171.788 91.8075 172.493 92.3549 173.199C92.1865 174.383 92.0181 175.563 91.6063 177.004C90.0249 179.249 90.9981 180.874 92.3315 182.444C92.3315 182.444 92.3175 182.632 92.3222 182.918C92.5187 183.778 92.7105 184.351 92.9024 184.924C92.9024 184.924 92.9117 184.907 92.907 185.095C93.651 186.005 94.3996 186.724 95.1482 187.446C95.1482 187.446 95.3962 187.468 95.5506 187.677C96.0933 189.768 96.4068 191.667 96.8887 193.531C97.3379 195.28 97.9649 196.991 98.517 198.718C98.3298 200.437 98.1427 202.156 97.8058 204.166C97.3753 204.756 97.0993 205.055 96.8186 205.355C96.8186 205.355 96.8279 205.367 96.6174 205.393C92.7526 206.261 89.1406 207.531 85.4349 207.835C81.4485 208.164 77.3732 207.582 73.3354 207.403C73.3354 207.403 73.3213 207.42 73.2371 207.283C72.8441 207.061 72.5306 206.975 72.2171 206.894C72.2171 206.894 72.1984 206.907 72.1329 206.749C71.5527 206.351 71.0427 206.107 70.5327 205.868C70.5327 205.868 70.5187 205.885 70.5187 205.727C70.3362 205.32 70.1491 205.072 69.9666 204.824C69.1946 202.661 67.7816 200.689 69.6906 198.209C70.4626 197.209 69.976 195.225 69.6906 193.749C68.9279 189.785 68.0249 185.839 67.033 181.918C66.813 181.045 65.9943 180.297 65.4515 179.493C65.0912 180.348 64.3801 181.221 64.4222 182.059C64.6748 186.784 65.1146 191.5 65.4889 196.678C64.9181 200.052 64.3473 202.964 63.7765 205.88C63.7765 205.88 63.7952 205.893 63.6689 205.936C63.3788 206.077 63.2712 206.214 63.2244 206.389C63.2244 206.389 63.2431 206.394 63.0138 206.385C54.9802 208.882 47.1151 209.139 39.1891 206.894C39.1891 206.894 39.1751 206.911 39.0955 206.761C38.5153 206.338 38.0147 206.064 37.5187 205.791C37.4205 205.534 37.3176 205.282 37.0509 204.743C36.714 203.063 36.5409 201.66 36.3724 200.262C36.3724 200.262 36.3818 200.022 36.5596 199.817C37.4018 198.799 38.5808 198.017 38.6417 197.17C38.8429 194.292 38.651 191.393 38.6089 188.503C38.6136 188.28 38.6183 188.054 38.8054 187.553C39.2172 186.839 39.6102 186.412 39.6476 185.963C39.905 183.055 40.1857 180.143 40.2372 177.227C40.2512 176.367 39.554 175.499 39.1844 174.631C38.754 173.481 38.3235 172.326 37.6685 170.988C37.2661 170.642 37.0836 170.488 36.9058 170.329C36.728 170.586 36.5549 170.843 36.3771 171.099C35.0389 171.108 33.6961 171.116 31.8901 171.125C30.4584 170.937 29.4945 170.749 28.4511 170.453C28.2125 170.27 28.0441 170.193 27.6557 170.116C24.9981 169.419 22.5604 168.717 20.1274 168.02C19.6221 167.61 19.1168 167.199 18.6442 166.524C19.0092 166.152 19.3461 166.045 19.8748 165.972M73.3401 87.1734C73.3401 87.1734 73.3869 87.1605 73.2699 86.8398C72.7412 86.207 72.2125 85.5784 71.6604 84.6462C71.4404 84.2999 71.2205 83.9578 70.9632 83.2138C70.8322 80.2804 71.1083 77.3043 71.0474 74.016C71.8335 72.6391 72.2078 71.305 73.326 69.8041C77.3686 64.9465 82.2439 61.4188 89.3324 61.4102C91.4706 61.4102 91.2648 60.3241 90.577 58.6436C90.5957 56.3046 89.3651 55.6205 86.8105 55.4922C84.195 55.3596 81.4485 54.7182 79.1278 53.6364C77.9066 53.0677 76.7884 51.028 76.9007 49.7452C76.9989 48.6334 78.7582 47.4575 80.0542 46.6878C81.0695 46.0849 82.4919 46.0593 84.2324 45.6659C81.6216 42.7924 79.2214 40.154 76.6995 37.1865C75.7029 36.2971 74.7016 35.4034 73.6114 34.1975C72.6055 33.3808 71.5995 32.5683 70.4251 31.4609C69.7514 30.9862 69.0729 30.5116 68.2495 29.7462C64.7824 25.8849 60.7305 26.5648 56.1172 28.4847C54.1801 29.2886 52.2431 30.0925 50.0347 30.9221C49.8569 31.0119 49.768 31.1487 49.3703 31.3796C47.9713 32.1065 46.5723 32.8292 44.7757 33.6502C42.0806 35.4803 39.3809 37.3105 36.7982 39.0679C39.4651 40.2096 41.8514 40.9451 43.8726 42.1809C45.6132 43.2413 46.6566 45.0287 45.8284 47.0769C45.0049 49.1038 42.9743 49.5613 40.9717 49.2406C37.6872 48.7189 34.4213 48.0006 31.2257 47.1197C29.7097 46.7007 28.9284 46.9102 28.161 48.4025C27.7399 48.8857 27.3235 49.3689 26.5562 50.006C26.1117 50.656 25.6625 51.306 25.3678 51.7336C29.0781 52.0714 32.5498 52.3921 35.9607 52.7513C35.9607 52.7513 35.9654 52.6828 36.0777 53.042C36.4566 53.1404 36.831 53.2344 37.5655 53.3927C41.8093 56.1935 43.3018 60.4225 44.5557 65.0876C44.6306 66.1481 44.7055 67.2085 44.6025 68.3631C44.668 68.5042 44.7335 68.641 44.9207 69.1841C44.799 70.6593 44.6727 72.1345 44.2984 73.892C43.6106 75.4014 42.9275 76.9151 42.09 78.3904C42.09 78.3904 41.9403 78.3733 41.7297 78.3006C41.6736 78.4759 41.6174 78.6512 41.4443 79.1301C40.0828 80.1692 38.7212 81.2083 36.9339 82.2987C36.3818 82.4013 35.825 82.5039 34.9126 82.5809C34.4728 82.7092 34.0283 82.8332 33.1393 83.0598C32.5264 83.0256 31.9182 82.9914 31.0151 82.7477C30.6549 82.7306 30.2899 82.7135 29.7706 82.7519C29.7706 82.7519 29.6489 82.645 29.574 82.4697C29.415 82.4911 29.2512 82.5168 28.802 82.6023C28.7038 82.6237 28.6102 82.6408 28.3061 82.474C28.0628 82.3329 27.8195 82.1918 27.6277 81.8454C27.4218 81.8283 27.2112 81.8112 26.9211 81.7898C26.9211 81.7898 26.865 81.7342 26.6685 81.4221C26.3082 81.3195 25.9526 81.2168 25.2087 81.1099C24.8344 81.033 24.4601 80.9517 23.9594 80.5883C23.4447 80.1906 22.9348 79.7886 22.2984 79.0617C21.5451 77.7404 20.7965 76.4148 20.09 74.6702C19.58 72.947 19.07 71.2237 18.5553 69.5048C18.2933 69.5262 18.0313 69.5433 17.7693 69.5646C17.6243 70.1633 17.4839 70.7619 17.3061 71.7924C16.9505 74.713 16.5949 77.6335 16.0943 80.9688C15.982 81.5461 15.865 82.1234 15.7621 82.7049C14.962 87.1605 17.8956 92.403 22.4482 94.7291C22.7944 94.9301 23.1453 95.1354 23.7816 95.563C24.8812 96.3369 30.4022 100.292 31.3052 100.733C48.1678 109.007 66.0364 110.204 84.4945 106.933C87.1474 106.463 89.6693 105.368 92.4625 104.205C92.5374 103.136 92.6169 102.067 92.8135 100.532C92.8135 97.795 92.8135 95.0541 92.8135 92.2148C90.7594 92.403 88.7522 92.5868 86.2818 92.745C85.1261 92.621 83.9657 92.497 82.5855 92.0566C80.4566 91.1928 78.3231 90.3291 75.993 89.2344C75.6795 89.1874 75.366 89.1446 75.0572 88.7897C74.9215 88.6443 74.7858 88.4947 74.6127 88.298C74.6127 88.298 74.5472 88.2809 74.4209 87.9944C74.2431 87.8832 74.0606 87.7763 73.8781 87.6993M73.8828 87.7036C73.8828 87.7036 73.9202 87.6993 73.8314 87.4299L73.8828 87.7036ZM40.4196 60.1873C40.2091 59.9393 39.9985 59.6955 39.6242 59.1397C38.8756 58.7591 38.1317 58.3785 37.3222 57.6046C32.9288 53.8374 28.0534 53.9699 23.1781 57.6003C22.7804 58.3785 22.3826 59.1568 21.9054 60.2942C19.9403 64.4719 19.8093 68.7565 21.3065 73.0368C22.7008 77.0178 25.5035 79.8528 30.0981 80.8705C35.0436 81.9694 40.0266 79.4765 40.9343 75.457C40.9343 75.457 40.8828 75.5126 41.2244 75.581C41.2665 75.3758 41.3133 75.1705 41.6829 74.9311C41.9964 74.4864 42.3052 74.0374 42.8807 73.2506C42.7965 70.6465 42.7123 68.0424 42.6982 65.3399C42.6982 65.3399 42.6374 65.2373 42.6936 64.9722C42.4783 64.5104 42.2631 64.0528 41.9964 63.6252C41.9964 63.6252 42.0572 63.6209 42.0619 63.2746C41.8794 62.9795 41.697 62.6802 41.5379 62.2483C41.5379 62.2483 41.449 62.1372 41.3928 61.8592C41.2384 61.748 41.084 61.6369 40.953 61.5642M92.7948 73.1223C92.7526 73.0325 92.7152 72.947 92.7152 72.5065C92.6216 71.9336 92.5234 71.3606 92.4813 70.4583C92.4391 70.2402 92.3924 70.0265 92.3643 69.4577C92.3222 69.2268 92.2848 68.9959 92.3128 68.346C91.8683 67.0418 91.859 65.1389 90.8904 64.5488C88.1346 62.8641 80.2928 65.434 78.0049 68.3075C73.6161 71.4589 71.6182 75.5896 72.4511 80.6225C73.8173 88.8838 85.2197 92.0652 92.369 90.0469C92.8649 89.9058 93.3141 88.8923 93.3469 88.268C93.4451 86.2284 93.3422 84.1844 93.4451 81.7941C93.3047 81.1997 93.1644 80.6096 93.0848 79.6176C93.0614 79.0831 93.038 78.5486 93.1784 77.6977C93.038 76.2652 92.907 74.837 92.7948 73.1223ZM92.1163 111.474C92.1818 110.341 92.252 109.208 92.3269 107.981C87.1521 108.883 82.3375 109.687 77.5463 110.602C76.7884 110.747 76.1427 111.376 75.4409 111.778C75.5906 112.171 75.7403 112.56 75.89 112.954C78.4166 110.119 80.9666 111.645 83.4651 112.385C84.6021 112.723 85.6408 113.338 86.9649 114.091C88.2329 114.827 89.5008 115.562 91.0168 116.443C91.3349 114.591 91.5829 113.18 92.1163 111.474ZM123.511 70.4027C123.479 70.454 123.409 70.5267 123.427 70.5524C123.483 70.6507 123.572 70.732 123.787 71.1553C125.023 71.8053 126.286 72.421 127.488 73.1223C128.696 73.8278 129.248 74.6488 127.255 75.3929C126.061 74.8413 124.873 74.2939 123.483 73.6482C122.777 77.6421 122.141 81.2339 121.518 84.8258C121.415 85.4116 121.406 86.006 121.2 86.7073C121.354 86.7671 121.514 86.827 122.084 86.9082C124.279 85.463 126.473 84.0176 128.948 82.3201C131.138 79.5107 132.163 76.4191 131.611 72.9641C131.002 69.1755 128.317 66.9007 124.344 66.875C124.124 68.0082 123.9 69.1584 123.511 70.4027ZM99.9394 142.522C99.7382 142.565 99.6259 142.681 99.2001 142.933C95.5974 144.421 91.99 145.909 88.2843 147.44C89.7628 150.865 91.2928 154.234 92.6591 157.66C93.0708 158.69 93.0568 159.87 93.1831 160.986C93.3562 162.513 93.0334 164.292 95.9576 163.231C96.7905 162.932 98.3158 163.548 99.1908 164.151C102.059 166.118 102.485 166.041 103.369 163.103C104.244 163.197 105.119 163.291 105.989 163.385C105.933 162.393 105.877 161.405 106.26 160.499C107.004 160.144 108.024 159.939 108.385 159.379C108.6 159.041 107.805 158.143 107.43 157.514C107.14 157.027 106.537 156.573 106.513 156.09C106.312 151.506 103.682 147.79 101.404 143.643C101.226 143.403 101.048 143.164 100.786 142.625C100.594 142.599 100.403 142.578 99.9394 142.522ZM62.6068 196.73C62.808 194.378 63.0325 192.026 63.1542 189.67C63.1636 189.46 62.4804 189.225 61.788 188.716C60.0428 188.734 58.2367 188.503 56.5617 188.832C54.6714 189.204 52.9309 190.068 55.3779 192.03C55.6634 192.261 55.8271 192.779 55.8037 193.151C55.6961 194.9 55.4996 196.64 55.3686 198.017C53.628 199.154 51.9109 200.275 49.6604 201.746C56.9313 202.023 56.9313 202.023 61.016 198.03C61.3996 197.658 61.7833 197.286 62.6068 196.73ZM93.8943 196.088C93.9411 194.117 93.9457 192.142 94.0534 190.17C94.1329 188.661 93.403 187.972 91.4753 187.72C90.4647 187.677 89.426 187.476 88.4481 187.613C84.5179 188.161 84.2044 188.828 86.3473 191.637C86.4502 191.774 86.5812 191.923 86.5999 192.082C86.8479 193.993 87.0819 195.904 87.2643 197.41C85.8232 198.534 84.3915 199.65 82.6557 201.006C88.6774 201.852 90.7267 200.886 93.8943 196.088ZM101.933 135.386C100.735 133.303 99.5417 131.225 98.4187 129.271C94.409 131.884 90.591 134.372 86.3426 136.929C85.9309 137.472 85.084 138.088 85.1729 138.55C85.6501 140.919 86.366 143.249 87.2082 146.371C92.1818 144.062 96.6782 141.967 101.179 139.884C103.477 138.819 103.753 137.455 101.933 135.386ZM13.7829 37.4259C16.4499 34.1676 18.8408 30.6783 21.8352 27.6894C29.6676 19.8728 39.7599 15.6438 50.9424 13.5827C56.1967 12.6164 61.5821 12.1674 66.9254 11.6842C69.873 11.4191 70.0087 9.63595 70.4626 6.99336C64.0057 7.41669 57.8203 7.32261 51.8501 8.31466C40.7846 10.1534 31.4128 15.3573 22.9114 21.9638C17.5962 26.0944 14.1993 31.1444 13.1606 37.6782C13.17 37.8621 13.184 38.046 13.1934 38.2255C13.287 38.0246 13.3712 37.815 13.7829 37.4259ZM48.0134 113.244C50.2967 112.466 52.318 110.277 55.1253 112.167C55.289 112.278 55.9534 111.769 56.3886 111.547C56.1032 111.153 55.8973 110.516 55.5183 110.414C54.2878 110.076 52.9964 109.888 51.7144 109.721C43.2223 108.609 35.3805 105.808 28.0862 101.802C24.4788 99.8176 21.1895 97.3461 17.7553 95.0969C17.5166 95.1439 17.278 95.1909 17.0394 95.238C17.3108 96.307 17.5821 97.376 17.8722 98.8512C20.5439 109.503 26.6264 118.397 34.5804 126.111C38.9645 121.805 43.2924 117.55 48.0134 113.244ZM117.129 101.062C113.723 109.866 108.548 117.747 101.923 124.807C99.8832 126.983 99.2703 128.745 101.437 131.122C102.541 132.333 102.938 134.06 103.912 135.394C105.432 137.485 104.946 139.516 104.281 141.693C103.991 142.651 103.991 143.869 104.384 144.78C106.331 149.317 108.474 153.781 110.471 158.301C110.719 158.865 110.771 159.738 110.457 160.229C109.236 162.145 107.833 163.967 106.069 166.417C111.852 166.1 117.251 165.904 122.627 165.472C126.085 165.194 128.696 163.278 130.609 160.79C132.013 158.968 132.953 156.757 131.414 154.581C129.903 152.447 127.657 153.311 125.589 153.747C121.995 154.504 118.482 153.272 116.362 150.51C111.838 144.609 111.716 138.127 116.142 132.2C117.448 130.455 119.01 128.873 120.494 127.244C125.084 122.203 127.802 116.52 128.251 109.888C128.56 105.338 126.623 101.425 124.644 97.1066C123.292 94.8574 121.944 92.6082 120.592 90.359C120.349 90.4445 120.101 90.5343 119.857 90.6199C119.081 94.0706 118.304 97.5171 117.129 101.062ZM92.7292 130.785C93.3094 130.361 93.913 129.964 94.4604 129.506C103.196 122.25 108.534 113.078 112.02 102.956C115.361 93.2453 116.924 83.2651 116.423 73.0667C116.053 65.5281 114.252 58.2802 110.832 51.3915C106.027 41.7062 99.1439 33.3808 90.1371 26.723C84.4523 22.5239 78.1265 19.0432 72.0674 15.2718C70.4345 14.2541 69.2227 14.3268 68.5723 16.3835C67.8518 18.6669 66.93 20.9076 65.9428 23.1097C65.2924 24.5593 65.6901 25.3974 67.0423 26.3253C74.2618 31.2556 80.4332 37.2378 85.3554 44.0452C96.36 59.2722 100.59 76.1882 98.4 94.3101C97.0666 105.347 93.8007 115.972 88.9253 126.162C87.5264 129.083 86.0572 131.973 84.6208 134.877C84.7986 135.052 84.9717 135.227 85.1495 135.403C87.5685 133.932 89.9827 132.461 92.7292 130.785ZM14.5362 76.1968C16.0007 71.027 16.9599 65.6863 19.0139 60.7175C26.4345 42.7624 39.8395 30.4517 60.4639 25.2863C61.3294 25.0682 62.5834 24.7517 62.8454 24.1745C64.2912 21.0017 65.4843 17.7305 66.9347 14.0659C64.9275 14.0659 63.5238 13.8949 62.1857 14.0959C57.067 14.8655 51.8594 15.3915 46.8858 16.6658C32.9007 20.2448 22.1674 27.6637 15.3035 39.6195C8.4958 51.4727 6.86288 64.3393 6.27335 77.3513C6.05344 82.2089 7.05939 87.1477 7.82205 92.0053C9.72166 104.081 15.2661 114.561 24.9841 123.024C27.2206 124.974 29.925 126.474 32.4141 128.181C32.5826 127.988 32.751 127.8 32.9148 127.608C32.737 127.33 32.6106 127.009 32.3767 126.774C23.4448 117.764 16.9177 107.514 15.0088 95.4005C14.0403 89.2558 14.6204 82.9059 14.5362 76.1968ZM53.0245 187.592C56.1874 187.194 59.3456 186.792 62.6255 186.382C62.6255 184.825 62.6816 182.961 62.5834 181.105C62.56 180.635 61.947 179.767 61.7599 179.797C59.7246 180.164 57.7875 180.263 56.0844 178.924C53.9181 180.729 51.7565 179.45 49.6744 178.826C47.218 178.091 44.8412 177.124 42.2537 176.196C41.8841 179.288 41.4958 182.568 41.0794 186.078C42.862 186.305 44.3686 186.506 45.8752 186.681C48.107 186.938 50.3435 187.173 53.0245 187.592ZM82.6557 6.75818C100.477 10.8204 113.274 20.7537 122.314 35.228C122.314 33.9495 122.098 32.842 121.654 31.8072C118.884 25.3333 114.481 20.0053 108.497 15.6652C99.289 8.99027 88.5931 5.56944 77.3124 3.39293C76.4609 3.23044 75.3941 4.00868 74.4256 4.35077C74.5051 4.68002 74.5846 5.005 74.6642 5.33426C77.1814 5.76186 79.6986 6.18946 82.6557 6.75818ZM89.8237 182.337C89.571 181.434 89.2154 180.541 89.0938 179.621C88.8785 178.026 87.8118 177.624 86.6561 178.518C84.4243 180.241 81.5374 179.442 78.964 180.536C76.2082 181.712 72.2405 180.511 68.563 180.335C68.8998 182.114 69.2835 184.145 69.7046 186.399C76.8913 185.685 83.8301 187.789 90.708 185.351C90.4787 184.513 90.2307 183.624 89.8237 182.337ZM68.8858 5.35564C70.3082 5.41978 72.2405 6.29209 72.0393 3.73502C60.375 -1.40051 24.9139 9.87969 22.5885 18.915C27.7633 16.0671 33.0925 12.5992 38.9084 10.0593C48.1678 6.01415 58.0542 4.184 68.8858 5.35564ZM61.9283 110.803C60.9364 110.803 59.9492 110.803 58.9994 110.803C58.8871 112.137 58.7935 113.266 58.6952 114.442C61.816 116.413 65.4515 116.015 68.8297 115.707C72.7833 115.348 73.6021 114.027 72.9985 110.828C69.4987 110.833 65.9802 110.833 61.9283 110.803ZM40.0968 47.7397C41.463 47.2352 42.9228 46.8631 44.1159 46.1234C44.3826 45.9609 43.9662 44.3104 43.4094 43.6946C39.802 39.7093 33.2236 40.6971 30.9871 45.7172C33.8926 46.3757 36.7655 47.0299 40.0968 47.7397ZM79.5349 52.1269C82.3469 53.7604 85.3788 54.235 88.9581 53.7604C88.1767 52.3621 87.5638 51.2375 86.9228 50.1258C86.6654 49.6768 86.3894 49.2278 86.0572 48.8259C84.9764 47.5131 81.6497 47.3378 79.7127 48.4538C78.0423 49.4159 78.1031 50.5662 79.5349 52.1269ZM3.32567 58.3486C1.24358 62.4493 1.61788 66.3704 4.28015 70.7577C5.00537 65.434 5.64638 60.7517 6.28738 56.0695C5.97858 55.9968 5.6651 55.9198 5.3563 55.8471C4.75272 56.5655 4.14915 57.2838 3.32567 58.3486ZM98.9942 168.123C99.5042 167.101 98.0444 165.382 96.3928 165.51C93.1971 165.763 91.2741 164.715 90.8811 161.461C88.3405 163.295 90.1091 165.117 90.3664 166.746C90.474 167.413 91.5268 168.414 92.2099 168.461C94.3247 168.598 96.4676 168.345 98.9942 168.123ZM95.1576 84.8942C95.1576 89.0505 95.1576 93.2069 95.1576 97.3674C97.1367 88.3493 96.9963 79.3696 95.1576 71.4375C95.1576 75.085 95.1576 79.7331 95.1576 84.8942ZM50.5447 197.611C46.7314 196.794 45.3558 197.435 42.9509 201.155C46.1466 202.37 48.9398 201.215 50.5447 197.611ZM76.1661 199.462C75.8011 199.907 75.4362 200.347 75.0338 200.835C79.0202 202.203 81.5374 200.954 82.4872 197.316C78.2108 196.777 78.0049 196.841 76.1661 199.462ZM43.5498 190.696C43.5077 189.935 43.7557 188.969 43.3346 188.481C43.0024 188.096 41.6642 188.015 41.1308 188.323C40.7191 188.563 40.8173 189.602 40.7706 190.29C40.7284 190.876 40.6255 191.543 40.8735 192.039C41.2197 192.727 41.8701 193.292 42.3894 193.908C42.6234 193.754 42.8573 193.6 43.0913 193.45C41.4864 192.488 41.6128 191.671 43.5498 190.696ZM78.4353 206.154C79.3337 205.979 80.2694 205.885 81.0929 205.551C81.252 205.487 81.0929 204.05 80.8496 203.99C79.4507 203.631 77.9815 203.494 76.5357 203.285C76.3766 203.559 76.2222 203.837 76.0632 204.11C76.7135 204.756 77.3592 205.397 78.4353 206.154ZM7.34013 106.711C7.87819 107.938 8.41158 109.161 8.94965 110.388C9.11809 110.337 9.28186 110.285 9.45029 110.23C8.44902 106.163 7.44306 102.101 6.44178 98.0345C6.2172 98.0687 5.99261 98.1072 5.77271 98.1414C6.25463 100.865 6.74123 103.589 7.34013 106.711ZM51.5226 189.238C48.3503 187.258 46.6753 187.549 46.0483 190.534C47.4379 190.534 48.7901 190.628 50.1095 190.491C50.685 190.431 51.1997 189.901 51.5226 189.238ZM43.7089 203.909C43.7323 204.649 43.5498 205.945 43.8165 206.03C44.8224 206.342 46.0436 206.488 47.0402 206.227C47.5596 206.09 47.7701 204.978 48.2988 203.961C46.5396 203.888 45.3512 203.837 43.7089 203.909ZM81.5608 188.96C80.0215 188.627 78.4915 188.216 76.9334 188.028C76.5965 187.99 76.0538 188.712 75.7918 189.174C75.7122 189.319 76.269 190.029 76.4889 190.012C78.2201 189.862 79.9372 189.606 81.5608 188.96ZM72.6944 188.225C69.845 188.002 69.845 188.002 71.3562 192.62C71.2954 191.004 75.6748 191.004 72.6944 188.225ZM40.4711 200.078C41.4162 198.688 42.3614 197.298 43.3533 195.84C42.4737 195.524 41.7578 195.267 40.8407 194.942C40.574 196.751 40.3354 198.38 40.4711 200.078ZM73.5413 197.662C73.8501 196.939 74.1589 196.212 74.4911 195.43C73.7612 195.43 72.8207 195.43 71.7212 195.43C71.8522 196.973 71.9832 198.479 72.1142 199.984C72.2592 200.052 72.3996 200.116 72.5447 200.185C72.9424 199.454 73.3401 198.722 73.5413 197.662ZM50.6804 203.896C50.5213 204.816 50.3622 205.731 50.2031 206.65C50.8114 206.419 51.6957 206.338 51.9717 205.919C52.5192 205.094 53.1929 203.913 50.6804 203.896ZM83.1282 204.435C83.671 205.021 84.2184 205.607 84.7611 206.188C85.0466 205.47 85.3273 204.752 85.6127 204.033C84.7612 204.042 83.9096 204.05 83.1282 204.435ZM18.9109 67.2898C18.7893 67.3154 18.6676 67.3368 18.546 67.3625C18.5881 67.5079 18.6349 67.6532 18.677 67.8029C18.7706 67.7003 18.8642 67.5977 18.9109 67.2898ZM89.819 156.428C89.7394 156.36 89.7816 156.394 89.819 156.428V156.428ZM122.716 36.6349C122.805 36.6092 122.899 36.5793 122.987 36.5536C122.899 36.5237 122.805 36.498 122.716 36.6349ZM20.848 122.575C20.9182 122.515 20.9837 122.455 21.0539 122.399C20.9837 122.408 20.9135 122.416 20.848 122.575ZM16.9318 93.7627C16.9926 93.8354 17.0488 93.9124 17.1096 93.9851C17.1002 93.8825 17.0862 93.7798 16.9318 93.7627Z" fill="#0B0A0B"/>
<path d="M6.17041 110.234C7.66764 113.15 9.16488 116.263 10.6621 119.573C9.16488 116.661 7.66764 113.548 6.17041 110.234Z" fill="#333D3C"/>
<path d="M123.161 29.5495C121.855 27.6552 120.564 25.5556 119.244 23.2765C120.536 25.1794 121.851 27.2661 123.161 29.5495Z" fill="#333D3C"/>
<path d="M11.7618 122.519C12.3373 123.558 12.9034 124.794 13.4649 126.231C12.8941 125.192 12.3232 123.956 11.7618 122.519Z" fill="#333D3C"/>
<path d="M117.56 20.8648C116.811 20.3132 116.077 19.5735 115.323 18.6669C116.063 19.2185 116.816 19.9497 117.56 20.8648Z" fill="#333D3C"/>
<path d="M112.497 15.7635C111.758 15.3744 111.01 14.8099 110.266 14.0702C111.01 14.455 111.749 15.0195 112.497 15.7635Z" fill="#333D3C"/>
<path d="M100.169 8.07947C99.1393 7.84857 98.0865 7.43379 96.9355 6.86935C97.9368 7.11309 99.041 7.50648 100.169 8.07947Z" fill="#333D3C"/>
<path d="M0.574646 69.2953C1.12207 69.8469 1.6695 70.5909 2.24032 71.506C1.70693 70.9501 1.14079 70.2189 0.574646 69.2953Z" fill="#0B0A0B"/>
<path d="M105.217 10.8204C104.347 10.5467 103.467 10.0764 102.513 9.44351C103.359 9.73001 104.286 10.1747 105.217 10.8204Z" fill="#333D3C"/>
<path d="M10.6481 119.949C11.0317 120.492 11.406 121.232 11.785 122.147C11.4014 121.6 11.0224 120.873 10.6481 119.949Z" fill="#333D3C"/>
<path d="M102.358 9.12281C101.745 9.04585 101.057 8.81066 100.281 8.41727C100.889 8.49424 101.586 8.72514 102.358 9.12281Z" fill="#333D3C"/>
<path d="M119.235 22.9173C118.856 22.6993 118.482 22.2973 118.108 21.7329C118.487 21.9552 118.866 22.3444 119.235 22.9173Z" fill="#333D3C"/>
<path d="M37.5562 205.812C38.0381 205.898 38.5388 206.171 39.119 206.586C38.6604 206.488 38.1177 206.24 37.5562 205.812Z" fill="#27332A"/>
<path d="M107.449 12.1716C106.943 12.1032 106.415 11.8466 105.764 11.4618C106.237 11.5473 106.831 11.7654 107.449 12.1716Z" fill="#333D3C"/>
<path d="M109.129 13.2022C108.642 13.138 108.137 12.89 107.547 12.5009C108.015 12.5736 108.563 12.8002 109.129 13.2022Z" fill="#333D3C"/>
<path d="M36.3724 171.095C36.3631 170.838 36.7467 170.419 36.9245 170.163C37.1023 170.317 37.2848 170.475 37.486 170.774C37.2614 170.928 36.8076 171.095 36.3724 171.095Z" fill="#080A0A"/>
<path d="M97.015 205.179C97.1133 204.897 97.3893 204.598 97.8151 204.23C97.7122 204.499 97.4548 204.833 97.015 205.179Z" fill="#27332A"/>
<path d="M2.25903 71.8224C2.44151 71.9079 2.62865 72.1517 2.82049 72.5493C2.63801 72.4638 2.45087 72.2201 2.25903 71.8224Z" fill="#0B0A0B"/>
<path d="M110.186 13.7581C109.957 13.8094 109.639 13.7324 109.236 13.5143C109.466 13.4587 109.779 13.5443 110.186 13.7581Z" fill="#333D3C"/>
<path d="M115.263 18.3719C115.155 18.4018 114.996 18.3163 114.795 18.1025C114.902 18.0683 115.057 18.1624 115.263 18.3719Z" fill="#333D3C"/>
<path d="M63.3693 206.167C63.2898 206.047 63.3974 205.91 63.6828 205.761C63.7577 205.876 63.65 206.009 63.3693 206.167Z" fill="#27332A"/>
<path d="M118.061 21.4378C117.958 21.4677 117.799 21.3779 117.598 21.1684C117.7 21.1385 117.855 21.2283 118.061 21.4378Z" fill="#333D3C"/>
<path d="M114.701 17.8588C114.593 17.893 114.434 17.8032 114.233 17.5894C114.346 17.5552 114.5 17.6492 114.701 17.8588Z" fill="#333D3C"/>
<path d="M114.14 17.3499C114.037 17.3799 113.878 17.2901 113.677 17.0763C113.78 17.0421 113.934 17.1361 114.14 17.3499Z" fill="#333D3C"/>
<path d="M113.022 16.328C112.919 16.3579 112.76 16.2681 112.554 16.0543C112.661 16.0201 112.816 16.1142 113.022 16.328Z" fill="#333D3C"/>
<path d="M113.583 16.841C113.48 16.871 113.321 16.7812 113.115 16.5674C113.223 16.5332 113.377 16.6272 113.583 16.841Z" fill="#333D3C"/>
<path d="M122.019 128.429C122.005 128.326 122.15 128.185 122.445 127.997C122.459 128.095 122.319 128.245 122.019 128.429Z" fill="#0B0A0B"/>
<path d="M130.357 83.9322C130.343 83.8167 130.506 83.6713 130.834 83.4832C130.838 83.5944 130.684 83.7483 130.357 83.9322Z" fill="#0B0A0B"/>
<path d="M123.82 167.353C123.83 167.302 123.998 167.251 124.227 167.276C124.185 167.353 124.082 167.353 123.82 167.353Z" fill="#333D3C"/>
<path d="M2.87195 72.8187C2.97488 72.7973 3.13395 72.9042 3.3445 73.1394C3.23689 73.1608 3.0825 73.0496 2.87195 72.8187Z" fill="#0B0A0B"/>
<path d="M92.8322 130.947C90.2495 132.521 87.6013 134.073 85.187 135.548C85.0092 135.373 84.691 134.992 84.5132 134.817C85.9496 131.914 87.5545 128.925 88.9488 126.004C93.8241 115.814 97.09 105.184 98.4235 94.1519C100.618 76.03 96.3835 59.114 85.3788 43.887C79.7735 37.4901 74.2665 31.2599 67.0471 26.3296C65.6949 25.406 65.3205 24.4011 65.9662 22.9515C66.9535 20.7494 67.8752 18.5087 68.5958 16.2253C69.2461 14.1686 70.4579 14.0959 72.0909 15.1136C78.15 18.885 84.4758 22.3657 90.1606 26.5648C99.1674 33.2183 106.05 41.5438 110.855 51.2333C114.275 58.122 116.077 65.3741 116.446 72.9085C116.947 83.1069 115.384 93.0914 112.044 102.798C108.558 112.919 103.42 122.228 94.685 129.485C94.1376 129.938 93.5762 130.421 92.8322 130.947Z" fill="#2B2A2D"/>
<path d="M82.3143 113.809C84.9626 115.049 87.6108 116.289 90.6801 117.726C87.0447 125.003 83.6478 131.811 80.1246 138.875C81.2242 138.648 82.0149 138.486 83.0864 138.263C85.1544 145.674 87.2178 153.332 89.3841 161.089C74.8375 165.703 60.3892 165.528 45.4964 161.2C44.7197 160.995 44.2799 160.914 43.8401 160.832C43.8261 159.922 43.6389 158.981 43.8214 158.104C45.9129 148.115 48.0651 138.135 50.1893 128.151C50.3578 127.364 50.4139 126.551 50.5215 125.752C50.2735 125.658 50.0256 125.564 49.7729 125.47C49.3986 126 48.8465 126.487 48.6827 127.065C48.0792 129.198 47.6674 131.379 47.0358 133.5C46.9001 133.949 45.9269 134.693 45.2297 135.121C45.0145 134.932 45.066 134.847 45.066 134.847C42.006 132.345 39.1426 129.763 35.5211 126.804C40.1438 122.549 44.7993 118.26 49.684 114.147C51.083 115.382 52.0749 116.721 53.4552 117.465C61.8022 121.963 75.7312 120.65 82.3143 113.809Z" fill="#DCB1D3"/>
<path d="M14.5408 76.2609C14.6438 82.7434 14.0636 89.0933 15.0321 95.2422C16.9411 107.361 23.4681 117.606 32.4 126.616C32.6339 126.851 33.1346 127.3 33.3124 127.578C33.1439 127.77 32.6152 128.245 32.4468 128.437C29.9576 126.731 27.2392 124.815 25.0027 122.865C15.2894 114.403 8.4162 104.111 7.8407 91.847C7.07804 86.9895 5.76329 82.3585 6.292 77.1931C6.88153 64.1811 8.51445 51.3145 15.3222 39.4613C22.1861 27.5055 32.9194 20.0866 46.9044 16.5075C51.8781 15.2333 57.0856 14.7073 62.2043 13.9376C63.5425 13.7366 65.4842 13.5399 67.4914 13.5399C66.041 17.2045 64.5578 21.2454 63.112 24.4182C62.85 24.9955 61.058 25.6882 60.1924 25.9063C39.568 31.0717 27.403 43.3012 19.0325 60.5593C16.6837 65.4083 16.9317 72.5493 14.5408 76.2609Z" fill="#2A2A2C"/>
<path d="M124.836 97.2691C126.646 101.267 128.579 105.175 128.275 109.729C127.825 116.362 125.706 122.19 121.116 127.231C119.633 128.86 118.491 130.785 117.186 132.529C112.76 138.456 111.861 144.447 116.386 150.348C118.505 153.11 122.019 154.341 125.612 153.585C127.68 153.148 129.926 152.285 131.438 154.418C132.977 156.595 132.546 159.212 131.143 161.033C129.229 163.522 126.291 165.476 122.833 165.754C117.457 166.186 111.548 166.233 105.765 166.549C107.529 164.095 109.26 161.983 110.481 160.067C110.794 159.58 110.392 158.878 110.144 158.314C108.146 153.794 106.111 149.202 104.164 144.665C103.771 143.754 104.015 142.488 104.305 141.535C104.969 139.358 105.18 137.481 103.659 135.386C102.686 134.047 102.288 132.444 101.189 131.234C99.0224 128.852 99.9114 126.821 101.951 124.644C108.577 117.585 113.424 109.785 117.134 101.062C117.85 101.066 118.655 101.006 118.982 100.814C120.948 99.6594 122.889 98.4578 124.836 97.2691Z" fill="#2A2A2C"/>
<path d="M118.093 88.0457C118.294 83.4618 118.645 78.8779 118.673 74.2897C118.758 60.7817 113.719 48.8601 105.105 38.0289C96.7296 27.497 85.8091 19.7531 73.5412 13.4074C72.7551 13.0012 71.6743 11.697 71.8755 11.3122C72.5867 9.94813 72.3013 7.29698 74.9916 7.7759C80.1524 8.69524 85.4442 9.49914 90.3102 11.2309C107.641 17.4013 118.215 29.4383 123.722 45.2981C124.7 48.1118 123.951 51.5155 123.596 54.6071C122.636 62.9496 121.504 71.2793 120.344 79.6005C119.923 82.6237 119.235 85.6169 118.533 88.747C118.294 88.5973 118.192 88.3194 118.093 88.0457Z" fill="#2A2A2C"/>
<path d="M19.8889 165.805C19.2152 165.309 18.7332 164.848 18.0969 164.309C16.5061 163.21 15.2241 161.76 13.5959 161.251C8.65499 159.712 10.4938 158.006 8.79537 153.379C7.78006 150.617 7.43849 151.13 6.20795 146.32C6.70391 146.101 7.02208 145.541 7.50868 144.947C7.86895 144.767 8.14967 144.78 8.63627 144.998C10.0914 146.679 11.4015 148.004 13.7175 146.871C13.8392 146.837 13.9655 146.824 14.424 146.875C18.6818 146.444 20.1977 143.185 18.4572 138.96C18.4244 138.862 18.4104 138.759 18.3964 138.588C19.9357 135.788 17.8723 133.359 17.0629 131.016C14.9995 125.033 12.3653 119.795 9.95571 113.911C9.71709 113.33 9.74984 112.111 10.068 111.32C11.0412 113.009 11.9349 114.745 13.0063 116.383C16.8009 122.173 21.826 126.62 29.125 128.553C31.7498 129.25 32.5031 130.207 30.4351 132.076C28.3857 134.227 28.484 136.305 30.2526 138.43C31.6235 140.076 31.3287 141.582 30.5474 143.42C28.746 147.666 27.2862 152.032 25.6907 156.351C25.6299 156.514 25.6392 156.715 25.5316 156.834C24.011 158.549 22.5231 160.281 24.666 162.44C26.1024 163.89 27.1458 165.463 29.1905 166.661C32.3207 168.491 34.2296 168.837 36.817 166.207C37.3785 165.639 39.5963 166.43 41.2058 166.883C41.3508 167.366 41.3462 167.567 41.3368 167.764C40.8689 167.871 40.401 167.978 39.629 168.213C39.091 168.354 38.857 168.367 38.6231 168.384C35.0344 168.41 31.3942 168.769 27.8664 168.345C25.2041 168.038 22.6728 166.716 19.8889 165.805Z" fill="#2A2A2B"/>
<path d="M47.0592 163.236C51.5368 163.958 55.9958 164.809 60.4968 165.378C67.9596 166.319 75.3335 165.331 83.1238 164.198C84.3964 165.104 85.2105 165.947 86.2399 167.003C86.6657 165.737 86.9932 164.754 87.3207 163.774C88.0646 166.669 88.8086 169.564 89.3045 172.681C88.0412 172.921 87.0213 172.887 86.0153 172.976C79.7971 173.515 73.4432 174.169 67.2297 174.725C66.9069 173.22 66.701 171.792 66.3781 170.287C66.1536 170.274 65.9243 170.261 65.6997 170.244C65.3067 171.625 65.1523 173.011 64.413 174.559C56.8005 173.507 49.2582 172.237 41.9919 171.018C41.9919 171.018 42.0621 170.689 42.1651 170.424C42.5581 168.709 42.8529 167.264 43.1476 165.814C43.2084 165.652 43.2693 165.493 43.4096 165.061C44.0927 163.984 44.4951 163.616 45.0987 162.808" fill="#5271B6"/>
<path d="M48.2802 113.291C43.9522 117.546 39.016 121.985 34.6366 126.291C26.6826 118.572 20.572 109.34 18.0594 98.5604C19.028 99.1334 19.8187 99.8432 20.6422 100.527C28.395 106.959 38.0849 111.23 48.2802 113.291Z" fill="#2B2A2D"/>
<path d="M41.1447 162.278C40.5926 163.526 39.9844 164.587 37.935 163.685C37.2426 163.381 35.633 164.159 34.8329 164.835C32.3578 166.913 32.0958 166.909 31.0665 163.915C28.086 164.672 27.6275 164.275 28.2825 161.495C25.3255 160.773 25.1898 160.422 27.0146 158.275C27.2859 157.955 27.5339 157.591 27.6696 157.215C29.5926 151.754 31.4969 146.285 33.5229 140.474C37.294 142.672 40.4943 144.481 43.5964 146.422C43.9801 146.662 44.0456 147.671 43.8912 148.239C42.9601 151.695 41.9027 155.12 40.9342 158.566C40.7189 159.336 40.7049 160.157 40.7143 161.26C40.8687 161.786 41.0979 162.051 41.1447 162.278Z" fill="#ECBEA0"/>
<path d="M36.8731 68.4187C35.9186 69.043 33.5604 68.7351 31.9041 69.0002C30.9917 71.5787 31.7825 69.4877 33.8505 71.8224C37.3784 71.6685 38.7493 72.8701 42.6187 72.7418C42.5157 73.2335 41.3648 78.2493 36.466 80.1864C33.7148 81.2725 31.0666 80.8833 30.1261 80.7038C29.5787 80.6011 27.5621 80.1693 25.5315 78.7111C23.5524 77.2872 22.1814 75.2903 21.3346 72.8658C19.8373 68.5855 19.7812 64.3094 21.9288 59.8452C22.3592 58.7548 22.9628 57.9125 23.3371 57.3309C27.9973 53.3157 33.0364 53.521 37.3503 57.4335C37.2661 57.5789 39.8722 58.9943 39.6523 58.9686C38.0521 59.4604 40.9109 66.5928 39.5634 67.1145" fill="#F7F5F5"/>
<path d="M12.7395 37.0368C13.563 30.6398 17.6243 25.9362 22.9394 21.8055C31.4409 15.199 40.8127 9.99511 51.8782 8.15641C57.8484 7.16437 64.0292 7.25417 70.4907 6.83511C70.0321 9.47771 69.9058 11.8338 66.9581 12.1032C61.6102 12.5864 56.1921 13.0354 50.933 14.0018C39.7506 16.0585 30.0186 20.3987 22.1862 28.2153C19.1917 31.2 15.589 35.6556 12.7395 38.9909C12.5571 39.0593 12.7395 37.0368 12.7395 37.0368Z" fill="#2A2A2B"/>
<path d="M93.3609 88.1056C93.3282 88.7299 92.879 89.7476 92.383 89.8844C85.2384 91.8984 73.8314 88.7213 72.4652 80.46C71.6323 75.4228 74.8186 69.8298 79.3992 66.875L81.7901 65.5024L85.6455 64.1897L88.5604 63.8433L89.8331 63.9759L90.9045 64.3778L91.4286 64.9594L91.7795 65.8873L92.1678 67.6148L92.3316 68.1792L92.3924 69.4578L92.7527 72.7161L93.1784 77.3855L93.0802 78.7325L93.0989 79.4509L93.4592 81.6274C93.4592 81.6274 93.4592 86.0659 93.3609 88.1056Z" fill="#F6F6F5"/>
<path d="M103.364 163.103C102.672 166.25 102.054 166.118 99.1861 164.151C98.3112 163.552 96.7391 163.03 95.9062 163.33C92.9773 164.39 93.375 162.35 93.2019 160.824C93.0755 159.708 92.8931 158.511 92.4813 157.48C91.1151 154.055 89.7816 150.702 88.3031 147.277C92.0134 145.747 95.8875 143.976 99.668 142.642C98.8867 144.81 97.207 146.521 98.1568 148.693C98.4983 149.475 98.8446 150.258 99.1253 151.057C100.492 154.944 102.007 159.212 103.364 163.103Z" fill="#EBBD9F"/>
<path d="M53.0199 187.75C50.5588 187.417 47.948 187.198 45.7115 186.942C44.2049 186.767 42.4972 186.377 40.7098 186.151C41.1263 182.644 41.9029 179.125 42.2726 176.034C44.86 176.962 47.2368 177.928 49.6932 178.663C51.7753 179.288 53.9416 180.566 56.1033 178.762C57.8111 180.096 59.7434 179.998 61.7787 179.634C61.9659 179.6 62.5788 180.472 62.6022 180.943C62.7005 182.798 62.6443 184.667 62.6443 186.219C59.3691 186.63 56.4027 187.438 53.0199 187.75Z" fill="#E9BD9F"/>
<path d="M42.8434 73.1736C41.0607 73.1393 39.2547 73.118 37.4299 73.1094C35.8578 73.1009 34.3045 73.1009 32.7651 73.1094C32.6902 73.3489 32.6107 73.5883 32.5359 73.8278C33.233 74.4264 33.8834 75.4698 34.6413 75.5425C37.0556 75.7819 39.5073 75.6579 42.0433 75.6537C42.3053 75.5425 42.4737 75.457 42.6375 75.3672C42.324 75.8119 42.0152 76.2609 41.4116 76.7868C41.0467 77.0049 40.9718 77.1503 40.9016 77.2914C40.9016 77.2914 40.9531 77.2358 40.9812 77.2615C37.1445 77.4154 33.3593 77.2529 30.6549 74.2041C28.5822 71.8651 27.4686 69.2781 28.381 66.6954C30.042 66.4302 31.558 66.52 32.5124 65.8957C33.0224 65.5622 32.5639 63.9929 32.4797 62.5818C32.4048 61.8677 32.3908 61.5513 32.3814 61.2349C32.3814 61.2349 32.4329 61.2776 32.6201 61.299C34.8191 60.4523 37.0182 59.6057 39.2173 58.759C39.3576 58.8146 39.5775 58.9087 39.8208 59.0498C40.9952 59.7297 41.8281 60.9441 42.3895 63.2874C43.33 67.1828 42.9603 71.9078 42.8434 73.1736Z" fill="#AB5C34"/>
<path d="M48.1865 113.291C37.7948 111.252 28.3949 106.959 20.6421 100.523C19.8186 99.839 19.0279 99.1292 18.05 98.3552C17.6055 97.2092 17.3388 96.1402 17.0674 95.0712C17.3061 95.0242 17.5447 94.9771 17.7833 94.9301C21.2176 97.1793 24.5021 99.6551 28.1142 101.635C35.4086 105.642 43.2503 108.442 51.7424 109.554C53.0244 109.721 54.3111 109.909 55.5463 110.247C55.9253 110.349 56.3511 111.029 56.6365 111.423C56.2061 111.645 55.4434 112.411 55.2796 112.299C52.463 110.409 50.6663 112.488 48.1865 113.291Z" fill="#1C1C1C"/>
<path d="M82.5996 7.71603C79.8624 7.22001 76.5264 6.77958 74.0092 6.35198C73.9296 6.02272 74.5239 4.51756 74.449 4.1883C75.4175 3.84622 76.4843 3.06798 77.3359 3.23047C88.6166 5.40697 99.3124 8.8278 108.52 15.5027C114.505 19.8429 118.907 25.1708 121.677 31.6447C122.117 32.6753 122.337 33.787 122.337 35.0656C113.298 20.5912 100.646 11.851 82.5996 7.71603Z" fill="#282729"/>
<path d="M89.9268 182.371C90.2543 183.457 90.4789 184.513 90.7128 185.351C83.8349 187.789 76.9476 186.014 69.7562 186.728C69.3304 184.475 68.9234 181.952 68.5865 180.173C72.2641 180.348 76.2317 181.55 78.9876 180.374C81.5563 179.279 84.4478 180.079 86.6796 178.356C87.8353 177.466 88.9021 177.864 89.1173 179.459C89.239 180.378 89.5946 181.272 89.9268 182.371Z" fill="#E8BC9F"/>
<path d="M69.6296 6.0441C59.0367 4.87674 48.4578 6.4717 39.1983 10.5168C33.3825 13.0568 27.0239 16.7941 21.8491 19.6419C22.2421 10.0978 61.1655 -1.76395 72.8299 3.37158C73.0311 5.92865 71.2906 6.11252 69.6296 6.0441Z" fill="#282729"/>
<path d="M86.7872 136.532C90.6098 134.043 94.5681 131.619 98.5732 129.006C99.6961 130.96 100.894 133.042 101.933 135.386C97.5813 138.986 92.5188 141.137 86.7872 142.997C86.7872 140.615 86.7872 138.49 86.7872 136.532Z" fill="#DAB0D3"/>
<path d="M82.1972 113.445C75.7217 120.454 61.7928 121.762 53.4504 117.268C52.0701 116.524 51.0782 115.19 49.871 113.963C51.5507 112.736 53.0152 113.197 54.6201 114.185C61.76 118.585 69.4754 118.376 76.4469 113.633C78.2998 112.372 80.1339 112.428 82.1972 113.445Z" fill="#E4C0DC"/>
<path d="M93.9175 195.926C91.4705 200.929 88.5041 201.951 82.4871 201.1C84.2229 199.744 85.7061 198.338 87.1472 197.213C86.96 195.708 86.6933 194.173 86.4454 192.261C86.4267 192.107 86.1272 191.577 86.0243 191.44C83.8767 188.631 84.5457 188.002 88.4713 187.451C89.4539 187.314 92.7291 187.399 93.6321 188.079C95.8124 190.628 94.0813 193.326 93.9175 195.926Z" fill="#524E4A"/>
<path d="M62.6304 196.73C62.2514 197.102 61.4232 197.658 61.0442 198.03C56.9596 202.028 56.9596 202.028 49.6887 201.746C51.9392 200.275 53.4879 199.159 55.2331 198.021C55.3641 196.644 55.7244 194.895 55.832 193.151C55.8554 192.779 55.6963 192.261 55.4062 192.03C52.9545 190.068 54.695 189.204 56.59 188.832C58.265 188.503 60.0008 188.4 61.8162 188.716C65.0119 189.033 62.5508 194.224 62.6304 196.73Z" fill="#524E4A"/>
<path d="M41.8561 170.945C49.3142 172.117 56.5805 173.336 64.0854 174.559C64.5299 175.123 64.7919 175.67 64.9276 176.243C65.0211 176.637 64.9463 177.064 64.9463 177.124C63.9356 177.244 63.0888 177.346 61.8489 177.496C61.6992 177.355 61.2172 176.885 60.6558 176.342C60.1645 176.979 59.7013 177.582 58.7608 178.805C57.8906 177.633 57.17 176.667 56.4495 175.696C55.2798 176.628 54.2925 177.411 53.0386 178.407C52.5848 177.248 52.2853 176.487 51.9718 175.687C51.1858 176.102 50.4044 176.517 49.3797 177.056C49.1224 176.119 48.9072 175.345 48.6405 174.379C47.5737 174.832 46.5444 175.268 45.2015 175.837C45.0518 174.772 44.9301 173.921 44.8132 173.092C43.4423 173.271 42.1322 173.442 40.2653 173.69C40.9016 172.472 41.2853 171.732 41.8561 170.945Z" fill="#CCD9E8"/>
<path d="M67.2856 174.807C73.5834 174.075 79.7969 173.511 86.0151 172.972C87.021 172.887 88.041 172.921 89.3043 172.878C89.1172 173.947 88.6774 175.042 88.1299 176.393C87.1988 175.893 86.4549 175.491 85.5425 174.999C85.2711 175.854 85.0044 176.679 84.6442 177.813C83.2499 177.163 82.0568 176.602 80.873 176.051C80.2367 177.056 79.577 178.082 78.6927 179.476C77.8926 178.398 77.4107 177.74 76.8492 176.983C76.3486 177.599 75.862 178.197 75.1087 179.125C74.4957 178.206 74.0185 177.488 73.3401 176.461C72.6803 177.359 72.0768 178.176 71.2159 179.348C70.6029 178.005 70.266 177.274 69.9292 176.543C68.9466 177.116 68.0576 177.637 66.4855 178.557C66.8224 176.88 67.0142 175.931 67.2856 174.807Z" fill="#D0DDED"/>
<path d="M45.2061 134.53C47.6859 135.954 45.8565 137.78 45.6553 139.675C45.688 140.457 45.4167 141.073 45.1546 141.496C43.9428 141.193 42.3052 140.449 41.3694 139.88C38.0194 137.844 34.7442 135.702 31.4409 133.598C32.0726 132.696 32.6995 131.798 33.2704 130.986C37.2988 132.29 40.9671 133.59 44.9488 134.731C45.1406 134.646 45.2201 134.543 45.2061 134.53Z" fill="#DAB0D3"/>
<path d="M62.2185 110.653C66.0037 110.666 69.5222 110.666 73.0127 110.666C73.6162 113.864 72.9097 115.502 68.9561 115.861C65.578 116.169 61.8161 116.413 58.6907 114.442C58.7889 113.266 58.9059 111.97 59.0182 110.636C59.968 110.64 60.9599 110.64 62.2185 110.653Z" fill="#E0B195"/>
<path d="M128.869 82.4954C126.674 83.9407 124.55 85.6767 122.07 87.0408C121.785 86.9553 121.074 86.7842 121.074 86.7842C121.125 86.1941 121.439 85.2449 121.541 84.6633C122.159 81.0714 122.8 77.4796 123.507 73.4857C124.896 74.1272 126.089 74.6788 127.502 75.4912C128.04 77.9713 128.546 80.2804 128.869 82.4954Z" fill="#BB7761"/>
<path d="M103.364 163.103C101.914 159.105 100.491 154.944 99.1204 151.053C98.8397 150.253 98.4934 149.471 98.1519 148.688C97.2021 146.516 97.0851 144.524 99.593 142.89C99.6444 142.518 99.7567 142.403 100.183 142.463C100.576 142.612 100.604 142.599 100.786 142.625C100.964 142.865 101.245 143.237 101.268 143.75C101.591 149.698 103.687 155.445 106.209 160.627C106.008 161.649 105.933 162.397 105.984 163.389C105.114 163.291 104.333 163.304 103.364 163.103Z" fill="#E6B195"/>
<path d="M40.0687 47.8979C36.9667 47.2181 33.7336 46.4612 30.828 45.8027C33.0645 40.7826 39.8208 39.5511 43.4282 43.5364C43.9896 44.1521 44.6493 45.9481 44.3873 46.1106C43.1942 46.8418 41.6642 47.419 40.0687 47.8979Z" fill="#5F5142"/>
<path d="M128.869 82.4954C128.406 80.4044 127.652 77.7832 127.297 75.3758C128.878 74.2982 128.64 73.845 127.433 73.1394C126.23 72.4381 125.042 72.0961 123.783 71.1553C123.605 70.8346 123.441 70.6422 123.423 70.5524C123.647 69.3979 124.148 67.8414 124.368 66.7125C128.34 66.7382 131.026 69.013 131.634 72.8016C132.186 76.2524 131.194 79.562 128.869 82.4954Z" fill="#CA8871"/>
<path d="M86.787 136.532C86.9975 138.456 86.787 140.615 86.787 142.997C92.5186 141.137 97.5624 138.802 101.932 135.386C103.893 137.006 103.476 138.819 101.179 139.88C96.6781 141.962 92.1817 144.058 87.2081 146.367C86.3659 143.245 85.6687 140.752 85.1915 138.383C85.1026 137.926 86.16 137.109 86.787 136.532Z" fill="#E4C0DC"/>
<path d="M86.7123 114.031C85.6315 113.544 84.4244 112.868 83.2874 112.53C80.7889 111.79 78.4448 110.183 75.9182 113.018C75.7685 112.624 75.4784 112.051 75.3287 111.658C76.0258 111.252 76.8072 110.576 77.5652 110.435C82.3563 109.524 87.1709 108.72 92.3457 107.814C92.2708 109.041 92.589 110.123 92.2427 111.337C90.3525 112.145 88.3265 113.3 86.7123 114.031Z" fill="#1C1C1C"/>
<path d="M79.3991 52.2253C78.1218 50.8014 78.0657 49.2534 79.7313 48.2913C81.6684 47.1753 84.995 47.3506 86.0759 48.6633C86.4081 49.0653 86.6794 49.5143 86.9414 49.9632C87.5824 51.075 88.3872 52.4476 89.1686 53.8459C85.5939 54.3163 82.3655 53.9956 79.3991 52.2253Z" fill="#5F5142"/>
<path d="M73.181 69.7015C73.8501 65.6606 77.0785 63.2575 80.7935 60.8073C82.0755 60.26 83.0534 59.888 84.036 59.516C84.4711 59.4262 84.9109 59.3364 85.4958 59.1824C87.1474 59.0627 88.6446 59.0114 90.3899 58.9216C91.2835 60.1617 91.4894 61.2478 89.3512 61.2478C82.2674 61.252 77.392 64.7798 73.181 69.7015Z" fill="#8D5647"/>
<path d="M42.9511 56.9119C43.7231 59.516 44.3454 62.0132 44.8039 64.6258C43.3254 60.4182 41.9592 56.4671 37.4441 53.4782C36.8171 53.1789 36.3352 52.9907 35.9843 52.8795C35.9843 52.8795 35.989 52.747 35.9422 52.5588C33.6074 51.8447 31.3101 51.3573 29.0409 50.78C28.3016 50.5919 27.5015 50.1343 26.7997 49.8179C27.2208 49.3347 27.7729 48.8815 28.3437 48.317C29.8831 48.5522 31.2727 48.8644 32.6529 49.1936C37.3178 50.2968 40.4058 53.166 42.9511 56.9119Z" fill="#8D5647"/>
<path d="M105.872 160.747C103.13 155.526 101.493 149.06 101.184 143.262C103.607 146.991 106.335 151.344 106.536 155.928C106.56 156.411 107.159 156.864 107.453 157.352C107.828 157.98 108.885 159.105 108.67 159.443C108.305 160.003 106.831 160.435 105.872 160.747Z" fill="#D9A78C"/>
<path d="M124.751 97.3461C122.889 98.693 120.952 99.6594 118.978 100.814C118.65 101.006 117.649 101.113 117.129 101.062C117.799 97.4872 119.099 93.9081 119.876 90.4616C120.119 90.3761 120.367 90.2863 120.611 90.2008C121.963 92.45 123.315 94.9344 124.751 97.3461Z" fill="#1C1C1C"/>
<path d="M3.32107 58.1775C4.03226 57.2881 4.7528 56.5655 5.35638 55.8471C5.66518 55.9198 5.97866 55.9967 6.28746 56.0694C5.64646 60.7517 5.01013 65.434 4.28023 70.7576C1.61796 66.3661 1.13137 62.4493 3.32107 58.1775Z" fill="#CA8871"/>
<path d="M98.9942 168.123C96.6641 168.286 94.0767 168.854 91.9666 168.717C91.2788 168.675 90.226 167.67 90.1231 167.003C89.8658 165.374 88.3639 163.133 90.9045 161.298C91.2975 164.553 93.2252 165.6 96.4162 165.348C98.0678 165.22 99.7101 167.041 98.9942 168.123Z" fill="#282729"/>
<path d="M95.181 84.4752C95.181 79.5706 95.181 74.9225 95.181 71.2751C97.0198 79.2071 97.1601 88.1868 95.181 97.205C95.181 93.0444 95.181 88.8881 95.181 84.4752Z" fill="#202121"/>
<path d="M44.9487 142.843C44.8271 143.463 44.6119 144.233 44.3171 145.725C39.554 142.296 35.0997 139.32 30.9356 136.194C30.5519 135.903 31.2631 134.158 31.4409 133.594C35.0857 136.13 38.1597 139.23 41.6268 141.603C42.5345 142.232 43.8539 142.445 44.9487 142.843Z" fill="#CEACCB"/>
<path d="M50.732 197.448C48.9962 200.903 47.3211 203.088 42.7405 201.297C45.1455 197.572 46.7831 196.482 50.732 197.448Z" fill="#4B4945"/>
<path d="M76.2599 199.274C77.9536 196.79 78.3092 196.743 82.5857 197.281C81.8043 201.006 78.9268 202.246 74.9404 200.877C75.3381 200.39 75.7452 199.856 76.2599 199.274Z" fill="#4B4945"/>
<path d="M44.9487 142.843C43.7602 142.599 42.5344 142.232 41.6267 141.607C38.1596 139.23 34.8049 136.724 31.3145 134.099C31.2209 133.932 31.3566 133.662 31.4455 133.598C34.8377 135.634 38.024 137.844 41.374 139.88C42.3098 140.449 43.4701 140.705 44.7849 140.979C45.0422 140.855 45.2388 140.773 45.2388 140.773C45.1732 141.359 45.0984 142.108 44.9487 142.843Z" fill="#ECCCE3"/>
<path d="M86.7122 114.031C88.2047 113.172 90.4927 111.996 92.2426 111.337C92.1303 112.817 91.3442 114.732 91.0214 116.584C89.5054 115.703 88.1018 114.899 86.7122 114.031Z" fill="#2B2A2D"/>
<path d="M43.55 190.696C41.758 191.534 41.4866 192.492 43.0915 193.446C42.8575 193.6 42.6236 193.754 42.3896 193.903C41.8703 193.288 41.2199 192.723 40.8737 192.035C40.6257 191.539 40.7286 190.872 40.7708 190.286C40.8175 189.597 40.593 188.349 41.0047 188.114C41.5381 187.806 43.0353 188.049 43.3675 188.434C43.7839 188.926 43.6483 189.798 43.55 190.696Z" fill="#4B4945"/>
<path d="M78.3698 206.295C77.5089 205.594 76.6152 204.679 75.9695 204.038C76.1286 203.764 76.386 203.512 76.5404 203.238C77.9861 203.447 79.4506 203.584 80.8543 203.943C81.0929 204.003 81.2567 205.487 81.0976 205.551C80.2694 205.885 79.4787 206.18 78.3698 206.295Z" fill="#4B4945"/>
<path d="M7.30755 106.347C6.76481 103.427 6.27821 100.703 5.78693 97.9789C6.01151 97.9447 6.23611 97.9062 6.45601 97.872C7.45729 101.939 8.75801 106.437 9.75928 110.503C9.59085 110.555 9.13232 110.17 8.96856 110.225C8.43517 108.998 7.90177 107.771 7.30755 106.347Z" fill="#2A2A2B"/>
<path d="M51.6491 189.272C51.6491 189.828 51.6865 190.41 50.1051 190.529C48.7856 190.666 47.4381 190.572 46.0438 190.572C46.6755 187.588 48.3645 187.121 51.6491 189.272Z" fill="#4B4945"/>
<path d="M43.6903 203.849C45.108 203.841 46.6193 203.824 48.3738 203.896C47.8451 204.914 47.5738 206.111 47.0591 206.248C46.0625 206.509 44.8413 206.364 43.8354 206.051C43.5687 205.97 43.4844 204.649 43.6903 203.849Z" fill="#4B4945"/>
<path d="M81.8274 189.02C80.1524 189.452 78.1639 190.264 76.4561 190.012C76.2409 189.978 75.6747 189.319 75.759 189.174C76.021 188.712 76.559 187.99 76.9006 188.028C78.4587 188.216 80.2413 188.477 81.8274 189.02Z" fill="#4B4945"/>
<path d="M26.5283 49.5699C27.4033 49.8093 28.2969 50.4251 29.0362 50.6175C31.3054 51.1947 33.6028 51.6822 35.9703 52.3749C35.9936 52.5289 35.9983 52.7427 35.8673 52.918C35.3339 53.6235 33.1723 52.9265 30.758 52.4348C29.4573 52.1697 27.5998 51.8704 25.2697 51.7506C25.5598 51.323 25.906 50.3011 26.5283 49.5699Z" fill="#0B0A0B"/>
<path d="M72.7367 188.208C75.5393 190.872 72.2314 191.158 71.2395 192.676C69.7282 188.058 69.7095 187.87 72.7367 188.208Z" fill="#4B4945"/>
<path d="M41.1449 162.564C40.9156 162.299 40.7285 161.641 40.7051 161.243C41.5707 160.892 42.7731 160.837 43.8352 160.636C44.495 160.696 44.7897 160.768 45.3418 160.965C45.4401 161.358 45.3512 161.957 45.3138 162.445C44.6915 163.458 44.0037 164.621 43.2738 165.579C42.5111 164.809 41.9637 163.526 41.1449 162.564Z" fill="#080A0A"/>
<path d="M40.4245 200.275C40.0595 198.628 40.5929 196.589 40.8596 194.776C41.7767 195.105 42.4738 195.524 43.3488 195.84C42.3568 197.298 41.6082 198.975 40.4245 200.275Z" fill="#333D3C"/>
<path d="M73.6396 197.824C73.3402 198.722 72.9425 199.454 72.5448 200.189C72.3998 200.121 72.2594 200.057 72.1143 199.988C71.9833 198.483 71.857 196.978 71.7213 195.434C72.8255 195.434 73.766 195.434 74.4912 195.434C74.159 196.217 73.8502 196.939 73.6396 197.824Z" fill="#4B4945"/>
<path d="M87.2456 163.59C86.993 164.754 86.6654 165.737 86.2443 167.003C85.215 165.947 84.4009 165.104 83.3434 164.257C84.4617 163.971 85.8139 163.693 87.2456 163.59Z" fill="#708EC9"/>
<path d="M50.7037 203.875C53.3051 203.824 52.5378 205.072 51.995 205.898C51.719 206.312 50.7645 206.586 50.1516 206.817C50.3106 205.898 50.3247 204.811 50.7037 203.875Z" fill="#4B4945"/>
<path d="M82.8334 204.23C83.6476 204.033 84.8641 203.939 85.7156 203.935C85.4302 204.653 85.0933 205.68 84.8126 206.398C84.2652 205.808 83.4136 205.004 82.8334 204.23Z" fill="#4B4945"/>
<path d="M20.0993 74.7173C19.3226 73.6654 18.5646 72.3997 17.5914 71.1639C17.5166 70.5952 17.6616 69.9965 17.802 69.3979C18.064 69.3765 18.326 69.3594 18.588 69.338C19.1027 71.0655 19.6127 72.7845 20.0993 74.7173Z" fill="#1A1513"/>
<path d="M43.1335 165.878C42.9978 167.255 42.4691 169.29 42.048 170.898C41.7672 170.278 41.6035 168.974 41.3508 168.012C41.2573 167.631 41.1871 167.255 41.1871 166.909C41.669 166.447 42.4831 166.259 43.1335 165.878Z" fill="#080A0A"/>
<path d="M73.3495 86.8398C72.8348 86.3994 72.264 85.7965 71.6978 84.9883C72.2406 85.4159 72.7646 86.0445 73.3495 86.8398Z" fill="#D9A78C"/>
<path d="M5.0474 94.5966C5.01465 93.9167 5.15501 93.1641 5.43574 92.2747C5.45913 92.929 5.34217 93.7243 5.0474 94.5966Z" fill="#080A0A"/>
<path d="M18.9577 67.2299C18.8876 67.4352 18.794 67.5378 18.7004 67.6361C18.6583 67.4907 18.6115 67.3454 18.5694 67.1957C18.691 67.1743 18.8127 67.1487 18.9577 67.2299Z" fill="#1A1513"/>
<path d="M35.1185 82.427C35.301 82.4398 35.2355 82.6152 35.2214 82.7049C34.8097 82.8247 34.4073 82.8503 33.8084 82.8332C34.0564 82.6665 34.5009 82.5382 35.1185 82.427Z" fill="#1A1513"/>
<path d="M31.1883 82.6836C31.2444 82.8289 31.1555 82.8674 30.7999 82.8974C30.4396 82.9016 30.3461 82.9187 30.2572 82.9358C30.2572 82.9358 30.0981 82.7391 30.0279 82.6322C30.318 82.5467 30.6783 82.5638 31.1883 82.6836Z" fill="#1A1513"/>
<path d="M26.7947 81.4135C26.542 81.4563 26.1911 81.3408 25.7326 81.0842C25.9806 81.05 26.3409 81.1569 26.7947 81.4135Z" fill="#1A1513"/>
<path d="M122.74 36.3869C122.828 36.3313 122.922 36.3569 123.016 36.3869C122.922 36.4168 122.828 36.4424 122.74 36.3869Z" fill="#282729"/>
<path d="M13.4603 37.4259C13.3948 37.6525 13.3059 37.8621 13.2217 38.0716C13.2123 37.8877 13.1983 37.7039 13.2965 37.4516C13.4042 37.3832 13.4416 37.4088 13.4603 37.4259Z" fill="#2A2A2B"/>
<path d="M17.0256 93.5575C17.1098 93.6174 17.1192 93.72 17.1332 93.8226C17.0724 93.7499 17.0116 93.673 17.0256 93.5575Z" fill="#1C1C1C"/>
<path d="M73.897 87.4C73.7894 87.4257 73.6397 87.3145 73.4244 87.0879C73.5227 87.0665 73.6865 87.1691 73.897 87.4Z" fill="#D9A78C"/>
<path d="M74.5099 87.9772C74.4023 87.9986 74.2339 87.8789 73.9859 87.6352C74.0888 87.6138 74.2666 87.7249 74.5099 87.9772Z" fill="#D9A78C"/>
<path d="M29.6396 82.3885C29.5788 82.4911 29.4758 82.5039 29.2466 82.4441C29.2793 82.35 29.4384 82.3244 29.6396 82.3885Z" fill="#1A1513"/>
<path d="M27.6325 81.7813C27.4968 81.8711 27.3845 81.8583 27.1552 81.7386C27.2394 81.6488 27.4453 81.6616 27.6325 81.7813Z" fill="#1A1513"/>
<path d="M41.8654 78.1723C41.9309 78.3006 41.8981 78.3946 41.7297 78.5742C41.6501 78.4844 41.7063 78.3091 41.8654 78.1723Z" fill="#1A1513"/>
<path d="M28.465 170.287C28.3574 170.355 28.1983 170.274 27.9784 170.051C28.0626 170.026 28.2264 170.103 28.465 170.287Z" fill="#080A0A"/>
<path d="M44.7197 68.1492C44.8461 68.1877 44.8788 68.269 44.8741 68.4828C44.7618 68.4742 44.6964 68.3374 44.7197 68.1492Z" fill="#1A1513"/>
<path d="M45.9313 90.3718C48.9772 90.4745 51.8968 90.7438 54.8211 90.9277C56.7488 91.0474 58.6858 91.0389 61.0533 91.0859C61.7271 91.056 61.9657 91.0261 62.2043 90.9961C63.8653 91.4622 65.531 91.9283 67.3183 92.5056C68.3383 95.1824 67.1545 96.6961 64.6888 97.9447C59.4999 100.574 50.9891 100.125 46.4787 96.7688C43.8211 94.7932 43.6152 92.8733 45.9313 90.3718ZM54.6152 92.8477C52.5097 92.6082 50.4136 92.3131 48.2988 92.1635C47.7747 92.1293 46.9091 92.4628 46.7407 92.8305C46.5535 93.2453 46.7875 94.1861 47.1665 94.387C48.8509 95.2978 50.6522 96.029 52.6922 97.1579C56.089 98.2697 59.3689 97.9404 62.7283 96.8158C60.8708 93.7542 58.5314 92.2533 54.6152 92.8477Z" fill="#7A1A25"/>
<path d="M59.2754 85.3518C59.004 85.9333 58.6531 86.3738 58.1057 86.6645C56.964 85.6468 56.0376 84.0904 55.0831 84.0775C53.8854 84.0604 52.6642 85.3048 51.4523 86.0017C51.1435 85.8735 50.8301 85.7452 50.4277 85.557C51.4898 81.9694 54.5497 81.204 58.4847 83.6072C58.8356 84.2101 59.0181 84.7104 59.2754 85.3518Z" fill="#1A1513"/>
<path d="M30.1683 82.9914C30.3461 82.9144 30.4397 82.8973 30.6596 82.9401C30.5473 83.017 30.3134 83.0341 30.1683 82.9914Z" fill="#E5A98C"/>
<path d="M55.4576 88.764C57.2589 88.9522 59.0931 89.337 60.9786 89.91L55.4576 88.764Z" fill="#EBB496"/>
<path d="M62.0312 90.9235C61.8815 91.0432 61.6428 91.0732 61.2217 91.0646C61.3434 90.962 61.6428 90.8978 62.0312 90.9235Z" fill="#E6B195"/>
<path d="M51.6723 86.0316C52.6642 85.3004 53.8854 84.0561 55.0832 84.0775C56.0377 84.0903 56.9641 85.6468 57.956 86.7072C55.9722 86.6217 53.9322 86.3438 51.6723 86.0316Z" fill="#D7957B"/>
<path d="M54.868 92.7878C58.4567 91.9241 60.9693 93.7799 62.8268 96.85C59.4674 97.9746 55.6214 98.4194 52.1871 96.9698C52.9263 95.5074 54.096 93.9124 54.868 92.7878Z" fill="#C34B95"/>
<path d="M54.8681 92.822C54.2598 94.0792 53.0995 95.6784 52.2199 96.9698C50.3577 96.3455 48.7668 95.3235 47.0825 94.4127C46.7035 94.2075 46.4695 93.271 46.6567 92.8562C46.8251 92.4885 47.6907 92.1507 48.2148 92.1892C50.3296 92.3303 52.6035 92.4457 54.8681 92.822Z" fill="#93344E"/>
<path d="M31.2024 82.196C38.5541 82.196 44.5138 75.5625 44.5138 67.3796C44.5138 59.1966 38.5541 52.5631 31.2024 52.5631C23.8507 52.5631 17.8911 59.1966 17.8911 67.3796C17.8911 75.5625 23.8507 82.196 31.2024 82.196Z" stroke="#0B0A0B" stroke-width="3" stroke-miterlimit="10"/>
<path d="M93.23 80.0837C91.4473 80.0495 89.0143 80.8448 87.1896 80.8363C85.6175 80.8277 84.0641 80.8277 82.5248 80.8363C82.4499 81.0757 82.3704 81.3152 82.2955 81.5546C82.9926 82.1533 83.643 83.1966 84.401 83.2693C86.8153 83.5088 89.267 83.3848 91.8029 83.3805C92.0649 83.2693 93.4546 83.141 93.4546 82.9657C93.4592 83.7482 93.4405 83.5173 93.4405 84.8985C93.0756 85.1166 90.7361 84.8728 90.6613 85.014C90.6613 85.014 90.7127 84.9584 90.7408 84.984C86.9042 85.138 83.119 84.9755 80.4146 81.9267C78.3419 79.5877 77.2283 77.0007 78.1407 74.4179C79.8017 74.1528 81.3176 74.2426 82.2721 73.6183C82.7821 73.2848 82.3236 71.7155 82.2393 70.3044C82.1645 69.5903 82.1504 69.2739 82.1411 68.9574C82.1411 68.9574 82.1926 69.0002 82.3797 69.0216C84.5788 68.1749 89.2576 66.0155 91.4567 65.1689C91.5971 65.2244 92.3457 67.7858 92.341 68.0509C92.3223 68.6966 92.5796 69.2696 92.8416 72.4424C93.0288 74.7215 93.1224 75.8889 93.1785 77.3898C93.2159 78.4802 93.2253 79.4038 93.23 80.0837Z" fill="#AB5C34"/>
<path d="M5.04749 94.5966C5.04749 94.5966 2.59577 101.404 6.17509 110.238C9.74974 119.073 14.9292 131.272 14.9292 131.272" fill="#0B0A0B"/>
<path d="M14.4474 130.135L18.0641 138.892C18.0641 138.892 19.2713 145.434 14.4474 146.435C9.62348 147.436 9.58138 144.819 9.58138 144.819C9.58138 144.819 7.66772 143.318 6.26874 146.089C4.86976 148.859 10.5218 161.953 15.4814 164.946C20.441 167.939 23.0191 168.675 23.0191 168.675V166.96C23.0191 166.96 17.9144 164.6 14.9293 161.444C11.9442 158.288 9.50183 155.44 8.40698 152.439C7.31213 149.437 7.98588 146.82 8.32276 146.743C8.65964 146.666 10.344 148.282 12.5337 147.82C14.7234 147.359 16.492 149.283 18.5975 146.512C20.703 143.741 19.6924 137.584 19.6924 137.276C19.6924 136.968 16.0709 128.732 16.0709 128.732L14.1339 127.578L14.4474 130.135Z" fill="#0B0A0B"/>
<path d="M92.8182 92.7622C92.8182 92.7622 85.5145 93.2924 81.7995 91.7359C78.0892 90.1794 73.6817 90.0982 71.1224 83.6285C68.563 77.1632 72.2593 71.3392 72.2593 71.3392C72.2593 71.3392 81.6966 62.2826 90.9046 60.9484C100.113 59.6143 77.8178 67.5164 77.8178 67.5164L74.2478 70.1847L73.3495 71.4376L72.2125 73.3147L71.8476 75.8804L71.2019 78.0868L72.2172 79.5235V81.1655L72.8863 82.551L74.5099 87.5668L75.6375 88.3493L77.8225 89.3371L82.1083 90.3719L87.4843 91.4793L93.1364 91.6333L92.8182 92.7622Z" fill="#0B0A0B"/>
<path d="M2.39459 55.9241C1.91735 55.3126 4.94926 53.5765 7.05474 49.9162C8.70638 47.047 8.54262 45.157 9.16023 41.5266C10.2598 35.0912 12.5992 30.3619 14.4661 26.5947C16.113 23.268 17.8535 19.7531 21.2036 16.05C22.2002 14.9511 26.3363 10.5168 34.6787 6.50589C36.0122 5.86448 39.147 4.38497 43.6902 3.02946C57.577 -1.11402 70.5796 0.0105812 75.3567 0.579294C88.916 2.19564 98.3205 6.771 100.791 7.96829C104.936 9.97375 110.088 12.5223 115.192 17.5894C115.192 17.5894 119.113 21.3951 121.56 25.5898C122.758 27.6423 123.614 29.7504 123.614 29.7504C123.652 29.836 123.937 30.5543 124.223 31.3753C125.308 34.5353 125.837 37.9305 125.973 38.8327C126.782 44.165 127.189 46.8289 126.983 49.4544C126.81 51.6865 126.352 54.0255 125.935 56.155C125.144 60.1873 124.429 62.3809 125.72 63.5397C126.436 64.1811 127.058 63.762 128.583 64.4633C131.143 65.6392 132.476 67.619 132.879 68.2348C134.937 71.3862 134.418 74.6959 134.142 76.4704C133.566 80.1564 131.728 82.521 129.678 85.1679C128.911 86.1599 123.376 89.9956 122.295 89.5808C121.939 89.4439 124.181 87.7934 124.204 87.4256C124.255 86.5491 126.146 86.7372 127.91 85.1679C128.733 84.4367 129.309 83.7397 129.594 83.3976C129.87 83.0641 130.319 82.5168 130.773 81.7813C131.316 80.9047 131.335 80.6182 132.289 78.3947C133.024 76.6842 133.075 76.7013 133.131 76.3165C133.272 75.3715 132.981 75.162 132.71 73.2378C132.467 71.5102 132.668 71.4546 132.373 70.5438C132.144 69.8426 131.83 69.3081 131.194 68.2348C130.544 67.1358 130.216 66.5842 129.936 66.3576C128.962 65.5751 128.246 65.9941 126.225 65.156C125.322 64.7797 124.854 64.5873 124.457 64.1554C123.479 63.095 123.778 61.5043 124.035 60.23C124.873 56.0951 125.28 54.3462 125.467 53.3798C126.052 50.3866 125.912 48.0262 125.72 44.7593C125.626 43.1815 125.514 41.3984 125.046 39.0636C124.648 37.0796 123.933 34.9929 122.52 30.905C121.542 28.07 121.041 26.6375 120.667 25.902C118.8 22.2374 116.39 19.984 115.698 19.3597C114.781 18.5344 113.967 17.9357 112.75 17.0506C110.879 15.6865 109.451 14.8228 108.455 14.2028C104.436 11.7098 103.837 11.0043 101.633 9.6616C98.1942 7.56634 95.3588 6.6641 90.0108 4.96651C84.7892 3.30741 80.4613 2.43082 78.7254 2.11867C73.5366 1.18649 59.0743 -1.41334 42.848 4.19682C38.3329 5.75758 30.8608 8.42583 24.0671 14.9724C21.3767 17.5637 16.5154 22.246 14.2976 29.5195C12.7863 34.4712 10.4001 47.5088 8.6549 51.9174C8.53793 52.2167 8.13088 53.2131 7.13896 54.1495C5.44054 55.753 2.80165 56.4415 2.39459 55.9241Z" fill="#0B0A0B"/>
</svg>
