<svg width="125" height="207" viewBox="0 0 125 207" fill="none" xmlns="http://www.w3.org/2000/svg">
<path d="M13.707 93.9982L23.7959 104.814L43.0337 112.549L65.2374 114.758L86.5149 112.233L94.4272 108.573L102.075 98.3453L114.281 62.6599C114.532 59.5506 114.518 55.4036 113.514 50.6397C112.688 46.7178 111.42 43.4418 110.211 40.9202C108.637 39.0697 107.067 37.2192 105.493 35.3645C104.292 34.3558 103.097 33.343 101.897 32.3344C99.8755 36.0063 97.8495 39.6824 95.828 43.3543C89.7136 46.1968 83.5991 49.0434 77.4846 51.8859C69.7503 52.0943 62.0159 52.2985 54.2816 52.5069C47.6013 50.0187 40.921 47.5305 34.2361 45.0423C30.9371 42.1414 27.6334 39.2406 24.3343 36.3356C23.7183 35.0769 23.1069 33.8223 22.4909 32.5636C20.6657 33.9682 18.48 35.9688 16.5133 38.6946C12.4567 44.3171 11.5761 49.9187 11.3571 52.9279C11.4939 56.7915 11.6308 60.651 11.7677 64.5146C12.4157 74.3466 13.0636 84.1745 13.707 93.9982Z" fill="#678B44"/>
<path d="M90.9044 109.182C91.1189 110.219 90.4801 110.674 89.531 111.057C83.7131 113.404 77.6032 114.687 71.3062 115.296C70.9731 115.329 70.64 115.354 70.243 115.388C70.0057 116.467 70.0924 117.034 71.5754 117.272C75.7141 117.93 79.7022 119.018 82.6727 122.281C86.1178 125.803 89.5447 129.129 92.7251 132.643C94.8971 135.043 95.0887 134.485 92.7479 137.257C92.4787 137.577 92.246 138.186 92.3966 138.494C94.0849 141.97 95.8462 145.417 97.603 148.964C97.9042 149.523 98.1962 149.989 98.4928 150.552C99.1088 152.548 99.6928 154.453 100.332 156.345C100.491 156.816 100.824 157.233 101.13 157.758C103.827 160.213 101.281 162.043 100.323 163.977C99.9347 164.756 99.1088 165.365 98.4289 165.998C98.2601 166.157 97.8585 166.082 97.603 166.19C97.2334 166.348 96.8227 166.515 96.558 166.786C94.7328 168.657 92.8027 168.582 90.9044 166.686C90.4755 166.257 89.5583 165.923 88.9469 166.007C86.1498 166.398 84.215 165.069 84.4569 162.426C84.612 160.726 84.0827 159.321 83.3298 157.792C82.9283 156.666 82.5267 155.641 82.1252 154.62C82.0111 154.653 81.897 154.687 81.7784 154.72C82.1753 155.966 82.5769 157.208 82.9921 158.563C83.1062 159.096 83.1427 159.546 83.3024 159.951C83.8089 161.218 83.5945 162.189 81.9883 162.714C81.5091 162.801 81.1304 162.881 80.6194 162.943C79.5927 163.081 78.6983 163.231 77.6716 163.389C72.2781 164.056 67.0124 164.714 61.6143 165.365C60.0127 165.36 58.5434 165.373 56.9463 165.365C52.4198 165.16 48.094 164.602 43.8732 163.431C43.3895 163.297 42.8511 163.327 42.2305 163.243C41.6692 163.127 41.2129 163.047 40.7658 162.889C39.9535 161.91 40.2045 160.947 40.5285 159.959C40.7475 159.296 40.857 158.609 41.1125 157.871C41.3453 157.046 41.4867 156.279 41.6966 155.466C41.7924 155.258 41.8198 155.095 41.8472 154.932C41.7924 154.928 41.7331 154.92 41.6784 154.916C41.6647 155.116 41.651 155.32 41.5597 155.583C41.2586 156.42 41.0395 157.196 40.784 158.063C40.3368 159.346 39.8075 160.513 39.5337 161.73C39.2873 162.814 39.3193 163.952 39.1504 165.119C38.3519 166.344 37.2431 166.982 35.8194 166.611C34.665 166.307 34.1174 166.736 33.3326 167.39C32.5386 168.053 31.1377 168.945 30.4213 168.699C28.3908 168.007 26.4241 166.965 24.7404 165.719C23.7137 164.96 23.2117 163.585 22.5501 162.451C21.6603 160.926 21.998 159.926 23.9236 158.088C24.6217 155.77 25.2651 153.545 25.8766 151.306C25.9906 150.885 25.945 150.431 25.977 149.989C26.0591 149.856 26.1367 149.723 26.2188 149.51C28.1353 148.172 28.3132 146.042 29.2441 144.3C30.2799 142.366 31.0647 140.312 31.8541 138.278C32.0138 137.865 31.8587 137.181 31.5667 136.819C29.0114 133.68 29.2395 134.793 31.6397 131.847C32.7348 130.505 33.9668 129.254 35.2673 127.854C37.7496 125.503 40.0539 123.223 42.4541 121.031C44.4801 119.176 46.8848 117.868 49.7184 117.292C50.6037 117.113 51.5026 116.98 52.3513 116.834C52.6616 115.571 52.1642 115.221 50.8546 114.996C46.862 114.3 42.9104 113.395 38.9497 112.533C37.7861 112.278 36.6545 111.903 35.4133 111.549C33.6748 110.786 32.0321 110.061 30.3985 109.328C25.6347 107.194 21.3272 104.459 17.4623 101.138C15.9063 99.1663 14.145 97.3032 12.8491 95.2026C11.0923 92.356 10.239 89.2717 11.6262 86.2542C9.41311 85.0788 7.11791 84.1703 5.22881 82.799C-0.529748 78.6103 -1.98993 69.2951 3.17087 64.1686C5.10104 62.2472 7.49207 61.4053 10.4991 61.422C10.6451 59.9215 10.782 58.4795 10.9189 57.0415C11.0512 55.6745 11.0923 54.2866 11.3661 52.9445C11.4619 52.4694 12.1281 52.0901 12.735 51.7067C13.1685 52.311 13.602 52.8695 13.6065 53.4363C13.6157 55.241 13.4651 57.0499 13.3145 58.9463C11.7357 65.1897 12.3882 71.2498 14.1769 77.3349C14.2499 77.535 14.3093 77.66 14.3777 77.8934C14.5328 78.4519 14.6789 78.9062 14.8203 79.4731C15.4774 82.0196 14.9891 84.3662 13.9944 86.6168C13.0544 88.7466 13.2826 90.7972 14.1632 92.8353C15.2629 95.386 16.9558 97.5783 19.2145 99.5247C19.9172 100.142 20.5561 100.675 21.2405 101.296C24.7814 104.172 28.7376 106.31 32.9265 108.111C41.8837 111.957 51.3885 113.491 61.2082 113.57C70.7541 113.645 80.1037 112.629 88.9378 108.994C89.4488 108.765 90.2382 109.102 90.9044 109.182ZM79.5379 147.109C79.4968 147.039 79.4603 146.968 79.4193 146.901C79.4512 147.022 79.4877 147.143 79.5288 147.422C79.5562 147.559 79.5881 147.701 79.6155 147.839C79.6748 147.822 79.7387 147.805 79.798 147.789C79.7204 147.601 79.6383 147.418 79.5379 147.109ZM42.3491 153.553C42.3583 153.411 42.3674 153.274 42.3811 153.132C42.3446 153.132 42.3081 153.132 42.2716 153.132C42.2579 153.303 42.2396 153.474 42.0936 153.736C42.0525 153.882 42.0115 154.024 41.975 154.17C42.0343 154.178 42.0936 154.191 42.1529 154.199C42.1712 154.016 42.194 153.828 42.3491 153.553ZM6.62053 70.5746C7.77498 70.3204 8.92943 70.0662 10.2208 69.7827C10.1432 69.1492 10.0656 68.5074 10.0428 67.6238C10.0565 66.2901 10.0702 64.9563 10.1067 63.4934C10.0565 63.3976 9.97436 63.3684 9.62757 63.3684C7.27761 63.4476 5.42501 64.4104 4.12455 66.1567C1.58293 69.566 1.61943 73.2004 3.20737 77.1099C4.98696 80.7943 8.08527 82.9699 12.3837 83.9702C13.4423 80.7193 11.9639 77.9935 11.0421 75.1885C10.5721 76.268 10.5356 77.3183 11.2338 78.3061C11.6673 78.9187 11.9867 79.6481 11.0923 79.9607C10.7227 80.0899 9.77816 79.5481 9.50894 79.1021C8.25411 77.0223 8.391 74.9551 9.96525 73.0087C10.1751 72.7503 10.3303 72.4502 10.7318 71.825C9.56369 71.9625 8.77884 72.0042 8.01225 72.1584C6.44713 72.471 5.98171 72.0417 6.38326 70.5913C6.38782 70.5955 6.39238 70.5955 6.62053 70.5746ZM89.061 140.507C89.061 140.507 89.0473 140.499 88.8511 140.549C85.9033 142.396 82.5495 143.171 79.0268 143.525C81.5091 149.102 83.9458 154.549 86.3414 160.013C86.5239 160.43 86.5285 160.984 86.4099 161.426C86.1315 162.435 85.99 163.502 87.003 164.081C87.5415 164.389 88.5088 164.064 89.2846 164.027C89.8367 163.998 90.4345 164.177 90.9866 164.435C91.4155 164.635 91.9129 164.869 92.1547 165.215C92.6567 165.931 93.1586 166.632 94.1944 166.344C95.1983 166.065 95.3625 165.256 95.2576 164.389C95.2393 164.223 95.253 164.052 95.253 163.852C97.6349 164.919 98.3833 164.702 98.4882 162.776C98.2555 162.339 98.0228 161.897 97.7399 161.368C98.8989 161.701 100.012 161.734 100.35 160.588C100.71 159.371 99.6153 158.809 98.8943 158.479C98.4198 156.512 98.2783 154.649 97.5208 153.024C95.5177 148.722 93.2498 144.525 91.0231 140.082C90.9181 139.853 90.8132 139.628 90.6352 139.249C90.042 139.728 89.5583 140.12 89.061 140.507ZM54.7195 117.376C54.6283 118.534 54.4321 119.626 55.331 120.727C56.9646 122.727 58.3791 124.878 60.1313 127.304C62.5999 125.015 64.7582 122.948 66.9987 120.956C68.8513 119.31 68.3037 117.472 67.8018 115.534C67.1812 115.563 66.6564 115.588 65.94 115.567C65.8123 115.588 65.6845 115.609 65.3149 115.604C64.9088 115.621 64.5073 115.638 63.8365 115.6C60.7564 115.6 57.6764 115.6 54.464 115.6C54.5598 116.142 54.6602 116.651 54.7195 117.376ZM73.1679 119.276C70.8042 118.83 70.8134 118.839 69.4581 120.61C67.1858 123.578 64.343 126.024 61.2356 128.246C60.1678 129.008 59.3875 129.029 58.6209 127.941C56.6223 125.12 54.5461 122.348 52.6068 119.493C52.1277 118.789 51.6805 118.551 50.8774 118.747C50.3664 118.872 49.8645 119.026 49.1572 119.18C48.8743 119.314 48.5914 119.451 48.1077 119.597C47.5054 119.881 46.8437 120.093 46.3099 120.456C40.7886 124.186 36.4491 128.962 32.2238 133.839C32.0367 134.056 32.0321 134.635 32.2192 134.852C34.2452 137.227 36.6043 139.228 40.0129 140.249C41.6921 140.62 43.3576 141.062 45.055 141.337C46.4102 141.558 47.227 140.445 46.684 139.274C46.141 138.103 45.5843 136.94 45.0322 135.544C44.9044 134.981 44.6443 134.41 44.6808 133.856C44.7128 133.372 45.0824 132.909 45.3014 132.438C45.6801 132.784 46.2323 133.072 46.4148 133.493C47.1996 135.289 47.9024 137.119 48.5731 138.957C48.742 139.415 48.8378 139.991 48.6872 140.437C46.903 145.809 45.0413 151.156 43.2617 156.529C42.7644 158.033 42.4541 159.588 42.0343 161.197C43.0564 161.484 43.9234 161.751 44.804 161.972C50.9368 163.489 57.1516 164.193 63.7589 163.552C69.8004 163.152 75.7369 162.172 81.5137 160.901C81.5913 160.672 81.6278 160.626 81.6187 160.592C79.9121 155.149 78.2055 149.706 76.4761 144.271C76.4122 144.067 76.0928 143.771 75.9149 143.779C74.3954 143.871 74.2676 142.833 73.9801 141.891C73.7611 141.174 73.4736 140.474 73.209 139.553C72.4743 137.119 71.7077 134.689 71.037 132.238C70.9411 131.897 71.3381 131.438 71.507 131.038C71.9176 131.251 72.3876 131.409 72.7162 131.701C72.9261 131.888 72.9306 132.276 73.0265 132.572C73.9162 135.427 74.7741 138.286 75.7278 141.124C75.8464 141.483 76.4533 141.958 76.8366 141.958C82.8096 141.929 87.9704 140.232 91.7851 135.789C92.3418 135.139 92.3966 134.706 91.7851 134.097C87.9567 130.279 84.2743 126.333 80.2771 122.669C78.8808 121.389 76.7362 120.798 74.7787 119.751C74.3178 119.614 73.8569 119.476 73.1679 119.276ZM31.9865 166.269C32.3789 164.731 34.2589 165.173 34.8566 164.469C35.6917 164.635 36.5221 165.031 36.837 164.81C37.3663 164.439 37.6766 163.706 37.8682 163.068C37.9777 162.706 37.6492 162.243 37.5534 161.814C37.4941 161.539 37.3891 161.213 37.4849 160.976C38.7352 157.858 39.9992 154.749 41.2996 151.648C42.4906 148.806 43.7317 145.98 44.9957 143.046C40.7429 142.546 37.0058 141.224 33.798 138.89C31.448 143.829 29.1072 148.593 26.9397 153.424C26.31 154.828 26.1047 156.416 25.872 157.938C25.7488 158.742 25.7716 159.4 24.8727 159.942C24.4301 160.209 24.097 161.184 24.2886 161.626C24.4666 162.026 25.4203 162.151 26.0454 162.364C26.2188 162.422 26.4469 162.347 26.31 162.355C26.31 163.256 26.0089 164.598 26.3739 164.773C27.1542 165.144 28.2813 164.91 29.0387 164.923C29.3217 165.49 29.5589 166.294 30.1019 166.857C30.2936 167.04 31.2518 166.594 31.9865 166.269ZM80.1448 149.523C80.1859 149.589 80.2315 149.652 80.2726 149.718C80.3136 149.652 80.4003 149.568 80.3775 149.523C80.3547 149.464 80.2406 149.439 80.1448 149.523ZM78.7348 145.434C78.785 145.417 78.8306 145.405 78.8808 145.388C78.8306 145.376 78.785 145.363 78.7348 145.434ZM78.2968 143.838C78.2648 143.796 78.2283 143.754 78.1964 143.713C78.2009 143.771 78.2101 143.829 78.2968 143.838ZM80.049 148.535C79.9988 148.551 79.9531 148.564 79.903 148.581C79.9531 148.597 80.0033 148.61 80.049 148.535ZM78.5888 144.638C78.5569 144.596 78.5203 144.554 78.4884 144.513C78.493 144.571 78.5021 144.629 78.5888 144.638ZM79.0314 146.138C79.0634 146.18 79.0999 146.222 79.1318 146.263C79.1227 146.205 79.1181 146.147 79.0314 146.138Z" fill="#0B0F0D"/>
<path d="M102.28 157.575C102.221 157.592 102.134 157.546 102.015 157.433C102.079 157.412 102.161 157.458 102.28 157.575Z" fill="#4A9695"/>
<path d="M66.9028 5.70166C68.5227 7.22293 70.1973 8.69836 71.7396 10.2822C72.3328 10.8907 72.8302 10.7906 73.5101 10.6114C78.2282 9.35688 82.9601 9.10264 87.6509 10.6781C93.7061 12.712 97.498 16.8882 99.8662 22.1314C100.957 24.5446 101.317 27.2371 102.043 29.792C102.152 30.1838 102.358 30.5964 102.654 30.8881C103.348 31.5633 104.128 32.1718 104.954 32.8512C105.041 32.8971 105.05 32.8846 105.063 32.9304C105.082 32.9762 105.178 33.0096 105.209 33.0971C106.031 33.989 106.816 34.8059 107.614 35.6062C108.294 36.2855 108.376 36.9732 107.596 37.6943C106.93 37.4359 106.259 37.2775 105.83 36.894C104.511 35.7062 103.288 34.435 101.86 33.0304C100.637 38.5195 97.5847 42.5499 92.9806 45.509C90.302 47.2304 87.3041 48.5391 84.3427 50.0395C82.8597 50.5063 81.4863 50.969 80.0033 51.4316C76.3346 52.0568 72.8028 52.9195 69.2117 53.2655C59.2141 54.2241 49.4765 53.1696 40.2911 49.2268C37.6354 48.0848 35.1805 46.5552 32.6298 45.2131C32.6252 45.2256 32.6526 45.2215 32.6252 45.1589C32.5066 45.0548 32.4199 45.0172 32.2876 44.8964C28.3177 41.7413 24.8179 38.3611 23.0155 33.5472C22.5044 34.1349 22.1439 34.5267 21.8063 34.9393C18.5072 38.953 16.1709 43.3959 14.7564 48.239C14.5054 49.0934 14.154 49.7394 13.0178 49.6186C12.8171 49.1101 12.3881 48.5724 12.4703 48.1056C12.6528 47.0303 13.0863 45.9884 13.5061 44.7755C13.8574 43.9544 14.0628 43.2667 14.3959 42.6374C15.4773 40.5701 16.6044 38.5279 17.7999 36.4314C19.1779 34.7934 20.4875 33.2055 21.7469 31.5883C21.9933 31.2758 22.2032 30.8006 22.1394 30.4463C21.3408 26.0326 21.5097 21.6563 22.6915 17.255C22.7919 17.1216 22.8056 17.0383 22.8375 16.8924C22.9105 16.7299 22.9196 16.6257 22.979 16.4298C25.2787 10.3072 29.5224 5.82669 35.792 3.07173C40.2774 1.10032 45.0641 0.033343 50.2021 0C51.9588 0.233401 53.5833 0.4543 55.2168 0.616847C55.7461 0.67103 56.2891 0.571 56.8276 0.541825C56.8276 0.541825 56.9417 0.537657 57.0375 0.637686C57.3432 0.912766 57.5212 1.19201 57.7676 1.2587C61.1533 2.15479 64.0737 3.84278 66.9028 5.70166ZM91.201 14.3667C91.201 14.3667 91.2192 14.3625 91.1553 14.2458C91.0732 14.1958 90.9956 14.1499 90.804 13.9457C88.4494 12.712 86.0447 11.62 82.9921 11.5117C81.468 11.5033 79.9439 11.495 78.1826 11.4492C77.2654 11.6492 76.3437 11.8451 75.2121 12.0327C74.5185 12.191 73.8249 12.3494 72.9077 12.512C72.3875 12.6078 71.8719 12.7079 71.2377 12.6578C70.2247 11.4825 69.3303 10.1946 68.1804 9.14432C60.3183 1.9339 50.9915 0.10003 40.4737 3.12174C35.1988 4.63885 30.5947 7.19376 27.615 11.57C22.363 19.2764 22.258 27.3746 25.9632 35.8312C26.7663 36.6898 27.5739 37.5484 28.4409 38.5945C29.7094 40.8369 31.7126 42.4081 34.0626 43.8127C34.131 43.8044 34.204 43.7961 34.2725 43.7877C34.2132 43.7377 34.1539 43.6877 34.0626 43.4501C33.6474 42.6499 33.2093 41.8622 32.826 41.0494C29.9467 34.9268 29.9376 28.9667 33.9074 23.1692C37.0696 18.5512 42.4175 17.0591 47.2543 19.6682C49.8461 21.0686 51.5345 23.2067 52.4151 26.0742C52.4608 27.1662 52.511 28.2624 52.4243 29.5002C52.333 29.6503 52.2874 29.8587 52.1505 29.9462C51.6942 30.2338 51.2105 30.4797 50.7359 30.7381C50.6218 30.2588 50.4576 29.7836 50.4211 29.296C50.3983 29.0084 50.631 28.7083 50.6721 28.4083C51.0645 25.5449 48.856 22.2315 45.6345 20.8102C42.7095 19.5223 39.488 20.0517 37.1244 22.3232C34.2314 25.1073 32.7667 28.4958 32.6526 32.301C32.5294 36.3647 34.0398 40.045 36.3122 43.4751C37.0605 44.6046 37.713 46.0259 38.8446 46.6594C42.1163 48.4849 45.6938 49.7603 49.6682 50.473C50.7861 50.6856 51.8995 50.9023 53.2456 51.1732C59.7069 52.2235 66.1909 52.2693 72.6385 51.2149C75.2759 50.7856 77.8267 49.9145 80.6512 49.2726C81.5592 49.0309 82.4673 48.7892 83.5807 48.4932C86.0493 47.2929 88.6594 46.2801 90.9409 44.838C92.8026 43.6585 94.281 41.9664 96.1154 40.4534C97.0006 39.2114 97.8858 37.9652 98.8806 36.5564C99.3323 34.6267 100.085 32.7137 100.181 30.7714C100.409 26.2701 98.4744 22.3065 95.7549 18.6679C94.9974 17.6551 93.9023 16.8549 92.9577 15.9671C92.9577 15.9671 92.9714 15.963 93.0125 15.7754C92.5106 15.392 92.0086 15.0044 91.4976 14.6334C91.4976 14.6334 91.5158 14.6334 91.4747 14.4917C91.3789 14.4417 91.2877 14.3958 91.201 14.3667Z" fill="#0A0E0C"/>
<path d="M93.0581 108.548C92.3737 107.66 92.6338 107.077 93.5373 106.535C98.333 103.647 101.276 99.5456 102.841 94.5441C104.667 88.7091 106.505 82.874 108.426 77.064C109.362 74.2257 110.598 71.4666 111.511 68.6241C113.692 61.8263 114.409 54.9451 112.141 48.0514C111.365 45.6924 110.06 43.4834 109.079 41.1744C108.851 40.6409 108.969 39.9824 109.084 39.2864C110.206 38.9405 110.626 39.4906 111.046 40.1491C115.618 47.3387 116.581 55.0993 115.198 63.1516C114.637 66.4109 113.587 69.6035 112.729 72.9337C113.432 72.9337 114.244 72.8795 115.047 72.942C118.798 73.2337 121.427 74.9176 123.046 78.0726C126.273 84.3578 121.125 93.5855 113.418 95.6319C110.703 96.353 107.975 96.3863 105.21 96.1196C104.917 96.4321 104.484 96.7072 104.356 97.0698C102.718 101.646 99.597 105.201 95.3488 107.956C94.751 108.344 93.8886 108.39 93.0581 108.548ZM118.625 90.0053C118.625 90.0053 118.629 90.0303 118.812 89.9553C120.984 87.4712 122.097 84.6704 121.828 81.4695C121.472 77.2766 118.483 74.7717 113.884 74.8009C111.47 74.8134 111.329 74.9217 110.763 77.2891C110.64 77.8309 110.516 78.3727 110.393 78.8979C112.045 79.1271 113.583 79.3397 115.308 79.6398C116.284 80.1149 117.306 80.5275 118.232 81.0777C119.195 81.6487 119.369 82.3697 118.096 83.0491C117.584 82.8157 117.06 82.6073 116.562 82.3489C114.454 81.2611 112.232 80.7526 109.43 81.0985C110.188 81.732 110.69 82.1197 111.146 82.5364C113.679 84.858 113.523 88.6424 110.735 90.618C110.334 90.9014 109.554 90.7472 108.951 90.7972C109.061 90.3012 109.111 89.7844 109.303 89.3176C109.412 89.0508 109.773 88.8799 109.982 88.6382C111.42 86.9586 111 84.6829 108.924 83.5534C107.82 87.0711 106.724 90.5554 105.629 94.0398C110.352 95.0818 115.805 93.4688 118.634 90.1428C118.634 90.1387 118.652 90.0094 118.625 90.0053Z" fill="#0A0F0C"/>
<path d="M63.5033 163.506C57.1515 164.202 50.9412 163.493 44.8085 161.976C43.9278 161.759 43.0608 161.489 42.0387 161.201C42.454 159.592 42.7642 158.038 43.2662 156.533C45.0503 151.161 46.9075 145.813 48.6916 140.441C48.8377 139.995 48.7418 139.42 48.5776 138.961C47.9068 137.123 47.2041 135.298 46.4192 133.497C46.2367 133.076 45.6891 132.789 45.3059 132.443C45.0868 132.914 44.7172 133.376 44.6853 133.86C44.6488 134.414 44.9043 134.985 44.9226 135.664C43.1658 137.227 41.5231 138.669 39.8758 140.112C36.6087 139.228 34.2496 137.227 32.2236 134.852C32.0365 134.635 32.0411 134.051 32.2282 133.839C36.449 128.962 40.7884 124.186 46.3143 120.456C46.8527 120.093 47.5098 119.881 48.2125 119.689C49.1844 121.102 49.9875 122.465 50.9458 123.732C52.6752 126.012 54.5004 128.229 56.2526 130.571C55.3993 132.388 55.486 132.639 57.4755 134.56C57.3249 139.02 57.1424 143.362 57.115 147.701C57.0922 151.344 56.5857 150.631 60.8476 150.81C62.1891 150.865 62.4081 150.327 62.4127 149.231C62.4355 143.871 62.545 138.507 62.6682 133.147C62.6774 132.672 62.8827 132.072 63.2386 131.747C65.7346 129.454 68.3948 127.304 70.7996 124.936C72.3556 123.402 73.5693 121.585 74.9382 119.893C76.7406 120.798 78.8898 121.389 80.2861 122.669C84.2833 126.333 87.9657 130.279 91.7941 134.097C92.4055 134.706 92.3508 135.139 91.7941 135.789C87.9794 140.232 82.814 141.933 76.8456 141.958C76.4669 141.958 75.86 141.487 75.7368 141.124C74.7831 138.29 73.9252 135.427 73.0354 132.572C72.9442 132.272 72.9396 131.888 72.7252 131.701C72.3966 131.409 71.9266 131.251 71.516 131.038C71.3471 131.442 70.9501 131.897 71.046 132.238C71.7122 134.689 72.4833 137.115 73.1221 139.724C72.5746 143.604 72.2004 147.322 71.6574 151.019C71.1281 154.62 69.7364 157.942 67.0077 160.663C65.949 161.714 64.676 162.568 63.5033 163.506Z" fill="#F1E8DC"/>
<path d="M33.7295 198.649C34.1082 198.099 34.4596 197.537 34.8703 197.007C35.2262 196.553 35.6551 196.144 36.084 195.682C32.6161 193.848 31.6624 191.314 33.045 188.146C33.2413 187.696 33.4055 187.213 33.7021 186.817C36.3076 183.378 36.7137 179.335 37.5533 175.401C38.2195 172.271 38.9952 169.162 39.8759 165.911C40.0676 165.519 40.1041 165.26 40.1497 164.906C40.2729 164.46 40.387 164.106 40.5741 163.702C40.6744 163.485 40.7064 163.322 40.7338 163.106C40.7292 163.056 40.7794 162.964 40.7794 162.964C41.2311 163.043 41.6874 163.122 42.2396 163.343C42.089 164.294 41.8335 165.102 41.514 165.961C41.4045 166.323 41.3543 166.632 41.3087 167.048C40.3231 171.704 39.3375 176.259 38.288 180.894C37.6948 182.415 37.1609 183.853 36.5495 185.35C35.7281 186.992 34.7516 188.521 34.3455 190.172C34.1402 191.01 34.8338 192.131 35.4041 192.969C35.5638 193.206 36.7639 193.002 37.4073 192.789C39.9763 191.935 42.5955 191.351 45.3424 191.481C47.3137 191.572 49.2803 191.776 51.3474 191.989C54.2358 192.731 57.0284 193.419 59.8894 194.119C60.9024 192.118 61.053 190.155 60.3913 188.042C59.6932 185.808 58.5205 183.657 58.881 181.207C59.2643 178.581 59.5426 175.939 59.8894 173.304C60.1039 171.692 60.3594 170.083 60.6971 168.449C61.199 168.395 61.6005 168.366 62.0568 168.428C62.1892 169.003 62.2759 169.478 62.3489 169.953C63.0653 174.805 63.7817 179.652 64.4798 184.612C64.6395 185.637 64.8175 186.554 64.9818 187.588C64.7034 189.001 64.4296 190.297 64.1924 191.597C63.9414 192.977 63.9368 194.319 65.0958 195.532C67.2131 194.615 69.303 193.706 71.5115 192.81C74.1489 192.452 76.6814 191.751 79.1911 191.802C82.1525 191.856 85.1048 192.531 88.0479 192.994C88.8419 193.119 89.5583 193.248 89.6861 192.293C89.937 190.405 89.9644 188.567 88.1666 187.158C87.5095 186.642 86.8479 186.087 86.3642 185.441C85.9946 184.95 85.5748 184.183 85.7482 183.716C86.4737 181.749 85.6386 180.469 83.9047 179.46C82.8689 178.856 82.4993 178.023 82.4308 176.901C82.2848 174.613 81.9791 172.329 81.7007 170.049C81.4133 167.686 81.0802 165.327 80.7653 162.964C81.144 162.889 81.5273 162.81 82.0065 162.722C82.2665 163.297 82.4308 163.885 82.5495 164.669C82.5768 165.031 82.6544 165.198 82.7274 165.365C82.7685 165.531 82.805 165.694 82.8141 166.052C82.8643 166.573 82.9465 166.903 83.0286 167.232C83.1655 168.266 83.3024 169.295 83.4073 170.533C83.4484 170.9 83.5259 171.062 83.6035 171.225C83.8134 173.071 83.964 174.926 84.2652 176.755C84.3519 177.297 84.7352 177.943 85.2052 178.26C87.222 179.619 88.3536 181.228 87.6099 183.607C87.5277 183.878 87.7468 184.262 87.9156 184.549C88.0479 184.774 88.3035 184.945 88.5225 185.112C91.6253 187.479 92.2414 190.534 91.1325 193.873C90.6215 195.415 90.6078 196.89 90.6899 198.641C90.7082 199.154 90.7675 199.445 90.7949 199.837C90.6124 200.733 90.4572 201.533 90.2199 202.375C90.0374 202.571 89.9416 202.726 89.7454 202.876C85.4014 204.968 80.852 205.889 75.9376 205.789C74.9657 205.693 74.0941 205.689 73.2409 205.581C69.344 205.072 65.4198 204.58 63.7908 200.417C63.6676 199.437 63.5398 198.562 63.4303 197.687C63.3756 197.266 63.3573 196.84 63.3162 196.324C62.933 195.448 62.5588 194.669 62.034 193.585C61.5777 194.765 61.2401 195.648 60.8659 196.628C60.6286 198.062 60.4279 199.391 60.1586 200.808C59.7206 202.763 58.5707 203.993 56.5219 204.418C54.2404 204.889 51.9452 205.301 49.5541 205.726C48.6917 205.864 47.9297 206.018 47.0718 206.156C46.8528 206.131 46.7296 206.122 46.5471 206.01C45.744 205.914 44.9911 205.918 44.1104 205.91C42.9925 205.797 41.9977 205.739 41.0212 205.593C38.5983 205.226 36.2483 204.68 34.5052 202.784C34.2177 201.696 33.9668 200.712 33.7386 199.62C33.7523 199.22 33.7386 198.933 33.7295 198.649ZM80.1128 193.314C77.6259 193.339 75.1071 193.139 72.8028 194.286C73.5055 194.269 74.1763 194.052 74.8653 194.01C76.6084 193.906 78.3606 193.885 79.9668 193.944C80.1493 194.148 80.3592 194.336 80.5143 194.552C80.779 194.919 81.0163 195.307 81.2672 195.686C80.8338 195.811 80.4003 195.957 79.9577 196.049C79.693 196.103 79.2686 195.965 79.1546 196.09C78.2283 197.145 77.3567 198.241 76.289 199.545C78.6754 199.233 80.8429 198.862 83.0331 198.695C84.2013 198.603 84.6758 198.112 85.1048 197.203C85.5839 196.194 86.3322 195.298 87.0897 194.165C84.9314 193.894 82.6544 193.602 80.1128 193.314ZM51.5208 194.136C51.2105 194.286 50.9048 194.436 50.5032 194.632C50.7816 194.811 51.0508 194.894 51.1466 195.061C51.3885 195.482 51.5482 195.94 51.7398 196.386C51.2698 196.465 50.7998 196.561 50.3298 196.624C50.0652 196.657 49.6499 196.54 49.5404 196.665C48.5548 197.77 47.6194 198.916 46.8619 199.816C48.6963 199.679 51.1421 199.516 53.5833 199.3C53.9346 199.27 54.3681 199.083 54.5735 198.837C55.55 197.662 56.4626 196.436 57.5668 195.015C55.5728 194.669 53.6152 194.323 51.5208 194.136ZM44.6808 198.378C45.7485 197.62 46.8117 196.857 47.8795 196.099C47.811 195.903 47.738 195.711 47.6696 195.515C46.1592 195.515 44.6306 195.398 43.1522 195.582C42.6502 195.644 42.2761 196.482 41.8106 196.941C41.5186 197.228 41.1809 197.486 40.8296 197.712C40.3322 198.037 39.8029 198.324 39.1504 198.704C41.8426 200.121 43.2982 199.983 44.6808 198.378ZM72.8849 195.236C72.1412 195.357 71.5754 195.573 71.3472 196.382C71.2103 196.878 70.6536 197.278 70.2658 197.707C69.9509 198.053 69.6087 198.383 69.2801 198.716C69.3212 198.849 69.3623 198.987 69.4033 199.12C70.7129 199.233 72.0271 199.366 73.3412 199.437C73.5375 199.45 73.7839 199.195 73.9573 199.02C74.6143 198.353 75.2623 197.678 75.8829 196.982C76.3072 196.507 76.6768 195.986 77.2928 195.203C75.5361 195.207 74.336 195.207 72.8849 195.236ZM62.8736 185.787C62.3626 183.053 61.8515 180.315 61.3496 177.618C59.7525 181.74 61.2766 185.591 62.6181 189.459C62.7778 189.451 62.933 189.442 63.0927 189.434C63.0288 188.296 62.9649 187.158 62.8736 185.787ZM70.8088 202.425C71.1373 202.792 71.4111 203.409 71.7989 203.476C72.9488 203.672 74.1443 203.651 75.4722 203.722C75.1984 202.709 76.0334 201.617 74.5459 201.317C73.7063 201.146 72.8165 201.179 71.9586 201.067C70.932 200.933 70.6399 201.354 70.8088 202.425ZM44.4846 203.18C44.4846 202.676 44.4846 202.171 44.4846 201.696C43.029 201.5 41.7605 201.333 40.0813 201.108C40.2638 202.079 40.1314 203.105 40.6288 203.597C41.3178 204.28 43.8229 203.955 44.4846 203.18ZM77.4434 201.067C76.4167 201.738 76.8639 202.671 77.1879 203.38C77.3111 203.651 78.8397 203.772 78.9401 203.592C79.3462 202.867 79.4466 202 79.6976 201.05C78.753 201.05 78.2283 201.05 77.4434 201.067ZM39.0044 194.798C39.593 194.523 40.1816 194.244 40.7657 193.969C40.6927 193.81 40.6197 193.652 40.5512 193.494C39.6478 193.773 38.2606 193.827 37.9412 194.386C37.3389 195.448 37.3526 196.799 37.1107 198.028C37.2065 198.087 37.2978 198.145 37.3936 198.203C38.1511 197.603 38.9131 196.999 39.3192 196.678C39.123 195.928 38.9907 195.444 39.0044 194.798ZM48.1168 201.563C47.5509 201.563 46.9897 201.563 46.3782 201.563C46.2368 202.496 46.1181 203.255 46.0041 204.009C48.2902 204.405 49.075 203.542 48.1168 201.563ZM81.9471 203.372C82.9328 203.03 83.5533 201.508 82.8232 200.892C82.5358 200.646 81.7007 200.938 81.1167 200.983C81.3174 201.784 81.5137 202.588 81.9471 203.372ZM50.8181 201.325C50.5261 202.138 50.234 202.946 49.869 203.955C50.6356 203.918 51.2607 204.005 51.3337 203.863C51.6805 203.159 51.8995 202.396 52.0866 201.638C52.0957 201.592 51.4113 201.408 50.8181 201.325ZM47.9616 193.406C46.1455 193.248 44.3294 193.089 42.5134 192.931C42.4677 193.085 42.4266 193.239 42.381 193.389C42.7004 193.548 43.0107 193.823 43.3393 193.844C44.8724 193.935 46.4102 193.96 47.9434 193.981C47.9981 193.981 48.0574 193.698 47.9616 193.406ZM86.2318 201.842C86.2318 201.534 86.3368 201.183 86.209 200.929C86.0311 200.583 85.6797 200.312 85.4059 200.008C85.1048 200.362 84.6165 200.692 84.5526 201.079C84.4705 201.55 84.7443 202.075 84.9222 202.809C85.4607 202.492 85.8303 202.275 86.2318 201.842ZM53.6198 202.701C53.816 202.938 54.0396 203.384 54.1947 203.367C54.5141 203.33 54.9659 203.088 55.0571 202.842C55.2716 202.25 55.3035 201.609 55.4176 200.933C53.6974 200.617 53.5605 201.458 53.6198 202.701ZM67.8337 202.234C68.2124 202.563 68.5911 202.892 68.9699 203.226C68.9105 200.617 68.9105 200.617 67.6055 200.354C67.674 200.946 67.7287 201.483 67.8337 202.234ZM38.4386 202.696C38.0781 201.954 39.5656 200.771 37.5898 200.271C37.4712 201.013 37.2841 201.688 37.2887 202.359C37.2932 202.976 37.6218 203.392 38.4386 202.696ZM66.5834 197.27C66.4693 197.995 66.7294 198.424 67.4823 197.878C68.0344 197.478 68.3675 196.828 68.8284 196.253C67.5462 195.953 66.9484 196.207 66.5834 197.27ZM87.6555 196.628C87.473 196.974 87.295 197.324 87.0441 197.795C89.029 197.537 89.0883 197.449 88.1939 195.482C88.0479 195.803 87.9019 196.128 87.6555 196.628ZM89.0244 199.825C88.6411 199.754 88.2533 199.683 87.87 199.612C87.8426 200.175 87.8106 200.742 87.7833 201.304C87.9886 201.342 88.1985 201.383 88.4038 201.421C88.5909 200.954 88.7826 200.492 89.0244 199.825ZM58.2102 200.521C56.28 200.241 57.4071 201.675 56.9006 202.196C57.0694 202.28 57.2337 202.363 57.4026 202.446C57.69 201.871 57.9775 201.292 58.2102 200.521ZM58.7669 198.149C58.7669 197.799 58.7669 197.453 58.7669 197.103C58.6483 197.074 58.5342 197.045 58.4155 197.016C57.9684 197.47 57.5212 197.924 57.074 198.378C57.1425 198.483 57.2109 198.587 57.2793 198.691C57.7402 198.57 58.1965 198.449 58.7669 198.149ZM71.8993 194.59C71.9495 194.556 71.9952 194.527 72.0453 194.494C71.9769 194.498 71.913 194.506 71.8993 194.59Z" fill="#070909"/>
<path d="M41.5688 165.911C41.8243 165.102 42.0798 164.298 42.3399 163.381C42.8601 163.318 43.3985 163.289 43.8777 163.422C48.0985 164.594 52.4242 165.152 56.9553 165.481C56.6952 169.474 56.5264 173.359 55.842 177.168C55.1803 180.84 54.0487 184.445 52.9946 188.046C52.6022 189.384 51.831 190.634 51.2333 191.922C49.2666 191.768 47.3 191.564 45.3287 191.472C42.5818 191.347 39.9626 191.927 37.3936 192.781C36.7548 192.994 35.5547 193.198 35.3904 192.96C34.82 192.127 34.1265 191.005 34.3318 190.164C34.7379 188.513 35.719 186.979 36.6498 185.345C40.7337 184.495 44.6306 183.699 48.7784 182.849C48.1897 182.528 47.7928 182.307 47.3866 182.095C44.553 180.598 41.4364 180.765 38.3381 180.802C39.3238 176.251 40.3094 171.696 41.3634 166.973C41.4821 166.511 41.5277 166.211 41.5688 165.911Z" fill="#5C7991"/>
<path d="M64.4799 184.499C63.7635 179.648 63.0471 174.801 62.3307 169.949C62.2577 169.47 62.171 168.995 62.0569 168.303C61.9292 167.269 61.8333 166.453 61.7421 165.569C61.7512 165.456 61.7512 165.415 61.7558 165.369C67.0215 164.706 72.2873 164.048 77.6671 163.506C78.1234 165.261 78.5751 166.89 78.7759 168.541C79.1957 171.942 79.6885 175.355 79.7478 178.769C79.7843 181.003 78.8991 183.145 77.2153 184.954C75.3764 186.929 73.6699 189.005 71.9815 191.089C71.6119 191.543 71.5709 192.218 71.3792 192.793C69.2848 193.702 67.1949 194.607 65.0777 195.528C63.9186 194.311 63.9232 192.969 64.1742 191.593C64.4115 190.289 64.6852 188.992 65.0685 187.584C67.82 186.325 70.4483 185.179 73.0812 184.033C73.063 183.92 73.0447 183.808 73.0265 183.695C72.5382 183.62 72.0317 183.424 71.5663 183.482C69.2026 183.787 66.8435 184.153 64.4799 184.499Z" fill="#5C7991"/>
<path d="M31.9224 166.357C31.2562 166.598 30.298 167.04 30.1155 166.853C29.577 166.29 29.3398 165.486 29.0523 164.919C28.2948 164.906 27.1678 165.14 26.3875 164.769C26.0224 164.594 26.3236 163.252 26.3236 162.351C26.4559 162.343 26.2323 162.414 26.0589 162.36C25.4338 162.151 24.4756 162.022 24.3022 161.622C24.106 161.18 24.4391 160.205 24.8862 159.938C25.7851 159.396 25.7623 158.738 25.8855 157.933C26.1183 156.408 26.319 154.824 26.9533 153.42C29.1162 148.589 31.4616 143.829 33.8115 138.886C37.0194 141.22 40.7565 142.541 45.0092 143.042C43.7453 145.976 42.5087 148.802 41.3132 151.644C40.0127 154.745 38.7488 157.854 37.4985 160.972C37.4027 161.213 37.503 161.534 37.5669 161.809C37.6627 162.235 37.9913 162.697 37.8818 163.064C37.6901 163.698 37.3798 164.435 36.8505 164.806C36.5357 165.027 35.7052 164.631 34.8702 164.464C34.2542 165.177 32.3742 164.731 31.9224 166.357Z" fill="#9CC97C"/>
<path d="M98.4653 162.964C98.3877 164.698 97.6348 164.915 95.2529 163.848C95.2529 164.048 95.2347 164.219 95.2575 164.385C95.3624 165.252 95.1982 166.061 94.1943 166.34C93.1585 166.628 92.6565 165.927 92.1546 165.21C91.9128 164.865 91.4154 164.631 90.9865 164.431C90.4343 164.169 89.832 163.993 89.2845 164.023C88.5087 164.06 87.5414 164.385 87.0029 164.077C85.9899 163.497 86.136 162.43 86.4097 161.422C86.5329 160.98 86.5238 160.426 86.3413 160.009C83.9457 154.545 81.509 149.093 79.0267 143.521C82.5494 143.171 85.9032 142.396 88.9742 140.62C88.3353 141.516 87.5733 142.333 86.8022 143.162C87.9429 142.825 89.1567 142.471 90.553 142.058C90.48 143.571 88.1939 144.95 90.7218 146.013C90.8952 145.742 91.064 145.484 91.2283 145.226C91.388 145.255 91.5477 145.284 91.7074 145.313C91.6481 146.147 91.7302 147.014 91.4884 147.797C91.1827 148.772 91.0732 149.556 92.0223 150.302C92.4329 150.623 92.9714 151.281 92.8573 151.615C92.4603 152.74 93.3501 153.282 93.8019 154.066C94.3266 154.974 94.6232 155.999 94.9928 156.979C95.4765 158.271 94.6734 159.767 95.8096 160.988C96.0514 161.247 95.8461 161.847 95.8689 162.289C95.8917 162.71 95.9419 163.131 96.0058 163.81C96.9732 163.485 97.7169 163.227 98.4653 162.964Z" fill="#9BC97B"/>
<path d="M71.4932 192.806C71.5662 192.222 71.6072 191.547 71.9768 191.093C73.6652 189.009 75.3763 186.933 77.2107 184.958C78.8944 183.149 79.7842 181.011 79.7431 178.773C79.6838 175.359 79.191 171.946 78.7712 168.545C78.5659 166.894 78.1187 165.269 77.7902 163.506C78.6982 163.231 79.5926 163.081 80.6192 162.943C81.0619 165.319 81.395 167.678 81.6824 170.041C81.9608 172.321 82.2665 174.605 82.4125 176.893C82.4855 178.014 82.8506 178.852 83.8864 179.452C85.6203 180.457 86.4554 181.74 85.7298 183.707C85.5564 184.174 85.9762 184.941 86.3459 185.433C86.8295 186.079 87.4866 186.638 88.1483 187.15C89.9461 188.555 89.9187 190.397 89.6677 192.285C89.54 193.239 88.8236 193.11 88.0296 192.985C85.0819 192.527 82.1342 191.847 79.1728 191.793C76.6631 191.747 74.1352 192.448 71.4932 192.806Z" fill="#3D566E"/>
<path d="M63.6311 163.531C64.6715 162.564 65.9491 161.714 66.9941 160.667C69.7228 157.946 71.1099 154.624 71.6438 151.023C72.1914 147.326 72.5655 143.608 73.1131 139.832C73.469 140.474 73.7565 141.178 73.9755 141.895C74.2676 142.837 74.3908 143.875 75.9102 143.783C76.0928 143.771 76.4076 144.071 76.4715 144.275C78.2009 149.71 79.9075 155.153 81.614 160.597C81.6232 160.63 81.5867 160.68 81.5091 160.905C75.7414 162.176 69.8049 163.156 63.6311 163.531Z" fill="#E5D4BE"/>
<path d="M61.6188 165.361C61.7511 165.419 61.7511 165.465 61.6279 165.573C60.624 165.623 60.154 165.848 60.4597 166.803C60.6286 167.324 60.5464 167.911 60.5784 168.47C60.3411 170.079 60.0856 171.687 59.8711 173.3C59.5243 175.934 59.2505 178.573 58.8627 181.203C58.5022 183.653 59.6749 185.808 60.373 188.038C61.0347 190.151 60.8841 192.114 59.8711 194.115C57.0101 193.415 54.2175 192.731 51.3291 191.985C51.831 190.635 52.5976 189.388 52.99 188.046C54.0487 184.445 55.1803 180.84 55.8374 177.168C56.5218 173.359 56.6907 169.474 57.0831 165.498C58.5524 165.365 60.0171 165.356 61.6188 165.361Z" fill="#3D566F"/>
<path d="M49.3579 119.172C49.8644 119.03 50.3663 118.876 50.8774 118.751C51.6759 118.555 52.1277 118.793 52.6068 119.497C54.5415 122.352 56.6223 125.124 58.6209 127.945C59.3875 129.029 60.1723 129.008 61.2355 128.25C64.3429 126.028 67.1903 123.582 69.4581 120.614C70.8133 118.843 70.8042 118.834 73.2956 119.41C73.1724 119.997 73.0264 120.547 72.6568 120.91C69.3531 124.136 66.086 127.395 62.6318 130.484C61.6142 131.392 61.2127 132.272 61.2081 133.46C61.1807 138.244 61.1397 143.029 61.1123 147.814C61.1032 149.785 60.8111 149.981 58.3608 149.323C58.5479 144.354 58.735 139.315 59.0179 134.256C60.332 133.714 61.0621 132.876 60.8248 131.626C60.5876 130.367 59.5061 129.896 58.2421 129.721C57.868 129.671 57.4847 129.65 57.0923 129.525C54.505 126.012 51.9315 122.594 49.3579 119.172Z" fill="#E8E2DA"/>
<path d="M64.0966 115.65C64.5027 115.634 64.9043 115.617 65.4747 115.663C65.8032 115.684 65.9629 115.646 66.1226 115.609C66.6519 115.584 67.1767 115.559 67.7973 115.534C68.3038 117.476 68.8467 119.31 66.9942 120.956C64.7537 122.948 62.5954 125.015 60.1268 127.304C58.3746 124.878 56.96 122.727 55.3265 120.727C54.4275 119.626 54.6283 118.534 54.8473 117.28C56.9965 117.026 59.0317 116.951 61.0348 116.667C62.0889 116.517 63.0791 116 64.0966 115.65Z" fill="#9CC97C"/>
<path d="M98.479 162.872C97.7215 163.227 96.9732 163.485 96.0104 163.823C95.9465 163.139 95.8963 162.722 95.8735 162.301C95.8507 161.86 96.056 161.263 95.8142 161.001C94.678 159.78 95.4811 158.279 94.9974 156.991C94.6278 156.008 94.3312 154.987 93.8065 154.078C93.3502 153.295 92.4649 152.753 92.8619 151.627C92.976 151.298 92.4421 150.64 92.0269 150.314C91.0778 149.568 91.1873 148.785 91.493 147.81C91.7394 147.026 91.6527 146.155 91.712 145.326C91.5523 145.296 91.3926 145.267 91.2329 145.238C91.0686 145.496 90.8998 145.755 90.7264 146.026C88.1985 144.963 90.4891 143.583 90.5576 142.07C89.1659 142.479 87.9521 142.837 86.8068 143.175C87.5779 142.345 88.3399 141.524 89.0746 140.607C89.0472 140.507 89.0609 140.516 89.1978 140.545C89.9188 140.482 90.5028 140.391 91.0914 140.299C93.2543 144.538 95.5222 148.735 97.5253 153.036C98.2828 154.662 98.4243 156.525 98.8988 158.492C99.6243 158.821 100.715 159.384 100.354 160.601C100.017 161.747 98.9034 161.714 97.7444 161.38C98.0227 161.897 98.2554 162.339 98.479 162.872Z" fill="#95C674"/>
<path d="M58.922 134.272C58.7349 139.307 58.5479 144.346 58.3608 149.314C60.8111 149.973 61.1032 149.777 61.1123 147.805C61.1351 143.021 61.1807 138.236 61.2081 133.451C61.2127 132.263 61.6142 131.388 62.6318 130.475C66.0814 127.387 69.3531 124.128 72.6568 120.902C73.0264 120.543 73.1724 119.993 73.4097 119.435C73.8568 119.476 74.3177 119.614 74.8562 119.822C73.5648 121.585 72.3465 123.407 70.7905 124.936C68.3858 127.304 65.7255 129.454 63.2295 131.747C62.8736 132.072 62.6728 132.672 62.6591 133.147C62.5359 138.507 62.4264 143.867 62.4036 149.231C62.3991 150.327 62.18 150.865 60.8385 150.81C56.5766 150.631 57.0831 151.348 57.1059 147.701C57.1333 143.362 57.3158 139.024 57.5668 134.564C58.1144 134.389 58.5205 134.331 58.922 134.272Z" fill="#7696B2"/>
<path d="M6.40139 70.5997C5.98615 72.0459 6.45159 72.4794 8.01671 72.1668C8.77874 72.0126 9.56814 71.9709 10.7363 71.8334C10.3347 72.4585 10.1796 72.7586 9.96969 73.017C8.39544 74.9593 8.25855 77.0265 9.51339 79.1105C9.78261 79.5564 10.7272 80.0983 11.0968 79.9691C11.9866 79.6523 11.6717 78.9271 11.2382 78.3144C10.5401 77.3225 10.5766 76.2722 11.0466 75.1968C11.9683 78.0018 13.4467 80.7276 12.3881 83.9786C8.08973 82.9783 4.99141 80.8026 3.28027 76.9557C3.58143 75.7595 3.7229 74.7009 4.07425 73.7006C4.49861 72.4752 4.77695 71.0956 6.40139 70.5997Z" fill="#79A33F"/>
<path d="M6.39242 70.5955C4.77254 71.0956 4.49876 72.4752 4.06983 73.6964C3.71848 74.6967 3.57702 75.7553 3.26673 76.8598C1.61948 73.2004 1.58297 69.5702 4.12459 66.1609C5.42505 64.4145 7.27764 63.4517 9.76906 63.4392C9.95159 63.5643 10.0063 63.606 10.0839 63.6268C10.0702 64.9605 10.0565 66.2942 9.91052 67.753C8.04423 68.0531 6.60232 69.2159 6.39242 70.5955Z" fill="#89C060"/>
<path d="M39.9443 140.182C41.5186 138.669 43.1613 137.227 44.918 135.781C45.5843 136.944 46.1409 138.107 46.6839 139.278C47.2315 140.449 46.4102 141.558 45.0549 141.341C43.3575 141.066 41.692 140.624 39.9443 140.182Z" fill="#E5D4BE"/>
<path d="M49.2576 119.176C51.9316 122.59 54.5006 126.012 57.0604 129.6C56.7866 130.004 56.5311 130.238 56.2756 130.475C54.4914 128.233 52.6662 126.012 50.9368 123.732C49.974 122.465 49.1709 121.102 48.304 119.685C48.596 119.455 48.8789 119.322 49.2576 119.176Z" fill="#7696B2"/>
<path d="M63.9643 115.625C63.0791 116.004 62.0889 116.521 61.0348 116.667C59.0362 116.951 57.0011 117.021 54.8701 117.172C54.6602 116.651 54.5644 116.142 54.4595 115.6C57.6673 115.596 60.7473 115.596 63.9643 115.625Z" fill="#89C060"/>
<path d="M6.50647 70.5871C6.60229 69.2159 8.04422 68.0531 9.87856 67.8697C10.0611 68.5074 10.1387 69.1492 10.2162 69.7827C8.92488 70.0662 7.77043 70.3204 6.50647 70.5871Z" fill="#79A33F"/>
<path d="M91.055 140.187C90.5029 140.382 89.9142 140.474 89.2024 140.541C89.5583 140.124 90.042 139.732 90.6352 139.253C90.8086 139.628 90.9181 139.857 91.055 140.187Z" fill="#9BC97B"/>
<path d="M80.1538 149.46C80.2405 149.439 80.35 149.464 80.3774 149.518C80.3957 149.564 80.309 149.648 80.2725 149.714C80.2268 149.652 80.1857 149.585 80.1538 149.46Z" fill="#10100C"/>
<path d="M79.5561 147.234C79.6383 147.418 79.7204 147.601 79.798 147.785C79.7387 147.801 79.6748 147.818 79.6155 147.835C79.5881 147.697 79.5561 147.555 79.5333 147.334C79.5425 147.247 79.5561 147.234 79.5561 147.234Z" fill="#10100C"/>
<path d="M66.0268 115.588C65.9629 115.65 65.8032 115.688 65.5933 115.679C65.68 115.609 65.8077 115.588 66.0268 115.588Z" fill="#89C060"/>
<path d="M78.7347 145.392C78.7851 145.363 78.831 145.376 78.8814 145.392C78.831 145.405 78.7851 145.422 78.7347 145.392Z" fill="#10100C"/>
<path d="M78.256 143.863C78.2101 143.83 78.201 143.771 78.1964 143.713C78.2285 143.754 78.2651 143.796 78.256 143.863Z" fill="#10100C"/>
<path d="M80.0496 148.581C79.9992 148.61 79.9534 148.597 79.903 148.581C79.9534 148.568 80.0037 148.551 80.0496 148.581Z" fill="#10100C"/>
<path d="M78.548 144.663C78.5021 144.63 78.493 144.571 78.4884 144.513C78.5205 144.555 78.5525 144.596 78.548 144.663Z" fill="#10100C"/>
<path d="M79.0725 146.113C79.1183 146.147 79.1275 146.205 79.132 146.264C79.1 146.222 79.0633 146.18 79.0725 146.113Z" fill="#10100C"/>
<path d="M79.5334 147.255C79.4923 147.143 79.4558 147.022 79.4238 146.901C79.4649 146.972 79.5014 147.043 79.5516 147.172C79.5562 147.234 79.5425 147.247 79.5334 147.255Z" fill="#10100C"/>
<path d="M10.0937 63.5607C10.0067 63.6026 9.94713 63.5649 9.88757 63.4561C9.97462 63.3724 10.0525 63.4017 10.0937 63.5607Z" fill="#79A33F"/>
<path d="M83.0286 167.115C82.9328 166.89 82.8506 166.561 82.7731 166.123C82.8689 166.348 82.9556 166.682 83.0286 167.115Z" fill="#0B0F0D"/>
<path d="M83.6036 171.121C83.5123 171.05 83.4347 170.887 83.3708 170.629C83.4575 170.7 83.5351 170.866 83.6036 171.121Z" fill="#0B0F0D"/>
<path d="M82.7321 165.261C82.6408 165.19 82.5678 165.019 82.5039 164.756C82.5952 164.827 82.6682 164.998 82.7321 165.261Z" fill="#0B0F0D"/>
<path d="M39.9123 165.198C39.9123 165.098 40.031 165.056 40.0857 165.027C40.0994 165.256 40.0629 165.515 39.9352 165.827C39.8667 165.69 39.8895 165.494 39.9123 165.198Z" fill="#0B0F0D"/>
<path d="M25.9039 35.652C22.2489 27.3746 22.3539 19.2765 27.6059 11.57C30.5856 7.19794 35.1897 4.63887 40.4646 3.12176C50.987 0.095881 60.3093 1.93392 68.1714 9.14434C69.3213 10.1988 70.2156 11.4825 71.2879 12.8287C72.0408 14.3542 72.7937 15.6879 73.4189 17.0675C75.527 21.7272 76.3575 26.4952 74.4319 31.38C72.6934 35.7812 69.8004 39.4365 65.8762 42.4915C61.4135 45.9634 56.4672 48.4849 50.7725 49.7853C50.3299 49.8853 49.9238 50.1437 49.504 50.3271C45.671 49.7645 42.0936 48.4891 38.8265 46.6636C37.6903 46.0301 37.0423 44.6088 36.294 43.4793C34.0216 40.0491 32.5158 36.3647 32.6344 32.3052C32.7485 28.5 34.2132 25.1115 37.1062 22.3273C39.4699 20.0558 42.6914 19.5265 45.6163 20.8144C48.8378 22.2356 51.0463 25.5533 50.6539 28.4124C50.6128 28.7125 50.3846 29.0126 50.4029 29.3002C50.4394 29.7837 50.6082 30.2588 50.7178 30.7423C51.1923 30.4797 51.6805 30.238 52.1323 29.9504C52.2692 29.8629 52.3194 29.6586 52.5612 29.3961C56.2345 25.6325 55.0937 19.7057 50.9824 16.7716C43.9097 11.7159 35.1578 14.225 30.5947 20.2476C27.4234 24.4363 26.0226 29.1752 26.1503 34.285C26.1686 34.7351 25.9952 35.1936 25.9039 35.652Z" fill="#6A9558"/>
<path d="M73.1269 12.5036C73.8204 12.3452 74.514 12.1869 75.3399 12.1202C75.673 12.3202 75.8601 12.4619 76.0746 12.537C79.7068 13.8207 82.6819 15.9421 84.8721 18.8305C88.2944 23.3359 88.3765 28.4874 87.5597 33.6264C86.8068 38.3486 84.9223 42.7541 81.9609 46.7386C81.3723 47.5305 80.9205 48.4057 80.4049 49.2393C77.8131 49.9103 75.2624 50.7814 72.6249 51.2107C66.1773 52.2652 59.6933 52.2193 53.1772 51.0648C56.9418 49.7936 60.5101 48.2223 63.8183 46.08C69.2255 42.579 73.574 38.3195 75.9286 32.5845C77.5849 28.5458 77.7629 24.3571 76.4259 20.235C75.5681 17.5968 74.2448 15.0794 73.1269 12.5036Z" fill="#6A9558"/>
<path d="M78.4199 11.4825C79.944 11.4908 81.468 11.4992 83.1609 11.6117C83.8271 11.9868 84.3245 12.2535 84.8173 12.5245C88.162 14.3542 91.274 16.4006 93.4643 19.4515C96.4804 23.6443 97.6805 28.2248 97.0599 33.1888C96.7542 35.6353 96.3025 38.0652 95.9192 40.4992C94.2719 41.9663 92.7981 43.6585 90.9363 44.838C88.6548 46.2801 86.0448 47.2929 83.4119 48.4557C83.4165 48.0181 83.5077 47.5721 83.7541 47.222C88.4267 40.5993 90.553 33.4347 89.4716 25.5407C88.9697 21.8772 87.6281 18.5512 84.6348 16.0046C82.7046 14.3583 80.5007 12.9788 78.4199 11.4825Z" fill="#6A9458"/>
<path d="M34.0124 43.7002C31.7035 42.4081 29.7003 40.8368 28.4409 38.3903C28.3725 35.602 27.9253 32.9721 28.2949 30.438C28.9976 25.6074 30.8867 21.152 35.3904 18.1094C40.4417 14.6959 46.5471 15.0544 50.631 18.7513C52.949 20.8519 53.6061 23.8444 52.4015 25.8575C51.5299 23.2067 49.8416 21.0644 47.2498 19.6682C42.413 17.0549 37.0651 18.547 33.9029 23.1692C29.9331 28.9667 29.9468 34.9268 32.8215 41.0494C33.2048 41.8621 33.6428 42.6499 34.0535 43.5626C34.0444 43.671 34.0124 43.7002 34.0124 43.7002Z" fill="#698F58"/>
<path d="M73.0127 12.5078C74.2401 15.0794 75.568 17.5968 76.4258 20.2392C77.7674 24.3613 77.5848 28.55 75.9285 32.5886C73.5739 38.3236 69.2253 42.5832 63.8181 46.0842C60.5099 48.2223 56.9416 49.7978 53.0585 51.0398C51.8812 50.9023 50.7633 50.6897 49.5769 50.398C49.9283 50.1396 50.3298 49.8812 50.7724 49.7811C56.4625 48.4808 61.4089 45.9592 65.8761 42.4873C69.8049 39.4323 72.6933 35.7812 74.4318 31.3758C76.3574 26.491 75.5269 21.723 73.4188 17.0633C72.7937 15.6837 72.0407 14.35 71.3426 12.8954C71.8628 12.7079 72.383 12.6078 73.0127 12.5078Z" fill="#405D35"/>
<path d="M52.4015 25.9659C53.6061 23.8444 52.949 20.8519 50.631 18.7513C46.5517 15.0543 40.4417 14.6959 35.3904 18.1094C30.8913 21.152 28.9976 25.6074 28.2949 30.438C27.9253 32.9679 28.3725 35.602 28.4136 38.2986C27.5648 37.5484 26.7617 36.6898 25.9313 35.7395C25.9952 35.1935 26.1731 34.7309 26.1594 34.2766C26.0317 29.1709 27.4279 24.4279 30.6038 20.2392C35.1669 14.2124 43.9188 11.7075 50.9915 16.7632C55.0982 19.7015 56.2435 25.6241 52.6342 29.3168C52.4973 28.2582 52.4517 27.1662 52.4015 25.9659Z" fill="#36512D"/>
<path d="M78.2968 11.4658C80.5007 12.9788 82.7046 14.3583 84.6348 16.0005C87.6282 18.547 88.9697 21.873 89.4716 25.5366C90.5531 33.4305 88.4221 40.5951 83.7542 47.2179C83.5077 47.5721 83.4119 48.0139 83.307 48.4807C82.4582 48.7892 81.5502 49.0267 80.5235 49.256C80.9205 48.4057 81.3768 47.5305 81.9654 46.7386C84.9268 42.7541 86.8114 38.3486 87.5643 33.6264C88.3811 28.4833 88.2989 23.3318 84.8767 18.8305C82.6818 15.9421 79.7067 13.8207 76.0791 12.537C75.8647 12.4619 75.6776 12.3244 75.454 12.1285C76.3392 11.8451 77.2564 11.645 78.2968 11.4658Z" fill="#405D35"/>
<path d="M96.0104 40.4742C96.3025 38.061 96.7496 35.6312 97.0554 33.1846C97.6759 28.2207 96.4759 23.6444 93.4597 19.4473C91.2694 16.4006 88.1574 14.35 84.8127 12.5203C84.3199 12.2494 83.8225 11.9826 83.2795 11.6367C86.0356 11.6159 88.4403 12.7079 90.8086 14.0582C90.9546 14.2375 91.0823 14.2958 91.2147 14.3583C91.2147 14.3583 91.1964 14.3625 91.2192 14.4208C91.3287 14.5292 91.4154 14.5792 91.5021 14.6292C91.5021 14.6292 91.4839 14.6292 91.493 14.7126C91.9858 15.1836 92.4741 15.5712 92.9577 15.9546C92.9577 15.9546 92.9441 15.9588 92.9486 16.0463C93.0171 16.2547 93.049 16.3923 93.1403 16.4881C98.0775 21.673 99.6928 27.7247 98.803 34.4433C98.7026 35.1894 98.7711 35.9563 98.7574 36.7148C97.8767 37.9652 96.9915 39.2072 96.0104 40.4742Z" fill="#36512D"/>
<path d="M98.8167 36.6356C98.7756 35.9604 98.7072 35.1936 98.8076 34.4475C99.7019 27.7247 98.0866 21.6771 93.1448 16.4923C93.0536 16.3964 93.0216 16.2589 92.9578 16.0463C93.8932 16.8507 94.9883 17.651 95.7458 18.6638C98.4654 22.3065 100.396 26.266 100.172 30.7673C100.076 32.7095 99.3232 34.6267 98.8167 36.6356Z" fill="#648059"/>
<path d="M92.9852 15.863C92.4787 15.5712 91.995 15.1836 91.5022 14.7043C91.9996 15.0002 92.5015 15.3878 92.9852 15.863Z" fill="#648059"/>
<path d="M91.1873 14.3041C91.0915 14.3041 90.9591 14.2458 90.8724 14.1416C90.9911 14.1458 91.0732 14.1958 91.1873 14.3041Z" fill="#648059"/>
<path d="M32.6299 45.1548C32.5158 45.1673 32.3743 45.1131 32.2831 45.0172C32.4245 45.0131 32.5112 45.0506 32.6299 45.1548Z" fill="#9ECA7B"/>
<path d="M34.0627 43.6543C34.1402 43.6877 34.1996 43.7377 34.2589 43.7877C34.1904 43.796 34.122 43.8044 34.0307 43.7544C34.0125 43.7002 34.0444 43.671 34.0627 43.6543Z" fill="#698F58"/>
<path d="M105.063 32.9305C105.118 32.9012 105.192 32.9137 105.224 32.9723C105.183 33.01 105.082 32.9765 105.063 32.9305Z" fill="white"/>
<path d="M22.8376 16.8799C22.7828 16.8299 22.7919 16.7257 22.8649 16.5631C22.9197 16.6132 22.9106 16.7174 22.8376 16.8799Z" fill="#92D0D2"/>
<path d="M91.4884 14.5584C91.42 14.5792 91.3378 14.5292 91.2238 14.4125C91.2876 14.3958 91.3789 14.4417 91.4884 14.5584Z" fill="#648059"/>
<path d="M33.4603 50.102C33.5972 50.0979 33.7341 50.0895 33.9942 50.1395C34.1174 50.1979 34.2269 50.2229 34.2269 50.2229L34.3273 50.1604C34.665 50.1812 34.9981 50.2021 35.5046 50.3396C36.1525 50.4855 36.6316 50.5147 37.1153 50.5397C37.7131 50.7481 38.3154 50.9606 39.0181 51.3191C39.2463 51.5108 39.3695 51.5566 39.4927 51.5983C40.1908 52.0818 40.889 52.5653 41.6236 53.2154C41.7742 53.503 41.8883 53.6197 42.0069 53.7364C42.0069 53.7364 41.9704 53.7406 41.9841 53.7948C42.0708 53.9073 42.1438 53.9698 42.2168 54.0324C42.3491 54.3574 42.4815 54.6825 42.5818 55.2202C42.4586 56.0454 42.3719 56.6664 42.2852 57.2833C42.2852 57.2833 42.2716 57.2541 42.2031 57.2833C42.0982 57.4042 42.0571 57.4959 42.016 57.5875C42.016 57.5875 42.0069 57.55 41.943 57.5625C41.797 57.7084 41.724 57.8418 41.6464 57.971C41.6464 57.971 41.6099 58.0502 41.4685 58.071C41.2357 58.171 41.1445 58.2544 41.0532 58.3336C40.8707 58.4253 40.6836 58.5128 40.2775 58.5878C38.9405 58.6253 37.8272 58.6795 36.7138 58.7379C36.2894 58.692 35.865 58.6462 35.2353 58.5503C34.2817 58.3253 33.5288 58.146 32.5797 57.921C32.8215 58.8296 32.9949 59.4631 33.2185 60.1716C33.401 60.2967 33.5242 60.3425 33.7432 60.3675C34.2132 60.6009 34.5965 60.8552 35.0026 61.1928C35.1989 61.347 35.3677 61.4178 35.6186 61.5304C36.1343 61.9763 36.5723 62.3806 37.0058 62.8766C37.1792 63.0933 37.3526 63.2225 37.5899 63.4017C37.7313 63.631 37.8135 63.806 37.9139 64.0811C38.0553 64.2478 38.1694 64.3187 38.3565 64.4395C38.7534 65.1147 39.0683 65.7399 39.374 66.4651C39.5337 66.736 39.7117 66.9111 39.9535 67.1612C40.5787 69.4952 41.1354 71.7458 41.6966 73.9965C41.692 74.805 41.6875 75.6178 41.6601 76.6556C41.6327 77.2516 41.6282 77.6184 41.6236 77.9851C41.4821 78.4853 41.2814 78.9813 41.2129 79.4897C40.9665 81.3319 40.0128 82.9157 38.9999 84.6537C37.3343 86.696 35.573 88.3673 32.8991 88.9383C30.0426 89.426 27.2911 89.2301 24.6308 87.8255C22.1759 86.3251 20.4557 84.3536 19.032 81.9196C18.6624 81.1611 18.3704 80.5609 18.0829 79.9565C18.0829 79.9565 18.1422 79.9399 18.1422 79.8148C18.0144 79.5523 17.8867 79.4147 17.7589 79.2772C17.7589 79.2772 17.7589 79.1688 17.7863 79.0063C16.787 74.6008 16.1938 70.3496 17.8045 66.04C18.1605 65.3148 18.4388 64.6438 18.8084 63.9311C20.1317 62.7224 21.3637 61.5554 22.6824 60.3717C22.8376 60.28 22.9151 60.2091 23.0247 60.1133C23.0612 60.0924 23.1387 60.1133 23.23 60.0966C23.3943 59.9966 23.4673 59.9091 23.5996 59.7632C23.8688 59.6632 24.0833 59.6215 24.3844 59.5715C24.5578 59.4923 24.6445 59.4256 24.8271 59.3256C25.1921 59.2922 25.4613 59.288 25.8629 59.3047C26.6432 59.1755 27.2911 59.0296 28.0394 58.8588C28.5688 58.5628 28.9931 58.2878 29.5042 57.971C30.6632 57.0499 29.6593 57.1166 28.9794 56.9707C28.295 56.7456 27.7155 56.5331 27.0401 56.2747C26.5063 56.0913 26.0636 55.9537 25.6073 55.7453C25.402 55.6495 25.2149 55.6245 24.9183 55.6036C24.3023 55.3994 23.8004 55.191 23.2756 54.8951C22.8695 54.6367 22.4908 54.4616 22.1121 54.2866C22.1121 54.2866 22.1075 54.2866 22.0984 54.2032C21.9158 53.9948 21.7424 53.8698 21.4915 53.7323C21.3637 53.7114 21.3135 53.7031 21.2588 53.6906C21.2725 53.5739 21.2907 53.4572 21.3728 53.2071C21.2907 52.9445 21.1401 52.8153 20.9941 52.6861C20.985 52.6361 20.9759 52.5861 21.0671 52.3944C21.1766 52.0026 21.1903 51.7567 21.204 51.5066C21.204 51.5066 21.1721 51.4274 21.277 51.3482C21.5097 51.0023 21.6375 50.7397 21.7607 50.4772C21.7607 50.4772 21.7698 50.5105 21.8383 50.4938C21.9569 50.3896 22.0071 50.3021 22.0619 50.2146C22.0619 50.2146 22.1075 50.2396 22.1851 50.2479C22.4132 50.1562 22.5684 50.052 22.7235 49.952C22.7235 49.952 22.7919 49.9395 22.938 49.9728C23.5403 49.9145 23.992 49.8186 24.4483 49.7228C25.0552 49.6644 25.6575 49.6061 26.3785 49.5227C27.0994 49.5811 27.7063 49.6686 28.514 49.8436C29.422 49.902 30.1384 49.8728 30.8503 49.8436C31.2838 49.8645 31.7172 49.8811 32.2967 50.0187C32.7622 50.1437 33.1135 50.1229 33.4603 50.102ZM30.6176 56.1371C31.4572 56.3205 32.2968 56.5247 33.1455 56.6915C35.3038 57.1124 37.4256 57.8751 39.6934 57.2583C41.432 56.7873 41.9887 55.1535 40.7475 53.9407C40.1634 53.3697 39.4014 52.9445 38.685 52.2652C38.4569 52.1651 38.2287 52.0609 37.7587 51.9609C36.367 51.7942 34.9798 51.5358 33.579 51.4816C30.3894 51.3566 27.1953 51.2774 24.0057 51.3149C23.4673 51.3191 22.9334 51.9901 22.3995 52.3485C22.8832 52.8278 23.2711 53.503 23.8688 53.7448C25.8583 54.545 27.9254 55.1869 30.0563 56.0246C30.1704 56.0663 30.2753 56.1038 30.6176 56.1371ZM25.7169 86.3417C30.5263 88.6257 35.3175 87.2962 37.7998 82.9241C38.3975 81.8696 38.8356 80.7234 39.1915 79.5773C41.0669 73.5839 38.5618 66.7735 33.3645 63.5976C29.1802 61.0427 24.1745 61.968 21.4002 65.8066C19.9674 67.7863 19.2373 69.9911 19.1278 72.321C18.8723 77.8518 20.264 82.8032 25.7169 86.3417Z" fill="#0C0D0C"/>
<path d="M24.3068 49.7353C23.9737 49.8437 23.5174 49.9395 22.9333 50.027C23.2665 49.9187 23.7273 49.8186 24.3068 49.7353Z" fill="#10100C"/>
<path d="M21.6557 50.5397C21.6192 50.7689 21.496 51.0315 21.2906 51.3399C21.3272 51.1148 21.4458 50.8439 21.6557 50.5397Z" fill="#10100C"/>
<path d="M21.131 51.6025C21.1766 51.7817 21.1629 52.0276 21.0854 52.3527C21.0215 52.4236 20.9895 52.2985 20.9622 52.2402C20.9804 52.0109 21.0306 51.8442 21.131 51.6025Z" fill="#10100C"/>
<path d="M22.6048 49.977C22.5501 50.077 22.3949 50.1812 22.1394 50.2687C22.1942 50.1604 22.3539 50.0687 22.6048 49.977Z" fill="#10100C"/>
<path d="M21.9659 50.2563C21.9979 50.3271 21.9431 50.4146 21.8062 50.5147C21.7743 50.4396 21.829 50.3563 21.9659 50.2563Z" fill="#10100C"/>
<path d="M22.7554 14.4417C22.8786 14.4292 22.979 14.475 23.084 14.5167C23.011 14.55 22.9425 14.5792 22.8056 14.6126C22.7372 14.6167 22.7372 14.5 22.7554 14.4417Z" fill="#92D0D2"/>
<path d="M83.6948 66.3859C84.4614 66.0108 84.9771 64.9605 86.2136 65.7899C86.5376 66.3484 86.7795 66.7652 87.0213 67.2862C87.2038 67.8072 87.2951 68.5199 87.5689 68.5866C90.4983 69.2909 92.7844 70.9164 94.9838 72.6919C94.9884 72.6878 94.9747 72.6919 94.9792 72.7711C95.1435 73.0129 95.3032 73.1671 95.504 73.4088C96.339 75.1802 97.3977 76.8098 97.8722 78.5686C98.9856 82.699 97.7627 86.5293 95.4857 90.1345C93.4232 92.6852 90.9546 94.8109 87.6738 96.3071C87.4913 96.4072 87.4502 96.4363 87.3088 96.4572C86.67 96.6739 86.1315 96.8948 85.5931 97.1074C85.5931 97.099 85.5748 97.099 85.4562 97.099C82.9876 97.2991 80.6376 97.6283 78.2876 97.6367C76.8731 97.6408 75.454 97.1449 74.0349 96.874C74.0349 96.874 73.9893 96.9073 73.971 96.8198C73.7839 96.6864 73.6105 96.6447 73.4417 96.5989C73.3094 96.5238 73.1816 96.4488 72.9215 96.2863C72.4287 96.0529 72.0682 95.9112 71.7077 95.7653C71.5617 95.6236 71.4111 95.4819 71.183 95.3235C71.1008 95.3027 71.1145 95.3027 71.0735 95.2235C70.7677 94.9901 70.5031 94.84 70.2521 94.5983C68.071 92.4852 66.6336 90.072 65.8351 87.2503C65.7849 86.9336 65.721 86.7043 65.6708 86.3584C65.6252 85.4581 65.5613 84.6746 65.4974 83.891C66.0222 81.8363 66.5469 79.7815 67.1675 77.585C67.2998 77.3016 67.3363 77.1641 67.3683 77.0265C67.3683 77.0265 67.3728 77.0099 67.455 76.9473C70.3388 72.2335 74.5733 69.2868 80.2817 68.3198C81.8331 68.0531 83.0286 67.728 83.6948 66.3859ZM94.7191 78.9938C93.7107 77.5517 92.9624 75.8637 91.6482 74.705C85.6022 69.3785 75.5635 70.2912 70.4346 76.493C66.3051 81.4862 66.5926 88.6466 71.078 92.6102C75.7323 96.7239 82.5267 97.2032 88.5271 93.8439C93.9571 90.7972 96.5946 84.6371 94.7191 78.9938Z" fill="#0C0C0C"/>
<path d="M89.0426 58.0544C89.1613 58.0502 89.2206 58.1085 89.3529 58.1669C90.4344 58.4836 91.3881 58.7421 92.3417 59.0005C92.4558 59.063 92.5699 59.1213 92.8026 59.238C93.0718 59.3297 93.2178 59.3631 93.414 59.4673C93.5646 59.5756 93.6696 59.6173 93.8247 59.7382C95.002 60.6926 95.4172 61.7554 94.929 63.0683C94.1532 64.3103 92.7752 64.6438 91.4382 64.6438C86.7976 64.6396 82.1525 64.5896 77.521 64.3645C75.4357 64.2645 73.4325 63.606 72.0088 62.0138C70.3205 60.1216 70.8087 57.6376 73.2819 56.7873C74.806 56.2622 76.6129 55.9746 78.21 56.1663C81.8057 56.6039 85.3557 57.4042 89.0426 58.0544ZM84.3336 58.5712C82.3897 58.2252 80.4596 57.7501 78.4975 57.5792C77.1377 57.4583 75.6729 57.5834 74.3725 57.946C73.6515 58.146 72.8119 59.0046 72.6887 59.6715C72.5792 60.2633 73.2043 61.3011 73.8203 61.6012C75.1938 62.2764 76.7544 62.9641 78.2648 63.0225C82.7958 63.1975 87.3452 63.0725 91.8854 63.06C92.0314 63.06 92.2094 63.0891 92.3143 63.0266C92.725 62.7724 93.3 62.5473 93.4505 62.1847C93.5646 61.9055 93.2224 61.3636 92.9258 61.0761C92.611 60.7718 92.1318 60.5551 91.6847 60.4342C89.321 59.8049 86.9436 59.2214 84.3336 58.5712Z" fill="#0C0E0B"/>
<path d="M118.547 90.2429C115.809 93.4646 110.357 95.0776 105.634 94.0356C106.729 90.5513 107.824 87.0669 108.928 83.5493C111.005 84.6788 111.424 86.9544 109.987 88.6341C109.782 88.8758 109.417 89.0467 109.307 89.3134C109.116 89.7802 109.065 90.2971 108.956 90.793C109.558 90.743 110.338 90.9014 110.74 90.6138C113.528 88.6382 113.683 84.8538 111.151 82.5323C110.69 82.1113 110.192 81.7279 109.435 81.0944C112.237 80.7443 114.454 81.2569 116.567 82.3447C117.064 82.599 117.589 82.8115 118.21 83.1658C118.424 85.5332 118.529 87.7838 118.634 90.0303C118.634 90.0303 118.629 90.0053 118.593 90.0178C118.525 90.047 118.47 90.072 118.474 90.0803C118.488 90.1387 118.515 90.1887 118.547 90.2429Z" fill="#79A33F"/>
<path d="M118.721 89.9928C118.525 87.7797 118.42 85.5332 118.315 83.1742C119.373 82.3656 119.2 81.6446 118.237 81.0736C117.311 80.5234 116.293 80.1108 115.216 79.4981C114.86 79.0855 114.66 78.7104 114.336 78.5603C113.204 78.0352 112.031 77.5892 110.872 77.1099C111.329 74.9218 111.47 74.8134 113.884 74.8009C118.483 74.7759 121.472 77.2766 121.828 81.4695C122.097 84.6704 120.984 87.4712 118.721 89.9928Z" fill="#89C060"/>
<path d="M110.813 77.1974C112.027 77.585 113.199 78.031 114.331 78.5561C114.655 78.7062 114.856 79.0813 115.12 79.4522C113.587 79.3355 112.049 79.1229 110.393 78.8937C110.512 78.3727 110.635 77.8309 110.813 77.1974Z" fill="#79A33F"/>
<path d="M118.589 90.1935C118.515 90.1935 118.483 90.1391 118.465 90.0847C118.461 90.0764 118.52 90.0513 118.598 90.022C118.653 90.0094 118.635 90.1391 118.589 90.1935Z" fill="#89C060"/>
<path d="M56.2482 130.571C56.5356 130.242 56.7866 130.004 57.0741 129.692C57.4847 129.646 57.868 129.667 58.2422 129.717C59.5062 129.892 60.583 130.363 60.8249 131.622C61.0622 132.872 60.3321 133.71 59.0179 134.251C58.516 134.335 58.1099 134.393 57.6034 134.447C55.4816 132.638 55.3994 132.388 56.2482 130.571ZM57.4574 130.834C56.4626 132.001 56.6816 133.239 57.9639 133.351C58.484 133.397 59.2187 133.139 59.5472 132.78C59.8256 132.476 59.8803 131.576 59.6339 131.392C59.1229 131.017 58.3426 130.942 57.4574 130.834Z" fill="#5C7991"/>
<path d="M80.3774 193.31C82.6544 193.602 84.9313 193.89 87.0897 194.165C86.3322 195.298 85.5839 196.194 85.1047 197.203C84.6758 198.112 84.2013 198.604 83.0331 198.695C80.8429 198.866 78.6754 199.233 76.2889 199.545C77.3567 198.241 78.2282 197.145 79.1545 196.09C79.264 195.965 79.693 196.103 79.9576 196.049C80.4002 195.957 80.8292 195.811 81.2672 195.686C81.0163 195.307 80.7835 194.923 80.5143 194.552C80.3546 194.336 80.1493 194.144 80.1128 193.852C80.3044 193.615 80.3409 193.465 80.3774 193.31Z" fill="#514E4B"/>
<path d="M51.5892 194.056C53.6152 194.323 55.5728 194.669 57.5668 195.023C56.4626 196.445 55.5545 197.666 54.5735 198.845C54.3681 199.091 53.9301 199.275 53.5833 199.308C51.1421 199.52 48.6963 199.687 46.8619 199.825C47.6194 198.924 48.5548 197.778 49.5404 196.674C49.65 196.549 50.0652 196.67 50.3299 196.632C50.8044 196.57 51.2698 196.478 51.7398 196.395C51.5482 195.949 51.3839 195.49 51.1466 195.069C51.0508 194.902 50.7816 194.815 50.5032 194.64C50.9048 194.436 51.2105 194.286 51.5892 194.056Z" fill="#514E4B"/>
<path d="M38.2789 180.894C41.4365 180.773 44.5576 180.607 47.3913 182.103C47.7974 182.315 48.1944 182.536 48.783 182.857C44.6352 183.707 40.7429 184.508 36.7366 185.295C37.1518 183.849 37.6811 182.411 38.2789 180.894Z" fill="#3D566F"/>
<path d="M44.6033 198.449C43.2983 199.983 41.8427 200.121 39.1414 198.704C39.7939 198.32 40.3232 198.037 40.8206 197.712C41.1719 197.482 41.505 197.224 41.8016 196.941C42.267 196.486 42.6412 195.644 43.1432 195.582C44.6261 195.398 46.1548 195.515 47.6606 195.515C47.729 195.711 47.802 195.903 47.8705 196.099C46.8118 196.861 45.7441 197.62 44.6033 198.449Z" fill="#514E4B"/>
<path d="M73.0128 195.223C74.3406 195.207 75.5361 195.207 77.2883 195.207C76.6723 195.99 76.3027 196.507 75.8784 196.986C75.2578 197.682 74.6098 198.353 73.9528 199.024C73.7794 199.199 73.5329 199.454 73.3367 199.441C72.0226 199.37 70.713 199.237 69.3988 199.124C69.3578 198.991 69.3167 198.854 69.2756 198.72C69.6042 198.387 69.951 198.057 70.2613 197.712C70.6491 197.282 71.2058 196.882 71.3427 196.386C71.5754 195.573 72.1412 195.361 73.0128 195.223Z" fill="#514E4B"/>
<path d="M64.4662 184.608C66.8435 184.153 69.2026 183.787 71.5708 183.482C72.0363 183.424 72.5428 183.616 73.031 183.695C73.0493 183.808 73.0675 183.92 73.0858 184.033C70.4575 185.179 67.8292 186.325 65.0913 187.475C64.8039 186.554 64.6259 185.633 64.4662 184.608Z" fill="#3D566F"/>
<path d="M70.7996 202.309C70.6399 201.354 70.9319 200.929 71.9495 201.067C72.8074 201.179 73.6971 201.146 74.5367 201.317C76.0243 201.617 75.1893 202.709 75.463 203.722C74.1352 203.651 72.9397 203.672 71.7898 203.476C71.4111 203.409 71.1327 202.792 70.7996 202.309Z" fill="#514E4B"/>
<path d="M44.4481 203.288C43.823 203.955 41.3179 204.28 40.6289 203.597C40.1315 203.105 40.2638 202.08 40.0813 201.108C41.7605 201.333 43.029 201.504 44.4846 201.696C44.4846 202.171 44.4846 202.676 44.4481 203.288Z" fill="#514E4B"/>
<path d="M77.5713 201.058C78.2283 201.05 78.7485 201.05 79.6976 201.05C79.4467 202.004 79.3463 202.871 78.9402 203.592C78.8398 203.772 77.3112 203.647 77.188 203.38C76.864 202.671 76.4168 201.742 77.5713 201.058Z" fill="#474545"/>
<path d="M38.936 194.877C38.9953 195.444 39.1231 195.932 39.3239 196.678C38.9178 196.999 38.1557 197.603 37.3983 198.203C37.3024 198.145 37.2112 198.087 37.1154 198.028C37.3572 196.799 37.3435 195.444 37.9458 194.386C38.2607 193.827 39.6478 193.773 40.5559 193.494C40.6289 193.652 40.7019 193.81 40.7703 193.969C40.1817 194.244 39.5931 194.519 38.936 194.877Z" fill="#474545"/>
<path d="M48.2446 201.588C49.0751 203.542 48.2902 204.405 46.0042 204.009C46.1182 203.255 46.2369 202.496 46.3783 201.563C46.9898 201.563 47.5556 201.563 48.2446 201.588Z" fill="#514E4B"/>
<path d="M81.8285 203.38C81.5136 202.588 81.3174 201.784 81.1212 200.983C81.7053 200.938 82.5358 200.65 82.8278 200.892C83.5533 201.508 82.9328 203.03 81.8285 203.38Z" fill="#474545"/>
<path d="M50.9323 201.304C51.4068 201.408 52.0958 201.592 52.0821 201.634C51.8951 202.392 51.676 203.151 51.3292 203.859C51.2608 204.001 50.6311 203.913 49.8645 203.951C50.2295 202.946 50.5262 202.134 50.9323 201.304Z" fill="#474545"/>
<path d="M48.0391 193.477C48.062 193.698 47.9981 193.981 47.9433 193.981C46.4056 193.961 44.8678 193.935 43.3392 193.844C43.0107 193.823 42.7004 193.548 42.381 193.389C42.4266 193.235 42.4677 193.081 42.5133 192.931C44.3294 193.089 46.1455 193.248 48.0391 193.477Z" fill="#474545"/>
<path d="M86.2136 201.95C85.8303 202.275 85.4652 202.488 84.9177 202.809C84.7443 202.075 84.4705 201.554 84.5481 201.079C84.6165 200.692 85.1002 200.362 85.4014 200.008C85.6797 200.312 86.0311 200.583 86.2045 200.929C86.3368 201.183 86.2318 201.534 86.2136 201.95Z" fill="#474545"/>
<path d="M53.6199 202.588C53.5605 201.458 53.6974 200.617 55.4131 200.933C55.2991 201.604 55.2671 202.25 55.0527 202.842C54.9614 203.092 54.5097 203.33 54.1902 203.367C54.0351 203.388 53.8115 202.938 53.6199 202.588Z" fill="#474545"/>
<path d="M60.6788 168.445C60.5465 167.907 60.6286 167.319 60.4598 166.798C60.1541 165.848 60.6241 165.619 61.6234 165.636C61.8333 166.457 61.9291 167.274 62.0067 168.207C61.5869 168.361 61.1853 168.391 60.6788 168.445Z" fill="#255D5D"/>
<path d="M67.8108 202.13C67.7287 201.484 67.6694 200.946 67.6055 200.354C68.9105 200.612 68.9105 200.612 68.9698 203.226C68.5911 202.892 68.2124 202.563 67.8108 202.13Z" fill="#474545"/>
<path d="M38.4157 202.805C37.6263 203.397 37.2932 202.976 37.2887 202.363C37.2841 201.692 37.4757 201.021 37.5898 200.275C39.5656 200.771 38.0781 201.959 38.4157 202.805Z" fill="#474545"/>
<path d="M66.556 197.195C66.9484 196.207 67.5462 195.957 68.8193 196.253C68.3584 196.828 68.0253 197.478 67.4732 197.878C66.7294 198.424 66.4647 197.991 66.556 197.195Z" fill="#474545"/>
<path d="M80.2452 193.314C80.341 193.464 80.3 193.615 80.1813 193.798C78.3516 193.885 76.6039 193.906 74.8608 194.011C74.1764 194.052 73.501 194.269 72.7983 194.286C75.1118 193.139 77.6306 193.339 80.2452 193.314Z" fill="#10100C"/>
<path d="M87.7057 196.54C87.9019 196.128 88.0524 195.803 88.1985 195.478C89.0928 197.449 89.0289 197.537 87.0486 197.791C87.2904 197.324 87.4729 196.974 87.7057 196.54Z" fill="#474545"/>
<path d="M88.9971 199.925C88.7827 200.492 88.591 200.954 88.3994 201.421C88.194 201.384 87.9841 201.342 87.7788 201.304C87.8062 200.742 87.8381 200.175 87.8655 199.612C88.2534 199.683 88.6367 199.754 88.9971 199.925Z" fill="#474545"/>
<path d="M58.2376 200.621C57.9775 201.296 57.69 201.871 57.4026 202.45C57.2337 202.367 57.0695 202.284 56.9006 202.2C57.4071 201.679 56.2846 200.246 58.2376 200.621Z" fill="#474545"/>
<path d="M58.7122 198.241C58.1966 198.453 57.7403 198.57 57.2794 198.691C57.211 198.587 57.1425 198.483 57.0741 198.378C57.5213 197.924 57.9685 197.47 58.4156 197.016C58.5343 197.045 58.6483 197.074 58.767 197.103C58.767 197.453 58.767 197.799 58.7122 198.241Z" fill="#474545"/>
<path d="M46.5425 206.001C45.8307 206.106 45.0641 206.106 44.2701 206.01C44.9865 205.91 45.7349 205.906 46.5425 206.001Z" fill="#91B3B4"/>
<path d="M41.5049 165.961C41.5232 166.211 41.4821 166.511 41.368 166.878C41.3498 166.632 41.3954 166.323 41.5049 165.961Z" fill="#0B0F0D"/>
<path d="M40.5696 163.702C40.5285 163.593 40.5604 163.435 40.6608 163.214C40.6973 163.322 40.6699 163.485 40.5696 163.702Z" fill="#0B0F0D"/>
<path d="M71.8719 194.548C71.9086 194.502 71.9773 194.498 72.046 194.49C71.9957 194.523 71.9498 194.557 71.8719 194.548Z" fill="#10100C"/>
<path d="M46.8848 92.7353C46.6658 91.4015 47.3183 90.5388 48.4819 90.0011C50.1976 89.2051 51.9407 89.1926 53.5195 90.2595C54.5827 90.9764 55.1941 91.9517 54.6967 93.3313C54.5781 93.4271 54.5097 93.4646 54.3408 93.6064C54.0442 93.4855 53.7796 93.3104 53.7066 93.0854C53.1134 91.1723 50.9961 90.3387 49.1253 91.3974C48.4636 91.7725 48.0028 92.4518 47.4506 92.9895C47.2864 92.9312 47.113 92.8686 46.8848 92.7353Z" fill="#10100C"/>
<path d="M71.7122 95.8695C72.0681 95.9112 72.4286 96.0529 72.8392 96.278C72.5016 96.2279 72.1091 96.1029 71.7122 95.8695Z" fill="#99B273"/>
<path d="M73.4873 96.6781C73.6196 96.6447 73.7885 96.6906 74.0029 96.8073C73.866 96.8365 73.6972 96.7948 73.4873 96.6781Z" fill="#99B273"/>
<path d="M17.7543 79.3897C17.8775 79.4314 18.0052 79.5689 18.133 79.8023C18.0098 79.7607 17.882 79.6231 17.7543 79.3897Z" fill="#99B273"/>
<path d="M20.9758 52.7986C21.1355 52.8403 21.2816 52.9695 21.3865 53.1487C21.2131 53.0946 21.0899 52.9904 20.9758 52.7986Z" fill="#10100C"/>
<path d="M36.8278 58.7879C37.8134 58.6962 38.9267 58.642 40.1816 58.5962C39.2051 58.6754 38.0826 58.7504 36.8278 58.7879Z" fill="#10100C"/>
<path d="M42.3536 57.2416C42.3628 56.6748 42.4495 56.0579 42.5544 55.3202C42.527 55.8579 42.4814 56.5206 42.3536 57.2416Z" fill="#10100C"/>
<path d="M30.6997 49.8395C30.111 49.8978 29.3992 49.927 28.6052 49.8853C29.2075 49.8186 29.892 49.8145 30.6997 49.8395Z" fill="#10100C"/>
<path d="M41.6921 77.9435C41.6191 77.6309 41.6236 77.2641 41.6601 76.7931C41.724 77.0849 41.7468 77.485 41.6921 77.9435Z" fill="#999F72"/>
<path d="M37.0195 50.4813C36.6362 50.5189 36.1525 50.4938 35.5958 50.3855C35.9837 50.3438 36.4537 50.3813 37.0195 50.4813Z" fill="#10100C"/>
<path d="M33.3508 50.0687C33.1135 50.1229 32.7667 50.1438 32.3698 50.0896C32.6253 50.0229 32.931 50.027 33.3508 50.0687Z" fill="#10100C"/>
<path d="M41.9887 53.6697C41.8883 53.6322 41.7696 53.5155 41.651 53.3155C41.756 53.3488 41.8655 53.4697 41.9887 53.6697Z" fill="#10100C"/>
<path d="M41.7102 57.9585C41.7102 57.8502 41.7878 57.7209 41.952 57.5834C41.9566 57.6959 41.8699 57.8168 41.7102 57.9585Z" fill="#10100C"/>
<path d="M67.2907 77.0515C67.3409 77.1599 67.309 77.2975 67.2223 77.4892C67.1812 77.3891 67.1903 77.2349 67.2907 77.0515Z" fill="#8E5844"/>
<path d="M39.4378 51.5358C39.3694 51.565 39.2462 51.5233 39.0819 51.3983C39.1504 51.3607 39.2644 51.4108 39.4378 51.5358Z" fill="#10100C"/>
<path d="M42.2039 53.9706C42.1398 53.9789 42.0665 53.9162 41.984 53.7864C42.0436 53.7781 42.1215 53.8408 42.2039 53.9706Z" fill="#10100C"/>
<path d="M34.2642 50.1354C34.3238 50.1689 34.2275 50.2275 34.2275 50.2275C34.2275 50.2275 34.1176 50.1982 34.0947 50.1689C34.0718 50.1396 34.2046 50.102 34.2642 50.1354Z" fill="#10100C"/>
<path d="M42.0845 57.5709C42.048 57.5083 42.089 57.4167 42.2122 57.3C42.2487 57.3666 42.2031 57.4542 42.0845 57.5709Z" fill="#10100C"/>
<path d="M41.1399 58.3336C41.1354 58.2628 41.2221 58.1836 41.4092 58.0877C41.4183 58.1586 41.327 58.2419 41.1399 58.3336Z" fill="#10100C"/>
<path d="M25.621 86.2917C20.264 82.8032 18.8723 77.8518 19.1233 72.321C19.2282 69.9912 19.9629 67.7864 21.3957 65.8066C24.1745 61.9722 29.1756 61.0427 33.3599 63.5976C38.5572 66.7736 41.0624 73.5797 39.1869 79.5773C38.831 80.7234 38.393 81.8696 37.7952 82.9241C35.3175 87.3004 30.5217 88.6299 25.621 86.2917Z" fill="#FDFDFD"/>
<path d="M38.7215 52.4569C39.4014 52.9487 40.1634 53.3697 40.7475 53.9407C41.9841 55.1535 41.4319 56.7831 39.6934 57.2583C37.4256 57.8751 35.3038 57.1124 33.1455 56.6914C32.3013 56.5247 31.4617 56.3247 30.4487 56.0829C30.1749 55.9829 30.07 55.9371 29.9696 55.8954C27.9299 55.191 25.8674 54.5492 23.8734 53.7489C23.2756 53.5072 22.8877 52.832 22.4041 52.3527C22.9379 51.9901 23.4718 51.3232 24.0103 51.3191C27.1998 51.2815 30.3939 51.3607 33.5835 51.4858C34.9798 51.54 36.3715 51.7984 37.9321 52.0443C38.3062 52.2277 38.5116 52.3402 38.7215 52.4569Z" fill="#625442"/>
<path d="M25.8583 59.3256C26.3785 59.1589 27.0355 59.0046 27.8113 58.8796C27.2819 59.0505 26.6386 59.1964 25.8583 59.3256Z" fill="#10100C"/>
<path d="M23.2665 54.9243C22.9197 54.8326 22.5456 54.6575 22.1349 54.395C22.4817 54.4867 22.8604 54.6617 23.2665 54.9243Z" fill="#10100C"/>
<path d="M25.6027 55.7704C25.4476 55.8204 25.2742 55.7995 25.0597 55.7037C25.2103 55.6495 25.3974 55.6745 25.6027 55.7704Z" fill="#10100C"/>
<path d="M38.7033 52.361C38.5116 52.3444 38.3017 52.2277 38.0508 52.0401C38.2333 52.0609 38.4615 52.1651 38.7033 52.361Z" fill="#10100C"/>
<path d="M39.3649 66.4776C39.5474 66.5568 39.7071 66.7319 39.8759 67.0028C39.7025 66.9236 39.5246 66.7527 39.3649 66.4776Z" fill="#10100C"/>
<path d="M22.0892 54.2282C21.9295 54.1824 21.7607 54.0532 21.5736 53.8448C21.7333 53.8948 21.9067 54.0198 22.0892 54.2282Z" fill="#10100C"/>
<path d="M36.9967 62.8891C37.161 62.9391 37.3252 63.0767 37.5078 63.2892C37.3435 63.235 37.1701 63.1058 36.9967 62.8891Z" fill="#10100C"/>
<path d="M34.9934 61.2094C35.1349 61.1969 35.2991 61.2678 35.4953 61.422C35.3585 61.4345 35.1851 61.3637 34.9934 61.2094Z" fill="#10100C"/>
<path d="M24.3798 59.5923C24.3798 59.5339 24.4664 59.4673 24.6398 59.3922C24.6398 59.4506 24.5532 59.5173 24.3798 59.5923Z" fill="#10100C"/>
<path d="M23.2254 60.1216C23.2117 60.0591 23.2938 59.9799 23.4535 59.8757C23.4626 59.9299 23.3896 60.0174 23.2254 60.1216Z" fill="#10100C"/>
<path d="M37.9093 64.0936C37.9914 64.0728 38.0964 64.1478 38.2378 64.3145C38.1603 64.3312 38.0462 64.2603 37.9093 64.0936Z" fill="#10100C"/>
<path d="M22.6778 60.3925C22.6687 60.3342 22.7463 60.2633 22.9014 60.1716C22.9106 60.23 22.8376 60.305 22.6778 60.3925Z" fill="#10100C"/>
<path d="M33.2094 60.1841C33.2824 60.1466 33.4101 60.1883 33.5927 60.3175C33.5151 60.3592 33.3919 60.3092 33.2094 60.1841Z" fill="#10100C"/>
<path d="M30.0153 55.9621C30.07 55.9371 30.1704 55.9788 30.3301 56.0829C30.2754 56.1038 30.1704 56.0663 30.0153 55.9621Z" fill="#10100C"/>
<path d="M55.8921 99.483C56.426 99.5622 56.8641 99.6956 57.3021 99.8289C57.1059 100.192 57.0146 100.692 56.6952 100.896C55.2031 101.867 53.6608 102.784 52.1094 103.676C50.8682 104.389 49.6818 104.247 48.7282 103.23C47.6011 102.025 46.4877 100.8 45.4884 99.5039C45.2557 99.2038 45.5021 98.5911 45.5295 98.1201C45.9995 98.291 46.6109 98.3452 46.9121 98.6536C47.9114 99.6664 48.8149 100.758 49.7229 101.846C50.3298 102.576 50.9321 102.534 51.6987 102.038C53.0448 101.175 54.432 100.371 55.8921 99.483Z" fill="#864C4B"/>
<path d="M94.751 79.098C96.5945 84.6371 93.9616 90.8014 88.5224 93.8481C82.5266 97.2116 75.7277 96.7281 71.0734 92.6144C66.5879 88.6507 66.305 81.4862 70.43 76.4972C75.5588 70.2954 85.5975 69.3827 91.6436 74.7092C92.9577 75.8637 93.7061 77.5517 94.751 79.098Z" fill="#FDFEFD"/>
<path d="M87.3134 96.4572C86.889 96.6947 86.3597 96.9281 85.7163 97.1407C86.1361 96.899 86.6745 96.6781 87.3134 96.4572Z" fill="#99B273"/>
<path d="M65.8351 87.2461C65.7073 87.0794 65.5932 86.8294 65.5704 86.5209C65.721 86.7002 65.7849 86.9294 65.8351 87.2461Z" fill="#9ECA7B"/>
<path d="M71.078 95.2193C70.8271 95.1609 70.5396 95.0234 70.2476 94.7858C70.5077 94.8358 70.7723 94.9901 71.078 95.2193Z" fill="#98C774"/>
<path d="M94.9838 72.7753C95.1572 72.842 95.3397 72.992 95.4903 73.2379C95.3032 73.1712 95.148 73.0129 94.9838 72.7753Z" fill="#8E5844"/>
<path d="M84.4569 58.5962C86.9483 59.2214 89.3211 59.809 91.6802 60.4384C92.1319 60.5593 92.6065 60.776 92.9213 61.0802C93.2179 61.3678 93.5647 61.9097 93.4461 62.1889C93.3001 62.5515 92.7251 62.7724 92.3099 63.0308C92.205 63.0933 92.027 63.0642 91.881 63.0642C87.3407 63.0725 82.7914 63.1975 78.2603 63.0267C76.7499 62.9683 75.1939 62.2806 73.8159 61.6054C73.1999 61.3011 72.5702 60.2633 72.6843 59.6757C72.8075 59.0088 73.6471 58.1502 74.368 57.9502C75.6685 57.5876 77.1332 57.4667 78.493 57.5834C80.4597 57.7501 82.3899 58.2253 84.4569 58.5962Z" fill="#625442"/>
<path d="M57.5667 130.788C58.3425 130.942 59.1228 131.017 59.6293 131.392C59.8757 131.576 59.8209 132.476 59.5426 132.78C59.214 133.139 58.4794 133.397 57.9592 133.351C56.6815 133.239 56.4625 132.001 57.5667 130.788Z" fill="#E8E2DA"/>
</svg>
