<svg width="100" height="100" viewBox="0 0 100 100" fill="none" xmlns="http://www.w3.org/2000/svg">
<mask id="mask0_203_278" style="mask-type:luminance" maskUnits="userSpaceOnUse" x="0" y="0" width="100" height="100">
<path d="M77.4261 100H22.5738C10.109 100 0 89.891 0 77.4261V22.5738C0 10.109 10.109 0 22.5738 0H77.4261C89.891 0 100 10.109 100 22.5738V77.4261C100 89.8968 89.8968 100 77.4261 100Z" fill="white"/>
</mask>
<g mask="url(#mask0_203_278)">
<path d="M15.6585 29.2135L18.196 27.3968L19.6025 27.0218L23.3648 26.717L50.6445 32.2433L60.7183 36.029L74.9236 33.4857L77.2677 34.2299L75.7382 37.9219L73.2183 40.1488L66.1391 40.4067L56.3289 40.5532L40.4241 35.5661L23.6871 32.0558L14.6564 31.9268L12.8456 32.7883L15.6585 29.2135Z" fill="#E64C63"/>
<path d="M16.1453 28.5336L82.8588 29.9752L80.9308 50.9726L78.9207 63.3203L76.4887 69.6728L71.818 74.3024L67.0067 76.3242L59.0426 78.4457L48.5234 79.0493L37.7697 77.1798L32.3314 74.5075L25.8558 70.4112L21.3609 64.9142L19.6497 36.3629L16.1453 28.5336Z" fill="#F0C0A1"/>
<path d="M63.2209 59.9331C66.014 59.9331 68.2783 57.5009 68.2783 54.5006C68.2783 51.5003 66.014 49.0681 63.2209 49.0681C60.4277 49.0681 58.1635 51.5003 58.1635 54.5006C58.1635 57.5009 60.4277 59.9331 63.2209 59.9331Z" fill="#6C2B0D"/>
<path d="M33.2862 57.4368C36.0793 57.4368 38.3436 55.0045 38.3436 52.0043C38.3436 49.004 36.0793 46.5718 33.2862 46.5718C30.493 46.5718 28.2288 49.004 28.2288 52.0043C28.2288 55.0045 30.493 57.4368 33.2862 57.4368Z" fill="#6C2B0D"/>
<path d="M50.4452 124.291C50.5741 125.873 50.832 127.461 50.8027 129.044C50.7324 132.349 50.6034 135.654 50.2694 138.936C50.2049 139.581 49.1911 140.378 48.4468 140.659C44.6025 142.13 40.6234 141.972 36.7028 141.04C33.8723 140.366 33.0987 137.594 34.8744 135.32C35.1205 135.004 35.0444 134.435 35.0151 133.873C34.9096 133.761 34.8979 133.732 34.8979 133.732C35.0737 133.169 35.3667 132.613 35.4136 132.032C35.6538 128.985 35.8824 125.932 35.9996 122.873C36.0348 121.912 35.6597 120.939 35.5777 119.96C35.5249 119.368 35.5718 118.735 35.7417 118.167C36.0699 117.054 36.5153 115.969 36.9138 114.874C36.7673 114.686 36.6208 114.493 36.4801 114.305C35.5132 114.739 34.4466 115.038 33.5969 115.635C32.1435 116.655 29.2427 115.413 27.9241 113.707C26.1543 111.422 27.1799 109.289 27.9769 107.355C30.8836 100.322 33.9485 93.3487 37.1834 86.4629C38.6367 83.3686 41.2094 81.3 44.7256 80.6436C45.083 80.5791 45.4054 80.3096 46.3489 79.829C45.0596 79.5302 44.3798 79.3309 43.6883 79.2137C36.4508 77.9596 29.7701 75.4338 24.3493 70.2943C21.3196 67.4228 18.9872 64.1469 19.9776 59.8161C18.2722 58.5796 16.3735 57.6654 15.1194 56.2003C12.6229 53.276 12.031 49.8126 13.6836 46.2027C14.6857 44.0109 16.3911 42.6806 19.1337 42.7334C19.7549 43.2315 20.1475 43.5831 20.5519 44.0988C20.5519 44.7142 20.546 45.1595 20.3761 45.6401C20.0948 46.5719 19.9248 47.4626 19.919 48.3593C19.919 48.4413 20.9504 48.5292 21.4778 48.746C21.4075 49.0449 21.3606 49.2149 21.2082 49.4727C21.1496 50.0001 21.2024 50.4397 21.2317 50.9847C21.261 51.2308 21.302 51.3656 21.3313 51.6469C21.4133 52.063 21.5071 52.3325 21.5891 52.7017C21.6067 52.942 21.6712 53.0709 21.7532 53.3288C21.8528 53.739 21.9583 54.0027 22.0521 54.4305C22.14 55.1045 22.2279 55.626 22.2865 56.3058C22.2514 56.9153 22.2572 57.3665 22.2103 57.9467C22.1341 58.4565 22.1107 58.8375 21.9818 59.3004C21.8353 59.5641 21.8001 59.7458 21.7181 59.9626C21.677 59.9978 21.7005 60.1091 21.595 60.2146C21.4544 60.6073 21.4192 60.8944 21.3371 61.3222C21.3137 61.6504 21.3371 61.8379 21.3371 62.1895C21.4368 62.7521 21.5657 63.1506 21.6888 63.6898C22.2162 64.7857 22.7436 65.7467 23.3238 66.8192C23.5113 67.0301 23.652 67.1239 23.7574 67.2118C23.7223 67.206 23.7164 67.2704 23.7633 67.3993C24.9236 68.5362 26.0371 69.5501 27.2033 70.5346C27.256 70.5053 27.1447 70.5522 27.1916 70.6635C27.4318 70.8862 27.6252 71.0034 27.8421 71.1206C27.8714 71.1206 27.8948 71.1675 27.9534 71.273C28.2992 71.5367 28.5863 71.6891 28.9555 71.9528C29.8463 72.5037 30.6491 72.949 31.5165 73.5233C43.3894 79.4715 55.4675 79.8642 67.7975 75.51C68.4304 75.2873 70.9738 73.5409 71.6419 73.4179C71.1613 73.998 71.8704 74.7013 71.2961 74.9533C68.3836 76.2132 62.2068 78.487 59.1243 79.284C58.3625 79.4833 57.5889 79.6532 56.7392 80.2744C57.3252 80.5088 57.8936 80.8546 58.5031 80.9601C62.0779 81.5812 64.7209 83.5737 66.3207 86.7207C68.952 91.8895 71.4075 97.1462 73.8395 102.409C74.9412 104.782 76.0605 107.208 76.6641 109.728C76.9279 110.824 76.0723 112.301 75.4569 113.467C74.4548 115.36 71.3782 115.882 69.6084 114.651C69.3036 114.434 68.8524 114.334 68.4715 114.329C66.3852 114.311 65.7992 113.473 65.5706 111.492C65.3655 109.687 64.5744 107.947 64.0352 106.177C63.7539 106.265 63.4785 106.347 63.1972 106.435C63.543 107.97 63.8711 109.517 64.2462 111.047C64.9612 113.936 65.723 116.819 66.4321 119.708C66.5434 120.154 66.6255 120.705 66.4614 121.097C65.4241 123.564 65.9984 126.295 67.862 128.03C68.325 128.458 68.5711 129.179 68.7703 129.806C69.1571 131.06 69.4443 132.349 69.919 133.703C70.0713 133.779 70.0889 133.808 70.0889 133.808C69.9893 134.963 70.0772 136.17 69.7373 137.248C69.3974 138.332 68.87 139.833 68.0144 140.208C64.0645 141.936 59.9096 142.224 55.7195 140.964C54.0258 140.454 52.9241 139.329 52.6897 137.57C52.6018 136.938 52.9827 136.246 53.0706 135.572C53.1468 134.998 53.1058 134.412 53.1292 133.568C53.1234 133.164 53.0999 133.017 53.0765 132.876C52.7483 131.107 52.426 129.343 52.0568 127.28C51.9337 126.846 51.8458 126.711 51.7638 126.571C51.6642 125.75 51.5645 124.924 51.3653 123.869C51.0664 123.635 50.873 123.623 50.6796 123.617C50.6796 123.617 50.58 123.664 50.4862 123.787C50.3514 124.033 50.3632 124.168 50.4452 124.291ZM44.1513 85.1384C44.1688 85.4256 44.1923 85.7069 44.1395 86.1933C44.1161 86.2578 44.0927 86.3281 43.7235 86.3632C43.4597 85.1384 43.196 83.9136 42.9323 82.6888C42.7096 82.6713 42.4869 82.6595 42.2642 82.642C41.8599 85.3143 41.4555 87.9865 41.0512 90.6647C41.2387 90.694 41.4321 90.7233 41.6196 90.7526C41.895 90.3072 42.1763 89.8677 42.4518 89.4223C42.5631 89.4692 42.6745 89.5102 42.7858 89.5571C42.7096 90.2076 42.6334 90.8581 42.528 91.7723C42.5221 91.954 42.5162 92.1298 42.3932 92.499C42.3873 92.5752 42.3756 92.6455 42.1939 92.9971C41.8364 96.3375 41.4614 99.6778 41.1684 103.03C41.1449 103.27 41.6899 103.557 41.9536 104.032C41.8306 104.284 41.7017 104.536 41.3032 104.876C41.3969 105.257 41.3969 105.919 41.5903 105.978C42.8444 106.382 44.1278 106.722 45.4229 106.962C50.5566 107.912 55.655 107.331 61.0699 106.587C61.4391 106.441 61.8025 106.294 62.2478 105.878C62.283 105.696 62.324 105.509 62.4412 105.216C62.4529 105.063 62.3768 104.964 62.0662 104.8C61.8845 104.729 61.697 104.653 61.234 104.524C60.9937 104.278 60.7535 104.038 60.8296 103.68C61.1051 103.094 61.6618 102.479 61.6032 101.934C61.4215 100.211 61.0699 98.4999 60.6597 96.8121C60.4018 95.7632 60.1381 94.6028 59.4994 93.7882C58.1632 92.0829 57.3311 90.3014 57.46 88.1096C57.5655 86.3222 57.6358 84.5348 57.7237 82.6478C57.4307 82.7181 57.1142 82.7885 56.7509 82.4896C56.915 81.1241 56.0359 80.8897 55.151 80.585C55.0631 80.2978 54.9869 79.7587 54.8932 79.7587C52.3146 79.7118 49.7303 79.7235 46.929 79.7235C48.693 82.0852 51.3946 82.3665 54.9869 81.1241C53.9321 82.7006 52.2209 83.6616 50.6562 82.8822C48.6813 81.9036 46.8704 81.8977 44.6552 82.4427C44.5615 82.9408 44.4736 83.439 44.2157 84.1188C44.1806 84.3649 44.1571 84.611 44.1513 85.1384ZM18.4011 52.0219C18.6649 51.3597 18.9344 50.6917 19.2392 49.924C18.3015 49.8829 17.5162 49.8478 16.7251 49.5079C17.4635 48.9863 18.2077 48.4589 18.9754 47.9139C18.9754 46.6891 18.9754 45.3471 18.9754 43.9933C14.7971 44.5794 13.0448 48.8691 15.0256 53.6277C16.0922 55.9132 17.8503 57.3021 20.5167 57.9467C20.5167 56.9329 20.5167 56.1124 20.4991 54.9931C20.3819 54.2606 20.2589 53.528 20.0596 52.2739C19.456 53.3171 19.1102 53.9031 18.5711 54.2899M65.6468 128.516C64.2228 128.464 62.7518 128.276 62.0779 129.284C62.7518 131.341 63.2792 132.964 63.6367 134.06C62.494 134.916 61.7145 135.508 60.9293 136.094C61.1695 136.334 61.4098 136.574 61.6501 136.814C64.9436 137.113 65.0491 137.055 67.5338 133.457C68.3425 131.493 67.6627 129.325 65.6468 128.516ZM65.5003 87.8576C65.5003 87.8576 65.5179 87.8518 65.4651 87.5587C64.1817 86.0937 62.8983 84.6286 61.3981 82.9174C60.2085 86.2695 60.1088 88.8363 60.689 91.7782C61.9079 97.9666 64.3575 103.651 66.6137 109.441C66.8482 110.039 66.9243 110.742 66.9126 111.393C66.8892 112.617 66.9302 113.45 68.6297 112.969C69.1923 112.811 70.1065 113.52 70.7218 114.006C72.0345 115.055 72.3979 114.557 72.644 113.057C73.7047 113.209 75.0643 113.707 74.3669 111.387C75.6152 111.017 76.2422 110.508 75.0643 109.265C74.6951 108.873 74.6951 108.146 74.49 107.589C73.9391 106.124 73.3648 104.671 72.7378 102.913C70.5577 98.2596 68.3718 93.6066 66.1391 88.6839C65.9222 88.4144 65.7113 88.1448 65.5003 87.8576ZM29.1782 107.56C28.9965 108.357 28.9907 109.265 28.5922 109.927C28.1116 110.724 27.4963 111.176 28.7739 111.856C29.2837 112.125 29.2837 113.268 29.7877 113.678C30.4206 114.194 31.3289 114.375 32.4248 114.827C32.5479 114.698 32.9874 113.866 33.3742 113.895C36.949 114.123 36.3102 111.135 36.9783 109.236C38.5195 104.841 40.6585 100.604 40.43 95.728C40.2776 92.4462 40.3538 89.1527 40.3128 85.871C40.3128 85.6366 40.1897 85.3963 39.9787 84.6403C34.681 91.702 32.542 99.7481 29.1782 107.56ZM46.6419 123.553C45.6163 123.529 44.5322 123.717 43.5887 123.441C41.5141 122.838 39.5099 122 37.4412 121.244C37.2361 123.23 37.031 125.229 36.7556 127.837C41.0512 127.837 45.1182 127.837 49.3025 127.837C49.2204 126.289 49.1501 124.918 49.0739 123.389C48.2886 123.494 47.6264 123.576 46.6419 123.553ZM64.756 127.209C64.9787 127.034 65.4124 126.799 65.3831 126.682C65.0139 125.223 64.5802 123.787 64.3048 122.826C60.2729 123.312 56.5106 123.764 52.7249 124.221C52.8772 125.006 53.1058 126.219 53.3871 127.672C57.1552 127.022 60.8062 128.469 64.756 127.209ZM49.5603 131.323C49.197 130.567 48.9098 129.237 48.4586 129.179C47.2924 129.026 46.05 129.407 44.8604 129.665C44.7021 129.7 44.538 130.269 44.5849 130.556C44.8428 132.144 45.1651 133.72 45.3878 134.916C44.0985 135.783 43.1784 136.41 41.9654 137.231C46.9876 137.547 49.49 135.601 49.5603 131.323ZM57.3838 135.543C57.0849 135.912 56.7802 136.275 56.4637 136.668C58.632 137.547 59.6459 137.008 60.9117 133.902C59.5052 134.476 58.5207 134.875 57.3838 135.543ZM39.3634 135.121C38.8594 135.648 38.3613 136.182 37.746 136.826C40.2366 138.174 40.9984 136.123 42.1822 134.787C41.3266 134.834 40.4769 134.875 39.3634 135.121ZM58.7375 140.184C59.1536 139.838 59.5697 139.498 59.9916 139.153C59.1243 138.93 58.257 138.713 57.3896 138.491C57.29 138.748 57.1904 139 57.0908 139.258C57.5303 139.534 57.9757 139.809 58.7375 140.184ZM58.7317 129.876C59.1419 129.753 59.558 129.63 59.9682 129.507C59.9565 129.261 59.9447 129.014 59.933 128.762C59.013 128.762 58.087 128.739 57.167 128.792C57.0498 128.798 56.956 129.243 56.8505 129.483C57.3779 129.647 57.9054 129.806 58.7317 129.876ZM54.6002 131.441C54.7584 131.153 54.9987 130.878 55.0573 130.567C55.1569 130.034 55.2213 129.46 55.1217 128.938C55.0924 128.798 54.4243 128.774 54.0551 128.698C53.9848 129.208 53.7856 129.747 53.8676 130.228C53.9555 130.743 54.313 131.218 54.6002 131.441ZM40.9926 130.181C41.561 130.128 42.1295 130.075 42.6979 130.017C42.7213 129.77 42.7448 129.524 42.7682 129.278C41.9302 129.167 41.098 129.009 40.26 128.985C40.0666 128.979 39.8557 129.448 39.6564 129.7C39.9846 129.864 40.3128 130.022 40.9926 130.181Z" fill="#171212"/>
<path d="M77.2615 13.0332C75.9547 12.3299 74.7299 11.7381 73.3762 11.07C72.6553 10.8473 72.0693 10.7125 71.495 10.4136C71.2782 9.95066 71.0965 9.44081 70.8094 9.37635C67.7972 8.67312 64.7674 8.04021 61.6146 7.34283C61.304 7.28423 61.1223 7.27251 60.8293 7.16116C60.2198 7.04396 59.7158 7.02638 59.0243 6.97363C55.8715 6.99121 52.9062 7.0381 49.7592 7.0967C47.0752 7.70031 44.4674 8.02263 42.0939 8.94269C35.2022 11.615 29.8694 16.0747 27.0037 23.2008C27.0857 23.318 27.2264 23.3707 27.5194 23.4469C28.0937 23.4117 28.5098 23.3473 29.0489 23.3297C29.3419 23.3824 29.5119 23.3883 29.8283 23.4879C33.1042 24.2381 36.3684 24.5252 39.3455 25.6035C48.1476 28.7974 57.0025 31.6865 66.3848 32.712C66.3848 33.0871 66.379 33.3391 66.209 33.6204C58.6317 32.9289 51.4411 31.3407 44.4674 28.6802C40.8867 27.3147 37.2006 26.1192 33.4617 25.3222C29.2716 24.4256 24.9877 24.2849 20.8035 26.2892C19.9948 26.8049 19.3267 27.3088 18.518 27.8538C17.0119 28.938 15.6406 29.9753 14.1755 31.077C13.9704 31.3349 13.8649 31.5224 13.6071 31.7392C13.1207 32.2784 12.7749 32.7999 12.3412 33.4504C14.2869 34.1595 14.4568 33.0168 14.6619 31.7744C14.6912 31.5517 14.7029 31.4638 14.867 31.3759C15.7226 31.0653 16.4317 30.7547 17.2932 30.4441C17.7679 30.4441 23.1945 29.9225 23.511 30.0222C23.5168 30.1218 23.0187 30.7254 23.0128 30.8016C23.007 30.8778 18.3891 31.1473 18.2367 31.2001C15.16 32.337 14.6619 33.0109 14.7615 35.7535C14.0466 35.6949 13.3902 35.5367 12.8394 35.4019C13.3375 36.7146 13.7594 37.8281 14.1755 38.9415C10.8176 36.07 10.5187 33.4739 13.3551 30.2214C14.3923 29.0318 15.7226 28.1 16.9181 27.0393C17.9964 26.084 19.063 25.1171 20.2937 24.2556" fill="#1C1013"/>
<path d="M26.4358 18.7525C30.0457 15.7989 33.4271 12.4761 37.3242 9.96791C44.2218 5.53753 52.057 4.99838 60.0211 5.78952C65.7876 6.36383 71.3373 7.68826 76.5061 10.9993C76.8401 11.3099 77.0218 11.3744 77.2035 11.433C78.4693 12.4234 79.6121 13.4724 80.749 14.7206C80.497 15.0781 80.4911 15.1132 80.2684 15.1308" fill="#1C1013"/>
<path d="M71.1907 74.9824C71.2376 74.4257 71.2727 73.6638 71.6536 73.406C74.8944 71.1849 76.5235 67.9618 77.5608 64.3225C78.1117 62.3828 78.8032 60.4782 79.3013 58.5267C79.483 57.8117 80.1276 56.6455 78.2054 56.5811C77.7425 56.4111 77.5608 56.2646 77.3733 55.9775C77.3498 55.6551 77.3264 55.4735 77.3557 55.1629C77.5139 54.6647 77.6136 54.2956 77.7952 53.6509C77.0334 54.0143 76.547 54.2428 75.9375 54.4596C75.9141 53.8971 76.0196 53.3462 76.2188 52.7367C76.3888 52.4671 76.4649 52.262 76.6466 51.969C76.8283 51.6291 76.9103 51.3713 77.092 51.0079C77.555 49.6366 77.9124 48.3825 78.3695 47.0112C78.4985 46.6127 78.5336 46.3256 78.6157 45.9446C78.6684 45.7102 78.6743 45.5696 78.7739 45.2941C78.9204 44.6085 78.9673 44.0576 79.0669 43.3896C79.1196 43.0145 79.1255 42.7625 79.231 42.3816C79.3658 41.8307 79.4009 41.4088 79.483 40.8227C79.5943 39.7913 79.6412 38.3145 79.7584 37.3417C79.8346 37.1601 79.8698 37.6934 80.0046 37.7344C80.3093 38.7599 80.5085 39.6683 80.7136 40.7524C80.6609 41.3678 80.5906 41.8073 80.3913 42.2937C80.2448 43.0028 80.2272 43.6709 80.2214 44.4561C80.1511 44.796 80.0632 45.0129 79.8873 45.2473C79.7526 45.3 79.7057 45.341 79.6588 45.3762C79.735 45.4641 79.8112 45.5461 79.8932 45.7688C79.7994 46.2435 79.6998 46.5834 79.4713 46.9468C79.3775 47.228 79.4127 47.48 79.4478 47.8551C79.3482 48.1833 79.2486 48.3942 79.0552 48.6111C78.9145 48.658 78.8677 48.6931 78.8208 48.7341C78.8911 48.822 78.9614 48.91 79.0435 49.1151C78.9614 49.4374 78.8735 49.6483 78.6332 49.9062C78.1 50.7911 77.7132 51.6174 77.2619 52.5902C78.1175 52.5316 78.6098 52.4964 79.1958 52.4613C78.8208 53.229 78.5219 53.8384 78.0648 54.7702C78.809 54.8464 79.7233 55.116 79.8287 54.9285C80.7605 53.2876 81.5517 51.5647 82.4542 49.7949C82.6124 49.619 82.7003 49.5136 82.8937 49.3378C83.0578 49.1092 83.1164 48.951 83.1633 48.7283C83.1574 48.6697 83.216 48.5642 83.3215 48.488C83.4797 48.2536 83.5383 48.0895 83.5676 47.8844C83.5442 47.8375 83.5911 47.7438 83.7024 47.6617C83.8841 47.4097 83.9544 47.2398 83.9778 46.894C84.0599 45.6868 84.3001 44.6495 84.2884 43.6181C84.2591 41.3502 84.1068 39.0881 84.1478 36.8202C84.9155 36.8085 85.5308 36.8026 86.2751 36.7088C86.5857 35.6891 86.7615 34.7574 87.0955 33.8256C87.4588 33.8197 87.664 33.8138 87.8691 33.8138C87.7987 35.654 88.5254 37.8926 85.9996 38.2325C85.396 42.2878 84.8159 46.1966 84.2064 50.2578C84.7573 50.3809 85.8648 50.4746 86.8376 50.879C90.0432 52.2093 91.3735 56.0478 90.0432 59.8628C88.5489 64.1584 84.9741 66.649 80.4265 66.5553C79.8053 66.5436 79.19 66.4908 78.5278 66.4557C76.9748 70.0539 75.2987 73.5114 71.1907 74.9824ZM87.8222 61.1345C89.8967 57.9289 89.5568 54.2252 87.0428 52.5433C84.6283 50.9317 82.4893 51.758 82.2608 54.4772C83.216 54.7702 84.2474 54.9578 85.1499 55.409C85.8531 55.7606 86.3864 56.4346 86.656 57.0089C85.1675 56.6631 83.679 56.3115 81.8857 55.8954C84.3294 60.0504 83.9778 62.4296 81.0184 62.6523C81.3524 61.1111 83.4856 59.6108 81.0887 57.8352C80.3913 60.232 79.735 62.4765 79.0845 64.721C82.7589 65.6997 86.2516 64.2522 87.8222 61.1345Z" fill="#1B1416"/>
<path d="M19.8663 48.4232C19.8722 47.5266 20.0363 46.5186 20.3351 45.7392C20.8333 46.0205 21.1966 46.2314 21.5189 46.4014C22.6793 43.1841 23.8337 39.9668 24.9941 36.7495C21.8881 37.693 20.4348 39.5448 20.5696 42.4633C20.593 42.9497 20.5578 43.6119 20.5402 44.0983C20.1476 43.7467 19.5967 43.2368 19.1455 42.7504C18.9111 42.2406 18.9756 41.6721 18.6767 41.5198C17.8562 41.0978 16.8541 40.7052 16.063 40.2246C17.0065 40.1778 17.9617 40.4356 18.9521 40.5997C19.3975 40.5763 19.714 40.4942 20.0304 40.418C19.6319 40.043 19.2393 39.8261 18.7763 39.3866C18.9638 38.9412 19.2158 38.4079 19.4209 37.8981C19.3975 37.4644 19.4151 36.7671 19.6964 35.9701C19.9073 35.3782 20.1886 34.9269 20.4172 34.6281C20.5403 34.3878 20.6633 34.1475 20.7922 33.9072C21.0032 33.5322 21.3666 32.9872 21.9584 32.4656C22.5035 31.9909 23.8865 30.8599 23.8337 31.2701C23.781 31.6686 23.7576 31.651 23.6872 32.0554C23.6638 32.155 21.8178 34.2823 21.6947 34.3643C21.1849 35.3547 20.7922 36.2572 20.1769 37.6989C22.0405 36.5795 23.3473 35.7943 24.8241 35.0266C25.3457 35.0324 25.6914 35.0148 26.1427 35.0969C26.1603 35.7298 26.0782 36.2631 25.8848 36.9136C25.0585 39.4569 24.3377 41.889 23.5524 44.4675C23.0016 45.7274 22.5152 46.8409 22.0288 47.9719C22.0288 47.9895 22.0112 48.0188 21.9291 48.0833C21.7768 48.306 21.6185 48.5345 21.4662 48.7572" fill="#140F12"/>
<path d="M15.0552 39.6625C14.8032 39.4984 14.4808 39.2288 14.1878 38.9534C13.7249 37.7344 13.3439 36.7265 12.8517 35.4138C13.4026 35.5485 13.9534 35.613 14.7739 35.7654C16.4147 36.4803 17.9736 37.1601 19.4504 37.8868C19.4328 37.9102 19.2804 38.2619 19.1281 38.6135C18.9698 38.971 18.8175 39.3402 18.8057 39.3753C18.8702 39.9145 19.0167 40.3657 19.0108 40.6763C18.1494 40.5649 17.1297 40.313 16.0807 40.2251C15.8053 40.1196 15.7643 40.102 15.4712 39.9086" fill="#2B1113"/>
<path d="M81.0598 16.8073C80.6672 16.4205 79.6944 15.6411 79.4365 15.2954C79.5596 15.1958 80.4269 14.9613 80.7492 14.7328C81.7162 15.4595 82.5952 16.4909 83.4625 17.4637C83.5446 18.0438 83.5329 18.5185 83.3981 19.0753" fill="#1C1013"/>
<path d="M42.4514 92.282C42.4573 92.1003 42.5159 91.9538 42.6741 91.5963C43.2426 89.7445 43.6704 87.9512 44.0806 86.2752C44.1041 86.2107 44.0865 86.2518 44.1568 85.9412C44.0513 85.2731 44.1509 85.027 44.1685 84.5288C44.1099 84.2358 44.274 83.9194 44.3267 83.7611C44.4205 83.263 44.4791 82.9993 44.6432 82.4426C45.575 82.0675 46.0555 83.1517 46.665 83.597C47.1162 83.849 47.462 84.0014 47.9191 84.2593C51.277 85.8122 54.1427 84.6871 56.7799 82.5188C57.0963 82.4426 57.4186 82.7121 57.7116 82.6477C57.6237 84.5347 57.5534 86.3221 57.4479 88.1095C57.319 90.3012 58.1512 92.0827 59.4873 93.7881C60.1261 94.6027 60.3898 95.763 60.6477 96.812C61.0579 98.4998 61.4095 100.211 61.5912 101.934C61.6498 102.485 61.4212 103.053 60.8176 103.68C57.6648 103.973 54.5119 104.46 51.6873 104.46C48.4465 104.454 45.153 104.208 41.9123 103.973C41.631 103.71 41.1387 103.264 41.1622 103.024C41.4611 99.6777 41.672 96.4955 42.1877 92.9911" fill="#DC4040"/>
<path d="M29.2193 107.396C32.542 99.7421 34.6752 91.7018 39.9729 84.6401C40.1839 85.3961 40.3011 85.6305 40.3069 85.8708C40.3479 89.1584 40.2718 92.4519 40.4241 95.7278C40.6527 100.604 38.5137 104.841 36.9724 109.236C36.3043 111.135 36.9431 114.123 33.3683 113.895C32.9816 113.871 32.542 114.698 32.419 114.826C31.3231 114.375 30.4148 114.199 29.7818 113.678C29.2779 113.262 29.2779 112.125 28.768 111.855C27.4905 111.176 28.1058 110.724 28.5863 109.927C28.9907 109.265 28.9966 108.363 29.2193 107.396Z" fill="#ECBDA0"/>
<path d="M72.6263 113.145C72.6732 114.551 72.0286 115.061 70.7159 114.012C70.1005 113.526 69.1863 112.811 68.6237 112.975C66.9242 113.455 66.8832 112.629 66.9067 111.398C66.9184 110.748 66.8422 110.05 66.6078 109.447C64.3574 103.657 61.9078 97.9724 60.683 91.7839C60.1029 88.842 60.2025 86.2752 61.3921 82.9232C62.8924 84.6344 64.1758 86.0994 65.3185 87.7696C64.9376 88.3849 64.416 88.8889 64.5157 89.1937C65.3068 91.6901 66.2151 94.1456 67.0825 96.6187C67.563 97.99 67.8502 99.4609 68.5358 100.715C70.6748 104.612 71.7766 108.873 72.6263 113.145Z" fill="#EBBDA0"/>
<path d="M72.4974 113.109C71.4953 108.884 70.6749 104.612 68.5359 100.721C67.8443 99.4667 67.563 97.9899 67.0825 96.6244C66.2152 94.1514 65.3068 91.6959 64.5157 89.1994C64.4161 88.8947 64.9435 88.3907 65.3479 87.9219C65.5178 87.8574 65.5002 87.8691 65.4006 88.0215C65.594 88.4376 65.887 88.7013 66.1859 88.9592C68.3659 93.6122 70.71 98.1891 72.7846 103.094C72.9721 105.11 73.06 106.956 73.4058 108.702C73.605 109.71 74.1383 110.595 74.4254 111.586C75.2459 113.619 73.7046 113.215 72.4974 113.109Z" fill="#E8B295"/>
<path d="M18.7055 54.5475C19.4029 54.9636 19.9597 55.1336 20.5105 55.2976C20.5105 56.1181 20.5105 56.9385 20.5105 57.9524C17.8441 57.3077 15.9336 55.9481 14.9139 53.3637C15.4941 51.9924 15.9981 50.2226 16.8361 49.5663C17.6566 49.7421 18.3012 49.8945 19.233 49.9355" fill="#B67661"/>
<path d="M56.7805 82.5186C54.1668 84.8745 51.2015 85.9293 47.8495 84.224C47.281 83.9251 46.947 83.9075 46.5543 83.5442C46.0386 83.2043 45.5405 82.8175 44.9486 82.3604C46.8591 81.8974 48.6699 81.9033 50.6389 82.8819C52.2095 83.6614 53.8914 82.6944 54.958 80.9891C54.9697 80.8602 55.1338 80.5847 55.1338 80.5847C56.2004 80.6257 56.9212 80.9656 56.7805 82.5186Z" fill="#2D0F10"/>
<path d="M16.7259 49.6656C16.1926 50.8846 15.5128 52.1328 14.9209 53.3635C12.9108 49.0561 14.8037 44.5906 18.9821 43.9987C18.9821 45.3583 18.9821 46.6944 18.9821 47.9192C18.2085 48.4643 17.4643 48.9917 16.7259 49.6656Z" fill="#D0876F"/>
<path d="M20.5467 44.0984C20.5467 43.4421 20.5935 42.9498 20.576 42.4634C20.4412 39.545 21.8945 37.6873 25.0005 36.7496C23.8401 39.9669 22.6857 43.1842 21.5253 46.4015C21.2089 46.2316 20.6814 46.0558 20.3416 45.7393C20.5174 45.165 20.5467 44.7138 20.5467 44.0984Z" fill="#20457A"/>
<path d="M44.0808 86.2751C43.8405 87.9629 43.0552 90.3832 42.4985 92.1002C42.4341 91.4966 42.6978 90.2015 42.774 89.551C42.6626 89.5041 42.5513 89.4631 42.4399 89.4162C42.1645 89.8616 41.8832 90.3011 41.6078 90.7465C41.4202 90.7172 41.2268 90.6879 41.0393 90.6586C41.4437 87.9863 41.848 85.314 42.2524 82.6359C42.4751 82.6534 42.6978 82.6652 42.9205 82.6827C43.1959 83.9134 43.6471 85.0327 44.0808 86.2751Z" fill="#AD3B3B"/>
<path d="M54.8816 81.1532C51.2775 82.6652 48.6756 82.0909 46.9116 79.7233C49.7128 79.7233 52.2972 79.7175 54.8758 79.7585C54.9637 79.7585 55.1336 80.1687 55.1336 80.5848C55.0516 80.7196 54.8992 81.1708 54.8816 81.1532Z" fill="#C99985"/>
<path d="M20.517 55.2977C20.4584 55.3036 19.1575 55.3036 18.7121 54.5476C18.6535 54.448 18.7355 54.3249 18.7531 54.1491C19.2278 53.6803 19.4505 53.3228 20.0599 52.2797C20.1654 52.9477 20.5756 55.2567 20.517 55.2977Z" fill="#2B1113"/>
<path d="M66.1569 88.8243C65.8873 88.6954 65.5943 88.4376 65.4067 88.0215C65.7115 88.1446 65.9224 88.4141 66.1569 88.8243Z" fill="#EBBDA0"/>
<path d="M66.385 32.5891C57.0027 31.6924 48.1478 28.8033 39.3456 25.6095C36.3686 24.5312 32.8466 24.6366 29.641 23.7517C31.7741 19.5558 34.7512 15.6294 38.5486 13.0626C47.0109 7.34293 55.9771 7.78245 65.0371 11.2459C71.2315 13.6134 74.5894 18.3837 75.2458 24.9355C75.5036 27.4847 75.3044 30.0809 75.2868 32.7414C75.2516 32.8235 75.3454 33.2161 75.152 33.2395C72.1398 33.1106 69.2038 32.7414 66.385 32.5891Z" fill="#F9D5D3"/>
<path d="M20.9503 26.2835C24.9939 24.2969 29.2778 24.4376 33.462 25.3283C37.2009 26.1253 40.887 27.3208 44.4677 28.6863C51.4473 31.3468 58.5558 32.7006 66.2855 33.4565C66.936 33.4858 67.5513 33.562 68.0085 33.6089C68.319 33.6441 68.237 33.5737 68.7644 33.7613C70.1064 33.8785 71.173 33.9722 72.4681 34.0953C72.9838 34.025 73.4058 33.9429 73.5581 34.1188C70.0127 37.6935 65.1838 38.514 60.6303 37.84C53.9379 36.8555 47.8549 33.9957 41.6957 31.3703C36.568 29.1844 31.4813 26.852 25.7851 26.5355C24.1735 26.4476 22.5619 26.3656 20.9503 26.2835Z" fill="#D45561"/>
<path d="M71.2493 10.4546C71.8939 10.5952 72.6675 10.8121 73.4645 11.1989C74.2381 12.0955 74.6131 12.9687 75.3515 13.4785C78.8501 15.8812 81.622 18.7821 83.5149 22.5151C85.8238 27.0685 85.5308 31.8505 85.3316 36.656C85.0503 36.656 84.8862 36.6501 84.6987 36.6442C84.6752 36.6442 84.6518 36.6853 84.5756 36.5681C84.2298 36.3864 83.9603 36.3161 83.679 36.2692C83.6673 36.2868 83.7141 36.2809 83.6262 36.1637C83.2512 35.9703 82.964 35.8883 82.6358 35.8004C82.589 35.7886 82.5421 35.8648 82.4542 35.7418C82.1729 35.5542 81.9736 35.4898 81.7334 35.4019C81.6865 35.3726 81.6044 35.437 81.5165 35.3315C81.247 35.1674 81.0653 35.1147 80.825 35.0151C80.7723 34.9741 80.6316 34.9916 80.5086 34.8862C80.0749 34.6928 79.7584 34.6049 79.401 34.5052C79.3541 34.4935 79.3072 34.5638 79.2193 34.4466C78.9439 34.2767 78.7505 34.2239 78.4633 34.1185C78.2113 33.9895 78.0648 34.0012 77.848 33.9837C77.4202 33.6789 76.799 33.6848 76.4474 33.3097C76.4474 30.4909 76.9455 27.6487 76.6701 25.0409C76.1602 20.1358 73.9743 15.9164 69.7139 12.9101C67.698 11.4919 65.389 10.4429 63.2148 9.22394C64.3107 9.06571 65.3304 9.21222 66.3267 9.43491C67.9734 9.80997 69.6143 10.062 71.2493 10.4546Z" fill="#DA5561"/>
<path d="M75.0529 13.1972C73.5526 12.9687 68.3897 9.8041 67.0419 9.59313C66.1159 9.44662 65.1783 9.07742 64.1762 9.22979C66.157 10.4077 68.2667 11.4274 70.1009 12.8046C73.9804 15.7171 76.2367 19.8076 76.7055 24.5603C76.9516 27.0861 76.6059 30.573 76.4594 33.3156C76.0198 33.5324 75.4748 33.1808 75.1818 33.2042C75.1701 30.6316 75.5041 27.4846 75.2463 24.9354C74.5899 18.3836 71.232 13.6133 65.0376 11.2457C55.9776 7.7823 47.0173 7.34278 38.5491 13.0624C34.7517 15.6292 31.9211 19.6553 29.6415 23.7516C29.2547 23.7047 29.2547 23.7047 28.7917 23.5992C32.3372 15.3245 38.7015 9.85684 47.4919 8.02843C47.8201 7.89365 48.119 7.82918 48.4882 7.6944C49.0977 7.68854 49.5255 7.73542 50.1642 7.73542C53.3757 8.00499 56.3879 8.37419 59.4059 8.46209C60.115 8.47967 61.6563 9.81582 61.3867 7.30176C64.4106 7.95225 70.7983 9.95647 73.5116 11.1402C73.7988 11.2047 74.836 12.7342 75.0529 13.1972Z" fill="#AF3946"/>
<path d="M75.029 34.2769C73.4995 35.4021 71.5421 37.2657 69.8485 38.0217C64.6563 40.3365 59.3586 39.2816 54.3187 37.5411C48.2592 35.4431 42.3696 32.8529 36.398 30.4912C30.819 28.2819 24.5719 26.9105 18.3014 27.9947C18.7761 27.4438 19.995 26.8227 20.8037 26.3069C22.556 26.3773 24.1734 26.4535 25.785 26.5472C31.4812 26.8695 36.5679 29.1961 41.6957 31.382C47.849 34.0074 53.932 36.8672 60.6303 37.8517C65.1837 38.5198 69.8661 37.7169 73.5581 34.1304C74.0796 34.107 74.6774 34.1304 75.029 34.2769Z" fill="#B53844"/>
<path d="M22.0226 30.409C22.2394 30.3387 22.4562 30.2625 22.802 30.409C23.095 30.9481 23.2532 31.2763 23.2825 31.6279C22.9426 31.7862 22.7258 31.9092 22.4269 32.0909C22.2335 32.2257 22.1515 32.3253 21.9933 32.5128C21.7002 32.8176 21.501 33.0578 21.3076 33.2981C21.1611 33.4681 21.0204 33.6322 20.7626 33.9838C20.5926 34.3237 20.5282 34.476 20.4696 34.6343C20.4696 34.6343 20.4637 34.6577 20.3524 34.7105C20.1766 35.0035 20.1062 35.2379 20.0418 35.4781C20.0418 35.4781 20.0594 35.5075 19.9422 35.5661C19.7663 35.8708 19.7077 36.1169 19.6491 36.3631C19.5612 36.826 19.4733 37.2948 19.4265 37.8985C17.9965 37.3124 16.3557 36.5975 14.7734 35.777C14.5038 33.0461 15.1426 32.2902 18.3364 31.1708C19.2565 30.8895 19.0514 30.995 19.2565 30.8895C19.2565 30.8895 19.2565 30.8895 19.3971 30.8954C19.7195 30.8661 19.9011 30.8251 20.2527 30.8016C20.9618 30.6786 21.4893 30.5438 22.0226 30.409Z" fill="#E64C63"/>
<path d="M81.1416 16.7016C82.2199 18.7293 83.3216 20.6046 84.4351 22.6498C84.6167 23.564 84.8043 24.3024 84.9625 25.0467C85.7712 28.7269 86.785 32.9522 85.0738 36.0933C84.775 35.9644 84.605 35.8824 84.4409 35.7944C84.5112 31.1472 84.7808 26.5117 82.6711 22.0989C80.9423 18.4831 78.3697 15.6819 75.1875 13.3495C74.5136 12.8573 74.0858 11.9255 73.5115 11.1343C74.7304 11.568 75.9552 12.324 77.3207 13.1503" fill="#B7333F"/>
<path d="M26.9867 23.4412C29.8055 16.3854 35.197 11.6093 42.0945 8.94286C44.4679 8.02279 47.0699 7.54224 49.7598 7.09686C49.9532 7.36058 49.9649 7.62429 49.9708 7.72978C49.5254 7.73564 49.08 7.7415 48.3475 7.75322C47.8552 7.888 47.6501 8.02279 47.4508 8.15172C38.7835 9.97427 32.4661 15.3716 28.7975 23.5994" fill="#C9515E"/>
<path d="M83.7085 35.8356C83.7085 35.8356 83.9664 35.8825 83.7378 35.9762C83.6441 36.2458 83.5444 36.3337 83.3452 36.445C82.4896 36.281 81.7863 36.1051 80.9952 35.9352C80.9073 35.9352 80.7315 35.9352 80.6495 35.8356C80.333 35.6598 80.0986 35.5836 79.7821 35.396C78.235 34.6987 77.1509 35.5191 76.0315 38.1269C75.7444 38.5079 75.4455 38.9239 75.1525 39.381C74.8595 39.8381 74.5958 40.2835 74.3731 40.6996C73.9804 40.7465 73.5351 40.7758 73.0604 40.7758C72.6443 40.7758 72.2517 40.7582 71.9 40.723C71.9469 40.5824 72.0114 40.3246 71.9586 40.014C71.9352 39.8499 71.8825 39.7151 71.8356 39.6213C71.8942 39.5744 71.9528 39.5217 72.029 39.4748C72.2692 39.3107 72.4919 39.2345 72.4919 39.2345C72.6443 39.1642 72.8553 39.0411 73.0838 38.795C73.119 38.6544 73.2069 38.5606 73.5761 38.4668C73.9629 38.2441 74.1211 38.0625 74.2735 37.8808C74.2735 37.8808 74.3086 37.9453 74.4024 37.916C74.5782 37.7284 74.6544 37.5761 74.7364 37.4237C74.7364 37.3124 74.7892 37.2303 75.088 37.1248C75.3752 36.9314 75.4631 36.7849 75.551 36.6384C75.551 36.6384 75.5569 36.7029 75.6506 36.6736C75.8147 36.4978 75.885 36.3571 75.9495 36.2106C75.9495 36.2106 75.9671 36.2751 76.0667 36.2458C76.266 35.9762 76.3714 35.7477 76.4769 35.5132C76.4183 35.1265 76.3597 34.7338 76.1429 34.2298C75.8675 34.1595 75.7503 34.2064 75.633 34.2533C75.4631 34.3002 75.2932 34.3471 74.8947 34.2474C73.8867 34.1009 73.1014 34.1009 72.3161 34.0951C71.1499 34.0189 69.9779 33.9368 68.5831 33.7376C68.1202 33.6497 67.8916 33.6907 67.663 33.7259C67.3349 33.7259 66.6492 33.509 66.1628 33.4446C66.0104 33.134 66.3738 33.093 66.3738 32.7179C69.1926 32.7413 72.0055 32.8937 75.1349 33.1398C76.1546 33.2688 76.8637 33.3039 77.5728 33.3391C77.6959 33.2395 77.8307 33.2277 78.1412 33.4563C78.487 33.6731 78.657 33.7259 78.8269 33.7845" fill="#1B1416"/>
<path d="M49.9645 7.73557C49.7653 7.62423 49.7653 7.36637 49.7535 7.10266C52.7071 6.89169 55.9244 6.86825 59.1183 6.98546C60.0618 6.99718 60.3314 7.0675 61.0112 7.17884C61.2221 7.29019 61.4858 7.33121 61.8023 7.38981C62.2008 9.9449 60.1204 8.59118 59.4054 8.46811C56.3874 8.37435 53.1759 8.00515 49.9645 7.73557Z" fill="#C64653"/>
<path d="M14.6564 31.927C14.4688 33.0346 14.2579 34.2183 12.3123 33.5093C12.7459 32.8588 13.08 32.1614 13.707 31.675C14.1993 31.7336 14.4513 31.8977 14.6564 31.927Z" fill="#2B1113"/>
<path d="M64.276 68.395C63.8306 68.354 63.3794 68.313 62.852 68.143C63.3032 67.6683 63.8365 67.3226 64.528 66.9886C68.7005 66.549 71.4314 64.5038 72.5039 60.5364C73.5235 56.7565 71.2791 52.4843 67.9797 51.787C63.2153 49.689 60.2031 50.3453 57.4312 53.9377C54.0322 56.7272 53.9326 61.2279 57.0678 64.6796C57.0972 65.2891 57.103 65.7696 57.0151 66.1916C56.7221 66.0157 56.5287 65.9044 56.265 65.6641C55.5617 64.7616 54.923 63.9764 54.2608 63.0446C54.0088 62.2417 53.7802 61.5912 53.581 60.7884C53.5692 59.921 53.5224 59.2061 53.5634 58.3739C53.663 57.9754 53.6747 57.6883 53.7275 57.3015C53.7626 57.1198 53.7509 57.0436 53.8388 56.8502C54.4659 55.4438 54.9933 54.1604 55.6614 52.8301C60.6895 47.4035 66.497 46.7588 71.8123 50.7145C71.8182 50.7145 71.8006 50.7145 71.8299 50.861C72.6679 52.4902 73.4767 53.9787 74.2854 55.4672C74.3088 55.7427 74.3323 56.0181 74.385 56.61C74.1623 58.6025 73.9103 60.2785 73.6583 61.9546C73.5646 61.9956 73.5001 62.0659 73.3829 62.3296C73.2012 62.7457 73.1133 63.0036 73.0254 63.2556C73.0254 63.2556 73.0782 63.2614 72.9727 63.279C72.8086 63.4372 72.75 63.572 72.6972 63.7068C72.6972 63.7068 72.6972 63.7068 72.5976 63.7771C72.3808 64.0701 72.2636 64.287 72.1464 64.5097C70.734 65.5293 69.3217 66.5432 67.634 67.6801C66.333 67.9965 65.3074 68.1958 64.276 68.395Z" fill="#1F1614"/>
<path d="M87.7164 61.3456C86.4155 64.3343 82.7645 65.7056 79.0901 64.727C79.7464 62.4825 80.3969 60.238 81.0943 57.8411C83.4853 59.6168 81.358 61.117 81.024 62.6583C83.9834 62.4356 84.3351 60.0563 81.8913 55.9014C83.6846 56.3174 84.9973 56.4933 86.6616 57.0148C87.0894 57.0558 87.5289 60.0387 87.7164 61.3456Z" fill="#B97861"/>
<path d="M87.7169 61.3456C87.4004 60.1032 86.9902 58.685 86.8085 57.1906C86.1932 56.4698 85.8826 55.9072 85.1794 55.5556C84.2769 55.1044 83.1927 54.7879 82.2375 54.489C81.9679 51.6527 85.6599 50.7033 87.459 52.6723C89.4339 54.6531 90.0551 58.1459 87.7169 61.3456Z" fill="#CA856E"/>
<path d="M86.7678 27.983C86.8264 28.7273 86.9495 29.4305 86.9729 30.3095C87.0257 31.4582 87.0608 32.7181 87.0784 33.9078C87.0784 35.0447 86.7503 36.8965 86.0529 36.7441C85.5723 36.5918 85.4551 36.3222 85.209 36.1405C86.2756 32.4192 85.7775 28.7273 84.9687 25.047C84.8046 24.3027 84.4413 23.5643 84.3651 22.6501C84.5409 22.4743 85.2442 22.0348 85.3496 22.1755C85.6192 22.5915 85.5958 22.9256 85.8361 23.1951C85.8947 23.6112 86.088 24.2441 86.258 24.9298C86.5217 25.8323 86.4924 26.4066 86.6506 27.0395" fill="#C24F5C"/>
<path d="M81.0828 35.9351C81.0711 37.3708 80.8601 39.2754 80.7136 40.8753C80.4733 40.131 80.2155 38.8418 79.8697 37.7459C79.7173 37.5642 79.7701 37.324 79.7935 37.1774C80.1217 36.6676 80.4206 36.2574 80.7253 35.894C80.7312 35.894 80.9949 35.9351 81.0828 35.9351Z" fill="#120F17"/>
<path d="M85.0742 36.0936C85.4552 36.3221 85.7013 36.5038 86.0529 36.7382C85.5372 36.8027 84.9219 36.8495 84.1542 36.8612C84.0018 36.8671 84.0135 36.8085 83.9842 36.7089C83.8319 36.5389 83.7322 36.58 83.615 36.5155C83.615 36.5155 83.3806 36.4393 83.3572 36.4393C83.3748 36.3338 83.5974 36.2225 83.7088 35.9529C83.9256 35.8005 84.0721 35.8005 84.33 35.8005C84.6113 35.8826 84.7754 35.9646 85.0742 36.0936Z" fill="#1C1013"/>
<path d="M23.5639 44.456C24.1148 43.8759 24.6539 43.4832 25.0817 42.991C27.2911 40.4476 31.4636 40.1546 33.796 42.5514C30.69 41.438 27.8712 41.5317 25.6678 44.0517C24.6774 45.1886 24.1851 46.7591 23.4702 48.1363C23.1127 48.1011 22.7494 48.0718 22.2161 47.9898C22.5267 46.8294 23.0131 45.716 23.5639 44.456Z" fill="#BD8873"/>
<path d="M27.7955 31.3231C27.2446 31.8623 26.6762 32.4073 26.096 32.9523C25.469 33.5442 24.8419 34.1185 24.2207 34.6811C23.2831 34.6811 22.3982 34.4877 21.6949 34.3588C21.6949 34.3588 21.8649 34.0833 21.9645 33.9427C22.152 33.7376 22.2165 33.6497 22.3689 33.4621C22.5212 33.2805 23.2069 32.4835 23.6874 32.0498C24.3262 31.4638 25.2287 30.6375 26.3597 30.7137C26.6528 30.7371 27.1919 30.8367 27.7955 31.3231Z" fill="#435E87"/>
<path d="M21.7001 34.3647C22.5264 34.4116 23.2296 34.5405 24.0969 34.6695C24.3841 34.6929 24.7064 34.857 24.8353 35.027C23.5695 35.8943 22.0517 36.5799 20.1881 37.6993C20.7976 36.2576 21.1844 35.3493 21.7001 34.3647Z" fill="#20457A"/>
<path d="M18.9114 40.8171C18.7883 40.4479 18.7766 39.856 18.7824 39.3871C19.1809 39.604 19.7904 40.0904 20.183 40.4654C19.8666 40.5416 19.3567 40.7878 18.9114 40.8171Z" fill="#1C1013"/>
<path d="M83.8837 19.2273C84.3291 20.1767 84.8917 21.085 85.2843 22.1223C85.2082 22.2688 84.5459 22.6439 84.3584 22.6497C83.1453 20.7803 82.2135 18.7351 81.1294 16.7015" fill="#BA4C58"/>
<path d="M51.2254 68.5538C51.5419 68.4015 52.0166 68.6476 52.1045 68.7472L51.2254 68.5538ZM52.1045 68.7472C52.2451 70.5639 51.325 71.6129 49.6783 72.1931C46.4551 73.3241 43.3257 73.1014 40.3897 71.4019C38.2625 70.1713 38.0691 68.8117 39.6279 66.9071C43.4312 67.0478 47.1174 67.2997 51.0144 67.5517C51.2254 67.5517 51.202 67.5049 51.2371 67.6396M44.0055 71.4019C46.168 71.9645 49.2388 71.4137 49.5435 70.3061C49.4791 69.8548 49.4029 69.304 49.3677 69.0696C48.6117 69.0696 48.0374 69.0695 47.3694 68.7531C45.1366 68.507 42.9097 68.2374 40.671 68.085C40.6007 68.0792 40.1905 69.6439 40.3722 69.7552C41.4153 70.3705 42.5815 70.769 44.0055 71.4019Z" fill="#7B1928"/>
<path d="M33.6438 61.6737C33.4035 61.9022 33.1574 62.1308 32.712 62.4472C32.3663 62.5879 32.2901 62.6875 32.2725 62.8399C32.2725 62.8399 32.2725 62.7989 32.2491 62.7871C31.2763 62.7871 30.3152 62.8047 29.0728 62.7227C28.1586 62.3711 27.5257 62.1073 26.8986 61.8436C26.8224 61.6268 26.7463 61.41 26.5822 61.117C26.4767 60.7771 26.4591 60.5133 26.547 60.0269C26.6935 59.2944 26.7287 58.7904 26.9338 58.2864C27.8128 58.0403 28.5043 57.7238 29.231 57.5715C31.7041 57.044 33.4446 58.093 33.9779 60.5426C33.8079 60.9939 33.7259 61.3338 33.6438 61.6737ZM29.2779 60.3844C30.5086 60.5309 31.7392 60.6833 33.2863 60.8708C32.7589 58.597 31.4931 58.222 30.0339 58.2747C28.7329 58.3275 27.5491 58.6791 27.5081 60.5075C28.059 60.443 28.5102 60.3903 29.2779 60.3844Z" fill="#74ABC7"/>
<path d="M35.3026 46.6593C35.0096 46.3546 34.7459 46.1729 34.3826 45.8799C31.0246 43.7995 28.5633 44.0046 26.6118 46.4014C24.1271 49.4488 24.2033 55.1802 26.7642 58.292C26.729 58.796 26.6939 59.2999 26.5415 59.8977C25.7797 59.0597 25.1409 58.1279 24.4084 56.9558C24.2326 56.5749 24.1447 56.4343 24.0567 56.2936C23.8751 55.6431 23.6934 54.9868 23.5293 54.0257C23.4883 53.3986 23.4297 53.088 23.3711 52.7716C23.377 51.7753 23.3828 50.7732 23.4063 49.484C23.4063 49.1206 23.3945 49.0444 23.377 48.9741C23.4004 48.7866 23.4238 48.6049 23.459 48.2826C24.1915 46.7707 24.6779 45.1942 25.6683 44.0573C27.8718 41.5374 30.6906 41.4436 33.8024 42.7095C34.2361 42.9322 34.4998 43.1549 34.8807 43.4947C34.992 43.6178 35.1151 43.735 35.1151 43.735L35.2792 43.7116C35.5898 44.0573 35.8945 44.409 36.3751 44.9422C36.9318 45.7392 37.471 46.3018 37.6761 46.9699C38.2211 48.7397 38.6254 50.5505 39.0532 52.4493C39.0474 52.6192 39.0708 52.6895 39.065 52.9357C38.9595 54.1077 38.8891 55.0981 38.7426 56.2057C38.4262 57.0789 38.18 57.829 37.8695 58.6202C37.7347 58.7432 37.7054 58.8428 37.5882 59.0187C36.5861 59.9504 35.7011 60.8119 34.8221 61.6734C34.5232 61.6616 34.2302 61.6499 33.7848 61.6558C33.7204 61.3335 33.8024 60.9936 34.113 60.5072C35.203 59.3644 36.0703 58.3682 37.0666 57.2899C37.4417 56.2936 37.6878 55.3853 37.9984 54.3363C37.553 52.1738 37.0432 50.1579 36.504 48.0306" fill="#181311"/>
<path d="M76.3771 35.5663C76.3829 35.7422 76.2775 35.9766 76.043 36.2344C76.0255 36.0527 76.1485 35.8359 76.3771 35.5663Z" fill="#1C1013"/>
<path d="M74.1673 37.9162C74.1263 38.0627 73.9681 38.2502 73.6809 38.4436C73.7161 38.2913 73.8802 38.1213 74.1673 37.9162Z" fill="#1C1013"/>
<path d="M75.7439 34.2826C75.7556 34.2065 75.8728 34.1596 76.0252 34.1889C75.99 34.2768 75.9197 34.2944 75.7439 34.2826Z" fill="#1C1013"/>
<path d="M74.6306 37.4825C74.6658 37.5762 74.5838 37.7286 74.3728 37.922C74.3376 37.8165 74.4255 37.6817 74.6306 37.4825Z" fill="#1C1013"/>
<path d="M75.4393 36.6855C75.4686 36.7852 75.3807 36.9317 75.1697 37.1134C75.1345 37.0079 75.2283 36.8672 75.4393 36.6855Z" fill="#1C1013"/>
<path d="M75.8498 36.2518C75.8908 36.3515 75.8205 36.4921 75.6271 36.6562C75.5802 36.5507 75.6622 36.4218 75.8498 36.2518Z" fill="#1C1013"/>
<path d="M72.9605 38.8359C72.9722 38.9297 72.8492 39.0645 72.5913 39.2286C72.5796 39.129 72.7085 39 72.9605 38.8359Z" fill="#1C1013"/>
<path d="M57.1674 66.6373C57.1674 66.6373 57.1381 66.4439 57.1263 66.3443C57.1088 65.7642 57.097 65.2895 57.1791 64.6331C57.3783 64.3577 57.4897 64.2522 57.6948 64.1995C57.894 64.3401 57.9702 64.4573 58.0054 64.7386C58.2749 65.1781 58.5445 65.477 58.9547 65.8462C60.6484 66.274 62.1369 67.909 63.9301 66.192C64.1411 66.2154 64.2231 66.2271 64.3169 66.3619C64.3404 66.6549 64.3579 66.819 64.3755 66.989C63.8422 67.3347 63.3089 67.6746 62.6936 68.1259C61.4747 68.1024 60.3378 67.9735 58.9547 67.7215C58.1929 67.2761 57.6772 66.9538 57.1674 66.6373Z" fill="#6AA3BF"/>
<path d="M55.661 52.8305C56.124 50.041 58.222 48.4704 60.6716 47.7144C64.4104 46.5541 68.0907 47.0698 71.308 49.5487C71.56 49.7421 71.6596 50.123 71.8178 50.5684C66.5026 46.7592 60.6891 47.4038 55.661 52.8305Z" fill="#C98C75"/>
<path d="M53.5626 58.3745C53.4805 58.1987 53.4864 57.9116 53.586 57.5131C53.6739 57.6889 53.6622 57.976 53.5626 58.3745Z" fill="#DC9F83"/>
<path d="M83.6144 36.5155C83.714 36.4745 84.0012 36.6093 84.0187 36.8086C83.925 36.8437 83.7667 36.6855 83.6144 36.5155Z" fill="#1B1416"/>
<path d="M35.2559 43.6475C35.2793 43.7119 35.1152 43.7295 35.1152 43.7295C35.1152 43.7295 34.998 43.6182 35.0039 43.5361C35.1094 43.4658 35.1797 43.5068 35.2559 43.6475Z" fill="#BD8873"/>
<path d="M43.6888 71.2611C42.5695 70.7864 41.415 70.3645 40.3778 69.7492C40.1961 69.6437 40.6005 68.0731 40.6766 68.079C42.9153 68.2314 46.9706 68.5127 48.9279 69.0694C47.3046 69.38 43.6419 68.6533 43.6888 71.2611Z" fill="#94304D"/>
<path d="M43.6884 71.2611C43.495 68.5653 45.6164 69.251 47.2924 69.0986C48.0425 69.0693 48.6169 69.0693 49.3728 69.0693C49.408 69.3037 49.4842 69.8546 49.5486 70.3059C49.238 71.4135 45.8274 72.357 43.6884 71.2611Z" fill="#C44E97"/>
<path d="M42.2706 64.0647C42.3351 63.5021 42.5461 62.9688 42.8215 62.3359C44.603 61.5272 46.1443 61.4041 47.1464 63.5607C47.2226 63.7775 47.2284 63.8537 47.164 64.1292C47.0936 64.3284 47.1171 64.5335 47.1171 64.5335C47.0995 64.6039 47.0761 64.6742 47.0292 64.8441C45.6286 63.8186 44.1928 63.0157 42.2706 64.0647Z" fill="#352018"/>
<path d="M32.3602 62.8106C32.2841 62.6934 32.3661 62.5879 32.6005 62.5176C32.6532 62.6231 32.5712 62.7168 32.3602 62.8106Z" fill="#EFB99D"/>
<path d="M29.1201 60.3607C28.5107 60.39 28.0594 60.4486 27.5085 60.5131C27.5554 58.6847 28.7333 58.3272 30.0343 58.2803C31.4935 58.2217 32.7594 58.6026 33.2868 60.8764C31.7397 60.683 30.509 60.5307 29.1201 60.3607Z" fill="#BFE4F5"/>
<path d="M39.0526 52.4498C39.1288 52.4557 39.1757 52.567 39.1581 52.7135C39.0761 52.6901 39.0526 52.6198 39.0526 52.4498Z" fill="#E8B295"/>
<path d="M63.8014 66.1742C62.1312 67.9088 60.6427 66.2738 59.037 65.7347C60.4435 65.2424 61.8909 64.9377 63.4791 64.6915C63.6783 65.2248 63.7369 65.6995 63.8014 66.1742Z" fill="#A3D7F3"/>
<path d="M63.9241 66.1919C63.7365 65.6996 63.6721 65.2249 63.3498 64.5979C61.3631 63.4434 59.6578 63.2266 57.9993 64.592C57.9583 64.4572 57.8821 64.34 57.6829 64.1994C58.9663 62.1483 60.8533 62.7929 62.6407 63.2441C64.012 63.5958 64.7445 64.51 64.387 66.1274C64.2171 66.227 64.135 66.2153 63.9241 66.1919Z" fill="#79B0C9"/>
<path d="M57.9994 64.7389C59.6637 63.2269 61.3691 63.4496 63.2209 64.5396C61.8965 64.9381 60.4431 65.2429 58.9019 65.659C58.5385 65.4773 58.2631 65.1784 57.9994 64.7389Z" fill="#D1EBF8"/>
<path d="M47.1748 64.5044C47.1162 64.5337 47.0927 64.3286 47.1455 64.2407C47.3154 64.2524 47.3271 64.3579 47.1748 64.5044Z" fill="#DC9F83"/>
<path d="M23.8338 29.9755C26.0958 30.585 29.4772 31.5285 33.5677 32.8178C36.322 33.6851 38.0391 34.277 40.3305 35.0505C49.619 38.1858 54.2311 40.1959 56.3232 40.149C57.5363 40.1197 71.8354 39.6274 71.8354 39.6274L74.2147 40.5299C72.0054 40.735 68.8291 40.9811 64.9906 41.1101C62.6054 41.1863 58.9369 41.3093 56.0888 41.1452C47.9957 40.6881 45.3 37.8693 33.2923 34.4059C30.9599 33.732 27.684 32.8646 23.6755 32.0559L23.7576 30.8721L23.8338 29.9755Z" fill="#1B1416"/>
<path d="M14.3695 30.7139L17.3465 30.1279L23.8339 29.9755V30.7784L15.1489 32.0969L14.3929 34.5231L12.5235 35.1267L12.1719 33.2104C12.1719 33.2104 12.2246 33.2456 12.3125 33.2925" fill="#1C1013"/>
<path d="M83.4275 18.8115C83.4275 18.8115 85.9357 22.3746 86.5452 26.301C87.1546 30.2274 87.0784 33.9077 87.0784 33.9077L87.8813 33.8198C87.8813 33.8198 88.7721 24.8359 83.4627 17.4637" fill="#1B1416"/>
<path d="M29.5004 18.4834L26.998 23.3826L23.8335 23.9159H23.2826L22.4739 23.9921L26.4354 18.753" fill="#1C1013"/>
<path d="M81.528 35.6715C81.4401 35.6422 81.2291 35.5601 81.0533 35.6539C80.7954 35.7945 80.8013 36.2282 80.7896 36.6032C80.7544 37.4764 80.4965 38.332 80.3735 39.1994C80.2739 39.8967 80.2328 40.0725 80.1625 40.5238C79.8754 42.4225 79.9281 43.4715 79.8226 44.5557C79.512 47.6909 77.9063 50.5332 77.4551 51.336C76.9101 52.303 76.2947 53.1937 76.5467 53.4574C76.7635 53.6801 77.8125 52.6311 78.211 52.93C78.4161 53.0824 78.3869 53.5336 78.3107 53.7856C78.2345 54.0552 78.1114 54.0904 77.959 54.4068C77.8594 54.6061 77.6426 55.0456 77.7715 55.4148C77.9356 55.9012 78.6388 56.1122 79.1487 56.0946C79.7582 56.0711 80.1801 55.7137 80.4086 55.5144C81.1588 54.8639 81.4108 54.02 81.5338 53.645C82.1902 51.6408 82.7176 51.8341 83.5673 49.6717C83.79 49.1032 83.8545 48.8278 84.5753 45.1769C84.9152 43.4657 85.5247 40.2601 85.132 37.5526C85.0734 37.1307 85.091 36.5036 84.6281 36.3395C83.4267 35.9176 82.8172 36.1403 81.528 35.6715Z" fill="#20457A"/>
<path d="M29.6587 52.1389C30.9857 52.1389 32.0614 50.9844 32.0614 49.5603C32.0614 48.1363 30.9857 46.9818 29.6587 46.9818C28.3317 46.9818 27.256 48.1363 27.256 49.5603C27.256 50.9844 28.3317 52.1389 29.6587 52.1389Z" fill="#FDFDFD"/>
<path d="M67.1763 58.474C68.5033 58.474 69.579 57.3195 69.579 55.8954C69.579 54.4713 68.5033 53.3169 67.1763 53.3169C65.8493 53.3169 64.7736 54.4713 64.7736 55.8954C64.7736 57.3195 65.8493 58.474 67.1763 58.474Z" fill="#FDFDFD"/>
</g>
</svg>
