<?xml version="1.0" encoding="utf-8"?>
<!-- Generator: Adobe Illustrator 24.3.0, SVG Export Plug-In . SVG Version: 6.00 Build 0)  -->
<svg version="1.1" xmlns="http://www.w3.org/2000/svg" xmlns:xlink="http://www.w3.org/1999/xlink" x="0px" y="0px"
	 viewBox="0 0 841.89 595.28" style="enable-background:new 0 0 841.89 595.28;" xml:space="preserve">
<style type="text/css">
	.st0{fill:#009640;}
	.st1{fill:none;stroke:#FFFFFF;stroke-width:2.1953;stroke-linecap:round;stroke-linejoin:round;}
	.st2{fill:none;stroke:#FFFFFF;stroke-width:2.1953;stroke-linecap:round;stroke-linejoin:round;stroke-dasharray:3.3319,6.6638;}
	.st3{fill:none;stroke:#FFFFFF;stroke-width:2.1953;stroke-linecap:round;stroke-linejoin:round;stroke-dasharray:3.2611,6.5221;}
	.st4{fill:none;stroke:#FFFFFF;stroke-width:2.1953;stroke-linecap:round;stroke-linejoin:round;stroke-dasharray:3.3608,6.7216;}
	.st5{fill:none;stroke:url(#SVGID_1_);stroke-width:3.2929;stroke-linecap:round;stroke-linejoin:round;stroke-miterlimit:10;}
	.st6{fill:#FFFFFF;}
	.st7{fill:#FFFFFF;stroke:#000000;stroke-width:13;stroke-miterlimit:10;}
	.st8{fill:#B04E98;}
	.st9{display:none;}
	.st10{display:inline;fill:#F18B8F;}
	.st11{display:none;fill:#7ACCEB;}
	.st12{opacity:0.3;fill:#FFFFFF;}
	.st13{fill:none;stroke:#000000;stroke-width:13;stroke-miterlimit:10;}
	.st14{fill:#C06CA9;}
	.st15{fill:#632D59;}
	.st16{fill:#010202;}
	.st17{opacity:0.6;fill:#FFFFFF;}
	.st18{fill:#68B42E;}
	.st19{fill:#9CC42E;}
	.st20{fill:#3E6429;}
	.st21{fill:#944545;}
	.st22{fill:#AB6666;}
	.st23{fill:#492423;}
	.st24{display:inline;}
	.st25{fill:#CDCCCC;}
	.st26{fill:#B4B4B4;}
	.st27{display:inline;opacity:0.75;}
	.st28{fill:#80BC49;}
	.st29{display:inline;opacity:0.56;}
	.st30{display:inline;opacity:0.47;}
	.st31{fill:#E5E6E7;}
	.st32{fill:#2F9B86;}
	.st33{fill:#36B4A3;}
	.st34{opacity:0.58;}
	.st35{fill:#B5549A;}
	.st36{fill:#94387E;}
	.st37{fill:#D1D137;}
	.st38{fill:#F3EC84;}
	.st39{fill:#F0F1F1;}
	.st40{fill:#5855A0;}
	.st41{fill:#3A6994;}
	.st42{fill:#54AF8C;}
	.st43{fill:#2CAD73;}
	.st44{fill:#272626;}
	.st45{fill:#F6A117;}
	.st46{fill:#FABB5F;}
	.st47{fill:#895C1F;}
</style>
<g id="Camada_1">
</g>
<g id="Camada_2">
</g>
<g id="Camada_3">
</g>
<g id="Camada_7">
</g>
<g id="Camada_8">
	<g>
		<g>
			<g>
				<g>
					<g>
						<g>
							<g>
								<g>
									<g>
										<path class="st6" d="M486.77,208.92v199.75c0,42.2-34.21,76.42-76.42,76.42H295.52c-42.2,0-76.42-34.21-76.42-76.42V209.1
											c0-7.51-6.09-13.6-13.6-13.6l0,0c-15.4,0-27.88-12.48-27.88-27.88v-0.37c0-15.4,12.48-27.88,27.88-27.88h297.66
											c15.4,0,27.89,12.49,27.88,27.89v0.16c0,15.26-12.27,27.68-27.53,27.87l-3.31,0.04
											C492.76,195.42,486.77,201.48,486.77,208.92z"/>
									</g>
								</g>
							</g>
						</g>
					</g>
				</g>
			</g>
		</g>
	</g>
	<g>
		<g>
			<g>
				<g>
					<g>
						<g>
							<g>
								<g>
									<g>
										<path class="st31" d="M503.15,139.35H354.82v345.74h55.54c42.2,0,76.42-34.21,76.42-76.42V208.92
											c0-7.44,5.98-13.51,13.43-13.6l3.31-0.04c15.26-0.2,27.52-12.62,27.52-27.87l0-0.16
											C531.04,151.84,518.55,139.35,503.15,139.35z"/>
									</g>
								</g>
							</g>
						</g>
					</g>
				</g>
			</g>
		</g>
	</g>
	<g>
		<g>
			<g>
				<g>
					<g>
						<g>
							<g>
								<g>
									<g>
										<path class="st32" d="M224.77,293.16v114.42c0,39.68,31.41,71.84,70.15,71.84h105.41c38.74,0,70.15-32.16,70.15-71.84
											V293.16H224.77z"/>
									</g>
								</g>
							</g>
						</g>
					</g>
				</g>
			</g>
		</g>
	</g>
	<g>
		<g>
			<g>
				<g>
					<g>
						<g>
							<g>
								<g>
									<g>
										<path class="st33" d="M354.82,293.16v186.26h54.73c42.65,0,77.22-32.16,77.22-71.84V293.16H354.82z"/>
									</g>
								</g>
							</g>
						</g>
					</g>
				</g>
			</g>
		</g>
	</g>
	<g class="st34">
		<g>
			<g>
				<g>
					<g>
						<g>
							<g>
								<g>
									<g>
										<path class="st6" d="M428.08,450.08c-1.5,0-2.96-0.74-3.83-2.1c-1.35-2.11-0.73-4.92,1.38-6.27
											c19.1-12.18,27.61-28.46,27.61-52.77v-38.18c0-2.5,2.03-4.54,4.54-4.54c2.5,0,4.54,2.03,4.54,4.54v38.18
											c0,27.38-10.11,46.58-31.8,60.42C429.76,449.85,428.91,450.08,428.08,450.08z"/>
									</g>
								</g>
							</g>
						</g>
					</g>
				</g>
			</g>
		</g>
	</g>
	<g>
		<g>
			<g>
				<g>
					<g>
						<g>
							<g>
								<g>
									<g>
										<path class="st16" d="M410.35,490.76H295.52c-45.26,0-82.09-36.82-82.09-82.09V209.1c0-4.37-3.56-7.93-7.93-7.93
											c-18.5,0-33.55-15.05-33.55-33.55v-0.37c0-18.5,15.05-33.55,33.55-33.55h297.65c8.96,0,17.39,3.49,23.73,9.83
											c6.34,6.34,9.83,14.77,9.83,23.73c0,18.42-14.86,33.47-33.12,33.71l-3.31,0.04c-4.32,0.06-7.83,3.61-7.83,7.93v199.75
											C492.44,453.94,455.62,490.76,410.35,490.76z M205.5,145.03c-12.25,0-22.21,9.96-22.21,22.21v0.37
											c0,12.25,9.96,22.21,22.21,22.21c10.63,0,19.27,8.65,19.27,19.27v199.57c0,39.01,31.74,70.75,70.75,70.75h114.84
											c39.01,0,70.75-31.74,70.75-70.75V208.92c0-10.49,8.54-19.14,19.03-19.27l3.31-0.04c12.09-0.15,21.92-10.12,21.93-22.21
											c0-6.09-2.31-11.67-6.5-15.87c-4.2-4.19-9.78-6.51-15.71-6.51H205.5z"/>
									</g>
								</g>
							</g>
						</g>
					</g>
				</g>
			</g>
		</g>
	</g>
	<g>
		<g>
			<g>
				<g>
					<g>
						<g>
							<g>
								<g>
									<g>
										<path class="st16" d="M390.73,289.79c-0.78,0-1.58-0.16-2.34-0.51c-2.85-1.29-4.12-4.65-2.82-7.5l90.7-199.97
											c1.29-2.85,4.65-4.12,7.5-2.82c2.85,1.29,4.12,4.65,2.82,7.5l-90.7,199.97C394.95,288.55,392.89,289.79,390.73,289.79z"/>
									</g>
								</g>
							</g>
						</g>
					</g>
				</g>
			</g>
		</g>
	</g>
	<g>
		<g>
			<g>
				<g>
					<g>
						<g>
							<g>
								<g>
									<g>
										<path class="st16" d="M321.91,189.8H274.7c-3.13,0-5.67-2.54-5.67-5.67c0-3.13,2.54-5.67,5.67-5.67h47.21
											c3.13,0,5.67,2.54,5.67,5.67C327.58,187.26,325.04,189.8,321.91,189.8z"/>
									</g>
								</g>
							</g>
						</g>
					</g>
				</g>
			</g>
		</g>
	</g>
	<g>
		<g>
			<g>
				<g>
					<g>
						<g>
							<g>
								<g>
									<g>
										<path class="st16" d="M321.91,235.11H274.7c-3.13,0-5.67-2.54-5.67-5.67s2.54-5.67,5.67-5.67h47.21
											c3.13,0,5.67,2.54,5.67,5.67S325.04,235.11,321.91,235.11z"/>
									</g>
								</g>
							</g>
						</g>
					</g>
				</g>
			</g>
		</g>
	</g>
	<g>
		<g>
			<g>
				<g>
					<g>
						<g>
							<g>
								<g>
									<g>
										<path class="st16" d="M321.91,280.42H274.7c-3.13,0-5.67-2.54-5.67-5.67s2.54-5.67,5.67-5.67h47.21
											c3.13,0,5.67,2.54,5.67,5.67S325.04,280.42,321.91,280.42z"/>
									</g>
								</g>
							</g>
						</g>
					</g>
				</g>
			</g>
		</g>
	</g>
	<g>
		<g>
			<g>
				<g>
					<g>
						<g>
							<g>
								<g>
									<g>
										<path class="st16" d="M321.91,325.74H274.7c-3.13,0-5.67-2.54-5.67-5.67c0-3.13,2.54-5.67,5.67-5.67h47.21
											c3.13,0,5.67,2.54,5.67,5.67C327.58,323.2,325.04,325.74,321.91,325.74z"/>
									</g>
								</g>
							</g>
						</g>
					</g>
				</g>
			</g>
		</g>
	</g>
	<g>
		<g>
			<g>
				<g>
					<g>
						<g>
							<g>
								<g>
									<g>
										<path class="st16" d="M321.91,371.05H274.7c-3.13,0-5.67-2.54-5.67-5.67c0-3.13,2.54-5.67,5.67-5.67h47.21
											c3.13,0,5.67,2.54,5.67,5.67C327.58,368.51,325.04,371.05,321.91,371.05z"/>
									</g>
								</g>
							</g>
						</g>
					</g>
				</g>
			</g>
		</g>
	</g>
	<g>
		<g>
			<g>
				<g>
					<g>
						<g>
							<g>
								<g>
									<g>
										<path class="st16" d="M321.91,416.36H274.7c-3.13,0-5.67-2.54-5.67-5.67c0-3.13,2.54-5.67,5.67-5.67h47.21
											c3.13,0,5.67,2.54,5.67,5.67C327.58,413.82,325.04,416.36,321.91,416.36z"/>
									</g>
								</g>
							</g>
						</g>
					</g>
				</g>
			</g>
		</g>
	</g>
	
		<rect x="276.29" y="257.79" transform="matrix(0.9978 -0.0665 0.0665 0.9978 -20.1283 24.2625)" class="st16" width="156.08" height="113.28"/>
	<g>
		<g>
			<path class="st6" d="M356.62,336.61c-13.63,0.91-20.94-6.17-21.95-21.24c-0.48-7.14,0.87-12.79,4.05-16.94
				c3.18-4.15,7.89-6.43,14.15-6.85c3.03-0.2,5.69,0.1,8,0.91c2.31,0.81,4.04,2.06,5.18,3.76l-4.27,4.84
				c-1.02-1.34-2.27-2.34-3.75-3.01c-1.48-0.67-3.06-0.94-4.72-0.83c-3.97,0.26-7.06,1.91-9.27,4.93
				c-2.21,3.02-3.14,7.17-2.78,12.44c0.77,11.49,6.11,16.9,16.03,16.24c2.98-0.2,5.89-1.01,8.71-2.44l1.78,5.34
				C364.29,335.4,360.57,336.35,356.62,336.61z"/>
		</g>
	</g>
</g>
<g id="Camada_9">
</g>
<g id="Camada_10">
</g>
<g id="Camada_11">
</g>
<g id="Camada_12">
</g>
<g id="Camada_4">
</g>
<g id="Camada_5">
</g>
<g id="Camada_6">
</g>
</svg>
