<?xml version="1.0" encoding="utf-8"?>
<!-- Generator: Adobe Illustrator 24.3.0, SVG Export Plug-In . SVG Version: 6.00 Build 0)  -->
<svg version="1.1" xmlns="http://www.w3.org/2000/svg" xmlns:xlink="http://www.w3.org/1999/xlink" x="0px" y="0px"
	 viewBox="0 0 841.89 595.28" style="enable-background:new 0 0 841.89 595.28;" xml:space="preserve">
<style type="text/css">
	.st0{fill:#009640;}
	.st1{fill:none;stroke:#FFFFFF;stroke-width:2.1953;stroke-linecap:round;stroke-linejoin:round;}
	.st2{fill:none;stroke:#FFFFFF;stroke-width:2.1953;stroke-linecap:round;stroke-linejoin:round;stroke-dasharray:3.3319,6.6638;}
	.st3{fill:none;stroke:#FFFFFF;stroke-width:2.1953;stroke-linecap:round;stroke-linejoin:round;stroke-dasharray:3.2611,6.5221;}
	.st4{fill:none;stroke:#FFFFFF;stroke-width:2.1953;stroke-linecap:round;stroke-linejoin:round;stroke-dasharray:3.3608,6.7216;}
	.st5{fill:none;stroke:url(#SVGID_1_);stroke-width:3.2929;stroke-linecap:round;stroke-linejoin:round;stroke-miterlimit:10;}
	.st6{fill:#FFFFFF;}
	.st7{fill:#FFFFFF;stroke:#000000;stroke-width:13;stroke-miterlimit:10;}
	.st8{fill:#B04E98;}
	.st9{display:none;}
	.st10{display:inline;fill:#F18B8F;}
	.st11{display:none;fill:#7ACCEB;}
	.st12{opacity:0.3;fill:#FFFFFF;}
	.st13{fill:none;stroke:#000000;stroke-width:13;stroke-miterlimit:10;}
	.st14{fill:#C06CA9;}
	.st15{fill:#632D59;}
	.st16{fill:#010202;}
	.st17{opacity:0.6;fill:#FFFFFF;}
	.st18{fill:#68B42E;}
	.st19{fill:#9CC42E;}
	.st20{fill:#3E6429;}
	.st21{fill:#944545;}
	.st22{fill:#AB6666;}
	.st23{fill:#492423;}
	.st24{display:inline;}
	.st25{fill:#CDCCCC;}
	.st26{fill:#B4B4B4;}
	.st27{display:inline;opacity:0.75;}
	.st28{fill:#80BC49;}
	.st29{display:inline;opacity:0.56;}
	.st30{display:inline;opacity:0.47;}
	.st31{fill:#E5E6E7;}
	.st32{fill:#2F9B86;}
	.st33{fill:#36B4A3;}
	.st34{opacity:0.58;}
	.st35{fill:#B5549A;}
	.st36{fill:#94387E;}
	.st37{fill:#D1D137;}
	.st38{fill:#F3EC84;}
	.st39{fill:#F0F1F1;}
	.st40{fill:#5855A0;}
	.st41{fill:#3A6994;}
	.st42{fill:#54AF8C;}
	.st43{fill:#2CAD73;}
	.st44{fill:#272626;}
	.st45{fill:#F6A117;}
	.st46{fill:#FABB5F;}
	.st47{fill:#895C1F;}
</style>
<g id="Camada_1">
</g>
<g id="Camada_2">
</g>
<g id="Camada_3">
</g>
<g id="Camada_7">
</g>
<g id="Camada_8">
</g>
<g id="Camada_9">
	<g>
		<g>
			<g>
				<g>
					<g>
						<g>
							<g>
								<g>
									<g>
										<g>
											<g>
												<g>
													<path class="st6" d="M521.5,203.38c0-9.74-20.9-17.64-46.69-17.64c-25.78,0-46.69,7.9-46.69,17.64
														c0,6.18,8.41,11.61,21.14,14.77v17.59c-7.79-3.62-16.03-6.43-24.62-8.31v-75.79c12.73-3.15,21.14-8.59,21.14-14.77
														c0-9.74-20.9-17.64-46.69-17.64c-25.78,0-46.69,7.9-46.69,17.64c0,6.18,8.41,11.61,21.14,14.77v75.79
														c-8.63,1.89-16.91,4.71-24.73,8.36v-17.64c12.73-3.15,21.14-8.59,21.14-14.77c0-9.74-20.9-17.64-46.69-17.64
														c-25.78,0-46.69,7.9-46.69,17.64c0,6.18,8.41,11.61,21.14,14.77v63.14c-11.2,18.15-17.67,39.53-17.67,62.43
														c0,65.75,53.3,119.04,119.04,119.04c65.75,0,119.04-53.3,119.04-119.04c0-22.97-6.51-44.41-17.78-62.6v-62.96
														C513.09,215,521.5,209.56,521.5,203.38z"/>
												</g>
											</g>
										</g>
									</g>
								</g>
							</g>
						</g>
					</g>
				</g>
			</g>
		</g>
	</g>
	<g>
		<g>
			<g>
				<g>
					<g>
						<g>
							<g>
								<g>
									<g>
										<g>
											<g>
												<g>
													<path class="st31" d="M521.5,203.38c0-9.74-20.9-17.64-46.69-17.64c-25.79,0-46.69,7.9-46.69,17.64
														c0,6.18,8.41,11.61,21.14,14.77v17.59c-7.79-3.62-16.03-6.43-24.62-8.31v-75.79c12.73-3.15,21.14-8.59,21.14-14.77
														c0-9.63-20.41-17.45-45.76-17.64v343.51c65.32-0.5,118.12-53.59,118.12-119.03c0-22.97-6.51-44.41-17.78-62.6v-62.96
														C513.09,215,521.5,209.56,521.5,203.38z"/>
												</g>
											</g>
										</g>
									</g>
								</g>
							</g>
						</g>
					</g>
				</g>
			</g>
		</g>
	</g>
	<g>
		<g>
			<g>
				<g>
					<g>
						<g>
							<g>
								<g>
									<g>
										<g>
											<g>
												<g>
													<path class="st35" d="M283.72,346.19c0.51,62.3,49.61,112.64,110.1,112.64c60.49,0,109.59-50.34,110.1-112.64H283.72z"
														/>
												</g>
											</g>
										</g>
									</g>
								</g>
							</g>
						</g>
					</g>
				</g>
			</g>
		</g>
	</g>
	<g>
		<g>
			<g>
				<g>
					<g>
						<g>
							<g>
								<g>
									<g>
										<g>
											<g>
												<g>
													<path class="st36" d="M400.02,346.19v116.56c64.7-0.68,117.01-52.51,117.56-116.56H400.02z"/>
												</g>
											</g>
										</g>
									</g>
								</g>
							</g>
						</g>
					</g>
				</g>
			</g>
		</g>
	</g>
	<g>
		<g>
			<g>
				<g>
					<g>
						<g>
							<g>
								<g>
									<g>
										<g>
											<g>
												<g>
													<circle class="st36" cx="414.14" cy="316.22" r="8.52"/>
												</g>
											</g>
										</g>
									</g>
								</g>
							</g>
						</g>
					</g>
				</g>
			</g>
		</g>
	</g>
	<g>
		<g>
			<g>
				<g>
					<g>
						<g>
							<g>
								<g>
									<g>
										<g>
											<g>
												<g>
													<circle class="st36" cx="375.14" cy="279.47" r="8.43"/>
												</g>
											</g>
										</g>
									</g>
								</g>
							</g>
						</g>
					</g>
				</g>
			</g>
		</g>
	</g>
	<g>
		<g>
			<g>
				<g>
					<g>
						<g>
							<g>
								<g>
									<g>
										<g>
											<g>
												<g>
													<circle class="st35" cx="440.58" cy="266.92" r="6.72"/>
												</g>
											</g>
										</g>
									</g>
								</g>
							</g>
						</g>
					</g>
				</g>
			</g>
		</g>
	</g>
	<g>
		<g>
			<g>
				<g>
					<g>
						<g>
							<g>
								<g>
									<g>
										<g>
											<g>
												<g>
													<circle class="st36" cx="386.26" cy="234.74" r="6.19"/>
												</g>
											</g>
										</g>
									</g>
								</g>
							</g>
						</g>
					</g>
				</g>
			</g>
		</g>
	</g>
	<g>
		<g>
			<g>
				<g>
					<g>
						<g>
							<g>
								<g>
									<g>
										<g>
											<g>
												<g>
													<circle class="st36" cx="484.05" cy="303.67" r="4.03"/>
												</g>
											</g>
										</g>
									</g>
								</g>
							</g>
						</g>
					</g>
				</g>
			</g>
		</g>
	</g>
	<g>
		<g>
			<g>
				<g>
					<g>
						<g>
							<g>
								<g>
									<g>
										<g>
											<g>
												<g>
													<circle class="st35" cx="327.19" cy="299.64" r="4.03"/>
												</g>
											</g>
										</g>
									</g>
								</g>
							</g>
						</g>
					</g>
				</g>
			</g>
		</g>
	</g>
	<g>
		<g>
			<g>
				<g>
					<g>
						<g>
							<g>
								<g>
									<g>
										<g>
											<g>
												<g>
													<circle class="st35" cx="317.33" cy="244.51" r="3.59"/>
												</g>
											</g>
										</g>
									</g>
								</g>
							</g>
						</g>
					</g>
				</g>
			</g>
		</g>
	</g>
	<g>
		<g>
			<g>
				<g>
					<g>
						<g>
							<g>
								<g>
									<g>
										<g>
											<g>
												<g>
													<path class="st35" d="M477.27,228.38c0-1.52,1.23-2.75,2.75-2.75c1.52,0,2.75,1.23,2.75,2.75s-1.23,2.75-2.75,2.75
														C478.5,231.12,477.27,229.89,477.27,228.38z"/>
												</g>
											</g>
										</g>
									</g>
								</g>
							</g>
						</g>
					</g>
				</g>
			</g>
		</g>
	</g>
	<g>
		<g>
			<g>
				<g>
					<g>
						<g>
							<g>
								<g>
									<g>
										<g>
											<g>
												<g>
													<path class="st16" d="M399.1,466.68c-67.81,0-122.97-55.16-122.97-122.97c0-22.46,6.11-44.41,17.67-63.54v-59.02
														c-13.48-3.9-21.14-10.3-21.14-17.78c0-14.01,26.08-21.57,50.61-21.57c18.55,0,37.98,4.32,46.35,12.48v-39.64
														c-13.48-3.91-21.14-10.3-21.14-17.78c0-14.01,26.08-21.57,50.61-21.57c24.53,0,50.61,7.56,50.61,21.57
														c0,7.48-7.66,13.87-21.14,17.78v39.54c8.44-8.09,27.78-12.38,46.25-12.38c24.53,0,50.61,7.56,50.61,21.57
														c0,7.48-7.66,13.87-21.14,17.78V280c11.64,19.18,17.78,41.18,17.78,63.71C522.07,411.52,466.9,466.68,399.1,466.68z
														 M323.27,189.67c-26.1,0-42.76,8.13-42.76,13.72c0,3.11,5.68,7.87,18.16,10.96l2.98,0.74v67.32l-0.59,0.95
														c-11.18,18.11-17.09,38.99-17.09,60.37c0,63.48,51.64,115.12,115.12,115.12c63.48,0,115.12-51.64,115.12-115.12
														c0-21.45-5.95-42.38-17.19-60.54l-0.59-0.95v-67.15l2.98-0.74c12.48-3.09,18.16-7.84,18.16-10.96
														c0-5.59-16.66-13.72-42.76-13.72s-42.76,8.13-42.76,13.72c0,3.11,5.68,7.87,18.16,10.96l2.98,0.74v26.82l-5.58-2.6
														c-7.6-3.54-15.61-6.24-23.81-8.03l-3.09-0.67v-82.02l2.98-0.74c12.48-3.09,18.16-7.85,18.16-10.96
														c0-5.59-16.66-13.72-42.76-13.72c-26.1,0-42.76,8.13-42.76,13.72c0,3.11,5.68,7.87,18.16,10.96l2.98,0.74v82.02
														l-3.09,0.67c-8.23,1.8-16.27,4.52-23.91,8.08l-5.58,2.61v-26.87l2.98-0.74c12.48-3.09,18.16-7.84,18.16-10.96
														C366.03,197.79,349.38,189.67,323.27,189.67z M352.74,221.16v8.63c5.49-2.23,11.14-4.07,16.88-5.48v-11.84
														C366.05,215.99,360.32,218.97,352.74,221.16z M428.57,224.31c5.71,1.41,11.32,3.23,16.77,5.44v-8.59
														c-7.5-2.17-13.19-5.11-16.77-8.58V224.31z"/>
												</g>
											</g>
										</g>
									</g>
								</g>
							</g>
						</g>
					</g>
				</g>
			</g>
		</g>
	</g>
	
		<rect x="321" y="281.53" transform="matrix(0.9978 -0.0665 0.0665 0.9978 -21.6083 27.2893)" class="st16" width="156.08" height="113.28"/>
	<g>
		<g>
			<path class="st6" d="M367.69,364.25c-13.63,0.91-20.94-6.17-21.95-21.24c-0.48-7.14,0.87-12.79,4.05-16.94
				c3.18-4.15,7.89-6.43,14.15-6.85c3.03-0.2,5.69,0.1,8,0.91c2.31,0.81,4.04,2.06,5.18,3.76l-4.27,4.84
				c-1.02-1.34-2.27-2.34-3.75-3.01c-1.48-0.67-3.06-0.94-4.72-0.83c-3.97,0.26-7.06,1.91-9.27,4.93
				c-2.21,3.02-3.13,7.17-2.78,12.44c0.77,11.49,6.11,16.9,16.03,16.24c2.98-0.2,5.89-1.01,8.71-2.44l1.78,5.34
				C375.36,363.03,371.64,363.98,367.69,364.25z"/>
			<path class="st6" d="M385.93,362.41L383,318.56l6.42-0.43l2.92,43.85L385.93,362.41z M385.96,343.43l-0.39-5.87l25.97-1.73
				l0.39,5.87L385.96,343.43z M407.91,360.95l-2.92-43.85l6.42-0.43l2.92,43.85L407.91,360.95z"/>
			<path class="st6" d="M420.29,350.26l4.07-31.97l6.67-0.44l-4.13,31.97L420.29,350.26z M420.29,350.26l3.94-6.03l18.03-1.2
				l0.38,5.74L420.29,350.26z M442.68,358.63l-2.92-43.85l6.42-0.43l2.92,43.85L442.68,358.63z M447.83,348.42l-0.38-5.74l4.76-0.32
				l0.38,5.74L447.83,348.42z"/>
		</g>
	</g>
</g>
<g id="Camada_10">
</g>
<g id="Camada_11">
</g>
<g id="Camada_12">
</g>
<g id="Camada_4">
</g>
<g id="Camada_5">
</g>
<g id="Camada_6">
</g>
</svg>
