<?xml version="1.0" encoding="utf-8"?>
<!-- Generator: Adobe Illustrator 24.3.0, SVG Export Plug-In . SVG Version: 6.00 Build 0)  -->
<svg version="1.1" xmlns="http://www.w3.org/2000/svg" xmlns:xlink="http://www.w3.org/1999/xlink" x="0px" y="0px"
	 viewBox="0 0 841.89 595.28" style="enable-background:new 0 0 841.89 595.28;" xml:space="preserve">
<style type="text/css">
	.st0{fill:#009640;}
	.st1{fill:none;stroke:#FFFFFF;stroke-width:2.1953;stroke-linecap:round;stroke-linejoin:round;}
	.st2{fill:none;stroke:#FFFFFF;stroke-width:2.1953;stroke-linecap:round;stroke-linejoin:round;stroke-dasharray:3.3319,6.6638;}
	.st3{fill:none;stroke:#FFFFFF;stroke-width:2.1953;stroke-linecap:round;stroke-linejoin:round;stroke-dasharray:3.2611,6.5221;}
	.st4{fill:none;stroke:#FFFFFF;stroke-width:2.1953;stroke-linecap:round;stroke-linejoin:round;stroke-dasharray:3.3608,6.7216;}
	.st5{fill:none;stroke:url(#SVGID_1_);stroke-width:3.2929;stroke-linecap:round;stroke-linejoin:round;stroke-miterlimit:10;}
	.st6{fill:#FFFFFF;}
	.st7{fill:#FFFFFF;stroke:#000000;stroke-width:13;stroke-miterlimit:10;}
	.st8{fill:#B04E98;}
	.st9{display:none;}
	.st10{display:inline;fill:#F18B8F;}
	.st11{display:none;fill:#7ACCEB;}
	.st12{opacity:0.3;fill:#FFFFFF;}
	.st13{fill:none;stroke:#000000;stroke-width:13;stroke-miterlimit:10;}
	.st14{fill:#C06CA9;}
	.st15{fill:#632D59;}
	.st16{fill:#010202;}
	.st17{opacity:0.6;fill:#FFFFFF;}
	.st18{fill:#68B42E;}
	.st19{fill:#9CC42E;}
	.st20{fill:#3E6429;}
	.st21{fill:#944545;}
	.st22{fill:#AB6666;}
	.st23{fill:#492423;}
	.st24{display:inline;}
	.st25{fill:#CDCCCC;}
	.st26{fill:#B4B4B4;}
	.st27{display:inline;opacity:0.75;}
	.st28{fill:#80BC49;}
	.st29{display:inline;opacity:0.56;}
	.st30{display:inline;opacity:0.47;}
	.st31{fill:#E5E6E7;}
	.st32{fill:#2F9B86;}
	.st33{fill:#36B4A3;}
	.st34{opacity:0.58;}
	.st35{fill:#B5549A;}
	.st36{fill:#94387E;}
	.st37{fill:#D1D137;}
	.st38{fill:#F3EC84;}
	.st39{fill:#F0F1F1;}
	.st40{fill:#5855A0;}
	.st41{fill:#3A6994;}
	.st42{fill:#54AF8C;}
	.st43{fill:#2CAD73;}
	.st44{fill:#272626;}
	.st45{fill:#F6A117;}
	.st46{fill:#FABB5F;}
	.st47{fill:#895C1F;}
</style>
<g id="Camada_1">
</g>
<g id="Camada_2">
</g>
<g id="Camada_3">
</g>
<g id="Camada_7">
</g>
<g id="Camada_8">
</g>
<g id="Camada_9">
</g>
<g id="Camada_10">
	<g>
		<g>
			<g>
				<g>
					<g>
						<g>
							<g>
								<g>
									<g>
										<g>
											<g>
												<g>
													<path class="st37" d="M416.01,125.04h-6c-2.75,0-4.96,7.28-4.95,13.04V410.7c0,4.76-1.79,7.79-5.74,10.43l-30.79,18.78
														c-3.81,2.55,0.41,15.7,2.99,19.5c6.36,9.34,16.86,10.76,24.98,10.76h18.98h6.36h23.49c7.97,0,17.12-2.23,23.54-10.48
														c2.91-3.75,2.02-9.2-1.93-11.83l-30.03-20.06c-3.95-2.64-6.33-7.09-6.32-11.85l0.23-277.44
														c0-5.77-0.23-10.45-2.99-10.45L416.01,125.04z"/>
												</g>
											</g>
										</g>
									</g>
								</g>
							</g>
						</g>
					</g>
				</g>
			</g>
		</g>
	</g>
	<g>
		<g>
			<g>
				<g>
					<g>
						<g>
							<g>
								<g>
									<g>
										<g>
											<g>
												<g>
													<path class="st38" d="M470.57,439.65l-28.07-16.62c-5.07-2.63-8.11-7.05-8.1-11.78l0.29-275.83
														c0.01-5.73-0.3-10.39-3.83-10.39h-10.84v345.13h32.51c10.22,0,12.62-2.4,20.84-10.61
														C477.1,455.84,475.62,442.27,470.57,439.65z"/>
												</g>
											</g>
										</g>
									</g>
								</g>
							</g>
						</g>
					</g>
				</g>
			</g>
		</g>
	</g>
	<g>
		<g>
			<g>
				<g>
					<g>
						<g>
							<g>
								<g>
									<g>
										<g>
											<g>
												<g>
													<g>
														<path class="st16" d="M450.36,472.99h-58.84c-9.08,0-26.69-8.14-27.96-23.69c-0.4-4.86,1.93-9.61,6.09-12.38
															l28.28-18.86c3.21-2.14,5.13-5.73,5.13-9.59l-0.22-273.38c0-3.11,0.59-6.08,1.68-8.36c1.84-3.86,4.38-4.44,5.74-4.44
															h21.38c1.35,0,3.89,0.58,5.74,4.44c1.09,2.28,1.68,5.24,1.68,8.36l-0.22,273.38c0,3.86,1.91,7.45,5.13,9.59
															l28.28,18.86c4.16,2.77,6.49,7.51,6.09,12.38C477.05,464.85,459.44,472.99,450.36,472.99z M410.26,127.29
															c-0.57,0.13-2.42,2.73-2.42,7.79l0.22,273.38c0,5.54-2.74,10.68-7.35,13.75l-28.28,18.86
															c-2.65,1.76-4.13,4.76-3.88,7.81c1.01,12.36,15.71,19.1,22.98,19.1h58.84c7.27,0,21.96-6.74,22.98-19.1
															c0.25-3.05-1.24-6.05-3.88-7.81h0l-28.28-18.86c-4.61-3.07-7.36-8.21-7.35-13.75l0.22-273.38
															c0-5.06-1.85-7.66-2.43-7.79L410.26,127.29z"/>
													</g>
												</g>
											</g>
										</g>
									</g>
								</g>
							</g>
						</g>
					</g>
				</g>
			</g>
		</g>
		<g>
			<g>
				<g>
					<g>
						<g>
							<g>
								<g>
									<g>
										<g>
											<g>
												<g>
													<g>
														<path class="st16" d="M416.31,402.13h-8.75c-1.38,0-2.5-1.12-2.5-2.5c0-1.38,1.12-2.5,2.5-2.5h8.75
															c1.38,0,2.5,1.12,2.5,2.5C418.81,401.01,417.69,402.13,416.31,402.13z"/>
													</g>
												</g>
											</g>
										</g>
									</g>
								</g>
							</g>
						</g>
					</g>
				</g>
			</g>
		</g>
		<g>
			<g>
				<g>
					<g>
						<g>
							<g>
								<g>
									<g>
										<g>
											<g>
												<g>
													<g>
														<path class="st16" d="M416.31,377.02h-8.75c-1.38,0-2.5-1.12-2.5-2.5c0-1.38,1.12-2.5,2.5-2.5h8.75
															c1.38,0,2.5,1.12,2.5,2.5C418.81,375.9,417.69,377.02,416.31,377.02z"/>
													</g>
												</g>
											</g>
										</g>
									</g>
								</g>
							</g>
						</g>
					</g>
				</g>
			</g>
		</g>
		<g>
			<g>
				<g>
					<g>
						<g>
							<g>
								<g>
									<g>
										<g>
											<g>
												<g>
													<g>
														<path class="st16" d="M416.31,351.91h-8.75c-1.38,0-2.5-1.12-2.5-2.5c0-1.38,1.12-2.5,2.5-2.5h8.75
															c1.38,0,2.5,1.12,2.5,2.5C418.81,350.79,417.69,351.91,416.31,351.91z"/>
													</g>
												</g>
											</g>
										</g>
									</g>
								</g>
							</g>
						</g>
					</g>
				</g>
			</g>
		</g>
		<g>
			<g>
				<g>
					<g>
						<g>
							<g>
								<g>
									<g>
										<g>
											<g>
												<g>
													<g>
														<path class="st16" d="M416.31,326.8h-8.75c-1.38,0-2.5-1.12-2.5-2.5c0-1.38,1.12-2.5,2.5-2.5h8.75
															c1.38,0,2.5,1.12,2.5,2.5C418.81,325.68,417.69,326.8,416.31,326.8z"/>
													</g>
												</g>
											</g>
										</g>
									</g>
								</g>
							</g>
						</g>
					</g>
				</g>
			</g>
		</g>
		<g>
			<g>
				<g>
					<g>
						<g>
							<g>
								<g>
									<g>
										<g>
											<g>
												<g>
													<g>
														<path class="st16" d="M416.31,301.69h-8.75c-1.38,0-2.5-1.12-2.5-2.5c0-1.38,1.12-2.5,2.5-2.5h8.75
															c1.38,0,2.5,1.12,2.5,2.5C418.81,300.57,417.69,301.69,416.31,301.69z"/>
													</g>
												</g>
											</g>
										</g>
									</g>
								</g>
							</g>
						</g>
					</g>
				</g>
			</g>
		</g>
		<g>
			<g>
				<g>
					<g>
						<g>
							<g>
								<g>
									<g>
										<g>
											<g>
												<g>
													<g>
														<path class="st16" d="M416.31,276.58h-8.75c-1.38,0-2.5-1.12-2.5-2.5c0-1.38,1.12-2.5,2.5-2.5h8.75
															c1.38,0,2.5,1.12,2.5,2.5C418.81,275.46,417.69,276.58,416.31,276.58z"/>
													</g>
												</g>
											</g>
										</g>
									</g>
								</g>
							</g>
						</g>
					</g>
				</g>
			</g>
		</g>
		<g>
			<g>
				<g>
					<g>
						<g>
							<g>
								<g>
									<g>
										<g>
											<g>
												<g>
													<g>
														<path class="st16" d="M416.31,251.47h-8.75c-1.38,0-2.5-1.12-2.5-2.5c0-1.38,1.12-2.5,2.5-2.5h8.75
															c1.38,0,2.5,1.12,2.5,2.5C418.81,250.35,417.69,251.47,416.31,251.47z"/>
													</g>
												</g>
											</g>
										</g>
									</g>
								</g>
							</g>
						</g>
					</g>
				</g>
			</g>
		</g>
		<g>
			<g>
				<g>
					<g>
						<g>
							<g>
								<g>
									<g>
										<g>
											<g>
												<g>
													<g>
														<path class="st16" d="M416.31,226.36h-8.75c-1.38,0-2.5-1.12-2.5-2.5c0-1.38,1.12-2.5,2.5-2.5h8.75
															c1.38,0,2.5,1.12,2.5,2.5C418.81,225.24,417.69,226.36,416.31,226.36z"/>
													</g>
												</g>
											</g>
										</g>
									</g>
								</g>
							</g>
						</g>
					</g>
				</g>
			</g>
		</g>
		<g>
			<g>
				<g>
					<g>
						<g>
							<g>
								<g>
									<g>
										<g>
											<g>
												<g>
													<g>
														<path class="st16" d="M416.31,201.25h-8.75c-1.38,0-2.5-1.12-2.5-2.5c0-1.38,1.12-2.5,2.5-2.5h8.75
															c1.38,0,2.5,1.12,2.5,2.5C418.81,200.13,417.69,201.25,416.31,201.25z"/>
													</g>
												</g>
											</g>
										</g>
									</g>
								</g>
							</g>
						</g>
					</g>
				</g>
			</g>
		</g>
		<g>
			<g>
				<g>
					<g>
						<g>
							<g>
								<g>
									<g>
										<g>
											<g>
												<g>
													<g>
														<path class="st16" d="M416.31,176.14h-8.75c-1.38,0-2.5-1.12-2.5-2.5c0-1.38,1.12-2.5,2.5-2.5h8.75
															c1.38,0,2.5,1.12,2.5,2.5C418.81,175.02,417.69,176.14,416.31,176.14z"/>
													</g>
												</g>
											</g>
										</g>
									</g>
								</g>
							</g>
						</g>
					</g>
				</g>
			</g>
		</g>
	</g>
	
		<rect x="347.94" y="231.26" transform="matrix(0.9978 -0.0665 0.0665 0.9978 -18.2055 28.9694)" class="st16" width="156.08" height="113.28"/>
	<g>
		<g>
			<path class="st6" d="M394.62,313.98c-13.63,0.91-20.94-6.17-21.95-21.24c-0.48-7.14,0.87-12.79,4.05-16.94
				c3.18-4.15,7.89-6.43,14.15-6.85c3.03-0.2,5.69,0.1,8,0.91c2.31,0.81,4.04,2.06,5.18,3.76l-4.27,4.84
				c-1.02-1.34-2.27-2.34-3.75-3.01c-1.48-0.67-3.06-0.94-4.72-0.83c-3.97,0.26-7.06,1.91-9.27,4.93
				c-2.21,3.02-3.13,7.17-2.78,12.44c0.77,11.49,6.11,16.9,16.03,16.24c2.98-0.2,5.89-1.01,8.71-2.44l1.78,5.34
				C402.29,312.77,398.57,313.72,394.62,313.98z"/>
			<path class="st6" d="M427.1,311.82c-10.79,0.72-16.67-6.33-17.66-21.15c-1.01-15.23,3.87-23.21,14.66-23.93
				c10.79-0.72,16.69,6.54,17.7,21.77C442.79,303.33,437.89,311.1,427.1,311.82z M426.73,306.14c6.38-0.43,9.2-6.16,8.47-17.19
				c-0.76-11.45-4.34-16.96-10.72-16.53c-6.38,0.42-9.19,6.36-8.43,17.81C416.79,301.26,420.34,306.56,426.73,306.14z"/>
			<path class="st6" d="M450.28,309.65l-0.47-7.04c6.52-4.2,11.32-8.43,14.4-12.7c3.07-4.27,4.47-8.55,4.18-12.86
				c-0.17-2.51-0.91-4.35-2.23-5.53c-1.32-1.17-3.23-1.68-5.75-1.51c-1.67,0.11-3.38,0.71-5.12,1.8c-1.75,1.09-3.21,2.48-4.4,4.17
				l-4.54-3.95c1.29-2.13,3.19-3.9,5.73-5.31c2.53-1.41,5.23-2.21,8.09-2.4c4.63-0.31,8.17,0.56,10.61,2.6
				c2.44,2.04,3.81,5.27,4.1,9.7c0.29,4.43-0.83,8.76-3.37,13.02c-2.54,4.25-6.55,8.44-12.05,12.57l0.45,6.79L450.28,309.65z
				 M452.14,309.53l-0.39-5.87l26.68-1.78l0.39,5.87L452.14,309.53z"/>
		</g>
	</g>
</g>
<g id="Camada_11">
</g>
<g id="Camada_12">
</g>
<g id="Camada_4">
</g>
<g id="Camada_5">
</g>
<g id="Camada_6">
</g>
</svg>
