<?xml version="1.0" encoding="utf-8"?>
<!-- Generator: Adobe Illustrator 24.3.0, SVG Export Plug-In . SVG Version: 6.00 Build 0)  -->
<svg version="1.1" xmlns="http://www.w3.org/2000/svg" xmlns:xlink="http://www.w3.org/1999/xlink" x="0px" y="0px"
	 viewBox="0 0 841.89 595.28" style="enable-background:new 0 0 841.89 595.28;" xml:space="preserve">
<style type="text/css">
	.st0{fill:#009640;}
	.st1{fill:none;stroke:#FFFFFF;stroke-width:2.1953;stroke-linecap:round;stroke-linejoin:round;}
	.st2{fill:none;stroke:#FFFFFF;stroke-width:2.1953;stroke-linecap:round;stroke-linejoin:round;stroke-dasharray:3.3319,6.6638;}
	.st3{fill:none;stroke:#FFFFFF;stroke-width:2.1953;stroke-linecap:round;stroke-linejoin:round;stroke-dasharray:3.2611,6.5221;}
	.st4{fill:none;stroke:#FFFFFF;stroke-width:2.1953;stroke-linecap:round;stroke-linejoin:round;stroke-dasharray:3.3608,6.7216;}
	.st5{fill:none;stroke:url(#SVGID_1_);stroke-width:3.2929;stroke-linecap:round;stroke-linejoin:round;stroke-miterlimit:10;}
	.st6{fill:#FFFFFF;}
	.st7{fill:#FFFFFF;stroke:#000000;stroke-width:13;stroke-miterlimit:10;}
	.st8{fill:#B04E98;}
	.st9{display:none;}
	.st10{display:inline;fill:#F18B8F;}
	.st11{display:none;fill:#7ACCEB;}
	.st12{opacity:0.3;fill:#FFFFFF;}
	.st13{fill:none;stroke:#000000;stroke-width:13;stroke-miterlimit:10;}
	.st14{fill:#C06CA9;}
	.st15{fill:#632D59;}
	.st16{fill:#010202;}
	.st17{opacity:0.6;fill:#FFFFFF;}
	.st18{fill:#68B42E;}
	.st19{fill:#9CC42E;}
	.st20{fill:#3E6429;}
	.st21{fill:#944545;}
	.st22{fill:#AB6666;}
	.st23{fill:#492423;}
	.st24{display:inline;}
	.st25{fill:#CDCCCC;}
	.st26{fill:#B4B4B4;}
	.st27{display:inline;opacity:0.75;}
	.st28{fill:#80BC49;}
	.st29{display:inline;opacity:0.56;}
	.st30{display:inline;opacity:0.47;}
	.st31{fill:#E5E6E7;}
	.st32{fill:#2F9B86;}
	.st33{fill:#36B4A3;}
	.st34{opacity:0.58;}
	.st35{fill:#B5549A;}
	.st36{fill:#94387E;}
	.st37{fill:#D1D137;}
	.st38{fill:#F3EC84;}
	.st39{fill:#F0F1F1;}
	.st40{fill:#5855A0;}
	.st41{fill:#3A6994;}
	.st42{fill:#54AF8C;}
	.st43{fill:#2CAD73;}
	.st44{fill:#272626;}
	.st45{fill:#F6A117;}
	.st46{fill:#FABB5F;}
	.st47{fill:#895C1F;}
</style>
<g id="Camada_1">
</g>
<g id="Camada_2">
</g>
<g id="Camada_3">
</g>
<g id="Camada_7">
</g>
<g id="Camada_8">
</g>
<g id="Camada_9">
</g>
<g id="Camada_10">
</g>
<g id="Camada_11">
	<g>
		<g>
			<g>
				<g>
					<g>
						<g>
							<g>
								<g>
									<g>
										<path class="st39" d="M414.93,289.16V155.18c12.14-4.15,19.86-10.37,19.86-17.32c0-12.5-24.94-22.63-55.7-22.63
											c-30.76,0-55.7,10.13-55.7,22.63c0,6.95,7.72,13.17,19.86,17.32v133.99c-46.67,15.11-80.44,58.92-80.44,110.63
											c0,16.34,3.37,31.88,9.46,45.98c3.89,9.03,12.89,14.79,22.72,14.79h168.21c9.83,0,18.83-5.76,22.72-14.79
											c6.08-14.1,9.46-29.65,9.46-45.98C495.37,348.08,461.6,304.28,414.93,289.16z"/>
									</g>
								</g>
							</g>
						</g>
					</g>
				</g>
			</g>
		</g>
	</g>
	<g>
		<g>
			<g>
				<g>
					<g>
						<g>
							<g>
								<g>
									<g>
										<path class="st31" d="M414.93,289.16V155.18c12.14-4.15,19.86-10.37,19.86-17.32c0-12.31-24.2-22.32-54.32-22.62v345.32
											h97.76c10.87-17.69,17.14-38.5,17.14-60.77C495.37,348.08,461.6,304.28,414.93,289.16z"/>
									</g>
								</g>
							</g>
						</g>
					</g>
				</g>
			</g>
		</g>
	</g>
	<g>
		<g>
			<g>
				<g>
					<g>
						<g>
							<g>
								<g>
									<g>
										<path class="st40" d="M436.77,319.66H305.29c-4.94,0-9.74,1.8-13.24,5.2c-20.43,19.8-33.08,47.22-33.08,77.54
											c0,16.57,3.78,32.27,10.54,46.34c3.16,6.59,9.92,10.82,17.37,10.82h168.31c7.45,0,14.21-4.24,17.37-10.82
											c6.76-14.07,10.54-29.77,10.54-46.34c0-30.32-12.66-57.74-33.08-77.54C446.51,321.47,441.71,319.66,436.77,319.66z"/>
									</g>
								</g>
							</g>
						</g>
					</g>
				</g>
			</g>
		</g>
	</g>
	<g>
		<g>
			<g>
				<g>
					<g>
						<g>
							<g>
								<g>
									<g>
										<path class="st41" d="M449.78,319.66h-69.31v140.9h91.58c6.16,0,11.82-3.16,14.59-8.19
											c8.17-14.85,12.77-31.62,12.77-49.37c0-30.6-13.67-58.28-35.73-78.23C460,321.44,454.96,319.66,449.78,319.66z"/>
									</g>
								</g>
							</g>
						</g>
					</g>
				</g>
			</g>
		</g>
	</g>
	<g>
		<g>
			<g>
				<g>
					<g>
						<g>
							<g>
								<g>
									<g>
										<path class="st41" d="M378.84,256.03c2.31-2.31,6.06-2.31,8.37,0c2.31,2.31,2.31,6.06,0,8.37c-2.31,2.31-6.06,2.31-8.37,0
											C376.53,262.09,376.53,258.34,378.84,256.03z"/>
									</g>
								</g>
							</g>
						</g>
					</g>
				</g>
			</g>
		</g>
	</g>
	<g>
		<g>
			<g>
				<g>
					<g>
						<g>
							<g>
								<g>
									<g>
										<path class="st40" d="M360.39,210.16c1.01-1.01,2.66-1.01,3.67,0c1.01,1.01,1.01,2.66,0,3.67c-1.01,1.01-2.66,1.01-3.67,0
											C359.38,212.82,359.38,211.17,360.39,210.16z"/>
									</g>
								</g>
							</g>
						</g>
					</g>
				</g>
			</g>
		</g>
	</g>
	<g>
		<g>
			<g>
				<g>
					<g>
						<g>
							<g>
								<g>
									<g>
										<path class="st41" d="M392.15,182.13c1.01-1.01,2.66-1.01,3.67,0c1.01,1.01,1.01,2.66,0,3.67c-1.01,1.01-2.66,1.01-3.67,0
											C391.13,184.79,391.13,183.14,392.15,182.13z"/>
									</g>
								</g>
							</g>
						</g>
					</g>
				</g>
			</g>
		</g>
	</g>
	<g>
		<g>
			<g>
				<g>
					<g>
						<g>
							<g>
								<g>
									<g>
										<path class="st40" d="M358.02,303.29c2.14,2.14,2.14,5.6,0,7.74c-2.14,2.14-5.6,2.14-7.74,0c-2.14-2.14-2.14-5.6,0-7.74
											C352.42,301.16,355.89,301.16,358.02,303.29z"/>
									</g>
								</g>
							</g>
						</g>
					</g>
				</g>
			</g>
		</g>
	</g>
	<g>
		<g>
			<g>
				<g>
					<g>
						<g>
							<g>
								<g>
									<g>
										<path class="st16" d="M463.18,464.99H294.98c-11.7,0-22.21-6.85-26.79-17.46c-6.52-15.1-9.82-31.16-9.82-47.74
											c0-51.43,32.19-96.76,80.44-113.8V158.27c-12.84-5.02-19.86-12.2-19.86-20.41c0-13.11,21.07-27.05,60.13-27.05
											c29.15,0,60.13,9.48,60.13,27.05c0,8.21-7.02,15.39-19.86,20.41v127.72c48.25,17.04,80.44,62.37,80.44,113.8
											c0,16.57-3.3,32.64-9.82,47.74C485.4,458.13,474.88,464.99,463.18,464.99z M379.08,119.65
											c-29.35,0-51.28,9.61-51.28,18.21c0,4.54,6.46,9.57,16.86,13.13l2.99,1.02v140.37l-3.06,0.99
											c-46.28,14.99-77.38,57.75-77.38,106.42c0,15.36,3.06,30.24,9.1,44.23c3.17,7.36,10.5,12.12,18.66,12.12h168.21
											c8.16,0,15.49-4.76,18.66-12.12c6.04-13.99,9.1-28.87,9.1-44.23c0-48.66-31.1-91.43-77.38-106.42l-3.06-0.99V152.01
											l2.99-1.02c10.4-3.56,16.86-8.59,16.86-13.13C430.36,129.26,408.43,119.65,379.08,119.65z"/>
									</g>
								</g>
							</g>
						</g>
					</g>
				</g>
			</g>
		</g>
	</g>
	
		<rect x="299.07" y="250.52" transform="matrix(0.9978 -0.0665 0.0665 0.9978 -19.5945 25.7616)" class="st16" width="156.08" height="113.28"/>
	<g>
		<g>
			<path class="st6" d="M363.21,330.58l-2.92-43.85l6.42-0.43l2.92,43.85L363.21,330.58z M363.24,311.59l-0.39-5.87l25.97-1.73
				l0.39,5.87L363.24,311.59z M385.19,329.11l-2.92-43.85l6.42-0.43l2.92,43.85L385.19,329.11z"/>
		</g>
	</g>
</g>
<g id="Camada_12">
</g>
<g id="Camada_4">
</g>
<g id="Camada_5">
</g>
<g id="Camada_6">
</g>
</svg>
