<?xml version="1.0" encoding="utf-8"?>
<!-- Generator: Adobe Illustrator 24.3.0, SVG Export Plug-In . SVG Version: 6.00 Build 0)  -->
<svg version="1.1" xmlns="http://www.w3.org/2000/svg" xmlns:xlink="http://www.w3.org/1999/xlink" x="0px" y="0px"
	 viewBox="0 0 841.89 595.28" style="enable-background:new 0 0 841.89 595.28;" xml:space="preserve">
<style type="text/css">
	.st0{fill:#009640;}
	.st1{fill:none;stroke:#FFFFFF;stroke-width:2.1953;stroke-linecap:round;stroke-linejoin:round;}
	.st2{fill:none;stroke:#FFFFFF;stroke-width:2.1953;stroke-linecap:round;stroke-linejoin:round;stroke-dasharray:3.3319,6.6638;}
	.st3{fill:none;stroke:#FFFFFF;stroke-width:2.1953;stroke-linecap:round;stroke-linejoin:round;stroke-dasharray:3.2611,6.5221;}
	.st4{fill:none;stroke:#FFFFFF;stroke-width:2.1953;stroke-linecap:round;stroke-linejoin:round;stroke-dasharray:3.3608,6.7216;}
	.st5{fill:none;stroke:url(#SVGID_1_);stroke-width:3.2929;stroke-linecap:round;stroke-linejoin:round;stroke-miterlimit:10;}
	.st6{fill:#FFFFFF;}
	.st7{fill:#FFFFFF;stroke:#000000;stroke-width:13;stroke-miterlimit:10;}
	.st8{fill:#B04E98;}
	.st9{display:none;}
	.st10{display:inline;fill:#F18B8F;}
	.st11{display:none;fill:#7ACCEB;}
	.st12{opacity:0.3;fill:#FFFFFF;}
	.st13{fill:none;stroke:#000000;stroke-width:13;stroke-miterlimit:10;}
	.st14{fill:#C06CA9;}
	.st15{fill:#632D59;}
	.st16{fill:#010202;}
	.st17{opacity:0.6;fill:#FFFFFF;}
	.st18{fill:#68B42E;}
	.st19{fill:#9CC42E;}
	.st20{fill:#3E6429;}
	.st21{fill:#944545;}
	.st22{fill:#AB6666;}
	.st23{fill:#492423;}
	.st24{display:inline;}
	.st25{fill:#CDCCCC;}
	.st26{fill:#B4B4B4;}
	.st27{display:inline;opacity:0.75;}
	.st28{fill:#80BC49;}
	.st29{display:inline;opacity:0.56;}
	.st30{display:inline;opacity:0.47;}
	.st31{display:none;fill:#010202;}
	.st32{display:inline;fill:#FFFFFF;}
	.st33{fill:#E5E6E7;}
	.st34{fill:#2F9B86;}
	.st35{fill:#36B4A3;}
	.st36{opacity:0.58;}
	.st37{fill:#B5549A;}
	.st38{fill:#94387E;}
	.st39{fill:#D1D137;}
	.st40{fill:#F3EC84;}
	.st41{fill:#F0F1F1;}
	.st42{fill:#5855A0;}
	.st43{fill:#3A6994;}
	.st44{fill:#54AF8C;}
	.st45{fill:#2CAD73;}
	.st46{fill:#272626;}
	.st47{fill:#F6A117;}
	.st48{fill:#FABB5F;}
	.st49{fill:#895C1F;}
</style>
<g id="Camada_1">
</g>
<g id="Camada_2">
</g>
<g id="Camada_3">
</g>
<g id="Camada_7">
</g>
<g id="Camada_8">
</g>
<g id="Camada_9">
</g>
<g id="Camada_10">
</g>
<g id="Camada_11">
</g>
<g id="Camada_12">
	<g>
		<g>
			<g>
				<g>
					<g>
						<g>
							<g>
								<g>
									<g>
										<g>
											<g>
												<g>
													<path class="st6" d="M434.13,222.05v-72.33c12.53-3,20.64-7.78,20.64-13.16c0-9.09-23.16-16.46-51.73-16.46
														c-28.57,0-51.73,7.37-51.73,16.46c0,5.38,8.11,10.15,20.64,13.16v72.33c-50.57,13.67-87.78,59.87-87.78,114.76
														c0,65.65,53.22,118.87,118.87,118.87c65.65,0,118.87-53.22,118.87-118.87C521.91,281.92,484.7,235.72,434.13,222.05z"
														/>
												</g>
											</g>
										</g>
									</g>
								</g>
							</g>
						</g>
					</g>
				</g>
			</g>
		</g>
	</g>
	<g>
		<g>
			<g>
				<g>
					<g>
						<g>
							<g>
								<g>
									<g>
										<g>
											<g>
												<g>
													<path class="st33" d="M434.13,222.05v-72.33c12.53-3,20.64-7.78,20.64-13.16c0-9.08-23.09-16.43-51.6-16.46v335.58
														c65.59-0.07,118.74-53.26,118.74-118.87C521.91,281.92,484.7,235.72,434.13,222.05z"/>
												</g>
											</g>
										</g>
									</g>
								</g>
							</g>
						</g>
					</g>
				</g>
			</g>
		</g>
	</g>
	<g>
		<g>
			<g>
				<g>
					<g>
						<g>
							<g>
								<g>
									<g>
										<g>
											<g>
												<g>
													<path class="st44" d="M284.17,335.9c0.56,66.25,53.56,119.79,118.87,119.79c65.31,0,118.31-53.53,118.87-119.79H284.17
														z"/>
												</g>
											</g>
										</g>
									</g>
								</g>
							</g>
						</g>
					</g>
				</g>
			</g>
		</g>
	</g>
	<g>
		<g>
			<g>
				<g>
					<g>
						<g>
							<g>
								<g>
									<g>
										<g>
											<g>
												<g>
													<path class="st45" d="M403.18,335.9v119.79c65.35-0.7,118.18-53.97,118.74-119.79H403.18z"/>
												</g>
											</g>
										</g>
									</g>
								</g>
							</g>
						</g>
					</g>
				</g>
			</g>
		</g>
	</g>
	<g>
		<g>
			<g>
				<g>
					<g>
						<g>
							<g>
								<g>
									<g>
										<g>
											<g>
												<g>
													<path class="st46" d="M403.04,460.07c-67.96,0-123.25-55.29-123.25-123.25c0-54.45,35.93-102.52,87.78-118.07v-65.64
														c-13.52-3.79-20.64-9.48-20.64-16.54c0-10.04,17.56-20.84,56.11-20.84s56.11,10.8,56.11,20.84
														c0,7.06-7.12,12.75-20.64,16.54v65.64c51.85,15.54,87.78,63.62,87.78,118.07C526.29,404.78,471,460.07,403.04,460.07z
														 M403.04,124.49c-31.24,0-47.35,8.47-47.35,12.08c0,1.55,4.22,5.77,17.28,8.9l3.36,0.81v79.14l-3.24,0.87
														c-49.78,13.45-84.54,58.91-84.54,110.54c0,63.13,51.36,114.49,114.49,114.49c63.13,0,114.49-51.36,114.49-114.49
														c0-51.63-34.77-97.08-84.54-110.54l-3.24-0.87v-79.14l3.36-0.81c13.06-3.13,17.28-7.34,17.28-8.9
														C450.39,132.95,434.28,124.49,403.04,124.49z"/>
												</g>
											</g>
										</g>
									</g>
								</g>
							</g>
						</g>
					</g>
				</g>
			</g>
		</g>
	</g>
	
		<rect x="325.01" y="279.26" transform="matrix(0.9978 -0.0665 0.0665 0.9978 -21.4487 27.5505)" class="st31" width="156.08" height="113.28"/>
	<g>
		<g class="st9">
			<path class="st32" d="M405.34,358.09c-13.63,0.91-20.94-6.17-21.95-21.24c-0.48-7.14,0.87-12.79,4.05-16.94
				c3.18-4.15,7.89-6.43,14.15-6.85c3.03-0.2,5.69,0.1,8,0.91c2.31,0.81,4.04,2.06,5.18,3.76l-4.27,4.84
				c-1.02-1.34-2.27-2.34-3.75-3.01c-1.48-0.67-3.06-0.94-4.72-0.83c-3.97,0.26-7.06,1.91-9.27,4.93
				c-2.21,3.02-3.13,7.17-2.78,12.44c0.77,11.49,6.11,16.9,16.03,16.24c2.98-0.2,5.89-1.01,8.71-2.44l1.78,5.34
				C413.01,356.87,409.29,357.82,405.34,358.09z"/>
		</g>
	</g>
	
		<rect x="325.14" y="279.25" transform="matrix(0.9978 -0.0665 0.0665 0.9978 -21.4478 27.5593)" class="st16" width="156.08" height="113.28"/>
	<g>
		<g>
			<path class="st6" d="M352.22,358.71l-2.92-43.85l6.42-0.43l2.92,43.85L352.22,358.71z M352.26,339.73l-0.39-5.87l25.97-1.73
				l0.39,5.87L352.26,339.73z M374.21,357.25l-2.92-43.85l6.42-0.43l2.92,43.85L374.21,357.25z"/>
			<path class="st6" d="M389.65,356.22l-0.47-7.04c6.52-4.2,11.32-8.43,14.4-12.7c3.08-4.27,4.47-8.55,4.18-12.86
				c-0.17-2.51-0.91-4.35-2.23-5.53c-1.32-1.17-3.23-1.68-5.75-1.51c-1.67,0.11-3.38,0.71-5.12,1.8c-1.75,1.09-3.22,2.48-4.41,4.17
				l-4.54-3.95c1.29-2.13,3.19-3.9,5.72-5.31c2.53-1.41,5.23-2.21,8.09-2.4c4.63-0.31,8.17,0.56,10.61,2.6
				c2.44,2.04,3.81,5.27,4.1,9.7c0.29,4.43-0.83,8.77-3.37,13.02c-2.54,4.25-6.56,8.44-12.05,12.57l0.45,6.79L389.65,356.22z
				 M391.5,356.09l-0.39-5.87l26.68-1.78l0.39,5.87L391.5,356.09z"/>
			<path class="st6" d="M440.58,353.44c-10.79,0.72-16.67-6.33-17.66-21.15c-1.01-15.23,3.87-23.21,14.66-23.93
				c10.79-0.72,16.69,6.54,17.7,21.77C456.26,344.95,451.36,352.72,440.58,353.44z M440.2,347.76c6.38-0.42,9.2-6.15,8.47-17.19
				c-0.76-11.45-4.34-16.96-10.72-16.53c-6.38,0.43-9.19,6.36-8.43,17.81C430.26,342.88,433.82,348.19,440.2,347.76z"/>
		</g>
	</g>
</g>
<g id="Camada_4">
</g>
<g id="Camada_5">
</g>
<g id="Camada_6">
</g>
</svg>
