<?xml version="1.0" encoding="utf-8"?>
<!-- Generator: Adobe Illustrator 24.3.0, SVG Export Plug-In . SVG Version: 6.00 Build 0)  -->
<svg version="1.1" xmlns="http://www.w3.org/2000/svg" xmlns:xlink="http://www.w3.org/1999/xlink" x="0px" y="0px"
	 viewBox="0 0 841.89 595.28" style="enable-background:new 0 0 841.89 595.28;" xml:space="preserve">
<style type="text/css">
	.st0{fill:#009640;}
	.st1{fill:none;stroke:#FFFFFF;stroke-width:2.1953;stroke-linecap:round;stroke-linejoin:round;}
	.st2{fill:none;stroke:#FFFFFF;stroke-width:2.1953;stroke-linecap:round;stroke-linejoin:round;stroke-dasharray:3.3319,6.6638;}
	.st3{fill:none;stroke:#FFFFFF;stroke-width:2.1953;stroke-linecap:round;stroke-linejoin:round;stroke-dasharray:3.2611,6.5221;}
	.st4{fill:none;stroke:#FFFFFF;stroke-width:2.1953;stroke-linecap:round;stroke-linejoin:round;stroke-dasharray:3.3608,6.7216;}
	.st5{fill:none;stroke:url(#SVGID_1_);stroke-width:3.2929;stroke-linecap:round;stroke-linejoin:round;stroke-miterlimit:10;}
	.st6{fill:#FFFFFF;}
	.st7{fill:#FFFFFF;stroke:#000000;stroke-width:13;stroke-miterlimit:10;}
	.st8{fill:#B04E98;}
	.st9{display:none;}
	.st10{display:inline;fill:#F18B8F;}
	.st11{display:none;fill:#7ACCEB;}
	.st12{opacity:0.3;fill:#FFFFFF;}
	.st13{fill:none;stroke:#000000;stroke-width:13;stroke-miterlimit:10;}
	.st14{fill:#C06CA9;}
	.st15{fill:#632D59;}
	.st16{fill:#010202;}
	.st17{opacity:0.6;fill:#FFFFFF;}
	.st18{fill:#68B42E;}
	.st19{fill:#9CC42E;}
	.st20{fill:#3E6429;}
	.st21{fill:#944545;}
	.st22{fill:#AB6666;}
	.st23{fill:#492423;}
	.st24{display:inline;}
	.st25{fill:#CDCCCC;}
	.st26{fill:#B4B4B4;}
	.st27{display:inline;opacity:0.75;}
	.st28{fill:#80BC49;}
	.st29{display:inline;opacity:0.56;}
	.st30{display:inline;opacity:0.47;}
	.st31{fill:#E5E6E7;}
	.st32{fill:#2F9B86;}
	.st33{fill:#36B4A3;}
	.st34{opacity:0.58;}
	.st35{fill:#B5549A;}
	.st36{fill:#94387E;}
	.st37{fill:#D1D137;}
	.st38{fill:#F3EC84;}
	.st39{fill:#F0F1F1;}
	.st40{fill:#5855A0;}
	.st41{fill:#3A6994;}
	.st42{fill:#54AF8C;}
	.st43{fill:#2CAD73;}
	.st44{fill:#272626;}
	.st45{fill:#F6A117;}
	.st46{fill:#FABB5F;}
	.st47{fill:#895C1F;}
</style>
<g id="Camada_1">
</g>
<g id="Camada_2">
	<path class="st7" d="M320.1,208.66l0.09-99.11c0-3.61,2.93-6.54,6.55-6.54h0.01c3.61,0,6.54-2.93,6.55-6.54l0.01-14.29
		c0-3.61-2.92-6.54-6.54-6.55l-6.55-0.01l-100.38-0.09l-6.55-0.01c-3.62-0.01-6.55,2.92-6.55,6.54l-0.01,14.29
		c0,3.61,2.93,6.55,6.54,6.55h0c3.62,0,6.55,2.93,6.54,6.55l-0.09,99.12c0,2.6-1.55,4.95-3.94,5.99
		c-48.05,20.86-81.69,68.68-81.74,124.4c-0.06,74.98,60.65,135.81,135.62,135.89c74.98,0.06,135.81-60.66,135.88-135.63
		c0.05-55.73-33.51-103.61-81.52-124.56C321.64,213.62,320.1,211.27,320.1,208.66z"/>
	<path class="st8" d="M134.25,346.66c0,0,31.7,40.62,95.06,22.62s35.52,41.13,130.68,32.76c17.59-1.55,29.16,6.12,29.16,6.12
		l-38.62,40.08l-66.89,25.92l-72-12.35l-40.65-25.92l-28.78-50.31L134.25,346.66z"/>
	<g class="st9">
		<path class="st10" d="M184.16,301.95c0,5.32-4.32,9.65-9.65,9.65c-5.33,0-9.65-4.32-9.65-9.65c0-5.33,4.32-9.65,9.65-9.65
			C179.84,292.3,184.16,296.62,184.16,301.95z"/>
		<path class="st10" d="M236.96,316.39c0,6.87-5.57,12.43-12.44,12.43c-6.87,0-12.44-5.57-12.44-12.43
			c0-6.87,5.57-12.44,12.44-12.44C231.4,303.95,236.96,309.52,236.96,316.39z"/>
		<path class="st10" d="M194.3,338.38c0,5.33-4.31,9.65-9.64,9.65c-5.33,0-9.65-4.32-9.65-9.65c0-5.33,4.32-9.65,9.65-9.65
			C189.98,328.73,194.3,333.05,194.3,338.38z"/>
		<path class="st10" d="M230.87,370.68c0,6.87-5.57,12.44-12.43,12.44c-6.87,0-12.44-5.57-12.44-12.44
			c0-6.87,5.57-12.44,12.44-12.44C225.3,358.24,230.87,363.81,230.87,370.68z"/>
		<path class="st10" d="M273.83,287.08c0,5.32-4.32,9.64-9.65,9.64c-5.33,0-9.65-4.32-9.65-9.64c0-5.34,4.32-9.65,9.65-9.65
			C269.51,277.43,273.83,281.75,273.83,287.08z"/>
		<path class="st10" d="M321.74,282.15c0,6.87-5.57,12.44-12.44,12.44c-6.86,0-12.44-5.57-12.44-12.44
			c0-6.87,5.57-12.44,12.44-12.44C316.17,269.71,321.74,275.28,321.74,282.15z"/>
		<path class="st10" d="M269.77,338.38c0,5.33-4.31,9.65-9.65,9.65c-5.33,0-9.65-4.32-9.65-9.65c0-5.33,4.32-9.65,9.65-9.65
			C265.45,328.73,269.77,333.05,269.77,338.38z"/>
		<path class="st10" d="M309.3,320.91c0,6.87-5.57,12.44-12.44,12.44c-6.87,0-12.44-5.57-12.44-12.44c0-6.87,5.57-12.44,12.44-12.44
			C303.73,308.47,309.3,314.04,309.3,320.91z"/>
		<path class="st10" d="M351.69,308.47c0,6.87-5.56,12.44-12.43,12.44c-6.87,0-12.44-5.57-12.44-12.44
			c0-6.87,5.57-12.43,12.44-12.43C346.13,296.04,351.69,301.6,351.69,308.47z"/>
		<path class="st10" d="M331.39,348.02c0,5.32-4.32,9.64-9.65,9.64c-5.33,0-9.65-4.32-9.65-9.64c0-5.33,4.32-9.65,9.65-9.65
			C327.07,338.38,331.39,342.7,331.39,348.02z"/>
		<path class="st10" d="M289.06,379.55c0,5.33-4.31,9.65-9.65,9.65c-5.33,0-9.65-4.31-9.65-9.65c0-5.32,4.32-9.65,9.65-9.65
			C284.75,369.9,289.06,374.23,289.06,379.55z"/>
	</g>
	<rect x="198.77" y="75.52" class="st11" width="112.65" height="9.65"/>
	<path class="st12" d="M270.37,478.58c-76.05,0.06-137.76-61.59-137.83-137.7c-0.05-56.57,33.99-105.19,82.68-126.46
		c2.42-1.06,3.99-3.45,3.99-6.09l-0.09-100.61c0-3.67-2.98-6.64-6.64-6.64h0c-3.67,0-6.64-2.97-6.64-6.64l-0.01-14.5
		c0-3.67,2.97-6.65,6.64-6.65l6.64-0.01l16.56-0.01c3.67,0,6.65,2.97,6.65,6.65v145.15c0,2.28-1.17,4.41-3.11,5.62
		c-33.94,21.13-89.95,144.22-32.21,198.37c48.98,45.93,117.17,13.78,144.04,7.3c6.83-1.65,11.17,7.2,5.71,11.63
		C333.14,467.07,303.1,478.54,270.37,478.58z"/>
	<path class="st13" d="M320.1,208.66l0.09-99.11c0-3.61,2.93-6.54,6.55-6.54h0.01c3.61,0,6.54-2.93,6.55-6.54l0.01-14.29
		c0-3.61-2.92-6.54-6.54-6.55l-6.55-0.01l-100.38-0.09l-6.55-0.01c-3.62-0.01-6.55,2.92-6.55,6.54l-0.01,14.29
		c0,3.61,2.93,6.55,6.54,6.55h0c3.62,0,6.55,2.93,6.54,6.55l-0.09,99.12c0,2.6-1.55,4.95-3.94,5.99
		c-48.05,20.86-81.69,68.68-81.74,124.4c-0.06,74.98,60.65,135.81,135.62,135.89c74.98,0.06,135.81-60.66,135.88-135.63
		c0.05-55.73-33.51-103.61-81.52-124.56C321.64,213.62,320.1,211.27,320.1,208.66z"/>
	<path class="st14" d="M230.04,411.57c0,5.39-4.36,9.75-9.75,9.75c-5.39,0-9.75-4.36-9.75-9.75c0-5.39,4.36-9.75,9.75-9.75
		C225.68,401.81,230.04,406.18,230.04,411.57z"/>
	<path class="st15" d="M227.92,411.57c0,4.21-3.42,7.63-7.63,7.63c-4.21,0-7.63-3.42-7.63-7.63c0-4.21,3.42-7.63,7.63-7.63
		C224.49,403.94,227.92,407.36,227.92,411.57z M220.29,399.69c-6.55,0-11.88,5.33-11.88,11.88c0,6.55,5.33,11.88,11.88,11.88
		c6.55,0,11.88-5.33,11.88-11.88C232.16,405.02,226.84,399.69,220.29,399.69z"/>
	<path class="st14" d="M216.04,391.93c0,1.87-1.51,3.38-3.38,3.38c-1.87,0-3.38-1.51-3.38-3.38s1.51-3.38,3.38-3.38
		C214.53,388.55,216.04,390.06,216.04,391.93z"/>
	<path class="st15" d="M215.3,391.93c0,1.46-1.19,2.65-2.65,2.65c-1.46,0-2.65-1.19-2.65-2.65s1.19-2.65,2.65-2.65
		C214.11,389.28,215.3,390.47,215.3,391.93z M212.65,387.81c-2.27,0-4.12,1.85-4.12,4.12c0,2.27,1.85,4.12,4.12,4.12
		c2.27,0,4.12-1.85,4.12-4.12C216.78,389.66,214.93,387.81,212.65,387.81z"/>
	
		<rect x="191.76" y="276.23" transform="matrix(0.9978 -0.0665 0.0665 0.9978 -21.5422 18.6813)" class="st16" width="156.08" height="113.28"/>
	<g>
		<g>
			<path class="st6" d="M243.24,356.27l-2.92-43.85l6.42-0.43l2.92,43.85L243.24,356.27z M262.88,354.96l-14.82-32.51l-2.84,0.19
				l-0.7-10.5l4.08-0.27l14.82,32.51l1.54-0.1l0.7,10.5L262.88,354.96z M264.73,354.84l-2.92-43.85l6.42-0.43l2.92,43.85
				L264.73,354.84z"/>
			<path class="st6" d="M280.42,353.8l-0.47-7.04c6.52-4.2,11.32-8.43,14.4-12.7c3.08-4.27,4.47-8.55,4.18-12.86
				c-0.17-2.51-0.91-4.35-2.23-5.53c-1.32-1.17-3.23-1.68-5.75-1.51c-1.67,0.11-3.38,0.71-5.12,1.8c-1.75,1.09-3.22,2.48-4.41,4.17
				l-4.54-3.95c1.28-2.13,3.19-3.9,5.73-5.31c2.53-1.41,5.23-2.21,8.09-2.4c4.63-0.31,8.17,0.56,10.61,2.6
				c2.44,2.04,3.81,5.27,4.1,9.7c0.29,4.43-0.83,8.77-3.37,13.02c-2.54,4.25-6.56,8.44-12.05,12.57l0.45,6.79L280.42,353.8z
				 M282.27,353.67l-0.39-5.87l26.68-1.78l0.39,5.87L282.27,353.67z"/>
		</g>
	</g>
</g>
<g id="Camada_3">
</g>
<g id="Camada_7">
</g>
<g id="Camada_8">
</g>
<g id="Camada_9">
</g>
<g id="Camada_10">
</g>
<g id="Camada_11">
</g>
<g id="Camada_12">
</g>
<g id="Camada_4">
</g>
<g id="Camada_5">
</g>
<g id="Camada_6">
</g>
</svg>
