<?xml version="1.0" encoding="utf-8"?>
<!-- Generator: Adobe Illustrator 24.3.0, SVG Export Plug-In . SVG Version: 6.00 Build 0)  -->
<svg version="1.1" xmlns="http://www.w3.org/2000/svg" xmlns:xlink="http://www.w3.org/1999/xlink" x="0px" y="0px"
	 viewBox="0 0 841.89 595.28" style="enable-background:new 0 0 841.89 595.28;" xml:space="preserve">
<style type="text/css">
	.st0{fill:#009640;}
	.st1{fill:none;stroke:#FFFFFF;stroke-width:2.1953;stroke-linecap:round;stroke-linejoin:round;}
	.st2{fill:none;stroke:#FFFFFF;stroke-width:2.1953;stroke-linecap:round;stroke-linejoin:round;stroke-dasharray:3.3319,6.6638;}
	.st3{fill:none;stroke:#FFFFFF;stroke-width:2.1953;stroke-linecap:round;stroke-linejoin:round;stroke-dasharray:3.2611,6.5221;}
	.st4{fill:none;stroke:#FFFFFF;stroke-width:2.1953;stroke-linecap:round;stroke-linejoin:round;stroke-dasharray:3.3608,6.7216;}
	.st5{fill:none;stroke:url(#SVGID_1_);stroke-width:3.2929;stroke-linecap:round;stroke-linejoin:round;stroke-miterlimit:10;}
	.st6{fill:#FFFFFF;}
	.st7{fill:#FFFFFF;stroke:#000000;stroke-width:13;stroke-miterlimit:10;}
	.st8{fill:#B04E98;}
	.st9{display:none;}
	.st10{display:inline;fill:#F18B8F;}
	.st11{display:none;fill:#7ACCEB;}
	.st12{opacity:0.3;fill:#FFFFFF;}
	.st13{fill:none;stroke:#000000;stroke-width:13;stroke-miterlimit:10;}
	.st14{fill:#C06CA9;}
	.st15{fill:#632D59;}
	.st16{fill:#010202;}
	.st17{opacity:0.6;fill:#FFFFFF;}
	.st18{fill:#68B42E;}
	.st19{fill:#9CC42E;}
	.st20{fill:#3E6429;}
	.st21{fill:#944545;}
	.st22{fill:#AB6666;}
	.st23{fill:#492423;}
	.st24{display:inline;}
	.st25{fill:#CDCCCC;}
	.st26{fill:#B4B4B4;}
	.st27{display:inline;opacity:0.75;}
	.st28{fill:#80BC49;}
	.st29{display:inline;opacity:0.56;}
	.st30{display:inline;opacity:0.47;}
	.st31{fill:#E5E6E7;}
	.st32{fill:#2F9B86;}
	.st33{fill:#36B4A3;}
	.st34{opacity:0.58;}
	.st35{fill:#B5549A;}
	.st36{fill:#94387E;}
	.st37{fill:#D1D137;}
	.st38{fill:#F3EC84;}
	.st39{fill:#F0F1F1;}
	.st40{fill:#5855A0;}
	.st41{fill:#3A6994;}
	.st42{fill:#54AF8C;}
	.st43{fill:#2CAD73;}
	.st44{fill:#272626;}
	.st45{fill:#F6A117;}
	.st46{fill:#FABB5F;}
	.st47{fill:#895C1F;}
</style>
<g id="Camada_1">
</g>
<g id="Camada_2">
</g>
<g id="Camada_3">
	<path class="st6" d="M171.76,167.56v-63.61c0-2.82,2.29-5.1,5.1-5.1h7.17c4.02,0,7.42-4.39,7.42-9.6c0-5.21-3.39-9.6-7.42-9.6
		h-79.98c-4.02,0-7.41,4.4-7.41,9.6c0,5.2,3.4,9.6,7.41,9.6h9.36c2.82,0,5.11,2.29,5.11,5.1v63.81
		C136.26,167.56,153.97,167.38,171.76,167.56z"/>
	<path class="st6" d="M184.04,69.44h-79.98c-9.71,0-17.61,8.88-17.61,19.81c0,10.92,7.9,19.8,17.61,19.8h4.26v342.42
		c0,17.05,16.51,30.92,36.83,30.92c20.3,0,36.82-13.87,36.82-30.92V109.05h2.07c9.72,0,17.62-8.89,17.62-19.8
		C201.65,78.32,193.75,69.44,184.04,69.44z M184.04,98.84h-7.17c-2.82,0-5.1,2.29-5.1,5.1v347.53c0,11.42-11.94,20.71-26.61,20.71
		c-14.68,0-26.62-9.29-26.62-20.71V103.95c0-2.82-2.29-5.1-5.11-5.1h-9.36c-4.02,0-7.41-4.39-7.41-9.6c0-5.21,3.4-9.6,7.41-9.6
		h79.98c4.02,0,7.42,4.4,7.42,9.6C191.45,94.45,188.06,98.84,184.04,98.84z"/>
	<path class="st17" d="M145.15,443.43c0,4.63-3.76,8.38-8.39,8.38l0,0c-4.63,0-8.38-3.75-8.38-8.38V114.58
		c0-4.63,3.75-8.39,8.38-8.39l0,0c4.63,0,8.39,3.76,8.39,8.39V443.43z"/>
	<path class="st6" d="M392.36,399.28c-26.15-44.03-70.54-97.14-91.84-120.7c-1.26-1.4-1.96-3.21-1.96-5.1V144.5
		c0-4.2,3.4-7.61,7.61-7.61h10.69c5.99,0,11.04-6.55,11.04-14.3c0-7.76-5.06-14.31-11.04-14.31H197.66
		c-5.98,0-11.04,6.55-11.04,14.31c0,7.75,5.06,14.3,11.04,14.3h13.95c4.2,0,7.61,3.41,7.61,7.61v128.98c0,1.93-0.73,3.77-2.04,5.18
		c-22.11,23.76-68.38,77.61-95.17,121.84c22.93-0.75,45.93-1.22,69.01-1.22C257.18,399.28,324.92,399.28,392.36,399.28z"/>
	<path class="st18" d="M191.02,399.28c-23.08,0-46.08,0.47-69.01,1.22c-12.25,20.22-20.42,38.42-20.35,50.83
		c0.09,16.27,9.44,35.66,53.43,35.66c6.15,0,10.33-0.48,10.37-0.48c0.28-0.03,0.59-0.05,0.89-0.05h181.82
		c0.29,0,0.59,0.02,0.89,0.05c0.03,0,4.2,0.48,10.36,0.48c43.99,0,53.34-19.4,53.42-35.66c0.07-12.66-8.2-31.35-20.48-52.05
		C324.92,399.28,257.18,399.28,191.02,399.28z"/>
	<path d="M313.77,269.4V155.19c0-1.7,1.38-3.08,3.08-3.08l0,0c14.48,0,26.25-13.24,26.25-29.51c0-16.27-11.77-29.52-26.25-29.52
		H197.66c-14.47,0-26.26,13.25-26.26,29.52c0,16.27,11.78,29.51,26.26,29.51h3.26c1.7,0,3.08,1.38,3.08,3.08v114.13
		c0,0.77-0.28,1.5-0.8,2.07c-8.13,8.92-32.46,36.07-56.5,67.17c-40.11,51.9-60.39,89.87-60.26,112.85
		c0.19,32.28,25.2,50.79,68.64,50.79c5.73,0,9.98-0.37,11.52-0.52c0.1-0.01,0.19-0.01,0.29-0.01h180.7c0.1,0,0.19,0,0.29,0.01
		c1.54,0.15,5.8,0.52,11.52,0.52c0.01,0,0.01,0,0.01,0c43.44,0,68.45-18.51,68.63-50.79c0.27-49.59-95.52-159.72-113.52-179.97
		C314.04,270.88,313.77,270.15,313.77,269.4z M359.42,486.99c-6.16,0-10.33-0.48-10.36-0.48c-0.3-0.03-0.6-0.05-0.89-0.05H166.35
		c-0.3,0-0.6,0.02-0.89,0.05c-0.04,0-4.22,0.48-10.37,0.48c-43.99,0-53.34-19.4-53.43-35.66c-0.23-39.54,83.32-138.04,115.52-172.67
		c1.31-1.41,2.04-3.25,2.04-5.18v-133.5c0-1.7-1.38-3.08-3.08-3.08h-18.48c-5.98,0-11.04-6.55-11.04-14.3
		c0-7.76,5.06-14.31,11.04-14.31h119.19c5.99,0,11.04,6.55,11.04,14.31c0,7.75-5.06,14.3-11.04,14.3h-15.21
		c-1.7,0-3.08,1.38-3.08,3.08v133.5c0,1.89,0.7,3.71,1.96,5.1c31.33,34.62,112.56,133.15,112.33,172.74
		C412.76,467.6,403.41,486.99,359.42,486.99z"/>
	<path class="st17" d="M294.25,461.41c49.26,10.25,121.99-3.98,55.25-89.73c-66.75-85.74-76.65-29.08-55.25,0
		C328,417.54,255.9,453.43,294.25,461.41z"/>
	<path class="st19" d="M155.43,453.21c0,8.28-6.7,14.99-14.99,14.99c-8.28,0-14.99-6.7-14.99-14.99c0-8.28,6.7-14.99,14.99-14.99
		C148.73,438.23,155.43,444.93,155.43,453.21z"/>
	<path class="st20" d="M152.17,453.21c0,6.46-5.26,11.73-11.73,11.73c-6.46,0-11.73-5.26-11.73-11.73c0-6.46,5.26-11.73,11.73-11.73
		C146.91,441.49,152.17,446.75,152.17,453.21z M140.44,434.96c-10.06,0-18.25,8.19-18.25,18.25c0,10.06,8.19,18.25,18.25,18.25
		c10.06,0,18.25-8.19,18.25-18.25C158.69,443.15,150.51,434.96,140.44,434.96z"/>
	<path class="st19" d="M170.95,437.42c0,2.87-2.33,5.2-5.2,5.2c-2.87,0-5.2-2.33-5.2-5.2s2.33-5.2,5.2-5.2
		C168.62,432.22,170.95,434.54,170.95,437.42z"/>
	<path class="st20" d="M169.81,437.42c0,2.24-1.83,4.07-4.07,4.07c-2.24,0-4.07-1.83-4.07-4.07s1.83-4.07,4.07-4.07
		C167.99,433.35,169.81,435.18,169.81,437.42z M165.75,431.09c-3.49,0-6.33,2.84-6.33,6.33s2.84,6.33,6.33,6.33
		c3.49,0,6.33-2.84,6.33-6.33S169.24,431.09,165.75,431.09z"/>
	
		<rect x="172.01" y="338.67" transform="matrix(0.9978 -0.0665 0.0665 0.9978 -25.7391 17.5059)" class="st16" width="156.08" height="113.28"/>
	<g>
		<g>
			<path class="st6" d="M200.12,422.01l-2.92-43.85l6.42-0.43l2.92,43.85L200.12,422.01z M219.76,420.7l-14.82-32.51l-2.84,0.19
				l-0.7-10.5l4.08-0.27l14.82,32.51l1.54-0.1l0.7,10.5L219.76,420.7z M221.61,420.58l-2.92-43.85l6.42-0.43l2.92,43.85
				L221.61,420.58z"/>
			<path class="st6" d="M236.93,419.56L234,375.71l6.42-0.43l2.92,43.85L236.93,419.56z M236.96,400.57l-0.39-5.87l25.97-1.73
				l0.39,5.87L236.96,400.57z M258.91,418.09l-2.92-43.85l6.42-0.43l2.92,43.85L258.91,418.09z"/>
			<path class="st6" d="M271.29,407.4l4.07-31.97l6.67-0.44l-4.13,31.97L271.29,407.4z M271.29,407.4l3.94-6.03l18.03-1.2l0.38,5.74
				L271.29,407.4z M293.68,415.77l-2.92-43.85l6.42-0.43l2.92,43.85L293.68,415.77z M298.83,405.57l-0.38-5.74l4.75-0.32l0.38,5.74
				L298.83,405.57z"/>
		</g>
	</g>
</g>
<g id="Camada_7">
	<g class="st9">
		<g id="XMLID_203_" class="st24">
			<path id="XMLID_392_" class="st6" d="M317.6,501.52H204.82c-17.3,0-31.33-14.03-31.33-31.33V207.95h175.44v262.23
				C348.93,487.49,334.9,501.52,317.6,501.52z"/>
		</g>
		<g id="XMLID_198_" class="st24">
			<path id="XMLID_388_" class="st25" d="M335.77,316.98v153.21c0,10.02-8.15,18.17-18.17,18.17H204.82
				c-10.02,0-18.17-8.15-18.17-18.17V316.98H335.77 M348.93,311.03H173.49v159.16c0,17.3,14.03,31.33,31.33,31.33H317.6
				c17.3,0,31.33-14.03,31.33-31.33V303.82V311.03z"/>
		</g>
		<g id="XMLID_197_" class="st24">
			<rect id="XMLID_227_" x="336.08" y="98.96" class="st25" width="7.47" height="306.19"/>
		</g>
		<g id="XMLID_196_" class="st24">
			<path id="XMLID_384_" class="st25" d="M355.4,311.03H168.24c-1.18,0-2.14-0.96-2.14-2.14v-9.96c0-1.19,0.96-2.15,2.15-2.15H355.4
				c1.19,0,2.15,0.96,2.15,2.15v9.96C357.55,310.07,356.59,311.03,355.4,311.03z"/>
		</g>
		<g id="XMLID_195_" class="st24">
			<rect id="XMLID_382_" x="173.49" y="311.03" class="st26" width="175.44" height="6.19"/>
		</g>
		<g id="XMLID_192_" class="st27">
			<g id="XMLID_299_">
				<path id="XMLID_380_" class="st28" d="M317.6,501.52H204.82c-17.3,0-31.33-14.03-31.33-31.33V362.41h175.44v107.78
					C348.93,487.49,334.9,501.52,317.6,501.52z"/>
			</g>
		</g>
		<g id="XMLID_191_" class="st29">
			<path id="XMLID_228_" class="st6" d="M199.79,457.03c-5.19,0-9.33-4.21-9.33-9.4V329.2c0-5.19,4.14-9.4,9.33-9.4
				c5.19,0,9.34,4.21,9.34,9.4v118.43C209.13,452.82,204.99,457.03,199.79,457.03z"/>
		</g>
		<g id="XMLID_34_" class="st30">
			<g id="XMLID_37_">
				<path id="XMLID_375_" class="st6" d="M298.71,405.5c0-5.34-4.33-9.66-9.66-9.66c-5.33,0-9.65,4.32-9.65,9.66
					c0,5.33,4.32,9.66,9.65,9.66C294.38,415.15,298.71,410.82,298.71,405.5z"/>
			</g>
			<g id="XMLID_36_">
				<path id="XMLID_373_" class="st6" d="M269.15,436.62c0-7.59-6.15-13.74-13.74-13.74c-7.59,0-13.74,6.15-13.74,13.74
					c0,7.59,6.15,13.74,13.74,13.74C263,450.37,269.15,444.21,269.15,436.62z"/>
			</g>
			<g id="XMLID_35_">
				<path id="XMLID_371_" class="st6" d="M324.04,450.23c0-5.38-4.36-9.75-9.74-9.75c-5.39,0-9.75,4.36-9.75,9.75
					c0,5.38,4.36,9.75,9.75,9.75C319.68,459.98,324.04,455.61,324.04,450.23z"/>
			</g>
		</g>
	</g>
</g>
<g id="Camada_8">
</g>
<g id="Camada_9">
</g>
<g id="Camada_10">
</g>
<g id="Camada_11">
</g>
<g id="Camada_12">
</g>
<g id="Camada_4">
</g>
<g id="Camada_5">
</g>
<g id="Camada_6">
</g>
</svg>
