<?xml version="1.0" encoding="utf-8"?>
<!-- Generator: Adobe Illustrator 24.3.0, SVG Export Plug-In . SVG Version: 6.00 Build 0)  -->
<svg version="1.1" xmlns="http://www.w3.org/2000/svg" xmlns:xlink="http://www.w3.org/1999/xlink" x="0px" y="0px"
	 viewBox="0 0 841.89 595.28" style="enable-background:new 0 0 841.89 595.28;" xml:space="preserve">
<style type="text/css">
	.st0{fill:#009640;}
	.st1{fill:none;stroke:#FFFFFF;stroke-width:2.1953;stroke-linecap:round;stroke-linejoin:round;}
	.st2{fill:none;stroke:#FFFFFF;stroke-width:2.1953;stroke-linecap:round;stroke-linejoin:round;stroke-dasharray:3.3319,6.6638;}
	.st3{fill:none;stroke:#FFFFFF;stroke-width:2.1953;stroke-linecap:round;stroke-linejoin:round;stroke-dasharray:3.2611,6.5221;}
	.st4{fill:none;stroke:#FFFFFF;stroke-width:2.1953;stroke-linecap:round;stroke-linejoin:round;stroke-dasharray:3.3608,6.7216;}
	.st5{fill:none;stroke:url(#SVGID_1_);stroke-width:3.2929;stroke-linecap:round;stroke-linejoin:round;stroke-miterlimit:10;}
	.st6{fill:#FFFFFF;}
	.st7{fill:#FFFFFF;stroke:#000000;stroke-width:13;stroke-miterlimit:10;}
	.st8{fill:#B04E98;}
	.st9{display:none;}
	.st10{display:inline;fill:#F18B8F;}
	.st11{display:none;fill:#7ACCEB;}
	.st12{opacity:0.3;fill:#FFFFFF;}
	.st13{fill:none;stroke:#000000;stroke-width:13;stroke-miterlimit:10;}
	.st14{fill:#C06CA9;}
	.st15{fill:#632D59;}
	.st16{fill:#010202;}
	.st17{opacity:0.6;fill:#FFFFFF;}
	.st18{fill:#68B42E;}
	.st19{fill:#9CC42E;}
	.st20{fill:#3E6429;}
	.st21{fill:#944545;}
	.st22{fill:#AB6666;}
	.st23{fill:#492423;}
	.st24{display:inline;}
	.st25{fill:#CDCCCC;}
	.st26{fill:#B4B4B4;}
	.st27{display:inline;opacity:0.75;}
	.st28{fill:#80BC49;}
	.st29{display:inline;opacity:0.56;}
	.st30{display:inline;opacity:0.47;}
	.st31{fill:#E5E6E7;}
	.st32{fill:#2F9B86;}
	.st33{fill:#36B4A3;}
	.st34{opacity:0.58;}
	.st35{fill:#B5549A;}
	.st36{fill:#94387E;}
	.st37{fill:#D1D137;}
	.st38{fill:#F3EC84;}
	.st39{fill:#F0F1F1;}
	.st40{fill:#5855A0;}
	.st41{fill:#3A6994;}
	.st42{fill:#54AF8C;}
	.st43{fill:#2CAD73;}
	.st44{fill:#272626;}
	.st45{fill:#F6A117;}
	.st46{fill:#FABB5F;}
	.st47{fill:#895C1F;}
</style>
<g id="Camada_1">
</g>
<g id="Camada_2">
</g>
<g id="Camada_3">
</g>
<g id="Camada_7">
	<path class="st6" d="M555.98,399.28c-26.15-44.03-70.54-97.14-91.84-120.7c-1.26-1.4-1.96-3.21-1.96-5.1V144.5
		c0-4.2,3.4-7.61,7.61-7.61h10.69c5.99,0,11.04-6.55,11.04-14.3c0-7.76-5.06-14.31-11.04-14.31H361.28
		c-5.98,0-11.04,6.55-11.04,14.31c0,7.75,5.06,14.3,11.04,14.3h13.95c4.2,0,7.61,3.41,7.61,7.61v128.98c0,1.93-0.73,3.77-2.04,5.18
		c-22.11,23.76-68.38,77.61-95.17,121.84c22.93-0.75,45.93-1.22,69.01-1.22C420.8,399.28,488.54,399.28,555.98,399.28z"/>
	<path class="st21" d="M332.32,399.28c-25.76,0-51.42,0.77-77.01,1.98c-13.67,32.94-22.79,62.6-22.71,82.81
		c0.1,26.5,10.53,58.1,59.63,58.1c6.87,0,11.53-0.78,11.58-0.79c0.32-0.05,0.66-0.09,0.99-0.09H507.7c0.33,0,0.66,0.04,1,0.09
		c0.03,0.01,4.69,0.79,11.56,0.79c49.09,0,59.53-31.6,59.62-58.1c0.08-20.62-9.15-51.08-22.86-84.79
		C481.76,399.28,406.16,399.28,332.32,399.28z"/>
	<path d="M470.15,262.53V120.57c0-2.12,1.51-3.83,3.37-3.83l0,0c15.83,0,28.7-16.46,28.7-36.69c0-20.23-12.87-36.7-28.7-36.7h-130.3
		c-15.82,0-28.7,16.47-28.7,36.7c0,20.23,12.88,36.69,28.7,36.69h3.57c1.86,0,3.37,1.72,3.37,3.83v141.88
		c0,0.96-0.31,1.87-0.87,2.58c-8.89,11.09-35.49,44.84-61.76,83.49c-43.85,64.51-66.02,111.71-65.88,140.28
		c0.2,40.13,27.55,63.14,75.04,63.14c6.27,0,10.91-0.46,12.6-0.65c0.11-0.01,0.21-0.02,0.32-0.02h197.54c0.11,0,0.21,0.01,0.32,0.02
		c1.69,0.19,6.34,0.65,12.6,0.65c0.01,0,0.01,0,0.01,0c47.49,0,74.83-23.01,75.03-63.14c0.3-61.65-104.42-198.54-124.1-223.72
		C470.44,264.37,470.15,263.47,470.15,262.53z M520.06,533.02c-6.73,0-11.29-0.6-11.32-0.6c-0.33-0.04-0.66-0.07-0.98-0.07H308.99
		c-0.33,0-0.66,0.03-0.97,0.07c-0.05,0-4.61,0.6-11.34,0.6c-48.09,0-58.31-24.11-58.41-44.33
		c-0.25-49.16,91.08-171.59,126.29-214.64c1.43-1.75,2.23-4.04,2.23-6.44V101.66c0-2.12-1.51-3.83-3.37-3.83h-20.2
		c-6.54,0-12.07-8.14-12.07-17.78c0-9.64,5.53-17.79,12.07-17.79h130.3c6.55,0,12.07,8.15,12.07,17.79
		c0,9.64-5.53,17.78-12.07,17.78h-16.63c-1.86,0-3.37,1.72-3.37,3.83v165.95c0,2.35,0.77,4.61,2.15,6.34
		c34.25,43.04,123.05,165.52,122.8,214.73C578.37,508.91,568.15,533.02,520.06,533.02z"/>
	<path class="st17" d="M504.81,514.95c39.41,7.7,97.59-2.99,44.2-67.4c-53.4-64.4-61.32-21.84-44.2,0
		C531.81,482,474.13,508.96,504.81,514.95z"/>
	<path class="st22" d="M289.05,494.95c0,8.28-6.7,14.99-14.99,14.99c-8.28,0-14.99-6.7-14.99-14.99c0-8.28,6.7-14.99,14.99-14.99
		C282.35,479.96,289.05,486.67,289.05,494.95z"/>
	<path class="st23" d="M285.79,494.95c0,6.46-5.26,11.73-11.73,11.73c-6.46,0-11.73-5.26-11.73-11.73c0-6.46,5.26-11.73,11.73-11.73
		C280.53,483.23,285.79,488.49,285.79,494.95z M274.06,476.7c-10.06,0-18.25,8.19-18.25,18.25c0,10.06,8.19,18.25,18.25,18.25
		c10.06,0,18.25-8.19,18.25-18.25C292.31,484.89,284.13,476.7,274.06,476.7z"/>
	<path class="st22" d="M304.56,479.16c0,2.87-2.33,5.2-5.2,5.2s-5.2-2.33-5.2-5.2c0-2.87,2.33-5.2,5.2-5.2
		S304.56,476.28,304.56,479.16z"/>
	<path class="st23" d="M303.43,479.16c0,2.24-1.83,4.07-4.07,4.07s-4.07-1.83-4.07-4.07s1.83-4.07,4.07-4.07
		S303.43,476.92,303.43,479.16z M299.36,472.83c-3.49,0-6.33,2.84-6.33,6.33s2.84,6.33,6.33,6.33c3.49,0,6.33-2.84,6.33-6.33
		S302.86,472.83,299.36,472.83z"/>
	
		<rect x="325.57" y="366.5" transform="matrix(0.9978 -0.0665 0.0665 0.9978 -27.2496 27.7814)" class="st16" width="156.08" height="113.28"/>
	<g>
		<g>
			<path class="st6" d="M404.23,444.52c-10.79,0.72-16.67-6.33-17.66-21.15c-1.01-15.23,3.87-23.21,14.66-23.93
				s16.69,6.54,17.7,21.77C419.91,436.03,415.01,443.8,404.23,444.52z M403.85,438.84c6.38-0.43,9.2-6.16,8.47-17.19
				c-0.76-11.45-4.33-16.96-10.72-16.53c-6.38,0.42-9.19,6.36-8.43,17.81C393.91,433.96,397.47,439.26,403.85,438.84z"/>
		</g>
	</g>
</g>
<g id="Camada_8">
</g>
<g id="Camada_9">
</g>
<g id="Camada_10">
</g>
<g id="Camada_11">
</g>
<g id="Camada_12">
</g>
<g id="Camada_4">
</g>
<g id="Camada_5">
</g>
<g id="Camada_6">
</g>
</svg>
