<?xml version="1.0" encoding="utf-8"?>
<!-- Generator: Adobe Illustrator 24.3.0, SVG Export Plug-In . SVG Version: 6.00 Build 0)  -->
<svg version="1.1" xmlns="http://www.w3.org/2000/svg" xmlns:xlink="http://www.w3.org/1999/xlink" x="0px" y="0px"
	 viewBox="0 0 841.89 595.28" style="enable-background:new 0 0 841.89 595.28;" xml:space="preserve">
<style type="text/css">
	.st0{fill:#009640;}
	.st1{fill:none;stroke:#FFFFFF;stroke-width:2.1953;stroke-linecap:round;stroke-linejoin:round;}
	.st2{fill:none;stroke:#FFFFFF;stroke-width:2.1953;stroke-linecap:round;stroke-linejoin:round;stroke-dasharray:3.3319,6.6638;}
	.st3{fill:none;stroke:#FFFFFF;stroke-width:2.1953;stroke-linecap:round;stroke-linejoin:round;stroke-dasharray:3.2611,6.5221;}
	.st4{fill:none;stroke:#FFFFFF;stroke-width:2.1953;stroke-linecap:round;stroke-linejoin:round;stroke-dasharray:3.3608,6.7216;}
	.st5{fill:none;stroke:url(#SVGID_1_);stroke-width:3.2929;stroke-linecap:round;stroke-linejoin:round;stroke-miterlimit:10;}
	.st6{fill:#FFFFFF;}
	.st7{fill:#FFFFFF;stroke:#000000;stroke-width:13;stroke-miterlimit:10;}
	.st8{fill:#B04E98;}
	.st9{display:none;}
	.st10{display:inline;fill:#F18B8F;}
	.st11{display:none;fill:#7ACCEB;}
	.st12{opacity:0.3;fill:#FFFFFF;}
	.st13{fill:none;stroke:#000000;stroke-width:13;stroke-miterlimit:10;}
	.st14{fill:#C06CA9;}
	.st15{fill:#632D59;}
	.st16{fill:#010202;}
	.st17{opacity:0.6;fill:#FFFFFF;}
	.st18{fill:#68B42E;}
	.st19{fill:#9CC42E;}
	.st20{fill:#3E6429;}
	.st21{fill:#944545;}
	.st22{fill:#AB6666;}
	.st23{fill:#492423;}
	.st24{display:inline;}
	.st25{fill:#CDCCCC;}
	.st26{fill:#B4B4B4;}
	.st27{display:inline;opacity:0.75;}
	.st28{fill:#80BC49;}
	.st29{display:inline;opacity:0.56;}
	.st30{display:inline;opacity:0.47;}
	.st31{fill:#E5E6E7;}
	.st32{fill:#2F9B86;}
	.st33{fill:#36B4A3;}
	.st34{opacity:0.58;}
	.st35{fill:#B5549A;}
	.st36{fill:#94387E;}
	.st37{fill:#D1D137;}
	.st38{fill:#F3EC84;}
	.st39{fill:#F0F1F1;}
	.st40{fill:#5855A0;}
	.st41{fill:#3A6994;}
	.st42{fill:#54AF8C;}
	.st43{fill:#2CAD73;}
	.st44{fill:#272626;}
	.st45{fill:#F6A117;}
	.st46{fill:#FABB5F;}
	.st47{fill:#895C1F;}
</style>
<g id="Camada_1">
</g>
<g id="Camada_2">
</g>
<g id="Camada_3">
</g>
<g id="Camada_7">
</g>
<g id="Camada_8">
</g>
<g id="Camada_9">
</g>
<g id="Camada_10">
</g>
<g id="Camada_11">
</g>
<g id="Camada_12">
</g>
<g id="Camada_4">
	<path class="st6" d="M293.27,254.9v-65.28c0-2.89,2.34-5.23,5.24-5.23h7.36c4.12,0,7.61-4.51,7.61-9.85c0-5.34-3.48-9.85-7.61-9.85
		H223.8c-4.12,0-7.6,4.51-7.6,9.85c0,5.34,3.48,9.85,7.6,9.85h9.61c2.9,0,5.24,2.35,5.24,5.23v65.48
		C256.84,254.9,275.02,254.72,293.27,254.9z"/>
	<path class="st45" d="M238.64,255.1v291.13c0,11.72,12.25,21.25,27.31,21.25c15.06,0,27.31-9.53,27.31-21.25V254.9
		C275.02,254.72,256.84,254.9,238.64,255.1z"/>
	<path d="M305.87,154.21H223.8c-9.97,0-18.08,9.12-18.08,20.32c0,11.2,8.11,20.32,18.08,20.32h2.24c1.17,0,2.13,0.95,2.13,2.13
		v349.25c0,17.49,16.95,31.73,37.79,31.73c20.83,0,37.78-14.23,37.78-31.73V196.99c0-1.17,0.95-2.13,2.13-2.13l0,0
		c9.97,0,18.08-9.12,18.08-20.32C323.95,163.33,315.83,154.21,305.87,154.21z M305.87,184.39h-5.23c-4.07,0-7.36,3.3-7.36,7.36
		v354.49c0,11.72-12.25,21.25-27.31,21.25c-15.06,0-27.31-9.53-27.31-21.25V191.75c0-4.07-3.3-7.37-7.37-7.37h-7.48
		c-4.12,0-7.6-4.51-7.6-9.85c0-5.34,3.48-9.85,7.6-9.85h82.07c4.12,0,7.61,4.51,7.61,9.85
		C313.47,179.88,309.99,184.39,305.87,184.39z"/>
	<path class="st17" d="M285.83,483.61c0,3.84-3.11,6.95-6.95,6.95l0,0c-3.84,0-6.95-3.11-6.95-6.95V210.96
		c0-3.84,3.11-6.95,6.95-6.95l0,0c3.84,0,6.95,3.11,6.95,6.95V483.61z"/>
	
		<rect x="187.92" y="352.2" transform="matrix(0.9978 -0.0665 0.0665 0.9978 -26.6034 18.5944)" class="st16" width="156.08" height="113.28"/>
	<g>
		<g>
			<path class="st6" d="M246.9,432.95c-10.79,0.72-16.67-6.33-17.66-21.15c-1.01-15.23,3.87-23.21,14.66-23.93
				s16.69,6.54,17.7,21.77C262.58,424.46,257.68,432.24,246.9,432.95z M246.52,427.27c6.38-0.43,9.2-6.16,8.47-17.19
				c-0.76-11.45-4.33-16.96-10.72-16.53c-6.38,0.42-9.19,6.36-8.43,17.81C236.58,422.39,240.14,427.7,246.52,427.27z"/>
			<path class="st6" d="M275.78,410.25l-1.01-3.96c3.22-0.65,5.82-1.46,7.79-2.44c1.97-0.98,3.4-2.1,4.27-3.37
				c0.88-1.27,1.27-2.64,1.17-4.12c-0.12-1.79-0.79-3.15-2.02-4.07c-1.23-0.92-2.92-1.31-5.09-1.17c-1.56,0.1-3.2,0.61-4.91,1.5
				c-1.71,0.9-3.29,2.18-4.75,3.85l-4.54-3.95c1.75-2.27,3.84-3.97,6.26-5.12c2.43-1.14,5.17-1.82,8.24-2.02
				c3.99-0.27,7.14,0.38,9.43,1.93c2.29,1.55,3.55,3.9,3.76,7.05c0.18,2.64-0.52,4.98-2.07,7.04c-1.56,2.06-3.67,3.54-6.34,4.44
				l0.25,3.71L275.78,410.25z M281.29,430.66c-2.26,0.15-4.35,0.16-6.25,0.01s-3.6-0.39-5.09-0.75l0.38-5.95
				c1.28,0.27,2.72,0.54,4.32,0.83c1.6,0.29,3.6,0.35,6.01,0.19c3.21-0.21,5.66-1.02,7.34-2.41c1.69-1.4,2.45-3.25,2.3-5.55
				c-0.11-1.65-0.71-3.01-1.81-4.1c-1.1-1.08-2.63-1.86-4.61-2.33c-1.97-0.47-4.35-0.61-7.13-0.42l-0.99,0.07l-1.01-3.96l9.5,0.11
				c3.52,0.03,6.43,0.98,8.75,2.84c2.32,1.86,3.59,4.52,3.82,7.98c0.26,3.91-0.96,7.04-3.67,9.39
				C290.46,428.96,286.5,430.31,281.29,430.66z"/>
		</g>
	</g>
</g>
<g id="Camada_5">
	<path class="st46" d="M274.49,532.72c0,5.95-4.82,10.77-10.77,10.77c-5.95,0-10.77-4.82-10.77-10.77s4.82-10.77,10.77-10.77
		C269.68,521.95,274.49,526.77,274.49,532.72z"/>
	<path class="st47" d="M272.15,532.72c0,4.65-3.78,8.43-8.43,8.43c-4.65,0-8.43-3.78-8.43-8.43s3.78-8.43,8.43-8.43
		C268.37,524.3,272.15,528.08,272.15,532.72z M263.72,519.61c-7.23,0-13.12,5.88-13.12,13.12s5.88,13.12,13.12,13.12
		c7.23,0,13.12-5.88,13.12-13.12S270.95,519.61,263.72,519.61z"/>
	<path class="st46" d="M259.03,511.04c0,2.07-1.67,3.74-3.74,3.74c-2.07,0-3.74-1.67-3.74-3.74c0-2.07,1.67-3.74,3.74-3.74
		C257.36,507.3,259.03,508.97,259.03,511.04z"/>
	<path class="st47" d="M258.22,511.04c0,1.61-1.31,2.92-2.92,2.92c-1.61,0-2.92-1.31-2.92-2.92c0-1.61,1.31-2.92,2.92-2.92
		C256.91,508.12,258.22,509.43,258.22,511.04z M255.29,506.49c-2.51,0-4.55,2.04-4.55,4.55c0,2.51,2.04,4.55,4.55,4.55
		c2.51,0,4.55-2.04,4.55-4.55C259.85,508.53,257.8,506.49,255.29,506.49z"/>
</g>
<g id="Camada_6">
</g>
</svg>
