<svg width="118" height="126" viewBox="0 0 118 126" fill="none" xmlns="http://www.w3.org/2000/svg">
<path d="M62.6402 105.83C66.1302 99.5402 66.3402 91.9102 69.3702 85.3902C75.6202 71.9702 92.1202 66.2102 99.8702 53.6002C106.65 42.5602 104.95 27.0402 96.0102 17.6602C87.0702 8.28021 71.7502 5.7902 60.2502 11.7702C50.2302 16.9802 43.9302 27.2502 39.2702 37.5302C34.6102 47.8102 30.9902 58.7602 24.1202 67.7202C18.2402 75.3902 9.72017 82.3502 9.36017 92.0102C9.19017 96.7002 11.0902 101.26 13.7802 105.1C18.6402 112.03 27.3702 118.88 36.2502 118.62C46.3802 118.3 57.4002 115.26 62.6402 105.83Z" fill="#008D36"/>
<path opacity="0.2" d="M58.55 91.2602C59.83 86.1502 61.2599 80.9102 64.4799 76.7402C67.7499 72.5002 72.5599 69.7702 76.9499 66.7102C82.8199 62.6102 88.2399 57.6202 91.7199 51.3502C95.2 45.0902 96.5699 37.4202 94.2799 30.6302C91.3499 21.9402 82.4999 15.8602 73.3399 15.4002C64.1799 14.9402 55.14 19.7102 49.6 27.0202C45.96 31.8302 43.7599 37.5602 41.6399 43.2102C38.07 52.7102 34.46 62.4202 28.13 70.3502C25.23 73.9802 21.7499 77.2502 19.7799 81.4602C16.3299 88.8402 18.3299 97.9602 23.2599 104.45C27.3199 109.78 36.86 115.49 43.86 113.28C53.2599 110.32 56.43 99.7002 58.55 91.2602Z" fill="#006633"/>
<g opacity="0.2">
<path d="M89.8602 0.730103C90.0202 0.760103 90.1602 0.8701 90.2102 1.0401C91.6302 5.8701 90.6902 11.4201 87.7602 15.5101C87.6202 15.7101 87.3502 15.7501 87.1502 15.6101C86.9502 15.4701 86.9102 15.1901 87.0502 15.0001C89.8302 11.1201 90.7202 5.8701 89.3702 1.2901C89.3002 1.0601 89.4302 0.8101 89.6702 0.7501C89.7302 0.7201 89.8002 0.720103 89.8602 0.730103Z" fill="#006633"/>
<path d="M84.1101 5.64019C84.3301 5.68019 84.4901 5.88019 84.4701 6.11019C84.2901 8.22019 83.7501 10.2702 82.8701 12.1902C82.7701 12.4102 82.5101 12.5102 82.2901 12.4102C82.0701 12.3102 81.9701 12.0502 82.0701 11.8302C82.9101 10.0002 83.4201 8.05019 83.6001 6.04019C83.6201 5.80019 83.8301 5.62019 84.0701 5.64019C84.0901 5.64019 84.1001 5.64019 84.1101 5.64019Z" fill="#006633"/>
<path d="M77.1601 2.44017C77.2701 2.46017 77.3701 2.52016 77.4401 2.61016C77.5901 2.80016 77.5501 3.08016 77.3501 3.22016C74.9101 5.07016 73.2901 7.99016 73.0201 11.0402C73.0001 11.2802 72.7901 11.4602 72.5401 11.4402C72.3101 11.4102 72.1201 11.2102 72.1401 10.9602C72.4301 7.67016 74.1801 4.51016 76.8201 2.52016C76.9201 2.45016 77.0401 2.42017 77.1601 2.44017Z" fill="#006633"/>
<path d="M63.4699 4.2202C63.6999 4.2602 63.8599 4.48019 63.8299 4.71019C63.4699 7.35019 64.0199 10.0602 65.3899 12.3402C65.5099 12.5502 65.4499 12.8202 65.2399 12.9402C65.0299 13.0602 64.7599 13.0002 64.6399 12.7902C63.1699 10.3402 62.5699 7.42019 62.9599 4.59019C62.9899 4.35019 63.2099 4.1802 63.4499 4.2202C63.4599 4.2202 63.4699 4.2202 63.4699 4.2202Z" fill="#006633"/>
<path d="M54.16 11.6301C56.05 11.9501 57.81 12.9801 59 14.4801C59.15 14.6701 59.12 14.9501 58.93 15.1001C58.74 15.2501 58.46 15.2201 58.31 15.0301C57.21 13.6501 55.6 12.7201 53.83 12.4701C53.63 12.4301 53.42 12.2101 53.46 11.9701C53.49 11.7301 53.72 11.5601 53.96 11.6001C54.02 11.6101 54.09 11.6201 54.16 11.6301Z" fill="#006633"/>
<path d="M45.9802 18.3801C47.5902 18.6501 49.0502 19.7602 49.6702 21.3002C49.7602 21.5202 49.6502 21.7802 49.4302 21.8702C49.2102 21.9602 48.9503 21.8501 48.8603 21.6301C48.2503 20.1101 46.5602 19.0701 44.9202 19.2101C44.6802 19.2301 44.4702 19.0501 44.4502 18.8101C44.4302 18.5701 44.6103 18.3601 44.8503 18.3401C45.2303 18.3001 45.6102 18.3201 45.9802 18.3801Z" fill="#006633"/>
<path d="M39.9802 27.38C40.0602 27.39 40.1402 27.43 40.2002 27.49C41.6402 28.8 43.0302 30.21 44.3102 31.68C44.4702 31.86 44.4502 32.14 44.2702 32.3C44.0902 32.46 43.8102 32.44 43.6502 32.26C42.3902 30.81 41.0302 29.43 39.6102 28.14C39.4302 27.98 39.4202 27.7 39.5802 27.52C39.6902 27.41 39.8402 27.36 39.9802 27.38Z" fill="#006633"/>
<path d="M42.5202 24.5001C44.0102 24.7501 45.4102 25.5901 46.2302 26.8601C46.3602 27.0601 46.3002 27.3401 46.1002 27.4701C45.9002 27.6001 45.6202 27.5401 45.4902 27.3401C44.4102 25.6601 42.0802 24.8701 40.1902 25.5401C39.9602 25.6201 39.7102 25.5001 39.6302 25.2701C39.5502 25.0401 39.6702 24.7901 39.9002 24.7101C40.7302 24.4101 41.6402 24.3601 42.5202 24.5001Z" fill="#006633"/>
<path d="M39.7002 39.27C39.9302 39.31 40.0902 39.52 40.0602 39.75C40.0302 39.99 39.8203 40.16 39.5803 40.14C36.5503 39.8 33.4702 39.78 30.4302 40.06C30.1902 40.08 29.9802 39.9 29.9502 39.66C29.9302 39.42 30.1103 39.21 30.3503 39.18C33.4503 38.89 36.5902 38.92 39.6802 39.27C39.6802 39.27 39.6902 39.27 39.7002 39.27Z" fill="#006633"/>
<path d="M36.9498 47.4701C37.1698 47.5101 37.3298 47.7001 37.3098 47.9201C37.2998 48.1601 37.0898 48.3501 36.8498 48.3401L31.0698 48.0501C30.8298 48.0401 30.6398 47.8301 30.6498 47.5901C30.6598 47.3501 30.8698 47.1601 31.1098 47.1701L36.8898 47.4601C36.9198 47.4601 36.9298 47.4701 36.9498 47.4701Z" fill="#006633"/>
<path d="M30.0901 53.5101C30.1201 53.5201 30.1601 53.5301 30.1901 53.5401L32.7501 54.6601C32.9701 54.7601 33.0701 55.0201 32.9801 55.2401C32.8801 55.4601 32.6301 55.5701 32.4001 55.4701L29.8401 54.3501C29.6201 54.2501 29.5201 53.9901 29.6101 53.7701C29.7001 53.5801 29.9001 53.4801 30.0901 53.5101Z" fill="#006633"/>
<path d="M24.6102 60.7701C26.0902 61.0201 27.4902 61.7901 28.4702 62.9201C28.6302 63.1001 28.6102 63.38 28.4302 63.54C28.2502 63.7 27.9702 63.6801 27.8102 63.5001C26.7902 62.3201 25.2402 61.5901 23.6702 61.5601C23.4302 61.5501 23.2402 61.3501 23.2402 61.1101C23.2402 60.8701 23.4402 60.67 23.6902 60.68C23.9902 60.69 24.3002 60.7201 24.6102 60.7701Z" fill="#006633"/>
<path d="M20.6399 71.0501C21.6899 71.2301 22.7099 71.5401 23.6799 71.9901C23.8999 72.0901 23.9899 72.3501 23.8899 72.5701C23.7899 72.7901 23.5199 72.8801 23.3099 72.7801C21.2099 71.8001 18.7899 71.5101 16.5199 71.9601C16.2799 72.0101 16.0499 71.8501 15.9999 71.6201C15.9499 71.3801 16.1099 71.1501 16.3399 71.1001C17.7499 70.8301 19.2199 70.8201 20.6399 71.0501Z" fill="#006633"/>
<path d="M16.93 78.74C17.1 78.77 17.24 78.9 17.28 79.07C17.34 79.31 17.19 79.54 16.95 79.6C16.56 79.69 15.79 79.81 14.82 79.97C12.76 80.3 8.91999 80.91 8.20999 81.45C8.01999 81.6 7.73998 81.56 7.58998 81.37C7.43998 81.18 7.47998 80.9 7.66998 80.75C8.47998 80.12 11.32 79.63 14.67 79.09C15.58 78.94 16.38 78.82 16.74 78.73C16.81 78.73 16.87 78.73 16.93 78.74Z" fill="#006633"/>
<path d="M14.9003 74.3301C16.6203 74.6201 18.2803 75.3001 19.6803 76.3301C19.8803 76.4701 19.9203 76.7501 19.7803 76.9401C19.6403 77.1301 19.3603 77.1801 19.1703 77.0401C17.1803 75.5901 14.6403 74.8801 12.1903 75.0901C11.9503 75.1101 11.7403 74.9301 11.7203 74.6901C11.7003 74.4501 11.8803 74.2401 12.1203 74.2201C13.0303 74.1401 13.9803 74.1801 14.9003 74.3301Z" fill="#006633"/>
<path d="M107.49 31.7802C107.23 31.7802 107.01 31.5802 106.99 31.3202C106.97 31.0402 107.17 30.8002 107.45 30.7802L116.71 30.0002C116.98 29.9802 117.23 30.1802 117.25 30.4602C117.27 30.7402 117.07 30.9802 116.79 31.0002L107.53 31.7802C107.52 31.7802 107.51 31.7802 107.49 31.7802Z" fill="#006633"/>
<path d="M99.0103 10.81C99.1703 10.84 99.3102 10.9501 99.3602 11.1101C99.4302 11.3401 99.3002 11.5901 99.0702 11.6601C95.8802 12.6401 92.9402 14.3901 90.5602 16.7201C90.3902 16.8901 90.1102 16.8901 89.9402 16.7101C89.7702 16.5401 89.7702 16.26 89.9502 16.09C92.4302 13.66 95.4902 11.8401 98.8102 10.8201C98.8702 10.8101 98.9403 10.8 99.0103 10.81Z" fill="#006633"/>
<path d="M100.58 15.9501C100.72 15.9701 100.84 16.0601 100.9 16.1901C101.01 16.4101 100.92 16.6701 100.7 16.7801C99.0099 17.6001 97.4798 18.7001 96.1498 20.0401C95.9798 20.2101 95.6998 20.2201 95.5298 20.0401C95.3598 19.8701 95.3598 19.5901 95.5298 19.4201C96.9198 18.0101 98.5299 16.8501 100.32 15.9901C100.4 15.9501 100.49 15.9401 100.58 15.9501Z" fill="#006633"/>
<path d="M105.59 16.8102C105.63 16.8202 105.68 16.8302 105.72 16.8502C105.94 16.9602 106.02 17.2202 105.91 17.4402C104.06 21.0702 101.82 24.5102 99.2502 27.6702C99.1002 27.8602 98.8202 27.8902 98.6302 27.7302C98.4402 27.5802 98.4102 27.3002 98.5702 27.1102C101.1 24.0002 103.31 20.6002 105.13 17.0302C105.22 16.8702 105.41 16.7802 105.59 16.8102Z" fill="#006633"/>
<path d="M12.5903 113.18C12.4003 113.18 12.2203 113.07 12.1403 112.89C12.0203 112.64 12.1303 112.34 12.3903 112.23C14.3003 111.35 16.0903 110.21 17.7003 108.86C17.9103 108.68 18.2303 108.71 18.4003 108.92C18.5803 109.13 18.5503 109.45 18.3403 109.62C16.6603 111.04 14.8003 112.22 12.8103 113.14C12.7303 113.16 12.6603 113.18 12.5903 113.18Z" fill="#006633"/>
<path d="M8.07003 105.13C7.37003 105.13 6.68002 105.08 5.98002 104.99C5.71002 104.95 5.51003 104.7 5.55003 104.43C5.59003 104.16 5.84002 103.96 6.11002 104C9.19002 104.41 12.39 103.83 15.12 102.36C15.36 102.23 15.67 102.32 15.8 102.56C15.93 102.8 15.84 103.11 15.6 103.24C13.3 104.47 10.68 105.13 8.07003 105.13Z" fill="#006633"/>
<path d="M16.0798 97.0201C13.5098 97.0201 10.9698 95.9601 9.15983 94.1101C8.96983 93.9101 8.96983 93.6001 9.16983 93.4001C9.36983 93.2101 9.67983 93.2101 9.87983 93.4101C11.6598 95.2401 14.2498 96.2001 16.7898 95.9801C17.0498 95.9501 17.3098 96.1601 17.3298 96.4401C17.3498 96.7101 17.1498 96.9601 16.8698 96.9801C16.6098 97.0101 16.3498 97.0201 16.0798 97.0201Z" fill="#006633"/>
<path d="M15.2898 88.6501C13.9798 88.6501 12.6698 87.8602 12.1498 86.6402C12.0398 86.3902 12.1598 86.0902 12.4098 85.9802C12.6598 85.8702 12.9598 85.9902 13.0698 86.2402C13.5098 87.2802 14.8398 87.8901 15.9198 87.5401C16.1798 87.4601 16.4598 87.6002 16.5498 87.8602C16.6298 88.1202 16.4898 88.4002 16.2298 88.4902C15.9198 88.6002 15.5998 88.6501 15.2898 88.6501Z" fill="#006633"/>
<path d="M90.6202 54.7501C90.6302 54.7501 90.6402 54.7501 90.6402 54.7501C95.9902 55.9401 100.73 59.5401 103.32 64.3601C103.43 64.5701 103.35 64.8401 103.14 64.9501C102.93 65.0701 102.66 64.9801 102.55 64.7701C100.08 60.1701 95.5502 56.7401 90.4502 55.6001C90.2102 55.5501 90.0602 55.3101 90.1202 55.0801C90.1702 54.8601 90.3902 54.7101 90.6202 54.7501Z" fill="#006633"/>
<path d="M89.3501 60.61C89.4101 60.62 89.4801 60.65 89.5301 60.69C92.7301 62.98 94.1801 67.36 92.9701 71.1C92.9001 71.33 92.6501 71.46 92.4201 71.38C92.1901 71.31 92.0601 71.06 92.1401 70.83C93.2201 67.49 91.8801 63.44 89.0301 61.4C88.8301 61.26 88.79 60.99 88.93 60.79C89.03 60.64 89.1901 60.58 89.3501 60.61Z" fill="#006633"/>
<path d="M83.4 67.0301H83.41C85.66 67.4601 87.72 68.7801 89.06 70.6501C89.2 70.8501 89.16 71.1201 88.96 71.2601C88.76 71.4001 88.49 71.3601 88.35 71.1601C87.14 69.4801 85.28 68.2901 83.25 67.8901C83.01 67.8401 82.86 67.6101 82.9 67.3801C82.95 67.1501 83.17 66.9901 83.4 67.0301Z" fill="#006633"/>
<path d="M74.9499 73.3402C74.9999 73.3502 75.0399 73.3602 75.0899 73.3902C76.7499 74.3002 78.4599 75.2402 79.7999 76.6802C81.3299 78.3302 82.0099 80.4002 81.6199 82.2102C81.5699 82.4502 81.3299 82.6002 81.0999 82.5502C80.8599 82.5002 80.7099 82.2602 80.7599 82.0302C81.0899 80.5002 80.4999 78.7202 79.1599 77.2802C77.9199 75.9402 76.2699 75.0402 74.6699 74.1602C74.4599 74.0402 74.3799 73.7802 74.4999 73.5602C74.5799 73.3902 74.7699 73.3102 74.9499 73.3402Z" fill="#006633"/>
<path d="M77.1701 79.16C77.3101 79.18 77.4401 79.28 77.5001 79.42C77.6001 79.64 77.5001 79.9 77.2801 80C74.5001 81.23 71.3201 81.56 68.3501 80.92C68.1101 80.87 67.9601 80.64 68.0101 80.4C68.0601 80.16 68.2901 80 68.5301 80.06C71.3301 80.66 74.3101 80.35 76.9301 79.19C77.0101 79.16 77.0901 79.15 77.1701 79.16Z" fill="#006633"/>
<path d="M71.69 91.7002C71.86 91.7302 72.01 91.8602 72.05 92.0402C72.1 92.2802 71.9501 92.5102 71.7101 92.5602C68.9601 93.1302 66.06 93.1402 63.31 92.6102C63.07 92.5602 62.9201 92.3302 62.9601 92.1002C63.0101 91.8602 63.25 91.7102 63.47 91.7502C66.11 92.2702 68.9 92.2502 71.53 91.7102C71.59 91.6902 71.64 91.6902 71.69 91.7002Z" fill="#006633"/>
<path d="M66.0001 98.5302C68.2801 98.9102 70.4901 99.8002 72.3901 101.1C72.5901 101.24 72.6401 101.51 72.5001 101.71C72.3601 101.91 72.0901 101.96 71.8901 101.82C69.4901 100.17 66.5601 99.2302 63.6501 99.1802C63.4101 99.1802 63.2101 98.9802 63.2201 98.7302C63.2201 98.4902 63.4201 98.2902 63.6701 98.3002C64.4501 98.3302 65.2301 98.4002 66.0001 98.5302Z" fill="#006633"/>
<path d="M61.8002 101.91C61.8402 101.92 61.8802 101.93 61.9202 101.95C65.1602 103.5 67.0902 107.32 66.4002 110.85C66.3502 111.09 66.0902 111.22 65.8902 111.2C65.6502 111.15 65.5002 110.92 65.5402 110.69C66.1602 107.54 64.4402 104.13 61.5402 102.75C61.3202 102.65 61.2302 102.38 61.3302 102.17C61.4102 101.98 61.6102 101.88 61.8002 101.91Z" fill="#006633"/>
<path d="M58.3202 109.76C58.4602 109.78 58.5802 109.87 58.6502 110.01C59.7402 112.35 59.8002 115.16 58.8102 117.54C58.7202 117.76 58.4602 117.87 58.2402 117.78C58.0202 117.69 57.9102 117.43 58.0002 117.21C58.8902 115.05 58.8402 112.5 57.8502 110.38C57.7502 110.16 57.8402 109.9 58.0602 109.8C58.1402 109.76 58.2302 109.75 58.3202 109.76Z" fill="#006633"/>
<path d="M51.2703 112.44C51.3703 112.46 51.4703 112.51 51.5403 112.59C54.4303 116.08 57.4403 120.18 56.7103 124.67C56.6703 124.91 56.4503 125.07 56.2103 125.03C55.9903 125.01 55.8103 124.77 55.8503 124.53C56.5203 120.41 53.6303 116.5 50.8703 113.15C50.7203 112.96 50.7403 112.69 50.9303 112.53C51.0203 112.45 51.1503 112.42 51.2703 112.44Z" fill="#006633"/>
<path d="M46.0702 115.25C46.2002 115.27 46.3302 115.36 46.3902 115.49C47.5402 117.84 47.8702 120.54 47.3302 123.09C47.2802 123.33 47.0402 123.47 46.8102 123.43C46.5702 123.38 46.4202 123.15 46.4702 122.91C46.9702 120.54 46.6602 118.05 45.6002 115.87C45.4902 115.65 45.5802 115.39 45.8002 115.28C45.8902 115.25 45.9802 115.23 46.0702 115.25Z" fill="#006633"/>
<path d="M40.6799 116.66C40.7699 116.67 40.8499 116.72 40.9199 116.79C41.0899 116.96 41.0899 117.24 40.9099 117.41C39.8599 118.43 38.9899 119.67 38.3999 121C38.2999 121.22 38.0399 121.32 37.8199 121.22C37.5999 121.12 37.4999 120.86 37.5999 120.64C38.2399 119.21 39.1799 117.87 40.2999 116.78C40.3999 116.68 40.5499 116.64 40.6799 116.66Z" fill="#006633"/>
<path d="M31.6799 115.55C31.7699 115.57 31.8599 115.61 31.9299 115.68C32.0999 115.86 32.0899 116.13 31.9099 116.3C30.1399 117.95 28.7699 120.03 27.9299 122.3C27.8499 122.53 27.5899 122.64 27.3699 122.56C27.1399 122.48 27.0299 122.22 27.1099 122C27.9899 119.6 29.4499 117.41 31.3099 115.66C31.4199 115.57 31.5499 115.53 31.6799 115.55Z" fill="#006633"/>
<path d="M27.5798 113.11C27.6598 113.12 27.7398 113.16 27.7998 113.22C27.9798 113.38 27.9898 113.66 27.8298 113.84L24.0398 118C23.8798 118.18 23.5998 118.19 23.4198 118.03C23.2398 117.87 23.2298 117.59 23.3898 117.41L27.1798 113.25C27.2898 113.13 27.4398 113.08 27.5798 113.11Z" fill="#006633"/>
<path d="M25.4701 111.78C25.5701 111.8 25.6701 111.85 25.7401 111.94C25.8901 112.13 25.8601 112.41 25.6701 112.56C23.9201 113.96 21.7301 114.84 19.5001 115.04C19.2601 115.06 19.0501 114.88 19.0201 114.64C19.0001 114.4 19.1801 114.19 19.4201 114.16C21.4801 113.97 23.5001 113.16 25.1201 111.87C25.2301 111.79 25.3601 111.76 25.4701 111.78Z" fill="#006633"/>
<path d="M21.1502 109.03C21.2702 109.05 21.3802 109.12 21.4502 109.24C21.5702 109.45 21.5102 109.72 21.3002 109.84C18.0702 111.78 15.5202 114.77 14.1202 118.26C14.0302 118.48 13.7702 118.59 13.5502 118.5C13.3202 118.41 13.2202 118.15 13.3102 117.93C14.7802 114.26 17.4602 111.11 20.8502 109.08C20.9502 109.03 21.0502 109.01 21.1502 109.03Z" fill="#006633"/>
<path d="M16.5602 105.45C16.6902 105.47 16.8103 105.55 16.8803 105.68C16.9903 105.9 16.9003 106.16 16.6903 106.27C14.5303 107.38 12.1002 108.08 9.68024 108.29C9.44024 108.31 9.23025 108.13 9.20025 107.89C9.18025 107.65 9.36026 107.44 9.60026 107.41C11.9103 107.2 14.2202 106.53 16.2902 105.48C16.3702 105.45 16.4702 105.43 16.5602 105.45Z" fill="#006633"/>
<path d="M14.56 100.98C14.74 101.01 14.89 101.16 14.92 101.35C14.96 101.59 14.79 101.81 14.55 101.85C10.13 102.5 5.71003 103.48 1.42003 104.76C1.19003 104.83 0.940023 104.7 0.870023 104.47C0.800023 104.24 0.930032 103.99 1.16003 103.92C5.49003 102.63 9.94003 101.64 14.41 100.98C14.47 100.97 14.51 100.98 14.56 100.98Z" fill="#006633"/>
<path d="M105.56 24.4102C105.31 24.4102 105.1 24.2302 105.06 23.9702C105.02 23.7002 105.22 23.4502 105.49 23.4102L114.36 22.2702C114.64 22.2402 114.88 22.4302 114.92 22.7002C114.96 22.9702 114.76 23.2202 114.49 23.2602L105.62 24.4102C105.6 24.4102 105.58 24.4102 105.56 24.4102Z" fill="#006633"/>
<path d="M111.35 20.6001H105.95C105.67 20.6001 105.45 20.3801 105.45 20.1001C105.45 19.8201 105.67 19.6001 105.95 19.6001H111.35C111.63 19.6001 111.85 19.8201 111.85 20.1001C111.85 20.3801 111.63 20.6001 111.35 20.6001Z" fill="#006633"/>
<path d="M71.6599 85.9301C71.8399 85.9601 71.9799 86.1001 72.0199 86.2801C72.0599 86.5201 71.9099 86.7501 71.6699 86.7901L67.7699 87.5101C67.5299 87.5501 67.2999 87.4001 67.2599 87.1601C67.2199 86.9201 67.3699 86.6901 67.6099 86.6501L71.5099 85.9301C71.5599 85.9201 71.6099 85.9201 71.6599 85.9301Z" fill="#006633"/>
<path d="M33.2903 42.7202C33.3003 42.7202 33.3203 42.7302 33.3303 42.7302C35.3303 43.2802 37.2003 44.1602 38.9003 45.3502C39.1003 45.4902 39.1503 45.7602 39.0103 45.9602C38.8703 46.1602 38.6003 46.2102 38.4003 46.0702C36.7803 44.9402 35.0003 44.1002 33.1003 43.5802C32.8703 43.5202 32.7303 43.2702 32.7903 43.0402C32.8503 42.8202 33.0703 42.6802 33.2903 42.7202Z" fill="#006633"/>
<path d="M39.82 33.0801C39.93 33.1001 40.04 33.1601 40.11 33.2601L42.17 36.1901C42.31 36.3901 42.26 36.6601 42.06 36.8001C41.86 36.9401 41.59 36.8901 41.45 36.6901L39.39 33.7601C39.25 33.5601 39.3 33.2901 39.5 33.1501C39.59 33.0801 39.71 33.0601 39.82 33.0801Z" fill="#006633"/>
</g>
<path d="M86.0502 26.7802C83.1102 23.5702 78.8002 21.8602 74.4702 21.3502C67.1202 20.4802 59.2502 23.0802 54.5002 28.7402C49.7502 34.4102 48.6802 43.1602 52.6502 49.4002C54.5102 52.3302 57.3203 54.6002 60.4603 56.0902C66.7503 59.0702 74.5602 58.8402 80.4402 55.1102C88.7803 49.8302 93.3202 34.7202 86.0502 26.7802Z" fill="#008D36"/>
<path opacity="0.2" d="M70.9002 38.2102C70.4202 36.4602 69.8502 34.7402 69.2002 33.0502C68.7702 31.9302 68.2802 30.7902 67.4202 29.9502C66.2102 28.7502 64.4002 28.3002 62.7102 28.4702C60.1002 28.7302 57.7402 30.3702 56.3302 32.5802C54.9202 34.7902 54.4102 37.5002 54.6302 40.1102C54.9202 43.5902 56.5902 47.0702 59.5202 48.9802C62.1202 50.6802 66.6602 51.0402 69.2702 49.0302C72.4902 46.5402 71.8202 41.5802 70.9002 38.2102Z" fill="#006633"/>
<path opacity="0.2" d="M84.11 45.4102C84.04 44.7102 83.72 44.0702 83.32 43.5002C82.51 42.3502 81.32 41.4402 79.95 41.1302C78.58 40.8202 77.04 41.1502 76.04 42.1402C74.7 43.4502 74.55 45.5702 74.89 47.4102C75.02 48.1102 75.21 48.8001 75.59 49.4001C76.5 50.8401 78.46 51.4501 80.09 50.9501C81.95 50.3801 84.3 47.4402 84.11 45.4102Z" fill="#006633"/>
<path opacity="0.2" d="M83.6399 30.3502C82.5599 29.3302 81.3899 28.3402 79.9999 27.8302C78.5999 27.3202 76.9099 27.3802 75.7699 28.3402C74.9399 29.0402 74.4999 30.1402 74.3899 31.2202C74.1599 33.3402 75.0799 35.5502 76.7499 36.8702C78.4199 38.1902 80.7899 38.5802 82.7899 37.8502C86.4399 36.5302 85.9999 32.5702 83.6399 30.3502Z" fill="#006633"/>
<path d="M44.9597 105.82C45.7716 105.82 46.4297 105.162 46.4297 104.35C46.4297 103.538 45.7716 102.88 44.9597 102.88C44.1479 102.88 43.4897 103.538 43.4897 104.35C43.4897 105.162 44.1479 105.82 44.9597 105.82Z" fill="#008D36"/>
<path d="M35.41 105.29C35.6 104.16 36.67 103.4 37.8 103.59C38.93 103.78 39.69 104.85 39.5 105.98C39.31 107.11 38.24 107.87 37.11 107.68C35.98 107.5 35.22 106.42 35.41 105.29Z" fill="#008D36"/>
<path d="M42.0796 93.86C42.2296 92.96 43.0796 92.36 43.9796 92.51C44.8796 92.66 45.4796 93.51 45.3296 94.41C45.1796 95.31 44.3296 95.91 43.4296 95.76C42.5296 95.6 41.9296 94.76 42.0796 93.86Z" fill="#008D36"/>
<path d="M33.4199 97.32C33.5699 96.42 34.42 95.82 35.32 95.97C36.22 96.12 36.8199 96.97 36.6699 97.87C36.5199 98.77 35.67 99.37 34.77 99.22C33.87 99.06 33.2699 98.21 33.4199 97.32Z" fill="#008D36"/>
<path d="M46.71 98.68C46.84 97.88 47.6 97.34 48.41 97.47C49.22 97.6 49.75 98.36 49.62 99.17C49.49 99.97 48.73 100.51 47.92 100.38C47.11 100.25 46.58 99.48 46.71 98.68Z" fill="#008D36"/>
<path d="M29.45 102.67C30.643 102.67 31.61 101.703 31.61 100.51C31.61 99.3172 30.643 98.3501 29.45 98.3501C28.2571 98.3501 27.29 99.3172 27.29 100.51C27.29 101.703 28.2571 102.67 29.45 102.67Z" fill="#008D36"/>
<path d="M33.51 83.2001C33.73 81.8801 34.98 80.9902 36.3 81.2102C37.62 81.4302 38.51 82.6801 38.29 84.0001C38.07 85.3201 36.82 86.2102 35.5 85.9902C34.18 85.7702 33.29 84.5201 33.51 83.2001Z" fill="#008D36"/>
<path d="M46.7398 81.82C46.8898 80.92 47.7398 80.32 48.6398 80.47C49.5398 80.62 50.1398 81.47 49.9898 82.37C49.8398 83.27 48.9898 83.87 48.0898 83.72C47.1898 83.57 46.5898 82.72 46.7398 81.82Z" fill="#008D36"/>
<path d="M47.2096 90.06C47.8337 90.06 48.3396 89.5541 48.3396 88.93C48.3396 88.306 47.8337 87.8 47.2096 87.8C46.5855 87.8 46.0796 88.306 46.0796 88.93C46.0796 89.5541 46.5855 90.06 47.2096 90.06Z" fill="#008D36"/>
<path d="M43.5699 72.5101C43.6999 71.7101 44.4599 71.1701 45.2699 71.3001C46.0799 71.4301 46.6099 72.1901 46.4799 73.0001C46.3499 73.8101 45.5899 74.3401 44.7799 74.2101C43.9699 74.0801 43.4299 73.3101 43.5699 72.5101Z" fill="#008D36"/>
<path d="M54.7098 73.0699C54.8998 71.9399 55.9698 71.1799 57.0998 71.3699C58.2298 71.5599 58.9898 72.6299 58.7998 73.7599C58.6098 74.8899 57.5398 75.6499 56.4098 75.4599C55.2798 75.2699 54.5198 74.1999 54.7098 73.0699Z" fill="#008D36"/>
<path d="M26.9699 92.0799C27.9751 92.0799 28.7899 91.2651 28.7899 90.2599C28.7899 89.2548 27.9751 88.4399 26.9699 88.4399C25.9648 88.4399 25.1499 89.2548 25.1499 90.2599C25.1499 91.2651 25.9648 92.0799 26.9699 92.0799Z" fill="#008D36"/>
<path d="M28.9698 75.76C29.1298 74.82 30.0198 74.18 30.9698 74.34C31.9098 74.5 32.5498 75.39 32.3898 76.34C32.2298 77.28 31.3398 77.92 30.3898 77.76C29.4498 77.6 28.8098 76.7 28.9698 75.76Z" fill="#008D36"/>
<path d="M37.7596 71.06C38.9525 71.06 39.9196 70.0929 39.9196 68.9C39.9196 67.707 38.9525 66.74 37.7596 66.74C36.5667 66.74 35.5996 67.707 35.5996 68.9C35.5996 70.0929 36.5667 71.06 37.7596 71.06Z" fill="#008D36"/>
<path d="M48.1199 63.18C48.2299 62.52 48.8599 62.07 49.5199 62.19C50.1799 62.3 50.6299 62.93 50.5099 63.59C50.3999 64.25 49.7699 64.7 49.1099 64.58C48.4499 64.46 48.0099 63.84 48.1199 63.18Z" fill="#008D36"/>
<path d="M23.7998 83.49C23.8998 82.92 24.4298 82.54 24.9998 82.64C25.5698 82.74 25.9498 83.27 25.8498 83.84C25.7498 84.41 25.2198 84.79 24.6498 84.69C24.0898 84.6 23.7098 84.06 23.7998 83.49Z" fill="#008D36"/>
</svg>
