<svg width="174" height="199" viewBox="0 0 174 199" fill="none" xmlns="http://www.w3.org/2000/svg">
<path d="M31.9003 5.03003C31.9003 5.03003 190 54.05 171.26 142.52C156.83 210.64 53.6103 219.55 32.1803 145.32C3.44034 45.84 -13.7597 -12.58 31.9003 5.03003Z" fill="#994091"/>
<path d="M100.62 198.32C74.4604 198.32 42.5104 184.47 31.2904 145.58L30.6304 143.28C9.4304 69.9 -4.5796 21.43 6.9804 6.05997C9.5204 2.68997 13.2904 0.97998 18.1904 0.97998C22.1004 0.97998 26.7004 2.01998 32.2504 4.15998C32.5904 4.25998 72.2604 16.7 109.12 39.81C158.13 70.54 179.94 106.12 172.19 142.71C164.08 180.92 129.41 198.32 100.62 198.32ZM18.1804 2.84998C13.8304 2.84998 10.6604 4.26998 8.4604 7.18998C-2.5396 21.81 12.1204 72.55 32.4104 142.77L33.0704 145.07C44.0104 182.96 75.1304 196.46 100.61 196.46C128.67 196.46 162.46 179.52 170.34 142.33C175.62 117.4 169.11 79.66 108.13 41.41C71.4804 18.42 32.0104 6.04998 31.6104 5.92998C26.3104 3.86998 21.8104 2.84998 18.1804 2.84998Z" fill="#994091"/>
<path d="M43.9304 25.4399C87.7804 52.4099 133.82 87.8599 144.56 135.77C144.77 136.75 142.59 135.8 142.32 135.1C125.26 91.3199 84.3304 53.9199 43.5204 26.0199C42.7904 25.5199 43.2704 25.0399 43.9304 25.4399Z" fill="#8D2885"/>
<path d="M167.66 142.52C186.4 54.05 28.3002 5.03003 28.3002 5.03003C-17.3598 -12.58 -0.159758 45.84 28.5802 145.32C50.0202 219.55 153.24 210.63 167.66 142.52ZM38.1502 64.44C34.6802 54.69 31.7302 44.76 28.1902 35.03C25.8402 28.56 23.9102 22.03 24.5702 15.08C24.7002 13.6 25.9702 12.88 27.3202 13.18C32.4802 14.29 37.1302 16.54 41.4902 19.38C76.9202 36.63 115.02 56.63 139.72 88.24C160.39 114.72 151.72 152.61 117.57 159.48C92.0902 164.6 73.9102 139.18 62.8302 119.85C52.7702 102.3 44.9402 83.5 38.1502 64.44Z" fill="#8D2885"/>
<path d="M32.1802 145.32C13.6702 81.2301 -0.0297747 34.2201 4.75023 13.5701C11.4702 48.0201 21.9902 81.3301 37.7602 112.8C50.5702 138.36 69.1602 166.27 100.16 168.14C129.42 169.91 159.73 152.27 165.52 121.42C168.2 107.1 161.35 91.6501 154.13 79.4101C168.41 97.4001 176.35 118.5 171.27 142.51C156.84 210.63 53.6202 219.55 32.1802 145.32Z" fill="#857F7A"/>
</svg>
