<svg width="151" height="221" viewBox="0 0 151 221" fill="none" xmlns="http://www.w3.org/2000/svg">
<path d="M147.998 79.8083H150.128L150.228 78.7983H147.998V79.8083Z" fill="#6A6A69"/>
<path d="M3.28761 79.8083H1.15762L1.05762 78.7983H3.28761V79.8083Z" fill="#6A6A69"/>
<path d="M149.608 79.8082C149.638 78.9582 149.648 78.1082 149.648 77.2482C149.648 36.5082 116.398 3.35822 75.5275 3.35822C34.6575 3.35822 1.40754 36.5082 1.40754 77.2482C1.40754 78.1082 1.42754 78.9582 1.44754 79.8082H0.26754C0.23754 78.9582 0.227539 78.1082 0.227539 77.2482C0.227539 67.1082 2.21754 57.2782 6.14754 48.0282C9.93754 39.0882 15.3675 31.0582 22.2875 24.1682C29.2075 17.2782 37.2575 11.8582 46.2275 8.07822C55.5075 4.16822 65.3775 2.17822 75.5375 2.17822C85.7075 2.17822 95.5675 4.15822 104.848 8.07822C113.818 11.8582 121.868 17.2682 128.788 24.1682C135.708 31.0582 141.138 39.0882 144.928 48.0282C148.858 57.2882 150.848 67.1182 150.848 77.2482C150.848 78.0982 150.828 78.9582 150.808 79.8082H149.608Z" fill="#6A6A69"/>
<path d="M89.8273 0.968262H61.0773C60.4773 0.968262 59.9873 2.37826 59.9873 4.11826C59.9873 5.85826 60.4773 7.26826 61.0773 7.26826H89.8273C90.4273 7.26826 90.9173 5.85826 90.9173 4.11826C90.9173 2.37826 90.4273 0.968262 89.8273 0.968262Z" fill="#858585"/>
<path opacity="0.26" d="M90.9175 4.11822C90.9175 3.87822 90.9075 3.64821 90.8875 3.41821H60.0075C59.9875 3.64821 59.9775 3.87822 59.9775 4.11822C59.9775 4.27822 59.9775 4.43821 59.9875 4.59821H90.8975C90.9075 4.43821 90.9175 4.27822 90.9175 4.11822Z" fill="white"/>
<path opacity="0.26" d="M89.8277 0.968262H61.0777C60.6477 0.968262 60.2777 1.68826 60.0977 2.72826H90.8077C90.6277 1.68826 90.2577 0.968262 89.8277 0.968262Z" fill="white"/>
<path d="M144.048 85.8481L141.528 116.548L141.468 117.228V117.248L141.228 120.238V120.258L140.018 135.028L138.168 157.518L137.958 160.088L136.758 174.668L136.538 177.328L135.358 191.688L135.138 194.408L134.148 206.518C133.858 210.028 128.288 213.228 119.288 215.668C117.748 216.088 116.098 216.478 114.368 216.858C104.008 219.078 90.3877 220.418 75.4677 220.418C43.6277 220.418 17.7177 214.298 16.7977 206.658V206.648C16.7877 206.568 16.7777 206.488 16.7777 206.408L15.7977 194.438L15.5777 191.718L14.3877 177.338L14.1677 174.678L12.9677 160.098L12.7577 157.528L10.9077 135.038L9.66768 119.968V119.948L9.41768 116.928V116.898L9.38768 116.548L7.80768 97.2881L6.86768 85.8481H144.048Z" fill="#574747"/>
<path opacity="0.27" d="M119.958 212.968C118.388 213.398 116.718 213.798 114.958 214.168C104.438 216.418 90.6075 217.788 75.4575 217.788C46.0175 217.788 21.5675 212.628 16.7275 205.848L16.7675 206.388C16.7675 206.468 16.7775 206.548 16.7875 206.628V206.638C17.7075 214.278 43.6175 220.398 75.4575 220.398C90.3775 220.398 103.998 219.048 114.358 216.838C116.098 216.468 117.738 216.068 119.278 215.648C128.278 213.208 133.848 210.008 134.138 206.498L134.188 205.828C132.268 208.558 127.208 211.008 119.958 212.968Z" fill="#020203"/>
<path d="M124.467 196.918C122.737 197.388 120.907 197.828 118.957 198.248C107.377 200.728 92.1474 202.228 75.4574 202.228C48.9774 202.228 26.1674 198.438 15.7874 192.988L15.6874 191.768C15.6474 191.748 15.6074 191.728 15.5674 191.708L15.7874 194.428C26.1674 199.888 48.9774 203.668 75.4574 203.668C92.1474 203.668 107.377 202.168 118.957 199.688C120.897 199.268 122.737 198.828 124.467 198.358C128.787 197.188 132.397 195.858 135.137 194.418L135.357 191.698C135.317 191.718 135.277 191.738 135.237 191.758L135.137 192.978C132.397 194.418 128.777 195.748 124.467 196.918Z" fill="#806B6B"/>
<path d="M124.468 180.628C122.738 181.098 120.908 181.538 118.958 181.958C107.378 184.438 92.1477 185.938 75.4577 185.938C48.7577 185.938 25.7777 182.088 15.5277 176.558C15.1277 176.338 14.7477 176.128 14.3877 175.898L14.2977 174.748C14.2577 174.728 14.2177 174.698 14.1777 174.678L14.3977 177.338C14.7577 177.558 15.1377 177.778 15.5377 177.998C25.7877 183.528 48.7677 187.378 75.4677 187.378C92.1577 187.378 107.388 185.868 118.968 183.398C120.908 182.978 122.748 182.538 124.478 182.068C129.578 180.688 133.688 179.088 136.548 177.338L136.768 174.678C136.728 174.698 136.688 174.728 136.648 174.748L136.558 175.898C133.678 177.648 129.568 179.248 124.468 180.628Z" fill="#806B6B"/>
<path d="M119.638 196.688C107.878 199.208 92.4075 200.738 75.4575 200.738C49.2475 200.738 26.5775 197.078 15.6875 191.768L15.7875 192.988C26.1675 198.448 48.9775 202.228 75.4575 202.228C92.1475 202.228 107.377 200.728 118.957 198.248C120.897 197.828 122.738 197.388 124.468 196.918C128.788 195.748 132.398 194.418 135.138 192.978L135.237 191.758C132.567 193.058 129.198 194.268 125.228 195.338C123.478 195.808 121.608 196.258 119.638 196.688Z" fill="#382D2D"/>
<path d="M119.638 180.398C107.878 182.918 92.4076 184.448 75.4576 184.448C48.0676 184.448 24.5376 180.458 14.2876 174.748L14.3776 175.898C14.7376 176.118 15.1176 176.338 15.5176 176.558C25.7676 182.088 48.7476 185.938 75.4476 185.938C92.1376 185.938 107.368 184.428 118.948 181.958C120.888 181.538 122.728 181.098 124.458 180.628C129.558 179.248 133.668 177.648 136.528 175.898L136.618 174.748C133.768 176.328 129.908 177.788 125.218 179.058C123.478 179.528 121.608 179.978 119.638 180.398Z" fill="#382D2D"/>
<path opacity="0.26" d="M6.86768 85.8481L7.80768 97.2881L16.7677 206.398C16.7677 206.478 16.7777 206.558 16.7877 206.638V206.648C17.1477 209.628 21.3177 212.388 28.1677 214.638L20.3177 85.8481H6.86768Z" fill="white"/>
<path opacity="0.27" d="M6.86768 85.8481L7.80768 97.2881C19.5677 102.888 44.4277 112.608 94.1477 107.928C104.818 106.918 114.168 115.028 114.708 125.728L119.268 215.668C128.268 213.228 133.838 210.028 134.128 206.518L144.038 85.8481H6.86768Z" fill="#020203"/>
<path d="M29.6978 90.4082C30.0778 90.4882 30.4578 90.5582 30.8478 90.6282C30.4578 90.5582 30.0778 90.4782 29.6978 90.4082Z" fill="#75B7E5"/>
<path d="M31.2373 90.7083C31.6073 90.7783 31.9773 90.8482 32.3573 90.9182C31.9773 90.8382 31.6073 90.7783 31.2373 90.7083Z" fill="#75B7E5"/>
<path d="M33.6074 91.1282C33.8674 91.1682 34.1274 91.2182 34.3974 91.2582C34.1374 91.2182 33.8774 91.1782 33.6074 91.1282Z" fill="#75B7E5"/>
<path d="M34.8276 91.3384C35.1776 91.3984 35.5376 91.4584 35.8976 91.5084C35.5376 91.4484 35.1876 91.3984 34.8276 91.3384Z" fill="#75B7E5"/>
<path d="M37.4277 91.7383C37.6777 91.7783 37.9277 91.8083 38.1777 91.8483C37.9277 91.8183 37.6777 91.7783 37.4277 91.7383Z" fill="#75B7E5"/>
<path d="M13.3574 85.5684C13.5174 85.6484 13.6874 85.7184 13.8574 85.7884C13.6874 85.7184 13.5174 85.6384 13.3574 85.5684Z" fill="#9ED4F4"/>
<path d="M14.7178 86.1582C14.8978 86.2282 15.0778 86.3082 15.2578 86.3782C15.0778 86.3082 14.8978 86.2382 14.7178 86.1582Z" fill="#9ED4F4"/>
<path d="M15.9976 86.6682C16.1276 86.7182 16.2476 86.7682 16.3776 86.8082C16.2476 86.7682 16.1176 86.7182 15.9976 86.6682Z" fill="#9ED4F4"/>
<path d="M148.508 76.6582V82.1782C148.508 91.9282 115.798 99.8282 75.4577 99.8282C49.7677 99.8282 27.1777 96.6282 14.1577 91.7782C6.72772 89.0082 2.40771 85.7182 2.40771 82.1682V76.6482C2.40771 75.2982 3.03771 73.9783 4.22771 72.7083C5.52771 74.0883 7.49772 75.4082 10.0577 76.6482C11.2877 77.2482 12.6577 77.8183 14.1577 78.3783C27.1877 83.2183 49.7777 86.4282 75.4577 86.4282C110.198 86.4282 139.278 80.5683 146.688 72.7083C147.878 73.9783 148.508 75.2982 148.508 76.6582Z" fill="#574747"/>
<path opacity="0.26" d="M14.1577 76.6582V91.7782C6.72772 89.0082 2.40771 85.7182 2.40771 82.1682V76.6482H14.1577V76.6582Z" fill="white"/>
<path d="M148.508 76.6583C148.508 86.4083 115.798 94.3083 75.4577 94.3083C35.1077 94.3083 2.40771 86.4083 2.40771 76.6583C2.40771 75.3083 3.03771 73.9883 4.22771 72.7183C11.6277 64.8583 40.7077 58.9983 75.4577 58.9983C110.198 58.9983 139.278 64.8583 146.688 72.7183C147.878 73.9783 148.508 75.2983 148.508 76.6583Z" fill="#806B6B"/>
<path d="M144.448 75.9983C144.448 76.9283 144.078 77.8483 143.378 78.7383C142.998 79.2183 142.528 79.6783 141.958 80.1383C133.888 86.6883 107.178 91.4983 75.4578 91.4983C62.8778 91.4983 51.0878 90.7383 40.9378 89.4183C25.4878 87.4083 13.8278 84.0883 8.95778 80.1383C8.38778 79.6783 7.91777 79.2083 7.53777 78.7383C6.82777 77.8483 6.46777 76.9383 6.46777 75.9983C6.46777 67.4383 37.3578 60.4983 75.4578 60.4983C113.558 60.4983 144.448 67.4283 144.448 75.9983Z" fill="#6A838C"/>
<path d="M141.958 80.1383C133.888 86.6883 107.178 91.4983 75.4575 91.4983C62.8775 91.4983 51.0875 90.7383 40.9375 89.4183C25.4875 87.4083 13.8275 84.0883 8.95752 80.1383C17.0275 73.5883 43.7375 68.7783 75.4575 68.7783C75.7275 68.7783 75.9875 68.7783 76.2475 68.7783C76.5075 68.7783 76.7775 68.7783 77.0375 68.7783C77.2975 68.7783 77.5675 68.7783 77.8275 68.7883C78.0875 68.7883 78.3475 68.7883 78.6075 68.7983C78.8475 68.7983 79.0775 68.8083 79.3175 68.8083C79.3575 68.8083 79.3975 68.8083 79.4275 68.8083C79.6775 68.8083 79.9275 68.8183 80.1775 68.8183C80.3875 68.8183 80.5875 68.8283 80.7975 68.8283C80.9875 68.8283 81.1775 68.8383 81.3575 68.8383C81.5475 68.8383 81.7375 68.8483 81.9275 68.8483H81.9375C82.3675 68.8583 82.8075 68.8683 83.2375 68.8783C84.3075 68.9083 85.3575 68.9383 86.4075 68.9783C87.1075 69.0083 87.8075 69.0283 88.4975 69.0583C88.7975 69.0683 89.0975 69.0883 89.3975 69.0983C89.6375 69.1083 89.8775 69.1183 90.1175 69.1283C90.4875 69.1483 90.8575 69.1683 91.2175 69.1883C91.4975 69.1983 91.7875 69.2183 92.0675 69.2383C92.1875 69.2483 92.2975 69.2483 92.4175 69.2583C92.5975 69.2683 92.7675 69.2783 92.9475 69.2883C93.0675 69.2983 93.1875 69.2983 93.3075 69.3083C93.6775 69.3283 94.0375 69.3483 94.4075 69.3783C94.5575 69.3883 94.7075 69.3983 94.8675 69.4083C95.8475 69.4683 96.8275 69.5383 97.7875 69.6183C97.9275 69.6283 98.0675 69.6383 98.1975 69.6483C98.3775 69.6583 98.5575 69.6783 98.7275 69.6883C98.9075 69.6983 99.0775 69.7183 99.2575 69.7283C99.4375 69.7383 99.6075 69.7583 99.7875 69.7683C99.9675 69.7783 100.138 69.7983 100.318 69.8183C100.498 69.8383 100.668 69.8483 100.838 69.8683C101.018 69.8883 101.188 69.8983 101.358 69.9183C101.528 69.9383 101.708 69.9483 101.878 69.9683C102.268 70.0083 102.648 70.0383 103.038 70.0783C103.268 70.0983 103.498 70.1283 103.718 70.1483C103.998 70.1783 104.278 70.2083 104.548 70.2383C104.688 70.2483 104.818 70.2683 104.948 70.2783C105.078 70.2883 105.198 70.3083 105.328 70.3183C106.378 70.4283 107.418 70.5483 108.438 70.6783C108.748 70.7183 109.048 70.7583 109.358 70.7883C109.698 70.8283 110.038 70.8783 110.378 70.9183C125.648 72.9283 137.138 76.2183 141.958 80.1383Z" fill="#97C9EE"/>
<path d="M110.408 70.9083C109.818 70.9083 109.228 70.8983 108.628 70.8983C70.5277 70.8983 39.6378 77.8383 39.6378 86.3983C39.6378 87.3283 40.0078 88.2483 40.7078 89.1383C40.7778 89.2283 40.8577 89.3183 40.9277 89.4083C25.4777 87.3983 13.8178 84.0783 8.94775 80.1283C17.0178 73.5783 43.7278 68.7683 75.4478 68.7683C75.7178 68.7683 75.9777 68.7683 76.2377 68.7683C76.4977 68.7683 76.7678 68.7683 77.0278 68.7683C77.2878 68.7683 77.5577 68.7683 77.8177 68.7783C78.0778 68.7783 78.3377 68.7783 78.5977 68.7883C78.8377 68.7883 79.0678 68.7983 79.3078 68.7983C79.3478 68.7983 79.3878 68.7983 79.4178 68.7983C79.6678 68.7983 79.9178 68.8083 80.1678 68.8083C80.3778 68.8083 80.5778 68.8183 80.7878 68.8183C80.9778 68.8183 81.1677 68.8283 81.3477 68.8283C81.5378 68.8283 81.7278 68.8383 81.9178 68.8383H81.9277C82.3577 68.8483 82.7978 68.8583 83.2278 68.8683C84.2978 68.8983 85.3477 68.9283 86.3978 68.9683C87.0977 68.9983 87.7977 69.0183 88.4877 69.0483C88.7878 69.0583 89.0878 69.0783 89.3878 69.0883C89.6278 69.0983 89.8678 69.1083 90.1078 69.1183C90.4778 69.1383 90.8477 69.1583 91.2077 69.1783C91.4877 69.1883 91.7778 69.2083 92.0578 69.2283C92.1778 69.2383 92.2878 69.2383 92.4078 69.2483C92.5878 69.2583 92.7578 69.2683 92.9378 69.2783C93.0578 69.2883 93.1778 69.2883 93.2978 69.2983C93.6678 69.3183 94.0277 69.3383 94.3978 69.3683C94.5478 69.3783 94.6978 69.3883 94.8578 69.3983C95.8378 69.4583 96.8178 69.5283 97.7778 69.6083C97.9178 69.6183 98.0578 69.6283 98.1878 69.6383C98.3678 69.6483 98.5478 69.6683 98.7178 69.6783C98.8978 69.6883 99.0678 69.7083 99.2478 69.7183C99.4278 69.7283 99.5978 69.7483 99.7778 69.7583C99.9578 69.7683 100.128 69.7883 100.308 69.8083C100.488 69.8283 100.658 69.8383 100.828 69.8583C101.008 69.8783 101.178 69.8883 101.348 69.9083C101.518 69.9283 101.698 69.9383 101.868 69.9583C102.258 69.9983 102.638 70.0283 103.028 70.0683C103.258 70.0883 103.488 70.1183 103.708 70.1383C103.988 70.1683 104.268 70.1983 104.538 70.2283C104.678 70.2383 104.808 70.2583 104.938 70.2683C105.068 70.2783 105.188 70.2983 105.318 70.3083C106.368 70.4183 107.408 70.5383 108.428 70.6683C108.738 70.7083 109.038 70.7483 109.348 70.7783C109.728 70.8283 110.068 70.8683 110.408 70.9083Z" fill="#9ED4F4"/>
</svg>
