<svg width="263" height="281" viewBox="0 0 263 281" fill="none" xmlns="http://www.w3.org/2000/svg">
<path d="M64.5275 174.338L48.2675 148.178L47.9075 147.598L47.8975 147.578L46.3175 145.038L46.3075 145.018L38.4775 132.428L26.5575 113.268L25.1975 111.078L17.4675 98.6483L16.0575 96.3783L8.44752 84.1383L7.00752 81.8283L0.597518 71.5083C-1.26248 68.5183 1.30752 62.6283 7.08752 55.3083C8.07752 54.0484 9.15752 52.7583 10.3375 51.4183C17.3375 43.4683 27.4775 34.2783 39.4575 25.3883C65.0275 6.41834 89.4875 -4.09168 94.7775 1.49832L94.7875 1.50833C94.8475 1.56833 94.8975 1.62833 94.9475 1.68833L102.868 10.7183L104.668 12.7683L114.168 23.6083L115.928 25.6183L125.578 36.6183L127.278 38.5583L142.158 55.5183L152.128 66.8883L152.138 66.9083L154.138 69.1883L154.158 69.2083L154.388 69.4683L167.138 83.9983L174.708 92.6283L64.5275 174.338Z" fill="#574747"/>
<path opacity="0.27" d="M8.14769 57.8883C9.15769 56.6083 10.2577 55.2983 11.4477 53.9383C18.5577 45.8683 28.8477 36.5282 41.0177 27.4982C64.6677 9.95825 87.3777 -0.461746 95.3077 2.09825L94.9577 1.69826C94.9077 1.63826 94.8477 1.57827 94.7977 1.51827L94.7877 1.50826C89.4977 -4.08174 65.0377 6.43827 39.4677 25.3983C27.4877 34.2883 17.3477 43.4783 10.3477 51.4283C9.17769 52.7583 8.08769 54.0583 7.09769 55.3183C1.31769 62.6383 -1.24231 68.5283 0.607694 71.5183L0.957693 72.0883C0.887693 68.7583 3.48769 63.7783 8.14769 57.8883Z" fill="#020203"/>
<path d="M14.0873 73.4683C15.1973 72.0683 16.4073 70.6083 17.7173 69.1183C25.5473 60.2283 36.8773 49.9483 50.2873 40.0083C71.5573 24.2383 92.1373 13.6883 103.727 11.8883L104.537 12.8083C104.577 12.7983 104.627 12.7883 104.667 12.7783L102.867 10.7283C91.2773 12.5283 70.6973 23.0783 49.4273 38.8483C36.0273 48.7883 24.6873 59.0683 16.8573 67.9583C15.5473 69.4483 14.3273 70.8983 13.2273 72.3083C10.4573 75.8183 8.34732 79.0383 7.00732 81.8283L8.44733 84.1383C8.46733 84.0983 8.48732 84.0583 8.50732 84.0183L7.85733 82.9783C9.20733 80.1883 11.3173 76.9783 14.0873 73.4683Z" fill="#806B6B"/>
<path d="M23.7976 86.5484C24.9076 85.1484 26.1176 83.6884 27.4276 82.1984C35.2576 73.3084 46.5876 63.0284 59.9976 53.0884C81.4476 37.1784 102.198 26.5884 113.728 24.9184C114.178 24.8584 114.618 24.7984 115.038 24.7684L115.798 25.6384C115.848 25.6284 115.888 25.6284 115.938 25.6184L114.178 23.6084C113.758 23.6484 113.318 23.6984 112.868 23.7584C101.338 25.4284 80.5876 36.0184 59.1376 51.9284C45.7376 61.8684 34.3976 72.1484 26.5676 81.0384C25.2576 82.5284 24.0476 83.9784 22.9376 85.3884C19.6676 89.5384 17.3176 93.2684 16.0576 96.3784L17.4676 98.6484C17.4876 98.6084 17.5076 98.5584 17.5276 98.5184L16.9176 97.5384C18.1676 94.4284 20.5176 90.6884 23.7976 86.5484Z" fill="#806B6B"/>
<path d="M18.1074 70.7684C26.0574 61.7384 37.5674 51.2984 51.1774 41.1984C72.2274 25.5884 92.6174 15.0084 104.527 12.7984L103.717 11.8784C92.1274 13.6784 71.5474 24.2284 50.2774 39.9984C36.8774 49.9384 25.5374 60.2184 17.7074 69.1084C16.3974 70.5984 15.1774 72.0484 14.0774 73.4584C11.3074 76.9684 9.19742 80.1884 7.85742 82.9784L8.50742 84.0184C9.87742 81.3784 11.8674 78.4084 14.4074 75.1784C15.5474 73.7584 16.7774 72.2884 18.1074 70.7684Z" fill="#382D2D"/>
<path d="M27.8077 83.8583C35.7577 74.8283 47.2677 64.3883 60.8777 54.2883C82.8777 37.9683 104.148 27.1583 115.788 25.6383L115.028 24.7683C114.608 24.8083 114.168 24.8583 113.718 24.9183C102.188 26.5883 81.4377 37.1783 59.9877 53.0883C46.5877 63.0283 35.2477 73.3083 27.4177 82.1983C26.1077 83.6883 24.8977 85.1383 23.7877 86.5483C20.5177 90.6983 18.1677 94.4283 16.9077 97.5383L17.5177 98.5183C18.8577 95.5483 21.0977 92.0783 24.1077 88.2683C25.2477 86.8383 26.4777 85.3683 27.8077 83.8583Z" fill="#382D2D"/>
<path opacity="0.26" d="M174.707 92.6183L167.137 83.9883L94.9474 1.6983C94.8974 1.6383 94.8374 1.57831 94.7874 1.51831L94.7774 1.5083C92.7074 -0.671701 87.7174 -0.401706 80.8774 1.87829L163.907 100.638L174.707 92.6183Z" fill="white"/>
<path opacity="0.27" d="M174.707 92.6184L167.137 83.9884C154.357 86.4984 128.597 93.4984 91.4474 126.878C83.4774 134.038 71.1374 133.108 64.3274 124.828L7.08744 55.3184C1.30744 62.6384 -1.25256 68.5284 0.59744 71.5184L64.5274 174.338L174.707 92.6184Z" fill="#020203"/>
<path d="M153.657 102.558C153.307 102.728 152.957 102.888 152.607 103.058C152.957 102.888 153.307 102.718 153.657 102.558Z" fill="#75B7E5"/>
<path d="M152.248 103.228C151.908 103.388 151.568 103.558 151.228 103.728C151.568 103.558 151.908 103.398 152.248 103.228Z" fill="#75B7E5"/>
<path d="M150.078 104.308C149.838 104.428 149.608 104.548 149.368 104.668C149.608 104.548 149.848 104.428 150.078 104.308Z" fill="#75B7E5"/>
<path d="M146.657 106.088C146.437 106.208 146.207 106.328 145.987 106.448C146.207 106.328 146.427 106.208 146.657 106.088Z" fill="#75B7E5"/>
<path d="M169.657 96.7083C169.477 96.7483 169.307 96.7782 169.127 96.8282C169.307 96.7782 169.487 96.7483 169.657 96.7083Z" fill="#9ED4F4"/>
<path d="M168.218 97.0383C168.028 97.0883 167.848 97.1283 167.658 97.1783C167.848 97.1383 168.028 97.0883 168.218 97.0383Z" fill="#9ED4F4"/>
<path d="M166.888 97.3884C166.758 97.4284 166.628 97.4584 166.498 97.4984C166.628 97.4684 166.758 97.4284 166.888 97.3884Z" fill="#9ED4F4"/>
<path d="M66.4174 184.378L63.1274 179.948C57.3174 172.118 78.8774 146.288 111.287 122.248C131.917 106.948 151.977 96.0583 165.317 92.1883C172.937 89.9783 178.367 90.0583 180.477 92.9083L183.767 97.3383C184.577 98.4283 184.857 99.8583 184.647 101.588C182.777 101.258 180.407 101.368 177.617 101.898C176.267 102.148 174.827 102.508 173.297 102.948C159.947 106.818 139.897 117.698 119.267 133.008C91.3574 153.708 71.4974 175.738 70.2274 186.458C68.5174 186.148 67.2274 185.468 66.4174 184.378Z" fill="#574747"/>
<path opacity="0.26" d="M174.327 104.338L165.317 92.1883C172.937 89.9783 178.367 90.0583 180.477 92.9083L183.767 97.3383L174.327 104.338Z" fill="white"/>
<path d="M66.4174 184.378C60.6074 176.548 82.1674 150.718 114.577 126.678C146.987 102.648 177.957 89.5084 183.767 97.3384C184.577 98.4284 184.857 99.8584 184.647 101.588C183.377 112.308 163.517 134.338 135.607 155.038C107.697 175.738 80.8474 188.348 70.2274 186.448C68.5174 186.148 67.2274 185.468 66.4174 184.378Z" fill="#806B6B"/>
<path d="M70.0774 182.488C69.5174 181.738 69.2674 180.778 69.3074 179.648C69.3274 179.038 69.4273 178.378 69.6073 177.678C72.1873 167.608 90.7774 147.828 116.247 128.938C126.347 121.448 136.267 115.028 145.217 110.038C158.827 102.448 170.167 98.1682 176.427 98.4482C177.157 98.4782 177.817 98.5783 178.407 98.7283C179.507 99.0183 180.347 99.5383 180.897 100.288C185.997 107.168 165.327 131.138 134.717 153.838C104.117 176.548 75.1774 189.368 70.0774 182.488Z" fill="#6A838C"/>
<path d="M69.6074 177.678C72.1874 167.608 90.7774 147.828 116.247 128.938C126.347 121.448 136.267 115.028 145.217 110.038C158.827 102.448 170.167 98.1682 176.427 98.4482C173.847 108.518 155.257 128.298 129.787 147.188C129.577 147.348 129.357 147.508 129.147 147.658C128.937 147.818 128.717 147.968 128.507 148.128C128.297 148.288 128.077 148.438 127.867 148.598C127.657 148.748 127.447 148.908 127.237 149.058C127.047 149.198 126.857 149.338 126.667 149.478C126.637 149.498 126.607 149.518 126.577 149.548C126.377 149.698 126.177 149.838 125.967 149.988C125.797 150.108 125.627 150.228 125.467 150.348C125.317 150.458 125.157 150.568 125.007 150.678C124.847 150.788 124.697 150.898 124.537 151.008L124.527 151.018C124.177 151.268 123.817 151.518 123.467 151.768C122.597 152.378 121.727 152.988 120.857 153.578C120.277 153.978 119.697 154.368 119.127 154.758C118.877 154.928 118.627 155.098 118.387 155.258C118.187 155.388 117.987 155.528 117.787 155.658C117.477 155.868 117.177 156.068 116.867 156.268C116.627 156.428 116.397 156.578 116.157 156.738C116.057 156.798 115.967 156.868 115.867 156.928C115.717 157.028 115.577 157.118 115.427 157.218C115.327 157.288 115.227 157.348 115.127 157.418C114.817 157.618 114.507 157.818 114.207 158.018C114.077 158.098 113.947 158.188 113.827 158.268C112.997 158.798 112.177 159.328 111.357 159.838C111.237 159.908 111.127 159.988 111.007 160.058C110.857 160.158 110.707 160.248 110.557 160.338C110.407 160.428 110.257 160.528 110.107 160.618C109.957 160.708 109.807 160.808 109.657 160.898C109.507 160.988 109.357 161.088 109.207 161.178C109.057 161.268 108.907 161.358 108.757 161.458C108.607 161.548 108.457 161.638 108.307 161.728C108.157 161.818 108.007 161.908 107.857 161.998C107.527 162.198 107.197 162.398 106.857 162.598C106.657 162.718 106.467 162.838 106.267 162.948C106.027 163.088 105.787 163.238 105.547 163.378C105.427 163.448 105.317 163.518 105.197 163.588C105.087 163.648 104.977 163.718 104.867 163.778C103.957 164.318 103.047 164.838 102.157 165.348C101.887 165.498 101.617 165.648 101.357 165.798C101.057 165.968 100.757 166.138 100.457 166.298C87.0074 173.748 75.8174 177.948 69.6074 177.678Z" fill="#97C9EE"/>
<path d="M100.448 166.288C100.928 165.938 101.398 165.588 101.878 165.228C132.478 142.528 153.158 118.548 148.058 111.678C147.498 110.928 146.658 110.408 145.568 110.118C145.458 110.088 145.348 110.058 145.228 110.038C158.838 102.448 170.178 98.1682 176.438 98.4482C173.858 108.518 155.268 128.298 129.798 147.188C129.588 147.348 129.368 147.508 129.158 147.658C128.948 147.818 128.728 147.968 128.518 148.128C128.308 148.288 128.088 148.438 127.878 148.598C127.668 148.748 127.458 148.908 127.248 149.058C127.058 149.198 126.868 149.338 126.678 149.478C126.648 149.498 126.618 149.518 126.588 149.548C126.388 149.698 126.188 149.838 125.978 149.988C125.808 150.108 125.638 150.228 125.478 150.348C125.328 150.458 125.168 150.568 125.018 150.678C124.858 150.788 124.708 150.898 124.548 151.008L124.538 151.018C124.188 151.268 123.828 151.518 123.478 151.768C122.608 152.378 121.738 152.988 120.868 153.578C120.288 153.978 119.708 154.368 119.138 154.758C118.888 154.928 118.638 155.098 118.398 155.258C118.198 155.388 117.998 155.528 117.798 155.658C117.488 155.868 117.188 156.068 116.878 156.268C116.638 156.428 116.408 156.578 116.168 156.738C116.068 156.798 115.978 156.868 115.878 156.928C115.728 157.028 115.588 157.118 115.438 157.218C115.338 157.288 115.238 157.348 115.138 157.418C114.828 157.618 114.518 157.818 114.218 158.018C114.088 158.098 113.958 158.188 113.838 158.268C113.008 158.798 112.188 159.328 111.368 159.838C111.248 159.908 111.138 159.988 111.018 160.058C110.868 160.158 110.718 160.248 110.568 160.338C110.418 160.428 110.268 160.528 110.118 160.618C109.968 160.708 109.818 160.808 109.668 160.898C109.518 160.988 109.368 161.088 109.218 161.178C109.068 161.268 108.918 161.358 108.768 161.458C108.618 161.548 108.468 161.638 108.318 161.728C108.168 161.818 108.018 161.908 107.868 161.998C107.538 162.198 107.208 162.398 106.868 162.598C106.668 162.718 106.478 162.838 106.278 162.948C106.038 163.088 105.798 163.238 105.558 163.378C105.438 163.448 105.328 163.518 105.208 163.588C105.098 163.648 104.988 163.718 104.878 163.778C103.968 164.318 103.058 164.838 102.168 165.348C101.898 165.498 101.628 165.648 101.368 165.798C101.048 165.958 100.748 166.128 100.448 166.288Z" fill="#9ED4F4"/>
<path d="M53.8774 250.368C53.8774 266.888 102.487 280.278 162.457 280.278C222.427 280.278 212.167 253.478 228.397 250.368C253.067 245.638 262.667 241.098 262.407 237.038H262.417V234.148L260.697 234.298C250.837 226.078 200.647 220.458 162.467 220.458C102.487 220.458 53.8774 233.848 53.8774 250.368Z" fill="#97C9EE"/>
<path d="M53.8774 247.338C53.8774 230.818 102.487 217.428 162.457 217.428C222.427 217.428 312.047 231.288 228.397 247.338C212.177 250.448 222.427 277.248 162.457 277.248C102.487 277.248 53.8774 263.848 53.8774 247.338Z" fill="#AFDFF9"/>
<path opacity="0.31" d="M69.3174 245.028C69.3174 232.628 105.827 222.568 150.857 222.568C195.887 222.568 263.197 232.978 200.377 245.028C188.197 247.368 195.897 267.488 150.857 267.488C105.817 267.488 69.3174 257.428 69.3174 245.028Z" fill="white"/>
<path opacity="0.31" d="M196.547 241.558C188.957 243.018 193.757 255.548 165.697 255.548C137.637 255.548 114.897 249.288 114.897 241.558C114.897 233.828 137.637 227.568 165.697 227.568C193.757 227.568 235.687 234.058 196.547 241.558Z" fill="white"/>
<path d="M87.9077 267.488C87.9077 267.488 117.348 276.138 165.468 275.758C165.468 275.748 113.308 272.888 87.9077 267.488Z" fill="white"/>
<path d="M95.3573 224.798C95.3573 224.798 126.677 217.868 148.767 218.448C170.857 219.028 141.707 218.858 127.177 220.458C112.647 222.058 84.7073 227.818 95.3573 224.798Z" fill="white"/>
<path d="M216.608 253.808C216.608 253.808 218.698 247.098 225.848 246.088C232.988 245.078 227.868 242.188 222.238 245.438C216.608 248.688 213.798 256.198 216.608 253.808Z" fill="white"/>
<path d="M234.627 244.275C236.92 243.891 238.707 243.151 238.619 242.622C238.53 242.094 236.599 241.977 234.306 242.362C232.013 242.747 230.226 243.487 230.315 244.015C230.403 244.543 232.334 244.66 234.627 244.275Z" fill="white"/>
<path d="M239.272 241.262C240.328 241.085 241.151 240.743 241.11 240.498C241.069 240.253 240.179 240.197 239.123 240.375C238.066 240.552 237.243 240.894 237.284 241.139C237.325 241.384 238.215 241.439 239.272 241.262Z" fill="white"/>
<path d="M237.937 273.348C237.937 273.408 237.727 273.458 237.467 273.448C237.207 273.438 237.007 273.378 237.007 273.318C237.007 273.258 237.217 273.208 237.477 273.218C237.727 273.228 237.937 273.288 237.937 273.348Z" fill="white"/>
<path d="M156.038 118.738C171.048 142.908 176.788 188.258 175.708 244.748C175.748 244.848 175.768 244.958 175.768 245.058C175.768 246.208 173.448 247.228 169.778 247.938C166.638 248.538 162.498 248.908 157.978 248.908C156.918 248.908 155.888 248.888 154.878 248.848C151.918 248.738 149.208 248.468 146.948 248.078C144.968 247.738 143.338 247.318 142.168 246.828C140.898 246.298 140.178 245.698 140.178 245.058C140.178 245.058 122.088 188.628 97.7876 162.768" fill="#9ED4F4"/>
<path d="M100.257 142.738C115.807 160.268 135.247 193.588 140.477 245.798C139.207 245.268 135.987 241.958 135.987 241.318C135.987 241.318 118.787 194.768 94.4873 168.908" fill="#97C9EE"/>
<path d="M130.888 118.738C147.468 137.668 167.038 166.608 165.278 243.468C162.138 244.068 157.998 244.438 153.478 244.438C152.418 244.438 151.388 244.418 150.378 244.378C149.968 220.988 148.718 174.628 111.718 132.368" fill="#97C9EE"/>
</svg>
