<svg width="460" height="376" viewBox="0 0 460 376" fill="none" xmlns="http://www.w3.org/2000/svg">
<path d="M226.64 206.83C230.13 200.54 230.34 192.91 233.37 186.39C239.62 172.97 256.12 167.21 263.87 154.6C270.65 143.56 268.95 128.04 260.01 118.66C251.07 109.28 235.75 106.79 224.25 112.77C214.23 117.98 207.93 128.25 203.27 138.53C198.61 148.81 194.99 159.76 188.12 168.72C182.24 176.39 173.72 183.35 173.36 193.01C173.19 197.7 175.09 202.26 177.78 206.1C182.64 213.03 191.37 219.88 200.25 219.62C210.38 219.3 221.4 216.26 226.64 206.83Z" fill="#008D36"/>
<path opacity="0.2" d="M222.55 192.26C223.83 187.15 225.26 181.91 228.48 177.74C231.75 173.5 236.56 170.77 240.95 167.71C246.82 163.61 252.24 158.62 255.72 152.35C259.2 146.09 260.57 138.42 258.28 131.63C255.35 122.94 246.5 116.86 237.34 116.4C228.18 115.94 219.14 120.71 213.6 128.02C209.96 132.83 207.76 138.56 205.64 144.21C202.07 153.71 198.46 163.42 192.13 171.35C189.23 174.98 185.75 178.25 183.78 182.46C180.33 189.84 182.33 198.96 187.26 205.45C191.32 210.78 200.86 216.49 207.86 214.28C217.26 211.32 220.43 200.7 222.55 192.26Z" fill="#006633"/>
<g opacity="0.2">
<path d="M253.86 101.73C254.02 101.76 254.16 101.87 254.21 102.04C255.63 106.87 254.69 112.42 251.76 116.51C251.62 116.71 251.35 116.75 251.15 116.61C250.95 116.47 250.91 116.19 251.05 116C253.83 112.12 254.72 106.87 253.37 102.29C253.3 102.06 253.43 101.81 253.67 101.75C253.73 101.72 253.8 101.72 253.86 101.73Z" fill="#006633"/>
<path d="M248.11 106.64C248.33 106.68 248.49 106.88 248.47 107.11C248.29 109.22 247.75 111.27 246.87 113.19C246.77 113.41 246.51 113.51 246.29 113.41C246.07 113.31 245.97 113.05 246.07 112.83C246.91 111 247.42 109.05 247.6 107.04C247.62 106.8 247.83 106.62 248.07 106.64C248.09 106.64 248.1 106.64 248.11 106.64Z" fill="#006633"/>
<path d="M241.16 103.44C241.27 103.46 241.37 103.52 241.44 103.61C241.59 103.8 241.55 104.08 241.35 104.22C238.91 106.07 237.29 108.99 237.02 112.04C237 112.28 236.79 112.46 236.54 112.44C236.31 112.41 236.12 112.21 236.14 111.96C236.43 108.67 238.18 105.51 240.82 103.52C240.92 103.45 241.04 103.42 241.16 103.44Z" fill="#006633"/>
<path d="M227.47 105.22C227.7 105.26 227.86 105.48 227.83 105.71C227.47 108.35 228.02 111.06 229.39 113.34C229.51 113.55 229.45 113.82 229.24 113.94C229.03 114.06 228.76 114 228.64 113.79C227.17 111.34 226.57 108.42 226.96 105.59C226.99 105.35 227.21 105.18 227.45 105.22C227.46 105.22 227.47 105.22 227.47 105.22Z" fill="#006633"/>
<path d="M218.16 112.63C220.05 112.95 221.81 113.98 223 115.48C223.15 115.67 223.12 115.95 222.93 116.1C222.74 116.25 222.46 116.22 222.31 116.03C221.21 114.65 219.6 113.72 217.83 113.47C217.63 113.43 217.42 113.21 217.46 112.97C217.49 112.73 217.72 112.56 217.96 112.6C218.02 112.61 218.09 112.62 218.16 112.63Z" fill="#006633"/>
<path d="M209.98 119.38C211.59 119.65 213.05 120.76 213.67 122.3C213.76 122.52 213.65 122.78 213.43 122.87C213.21 122.96 212.95 122.85 212.86 122.63C212.25 121.11 210.56 120.07 208.92 120.21C208.68 120.23 208.47 120.05 208.45 119.81C208.43 119.57 208.61 119.36 208.85 119.34C209.23 119.3 209.61 119.32 209.98 119.38Z" fill="#006633"/>
<path d="M203.98 128.38C204.06 128.39 204.14 128.43 204.2 128.49C205.64 129.8 207.03 131.21 208.31 132.68C208.47 132.86 208.45 133.14 208.27 133.3C208.09 133.46 207.81 133.44 207.65 133.26C206.39 131.81 205.03 130.43 203.61 129.14C203.43 128.98 203.42 128.7 203.58 128.52C203.69 128.41 203.84 128.36 203.98 128.38Z" fill="#006633"/>
<path d="M206.52 125.5C208.01 125.75 209.41 126.59 210.23 127.86C210.36 128.06 210.3 128.34 210.1 128.47C209.9 128.6 209.62 128.54 209.49 128.34C208.41 126.66 206.08 125.87 204.19 126.54C203.96 126.62 203.71 126.5 203.63 126.27C203.55 126.04 203.67 125.79 203.9 125.71C204.73 125.41 205.64 125.36 206.52 125.5Z" fill="#006633"/>
<path d="M203.7 140.27C203.93 140.31 204.09 140.52 204.06 140.75C204.03 140.99 203.82 141.16 203.58 141.14C200.55 140.8 197.47 140.78 194.43 141.06C194.19 141.08 193.98 140.9 193.95 140.66C193.93 140.42 194.11 140.21 194.35 140.18C197.45 139.89 200.59 139.92 203.68 140.27C203.68 140.27 203.69 140.27 203.7 140.27Z" fill="#006633"/>
<path d="M200.95 148.47C201.17 148.51 201.33 148.7 201.31 148.92C201.3 149.16 201.09 149.35 200.85 149.34L195.07 149.05C194.83 149.04 194.64 148.83 194.65 148.59C194.66 148.35 194.87 148.16 195.11 148.17L200.89 148.46C200.92 148.46 200.93 148.47 200.95 148.47Z" fill="#006633"/>
<path d="M194.09 154.51C194.12 154.52 194.16 154.53 194.19 154.54L196.75 155.66C196.97 155.76 197.07 156.02 196.98 156.24C196.88 156.46 196.63 156.57 196.4 156.47L193.84 155.35C193.62 155.25 193.52 154.99 193.61 154.77C193.7 154.58 193.9 154.48 194.09 154.51Z" fill="#006633"/>
<path d="M188.61 161.77C190.09 162.02 191.49 162.79 192.47 163.92C192.63 164.1 192.61 164.38 192.43 164.54C192.25 164.7 191.97 164.68 191.81 164.5C190.79 163.32 189.24 162.59 187.67 162.56C187.43 162.55 187.24 162.35 187.24 162.11C187.24 161.87 187.44 161.67 187.69 161.68C187.99 161.69 188.3 161.72 188.61 161.77Z" fill="#006633"/>
<path d="M184.64 172.05C185.69 172.23 186.71 172.54 187.68 172.99C187.9 173.09 187.99 173.35 187.89 173.57C187.79 173.79 187.52 173.88 187.31 173.78C185.21 172.8 182.79 172.51 180.52 172.96C180.28 173.01 180.05 172.85 180 172.62C179.95 172.38 180.11 172.15 180.34 172.1C181.75 171.83 183.22 171.82 184.64 172.05Z" fill="#006633"/>
<path d="M180.93 179.74C181.1 179.77 181.24 179.9 181.28 180.07C181.34 180.31 181.19 180.54 180.95 180.6C180.56 180.69 179.79 180.81 178.82 180.97C176.76 181.3 172.92 181.91 172.21 182.45C172.02 182.6 171.74 182.56 171.59 182.37C171.44 182.18 171.48 181.9 171.67 181.75C172.48 181.12 175.32 180.63 178.67 180.09C179.58 179.94 180.38 179.82 180.74 179.73C180.81 179.73 180.87 179.73 180.93 179.74Z" fill="#006633"/>
<path d="M178.9 175.33C180.62 175.62 182.28 176.3 183.68 177.33C183.88 177.47 183.92 177.75 183.78 177.94C183.64 178.13 183.36 178.18 183.17 178.04C181.18 176.59 178.64 175.88 176.19 176.09C175.95 176.11 175.74 175.93 175.72 175.69C175.7 175.45 175.88 175.24 176.12 175.22C177.03 175.14 177.98 175.18 178.9 175.33Z" fill="#006633"/>
<path d="M271.49 132.78C271.23 132.78 271.01 132.58 270.99 132.32C270.97 132.04 271.17 131.8 271.45 131.78L280.71 131C280.98 130.98 281.23 131.18 281.25 131.46C281.27 131.74 281.07 131.98 280.79 132L271.53 132.78C271.52 132.78 271.51 132.78 271.49 132.78Z" fill="#006633"/>
<path d="M263.01 111.81C263.17 111.84 263.31 111.95 263.36 112.11C263.43 112.34 263.3 112.59 263.07 112.66C259.88 113.64 256.94 115.39 254.56 117.72C254.39 117.89 254.11 117.89 253.94 117.71C253.77 117.54 253.77 117.26 253.95 117.09C256.43 114.66 259.49 112.84 262.81 111.82C262.87 111.81 262.94 111.8 263.01 111.81Z" fill="#006633"/>
<path d="M264.58 116.95C264.72 116.97 264.84 117.06 264.9 117.19C265.01 117.41 264.92 117.67 264.7 117.78C263.01 118.6 261.48 119.7 260.15 121.04C259.98 121.21 259.7 121.22 259.53 121.04C259.36 120.87 259.36 120.59 259.53 120.42C260.92 119.01 262.53 117.85 264.32 116.99C264.4 116.95 264.49 116.94 264.58 116.95Z" fill="#006633"/>
<path d="M269.59 117.81C269.63 117.82 269.68 117.83 269.72 117.85C269.94 117.96 270.02 118.22 269.91 118.44C268.06 122.07 265.82 125.51 263.25 128.67C263.1 128.86 262.82 128.89 262.63 128.73C262.44 128.58 262.41 128.3 262.57 128.11C265.1 125 267.31 121.6 269.13 118.03C269.22 117.87 269.41 117.78 269.59 117.81Z" fill="#006633"/>
<path d="M176.59 214.18C176.4 214.18 176.22 214.07 176.14 213.89C176.02 213.64 176.13 213.34 176.39 213.23C178.3 212.35 180.09 211.21 181.7 209.86C181.91 209.68 182.23 209.71 182.4 209.92C182.58 210.13 182.55 210.45 182.34 210.62C180.66 212.04 178.8 213.22 176.81 214.14C176.73 214.16 176.66 214.18 176.59 214.18Z" fill="#006633"/>
<path d="M172.07 206.13C171.37 206.13 170.68 206.08 169.98 205.99C169.71 205.95 169.51 205.7 169.55 205.43C169.59 205.16 169.84 204.96 170.11 205C173.19 205.41 176.39 204.83 179.12 203.36C179.36 203.23 179.67 203.32 179.8 203.56C179.93 203.8 179.84 204.11 179.6 204.24C177.3 205.47 174.68 206.13 172.07 206.13Z" fill="#006633"/>
<path d="M180.08 198.02C177.51 198.02 174.97 196.96 173.16 195.11C172.97 194.91 172.97 194.6 173.17 194.4C173.37 194.21 173.68 194.21 173.88 194.41C175.66 196.24 178.25 197.2 180.79 196.98C181.05 196.95 181.31 197.16 181.33 197.44C181.35 197.71 181.15 197.96 180.87 197.98C180.61 198.01 180.35 198.02 180.08 198.02Z" fill="#006633"/>
<path d="M179.29 189.65C177.98 189.65 176.67 188.86 176.15 187.64C176.04 187.39 176.16 187.09 176.41 186.98C176.66 186.87 176.96 186.99 177.07 187.24C177.51 188.28 178.84 188.89 179.92 188.54C180.18 188.46 180.46 188.6 180.55 188.86C180.63 189.12 180.49 189.4 180.23 189.49C179.92 189.6 179.6 189.65 179.29 189.65Z" fill="#006633"/>
<path d="M254.62 155.75C254.63 155.75 254.64 155.75 254.64 155.75C259.99 156.94 264.73 160.54 267.32 165.36C267.43 165.57 267.35 165.84 267.14 165.95C266.93 166.07 266.66 165.98 266.55 165.77C264.08 161.17 259.55 157.74 254.45 156.6C254.21 156.55 254.06 156.31 254.12 156.08C254.17 155.86 254.39 155.71 254.62 155.75Z" fill="#006633"/>
<path d="M253.35 161.61C253.41 161.62 253.48 161.65 253.53 161.69C256.73 163.98 258.18 168.36 256.97 172.1C256.9 172.33 256.65 172.46 256.42 172.38C256.19 172.31 256.06 172.06 256.14 171.83C257.22 168.49 255.88 164.44 253.03 162.4C252.83 162.26 252.79 161.99 252.93 161.79C253.03 161.64 253.19 161.58 253.35 161.61Z" fill="#006633"/>
<path d="M247.4 168.03H247.41C249.66 168.46 251.72 169.78 253.06 171.65C253.2 171.85 253.16 172.12 252.96 172.26C252.76 172.4 252.49 172.36 252.35 172.16C251.14 170.48 249.28 169.29 247.25 168.89C247.01 168.84 246.86 168.61 246.9 168.38C246.95 168.15 247.17 167.99 247.4 168.03Z" fill="#006633"/>
<path d="M238.95 174.34C239 174.35 239.04 174.36 239.09 174.39C240.75 175.3 242.46 176.24 243.8 177.68C245.33 179.33 246.01 181.4 245.62 183.21C245.57 183.45 245.33 183.6 245.1 183.55C244.86 183.5 244.71 183.26 244.76 183.03C245.09 181.5 244.5 179.72 243.16 178.28C241.92 176.94 240.27 176.04 238.67 175.16C238.46 175.04 238.38 174.78 238.5 174.56C238.58 174.39 238.77 174.31 238.95 174.34Z" fill="#006633"/>
<path d="M241.17 180.16C241.31 180.18 241.44 180.28 241.5 180.42C241.6 180.64 241.5 180.9 241.28 181C238.5 182.23 235.32 182.56 232.35 181.92C232.11 181.87 231.96 181.64 232.01 181.4C232.06 181.16 232.29 181 232.53 181.06C235.33 181.66 238.31 181.35 240.93 180.19C241.01 180.16 241.09 180.15 241.17 180.16Z" fill="#006633"/>
<path d="M235.69 192.7C235.86 192.73 236.01 192.86 236.05 193.04C236.1 193.28 235.95 193.51 235.71 193.56C232.96 194.13 230.06 194.14 227.31 193.61C227.07 193.56 226.92 193.33 226.96 193.1C227.01 192.86 227.25 192.71 227.47 192.75C230.11 193.27 232.9 193.25 235.53 192.71C235.59 192.69 235.64 192.69 235.69 192.7Z" fill="#006633"/>
<path d="M230 199.53C232.28 199.91 234.49 200.8 236.39 202.1C236.59 202.24 236.64 202.51 236.5 202.71C236.36 202.91 236.09 202.96 235.89 202.82C233.49 201.17 230.56 200.23 227.65 200.18C227.41 200.18 227.21 199.98 227.22 199.73C227.22 199.49 227.42 199.29 227.67 199.3C228.45 199.33 229.23 199.4 230 199.53Z" fill="#006633"/>
<path d="M225.8 202.91C225.84 202.92 225.88 202.93 225.92 202.95C229.16 204.5 231.09 208.32 230.4 211.85C230.35 212.09 230.09 212.22 229.89 212.2C229.65 212.15 229.5 211.92 229.54 211.69C230.16 208.54 228.44 205.13 225.54 203.75C225.32 203.65 225.23 203.38 225.33 203.17C225.41 202.98 225.61 202.88 225.8 202.91Z" fill="#006633"/>
<path d="M222.32 210.76C222.46 210.78 222.58 210.87 222.65 211.01C223.74 213.35 223.8 216.16 222.81 218.54C222.72 218.76 222.46 218.87 222.24 218.78C222.02 218.69 221.91 218.43 222 218.21C222.89 216.05 222.84 213.5 221.85 211.38C221.75 211.16 221.84 210.9 222.06 210.8C222.14 210.76 222.23 210.75 222.32 210.76Z" fill="#006633"/>
<path d="M215.27 213.44C215.37 213.46 215.47 213.51 215.54 213.59C218.43 217.08 221.44 221.18 220.71 225.67C220.67 225.91 220.45 226.07 220.21 226.03C219.99 226.01 219.81 225.77 219.85 225.53C220.52 221.41 217.63 217.5 214.87 214.15C214.72 213.96 214.74 213.69 214.93 213.53C215.02 213.45 215.15 213.42 215.27 213.44Z" fill="#006633"/>
<path d="M210.07 216.25C210.2 216.27 210.33 216.36 210.39 216.49C211.54 218.84 211.87 221.54 211.33 224.09C211.28 224.33 211.04 224.47 210.81 224.43C210.57 224.38 210.42 224.15 210.47 223.91C210.97 221.54 210.66 219.05 209.6 216.87C209.49 216.65 209.58 216.39 209.8 216.28C209.89 216.25 209.98 216.23 210.07 216.25Z" fill="#006633"/>
<path d="M204.68 217.66C204.77 217.67 204.85 217.72 204.92 217.79C205.09 217.96 205.09 218.24 204.91 218.41C203.86 219.43 202.99 220.67 202.4 222C202.3 222.22 202.04 222.32 201.82 222.22C201.6 222.12 201.5 221.86 201.6 221.64C202.24 220.21 203.18 218.87 204.3 217.78C204.4 217.68 204.55 217.64 204.68 217.66Z" fill="#006633"/>
<path d="M195.68 216.55C195.77 216.57 195.86 216.61 195.93 216.68C196.1 216.86 196.09 217.13 195.91 217.3C194.14 218.95 192.77 221.03 191.93 223.3C191.85 223.53 191.59 223.64 191.37 223.56C191.14 223.48 191.03 223.22 191.11 223C191.99 220.6 193.45 218.41 195.31 216.66C195.42 216.57 195.55 216.53 195.68 216.55Z" fill="#006633"/>
<path d="M191.58 214.11C191.66 214.12 191.74 214.16 191.8 214.22C191.98 214.38 191.99 214.66 191.83 214.84L188.04 219C187.88 219.18 187.6 219.19 187.42 219.03C187.24 218.87 187.23 218.59 187.39 218.41L191.18 214.25C191.29 214.13 191.44 214.08 191.58 214.11Z" fill="#006633"/>
<path d="M189.47 212.78C189.57 212.8 189.67 212.85 189.74 212.94C189.89 213.13 189.86 213.41 189.67 213.56C187.92 214.96 185.73 215.84 183.5 216.04C183.26 216.06 183.05 215.88 183.02 215.64C183 215.4 183.18 215.19 183.42 215.16C185.48 214.97 187.5 214.16 189.12 212.87C189.23 212.79 189.36 212.76 189.47 212.78Z" fill="#006633"/>
<path d="M185.15 210.03C185.27 210.05 185.38 210.12 185.45 210.24C185.57 210.45 185.51 210.72 185.3 210.84C182.07 212.78 179.52 215.77 178.12 219.26C178.03 219.48 177.77 219.59 177.55 219.5C177.32 219.41 177.22 219.15 177.31 218.93C178.78 215.26 181.46 212.11 184.85 210.08C184.95 210.03 185.05 210.01 185.15 210.03Z" fill="#006633"/>
<path d="M180.56 206.45C180.69 206.47 180.81 206.55 180.88 206.68C180.99 206.9 180.9 207.16 180.69 207.27C178.53 208.38 176.1 209.08 173.68 209.29C173.44 209.31 173.23 209.13 173.2 208.89C173.18 208.65 173.36 208.44 173.6 208.41C175.91 208.2 178.22 207.53 180.29 206.48C180.37 206.45 180.47 206.43 180.56 206.45Z" fill="#006633"/>
<path d="M178.56 201.98C178.74 202.01 178.89 202.16 178.92 202.35C178.96 202.59 178.79 202.81 178.55 202.85C174.13 203.5 169.71 204.48 165.42 205.76C165.19 205.83 164.94 205.7 164.87 205.47C164.8 205.24 164.93 204.99 165.16 204.92C169.49 203.63 173.94 202.64 178.41 201.98C178.47 201.97 178.51 201.98 178.56 201.98Z" fill="#006633"/>
<path d="M269.56 125.41C269.31 125.41 269.1 125.23 269.06 124.97C269.02 124.7 269.22 124.45 269.49 124.41L278.36 123.27C278.64 123.24 278.88 123.43 278.92 123.7C278.96 123.97 278.76 124.22 278.49 124.26L269.62 125.41C269.6 125.41 269.58 125.41 269.56 125.41Z" fill="#006633"/>
<path d="M275.35 121.6H269.95C269.67 121.6 269.45 121.38 269.45 121.1C269.45 120.82 269.67 120.6 269.95 120.6H275.35C275.63 120.6 275.85 120.82 275.85 121.1C275.85 121.38 275.63 121.6 275.35 121.6Z" fill="#006633"/>
<path d="M235.66 186.93C235.84 186.96 235.98 187.1 236.02 187.28C236.06 187.52 235.91 187.75 235.67 187.79L231.77 188.51C231.53 188.55 231.3 188.4 231.26 188.16C231.22 187.92 231.37 187.69 231.61 187.65L235.51 186.93C235.56 186.92 235.61 186.92 235.66 186.93Z" fill="#006633"/>
<path d="M197.29 143.72C197.3 143.72 197.32 143.73 197.33 143.73C199.33 144.28 201.2 145.16 202.9 146.35C203.1 146.49 203.15 146.76 203.01 146.96C202.87 147.16 202.6 147.21 202.4 147.07C200.78 145.94 199 145.1 197.1 144.58C196.87 144.52 196.73 144.27 196.79 144.04C196.85 143.82 197.07 143.68 197.29 143.72Z" fill="#006633"/>
<path d="M203.82 134.08C203.93 134.1 204.04 134.16 204.11 134.26L206.17 137.19C206.31 137.39 206.26 137.66 206.06 137.8C205.86 137.94 205.59 137.89 205.45 137.69L203.39 134.76C203.25 134.56 203.3 134.29 203.5 134.15C203.59 134.08 203.71 134.06 203.82 134.08Z" fill="#006633"/>
</g>
<path d="M250.05 127.78C247.11 124.57 242.8 122.86 238.47 122.35C231.12 121.48 223.25 124.08 218.5 129.74C213.75 135.41 212.68 144.16 216.65 150.4C218.51 153.33 221.32 155.6 224.46 157.09C230.75 160.07 238.56 159.84 244.44 156.11C252.78 150.83 257.32 135.72 250.05 127.78Z" fill="#008D36"/>
<path opacity="0.2" d="M234.9 139.21C234.42 137.46 233.85 135.74 233.2 134.05C232.77 132.93 232.28 131.79 231.42 130.95C230.21 129.75 228.4 129.3 226.71 129.47C224.1 129.73 221.74 131.37 220.33 133.58C218.92 135.79 218.41 138.5 218.63 141.11C218.92 144.59 220.59 148.07 223.52 149.98C226.12 151.68 230.66 152.04 233.27 150.03C236.49 147.54 235.82 142.58 234.9 139.21Z" fill="#006633"/>
<path opacity="0.2" d="M248.11 146.41C248.04 145.71 247.72 145.07 247.32 144.5C246.51 143.35 245.32 142.44 243.95 142.13C242.58 141.82 241.04 142.15 240.04 143.14C238.7 144.45 238.55 146.57 238.89 148.41C239.02 149.11 239.21 149.8 239.59 150.4C240.5 151.84 242.46 152.45 244.09 151.95C245.95 151.38 248.3 148.44 248.11 146.41Z" fill="#006633"/>
<path opacity="0.2" d="M247.64 131.35C246.56 130.33 245.39 129.34 244 128.83C242.6 128.32 240.91 128.38 239.77 129.34C238.94 130.04 238.5 131.14 238.39 132.22C238.16 134.34 239.08 136.55 240.75 137.87C242.42 139.19 244.79 139.58 246.79 138.85C250.44 137.53 250 133.57 247.64 131.35Z" fill="#006633"/>
<path d="M208.96 206.82C209.772 206.82 210.43 206.162 210.43 205.35C210.43 204.538 209.772 203.88 208.96 203.88C208.148 203.88 207.49 204.538 207.49 205.35C207.49 206.162 208.148 206.82 208.96 206.82Z" fill="#008D36"/>
<path d="M199.41 206.29C199.6 205.16 200.67 204.4 201.8 204.59C202.93 204.78 203.69 205.85 203.5 206.98C203.31 208.11 202.24 208.87 201.11 208.68C199.98 208.5 199.22 207.42 199.41 206.29Z" fill="#008D36"/>
<path d="M206.08 194.86C206.23 193.96 207.08 193.36 207.98 193.51C208.88 193.66 209.48 194.51 209.33 195.41C209.18 196.31 208.33 196.91 207.43 196.76C206.53 196.6 205.93 195.76 206.08 194.86Z" fill="#008D36"/>
<path d="M197.42 198.32C197.57 197.42 198.42 196.82 199.32 196.97C200.22 197.12 200.82 197.97 200.67 198.87C200.52 199.77 199.67 200.37 198.77 200.22C197.87 200.06 197.27 199.21 197.42 198.32Z" fill="#008D36"/>
<path d="M210.71 199.68C210.84 198.88 211.6 198.34 212.41 198.47C213.22 198.6 213.75 199.36 213.62 200.17C213.49 200.97 212.73 201.51 211.92 201.38C211.11 201.25 210.58 200.48 210.71 199.68Z" fill="#008D36"/>
<path d="M193.45 203.67C194.643 203.67 195.61 202.703 195.61 201.51C195.61 200.317 194.643 199.35 193.45 199.35C192.257 199.35 191.29 200.317 191.29 201.51C191.29 202.703 192.257 203.67 193.45 203.67Z" fill="#008D36"/>
<path d="M197.51 184.2C197.73 182.88 198.98 181.99 200.3 182.21C201.62 182.43 202.51 183.68 202.29 185C202.07 186.32 200.82 187.21 199.5 186.99C198.18 186.77 197.29 185.52 197.51 184.2Z" fill="#008D36"/>
<path d="M210.74 182.82C210.89 181.92 211.74 181.32 212.64 181.47C213.54 181.62 214.14 182.47 213.99 183.37C213.84 184.27 212.99 184.87 212.09 184.72C211.19 184.57 210.59 183.72 210.74 182.82Z" fill="#008D36"/>
<path d="M211.21 191.06C211.834 191.06 212.34 190.554 212.34 189.93C212.34 189.306 211.834 188.8 211.21 188.8C210.586 188.8 210.08 189.306 210.08 189.93C210.08 190.554 210.586 191.06 211.21 191.06Z" fill="#008D36"/>
<path d="M207.57 173.51C207.7 172.71 208.46 172.17 209.27 172.3C210.08 172.43 210.61 173.19 210.48 174C210.35 174.81 209.59 175.34 208.78 175.21C207.97 175.08 207.43 174.31 207.57 173.51Z" fill="#008D36"/>
<path d="M218.71 174.07C218.9 172.94 219.97 172.18 221.1 172.37C222.23 172.56 222.99 173.63 222.8 174.76C222.61 175.89 221.54 176.65 220.41 176.46C219.28 176.27 218.52 175.2 218.71 174.07Z" fill="#008D36"/>
<path d="M190.97 193.08C191.975 193.08 192.79 192.265 192.79 191.26C192.79 190.255 191.975 189.44 190.97 189.44C189.965 189.44 189.15 190.255 189.15 191.26C189.15 192.265 189.965 193.08 190.97 193.08Z" fill="#008D36"/>
<path d="M192.97 176.76C193.13 175.82 194.02 175.18 194.97 175.34C195.91 175.5 196.55 176.39 196.39 177.34C196.23 178.28 195.34 178.92 194.39 178.76C193.45 178.6 192.81 177.7 192.97 176.76Z" fill="#008D36"/>
<path d="M201.76 172.06C202.953 172.06 203.92 171.093 203.92 169.9C203.92 168.707 202.953 167.74 201.76 167.74C200.567 167.74 199.6 168.707 199.6 169.9C199.6 171.093 200.567 172.06 201.76 172.06Z" fill="#008D36"/>
<path d="M212.12 164.18C212.23 163.52 212.86 163.07 213.52 163.19C214.18 163.3 214.63 163.93 214.51 164.59C214.4 165.25 213.77 165.7 213.11 165.58C212.45 165.46 212.01 164.84 212.12 164.18Z" fill="#008D36"/>
<path d="M187.8 184.49C187.9 183.92 188.43 183.54 189 183.64C189.57 183.74 189.95 184.27 189.85 184.84C189.75 185.41 189.22 185.79 188.65 185.69C188.09 185.6 187.71 185.06 187.8 184.49Z" fill="#008D36"/>
</svg>
