<svg width="842" height="596" viewBox="0 0 842 596" fill="none" xmlns="http://www.w3.org/2000/svg">
<path d="M388.32 73.56C371.72 100.06 356.86 128.05 358.1 130.04C359.83 132.76 428.69 133.51 428.69 131.03C428.69 128.8 393.76 68.11 392.53 68.11C392.04 68.11 390.06 70.59 388.32 73.56Z" fill="#F3E600"/>
<path d="M282.56 133.75C282.56 153.57 283.3 169.67 284.54 169.67C288.01 169.42 343 135.98 343.49 133.75C344.23 131.52 288.25 97.83 284.04 97.83C283.3 97.83 282.56 113.94 282.56 133.75Z" fill="#F3E600"/>
<path d="M470.81 114.18C455.2 123.1 441.58 131.27 440.59 132.01C438.86 133.74 497.56 169.66 501.52 169.66C502.26 169.66 503.01 153.56 503.01 133.74C503.01 113.92 502.27 97.82 501.28 97.82C500.04 97.83 486.41 105.27 470.81 114.18Z" fill="#F3E600"/>
<path d="M354.64 153.82C310.55 165.71 272.4 204.1 258.78 250.18C252.34 272.23 252.84 305.42 260.27 327.96C271.17 362.14 296.19 392.36 327.4 408.71C415.33 455.03 522.09 395.58 529.28 296.25C533.99 232.1 489.65 169.92 427.48 153.57C409.13 148.86 372.47 148.86 354.64 153.82Z" fill="#F3E600"/>
<path d="M203.29 178.83C203.54 183.04 236.98 237.29 239.21 237.29C241.44 237.29 274.88 183.04 275.13 178.83C275.13 177.84 259.03 177.1 239.21 177.1C219.39 177.1 203.29 177.84 203.29 178.83Z" fill="#F3E600"/>
<path d="M510.44 178.59C510.44 182.55 544.13 238.78 546.11 238.29C548.09 237.55 582.27 181.07 582.27 178.35C582.27 177.61 566.17 177.11 546.35 177.11C526.53 177.11 510.44 177.84 510.44 178.59Z" fill="#F3E600"/>
<path d="M204.78 267.51C189.92 276.18 176.79 284.35 175.55 285.59C174.31 286.83 185.71 295 204.04 305.41C220.88 315.32 235.5 323.24 236.49 323.24C237.23 323.24 237.98 307.14 237.98 287.32C237.98 260.07 237.24 251.4 235.01 251.4C233.26 251.66 219.64 258.84 204.78 267.51Z" fill="#F3E600"/>
<path d="M547.59 287.33C547.59 307.15 548.33 323.25 549.32 323.25C550.31 323.25 564.93 315.08 581.52 305.42C609.26 289.32 611.74 287.09 607.78 284.12C601.34 279.41 551.3 251.42 549.32 251.42C548.34 251.41 547.59 267.51 547.59 287.33Z" fill="#F3E600"/>
<path d="M222.36 360.89C198.58 401.76 196.6 397.55 238.96 397.55C258.78 397.55 275.12 397.05 275.12 396.06C275.12 394.82 246.63 344.79 241.68 337.35C238.96 333.4 236.73 336.12 222.36 360.89Z" fill="#F3E600"/>
<path d="M535.21 350.98C529.27 360.89 521.34 374.26 517.62 380.95C513.66 387.39 510.44 393.83 510.44 395.07C510.44 396.56 524.31 397.55 546.36 397.55C566.18 397.55 582.28 397.05 582.28 396.31C582.28 395.07 548.1 335.38 546.36 333.64C545.86 333.15 540.91 340.83 535.21 350.98Z" fill="#F3E600"/>
<path d="M282.56 440.9C282.56 460.72 283.06 476.82 283.55 476.82C286.52 476.82 343 443.13 343.74 440.9C344.24 438.67 288.26 404.98 284.04 404.98C283.3 404.98 282.56 421.08 282.56 440.9Z" fill="#F3E600"/>
<path d="M469.07 421.83C453.96 430.99 440.83 438.92 440.09 439.66C438.85 440.9 498.55 476.82 501.77 476.82C502.51 476.82 503.01 460.72 503.01 440.9C503.01 413.65 502.27 404.98 500.04 405.23C498.3 405.48 484.43 412.91 469.07 421.83Z" fill="#F3E600"/>
<path d="M357.86 446.35C360.09 452.05 391.55 506.54 392.79 506.54C394.03 506.54 428.71 445.61 428.71 443.62C428.71 442.88 412.36 442.13 392.55 442.13C359.09 442.14 356.37 442.39 357.86 446.35Z" fill="#F3E600"/>
</svg>
