<svg width="171" height="172" viewBox="0 0 171 172" fill="none" xmlns="http://www.w3.org/2000/svg">
<path opacity="0.75" d="M132.29 171.32H37.1699C19.3599 171.32 4.91992 156.88 4.91992 139.07V37.01C4.91992 19.2 19.3599 4.76001 37.1699 4.76001H132.29C150.1 4.76001 164.54 19.2 164.54 37.01V139.08C164.53 156.89 150.1 171.32 132.29 171.32Z" fill="#010202"/>
<mask id="mask0_247_2" style="mask-type:luminance" maskUnits="userSpaceOnUse" x="0" y="0" width="171" height="171">
<path d="M132.12 170.64H38.52C17.25 170.64 0 153.39 0 132.12V38.52C0 17.25 17.25 0 38.52 0H132.12C153.39 0 170.64 17.25 170.64 38.52V132.12C170.64 153.39 153.4 170.64 132.12 170.64Z" fill="white"/>
</mask>
<g mask="url(#mask0_247_2)">
<path d="M28.7099 88.18C28.2799 89.84 28.7599 90.33 30.3999 89.97C31.1999 89.8 32.0199 89.75 33.2499 89.59C32.8299 90.31 32.6699 90.65 32.4499 90.95C30.7999 93.18 30.6599 95.55 31.9699 97.93C32.2499 98.44 33.2399 99.06 33.6299 98.92C34.5599 98.56 34.2299 97.73 33.7799 97.02C33.0499 95.88 33.0899 94.68 33.5799 93.44C34.5399 96.66 36.0899 99.78 34.9799 103.51C30.4799 102.36 27.2399 99.87 25.4399 95.46C25.7599 94.09 25.8999 92.87 26.2699 91.73C26.7199 90.33 27.0099 88.75 28.7099 88.18Z" fill="#79A33F"/>
<path d="M28.6996 88.18C27.0096 88.75 26.7196 90.33 26.2696 91.73C25.8996 92.87 25.7496 94.09 25.4296 95.35C23.7096 91.16 23.6696 86.99 26.3296 83.08C27.6896 81.08 29.6296 79.97 32.2396 79.96C32.4296 80.11 32.4896 80.15 32.5696 80.18C32.5596 81.71 32.5396 83.24 32.3896 84.91C30.4296 85.26 28.9196 86.59 28.6996 88.18Z" fill="#89C060"/>
<path d="M28.8198 88.16C28.9198 86.59 30.4298 85.26 32.3498 85.05C32.5398 85.78 32.6198 86.52 32.7098 87.25C31.3498 87.57 30.1498 87.86 28.8198 88.16Z" fill="#79A33F"/>
<path d="M32.5799 80.11C32.4899 80.16 32.4299 80.11 32.3599 79.99C32.4499 79.89 32.5399 79.93 32.5799 80.11Z" fill="#79A33F"/>
<path d="M132.03 44.99C132.09 44.95 132.16 44.97 132.2 45.04C132.15 45.08 132.05 45.04 132.03 44.99Z" fill="white"/>
<path d="M146.15 110.7C143.28 114.39 137.57 116.24 132.63 115.05C133.78 111.05 134.92 107.06 136.08 103.03C138.25 104.32 138.69 106.94 137.19 108.86C136.97 109.14 136.59 109.33 136.48 109.64C136.28 110.18 136.23 110.77 136.11 111.34C136.74 111.28 137.56 111.46 137.98 111.14C140.9 108.88 141.06 104.54 138.41 101.88C137.93 101.4 137.41 100.96 136.61 100.23C139.54 99.83 141.87 100.41 144.08 101.66C144.6 101.95 145.15 102.2 145.8 102.6C146.02 105.32 146.13 107.89 146.24 110.47C146.24 110.47 146.24 110.44 146.2 110.46C146.13 110.5 146.07 110.52 146.07 110.53C146.09 110.58 146.12 110.64 146.15 110.7Z" fill="#79A33F"/>
<path d="M146.33 110.41C146.12 107.88 146.02 105.3 145.9 102.59C147.01 101.66 146.83 100.84 145.82 100.18C144.85 99.55 143.78 99.08 142.66 98.37C142.29 97.9 142.08 97.47 141.74 97.29C140.56 96.69 139.33 96.17 138.11 95.63C138.59 93.12 138.74 93 141.26 92.98C146.08 92.95 149.21 95.82 149.58 100.63C149.87 104.31 148.7 107.52 146.33 110.41Z" fill="#89C060"/>
<path d="M138.05 95.74C139.32 96.18 140.55 96.7 141.73 97.3C142.07 97.47 142.28 97.9 142.55 98.33C140.94 98.2 139.33 97.95 137.6 97.69C137.73 97.09 137.86 96.47 138.05 95.74Z" fill="#79A33F"/>
<path d="M36.3599 115.01L46.9299 127.41L67.0799 136.28L90.3299 138.81L112.61 135.91L120.9 131.71L128.91 119.98L141.69 79.07C141.95 75.51 141.94 70.75 140.89 65.29C140.03 60.79 138.69 57.04 137.43 54.14C135.78 52.02 134.14 49.89 132.49 47.77C131.24 46.61 129.98 45.45 128.73 44.29C126.61 48.5 124.49 52.71 122.38 56.93C115.98 60.19 109.57 63.45 103.17 66.71C95.0699 66.95 86.9699 67.18 78.8699 67.42C71.8699 64.57 64.8799 61.72 57.8799 58.86C54.4199 55.53 50.9699 52.21 47.5099 48.88C46.8699 47.44 46.2199 46 45.5799 44.56C43.6699 46.17 41.3799 48.47 39.3199 51.59C35.0699 58.04 34.1499 64.46 33.9199 67.91C34.0599 72.34 34.2099 76.76 34.3499 81.19C35.0099 92.47 35.6899 103.74 36.3599 115.01Z" fill="#678B44"/>
<path d="M117.2 132.41C117.42 133.6 116.75 134.12 115.76 134.56C109.67 137.25 103.27 138.72 96.6799 139.42C96.3299 139.46 95.9799 139.49 95.5699 139.52C95.3199 140.76 95.4099 141.41 96.9599 141.68C101.3 142.43 105.47 143.68 108.58 147.42C112.19 151.46 115.78 155.27 119.11 159.3C121.38 162.05 121.58 161.41 119.13 164.59C118.85 164.96 118.61 165.65 118.76 166.01C120.53 170 122.37 173.95 124.21 178.01C124.53 178.65 124.83 179.19 125.14 179.83C125.78 182.12 126.4 184.3 127.07 186.47C127.24 187.01 127.59 187.49 127.9 188.09C130.73 190.91 128.06 193 127.05 195.22C126.65 196.11 125.78 196.81 125.07 197.54C124.89 197.72 124.47 197.64 124.2 197.76C123.81 197.94 123.38 198.13 123.11 198.44C121.2 200.58 119.18 200.5 117.19 198.33C116.74 197.84 115.78 197.45 115.14 197.55C112.21 198 110.18 196.47 110.44 193.45C110.6 191.5 110.05 189.89 109.26 188.13C108.84 186.84 108.42 185.67 108 184.49C107.88 184.53 107.76 184.57 107.64 184.6C108.06 186.03 108.47 187.46 108.91 189.01C109.03 189.62 109.07 190.14 109.24 190.6C109.77 192.05 109.54 193.17 107.87 193.77C107.37 193.87 106.97 193.96 106.44 194.03C105.37 194.19 104.43 194.36 103.35 194.54C97.6999 195.3 92.1898 196.06 86.5298 196.8C84.8498 196.8 83.3199 196.81 81.6399 196.8C76.8999 196.56 72.3698 195.92 67.9498 194.58C67.4398 194.43 66.8798 194.46 66.2298 194.37C65.6398 194.24 65.1698 194.15 64.6998 193.96C63.8498 192.84 64.1098 191.73 64.4498 190.6C64.6798 189.84 64.7898 189.05 65.0598 188.21C65.2998 187.26 65.4498 186.38 65.6698 185.45C65.7698 185.21 65.7999 185.03 65.8299 184.84C65.7699 184.83 65.7098 184.83 65.6498 184.82C65.6398 185.05 65.6199 185.28 65.5299 185.58C65.2099 186.54 64.9799 187.43 64.7199 188.42C64.2499 189.89 63.6999 191.23 63.4099 192.63C63.1499 193.87 63.1898 195.18 63.0098 196.51C62.1698 197.91 61.0099 198.65 59.5199 198.22C58.3099 197.87 57.7399 198.36 56.9099 199.11C56.0799 199.87 54.6098 200.89 53.8598 200.61C51.7399 199.82 49.6799 198.62 47.9099 197.19C46.8399 196.32 46.3099 194.75 45.6199 193.44C44.6899 191.69 45.0398 190.55 47.0598 188.44C47.7898 185.78 48.4698 183.23 49.0998 180.67C49.2198 180.19 49.1698 179.66 49.1998 179.16C49.2798 179.01 49.3698 178.86 49.4498 178.61C51.4598 177.08 51.6399 174.63 52.6199 172.64C53.6999 170.42 54.5299 168.07 55.3499 165.74C55.5199 165.27 55.3599 164.48 55.0499 164.07C52.3699 160.47 52.6098 161.75 55.1198 158.37C56.2698 156.83 57.5598 155.4 58.9198 153.79C61.5198 151.09 63.9298 148.48 66.4498 145.97C68.5698 143.85 71.0898 142.35 74.0598 141.69C74.9898 141.48 75.9299 141.33 76.8199 141.17C77.1499 139.72 76.6199 139.32 75.2499 139.06C71.0699 138.26 66.9299 137.22 62.7799 136.24C61.5598 135.95 60.3799 135.52 59.0799 135.11C57.2599 134.24 55.5399 133.41 53.8299 132.56C48.8399 130.11 44.3298 126.98 40.2798 123.17C38.6498 120.91 36.8098 118.77 35.4498 116.36C33.6098 113.1 32.7198 109.56 34.1698 106.1C31.8498 104.75 29.4499 103.71 27.4699 102.14C21.4399 97.34 19.9098 86.66 25.3098 80.78C27.3298 78.58 29.8298 77.61 32.9898 77.63C33.1398 75.91 33.2899 74.26 33.4299 72.61C33.5699 71.04 33.6099 69.45 33.8999 67.91C33.9999 67.36 34.6999 66.93 35.3299 66.49C35.7799 67.18 36.2398 67.83 36.2398 68.47C36.2498 70.54 36.0899 72.61 35.9299 74.78C34.2799 81.94 34.9599 88.89 36.8299 95.86C36.9099 96.09 36.9699 96.23 37.0399 96.5C37.1999 97.14 37.3599 97.66 37.4999 98.31C38.1899 101.23 37.6698 103.92 36.6398 106.5C35.6598 108.94 35.8998 111.29 36.8198 113.63C37.9698 116.55 39.7499 119.07 42.1098 121.3C42.8398 122.01 43.5199 122.62 44.2299 123.33C47.9399 126.63 52.0799 129.08 56.4699 131.14C65.8499 135.55 75.7998 137.31 86.0798 137.4C96.0798 137.48 105.87 136.32 115.12 132.16C115.68 131.94 116.5 132.32 117.2 132.41ZM105.3 175.9C105.26 175.82 105.22 175.74 105.18 175.66C105.22 175.8 105.25 175.94 105.3 176.26C105.33 176.42 105.36 176.58 105.39 176.74C105.45 176.72 105.52 176.7 105.58 176.68C105.49 176.46 105.4 176.25 105.3 175.9ZM66.3599 183.29C66.3699 183.13 66.3799 182.97 66.3899 182.81C66.3499 182.81 66.3099 182.81 66.2699 182.81C66.2499 183 66.2398 183.2 66.0898 183.5C66.0498 183.67 66.0099 183.83 65.9599 184C66.0199 184.01 66.0898 184.02 66.1498 184.04C66.1698 183.81 66.1899 183.6 66.3599 183.29ZM28.9399 88.15C30.1499 87.86 31.3598 87.57 32.7098 87.24C32.6298 86.51 32.5499 85.78 32.5199 84.76C32.5299 83.23 32.5499 81.7 32.5899 80.03C32.5399 79.92 32.4499 79.89 32.0899 79.89C29.6299 79.98 27.6899 81.09 26.3299 83.09C23.6699 87 23.7099 91.16 25.3699 95.65C27.2299 99.87 30.4799 102.37 34.9799 103.52C36.0899 99.79 34.5399 96.67 33.5799 93.45C33.0899 94.69 33.0498 95.89 33.7798 97.03C34.2298 97.73 34.5698 98.57 33.6298 98.93C33.2398 99.08 32.2499 98.46 31.9699 97.94C30.6599 95.55 30.7998 93.19 32.4498 90.96C32.6698 90.66 32.8299 90.32 33.2499 89.6C32.0299 89.76 31.1999 89.81 30.3999 89.98C28.7599 90.34 28.2699 89.84 28.6899 88.18C28.6999 88.17 28.6999 88.18 28.9399 88.15ZM115.27 168.33C115.27 168.33 115.26 168.32 115.05 168.38C111.96 170.5 108.45 171.39 104.76 171.79C107.36 178.18 109.91 184.43 112.42 190.7C112.61 191.18 112.62 191.81 112.49 192.32C112.2 193.47 112.05 194.7 113.11 195.36C113.67 195.71 114.69 195.34 115.5 195.3C116.08 195.27 116.71 195.47 117.28 195.77C117.73 196 118.25 196.27 118.5 196.66C119.02 197.48 119.55 198.28 120.64 197.95C121.69 197.63 121.86 196.7 121.75 195.71C121.73 195.52 121.75 195.32 121.75 195.09C124.24 196.31 125.03 196.06 125.14 193.86C124.9 193.36 124.65 192.85 124.36 192.25C125.57 192.63 126.74 192.67 127.09 191.36C127.47 189.96 126.32 189.32 125.56 188.94C125.06 186.69 124.92 184.55 124.12 182.69C122.02 177.76 119.65 172.95 117.32 167.85C117.21 167.59 117.1 167.33 116.91 166.89C116.3 167.44 115.79 167.89 115.27 168.33ZM79.3098 141.81C79.2198 143.14 79.0098 144.39 79.9498 145.65C81.6598 147.94 83.1398 150.41 84.9798 153.19C87.5598 150.57 89.8198 148.2 92.1698 145.91C94.1098 144.02 93.5398 141.92 93.0098 139.69C92.3598 139.72 91.8098 139.75 91.0598 139.73C90.9298 139.75 90.7899 139.78 90.4099 139.77C89.9899 139.79 89.5598 139.81 88.8598 139.76C85.6298 139.76 82.4098 139.76 79.0398 139.76C79.1398 140.39 79.2498 140.98 79.3098 141.81ZM98.6299 143.99C96.1499 143.48 96.1698 143.49 94.7498 145.52C92.3698 148.92 89.3898 151.73 86.1398 154.27C85.0198 155.14 84.2098 155.17 83.3998 153.92C81.3098 150.69 79.1299 147.51 77.0999 144.23C76.5999 143.42 76.1298 143.15 75.2898 143.38C74.7598 143.52 74.2299 143.7 73.4899 143.88C73.1899 144.03 72.8999 144.19 72.3899 144.36C71.7599 144.68 71.0698 144.93 70.5098 145.34C64.7298 149.62 60.1798 155.09 55.7598 160.68C55.5598 160.93 55.5599 161.59 55.7499 161.84C57.8699 164.56 60.3399 166.86 63.9099 168.03C65.6699 168.45 67.4099 168.96 69.1899 169.27C70.6099 169.52 71.4699 168.25 70.8899 166.91C70.3199 165.57 69.7399 164.23 69.1599 162.64C69.0199 161.99 68.7498 161.34 68.7898 160.71C68.8198 160.16 69.2099 159.63 69.4399 159.08C69.8399 159.48 70.4099 159.81 70.5999 160.29C71.4199 162.35 72.1599 164.45 72.8599 166.55C73.0399 167.08 73.1398 167.74 72.9798 168.25C71.1098 174.41 69.1599 180.54 67.2999 186.7C66.7799 188.42 66.4499 190.21 66.0199 192.05C67.0899 192.38 67.9998 192.69 68.9198 192.94C75.3398 194.68 81.8499 195.49 88.7699 194.75C95.0999 194.29 101.31 193.17 107.36 191.71C107.44 191.45 107.48 191.4 107.47 191.36C105.68 185.12 103.9 178.88 102.09 172.65C102.02 172.42 101.69 172.07 101.5 172.09C99.9098 172.19 99.7798 171.01 99.4698 169.92C99.2398 169.1 98.9399 168.29 98.6599 167.24C97.8899 164.45 97.0898 161.66 96.3898 158.86C96.2898 158.47 96.7099 157.94 96.8799 157.48C97.3099 157.73 97.7998 157.9 98.1398 158.24C98.3598 158.46 98.3699 158.9 98.4599 159.24C99.3899 162.51 100.29 165.79 101.29 169.04C101.42 169.45 102.05 170 102.45 169.99C108.7 169.96 114.11 168.01 118.11 162.92C118.69 162.17 118.75 161.68 118.11 160.98C114.1 156.6 110.24 152.08 106.06 147.88C104.6 146.41 102.35 145.74 100.3 144.53C99.8299 144.37 99.3499 144.22 98.6299 143.99ZM55.4999 197.86C55.9099 196.1 57.8798 196.61 58.5098 195.79C59.3798 195.98 60.2499 196.43 60.5799 196.18C61.1399 195.75 61.4599 194.91 61.6599 194.18C61.7699 193.76 61.4299 193.23 61.3299 192.74C61.2699 192.42 61.1598 192.05 61.2598 191.78C62.5698 188.21 63.8898 184.64 65.2598 181.09C66.5098 177.83 67.8099 174.59 69.1299 171.23C64.6799 170.65 60.7599 169.14 57.4099 166.47C54.9499 172.13 52.4999 177.59 50.2299 183.13C49.5699 184.74 49.3598 186.56 49.1098 188.31C48.9798 189.23 49.0098 189.99 48.0698 190.61C47.5998 190.92 47.2598 192.03 47.4598 192.54C47.6398 193 48.6399 193.14 49.2999 193.38C49.4799 193.45 49.7199 193.36 49.5799 193.37C49.5799 194.4 49.2599 195.94 49.6499 196.14C50.4699 196.57 51.6499 196.3 52.4399 196.31C52.7399 196.96 52.9899 197.88 53.5499 198.53C53.7299 198.74 54.7399 198.24 55.4999 197.86ZM105.93 178.66C105.97 178.73 106.02 178.81 106.06 178.88C106.1 178.8 106.19 178.71 106.17 178.65C106.15 178.59 106.03 178.57 105.93 178.66ZM104.46 173.98C104.51 173.96 104.56 173.95 104.61 173.93C104.56 173.91 104.51 173.89 104.46 173.98ZM104 172.15C103.96 172.1 103.93 172.05 103.89 172.01C103.9 172.07 103.91 172.14 104 172.15ZM105.84 177.53C105.79 177.55 105.74 177.56 105.69 177.58C105.73 177.6 105.79 177.62 105.84 177.53ZM104.3 173.06C104.26 173.01 104.23 172.96 104.19 172.91C104.21 172.99 104.21 173.05 104.3 173.06ZM104.77 174.78C104.81 174.83 104.84 174.88 104.88 174.93C104.87 174.86 104.86 174.79 104.77 174.78Z" fill="#0B0F0D"/>
<path d="M92.07 13.78C93.77 15.52 95.52 17.22 97.14 19.03C97.76 19.73 98.28 19.62 98.99 19.41C103.93 17.97 108.88 17.68 113.8 19.49C120.14 21.82 124.11 26.61 126.59 32.62C127.73 35.39 128.11 38.47 128.87 41.4C128.99 41.85 129.2 42.32 129.51 42.65C130.24 43.43 131.05 44.12 131.92 44.9C132.01 44.95 132.02 44.94 132.04 44.99C132.06 45.04 132.16 45.08 132.19 45.18C133.05 46.2 133.87 47.14 134.71 48.06C135.42 48.84 135.51 49.63 134.69 50.46C133.99 50.17 133.29 49.98 132.84 49.54C131.46 48.18 130.18 46.72 128.68 45.11C127.4 51.4 124.2 56.02 119.38 59.42C116.57 61.39 113.44 62.89 110.33 64.61C108.78 65.15 107.34 65.68 105.78 66.21C101.94 66.93 98.24 67.92 94.48 68.31C84.01 69.41 73.81 68.2 64.2 63.68C61.42 62.37 58.85 60.62 56.18 59.08C56.17 59.09 56.2 59.09 56.17 59.02C56.05 58.9 55.95 58.86 55.82 58.72C51.66 55.1 48 51.23 46.11 45.71C45.58 46.38 45.2 46.83 44.85 47.3C41.39 51.9 38.95 57 37.47 62.55C37.21 63.53 36.84 64.27 35.65 64.13C35.44 63.55 34.99 62.93 35.07 62.39C35.26 61.16 35.71 59.96 36.16 58.57C36.53 57.63 36.74 56.84 37.09 56.12C38.22 53.75 39.4 51.41 40.65 49.01C42.09 47.13 43.46 45.31 44.78 43.46C45.04 43.1 45.26 42.56 45.19 42.15C44.35 37.09 44.53 32.07 45.77 27.03C45.88 26.88 45.89 26.78 45.92 26.61C46 26.43 46.01 26.3 46.07 26.08C48.48 19.06 52.92 13.92 59.49 10.76C64.19 8.49999 69.2 7.27999 74.58 7.23999C76.42 7.50999 78.12 7.75999 79.83 7.94999C80.38 8.00999 80.95 7.89999 81.52 7.85999C81.52 7.85999 81.64 7.85999 81.74 7.96999C82.06 8.28999 82.25 8.59999 82.51 8.67999C86.05 9.70999 89.11 11.64 92.07 13.78ZM117.51 23.71C117.51 23.71 117.53 23.71 117.46 23.57C117.38 23.51 117.29 23.46 117.09 23.23C114.63 21.82 112.11 20.56 108.91 20.44C107.31 20.43 105.72 20.42 103.87 20.37C102.91 20.6 101.95 20.82 100.76 21.04C100.03 21.22 99.31 21.4 98.35 21.59C97.81 21.7 97.26 21.81 96.6 21.76C95.54 20.41 94.6 18.94 93.4 17.73C85.17 9.46999 75.4 7.35999 64.38 10.83C58.86 12.57 54.03 15.5 50.91 20.51C45.41 29.35 45.3 38.63 49.18 48.32C50.02 49.31 50.87 50.29 51.77 51.49C53.1 54.06 55.2 55.86 57.65 57.47C57.72 57.46 57.8 57.45 57.87 57.44C57.81 57.38 57.74 57.33 57.65 57.05C57.22 56.13 56.76 55.23 56.36 54.3C53.35 47.28 53.33 40.45 57.49 33.8C60.8 28.5 66.4 26.79 71.47 29.79C74.19 31.39 75.95 33.85 76.87 37.13C76.92 38.38 76.97 39.64 76.88 41.06C76.79 41.23 76.74 41.47 76.59 41.57C76.11 41.9 75.6 42.18 75.11 42.48C74.99 41.93 74.82 41.38 74.78 40.83C74.76 40.5 75 40.16 75.04 39.81C75.45 36.53 73.14 32.73 69.77 31.1C66.71 29.62 63.33 30.23 60.86 32.83C57.83 36.02 56.3 39.91 56.18 44.27C56.05 48.93 57.63 53.15 60.01 57.08C60.79 58.38 61.48 60 62.66 60.73C66.08 62.82 69.83 64.29 74 65.1C75.17 65.35 76.34 65.59 77.75 65.9C84.52 67.1 91.31 67.16 98.06 65.95C100.82 65.46 103.49 64.46 106.45 63.72C107.4 63.44 108.35 63.17 109.52 62.82C112.1 61.45 114.84 60.28 117.23 58.63C119.18 57.28 120.73 55.34 122.65 53.6C123.58 52.17 124.51 50.75 125.54 49.13C126.02 46.92 126.8 44.72 126.9 42.5C127.14 37.34 125.11 32.8 122.27 28.62C121.48 27.46 120.33 26.54 119.34 25.52C119.34 25.52 119.36 25.52 119.4 25.3C118.87 24.86 118.35 24.42 117.82 23.99C117.82 23.99 117.84 23.99 117.8 23.83C117.7 23.8 117.6 23.74 117.51 23.71Z" fill="#0A0E0C"/>
<path d="M119.46 131.69C118.75 130.67 119.02 130 119.96 129.38C124.98 126.07 128.06 121.37 129.7 115.63C131.61 108.94 133.54 102.25 135.55 95.59C136.53 92.34 137.82 89.17 138.78 85.91C141.06 78.12 141.81 70.23 139.44 62.32C138.63 59.62 137.26 57.08 136.23 54.44C135.99 53.83 136.11 53.07 136.23 52.27C137.41 51.87 137.84 52.5 138.28 53.26C143.07 61.5 144.08 70.4 142.63 79.63C142.04 83.37 140.94 87.03 140.05 90.85C140.79 90.85 141.64 90.79 142.48 90.86C146.41 91.19 149.16 93.12 150.86 96.74C154.24 103.94 148.85 114.53 140.78 116.87C137.94 117.7 135.08 117.74 132.18 117.43C131.87 117.79 131.42 118.1 131.29 118.52C129.58 123.77 126.31 127.84 121.86 131C121.23 131.45 120.33 131.51 119.46 131.69ZM146.23 110.43C146.23 110.43 146.23 110.46 146.42 110.37C148.7 107.52 149.86 104.31 149.58 100.64C149.21 95.83 146.08 92.96 141.26 92.99C138.73 93.01 138.59 93.13 137.99 95.84C137.86 96.46 137.73 97.08 137.61 97.68C139.34 97.94 140.95 98.18 142.76 98.53C143.78 99.07 144.85 99.55 145.82 100.18C146.83 100.84 147.01 101.66 145.68 102.44C145.14 102.17 144.6 101.93 144.08 101.64C141.87 100.39 139.55 99.81 136.61 100.21C137.41 100.94 137.93 101.38 138.41 101.86C141.06 104.52 140.9 108.86 137.98 111.12C137.56 111.45 136.74 111.27 136.11 111.32C136.22 110.75 136.28 110.16 136.48 109.62C136.59 109.32 136.97 109.12 137.19 108.84C138.7 106.91 138.26 104.3 136.08 103.01C134.92 107.04 133.78 111.04 132.63 115.03C137.58 116.23 143.29 114.38 146.25 110.56C146.24 110.58 146.26 110.43 146.23 110.43Z" fill="#0A0F0C"/>
<path d="M88.5099 194.7C81.8599 195.5 75.3499 194.68 68.9299 192.95C68.0099 192.7 67.0999 192.39 66.0299 192.06C66.4699 190.22 66.7899 188.43 67.3099 186.71C69.1799 180.55 71.1299 174.42 72.9899 168.26C73.1399 167.75 73.0399 167.09 72.8699 166.56C72.1699 164.45 71.4299 162.36 70.6099 160.3C70.4199 159.82 69.8399 159.49 69.4499 159.09C69.2199 159.63 68.8399 160.16 68.7999 160.72C68.7599 161.35 69.0299 162.01 69.0499 162.79C67.2099 164.58 65.4899 166.23 63.7699 167.89C60.3499 166.88 57.8799 164.58 55.7599 161.86C55.5699 161.61 55.5699 160.94 55.7699 160.7C60.1899 155.11 64.7299 149.63 70.5199 145.36C71.0799 144.94 71.7699 144.7 72.5099 144.48C73.5299 146.1 74.3699 147.66 75.3699 149.11C77.1799 151.72 79.0899 154.27 80.9299 156.95C80.0399 159.03 80.1299 159.32 82.2099 161.52C82.0499 166.63 81.8599 171.61 81.8299 176.59C81.8099 180.77 81.2799 179.95 85.7399 180.15C87.1399 180.21 87.3699 179.6 87.3799 178.34C87.3999 172.19 87.5199 166.05 87.6499 159.9C87.6599 159.35 87.8699 158.67 88.2499 158.29C90.8599 155.66 93.6499 153.2 96.1699 150.48C97.7999 148.72 99.0699 146.64 100.51 144.7C102.4 145.74 104.65 146.42 106.11 147.88C110.3 152.08 114.15 156.61 118.16 160.98C118.8 161.68 118.74 162.17 118.16 162.92C114.16 168.01 108.76 169.96 102.5 169.99C102.1 169.99 101.47 169.45 101.34 169.04C100.34 165.79 99.4399 162.51 98.5099 159.24C98.4099 158.9 98.4099 158.46 98.1899 158.24C97.8499 157.91 97.3499 157.73 96.9299 157.48C96.7499 157.94 96.3399 158.46 96.4399 158.86C97.1399 161.67 97.9399 164.45 98.6099 167.44C98.0399 171.89 97.6499 176.15 97.0799 180.39C96.5199 184.52 95.0699 188.33 92.2099 191.45C91.0699 192.64 89.7299 193.62 88.5099 194.7Z" fill="#F1E8DC"/>
<path d="M55.4399 197.96C54.7399 198.24 53.7399 198.74 53.5499 198.53C52.9799 197.89 52.7399 196.96 52.4399 196.31C51.6399 196.3 50.4698 196.56 49.6498 196.14C49.2698 195.94 49.5799 194.4 49.5799 193.37C49.7199 193.36 49.4799 193.44 49.2999 193.38C48.6399 193.14 47.6398 192.99 47.4598 192.54C47.2598 192.03 47.5998 190.92 48.0698 190.61C49.0098 189.99 48.9898 189.23 49.1098 188.31C49.3498 186.56 49.5699 184.74 50.2299 183.13C52.4999 177.59 54.9499 172.13 57.4099 166.47C60.7699 169.15 64.6799 170.66 69.1299 171.23C67.8099 174.59 66.5098 177.83 65.2598 181.09C63.8998 184.64 62.5698 188.21 61.2598 191.78C61.1598 192.06 61.2699 192.43 61.3299 192.74C61.4299 193.23 61.7699 193.76 61.6599 194.18C61.4599 194.91 61.1399 195.75 60.5799 196.18C60.2499 196.43 59.3798 195.98 58.5098 195.79C57.8798 196.61 55.9099 196.1 55.4399 197.96Z" fill="#9CC97C"/>
<path d="M125.12 194.07C125.04 196.06 124.25 196.31 121.76 195.09C121.76 195.32 121.74 195.51 121.76 195.71C121.87 196.7 121.7 197.63 120.65 197.95C119.56 198.28 119.04 197.48 118.51 196.66C118.25 196.26 117.73 196 117.29 195.77C116.71 195.47 116.08 195.27 115.51 195.3C114.7 195.34 113.68 195.71 113.12 195.36C112.06 194.7 112.21 193.47 112.5 192.32C112.63 191.81 112.62 191.18 112.43 190.7C109.92 184.43 107.37 178.19 104.77 171.79C108.46 171.39 111.97 170.5 115.18 168.47C114.51 169.5 113.71 170.44 112.9 171.39C114.1 171 115.37 170.6 116.83 170.13C116.76 171.87 114.36 173.44 117.01 174.67C117.19 174.36 117.37 174.06 117.54 173.77C117.71 173.8 117.88 173.84 118.04 173.87C117.98 174.82 118.07 175.82 117.81 176.72C117.49 177.84 117.37 178.74 118.37 179.59C118.8 179.96 119.36 180.71 119.24 181.09C118.83 182.38 119.75 183 120.23 183.9C120.78 184.94 121.09 186.11 121.48 187.24C121.99 188.72 121.15 190.44 122.34 191.84C122.59 192.14 122.38 192.82 122.4 193.33C122.42 193.81 122.48 194.29 122.54 195.07C123.56 194.67 124.34 194.37 125.12 194.07Z" fill="#9BC97B"/>
<path d="M88.6396 194.72C89.7296 193.61 91.0697 192.63 92.1597 191.44C95.0197 188.32 96.4696 184.51 97.0296 180.38C97.5996 176.14 97.9897 171.88 98.5697 167.55C98.9397 168.29 99.2397 169.09 99.4697 169.91C99.7697 170.99 99.8996 172.18 101.5 172.08C101.69 172.07 102.02 172.41 102.09 172.64C103.9 178.87 105.69 185.11 107.47 191.35C107.48 191.39 107.44 191.44 107.36 191.7C101.32 193.17 95.1096 194.29 88.6396 194.72Z" fill="#E5D4BE"/>
<path d="M73.6997 143.87C74.2297 143.71 74.7597 143.53 75.2897 143.39C76.1297 143.16 76.5997 143.44 77.0997 144.24C79.1297 147.51 81.2997 150.69 83.3997 153.93C84.1997 155.17 85.0197 155.15 86.1397 154.28C89.3897 151.73 92.3697 148.93 94.7497 145.53C96.1697 143.5 96.1597 143.49 98.7697 144.15C98.6397 144.83 98.4897 145.46 98.0997 145.87C94.6397 149.57 91.2197 153.3 87.5997 156.85C86.5297 157.89 86.1097 158.9 86.1097 160.26C86.0797 165.75 86.0397 171.23 86.0097 176.72C85.9997 178.98 85.6897 179.2 83.1297 178.45C83.3197 172.75 83.5197 166.98 83.8197 161.18C85.1897 160.56 85.9597 159.6 85.7097 158.16C85.4597 156.72 84.3297 156.18 83.0097 155.98C82.6197 155.92 82.2197 155.9 81.7997 155.76C79.0797 151.71 76.3897 147.79 73.6997 143.87Z" fill="#E8E2DA"/>
<path d="M89.1299 139.83C89.5499 139.81 89.9799 139.79 90.5699 139.85C90.9099 139.88 91.0799 139.83 91.2499 139.79C91.7999 139.76 92.3499 139.73 92.9999 139.7C93.5299 141.93 94.0999 144.03 92.1599 145.92C89.8099 148.2 87.5499 150.57 84.9699 153.2C83.1399 150.42 81.6499 147.95 79.9399 145.66C78.9999 144.4 79.2099 143.15 79.4399 141.71C81.6899 141.42 83.8199 141.33 85.9199 141.01C87.0299 140.83 88.0599 140.23 89.1299 139.83Z" fill="#9CC97C"/>
<path d="M125.13 193.97C124.34 194.38 123.55 194.67 122.54 195.06C122.47 194.28 122.42 193.8 122.4 193.32C122.38 192.81 122.59 192.13 122.34 191.83C121.15 190.43 121.99 188.71 121.48 187.23C121.09 186.1 120.78 184.93 120.23 183.89C119.75 182.99 118.83 182.37 119.24 181.08C119.36 180.7 118.8 179.95 118.37 179.58C117.37 178.73 117.49 177.83 117.81 176.71C118.07 175.81 117.98 174.81 118.04 173.86C117.87 173.83 117.7 173.79 117.54 173.76C117.37 174.06 117.19 174.35 117.01 174.66C114.36 173.44 116.76 171.86 116.83 170.12C115.37 170.59 114.1 171 112.9 171.38C113.71 170.43 114.51 169.49 115.28 168.44C115.25 168.33 115.27 168.34 115.41 168.37C116.16 168.3 116.78 168.19 117.39 168.09C119.66 172.95 122.03 177.76 124.13 182.69C124.92 184.55 125.07 186.69 125.57 188.94C126.33 189.32 127.47 189.96 127.1 191.36C126.75 192.67 125.58 192.63 124.37 192.25C124.65 192.85 124.9 193.35 125.13 193.97Z" fill="#95C674"/>
<path d="M83.71 161.18C83.51 166.95 83.32 172.73 83.12 178.42C85.68 179.18 85.99 178.95 86 176.69C86.03 171.2 86.07 165.72 86.1 160.23C86.11 158.87 86.53 157.86 87.59 156.82C91.2 153.28 94.63 149.54 98.09 145.84C98.48 145.43 98.63 144.8 98.88 144.16C99.35 144.21 99.83 144.36 100.39 144.6C99.04 146.62 97.76 148.71 96.13 150.46C93.61 153.17 90.83 155.64 88.21 158.27C87.84 158.64 87.63 159.33 87.61 159.88C87.48 166.03 87.37 172.17 87.34 178.32C87.33 179.58 87.11 180.2 85.7 180.13C81.24 179.93 81.77 180.74 81.79 176.57C81.82 171.59 82.01 166.62 82.27 161.51C82.86 161.31 83.29 161.25 83.71 161.18Z" fill="#7696B2"/>
<path d="M63.8398 167.96C65.4898 166.23 67.2099 164.57 69.0499 162.91C69.7499 164.24 70.3298 165.58 70.8998 166.92C71.4698 168.26 70.6098 169.53 69.1998 169.28C67.4098 168.97 65.6698 168.46 63.8398 167.96Z" fill="#E5D4BE"/>
<path d="M73.5898 143.87C76.3898 147.78 79.0798 151.71 81.7598 155.82C81.4798 156.28 81.2098 156.55 80.9398 156.82C79.0698 154.25 77.1599 151.7 75.3499 149.09C74.3399 147.64 73.4998 146.07 72.5898 144.45C72.8898 144.19 73.1898 144.04 73.5898 143.87Z" fill="#7696B2"/>
<path d="M88.9898 139.8C88.0598 140.23 87.0298 140.83 85.9198 141C83.8298 141.32 81.6898 141.41 79.4598 141.58C79.2398 140.98 79.1398 140.4 79.0298 139.78C82.3998 139.77 85.6198 139.77 88.9898 139.8Z" fill="#89C060"/>
<path d="M117.36 167.96C116.78 168.18 116.17 168.29 115.42 168.36C115.79 167.88 116.3 167.43 116.92 166.88C117.1 167.32 117.21 167.58 117.36 167.96Z" fill="#9BC97B"/>
<path d="M91.1497 139.76C91.0797 139.83 90.9097 139.87 90.6997 139.86C90.7897 139.78 90.9197 139.76 91.1497 139.76Z" fill="#89C060"/>
<path d="M49.14 48.11C45.31 38.62 45.42 29.34 50.92 20.5C54.04 15.49 58.86 12.55 64.39 10.82C75.41 7.34998 85.17 9.45999 93.41 17.72C94.61 18.93 95.5499 20.4 96.6699 21.94C97.4599 23.69 98.2499 25.22 98.8999 26.8C101.11 32.14 101.98 37.61 99.96 43.21C98.14 48.26 95.11 52.45 91 55.95C86.33 59.93 81.15 62.82 75.19 64.31C74.72 64.43 74.3 64.72 73.86 64.93C69.85 64.29 66.1 62.82 62.68 60.73C61.49 60 60.81 58.37 60.03 57.08C57.65 53.15 56.0699 48.93 56.1999 44.27C56.3199 39.91 57.85 36.02 60.88 32.83C63.35 30.22 66.7299 29.62 69.7899 31.1C73.1699 32.73 75.4699 36.53 75.0599 39.81C75.0199 40.16 74.78 40.5 74.8 40.83C74.84 41.39 75.01 41.93 75.13 42.48C75.63 42.18 76.14 41.9 76.61 41.57C76.75 41.47 76.7999 41.23 77.0599 40.94C80.9099 36.62 79.71 29.83 75.41 26.47C68.01 20.67 58.84 23.55 54.0599 30.46C50.7399 35.26 49.27 40.7 49.41 46.55C49.41 47.06 49.23 47.59 49.14 48.11Z" fill="#6A9558"/>
<path d="M98.5799 21.58C99.3099 21.4 100.03 21.22 100.9 21.14C101.25 21.37 101.45 21.53 101.67 21.62C105.47 23.09 108.59 25.53 110.88 28.84C114.46 34 114.55 39.91 113.69 45.8C112.9 51.21 110.93 56.26 107.83 60.83C107.21 61.74 106.74 62.74 106.2 63.7C103.49 64.47 100.82 65.47 98.0499 65.96C91.2999 67.17 84.5099 67.12 77.6899 65.79C81.6299 64.33 85.3699 62.53 88.8299 60.08C94.4899 56.07 99.0499 51.18 101.51 44.61C103.25 39.98 103.43 35.18 102.03 30.45C101.14 27.41 99.7499 24.53 98.5799 21.58Z" fill="#6A9558"/>
<path d="M104.13 20.4C105.73 20.41 107.32 20.42 109.09 20.55C109.79 20.98 110.31 21.29 110.83 21.6C114.33 23.7 117.59 26.05 119.88 29.54C123.04 34.35 124.29 39.6 123.64 45.29C123.32 48.09 122.85 50.88 122.45 53.67C120.73 55.35 119.18 57.29 117.23 58.64C114.84 60.3 112.11 61.46 109.35 62.79C109.35 62.29 109.45 61.78 109.71 61.37C114.6 53.78 116.83 45.56 115.7 36.51C115.18 32.31 113.77 28.5 110.64 25.58C108.61 23.7 106.31 22.12 104.13 20.4Z" fill="#6A9458"/>
<path d="M57.6296 57.34C55.2096 55.86 53.1096 54.06 51.7996 51.25C51.7296 48.05 51.2596 45.04 51.6496 42.13C52.3796 36.59 54.3696 31.49 59.0796 28C64.3696 24.08 70.7596 24.5 75.0396 28.73C77.4696 31.14 78.1496 34.57 76.8896 36.88C75.9796 33.84 74.2097 31.39 71.4897 29.78C66.4197 26.79 60.8196 28.5 57.5096 33.79C53.3496 40.44 53.3696 47.27 56.3796 54.29C56.7796 55.22 57.2396 56.13 57.6696 57.17C57.6596 57.31 57.6296 57.34 57.6296 57.34Z" fill="#698F58"/>
<path d="M98.4697 21.58C99.7597 24.53 101.15 27.41 102.05 30.44C103.45 35.16 103.27 39.97 101.53 44.6C99.0697 51.17 94.5097 56.06 88.8497 60.07C85.3897 62.52 81.6497 64.33 77.5797 65.75C76.3497 65.59 75.1797 65.35 73.9297 65.02C74.2997 64.72 74.7197 64.43 75.1797 64.31C81.1397 62.82 86.3197 59.93 90.9897 55.95C95.0997 52.45 98.1297 48.26 99.9497 43.21C101.97 37.61 101.1 32.14 98.8897 26.8C98.2397 25.22 97.4497 23.69 96.7197 22.02C97.2597 21.81 97.8097 21.7 98.4697 21.58Z" fill="#405D35"/>
<path d="M76.8799 37.01C78.1399 34.58 77.4499 31.15 75.0199 28.74C70.7499 24.5 64.3499 24.09 59.0599 28.01C54.3499 31.5 52.3699 36.61 51.6299 42.14C51.2499 45.04 51.7099 48.06 51.7499 51.15C50.8599 50.29 50.0199 49.31 49.1499 48.22C49.2199 47.59 49.3999 47.06 49.3899 46.54C49.2499 40.68 50.7199 35.25 54.0399 30.45C58.8199 23.54 67.9799 20.67 75.3899 26.46C79.6899 29.83 80.8899 36.62 77.1099 40.85C76.9799 39.64 76.9299 38.39 76.8799 37.01Z" fill="#36512D"/>
<path d="M104 20.38C106.31 22.12 108.61 23.7 110.64 25.58C113.77 28.5 115.18 32.31 115.7 36.51C116.83 45.56 114.6 53.78 109.71 61.37C109.45 61.77 109.35 62.28 109.24 62.82C108.35 63.17 107.4 63.45 106.33 63.71C106.75 62.74 107.22 61.73 107.84 60.83C110.94 56.26 112.92 51.21 113.7 45.8C114.56 39.91 114.47 34 110.89 28.84C108.59 25.53 105.48 23.1 101.68 21.62C101.46 21.53 101.26 21.37 101.02 21.15C101.95 20.82 102.91 20.59 104 20.38Z" fill="#405D35"/>
<path d="M122.55 53.64C122.85 50.87 123.33 48.09 123.65 45.28C124.3 39.59 123.04 34.34 119.89 29.53C117.6 26.04 114.34 23.69 110.84 21.59C110.32 21.28 109.8 20.97 109.24 20.58C112.12 20.55 114.64 21.81 117.12 23.36C117.27 23.56 117.41 23.63 117.55 23.7C117.55 23.7 117.53 23.7 117.56 23.77C117.68 23.89 117.76 23.95 117.85 24.01C117.85 24.01 117.83 24.01 117.84 24.11C118.36 24.65 118.87 25.09 119.38 25.53C119.38 25.53 119.36 25.53 119.37 25.64C119.44 25.88 119.48 26.04 119.57 26.15C124.74 32.09 126.43 39.03 125.5 46.74C125.4 47.6 125.46 48.48 125.45 49.34C124.51 50.76 123.58 52.19 122.55 53.64Z" fill="#36512D"/>
<path d="M125.49 49.24C125.45 48.47 125.38 47.59 125.48 46.73C126.42 39.02 124.72 32.09 119.55 26.14C119.46 26.03 119.42 25.87 119.35 25.63C120.33 26.55 121.48 27.47 122.27 28.63C125.12 32.8 127.14 37.35 126.9 42.51C126.81 44.74 126.02 46.94 125.49 49.24Z" fill="#648059"/>
<path d="M119.38 25.43C118.85 25.09 118.34 24.65 117.83 24.1C118.35 24.44 118.87 24.88 119.38 25.43Z" fill="#648059"/>
<path d="M117.5 23.64C117.4 23.64 117.26 23.57 117.17 23.45C117.29 23.46 117.38 23.51 117.5 23.64Z" fill="#648059"/>
<path d="M56.1798 59.01C56.0598 59.02 55.9098 58.96 55.8198 58.85C55.9598 58.85 56.0498 58.89 56.1798 59.01Z" fill="#9ECA7B"/>
<path d="M57.6797 57.29C57.7597 57.33 57.8197 57.39 57.8897 57.44C57.8197 57.45 57.7397 57.46 57.6497 57.4C57.6297 57.34 57.6597 57.31 57.6797 57.29Z" fill="#698F58"/>
<path d="M45.9297 26.59C45.8697 26.53 45.8797 26.41 45.9597 26.23C46.0097 26.28 45.9997 26.41 45.9297 26.59Z" fill="#92D0D2"/>
<path d="M117.81 23.93C117.74 23.95 117.65 23.9 117.53 23.76C117.6 23.74 117.7 23.8 117.81 23.93Z" fill="#648059"/>
<path d="M57.0499 64.68C57.1899 64.67 57.3399 64.67 57.6099 64.72C57.7399 64.79 57.8499 64.82 57.8499 64.82L57.9499 64.75C58.2999 64.77 58.6499 64.8 59.1799 64.96C59.8599 65.13 60.3599 65.16 60.8599 65.19C61.4899 65.43 62.1099 65.67 62.8499 66.08C63.0899 66.3 63.2199 66.35 63.3399 66.4C64.0699 66.95 64.7999 67.51 65.5699 68.26C65.7299 68.59 65.8499 68.72 65.9699 68.86C65.9699 68.86 65.9299 68.87 65.9499 68.93C66.0399 69.06 66.1199 69.13 66.1899 69.2C66.3299 69.57 66.4699 69.95 66.5699 70.56C66.4399 71.51 66.3499 72.22 66.2599 72.93C66.2599 72.93 66.2499 72.9 66.1799 72.93C66.0699 73.07 66.0299 73.17 65.9899 73.28C65.9899 73.28 65.9799 73.23 65.9099 73.25C65.7599 73.42 65.6799 73.57 65.5999 73.72C65.5999 73.72 65.5599 73.81 65.4099 73.83C65.1699 73.95 65.0699 74.04 64.9799 74.13C64.7899 74.23 64.5899 74.34 64.1699 74.42C62.7699 74.46 61.5999 74.53 60.4399 74.59C59.9999 74.54 59.5499 74.48 58.8899 74.38C57.8899 74.12 57.0999 73.92 56.1099 73.66C56.3699 74.7 56.5399 75.43 56.7799 76.24C56.9699 76.38 57.0999 76.44 57.3299 76.47C57.8199 76.74 58.2199 77.03 58.6499 77.42C58.8499 77.6 59.0299 77.68 59.2999 77.8C59.8399 78.31 60.2999 78.78 60.7499 79.34C60.9299 79.59 61.1099 79.74 61.3599 79.94C61.5099 80.2 61.5899 80.41 61.6999 80.72C61.8499 80.91 61.9699 80.99 62.1699 81.13C62.5799 81.91 62.9199 82.62 63.2299 83.45C63.3999 83.76 63.5799 83.96 63.8299 84.25C64.4799 86.92 65.0699 89.51 65.6599 92.09C65.6499 93.02 65.6499 93.95 65.6199 95.14C65.5899 95.82 65.5899 96.24 65.5799 96.66C65.4299 97.23 65.2199 97.8 65.1499 98.38C64.8899 100.49 63.8899 102.31 62.8299 104.3C61.0899 106.64 59.2399 108.56 56.4399 109.21C53.4499 109.77 50.5699 109.54 47.7799 107.93C45.2099 106.21 43.4099 103.95 41.9199 101.16C41.5299 100.29 41.2299 99.6 40.9299 98.91C40.9299 98.91 40.9899 98.89 40.9899 98.75C40.8599 98.45 40.7199 98.29 40.5899 98.13C40.5899 98.13 40.5899 98.01 40.6199 97.82C39.5699 92.77 38.9499 87.9 40.6399 82.96C41.0099 82.13 41.3099 81.36 41.6899 80.54C43.0799 79.16 44.3699 77.82 45.7499 76.46C45.9099 76.36 45.9899 76.27 46.1099 76.16C46.1499 76.14 46.2299 76.16 46.3299 76.14C46.4999 76.02 46.5799 75.92 46.7199 75.76C46.9999 75.65 47.2299 75.6 47.5399 75.54C47.7199 75.45 47.8099 75.37 47.9999 75.26C48.3799 75.22 48.6599 75.22 49.0899 75.24C49.9099 75.09 50.5799 74.92 51.3699 74.73C51.9199 74.39 52.3699 74.08 52.9099 73.71C54.1199 72.66 53.0699 72.73 52.3599 72.56C51.6399 72.3 51.0399 72.06 50.3299 71.76C49.7699 71.55 49.3099 71.39 48.8299 71.16C48.6199 71.05 48.4199 71.02 48.1099 71C47.4699 70.76 46.9399 70.53 46.3899 70.19C45.9699 69.89 45.5699 69.69 45.1699 69.49C45.1699 69.49 45.1699 69.49 45.1599 69.39C44.9699 69.15 44.7899 69.01 44.5199 68.85C44.3899 68.83 44.3299 68.81 44.2799 68.8C44.2999 68.67 44.3099 68.53 44.3999 68.25C44.3099 67.95 44.1599 67.8 43.9999 67.65C43.9899 67.59 43.9799 67.54 44.0699 67.32C44.1899 66.87 44.1999 66.59 44.2099 66.3C44.2099 66.3 44.1699 66.21 44.2899 66.12C44.5299 65.73 44.6699 65.42 44.7999 65.12C44.7999 65.12 44.8099 65.16 44.8799 65.14C44.9999 65.02 45.0599 64.92 45.1099 64.82C45.1099 64.82 45.1599 64.85 45.2399 64.86C45.4799 64.75 45.6399 64.64 45.7999 64.52C45.7999 64.52 45.8699 64.5 46.0199 64.54C46.6499 64.47 47.1199 64.36 47.5999 64.26C48.2299 64.19 48.8699 64.13 49.6199 64.03C50.3799 64.1 51.0099 64.2 51.8499 64.4C52.7999 64.47 53.5499 64.43 54.2999 64.4C54.7499 64.42 55.2099 64.44 55.8099 64.6C56.3199 64.73 56.6799 64.71 57.0499 64.68ZM54.0699 71.6C54.9499 71.81 55.8299 72.04 56.7199 72.23C58.9799 72.71 61.1999 73.59 63.5799 72.88C65.3999 72.34 65.9799 70.47 64.6899 69.08C64.0799 68.42 63.2799 67.94 62.5299 67.16C62.2899 67.04 62.0499 66.93 61.5599 66.81C60.0999 66.62 58.6499 66.32 57.1799 66.26C53.8399 66.12 50.4999 66.03 47.1599 66.07C46.5899 66.08 46.0399 66.84 45.4799 67.26C45.9899 67.81 46.3899 68.59 47.0199 68.86C49.0999 69.78 51.2699 70.51 53.4999 71.48C53.5999 71.52 53.7099 71.56 54.0699 71.6ZM48.9399 106.23C53.9799 108.85 58.9899 107.33 61.5899 102.31C62.2199 101.1 62.6699 99.79 63.0499 98.47C65.0099 91.6 62.3899 83.79 56.9499 80.15C52.5699 77.22 47.3299 78.28 44.4199 82.68C42.9199 84.95 42.1499 87.48 42.0399 90.15C41.7699 96.5 43.2299 102.17 48.9399 106.23Z" fill="#0C0D0C"/>
<path d="M47.46 64.26C47.11 64.39 46.63 64.49 46.02 64.59C46.37 64.47 46.85 64.36 47.46 64.26Z" fill="#10100C"/>
<path d="M44.6901 65.18C44.6501 65.44 44.5201 65.74 44.3101 66.1C44.3401 65.84 44.4701 65.53 44.6901 65.18Z" fill="#10100C"/>
<path d="M44.14 66.4C44.19 66.6 44.17 66.89 44.09 67.26C44.02 67.34 43.99 67.2 43.96 67.13C43.98 66.87 44.03 66.68 44.14 66.4Z" fill="#10100C"/>
<path d="M45.6799 64.54C45.6199 64.66 45.4599 64.77 45.1899 64.87C45.2499 64.75 45.4199 64.64 45.6799 64.54Z" fill="#10100C"/>
<path d="M45.0101 64.86C45.0401 64.94 44.9901 65.04 44.8401 65.16C44.8101 65.07 44.8701 64.97 45.0101 64.86Z" fill="#10100C"/>
<path d="M45.8396 23.8C45.9696 23.79 46.0696 23.84 46.1796 23.89C46.0996 23.93 46.0296 23.96 45.8896 24C45.8196 24 45.8196 23.86 45.8396 23.8Z" fill="#92D0D2"/>
<path d="M109.65 83.35C110.45 82.92 110.99 81.71 112.29 82.67C112.63 83.31 112.88 83.79 113.14 84.39C113.33 84.99 113.42 85.81 113.72 85.88C116.79 86.69 119.18 88.55 121.49 90.59C121.49 90.58 121.48 90.59 121.48 90.68C121.65 90.96 121.82 91.14 122.03 91.41C122.91 93.44 124.01 95.31 124.51 97.33C125.68 102.07 124.4 106.46 122.01 110.59C119.85 113.51 117.27 115.95 113.83 117.67C113.64 117.79 113.6 117.82 113.45 117.84C112.78 118.09 112.22 118.34 111.65 118.59C111.65 118.58 111.63 118.58 111.51 118.58C108.92 118.81 106.46 119.19 104 119.2C102.52 119.21 101.03 118.64 99.5499 118.32C99.5499 118.32 99.4999 118.36 99.4899 118.26C99.2899 118.11 99.1099 118.06 98.9299 118.01C98.7899 117.92 98.6599 117.84 98.3799 117.65C97.8599 117.38 97.4899 117.22 97.1099 117.05C96.9599 116.89 96.7999 116.73 96.5599 116.54C96.4699 116.52 96.4899 116.52 96.4399 116.43C96.1199 116.16 95.8399 115.99 95.5799 115.71C93.2999 113.29 91.7899 110.52 90.9599 107.28C90.9099 106.92 90.8399 106.65 90.7899 106.26C90.7399 105.23 90.6699 104.33 90.6099 103.43C91.1599 101.08 91.7099 98.72 92.3599 96.2C92.4999 95.88 92.5299 95.72 92.5699 95.56C92.5699 95.56 92.5799 95.54 92.6599 95.47C95.6799 90.07 100.11 86.69 106.09 85.58C107.7 85.26 108.95 84.89 109.65 83.35ZM121.19 97.8C120.13 96.15 119.35 94.21 117.97 92.88C111.64 86.77 101.13 87.82 95.7599 94.93C91.4399 100.65 91.7399 108.86 96.4299 113.41C101.3 118.13 108.42 118.68 114.7 114.82C120.4 111.34 123.16 104.27 121.19 97.8Z" fill="#0C0C0C"/>
<path d="M115.25 73.8C115.38 73.8 115.44 73.86 115.57 73.93C116.7 74.29 117.7 74.59 118.7 74.89C118.82 74.96 118.94 75.03 119.18 75.16C119.46 75.26 119.62 75.31 119.82 75.42C119.98 75.54 120.09 75.59 120.25 75.73C121.48 76.82 121.92 78.04 121.41 79.55C120.6 80.97 119.16 81.36 117.75 81.36C112.89 81.36 108.03 81.3 103.17 81.04C100.99 80.93 98.89 80.17 97.4 78.35C95.63 76.18 96.14 73.33 98.73 72.36C100.33 71.76 102.22 71.43 103.89 71.65C107.67 72.13 111.39 73.05 115.25 73.8ZM110.32 74.39C108.28 73.99 106.26 73.45 104.21 73.25C102.79 73.11 101.25 73.25 99.89 73.67C99.14 73.9 98.25 74.89 98.13 75.65C98.02 76.33 98.67 77.52 99.32 77.86C100.76 78.63 102.39 79.42 103.97 79.49C108.72 79.69 113.48 79.55 118.23 79.54C118.38 79.54 118.57 79.57 118.68 79.5C119.11 79.21 119.71 78.95 119.87 78.54C119.99 78.22 119.63 77.6 119.32 77.27C118.99 76.92 118.49 76.67 118.02 76.54C115.54 75.81 113.06 75.13 110.32 74.39Z" fill="#0C0E0B"/>
<path d="M80.91 156.94C81.21 156.56 81.48 156.29 81.78 155.93C82.21 155.88 82.61 155.9 83 155.96C84.32 156.16 85.45 156.7 85.7 158.14C85.95 159.58 85.18 160.54 83.81 161.16C83.28 161.25 82.86 161.32 82.33 161.38C80.11 159.31 80.02 159.02 80.91 156.94ZM82.17 157.23C81.13 158.57 81.36 159.99 82.7 160.12C83.25 160.17 84.02 159.88 84.36 159.47C84.65 159.12 84.71 158.09 84.45 157.88C83.92 157.44 83.1 157.36 82.17 157.23Z" fill="#5C7991"/>
<path d="M71.1098 113.56C70.8798 112.03 71.5598 111.04 72.7798 110.42C74.5798 109.51 76.3998 109.49 78.0598 110.72C79.1698 111.54 79.8198 112.66 79.2898 114.24C79.1698 114.35 79.0998 114.39 78.9198 114.56C78.6098 114.42 78.3298 114.22 78.2598 113.96C77.6398 111.77 75.4198 110.81 73.4598 112.02C72.7698 112.45 72.2898 113.23 71.7098 113.85C71.5198 113.78 71.3398 113.71 71.1098 113.56Z" fill="#10100C"/>
<path d="M97.1099 117.15C97.4799 117.2 97.8599 117.36 98.2899 117.62C97.9299 117.56 97.5199 117.42 97.1099 117.15Z" fill="#99B273"/>
<path d="M98.96 118.08C99.1 118.04 99.28 118.09 99.5 118.23C99.36 118.26 99.18 118.21 98.96 118.08Z" fill="#99B273"/>
<path d="M40.5996 98.26C40.7296 98.31 40.8596 98.47 40.9996 98.73C40.8696 98.68 40.7296 98.53 40.5996 98.26Z" fill="#99B273"/>
<path d="M43.9697 67.77C44.1397 67.82 44.2897 67.97 44.3997 68.17C44.2197 68.11 44.0897 67.99 43.9697 67.77Z" fill="#10100C"/>
<path d="M60.5698 74.64C61.5998 74.54 62.7698 74.47 64.0798 74.42C63.0598 74.51 61.8898 74.59 60.5698 74.64Z" fill="#10100C"/>
<path d="M66.3599 72.86C66.3699 72.21 66.4599 71.5 66.5699 70.66C66.5399 71.28 66.4899 72.04 66.3599 72.86Z" fill="#10100C"/>
<path d="M54.1597 64.38C53.5397 64.45 52.7997 64.48 51.9697 64.43C52.5997 64.35 53.3097 64.35 54.1597 64.38Z" fill="#10100C"/>
<path d="M65.6697 96.6C65.5897 96.24 65.5997 95.82 65.6397 95.28C65.6997 95.62 65.7197 96.08 65.6697 96.6Z" fill="#999F72"/>
<path d="M60.7698 65.12C60.3698 65.17 59.8598 65.13 59.2798 65.01C59.6898 64.96 60.1798 65 60.7698 65.12Z" fill="#10100C"/>
<path d="M56.9299 64.64C56.6799 64.7 56.3199 64.73 55.8999 64.67C56.1699 64.59 56.4899 64.59 56.9299 64.64Z" fill="#10100C"/>
<path d="M65.9799 68.77C65.8699 68.73 65.7499 68.59 65.6299 68.36C65.7299 68.4 65.8499 68.54 65.9799 68.77Z" fill="#10100C"/>
<path d="M65.6899 73.69C65.6899 73.57 65.7699 73.42 65.9399 73.26C65.9399 73.39 65.8599 73.52 65.6899 73.69Z" fill="#10100C"/>
<path d="M92.4698 95.58C92.5198 95.7 92.4898 95.86 92.3998 96.08C92.3598 95.96 92.3698 95.79 92.4698 95.58Z" fill="#8E5844"/>
<path d="M63.2997 66.32C63.2297 66.35 63.0997 66.3 62.9297 66.16C63.0097 66.13 63.1297 66.18 63.2997 66.32Z" fill="#10100C"/>
<path d="M66.1997 69.12C66.1297 69.13 66.0597 69.06 65.9697 68.91C66.0397 68.9 66.1197 68.97 66.1997 69.12Z" fill="#10100C"/>
<path d="M57.8899 64.72C57.9499 64.76 57.8499 64.83 57.8499 64.83C57.8499 64.83 57.7299 64.8 57.7099 64.76C57.6899 64.72 57.8299 64.68 57.8899 64.72Z" fill="#10100C"/>
<path d="M66.0798 73.24C66.0398 73.17 66.0798 73.06 66.2098 72.93C66.2498 73.01 66.1998 73.11 66.0798 73.24Z" fill="#10100C"/>
<path d="M65.09 74.12C65.08 74.04 65.18 73.95 65.37 73.84C65.38 73.91 65.28 74.01 65.09 74.12Z" fill="#10100C"/>
<path d="M48.8398 106.17C43.2298 102.17 41.7698 96.49 42.0398 90.15C42.1498 87.48 42.9198 84.95 44.4198 82.68C47.3298 78.28 52.5698 77.22 56.9498 80.15C62.3898 83.79 65.0198 91.6 63.0498 98.47C62.6798 99.78 62.2198 101.1 61.5898 102.31C58.9898 107.33 53.9698 108.85 48.8398 106.17Z" fill="#FDFDFD"/>
<path d="M62.56 67.38C63.27 67.94 64.07 68.43 64.68 69.08C65.98 70.47 65.4 72.34 63.57 72.88C61.2 73.59 58.97 72.71 56.71 72.23C55.82 72.04 54.95 71.81 53.88 71.53C53.59 71.41 53.49 71.37 53.38 71.32C51.25 70.51 49.08 69.78 47 68.86C46.37 68.58 45.97 67.81 45.46 67.26C46.02 66.85 46.58 66.08 47.14 66.07C50.48 66.03 53.82 66.12 57.16 66.26C58.62 66.32 60.08 66.62 61.71 66.9C62.12 67.12 62.34 67.25 62.56 67.38Z" fill="#625442"/>
<path d="M49.0801 75.26C49.6301 75.07 50.3101 74.89 51.1201 74.75C50.5801 74.94 49.9001 75.11 49.0801 75.26Z" fill="#10100C"/>
<path d="M46.3699 70.21C46.0099 70.11 45.6099 69.9 45.1899 69.61C45.5499 69.71 45.9499 69.91 46.3699 70.21Z" fill="#10100C"/>
<path d="M48.82 71.18C48.66 71.24 48.48 71.21 48.25 71.1C48.41 71.04 48.6 71.07 48.82 71.18Z" fill="#10100C"/>
<path d="M62.5399 67.27C62.3399 67.25 62.1199 67.12 61.8599 66.9C62.0399 66.93 62.2799 67.04 62.5399 67.27Z" fill="#10100C"/>
<path d="M63.23 83.46C63.42 83.55 63.59 83.75 63.76 84.06C63.59 83.97 63.4 83.77 63.23 83.46Z" fill="#10100C"/>
<path d="M45.1396 69.41C44.9696 69.36 44.7896 69.21 44.5996 68.97C44.7696 69.03 44.9496 69.17 45.1396 69.41Z" fill="#10100C"/>
<path d="M60.75 79.34C60.92 79.4 61.1 79.55 61.28 79.8C61.11 79.74 60.93 79.59 60.75 79.34Z" fill="#10100C"/>
<path d="M58.6499 77.41C58.7999 77.39 58.9699 77.48 59.1799 77.66C59.0299 77.67 58.8599 77.59 58.6499 77.41Z" fill="#10100C"/>
<path d="M47.54 75.56C47.54 75.49 47.63 75.42 47.81 75.33C47.81 75.4 47.72 75.47 47.54 75.56Z" fill="#10100C"/>
<path d="M46.3299 76.17C46.3199 76.1 46.3999 76.01 46.5699 75.89C46.5799 75.95 46.4999 76.05 46.3299 76.17Z" fill="#10100C"/>
<path d="M61.6997 80.72C61.7797 80.7 61.8997 80.78 62.0497 80.97C61.9697 80.99 61.8497 80.91 61.6997 80.72Z" fill="#10100C"/>
<path d="M45.7596 76.48C45.7496 76.41 45.8296 76.33 45.9996 76.23C45.9996 76.29 45.9196 76.38 45.7596 76.48Z" fill="#10100C"/>
<path d="M56.7798 76.24C56.8598 76.2 56.9898 76.25 57.1798 76.39C57.1098 76.44 56.9698 76.38 56.7798 76.24Z" fill="#10100C"/>
<path d="M53.4399 71.4C53.4999 71.37 53.5999 71.42 53.7699 71.54C53.7099 71.56 53.5999 71.52 53.4399 71.4Z" fill="#10100C"/>
<path d="M80.5397 121.3C81.0997 121.39 81.5597 121.54 82.0197 121.7C81.8097 122.12 81.7197 122.69 81.3897 122.92C79.8297 124.04 78.2097 125.08 76.5897 126.11C75.2897 126.93 74.0497 126.77 73.0497 125.6C71.8697 124.22 70.7097 122.81 69.6597 121.33C69.4197 120.98 69.6797 120.28 69.6997 119.75C70.1897 119.95 70.8297 120.01 71.1497 120.36C72.1997 121.52 73.1397 122.77 74.0897 124.02C74.7297 124.86 75.3597 124.81 76.1597 124.24C77.5497 123.24 79.0097 122.31 80.5397 121.3Z" fill="#864C4B"/>
<path d="M121.23 97.92C123.16 104.27 120.4 111.34 114.71 114.83C108.43 118.68 101.31 118.13 96.44 113.42C91.74 108.87 91.45 100.66 95.77 94.94C101.14 87.83 111.65 86.78 117.98 92.89C119.35 94.21 120.14 96.15 121.23 97.92Z" fill="#FDFEFD"/>
<path d="M113.44 117.83C112.99 118.1 112.44 118.37 111.77 118.61C112.21 118.33 112.77 118.08 113.44 117.83Z" fill="#99B273"/>
<path d="M90.9499 107.26C90.8199 107.07 90.6999 106.78 90.6699 106.43C90.8299 106.64 90.8999 106.9 90.9499 107.26Z" fill="#9ECA7B"/>
<path d="M96.4398 116.41C96.1798 116.34 95.8698 116.19 95.5698 115.91C95.8398 115.97 96.1198 116.14 96.4398 116.41Z" fill="#98C774"/>
<path d="M121.47 90.67C121.65 90.75 121.84 90.92 122 91.2C121.81 91.13 121.64 90.95 121.47 90.67Z" fill="#8E5844"/>
<path d="M110.45 74.42C113.06 75.14 115.54 75.81 118.02 76.53C118.49 76.67 118.99 76.92 119.32 77.26C119.63 77.59 119.99 78.21 119.87 78.53C119.72 78.94 119.11 79.2 118.68 79.49C118.57 79.56 118.38 79.53 118.23 79.53C113.47 79.54 108.71 79.68 103.97 79.48C102.39 79.41 100.76 78.62 99.3199 77.85C98.6699 77.5 98.0199 76.31 98.1299 75.64C98.2599 74.88 99.1399 73.89 99.8899 73.66C101.25 73.24 102.79 73.1 104.21 73.24C106.26 73.45 108.29 73.99 110.45 74.42Z" fill="#625442"/>
<path d="M82.2898 157.18C83.0998 157.36 83.9198 157.44 84.4498 157.87C84.7098 158.08 84.6498 159.11 84.3598 159.46C84.0198 159.87 83.2498 160.16 82.6998 160.11C81.3598 159.99 81.1298 158.57 82.2898 157.18Z" fill="#E8E2DA"/>
</g>
</svg>
