<svg width="171" height="172" viewBox="0 0 171 172" fill="none" xmlns="http://www.w3.org/2000/svg">
<path opacity="0.75" d="M133.2 171.32H38.0801C20.2701 171.32 5.83008 156.88 5.83008 139.07V37.01C5.83008 19.2 20.2701 4.76001 38.0801 4.76001H133.2C151.01 4.76001 165.45 19.2 165.45 37.01V139.08C165.45 156.89 151.01 171.32 133.2 171.32Z" fill="#010202"/>
<mask id="mask0_387_2" style="mask-type:luminance" maskUnits="userSpaceOnUse" x="0" y="0" width="171" height="171">
<path d="M132.12 170.64H38.52C17.25 170.64 0 153.39 0 132.12V38.52C0 17.25 17.25 0 38.52 0H132.12C153.39 0 170.64 17.25 170.64 38.52V132.12C170.64 153.4 153.4 170.64 132.12 170.64Z" fill="white"/>
</mask>
<g mask="url(#mask0_387_2)">
<path d="M26.7204 49.85L31.0504 46.75L33.4504 46.11L39.8704 45.59L86.4204 55.02L103.61 61.48L127.85 57.14L131.85 58.41L129.24 64.71L124.94 68.51L112.86 68.95L96.1204 69.2L68.9804 60.69L40.4204 54.7L25.0104 54.48L21.9204 55.95L26.7204 49.85Z" fill="#E64C63"/>
<path d="M27.5503 48.69L141.39 51.15L138.1 86.98L134.67 108.05L130.52 118.89L122.55 126.79L114.34 130.24L100.75 133.86L82.8003 134.89L64.4503 131.7L55.1703 127.14L44.1203 120.15L36.4503 110.77L33.5303 62.05L27.5503 48.69Z" fill="#F0C0A1"/>
<path d="M107.88 102.27C112.646 102.27 116.51 98.1197 116.51 93C116.51 87.8803 112.646 83.73 107.88 83.73C103.114 83.73 99.25 87.8803 99.25 93C99.25 98.1197 103.114 102.27 107.88 102.27Z" fill="#6C2B0D"/>
<path d="M56.8004 98.01C61.5666 98.01 65.4304 93.8597 65.4304 88.74C65.4304 83.6203 61.5666 79.47 56.8004 79.47C52.0342 79.47 48.1704 83.6203 48.1704 88.74C48.1704 93.8597 52.0342 98.01 56.8004 98.01Z" fill="#6C2B0D"/>
<path d="M86.0802 212.09C86.3002 214.79 86.7402 217.5 86.6902 220.2C86.5702 225.84 86.3502 231.48 85.7802 237.08C85.6702 238.18 83.9402 239.54 82.6702 240.02C76.1102 242.53 69.3202 242.26 62.6302 240.67C57.8002 239.52 56.4802 234.79 59.5102 230.91C59.9302 230.37 59.8002 229.4 59.7502 228.44C59.5702 228.25 59.5502 228.2 59.5502 228.2C59.8502 227.24 60.3502 226.29 60.4302 225.3C60.8402 220.1 61.2302 214.89 61.4302 209.67C61.4902 208.03 60.8502 206.37 60.7102 204.7C60.6202 203.69 60.7002 202.61 60.9902 201.64C61.5502 199.74 62.3102 197.89 62.9902 196.02C62.7402 195.7 62.4902 195.37 62.2502 195.05C60.6002 195.79 58.7802 196.3 57.3302 197.32C54.8502 199.06 49.9002 196.94 47.6502 194.03C44.6302 190.13 46.3802 186.49 47.7402 183.19C52.7002 171.19 57.9302 159.29 63.4502 147.54C65.9302 142.26 70.3202 138.73 76.3202 137.61C76.9302 137.5 77.4802 137.04 79.0902 136.22C76.8902 135.71 75.7302 135.37 74.5502 135.17C62.2002 133.03 50.8002 128.72 41.5502 119.95C36.3802 115.05 32.4002 109.46 34.0902 102.07C31.1802 99.96 27.9402 98.4 25.8002 95.9C21.5402 90.91 20.5302 85 23.3502 78.84C25.0602 75.1 27.9702 72.83 32.6502 72.92C33.7102 73.77 34.3802 74.37 35.0702 75.25C35.0702 76.3 35.0602 77.06 34.7702 77.88C34.2902 79.47 34.0002 80.99 33.9902 82.52C33.9902 82.66 35.7502 82.81 36.6502 83.18C36.5302 83.69 36.4502 83.98 36.1902 84.42C36.0902 85.32 36.1802 86.07 36.2302 87C36.2802 87.42 36.3502 87.65 36.4002 88.13C36.5402 88.84 36.7002 89.3 36.8402 89.93C36.8702 90.34 36.9802 90.56 37.1202 91C37.2902 91.7 37.4702 92.15 37.6302 92.88C37.7802 94.03 37.9302 94.92 38.0302 96.08C37.9702 97.12 37.9802 97.89 37.9002 98.88C37.7702 99.75 37.7302 100.4 37.5102 101.19C37.2602 101.64 37.2002 101.95 37.0602 102.32C36.9902 102.38 37.0302 102.57 36.8502 102.75C36.6102 103.42 36.5502 103.91 36.4102 104.64C36.3702 105.2 36.4102 105.52 36.4102 106.12C36.5802 107.08 36.8002 107.76 37.0102 108.68C37.9102 110.55 38.8102 112.19 39.8002 114.02C40.1202 114.38 40.3602 114.54 40.5402 114.69C40.4802 114.68 40.4702 114.79 40.5502 115.01C42.5302 116.95 44.4302 118.68 46.4202 120.36C46.5102 120.31 46.3202 120.39 46.4002 120.58C46.8102 120.96 47.1402 121.16 47.5102 121.36C47.5602 121.36 47.6002 121.44 47.7002 121.62C48.2902 122.07 48.7802 122.33 49.4102 122.78C50.9302 123.72 52.3002 124.48 53.7802 125.46C74.0402 135.61 94.6502 136.28 115.69 128.85C116.77 128.47 121.11 125.49 122.25 125.28C121.43 126.27 122.64 127.47 121.66 127.9C116.69 130.05 106.15 133.93 100.89 135.29C99.5902 135.63 98.2702 135.92 96.8202 136.98C97.8202 137.38 98.7902 137.97 99.8302 138.15C105.93 139.21 110.44 142.61 113.17 147.98C117.66 156.8 121.85 165.77 126 174.75C127.88 178.8 129.79 182.94 130.82 187.24C131.27 189.11 129.81 191.63 128.76 193.62C127.05 196.85 121.8 197.74 118.78 195.64C118.26 195.27 117.49 195.1 116.84 195.09C113.28 195.06 112.28 193.63 111.89 190.25C111.54 187.17 110.19 184.2 109.27 181.18C108.79 181.33 108.32 181.47 107.84 181.62C108.43 184.24 108.99 186.88 109.63 189.49C110.85 194.42 112.15 199.34 113.36 204.27C113.55 205.03 113.69 205.97 113.41 206.64C111.64 210.85 112.62 215.51 115.8 218.47C116.59 219.2 117.01 220.43 117.35 221.5C118.01 223.64 118.5 225.84 119.31 228.15C119.57 228.28 119.6 228.33 119.6 228.33C119.43 230.3 119.58 232.36 119 234.2C118.42 236.05 117.52 238.61 116.06 239.25C109.32 242.2 102.23 242.69 95.0802 240.54C92.1902 239.67 90.3102 237.75 89.9102 234.75C89.7602 233.67 90.4102 232.49 90.5602 231.34C90.6902 230.36 90.6202 229.36 90.6602 227.92C90.6502 227.23 90.6102 226.98 90.5702 226.74C90.0102 223.72 89.4602 220.71 88.8302 217.19C88.6202 216.45 88.4702 216.22 88.3302 215.98C88.1602 214.58 87.9902 213.17 87.6502 211.37C87.1402 210.97 86.8102 210.95 86.4802 210.94C86.4802 210.94 86.3102 211.02 86.1502 211.23C85.9202 211.65 85.9402 211.88 86.0802 212.09ZM75.3402 145.28C75.3702 145.77 75.4102 146.25 75.3202 147.08C75.2802 147.19 75.2402 147.31 74.6102 147.37C74.1602 145.28 73.7102 143.19 73.2602 141.1C72.8802 141.07 72.5002 141.05 72.1202 141.02C71.4302 145.58 70.7402 150.14 70.0502 154.71C70.3702 154.76 70.7002 154.81 71.0202 154.86C71.4902 154.1 71.9702 153.35 72.4402 152.59C72.6302 152.67 72.8202 152.74 73.0102 152.82C72.8802 153.93 72.7502 155.04 72.5702 156.6C72.5602 156.91 72.5502 157.21 72.3402 157.84C72.3302 157.97 72.3102 158.09 72.0002 158.69C71.3902 164.39 70.7502 170.09 70.2502 175.81C70.2102 176.22 71.1402 176.71 71.5902 177.52C71.3802 177.95 71.1602 178.38 70.4802 178.96C70.6402 179.61 70.6402 180.74 70.9702 180.84C73.1102 181.53 75.3002 182.11 77.5102 182.52C86.2702 184.14 94.9702 183.15 104.21 181.88C104.84 181.63 105.46 181.38 106.22 180.67C106.28 180.36 106.35 180.04 106.55 179.54C106.57 179.28 106.44 179.11 105.91 178.83C105.6 178.71 105.28 178.58 104.49 178.36C104.08 177.94 103.67 177.53 103.8 176.92C104.27 175.92 105.22 174.87 105.12 173.94C104.81 171 104.21 168.08 103.51 165.2C103.07 163.41 102.62 161.43 101.53 160.04C99.2502 157.13 97.8302 154.09 98.0502 150.35C98.2302 147.3 98.3502 144.25 98.5002 141.03C98.0002 141.15 97.4602 141.27 96.8402 140.76C97.1202 138.43 95.6202 138.03 94.1102 137.51C93.9602 137.02 93.8302 136.1 93.6702 136.1C89.2702 136.02 84.8602 136.04 80.0802 136.04C83.0902 140.07 87.7002 140.55 93.8302 138.43C92.0302 141.12 89.1102 142.76 86.4402 141.43C83.0702 139.76 79.9802 139.75 76.2002 140.68C76.0402 141.53 75.8902 142.38 75.4502 143.54C75.3902 143.96 75.3502 144.38 75.3402 145.28ZM31.4002 88.77C31.8502 87.64 32.3102 86.5 32.8302 85.19C31.2302 85.12 29.8902 85.06 28.5402 84.48C29.8002 83.59 31.0702 82.69 32.3802 81.76C32.3802 79.67 32.3802 77.38 32.3802 75.07C25.2502 76.07 22.2602 83.39 25.6402 91.51C27.4602 95.41 30.4602 97.78 35.0102 98.88C35.0102 97.15 35.0102 95.75 34.9802 93.84C34.7802 92.59 34.5702 91.34 34.2302 89.2C33.2002 90.98 32.6102 91.98 31.6902 92.64M112.02 219.3C109.59 219.21 107.08 218.89 105.93 220.61C107.08 224.12 107.98 226.89 108.59 228.76C106.64 230.22 105.31 231.23 103.97 232.23C104.38 232.64 104.79 233.05 105.2 233.46C110.82 233.97 111 233.87 115.24 227.73C116.62 224.38 115.46 220.68 112.02 219.3ZM111.77 149.92C111.77 149.92 111.8 149.91 111.71 149.41C109.52 146.91 107.33 144.41 104.77 141.49C102.74 147.21 102.57 151.59 103.56 156.61C105.64 167.17 109.82 176.87 113.67 186.75C114.07 187.77 114.2 188.97 114.18 190.08C114.14 192.17 114.21 193.59 117.11 192.77C118.07 192.5 119.63 193.71 120.68 194.54C122.92 196.33 123.54 195.48 123.96 192.92C125.77 193.18 128.09 194.03 126.9 190.07C129.03 189.44 130.1 188.57 128.09 186.45C127.46 185.78 127.46 184.54 127.11 183.59C126.17 181.09 125.19 178.61 124.12 175.61C120.4 167.67 116.67 159.73 112.86 151.33C112.49 150.87 112.13 150.41 111.77 149.92ZM49.7902 183.54C49.4802 184.9 49.4702 186.45 48.7902 187.58C47.9702 188.94 46.9202 189.71 49.1002 190.87C49.9702 191.33 49.9702 193.28 50.8302 193.98C51.9102 194.86 53.4602 195.17 55.3302 195.94C55.5402 195.72 56.2902 194.3 56.9502 194.35C63.0502 194.74 61.9602 189.64 63.1002 186.4C65.7302 178.9 69.3802 171.67 68.9902 163.35C68.7302 157.75 68.8602 152.13 68.7902 146.53C68.7902 146.13 68.5802 145.72 68.2202 144.43C59.1802 156.48 55.5302 170.21 49.7902 183.54ZM79.5902 210.83C77.8402 210.79 75.9902 211.11 74.3802 210.64C70.8402 209.61 67.4202 208.18 63.8902 206.89C63.5402 210.28 63.1902 213.69 62.7202 218.14C70.0502 218.14 76.9902 218.14 84.1302 218.14C83.9902 215.5 83.8702 213.16 83.7402 210.55C82.4002 210.73 81.2702 210.87 79.5902 210.83ZM110.5 217.07C110.88 216.77 111.62 216.37 111.57 216.17C110.94 213.68 110.2 211.23 109.73 209.59C102.85 210.42 96.4302 211.19 89.9702 211.97C90.2302 213.31 90.6202 215.38 91.1002 217.86C97.5302 216.75 103.76 219.22 110.5 217.07ZM84.5702 224.09C83.9502 222.8 83.4602 220.53 82.6902 220.43C80.7002 220.17 78.5802 220.82 76.5502 221.26C76.2802 221.32 76.0002 222.29 76.0802 222.78C76.5202 225.49 77.0702 228.18 77.4502 230.22C75.2502 231.7 73.6802 232.77 71.6102 234.17C80.1802 234.71 84.4502 231.39 84.5702 224.09ZM97.9202 231.29C97.4102 231.92 96.8902 232.54 96.3502 233.21C100.05 234.71 101.78 233.79 103.94 228.49C101.54 229.47 99.8602 230.15 97.9202 231.29ZM67.1702 230.57C66.3102 231.47 65.4602 232.38 64.4102 233.48C68.6602 235.78 69.9602 232.28 71.9802 230C70.5202 230.08 69.0702 230.15 67.1702 230.57ZM100.23 239.21C100.94 238.62 101.65 238.04 102.37 237.45C100.89 237.07 99.4102 236.7 97.9302 236.32C97.7602 236.76 97.5902 237.19 97.4202 237.63C98.1702 238.1 98.9302 238.57 100.23 239.21ZM100.22 221.62C100.92 221.41 101.63 221.2 102.33 220.99C102.31 220.57 102.29 220.15 102.27 219.72C100.7 219.72 99.1202 219.68 97.5502 219.77C97.3502 219.78 97.1902 220.54 97.0102 220.95C97.9102 221.23 98.8102 221.5 100.22 221.62ZM93.1702 224.29C93.4402 223.8 93.8502 223.33 93.9502 222.8C94.1202 221.89 94.2302 220.91 94.0602 220.02C94.0102 219.78 92.8702 219.74 92.2402 219.61C92.1202 220.48 91.7802 221.4 91.9202 222.22C92.0702 223.1 92.6802 223.91 93.1702 224.29ZM69.9502 222.14C70.9202 222.05 71.8902 221.96 72.8602 221.86C72.9002 221.44 72.9402 221.02 72.9802 220.6C71.5502 220.41 70.1302 220.14 68.7002 220.1C68.3702 220.09 68.0102 220.89 67.6702 221.32C68.2302 221.6 68.7902 221.87 69.9502 222.14Z" fill="#171212"/>
<path d="M131.84 22.24C129.61 21.04 127.52 20.03 125.21 18.89C123.98 18.51 122.98 18.28 122 17.77C121.63 16.98 121.32 16.11 120.83 16C115.69 14.8 110.52 13.72 105.14 12.53C104.61 12.43 104.3 12.41 103.8 12.22C102.76 12.02 101.9 11.99 100.72 11.9C95.3402 11.93 90.2802 12.01 84.9102 12.11C80.3302 13.14 75.8802 13.69 71.8302 15.26C60.0702 19.82 50.9702 27.43 46.0802 39.59C46.2202 39.79 46.4602 39.88 46.9602 40.01C47.9402 39.95 48.6502 39.84 49.5702 39.81C50.0702 39.9 50.3602 39.91 50.9002 40.08C56.4902 41.36 62.0602 41.85 67.1402 43.69C82.1602 49.14 97.2702 54.07 113.28 55.82C113.28 56.46 113.27 56.89 112.98 57.37C100.05 56.19 87.7802 53.48 75.8802 48.94C69.7702 46.61 63.4802 44.57 57.1002 43.21C49.9502 41.68 42.6402 41.44 35.5002 44.86C34.1202 45.74 32.9802 46.6 31.6002 47.53C29.0302 49.38 26.6902 51.15 24.1902 53.03C23.8402 53.47 23.6602 53.79 23.2202 54.16C22.3902 55.08 21.8002 55.97 21.0602 57.08C24.3802 58.29 24.6702 56.34 25.0202 54.22C25.0702 53.84 25.0902 53.69 25.3702 53.54C26.8302 53.01 28.0402 52.48 29.5102 51.95C30.3202 51.95 39.5802 51.06 40.1202 51.23C40.1302 51.4 39.2802 52.43 39.2702 52.56C39.2602 52.69 31.3802 53.15 31.1202 53.24C25.8702 55.18 25.0202 56.33 25.1902 61.01C23.9702 60.91 22.8502 60.64 21.9102 60.41C22.7602 62.65 23.4802 64.55 24.1902 66.45C18.4602 61.55 17.9502 57.12 22.7902 51.57C24.5602 49.54 26.8302 47.95 28.8702 46.14C30.7102 44.51 32.5302 42.86 34.6302 41.39" fill="#1C1013"/>
<path d="M45.1104 32C51.2704 26.96 57.0403 21.29 63.6903 17.01C75.4603 9.45 88.8303 8.53001 102.42 9.88001C112.26 10.86 121.73 13.12 130.55 18.77C131.12 19.3 131.43 19.41 131.74 19.51C133.9 21.2 135.85 22.99 137.79 25.12C137.36 25.73 137.35 25.79 136.97 25.82" fill="#1C1013"/>
<path d="M121.48 127.95C121.56 127 121.62 125.7 122.27 125.26C127.8 121.47 130.58 115.97 132.35 109.76C133.29 106.45 134.47 103.2 135.32 99.87C135.63 98.65 136.73 96.66 133.45 96.55C132.66 96.26 132.35 96.01 132.03 95.52C131.99 94.97 131.95 94.66 132 94.13C132.27 93.28 132.44 92.65 132.75 91.55C131.45 92.17 130.62 92.56 129.58 92.93C129.54 91.97 129.72 91.03 130.06 89.99C130.35 89.53 130.48 89.18 130.79 88.68C131.1 88.1 131.24 87.66 131.55 87.04C132.34 84.7 132.95 82.56 133.73 80.22C133.95 79.54 134.01 79.05 134.15 78.4C134.24 78 134.25 77.76 134.42 77.29C134.67 76.12 134.75 75.18 134.92 74.04C135.01 73.4 135.02 72.97 135.2 72.32C135.43 71.38 135.49 70.66 135.63 69.66C135.82 67.9 135.9 65.38 136.1 63.72C136.23 63.41 136.29 64.32 136.52 64.39C137.04 66.14 137.38 67.69 137.73 69.54C137.64 70.59 137.52 71.34 137.18 72.17C136.93 73.38 136.9 74.52 136.89 75.86C136.77 76.44 136.62 76.81 136.32 77.21C136.09 77.3 136.01 77.37 135.93 77.43C136.06 77.58 136.19 77.72 136.33 78.1C136.17 78.91 136 79.49 135.61 80.11C135.45 80.59 135.51 81.02 135.57 81.66C135.4 82.22 135.23 82.58 134.9 82.95C134.66 83.03 134.58 83.09 134.5 83.16C134.62 83.31 134.74 83.46 134.88 83.81C134.74 84.36 134.59 84.72 134.18 85.16C133.27 86.67 132.61 88.08 131.84 89.74C133.3 89.64 134.14 89.58 135.14 89.52C134.5 90.83 133.99 91.87 133.21 93.46C134.48 93.59 136.04 94.05 136.22 93.73C137.81 90.93 139.16 87.99 140.7 84.97C140.97 84.67 141.12 84.49 141.45 84.19C141.73 83.8 141.83 83.53 141.91 83.15C141.9 83.05 142 82.87 142.18 82.74C142.45 82.34 142.55 82.06 142.6 81.71C142.56 81.63 142.64 81.47 142.83 81.33C143.14 80.9 143.26 80.61 143.3 80.02C143.44 77.96 143.85 76.19 143.83 74.43C143.78 70.56 143.52 66.7 143.59 62.83C144.9 62.81 145.95 62.8 147.22 62.64C147.75 60.9 148.05 59.31 148.62 57.72C149.24 57.71 149.59 57.7 149.94 57.7C149.82 60.84 151.06 64.66 146.75 65.24C145.72 72.16 144.73 78.83 143.69 85.76C144.63 85.97 146.52 86.13 148.18 86.82C153.65 89.09 155.92 95.64 153.65 102.15C151.1 109.48 145 113.73 137.24 113.57C136.18 113.55 135.13 113.46 134 113.4C131.35 119.54 128.49 125.44 121.48 127.95ZM149.86 104.32C153.4 98.85 152.82 92.53 148.53 89.66C144.41 86.91 140.76 88.32 140.37 92.96C142 93.46 143.76 93.78 145.3 94.55C146.5 95.15 147.41 96.3 147.87 97.28C145.33 96.69 142.79 96.09 139.73 95.38C143.9 102.47 143.3 106.53 138.25 106.91C138.82 104.28 142.46 101.72 138.37 98.69C137.18 102.78 136.06 106.61 134.95 110.44C141.22 112.11 147.18 109.64 149.86 104.32Z" fill="#1B1416"/>
<path d="M33.9002 82.63C33.9102 81.1 34.1902 79.38 34.7002 78.05C35.5502 78.53 36.1702 78.89 36.7202 79.18C38.7002 73.69 40.6702 68.2 42.6502 62.71C37.3502 64.32 34.8702 67.48 35.1002 72.46C35.1402 73.29 35.0802 74.42 35.0502 75.25C34.3802 74.65 33.4402 73.78 32.6702 72.95C32.2702 72.08 32.3802 71.11 31.8702 70.85C30.4702 70.13 28.7602 69.46 27.4102 68.64C29.0202 68.56 30.6502 69 32.3402 69.28C33.1002 69.24 33.6402 69.1 34.1802 68.97C33.5002 68.33 32.8302 67.96 32.0402 67.21C32.3602 66.45 32.7902 65.54 33.1402 64.67C33.1002 63.93 33.1302 62.74 33.6102 61.38C33.9702 60.37 34.4502 59.6 34.8402 59.09C35.0502 58.68 35.2602 58.27 35.4802 57.86C35.8402 57.22 36.4602 56.29 37.4702 55.4C38.4002 54.59 40.7602 52.66 40.6702 53.36C40.5802 54.04 40.5402 54.01 40.4202 54.7C40.3802 54.87 37.2302 58.5 37.0202 58.64C36.1502 60.33 35.4802 61.87 34.4302 64.33C37.6102 62.42 39.8402 61.08 42.3602 59.77C43.2502 59.78 43.8402 59.75 44.6102 59.89C44.6402 60.97 44.5002 61.88 44.1702 62.99C42.7602 67.33 41.5302 71.48 40.1902 75.88C39.2502 78.03 38.4202 79.93 37.5902 81.86C37.5902 81.89 37.5602 81.94 37.4202 82.05C37.1602 82.43 36.8902 82.82 36.6302 83.2" fill="#140F12"/>
<path d="M25.6902 67.68C25.2602 67.4 24.7102 66.94 24.2102 66.47C23.4202 64.39 22.7702 62.67 21.9302 60.43C22.8702 60.66 23.8102 60.77 25.2102 61.03C28.0102 62.25 30.6702 63.41 33.1902 64.65C33.1602 64.69 32.9002 65.29 32.6402 65.89C32.3702 66.5 32.1102 67.13 32.0902 67.19C32.2002 68.11 32.4502 68.88 32.4402 69.41C30.9702 69.22 29.2302 68.79 27.4402 68.64C26.9702 68.46 26.9002 68.43 26.4002 68.1" fill="#2B1113"/>
<path d="M138.32 28.68C137.65 28.02 135.99 26.69 135.55 26.1C135.76 25.93 137.24 25.53 137.79 25.14C139.44 26.38 140.94 28.14 142.42 29.8C142.56 30.79 142.54 31.6 142.31 32.55" fill="#1C1013"/>
<path d="M72.4401 157.47C72.4501 157.16 72.5501 156.91 72.8201 156.3C73.7901 153.14 74.5202 150.08 75.2202 147.22C75.2602 147.11 75.2301 147.18 75.3501 146.65C75.1701 145.51 75.3401 145.09 75.3701 144.24C75.2701 143.74 75.5501 143.2 75.6401 142.93C75.8001 142.08 75.9002 141.63 76.1802 140.68C77.7702 140.04 78.5901 141.89 79.6301 142.65C80.4001 143.08 80.9901 143.34 81.7701 143.78C87.5001 146.43 92.3902 144.51 96.8902 140.81C97.4302 140.68 97.9801 141.14 98.4801 141.03C98.3301 144.25 98.2101 147.3 98.0301 150.35C97.8101 154.09 99.2301 157.13 101.51 160.04C102.6 161.43 103.05 163.41 103.49 165.2C104.19 168.08 104.79 171 105.1 173.94C105.2 174.88 104.81 175.85 103.78 176.92C98.4001 177.42 93.0201 178.25 88.2001 178.25C82.6701 178.24 77.0501 177.82 71.5201 177.42C71.0401 176.97 70.2001 176.21 70.2401 175.8C70.7501 170.09 71.1101 164.66 71.9901 158.68" fill="#DC4040"/>
<path d="M49.8603 183.26C55.5303 170.2 59.1703 156.48 68.2103 144.43C68.5703 145.72 68.7703 146.12 68.7803 146.53C68.8503 152.14 68.7203 157.76 68.9803 163.35C69.3703 171.67 65.7203 178.9 63.0903 186.4C61.9503 189.64 63.0403 194.74 56.9403 194.35C56.2803 194.31 55.5303 195.72 55.3203 195.94C53.4503 195.17 51.9003 194.87 50.8203 193.98C49.9603 193.27 49.9603 191.33 49.0903 190.87C46.9103 189.71 47.9603 188.94 48.7803 187.58C49.4703 186.45 49.4803 184.91 49.8603 183.26Z" fill="#ECBDA0"/>
<path d="M123.93 193.07C124.01 195.47 122.91 196.34 120.67 194.55C119.62 193.72 118.06 192.5 117.1 192.78C114.2 193.6 114.13 192.19 114.17 190.09C114.19 188.98 114.06 187.79 113.66 186.76C109.82 176.88 105.64 167.18 103.55 156.62C102.56 151.6 102.73 147.22 104.76 141.5C107.32 144.42 109.51 146.92 111.46 149.77C110.81 150.82 109.92 151.68 110.09 152.2C111.44 156.46 112.99 160.65 114.47 164.87C115.29 167.21 115.78 169.72 116.95 171.86C120.6 178.51 122.48 185.78 123.93 193.07Z" fill="#EBBDA0"/>
<path d="M123.71 193.01C122 185.8 120.6 178.51 116.95 171.87C115.77 169.73 115.29 167.21 114.47 164.88C112.99 160.66 111.44 156.47 110.09 152.21C109.92 151.69 110.82 150.83 111.51 150.03C111.8 149.92 111.77 149.94 111.6 150.2C111.93 150.91 112.43 151.36 112.94 151.8C116.66 159.74 120.66 167.55 124.2 175.92C124.52 179.36 124.67 182.51 125.26 185.49C125.6 187.21 126.51 188.72 127 190.41C128.4 193.88 125.77 193.19 123.71 193.01Z" fill="#E8B295"/>
<path d="M31.9202 93.08C33.1102 93.79 34.0602 94.08 35.0002 94.36C35.0002 95.76 35.0002 97.16 35.0002 98.89C30.4502 97.79 27.1902 95.47 25.4502 91.06C26.4402 88.72 27.3002 85.7 28.7302 84.58C30.1302 84.88 31.2302 85.14 32.8202 85.21" fill="#B67661"/>
<path d="M96.8902 140.81C92.4302 144.83 87.3702 146.63 81.6502 143.72C80.6802 143.21 80.1102 143.18 79.4402 142.56C78.5602 141.98 77.7102 141.32 76.7002 140.54C79.9602 139.75 83.0502 139.76 86.4102 141.43C89.0902 142.76 91.9602 141.11 93.7802 138.2C93.8002 137.98 94.0802 137.51 94.0802 137.51C95.9002 137.58 97.1302 138.16 96.8902 140.81Z" fill="#2D0F10"/>
<path d="M28.5402 84.75C27.6302 86.83 26.4702 88.96 25.4602 91.06C22.0302 83.71 25.2602 76.09 32.3902 75.08C32.3902 77.4 32.3902 79.68 32.3902 81.77C31.0702 82.7 29.8002 83.6 28.5402 84.75Z" fill="#D0876F"/>
<path d="M35.0604 75.25C35.0604 74.13 35.1405 73.29 35.1105 72.46C34.8805 67.48 37.3604 64.31 42.6604 62.71C40.6804 68.2 38.7104 73.69 36.7304 79.18C36.1904 78.89 35.2904 78.59 34.7104 78.05C35.0104 77.07 35.0604 76.3 35.0604 75.25Z" fill="#20457A"/>
<path d="M75.2203 147.22C74.8103 150.1 73.4703 154.23 72.5203 157.16C72.4103 156.13 72.8603 153.92 72.9903 152.81C72.8003 152.73 72.6103 152.66 72.4203 152.58C71.9503 153.34 71.4703 154.09 71.0003 154.85C70.6803 154.8 70.3503 154.75 70.0303 154.7C70.7203 150.14 71.4103 145.58 72.1003 141.01C72.4803 141.04 72.8603 141.06 73.2403 141.09C73.7103 143.19 74.4803 145.1 75.2203 147.22Z" fill="#AD3B3B"/>
<path d="M93.6503 138.48C87.5003 141.06 83.0603 140.08 80.0503 136.04C84.8303 136.04 89.2403 136.03 93.6403 136.1C93.7903 136.1 94.0803 136.8 94.0803 137.51C93.9403 137.74 93.6803 138.51 93.6503 138.48Z" fill="#C99985"/>
<path d="M35.01 94.36C34.91 94.37 32.69 94.37 31.93 93.08C31.83 92.91 31.97 92.7 32 92.4C32.81 91.6 33.19 90.99 34.23 89.21C34.41 90.35 35.11 94.29 35.01 94.36Z" fill="#2B1113"/>
<path d="M112.89 151.57C112.43 151.35 111.93 150.91 111.61 150.2C112.13 150.41 112.49 150.87 112.89 151.57Z" fill="#EBBDA0"/>
<path d="M113.28 55.61C97.2701 54.08 82.1601 49.15 67.1401 43.7C62.0601 41.86 56.0501 42.04 50.5801 40.53C54.2201 33.37 59.3001 26.67 65.7801 22.29C80.2201 12.53 95.5201 13.28 110.98 19.19C121.55 23.23 127.28 31.37 128.4 42.55C128.84 46.9 128.5 51.33 128.47 55.87C128.41 56.01 128.57 56.68 128.24 56.72C123.1 56.5 118.09 55.87 113.28 55.61Z" fill="#F9D5D3"/>
<path d="M35.75 44.85C42.65 41.46 49.96 41.7 57.1 43.22C63.48 44.58 69.77 46.62 75.88 48.95C87.79 53.49 99.92 55.8 113.11 57.09C114.22 57.14 115.27 57.27 116.05 57.35C116.58 57.41 116.44 57.29 117.34 57.61C119.63 57.81 121.45 57.97 123.66 58.18C124.54 58.06 125.26 57.92 125.52 58.22C119.47 64.32 111.23 65.72 103.46 64.57C92.04 62.89 81.66 58.01 71.15 53.53C62.4 49.8 53.72 45.82 44 45.28C41.25 45.13 38.5 44.99 35.75 44.85Z" fill="#D45561"/>
<path d="M121.58 17.84C122.68 18.08 124 18.45 125.36 19.11C126.68 20.64 127.32 22.13 128.58 23C134.55 27.1 139.28 32.05 142.51 38.42C146.45 46.19 145.95 54.35 145.61 62.55C145.13 62.55 144.85 62.54 144.53 62.53C144.49 62.53 144.45 62.6 144.32 62.4C143.73 62.09 143.27 61.97 142.79 61.89C142.77 61.92 142.85 61.91 142.7 61.71C142.06 61.38 141.57 61.24 141.01 61.09C140.93 61.07 140.85 61.2 140.7 60.99C140.22 60.67 139.88 60.56 139.47 60.41C139.39 60.36 139.25 60.47 139.1 60.29C138.64 60.01 138.33 59.92 137.92 59.75C137.83 59.68 137.59 59.71 137.38 59.53C136.64 59.2 136.1 59.05 135.49 58.88C135.41 58.86 135.33 58.98 135.18 58.78C134.71 58.49 134.38 58.4 133.89 58.22C133.46 58 133.21 58.02 132.84 57.99C132.11 57.47 131.05 57.48 130.45 56.84C130.45 52.03 131.3 47.18 130.83 42.73C129.96 34.36 126.23 27.16 118.96 22.03C115.52 19.61 111.58 17.82 107.87 15.74C109.74 15.47 111.48 15.72 113.18 16.1C115.99 16.74 118.79 17.17 121.58 17.84Z" fill="#DA5561"/>
<path d="M128.07 22.52C125.51 22.13 116.7 16.73 114.4 16.37C112.82 16.12 111.22 15.49 109.51 15.75C112.89 17.76 116.49 19.5 119.62 21.85C126.24 26.82 130.09 33.8 130.89 41.91C131.31 46.22 130.72 52.17 130.47 56.85C129.72 57.22 128.79 56.62 128.29 56.66C128.27 52.27 128.84 46.9 128.4 42.55C127.28 31.37 121.55 23.23 110.98 19.19C95.5204 13.28 80.2304 12.53 65.7804 22.29C59.3004 26.67 54.4704 33.54 50.5804 40.53C49.9204 40.45 49.9204 40.45 49.1304 40.27C55.1804 26.15 66.0404 16.82 81.0404 13.7C81.6004 13.47 82.1104 13.36 82.7404 13.13C83.7804 13.12 84.5104 13.2 85.6004 13.2C91.0804 13.66 96.2204 14.29 101.37 14.44C102.58 14.47 105.21 16.75 104.75 12.46C109.91 13.57 120.81 16.99 125.44 19.01C125.93 19.12 127.7 21.73 128.07 22.52Z" fill="#AF3946"/>
<path d="M128.03 58.49C125.42 60.41 122.08 63.59 119.19 64.88C110.33 68.83 101.29 67.03 92.6905 64.06C82.3505 60.48 72.3005 56.06 62.1105 52.03C52.5905 48.26 41.9305 45.92 31.2305 47.77C32.0405 46.83 34.1205 45.77 35.5005 44.89C38.4905 45.01 41.2505 45.14 44.0005 45.3C53.7205 45.85 62.4005 49.82 71.1505 53.55C81.6505 58.03 92.0305 62.91 103.46 64.59C111.23 65.73 119.22 64.36 125.52 58.24C126.41 58.2 127.43 58.24 128.03 58.49Z" fill="#B53844"/>
<path d="M37.5804 51.89C37.9504 51.77 38.3204 51.64 38.9104 51.89C39.4104 52.81 39.6804 53.37 39.7304 53.97C39.1504 54.24 38.7804 54.45 38.2704 54.76C37.9404 54.99 37.8004 55.16 37.5304 55.48C37.0304 56 36.6904 56.41 36.3604 56.82C36.1104 57.11 35.8704 57.39 35.4304 57.99C35.1404 58.57 35.0304 58.83 34.9304 59.1C34.9304 59.1 34.9204 59.14 34.7304 59.23C34.4304 59.73 34.3104 60.13 34.2004 60.54C34.2004 60.54 34.2304 60.59 34.0304 60.69C33.7304 61.21 33.6304 61.63 33.5304 62.05C33.3804 62.84 33.2304 63.64 33.1504 64.67C30.7104 63.67 27.9104 62.45 25.2104 61.05C24.7504 56.39 25.8404 55.1 31.2904 53.19C32.8604 52.71 32.5104 52.89 32.8604 52.71C32.8604 52.71 32.8604 52.71 33.1004 52.72C33.6504 52.67 33.9604 52.6 34.5604 52.56C35.7704 52.35 36.6704 52.12 37.5804 51.89Z" fill="#E64C63"/>
<path d="M138.46 28.5C140.3 31.96 142.18 35.16 144.08 38.65C144.39 40.21 144.71 41.47 144.98 42.74C146.36 49.02 148.09 56.23 145.17 61.59C144.66 61.37 144.37 61.23 144.09 61.08C144.21 53.15 144.67 45.24 141.07 37.71C138.12 31.54 133.73 26.76 128.3 22.78C127.15 21.94 126.42 20.35 125.44 19C127.52 19.74 129.61 21.03 131.94 22.44" fill="#B7333F"/>
<path d="M46.0503 40C50.8603 27.96 60.0603 19.81 71.8303 15.26C75.8803 13.69 80.3203 12.87 84.9103 12.11C85.2403 12.56 85.2603 13.01 85.2703 13.19C84.5103 13.2 83.7503 13.21 82.5003 13.23C81.6603 13.46 81.3103 13.69 80.9703 13.91C66.1803 17.02 55.4003 26.23 49.1403 40.27" fill="#C9515E"/>
<path d="M142.84 61.15C142.84 61.15 143.28 61.23 142.89 61.39C142.73 61.85 142.56 62 142.22 62.19C140.76 61.91 139.56 61.61 138.21 61.32C138.06 61.32 137.76 61.32 137.62 61.15C137.08 60.85 136.68 60.72 136.14 60.4C133.5 59.21 131.65 60.61 129.74 65.06C129.25 65.71 128.74 66.42 128.24 67.2C127.74 67.98 127.29 68.74 126.91 69.45C126.24 69.53 125.48 69.58 124.67 69.58C123.96 69.58 123.29 69.55 122.69 69.49C122.77 69.25 122.88 68.81 122.79 68.28C122.75 68 122.66 67.77 122.58 67.61C122.68 67.53 122.78 67.44 122.91 67.36C123.32 67.08 123.7 66.95 123.7 66.95C123.96 66.83 124.32 66.62 124.71 66.2C124.77 65.96 124.92 65.8 125.55 65.64C126.21 65.26 126.48 64.95 126.74 64.64C126.74 64.64 126.8 64.75 126.96 64.7C127.26 64.38 127.39 64.12 127.53 63.86C127.53 63.67 127.62 63.53 128.13 63.35C128.62 63.02 128.77 62.77 128.92 62.52C128.92 62.52 128.93 62.63 129.09 62.58C129.37 62.28 129.49 62.04 129.6 61.79C129.6 61.79 129.63 61.9 129.8 61.85C130.14 61.39 130.32 61 130.5 60.6C130.4 59.94 130.3 59.27 129.93 58.41C129.46 58.29 129.26 58.37 129.06 58.45C128.77 58.53 128.48 58.61 127.8 58.44C126.08 58.19 124.74 58.19 123.4 58.18C121.41 58.05 119.41 57.91 117.03 57.57C116.24 57.42 115.85 57.49 115.46 57.55C114.9 57.55 113.73 57.18 112.9 57.07C112.64 56.54 113.26 56.47 113.26 55.83C118.07 55.87 122.87 56.13 128.21 56.55C129.95 56.77 131.16 56.83 132.37 56.89C132.58 56.72 132.81 56.7 133.34 57.09C133.93 57.46 134.22 57.55 134.51 57.65" fill="#1B1416"/>
<path d="M85.2604 13.2C84.9204 13.01 84.9204 12.57 84.9004 12.12C89.9404 11.76 95.4304 11.72 100.88 11.92C102.49 11.94 102.95 12.06 104.11 12.25C104.47 12.44 104.92 12.51 105.46 12.61C106.14 16.97 102.59 14.66 101.37 14.45C96.2204 14.29 90.7404 13.66 85.2604 13.2Z" fill="#C64653"/>
<path d="M25.0103 54.48C24.6903 56.37 24.3303 58.39 21.0103 57.18C21.7503 56.07 22.3203 54.88 23.3903 54.05C24.2303 54.15 24.6603 54.43 25.0103 54.48Z" fill="#2B1113"/>
<path d="M109.68 116.71C108.92 116.64 108.15 116.57 107.25 116.28C108.02 115.47 108.93 114.88 110.11 114.31C117.23 113.56 121.89 110.07 123.72 103.3C125.46 96.85 121.63 89.56 116 88.37C107.87 84.79 102.73 85.91 98.0003 92.04C92.2003 96.8 92.0303 104.48 97.3803 110.37C97.4303 111.41 97.4403 112.23 97.2903 112.95C96.7903 112.65 96.4603 112.46 96.0103 112.05C94.8103 110.51 93.7203 109.17 92.5903 107.58C92.1603 106.21 91.7702 105.1 91.4302 103.73C91.4102 102.25 91.3303 101.03 91.4003 99.61C91.5703 98.93 91.5902 98.44 91.6802 97.78C91.7402 97.47 91.7203 97.34 91.8703 97.01C92.9403 94.61 93.8403 92.42 94.9803 90.15C103.56 80.89 113.47 79.79 122.54 86.54C122.55 86.54 122.52 86.54 122.57 86.79C124 89.57 125.38 92.11 126.76 94.65C126.8 95.12 126.84 95.59 126.93 96.6C126.55 100 126.12 102.86 125.69 105.72C125.53 105.79 125.42 105.91 125.22 106.36C124.91 107.07 124.76 107.51 124.61 107.94C124.61 107.94 124.7 107.95 124.52 107.98C124.24 108.25 124.14 108.48 124.05 108.71C124.05 108.71 124.05 108.71 123.88 108.83C123.51 109.33 123.31 109.7 123.11 110.08C120.7 111.82 118.29 113.55 115.41 115.49C113.19 116.03 111.44 116.37 109.68 116.71Z" fill="#1F1614"/>
<path d="M149.68 104.68C147.46 109.78 141.23 112.12 134.96 110.45C136.08 106.62 137.19 102.79 138.38 98.7C142.46 101.73 138.83 104.29 138.26 106.92C143.31 106.54 143.91 102.48 139.74 95.39C142.8 96.1 145.04 96.4 147.88 97.29C148.61 97.36 149.36 102.45 149.68 104.68Z" fill="#B97861"/>
<path d="M149.68 104.68C149.14 102.56 148.44 100.14 148.13 97.59C147.08 96.36 146.55 95.4 145.35 94.8C143.81 94.03 141.96 93.49 140.33 92.98C139.87 88.14 146.17 86.52 149.24 89.88C152.61 93.26 153.67 99.22 149.68 104.68Z" fill="#CA856E"/>
<path d="M148.06 47.75C148.16 49.02 148.37 50.22 148.41 51.72C148.5 53.68 148.56 55.83 148.59 57.86C148.59 59.8 148.03 62.96 146.84 62.7C146.02 62.44 145.82 61.98 145.4 61.67C147.22 55.32 146.37 49.02 144.99 42.74C144.71 41.47 144.09 40.21 143.96 38.65C144.26 38.35 145.46 37.6 145.64 37.84C146.1 38.55 146.06 39.12 146.47 39.58C146.57 40.29 146.9 41.37 147.19 42.54C147.64 44.08 147.59 45.06 147.86 46.14" fill="#C24F5C"/>
<path d="M138.36 61.32C138.34 63.77 137.98 67.02 137.73 69.75C137.32 68.48 136.88 66.28 136.29 64.41C136.03 64.1 136.12 63.69 136.16 63.44C136.72 62.57 137.23 61.87 137.75 61.25C137.76 61.25 138.21 61.32 138.36 61.32Z" fill="#120F17"/>
<path d="M145.17 61.59C145.82 61.98 146.24 62.29 146.84 62.69C145.96 62.8 144.91 62.88 143.6 62.9C143.34 62.91 143.36 62.81 143.31 62.64C143.05 62.35 142.88 62.42 142.68 62.31C142.68 62.31 142.28 62.18 142.24 62.18C142.27 62 142.65 61.81 142.84 61.35C143.21 61.09 143.46 61.09 143.9 61.09C144.38 61.23 144.66 61.37 145.17 61.59Z" fill="#1C1013"/>
<path d="M40.2102 75.86C41.1502 74.87 42.0702 74.2 42.8002 73.36C46.5702 69.02 53.6902 68.52 57.6702 72.61C52.3702 70.71 47.5602 70.87 43.8002 75.17C42.1102 77.11 41.2702 79.79 40.0502 82.14C39.4402 82.08 38.8202 82.03 37.9102 81.89C38.4402 79.91 39.2702 78.01 40.2102 75.86Z" fill="#BD8873"/>
<path d="M47.43 53.45C46.49 54.37 45.52 55.3 44.53 56.23C43.46 57.24 42.39 58.22 41.33 59.18C39.73 59.18 38.22 58.85 37.02 58.63C37.02 58.63 37.31 58.16 37.48 57.92C37.8 57.57 37.91 57.42 38.17 57.1C38.43 56.79 39.6 55.43 40.42 54.69C41.51 53.69 43.05 52.28 44.98 52.41C45.48 52.45 46.4 52.62 47.43 53.45Z" fill="#435E87"/>
<path d="M37.0302 58.64C38.4402 58.72 39.6402 58.94 41.1202 59.16C41.6102 59.2 42.1602 59.48 42.3802 59.77C40.2202 61.25 37.6302 62.42 34.4502 64.33C35.4902 61.87 36.1502 60.32 37.0302 58.64Z" fill="#20457A"/>
<path d="M32.2704 69.65C32.0604 69.02 32.0404 68.01 32.0504 67.21C32.7304 67.58 33.7704 68.41 34.4404 69.05C33.9004 69.18 33.0304 69.6 32.2704 69.65Z" fill="#1C1013"/>
<path d="M143.14 32.81C143.9 34.43 144.86 35.98 145.53 37.75C145.4 38 144.27 38.64 143.95 38.65C141.88 35.46 140.29 31.97 138.44 28.5" fill="#BA4C58"/>
<path d="M87.41 116.98C87.95 116.72 88.76 117.14 88.91 117.31ZM88.91 117.31C89.15 120.41 87.58 122.2 84.77 123.19C79.27 125.12 73.93 124.74 68.92 121.84C65.29 119.74 64.96 117.42 67.62 114.17C74.11 114.41 80.4 114.84 87.05 115.27C87.41 115.27 87.37 115.19 87.43 115.42M75.09 121.84C78.78 122.8 84.02 121.86 84.54 119.97C84.43 119.2 84.3 118.26 84.24 117.86C82.95 117.86 81.97 117.86 80.83 117.32C77.02 116.9 73.22 116.44 69.4 116.18C69.28 116.17 68.58 118.84 68.89 119.03C70.67 120.08 72.66 120.76 75.09 121.84Z" fill="#7B1928"/>
<path d="M57.4101 105.24C57.0001 105.63 56.5801 106.02 55.8201 106.56C55.2301 106.8 55.1001 106.97 55.0701 107.23C55.0701 107.23 55.0701 107.16 55.0301 107.14C53.3701 107.14 51.7301 107.17 49.6101 107.03C48.0501 106.43 46.9701 105.98 45.9001 105.53C45.7701 105.16 45.6401 104.79 45.3601 104.29C45.1801 103.71 45.1501 103.26 45.3001 102.43C45.5501 101.18 45.6101 100.32 45.9601 99.46C47.4601 99.04 48.6401 98.5 49.8801 98.24C54.1001 97.34 57.0701 99.13 57.9801 103.31C57.6901 104.08 57.5501 104.66 57.4101 105.24ZM49.9601 103.04C52.0601 103.29 54.1601 103.55 56.8001 103.87C55.9001 99.99 53.7401 99.35 51.2501 99.44C49.0301 99.53 47.0101 100.13 46.9401 103.25C47.8801 103.14 48.6501 103.05 49.9601 103.04Z" fill="#74ABC7"/>
<path d="M60.2404 79.62C59.7404 79.1 59.2904 78.79 58.6704 78.29C52.9404 74.74 48.7404 75.09 45.4104 79.18C41.1704 84.38 41.3004 94.16 45.6704 99.47C45.6104 100.33 45.5504 101.19 45.2904 102.21C43.9904 100.78 42.9004 99.19 41.6504 97.19C41.3504 96.54 41.2004 96.3 41.0504 96.06C40.7404 94.95 40.4304 93.83 40.1504 92.19C40.0804 91.12 39.9804 90.59 39.8804 90.05C39.8904 88.35 39.9004 86.64 39.9404 84.44C39.9404 83.82 39.9204 83.69 39.8904 83.57C39.9304 83.25 39.9704 82.94 40.0304 82.39C41.2804 79.81 42.1104 77.12 43.8004 75.18C47.5604 70.88 52.3704 70.72 57.6804 72.88C58.4204 73.26 58.8704 73.64 59.5204 74.22C59.7104 74.43 59.9204 74.63 59.9204 74.63L60.2004 74.59C60.7304 75.18 61.2504 75.78 62.0704 76.69C63.0204 78.05 63.9404 79.01 64.2904 80.15C65.2204 83.17 65.9104 86.26 66.6404 89.5C66.6304 89.79 66.6704 89.91 66.6604 90.33C66.4804 92.33 66.3604 94.02 66.1104 95.91C65.5704 97.4 65.1504 98.68 64.6204 100.03C64.3904 100.24 64.3404 100.41 64.1404 100.71C62.4304 102.3 60.9204 103.77 59.4204 105.24C58.9104 105.22 58.4104 105.2 57.6504 105.21C57.5404 104.66 57.6804 104.08 58.2104 103.25C60.0704 101.3 61.5504 99.6 63.2504 97.76C63.8904 96.06 64.3104 94.51 64.8404 92.72C64.0804 89.03 63.2104 85.59 62.2904 81.96" fill="#181311"/>
<path d="M130.33 60.69C130.34 60.99 130.16 61.39 129.76 61.83C129.73 61.52 129.94 61.15 130.33 60.69Z" fill="#1C1013"/>
<path d="M126.56 64.7C126.49 64.95 126.22 65.27 125.73 65.6C125.79 65.34 126.07 65.05 126.56 64.7Z" fill="#1C1013"/>
<path d="M129.25 58.5C129.27 58.37 129.47 58.29 129.73 58.34C129.67 58.49 129.55 58.52 129.25 58.5Z" fill="#1C1013"/>
<path d="M127.35 63.96C127.41 64.12 127.27 64.38 126.91 64.71C126.85 64.53 127 64.3 127.35 63.96Z" fill="#1C1013"/>
<path d="M128.73 62.6C128.78 62.77 128.63 63.02 128.27 63.33C128.21 63.15 128.37 62.91 128.73 62.6Z" fill="#1C1013"/>
<path d="M129.43 61.86C129.5 62.03 129.38 62.27 129.05 62.55C128.97 62.37 129.11 62.15 129.43 61.86Z" fill="#1C1013"/>
<path d="M124.5 66.27C124.52 66.43 124.31 66.66 123.87 66.94C123.85 66.77 124.07 66.55 124.5 66.27Z" fill="#1C1013"/>
<path d="M97.5501 113.71C97.5501 113.71 97.5001 113.38 97.4801 113.21C97.4501 112.22 97.4301 111.41 97.5701 110.29C97.9101 109.82 98.1001 109.64 98.4501 109.55C98.7901 109.79 98.9201 109.99 98.9801 110.47C99.4401 111.22 99.9001 111.73 100.6 112.36C103.49 113.09 106.03 115.88 109.09 112.95C109.45 112.99 109.59 113.01 109.75 113.24C109.79 113.74 109.82 114.02 109.85 114.31C108.94 114.9 108.03 115.48 106.98 116.25C104.9 116.21 102.96 115.99 100.6 115.56C99.3001 114.8 98.4201 114.25 97.5501 113.71Z" fill="#6AA3BF"/>
<path d="M94.9805 90.15C95.7705 85.39 99.3505 82.71 103.53 81.42C109.91 79.44 116.19 80.32 121.68 84.55C122.11 84.88 122.28 85.53 122.55 86.29C113.48 79.79 103.56 80.89 94.9805 90.15Z" fill="#C98C75"/>
<path d="M91.4002 99.61C91.2602 99.31 91.2702 98.82 91.4402 98.14C91.5902 98.44 91.5702 98.93 91.4002 99.61Z" fill="#DC9F83"/>
<path d="M142.68 62.31C142.85 62.24 143.34 62.47 143.37 62.81C143.21 62.87 142.94 62.6 142.68 62.31Z" fill="#1B1416"/>
<path d="M60.1603 74.48C60.2003 74.59 59.9203 74.62 59.9203 74.62C59.9203 74.62 59.7203 74.43 59.7303 74.29C59.9103 74.17 60.0303 74.24 60.1603 74.48Z" fill="#BD8873"/>
<path d="M74.5501 121.6C72.6401 120.79 70.6701 120.07 68.9001 119.02C68.5901 118.84 69.2801 116.16 69.4101 116.17C73.2301 116.43 80.1501 116.91 83.4901 117.86C80.7201 118.39 74.4701 117.15 74.5501 121.6Z" fill="#94304D"/>
<path d="M74.5503 121.6C74.2203 117 77.8403 118.17 80.7003 117.91C81.9803 117.86 82.9603 117.86 84.2503 117.86C84.3103 118.26 84.4403 119.2 84.5503 119.97C84.0203 121.86 78.2003 123.47 74.5503 121.6Z" fill="#C44E97"/>
<path d="M72.1304 109.32C72.2404 108.36 72.6004 107.45 73.0704 106.37C76.1104 104.99 78.7404 104.78 80.4504 108.46C80.5804 108.83 80.5904 108.96 80.4804 109.43C80.3604 109.77 80.4004 110.12 80.4004 110.12C80.3704 110.24 80.3304 110.36 80.2504 110.65C77.8604 108.9 75.4104 107.53 72.1304 109.32Z" fill="#352018"/>
<path d="M55.2204 107.18C55.0904 106.98 55.2304 106.8 55.6304 106.68C55.7204 106.86 55.5804 107.02 55.2204 107.18Z" fill="#EFB99D"/>
<path d="M49.6904 103C48.6504 103.05 47.8804 103.15 46.9404 103.26C47.0204 100.14 49.0304 99.53 51.2504 99.45C53.7404 99.35 55.9004 100 56.8004 103.88C54.1604 103.55 52.0604 103.29 49.6904 103Z" fill="#BFE4F5"/>
<path d="M66.6401 89.5C66.7701 89.51 66.8501 89.7 66.8201 89.95C66.6801 89.91 66.6401 89.79 66.6401 89.5Z" fill="#E8B295"/>
<path d="M108.87 112.92C106.02 115.88 103.48 113.09 100.74 112.17C103.14 111.33 105.61 110.81 108.32 110.39C108.66 111.3 108.76 112.11 108.87 112.92Z" fill="#A3D7F3"/>
<path d="M109.08 112.95C108.76 112.11 108.65 111.3 108.1 110.23C104.71 108.26 101.8 107.89 98.9702 110.22C98.9002 109.99 98.7702 109.79 98.4302 109.55C100.62 106.05 103.84 107.15 106.89 107.92C109.23 108.52 110.48 110.08 109.87 112.84C109.58 113.01 109.44 112.99 109.08 112.95Z" fill="#79B0C9"/>
<path d="M98.9702 110.47C101.81 107.89 104.72 108.27 107.88 110.13C105.62 110.81 103.14 111.33 100.51 112.04C99.8902 111.73 99.4202 111.22 98.9702 110.47Z" fill="#D1EBF8"/>
<path d="M80.5 110.07C80.4 110.12 80.36 109.77 80.45 109.62C80.74 109.64 80.76 109.82 80.5 110.07Z" fill="#DC9F83"/>
<path d="M40.6704 51.15C44.5304 52.19 50.3004 53.8 57.2804 56C61.9804 57.48 64.9104 58.49 68.8204 59.81C84.6704 65.16 92.5404 68.59 96.1104 68.51C98.1804 68.46 122.58 67.62 122.58 67.62L126.64 69.16C122.87 69.51 117.45 69.93 110.9 70.15C106.83 70.28 100.57 70.49 95.7104 70.21C81.9004 69.43 77.3004 64.62 56.8104 58.71C52.8304 57.56 47.2404 56.08 40.4004 54.7L40.5404 52.68L40.6704 51.15Z" fill="#1B1416"/>
<path d="M24.52 52.41L29.6 51.41L40.67 51.15V52.52L25.85 54.77L24.56 58.91L21.37 59.94L20.77 56.67C20.77 56.67 20.86 56.73 21.01 56.81" fill="#1C1013"/>
<path d="M142.36 32.1C142.36 32.1 146.64 38.18 147.68 44.88C148.72 51.58 148.59 57.86 148.59 57.86L149.96 57.71C149.96 57.71 151.48 42.38 142.42 29.8" fill="#1B1416"/>
<path d="M50.3401 31.54L46.0701 39.9L40.6701 40.81H39.7301L38.3501 40.94L45.1101 32" fill="#1C1013"/>
<path d="M139.12 60.87C138.97 60.82 138.61 60.68 138.31 60.84C137.87 61.08 137.88 61.82 137.86 62.46C137.8 63.95 137.36 65.41 137.15 66.89C136.98 68.08 136.91 68.38 136.79 69.15C136.3 72.39 136.39 74.18 136.21 76.03C135.68 81.38 132.94 86.23 132.17 87.6C131.24 89.25 130.19 90.77 130.62 91.22C130.99 91.6 132.78 89.81 133.46 90.32C133.81 90.58 133.76 91.35 133.63 91.78C133.5 92.24 133.29 92.3 133.03 92.84C132.86 93.18 132.49 93.93 132.71 94.56C132.99 95.39 134.19 95.75 135.06 95.72C136.1 95.68 136.82 95.07 137.21 94.73C138.49 93.62 138.92 92.18 139.13 91.54C140.25 88.12 141.15 88.45 142.6 84.76C142.98 83.79 143.09 83.32 144.32 77.09C144.9 74.17 145.94 68.7 145.27 64.08C145.17 63.36 145.2 62.29 144.41 62.01C142.36 61.29 141.32 61.67 139.12 60.87Z" fill="#20457A"/>
<path d="M50.6103 88.97C52.8746 88.97 54.7103 87 54.7103 84.57C54.7103 82.1399 52.8746 80.17 50.6103 80.17C48.3459 80.17 46.5103 82.1399 46.5103 84.57C46.5103 87 48.3459 88.97 50.6103 88.97Z" fill="#FDFDFD"/>
<path d="M114.63 99.78C116.895 99.78 118.73 97.81 118.73 95.38C118.73 92.9499 116.895 90.98 114.63 90.98C112.366 90.98 110.53 92.9499 110.53 95.38C110.53 97.81 112.366 99.78 114.63 99.78Z" fill="#FDFDFD"/>
</g>
</svg>
