<svg width="40" height="41" viewBox="0 0 40 41" fill="none" xmlns="http://www.w3.org/2000/svg">
<g id="Group">
<g id="Group_2">
<path id="Vector" d="M17.9576 0.0527534C15.1156 0.357967 12.0313 1.42265 9.61058 2.92196C6.97531 4.56944 4.44662 7.17981 2.8508 9.90084C0.887527 13.27 -0.152257 17.4257 0.0180846 21.2946C0.233441 26.4129 2.16108 31.0777 5.5587 34.7153C7.23517 36.5201 8.9836 37.8344 11.1443 38.9267C14.0132 40.38 16.6311 41 19.8856 41C23.1402 41 25.7758 40.38 28.6269 38.9267C30.7967 37.8252 32.5361 36.5109 34.1854 34.7526C37.1261 31.5963 38.919 27.8111 39.5825 23.3776C39.7975 21.9243 39.7975 19.0921 39.5825 17.6392C39.2418 15.3441 38.6858 13.5019 37.7266 11.4842C34.4364 4.55188 27.8199 0.183365 20.3337 0.00756836C19.4728 -0.0116997 18.4061 0.00671387 17.9576 0.0527534ZM21.7681 6.5409C24.574 7.27188 26.7977 9.6877 27.3716 12.6309C27.5776 13.6676 27.5152 15.3519 27.2369 16.3424C26.1698 20.1558 22.4851 22.5995 18.7195 21.9886C16.0571 21.5536 13.7888 19.693 12.8026 17.1479C12.0762 15.2597 12.0762 13.0198 12.8205 11.1874C14.2727 7.56841 18.0922 5.58757 21.7681 6.5409ZM27.7747 25.4503C29.6126 25.8021 31.2352 26.5147 32.5083 27.5144C33.3242 28.162 34.2298 29.1711 34.2298 29.4395C34.2298 29.5505 33.9965 29.9854 33.701 30.4204C29.4155 36.7512 21.6513 39.4076 14.551 36.9735C11.1534 35.8071 8.13156 33.4746 6.06973 30.4204C5.77406 29.9854 5.54097 29.5505 5.54097 29.4395C5.54097 29.1619 6.53625 28.0604 7.316 27.468C8.85794 26.2831 10.7141 25.5798 12.9463 25.3298C13.332 25.2832 16.6401 25.2556 20.2892 25.2648C26.2239 25.2837 27.0127 25.3022 27.7747 25.4503Z" fill="#C2C2C2"/>
</g>
</g>
</svg>
