<svg width="100" height="100" viewBox="0 0 100 100" fill="none" xmlns="http://www.w3.org/2000/svg">
<mask id="mask0_203_149" style="mask-type:luminance" maskUnits="userSpaceOnUse" x="0" y="0" width="100" height="100">
<path d="M77.4262 100H22.5738C10.109 100 0 89.891 0 77.4262V22.5738C0 10.109 10.109 0 22.5738 0H77.4262C89.891 0 100 10.109 100 22.5738V77.4262C100 89.8969 89.891 100 77.4262 100Z" fill="white"/>
</mask>
<g mask="url(#mask0_203_149)">
<path d="M38.6482 26.6877L30.3852 33.1751L23.2532 46.0267L19.825 61.0583L22.8371 67.5574L36.2513 73.9334L46.6358 77.5551L64.3866 76.5471L70.3231 73.9334L74.9 47.9723L73.0364 34.4643L60.0324 19.7609L39.0233 20.089L38.6482 26.6877Z" fill="#F0C0A1"/>
<path d="M35.9758 115.448C36.3333 115.301 36.5794 115.131 36.9193 115.184C37.0717 115.811 37.2123 116.55 37.3178 117.124C37.3354 117.194 37.3237 117.335 37.2123 117.364C36.8724 117.88 36.6439 118.36 36.263 119.157C37.3764 118.999 38.1617 118.882 38.9822 118.765C39.0525 119.31 39.1228 119.866 39.2107 120.558C40.0136 120.183 40.6289 119.902 41.2677 119.603C41.4259 120.236 41.5548 120.74 41.713 121.355C42.3225 120.998 42.7913 120.728 43.2602 120.458C43.4477 120.98 43.6294 121.478 43.8989 122.24C44.6491 121.589 45.2351 121.08 45.9383 120.47C46.372 121.103 46.7998 121.736 47.3213 122.504C47.8839 121.707 48.1594 121.308 48.4524 120.892C48.7864 121.25 49.0794 121.554 49.1673 121.648C49.9057 121.548 50.4156 121.484 51.0192 121.402C51.0192 121.361 51.0661 121.08 51.0075 120.828C50.9254 120.453 50.7672 120.095 50.7086 119.614C51.0075 118.601 51.2419 117.698 51.4763 116.796C51.6111 116.807 51.7459 116.813 51.8807 116.825C52.074 117.81 52.2674 118.788 52.4139 119.89C52.2499 120.628 52.1385 121.244 51.9334 122.34C52.871 121.742 53.4043 121.402 53.9904 121.027C54.1896 121.507 54.3947 121.988 54.7581 122.861C55.2738 122.093 55.6312 121.56 56.0297 120.974C56.44 121.648 56.7213 122.117 57.0846 122.715C57.5358 122.105 57.823 121.718 58.1219 121.314C58.4559 121.812 58.7489 122.24 59.2236 122.943C59.751 122.035 60.1437 121.361 60.5246 120.705C61.2337 121.068 61.9486 121.431 62.7808 121.859C62.9976 121.115 63.1559 120.576 63.3199 120.019C63.865 120.341 64.3103 120.605 64.8671 120.933C65.1952 120.048 65.4531 119.333 65.7168 118.489C65.2714 116.468 64.826 114.575 64.3396 112.565C63.484 112.629 62.6753 112.811 61.7377 112.957C57.2194 113.701 52.8183 114.346 48.3586 113.731C45.6687 113.362 43.0023 112.805 40.2421 112.26C39.8729 112.125 39.4568 112.061 39.1697 111.938C39.1638 111.879 39.2752 111.756 39.2869 111.621C39.3045 111.305 39.1755 110.912 39.3162 110.736C48.1477 113.49 56.9205 113.619 65.6113 110.601C64.3162 105.532 63.0855 100.715 61.849 95.8745C61.2044 96.021 60.7356 96.1264 60.0792 96.2729C62.1889 91.655 64.2166 87.2071 66.3849 82.4427C64.5506 81.505 62.9683 80.6904 61.3216 79.7762C60.0909 79.1081 58.9892 79.073 57.8816 79.8993C53.7149 82.9994 49.1087 83.1342 44.8424 80.2626C43.8814 79.618 43.0082 79.3133 41.8713 80.0048C38.9763 82.8001 36.1927 85.6072 33.4325 88.385C35.5949 90.3189 37.4233 91.9539 39.1345 93.6417C36.7552 92.8974 34.4932 92.0946 32.0846 91.2448C31.7447 91.7781 31.3696 92.3641 30.9418 92.997C30.8891 93.0381 30.8598 93.1729 30.766 93.2315C30.7133 93.712 30.5902 94.3332 30.8188 94.5207C33.3094 96.5601 35.8528 98.535 38.695 100.78C38.8708 99.8008 38.9411 99.3965 39.0701 98.8925C39.158 98.412 39.1931 98.0252 39.2927 97.5505C39.3631 97.2985 39.3689 97.1403 39.4393 96.8824C39.4568 95.6986 40.6934 94.4973 39.3455 93.5245C39.7733 93.2549 40.2245 93.0615 40.3066 92.7685C40.6816 91.3796 40.9278 89.9556 41.2911 88.5608C41.3907 88.1799 41.7189 87.8634 41.9416 87.5177C42.0881 87.5821 42.2405 87.6407 42.387 87.7052C42.3225 88.2268 42.2874 88.7542 42.1877 89.2699C40.9219 95.7983 39.6326 102.321 38.3844 108.855C38.2731 109.429 38.5016 110.168 38.3785 110.777C37.7456 110.906 37.1244 110.9 36.5384 110.93C36.5208 110.32 36.5267 109.787 36.6556 109.283C37.2299 107.027 37.8628 104.788 38.4196 102.532C38.5133 102.157 38.4723 101.5 38.2438 101.342C36.3919 100.07 34.4814 98.8925 32.2252 97.4567C31.0122 101.254 29.8753 104.829 28.7266 108.404C28.6446 108.65 28.4981 108.89 28.334 109.095C27.244 110.502 27.326 110.73 29.09 111.199C28.7032 113.016 28.9728 113.28 30.7543 112.781C31.3696 114.739 31.5279 114.739 33.0047 113.385C33.4852 112.945 34.4463 112.436 34.8565 112.635C36.0813 113.221 36.3333 112.506 36.7728 111.715C37.2651 112.342 37.6401 112.945 38.0504 113.631C38.0445 113.819 38.0093 113.918 37.8746 114.071C37.4878 114.317 37.1948 114.522 36.8138 114.639C35.8586 114.44 34.5283 113.924 34.1943 114.293C32.6472 116.016 31.5103 115.782 29.635 114.586C28.4102 113.807 27.789 112.776 26.9334 111.826C25.6559 110.414 26.5408 109.283 27.4491 108.158C27.5136 108.081 27.5077 107.947 27.5429 107.841C28.4981 105.017 29.3713 102.163 30.4437 99.3848C30.9125 98.1834 31.0883 97.1989 30.2679 96.1206C29.213 94.7317 29.1544 93.3721 30.3792 91.9656C31.4224 90.7701 31.1645 90.1138 29.594 89.6625C25.2339 88.3967 22.2276 85.49 19.9596 81.7043C19.3209 80.6318 18.7876 79.5008 18.2016 78.3932C18.014 78.9089 18.1078 79.3074 18.2543 79.6883C19.6901 83.5327 21.2782 87.336 22.5089 91.2448C22.9894 92.7802 24.097 94.3918 23.0539 96.1206C22.6905 95.4759 22.4151 94.8958 22.21 94.2922C21.5302 92.2821 20.8797 90.2662 20.2234 88.2561C20.2234 88.2561 20.2175 88.2678 20.2234 88.1389C19.8952 87.2012 19.5553 86.3925 19.2213 85.5779C19.2213 85.5779 19.2154 85.5896 19.2213 85.4724C19.0044 84.8688 18.7759 84.3883 18.5532 83.9077C18.5532 83.9077 18.5473 83.9195 18.5532 83.7905C17.6683 81.6222 16.7716 79.5887 15.8809 77.5552C15.8809 77.5552 15.8692 77.5669 15.8867 77.4262C15.8164 76.7992 15.7754 76.2952 15.6406 75.8205C14.8788 73.0838 14.4627 70.3294 15.207 67.4579C15.3828 66.8894 15.4531 66.3679 15.5293 65.6998C15.3183 63.4143 15.0956 61.2811 14.8788 59.1421C14.6971 57.343 14.5154 55.5381 14.2459 53.5397C14.0642 53.2701 14.0173 53.1764 13.9177 53.1119C13.9177 53.1119 13.9528 53.1529 13.8708 53.0474C13.695 52.8247 13.6481 52.6255 13.5368 52.4673C13.5368 52.4673 13.5309 52.4849 13.5251 52.3676C13.191 51.764 12.8628 51.2835 12.5347 50.7971C12.5347 50.7971 12.5229 50.8088 12.5405 50.6623C11.9779 47.6091 12.0072 44.7727 13.5426 42.118C13.5426 42.118 13.5309 42.1121 13.6305 42.0711C14.1169 41.5027 14.4979 40.9694 14.8846 40.442C15.248 40.1314 15.6172 39.8149 16.168 39.5453C16.4962 39.5336 16.7423 39.5043 16.7599 39.4223C17.3753 36.3925 17.973 33.3627 18.5708 30.3329M18.5883 30.3154C18.5883 30.3154 18.5942 30.245 18.6704 30.1161C19.1333 28.6745 19.526 27.3618 19.9128 26.0491C19.9128 26.0491 19.901 26.0491 19.9948 25.9846C20.2527 25.4044 20.4168 24.8946 20.5808 24.3789C20.5808 24.3789 20.5691 24.373 20.6512 24.3262C20.7977 24.0859 20.8563 23.8984 20.9149 23.705C20.9149 23.705 20.8973 23.705 20.9852 23.6405C21.5771 22.3923 22.0811 21.2143 22.5792 20.0364C22.5792 20.0364 22.5675 20.0306 22.6554 20.0071C22.796 19.8899 22.8546 19.7961 22.9132 19.6965C22.9132 19.6965 22.9015 19.6965 22.9894 19.6438C23.1359 19.4035 23.1887 19.216 23.2473 19.0285C23.2473 19.0285 23.2356 19.0226 23.3176 18.9991C23.4582 18.8819 23.5227 18.7882 23.5813 18.6886C23.5813 18.6886 23.5696 18.6885 23.6575 18.6358C23.804 18.3955 23.8567 18.208 23.9153 18.0205C23.9153 18.0205 23.9036 18.0146 23.9857 17.9912C24.1263 17.874 24.1908 17.7802 24.2494 17.6864C24.2494 17.6864 24.2377 17.6864 24.3373 17.6454C24.642 17.2997 24.8413 16.9949 25.0405 16.696C25.105 16.6726 25.1577 16.6316 25.3042 16.4499C25.4683 16.11 25.5211 15.8991 25.5797 15.6881C25.5797 15.6881 25.5738 15.6822 25.6617 15.6646C25.8024 15.5474 25.861 15.4537 25.9137 15.354C25.9137 15.354 25.9137 15.3482 26.0309 15.354C26.6287 14.7973 27.1092 14.2464 27.5897 13.6897C27.5897 13.6897 27.5839 13.6839 27.6718 13.6663C27.8124 13.5491 27.8652 13.4495 27.9179 13.3557C27.9179 13.3557 27.9121 13.344 28.0234 13.3674C28.2813 13.2678 28.4336 13.1447 28.586 13.0216C28.586 13.0216 28.5801 13.0158 28.668 12.9923C28.8087 12.8751 28.8673 12.7814 28.9259 12.6876C28.9259 12.6876 28.92 12.6818 29.0255 12.6876C29.301 12.588 29.4709 12.4825 29.7053 12.336C29.8635 12.2247 29.9163 12.1309 29.928 12.0195C29.928 12.0195 29.9163 12.0137 30.0394 12.002C31.4224 11.2225 32.6823 10.449 33.9423 9.67542C33.9423 9.67542 33.9306 9.66956 34.0595 9.68128C35.5597 9.13042 36.9252 8.56783 38.2906 8.00524C38.2906 8.00524 38.2789 7.99938 38.4137 8.0111C39.574 7.78841 40.5937 7.54814 41.7599 7.30786C42.9906 7.1262 44.0747 6.89765 45.1706 6.77458C51.2595 6.08307 57.3249 5.9307 63.2672 7.80013C65.5351 8.51509 67.7913 9.27692 70.0534 10.0153C70.0534 10.0153 70.0593 10.0036 70.112 10.1032C70.7977 10.4724 71.4247 10.7479 72.0518 11.0174C72.0518 11.0174 72.0576 11.0057 72.1104 11.1112C72.5733 11.3749 72.9836 11.5273 73.3938 11.6855C73.3938 11.6855 73.3997 11.6738 73.4407 11.7851C74.0091 12.2012 74.5365 12.5118 75.0581 12.8224C75.0933 12.8869 75.1401 12.9396 75.3277 13.092C75.7672 13.3674 76.0837 13.5315 76.4001 13.7014C76.4001 13.7014 76.4118 13.6897 76.4529 13.7893C76.7986 14.0472 77.1033 14.2054 77.4022 14.3695C77.4022 14.3695 77.4081 14.3637 77.455 14.4574C77.6894 14.6039 77.8828 14.6567 78.0762 14.7036C78.0762 14.7036 78.0762 14.6918 78.0703 14.8149C78.5157 15.3072 78.9611 15.6764 79.4064 16.0456C79.4064 16.0456 79.4182 16.0397 79.4357 16.1217C79.553 16.2624 79.6467 16.321 79.7405 16.3796C79.7405 16.3796 79.7463 16.3737 79.7698 16.4558C79.887 16.5964 79.9808 16.655 80.0745 16.7136C80.0745 16.7136 80.0804 16.7019 80.1038 16.7898C80.221 16.9305 80.3148 16.9891 80.4086 17.0477C80.4086 17.0477 80.4144 17.0418 80.4379 17.1239C80.5551 17.2645 80.6488 17.3231 80.7426 17.3817C80.7426 17.3817 80.7485 17.3758 80.7719 17.4579C80.8891 17.5985 80.9829 17.6571 81.0766 17.7157C81.0766 17.7157 81.0766 17.7099 81.0825 17.8271C81.5279 18.4248 81.9674 18.9112 82.4069 19.3918C82.4069 19.3918 82.4128 19.3859 82.4421 19.468C82.5593 19.6086 82.653 19.6672 82.7468 19.7258C82.7468 19.7258 82.7527 19.7258 82.7468 19.8372C82.9695 20.2122 83.1922 20.4701 83.409 20.7338C83.409 20.7338 83.4149 20.7221 83.4266 20.8451C84.206 22.3395 84.9796 23.7108 85.7531 25.0821C85.7531 25.0821 85.759 25.0704 85.7531 25.1993C87.0072 29.0261 87.6108 32.8177 87.4468 36.7265C87.4292 37.0781 87.646 37.4415 87.7574 37.799C87.7574 37.9455 87.7573 38.092 87.6343 38.3791C87.2651 40.3365 86.9604 42.1473 86.7963 43.9698C86.6849 45.2415 86.767 46.5249 86.89 47.8259C87.5991 47.949 88.1852 48.0545 88.7653 48.1541C88.7653 48.1541 88.7712 48.1424 88.8181 48.2303C89.0583 48.3768 89.2459 48.4295 89.4393 48.4881C89.4393 48.4881 89.4393 48.4764 89.4627 48.5585C89.5799 48.705 89.6795 48.7636 89.7733 48.8222C89.7733 48.8222 89.7733 48.8046 89.8202 48.8983C90.0604 49.0449 90.248 49.0976 90.4414 49.1503C90.4414 49.1503 90.4472 49.1386 90.4589 49.2324C90.5703 49.3789 90.6758 49.4316 90.7754 49.4844C90.7754 49.4844 90.7813 49.4727 90.7637 49.5781C90.8692 49.8419 90.9864 49.9942 91.1094 50.1524C91.1094 50.1524 91.1153 50.1466 91.1329 50.2345C91.2501 50.3751 91.3497 50.4337 91.4435 50.4923C91.4435 50.4923 91.4493 50.4806 91.4318 50.6213C92.5862 53.78 92.1702 56.6808 90.7637 59.5113C90.7637 59.5113 90.7754 59.5172 90.6875 59.5641C90.5469 59.8044 90.4883 59.9919 90.4296 60.1794C90.4296 60.1794 90.4414 60.1853 90.3417 60.2087C90.1484 60.3259 90.0487 60.4197 89.9491 60.5134C89.8846 60.5427 89.8378 60.5896 89.6971 60.7772C88.7536 61.6621 87.9156 62.4239 87.0776 63.1857C87.0776 63.1857 87.0893 63.1916 86.9662 63.1857C86.2337 63.4612 84.9854 63.2326 85.7297 64.5805C85.7766 64.7446 85.8176 64.9145 85.9641 65.2368C86.1809 65.5533 86.304 65.7174 86.4212 65.8815C86.4212 65.8815 86.4271 65.8639 86.4329 65.9811C86.767 66.5788 87.0951 67.0653 87.4175 67.5458C87.4175 67.5458 87.4292 67.5399 87.4116 67.663C87.7398 68.4893 88.0797 69.1867 88.4254 69.8899C88.4254 69.8899 88.4313 69.8782 88.4196 70.0071C88.9763 71.4194 89.533 72.7029 90.0956 73.9863C90.0956 73.9863 90.078 74.0624 89.9843 74.2031C89.7323 76.7582 89.5682 79.1668 89.3221 81.6632C88.5192 83.4741 87.7984 85.197 87.0717 86.9258C87.0717 86.9258 87.0776 86.9316 86.9779 86.9727C86.7201 87.3184 86.5619 87.6232 86.4036 87.9279C86.4036 87.9279 86.4095 87.9338 86.304 87.9748C85.9289 88.4319 85.6652 88.848 85.3957 89.2699C85.3957 89.2699 85.4015 89.2816 85.3136 89.3051C85.1378 89.4223 85.0499 89.516 84.962 89.6039C84.8858 89.6391 84.8214 89.6918 84.6631 89.8911C84.2705 90.4361 83.995 90.8522 83.7196 91.2741C83.7196 91.2741 83.7255 91.28 83.6434 91.3034C83.5028 91.4206 83.4442 91.5144 83.3856 91.614C83.3856 91.614 83.3914 91.6199 83.3094 91.6433C83.1688 91.7605 83.1101 91.8543 83.0515 91.9481C83.0515 91.9481 83.0574 91.9481 82.9578 91.9891C82.6941 92.3348 82.5358 92.6396 82.3776 92.9502C82.3776 92.9502 82.3893 92.9619 82.2839 93.0029C82.0201 93.4659 81.8678 93.8761 81.7095 94.2922C81.7095 94.2922 81.7271 94.2922 81.6392 94.3449C81.4927 94.5852 81.4341 94.7727 81.3755 94.9661C81.3755 94.9661 81.3931 94.9661 81.2935 95.0423C80.5316 96.9938 80.3617 98.8456 81.3814 100.662C81.3814 100.662 81.3872 100.651 81.3814 100.774C81.7095 101.483 82.0436 102.075 82.3776 102.661C82.3776 102.661 82.3835 102.667 82.3893 102.784C82.9461 103.381 83.5028 103.862 84.0537 104.343C84.0537 104.343 84.0595 104.337 84.1123 104.425C84.3525 104.571 84.5459 104.624 84.7334 104.682C84.7334 104.682 84.7335 104.665 84.8214 104.759C85.507 104.905 86.1106 105.017 86.7084 104.987C87.9449 104.923 89.1814 104.788 90.4179 104.682C90.4179 104.682 90.4238 104.665 90.4765 104.747C90.7168 104.888 90.9043 104.952 91.0919 105.011C91.0919 105.011 91.0919 104.999 91.1153 105.081C91.2325 105.222 91.3263 105.286 91.42 105.345C91.42 105.345 91.42 105.333 91.4493 105.415C91.5665 105.556 91.6603 105.62 91.7599 105.679C91.7599 105.679 91.7599 105.661 91.7599 105.767C91.8654 106.03 91.9768 106.189 92.0881 106.347C92.0881 106.347 92.094 106.335 92.0823 106.487C91.8713 107.97 91.672 109.306 91.4728 110.642C91.0215 112.57 89.4568 113.403 87.9097 114.252C87.4819 114.487 87.0483 114.704 86.474 114.932C86.2337 114.967 86.1341 115.002 86.0344 115.038C86.0344 115.038 85.8821 115.032 85.6652 115.043C82.4714 115.149 79.4885 115.19 76.5173 115.36C75.65 115.407 74.8061 115.799 73.9505 116.034C73.9505 116.034 73.8333 116.022 73.6399 116.04C71.1434 116.479 68.8403 116.889 66.3321 117.341C66.6779 117.827 67.0061 118.284 67.3342 118.747C67.2346 119.521 67.135 120.294 66.8889 121.232C65.9454 122.697 66.5255 123.764 67.3225 124.789C67.3225 124.789 67.3108 124.912 67.3167 125.1C67.4339 125.662 67.5511 126.037 67.6624 126.412C67.6624 126.412 67.6683 126.401 67.6624 126.524C68.1078 127.116 68.5532 127.59 69.0044 128.059C69.0044 128.059 69.1509 128.077 69.2447 128.212C69.567 129.577 69.7545 130.819 70.0417 132.038C70.3113 133.181 70.6863 134.3 71.0145 135.431C70.9032 136.557 70.7918 137.682 70.5926 138.994C70.3347 139.381 70.1706 139.575 70.0007 139.774C70.0007 139.774 70.0065 139.786 69.8835 139.797C67.5745 140.366 65.4179 141.192 63.2027 141.391C60.8235 141.608 58.3856 141.227 55.9711 141.11C55.9711 141.11 55.9653 141.122 55.9125 141.034C55.6781 140.887 55.4906 140.835 55.3031 140.776C55.3031 140.776 55.2913 140.788 55.2503 140.682C54.9046 140.419 54.5998 140.266 54.2951 140.108C54.2951 140.108 54.2834 140.12 54.2834 140.014C54.172 139.75 54.0665 139.586 53.9552 139.422C53.4922 138.01 52.6483 136.721 53.7911 135.097C54.2541 134.441 53.9611 133.146 53.7911 132.179C53.334 129.589 52.7949 127.01 52.203 124.443C52.0682 123.875 51.5818 123.383 51.2595 122.855C51.0426 123.412 50.6207 123.986 50.6441 124.531C50.7965 127.62 51.0544 130.702 51.2829 134.089C50.943 136.293 50.6031 138.197 50.2632 140.108C50.2632 140.108 50.2749 140.114 50.1988 140.143C50.0229 140.237 49.9643 140.325 49.935 140.442C49.935 140.442 49.9468 140.442 49.812 140.436C45.0124 142.065 40.3124 142.235 35.5773 140.77C35.5773 140.77 35.5715 140.782 35.5187 140.682C35.173 140.407 34.8741 140.225 34.5752 140.049C34.5166 139.885 34.458 139.715 34.2939 139.364C34.0888 138.262 33.9892 137.348 33.8896 136.434C33.8896 136.434 33.8954 136.275 34.0009 136.141C34.5049 135.478 35.2081 134.963 35.2433 134.412C35.3664 132.531 35.2491 130.638 35.2257 128.745C35.2257 128.598 35.2316 128.452 35.3429 128.124C35.589 127.655 35.8235 127.379 35.8469 127.081C35.9993 125.182 36.1692 123.277 36.1985 121.373C36.2102 120.81 35.7883 120.242 35.5715 119.679C35.3136 118.929 35.0558 118.173 34.6631 117.294C34.4228 117.065 34.3174 116.966 34.206 116.866C34.1005 117.036 33.995 117.2 33.8896 117.37C33.0867 117.376 32.2897 117.382 31.2055 117.388C30.3499 117.265 29.7756 117.141 29.1544 116.948C29.0079 116.825 28.9142 116.778 28.6798 116.725C27.0916 116.268 25.6383 115.811 24.1791 115.354C23.8802 115.084 23.5754 114.815 23.2942 114.375C23.511 114.129 23.7161 114.059 24.0267 114.018M56.0356 62.4884C56.0356 62.4884 56.0649 62.4825 55.9946 62.2715C55.6781 61.8613 55.3617 61.4452 55.0335 60.8358C54.9046 60.6131 54.7698 60.3845 54.6174 59.8981C54.5354 57.9818 54.7053 56.0362 54.6702 53.8855C55.139 52.983 55.3617 52.1157 56.0297 51.1311C58.4442 47.9548 61.3568 45.6459 65.5937 45.6459C66.8713 45.6459 66.7482 44.9368 66.338 43.8351C66.3497 42.3055 65.6113 41.8601 64.0876 41.7722C62.5288 41.6843 60.8821 41.2682 59.499 40.5592C58.7724 40.1841 58.0984 38.8538 58.1687 38.0158C58.2273 37.2891 59.2763 36.5214 60.0499 36.0174C60.6535 35.6248 61.5091 35.6072 62.5464 35.3494C60.9875 33.4682 59.5518 31.7453 58.0457 29.8055C57.4479 29.2254 56.856 28.6393 56.1997 27.8482C55.6019 27.3149 54.9983 26.7816 54.2951 26.0549C53.8907 25.7443 53.4864 25.4337 52.9941 24.9356C50.9254 22.4098 48.4993 22.8552 45.7449 24.1093C44.5846 24.6367 43.4301 25.1642 42.1115 25.7033C42.0061 25.7619 41.9533 25.8498 41.713 26.0022C40.875 26.4769 40.0429 26.9516 38.9704 27.4848C37.3589 28.6803 35.7473 29.8817 34.206 31.0245C35.8 31.7687 37.2241 32.2493 38.4313 33.058C39.4686 33.7495 40.0956 34.9216 39.5975 36.2577C39.1052 37.5821 37.8921 37.881 36.6966 37.6759C34.7334 37.336 32.782 36.8613 30.8715 36.287C29.9632 36.0116 29.5002 36.1522 29.0431 37.125C28.7911 37.4415 28.5391 37.7579 28.082 38.174C27.8183 38.6018 27.5487 39.0238 27.3729 39.3051C29.5881 39.5277 31.6627 39.7329 33.702 39.9673C33.702 39.9673 33.702 39.9204 33.7724 40.1607C33.995 40.2251 34.2236 40.2896 34.6631 40.3892C37.2006 42.2235 38.0914 44.9837 38.8415 48.0369C38.8884 48.7284 38.9294 49.4258 38.8708 50.1818C38.9118 50.2755 38.947 50.3634 39.0642 50.7209C38.988 51.6878 38.9177 52.6489 38.6891 53.7976C38.2789 54.7879 37.8687 55.7725 37.3706 56.7394C37.3706 56.7394 37.2827 56.7277 37.1537 56.6808C37.1186 56.7922 37.0893 56.9094 36.9838 57.2258C36.1692 57.9056 35.3546 58.5854 34.2881 59.2945C33.9599 59.359 33.6258 59.4293 33.0808 59.4762C32.8171 59.5582 32.5534 59.6403 32.0201 59.7868C31.6568 59.7633 31.2876 59.7399 30.7484 59.5817C30.5316 59.5699 30.3148 59.5582 30.0042 59.5875C30.0042 59.5875 29.9339 59.5172 29.887 59.4059C29.7932 59.4234 29.6936 59.4352 29.424 59.4938C29.3654 59.5055 29.3068 59.5172 29.1251 59.4117C28.9786 59.3179 28.838 59.23 28.7208 59.0015C28.5977 58.9898 28.4747 58.9781 28.2988 58.9663C28.2988 58.9663 28.2637 58.9312 28.1465 58.7261C27.9296 58.6557 27.7187 58.5913 27.2733 58.521C27.0506 58.4682 26.8279 58.4213 26.529 58.1811C26.2243 57.9173 25.9137 57.6595 25.5386 57.1848C25.0874 56.3175 24.642 55.456 24.2201 54.3133C23.9153 53.1881 23.6106 52.0629 23.3059 50.9377C23.1476 50.9495 22.9953 50.9612 22.8371 50.9788C22.7491 51.3714 22.6671 51.764 22.5616 52.4321C22.3506 54.3426 22.1338 56.253 21.8349 58.433C21.7705 58.814 21.6943 59.189 21.6357 59.5699C21.161 62.4825 22.9074 65.9108 25.6324 67.4344C25.8434 67.5692 26.0485 67.6982 26.4294 67.9795C27.0858 68.4834 30.3851 71.0737 30.9243 71.3608C40.9981 76.7699 51.6755 77.5552 62.7046 75.4162C64.2928 75.1056 65.7988 74.3906 67.4632 73.6346C67.51 72.9373 67.5569 72.234 67.6741 71.2319C67.6741 69.4387 67.6741 67.6513 67.6741 65.7936C66.4435 65.9166 65.248 66.0338 63.7712 66.1393C63.0797 66.0573 62.3882 65.9752 61.5619 65.6881C60.2902 65.1255 59.0185 64.557 57.6237 63.8421C57.4362 63.8128 57.2487 63.7835 57.0611 63.5491C56.9791 63.4553 56.8971 63.3557 56.7974 63.2268C56.7974 63.2268 56.7564 63.215 56.6802 63.0275C56.5747 62.9572 56.4634 62.881 56.3579 62.8341M56.3579 62.8341C56.3579 62.8341 56.3814 62.8283 56.3286 62.6583L56.3579 62.8341ZM36.3626 44.843C36.2395 44.6848 36.1106 44.5207 35.8879 44.1574C35.4425 43.9054 34.9972 43.6593 34.5107 43.1553C31.8853 40.6939 28.9728 40.7818 26.0602 43.1494C25.8199 43.6592 25.5855 44.1691 25.2984 44.9075C24.1263 47.6384 24.0443 50.4396 24.9409 53.235C25.7731 55.8369 27.4491 57.6888 30.1917 58.3569C33.1453 59.0718 36.1223 57.4427 36.6673 54.8172C36.6673 54.8172 36.638 54.8524 36.8431 54.8993C36.8666 54.7645 36.8959 54.6297 37.1186 54.4715C37.3061 54.1785 37.4936 53.8855 37.8335 53.3756C37.7808 51.6703 37.7339 49.9708 37.7222 48.2068C37.7222 48.2068 37.687 48.1424 37.7163 47.9666C37.5874 47.6677 37.4585 47.363 37.3003 47.0875C37.3003 47.0875 37.3354 47.0875 37.3413 46.859C37.2299 46.6656 37.1244 46.4722 37.0307 46.1909C37.0307 46.1909 36.9779 46.1206 36.9428 45.9389C36.849 45.8686 36.7611 45.7924 36.6791 45.7455M67.6566 53.2994C67.6331 53.2408 67.6097 53.1822 67.6097 52.8951C67.5511 52.52 67.4983 52.145 67.469 51.5531C67.4456 51.4124 67.4163 51.2718 67.3987 50.8967C67.3753 50.7443 67.3518 50.5978 67.3694 50.17C67.0998 49.3203 67.0998 48.072 66.5197 47.6853C64.8729 46.5835 60.1905 48.2654 58.8192 50.1466C56.1938 52.2036 55.0042 54.9052 55.5023 58.1986C56.3169 63.6018 63.1324 65.6764 67.4046 64.3637C67.6976 64.2699 67.9672 63.6077 67.9847 63.1975C68.0433 61.8672 67.9789 60.5252 68.0433 58.9663C67.9613 58.5796 67.8793 58.1928 67.8265 57.5423C67.8148 57.1907 67.7972 56.8449 67.8851 56.2882C67.8031 55.3564 67.721 54.4187 67.6566 53.2994ZM67.2522 78.3698C67.2932 77.6314 67.3342 76.8871 67.3753 76.0842C64.281 76.6761 61.4036 77.2036 58.5438 77.7954C58.0926 77.8892 57.7058 78.2994 57.2897 78.5631C57.3776 78.821 57.4655 79.073 57.5593 79.3308C59.0712 77.479 60.5949 78.4752 62.0834 78.9616C62.7632 79.1843 63.3844 79.5828 64.1755 80.0751C64.9315 80.5556 65.6934 81.0362 66.5958 81.6164C66.7834 80.4091 66.9299 79.4891 67.2522 78.3698ZM86.011 51.5238C85.9934 51.5589 85.9524 51.6058 85.9583 51.6234C85.9934 51.6879 86.0462 51.7406 86.1751 52.016C86.9135 52.4438 87.6695 52.8423 88.3844 53.2994C89.1052 53.7624 89.4334 54.2957 88.2438 54.7821C87.5347 54.4246 86.8197 54.0613 85.9875 53.6393C85.5656 56.253 85.1847 58.5971 84.8155 60.9471C84.7569 61.328 84.751 61.7207 84.6221 62.1778C84.7159 62.2188 84.8096 62.2539 85.1495 62.3126C86.4622 61.369 87.7749 60.4197 89.2517 59.3121C90.5586 57.4778 91.1739 55.456 90.8399 53.1939C90.4765 50.715 88.8708 49.2265 86.4974 49.2148C86.3743 49.9532 86.2395 50.7092 86.011 51.5238ZM71.9287 98.6698C71.8115 98.6991 71.7412 98.7753 71.4833 98.9394C69.3326 99.9122 67.176 100.885 64.9608 101.887C65.8457 104.126 66.7599 106.329 67.5745 108.568C67.8206 109.242 67.8089 110.015 67.8851 110.742C67.9906 111.738 67.7972 112.904 69.5436 112.213C70.0417 112.014 70.95 112.418 71.4716 112.811C73.1887 114.094 73.4407 114.047 73.9681 112.125C74.4897 112.184 75.0112 112.248 75.5328 112.307C75.4976 111.662 75.4683 111.012 75.6969 110.42C76.1423 110.185 76.7517 110.05 76.9627 109.687C77.0916 109.47 76.6169 108.878 76.3943 108.468C76.2184 108.152 75.861 107.853 75.8493 107.536C75.732 104.536 74.1615 102.11 72.796 99.3965C72.6906 99.2383 72.5851 99.0859 72.4268 98.7343C72.3155 98.7225 72.1983 98.705 71.9287 98.6698ZM49.6186 134.113C49.7358 132.577 49.8764 131.036 49.9468 129.495C49.9526 129.36 49.5424 129.202 49.1322 128.874C48.089 128.885 47.0108 128.733 46.0086 128.95C44.8776 129.19 43.8403 129.759 45.2995 131.042C45.4695 131.194 45.5691 131.528 45.5515 131.775C45.4871 132.917 45.3699 134.054 45.2937 134.957C44.2506 135.701 43.225 136.434 41.883 137.395C46.2255 137.576 46.2255 137.576 48.6692 134.963C48.8978 134.716 49.1263 134.47 49.6186 134.113ZM68.3129 133.691C68.3422 132.402 68.3422 131.112 68.4067 129.823C68.4536 128.839 68.0199 128.387 66.8654 128.223C66.2618 128.194 65.6406 128.065 65.0546 128.153C62.7105 128.51 62.5171 128.944 63.8005 130.784C63.8649 130.872 63.9411 130.972 63.9529 131.071C64.0994 132.32 64.24 133.568 64.3514 134.552C63.4899 135.291 62.6343 136.017 61.597 136.902C65.1952 137.459 66.42 136.832 68.3129 133.691ZM73.1184 94.005C72.4034 92.6454 71.6884 91.2858 71.0204 90.0083C68.6235 91.7136 66.3439 93.3428 63.8064 95.013C63.5602 95.3705 63.0504 95.769 63.109 96.0737C63.3961 97.6208 63.8239 99.1445 64.3279 101.184C67.2991 99.6719 69.9831 98.3065 72.673 96.9469C74.0384 96.2495 74.2025 95.3587 73.1184 94.005ZM20.4519 29.9637C22.0459 27.8306 23.4758 25.5509 25.2632 23.5995C29.9397 18.4893 35.97 15.7232 42.6566 14.3754C45.7977 13.7425 49.015 13.4495 52.2088 13.133C53.9728 12.9572 54.049 11.791 54.3244 10.0622C50.4683 10.3376 46.7705 10.279 43.2074 10.9295C36.597 12.1309 30.9946 15.5357 25.9137 19.8547C22.7374 22.5563 20.7098 25.8557 20.0886 30.1278C20.0944 30.245 20.1003 30.3681 20.1062 30.4853C20.153 30.3505 20.1999 30.2157 20.4519 29.9637ZM40.8985 79.5301C42.2639 79.0202 43.4711 77.5903 45.1472 78.8269C45.2468 78.8972 45.6453 78.5631 45.9032 78.4225C45.7332 78.1646 45.6101 77.7486 45.3816 77.6782C44.6432 77.4555 43.8755 77.3325 43.1078 77.227C38.0328 76.5003 33.3504 74.6719 28.9904 72.0465C26.8338 70.7514 24.8706 69.1339 22.8195 67.663C22.6788 67.6923 22.5323 67.7216 22.3917 67.7568C22.5558 68.4541 22.714 69.1574 22.8898 70.1185C24.4838 77.0805 28.123 82.8939 32.8699 87.9396C35.4953 85.1267 38.0797 82.343 40.8985 79.5301ZM82.1959 71.566C80.1624 77.3208 77.0682 82.472 73.1125 87.0899C71.8935 88.5139 71.5243 89.6625 72.8195 91.2214C73.4758 92.0125 73.7161 93.1436 74.2963 94.0167C75.2046 95.3822 74.9116 96.7125 74.519 98.1365C74.3432 98.7636 74.3431 99.5606 74.5776 100.152C75.7379 103.118 77.0213 106.036 78.2168 108.99C78.3633 109.359 78.3926 109.927 78.2109 110.25C77.4843 111.504 76.6462 112.693 75.5914 114.293C79.049 114.088 82.2721 113.959 85.4836 113.672C87.5464 113.49 89.1111 112.236 90.2538 110.613C91.0919 109.423 91.6544 107.976 90.7344 106.552C89.8319 105.157 88.4899 105.72 87.2534 106.007C85.1085 106.505 83.0047 105.696 81.7388 103.891C79.0372 100.029 78.9611 95.7983 81.604 91.9246C82.3835 90.7819 83.3211 89.7504 84.206 88.6839C86.9486 85.3904 88.5719 81.675 88.8415 77.3383C89.0232 74.3613 87.8687 71.8062 86.6849 68.9816C85.8762 67.5106 85.0733 66.0397 84.2646 64.5688C84.1181 64.6274 83.9716 64.6801 83.8251 64.7387C83.3621 66.9949 82.8992 69.2511 82.1959 71.566ZM67.6155 90.9987C67.9613 90.7233 68.3246 90.4595 68.6528 90.1607C73.8685 85.4138 77.0623 79.4187 79.1427 72.8025C81.1411 66.4558 82.0729 59.9274 81.774 53.2584C81.5513 48.3299 80.4789 43.5889 78.4336 39.0882C75.5621 32.7533 71.4482 27.3149 66.0684 22.9607C62.6695 20.2122 58.8954 17.9384 55.2738 15.4713C54.301 14.809 53.5743 14.8559 53.1875 16.1979C52.7538 17.6923 52.2088 19.1574 51.6169 20.5931C51.2302 21.5425 51.4646 22.0875 52.2733 22.697C56.5865 25.9202 60.2726 29.829 63.2145 34.2828C69.7897 44.2394 72.3155 55.2978 71.0086 67.1473C70.2116 74.3613 68.2602 81.3116 65.3476 87.9748C64.5154 89.8852 63.6364 91.7722 62.7749 93.671C62.8804 93.7882 62.9859 93.8995 63.0914 94.0167C64.533 93.0556 65.9747 92.0946 67.6155 90.9987ZM20.8973 55.3095C21.7705 51.9281 22.3448 48.4354 23.5755 45.1888C28.0117 33.4506 36.0168 25.4044 48.341 22.0231C48.8567 21.8824 49.6069 21.6714 49.7651 21.2964C50.6266 19.2218 51.3415 17.0828 52.2088 14.686C51.0075 14.686 50.1694 14.5746 49.3724 14.7036C46.3134 15.2075 43.2016 15.5533 40.2304 16.3855C31.8736 18.7237 25.4625 23.576 21.3603 31.3937C17.2932 39.141 16.3204 47.5563 15.9629 56.0655C15.8281 59.2418 16.4318 62.4708 16.8889 65.6471C18.0258 73.5409 21.3368 80.3916 27.1444 85.9237C28.4805 87.1954 30.098 88.1799 31.5806 89.2933C31.6802 89.1703 31.7799 89.0414 31.8795 88.9183C31.774 88.7366 31.6978 88.5256 31.5572 88.3733C26.2184 82.4837 22.3213 75.7854 21.1786 67.8622C20.6043 63.8479 20.95 59.6989 20.8973 55.3095ZM43.8989 128.135C45.786 127.877 47.6788 127.614 49.6362 127.344C49.6362 126.325 49.6713 125.106 49.6127 123.893C49.5951 123.588 49.2318 123.013 49.1205 123.037C47.9015 123.277 46.747 123.342 45.7273 122.468C44.4322 123.652 43.143 122.808 41.8947 122.404C40.4238 121.923 39.0056 121.291 37.4585 120.687C37.2358 122.709 37.0072 124.854 36.7552 127.145C37.8218 127.291 38.7184 127.426 39.6209 127.538C40.9571 127.708 42.2932 127.866 43.8989 128.135ZM61.597 9.90984C72.2452 12.5645 79.8928 19.0578 85.2902 28.5221C85.2902 27.69 85.1612 26.9633 84.8975 26.2894C83.2449 22.0582 80.6137 18.5713 77.033 15.735C71.5302 11.369 65.1425 9.13628 58.4032 7.71223C57.8933 7.60674 57.2545 8.11659 56.6802 8.33928C56.7271 8.55611 56.774 8.76708 56.8209 8.98391C58.327 9.2652 59.8331 9.54064 61.597 9.90984ZM65.8809 124.701C65.7285 124.109 65.5176 123.529 65.4414 122.926C65.3124 121.882 64.6737 121.619 63.9822 122.205C62.6519 123.33 60.9231 122.808 59.3877 123.523C57.7409 124.291 55.3675 123.506 53.1699 123.389C53.3692 124.549 53.5977 125.879 53.8556 127.35C58.1512 126.881 62.2944 128.258 66.4025 126.664C66.2735 126.125 66.127 125.545 65.8809 124.701ZM53.3692 8.99563C54.2189 9.03665 55.3734 9.6051 55.2562 7.93492C48.2883 4.57697 27.0975 11.9492 25.7086 17.8564C28.797 15.9928 31.985 13.7249 35.4601 12.0664C40.9922 9.42929 46.8994 8.22793 53.3692 8.99563ZM49.2142 77.9361C48.6223 77.9361 48.0304 77.9361 47.462 77.9361C47.3975 78.8093 47.3389 79.5477 47.2803 80.3154C49.1439 81.6046 51.3181 81.3468 53.334 81.1417C55.6957 80.9073 56.1821 80.0458 55.8246 77.9537C53.7384 77.9537 51.6345 77.9537 49.2142 77.9361ZM36.1692 36.7031C36.9838 36.3749 37.857 36.1288 38.5719 35.6482C38.7302 35.5427 38.484 34.4645 38.15 34.0601C35.9934 31.4523 32.0612 32.1028 30.7309 35.3845C32.4655 35.8182 34.1767 36.2401 36.1692 36.7031ZM59.7335 39.5746C61.4154 40.6412 63.2262 40.9518 65.3652 40.6412C64.8964 39.727 64.533 38.9945 64.1462 38.2678C63.9939 37.9748 63.8298 37.6818 63.6305 37.418C62.9859 36.5566 60.9993 36.4452 59.8389 37.1719C58.8427 37.799 58.8778 38.5549 59.7335 39.5746ZM14.199 43.6417C12.9566 46.3198 13.1793 48.8866 14.7674 51.7523C15.2011 48.2713 15.582 45.2122 15.9688 42.1473C15.7813 42.1004 15.5996 42.0477 15.4121 42.0008C15.0546 42.4755 14.6912 42.9443 14.199 43.6417ZM71.3603 115.407C71.665 114.739 70.7918 113.614 69.8073 113.701C67.8968 113.866 66.7482 113.18 66.5138 111.053C64.996 112.248 66.0508 113.444 66.2091 114.504C66.2735 114.938 66.9006 115.594 67.3108 115.624C68.5708 115.717 69.8483 115.553 71.3603 115.407ZM69.0689 60.994C69.0689 63.7132 69.0689 66.4323 69.0689 69.1457C70.2527 63.2502 70.1648 57.3782 69.0689 52.1918C69.0689 54.5828 69.0689 57.6243 69.0689 60.994ZM42.4104 134.687C40.1308 134.154 39.3103 134.57 37.8746 137.008C39.785 137.799 41.4552 137.043 42.4104 134.687ZM57.7234 135.9C57.5065 136.187 57.2897 136.48 57.0494 136.797C59.4287 137.693 60.9348 136.873 61.5033 134.494C58.9423 134.142 58.8192 134.183 57.7234 135.9ZM38.232 130.163C38.2086 129.665 38.3551 129.032 38.1031 128.716C37.9039 128.464 37.1069 128.411 36.7845 128.61C36.5384 128.768 36.597 129.448 36.5677 129.899C36.5443 130.28 36.4798 130.72 36.6322 131.042C36.8373 131.493 37.2299 131.863 37.5405 132.261C37.6812 132.161 37.8218 132.062 37.9625 131.962C37.0014 131.341 37.0776 130.802 38.232 130.163ZM59.0771 140.272C59.6104 140.155 60.173 140.096 60.6652 139.879C60.759 139.838 60.6652 138.901 60.5187 138.86C59.6807 138.625 58.8075 138.537 57.9402 138.397C57.8464 138.578 57.7527 138.754 57.6589 138.936C58.0515 139.358 58.4325 139.774 59.0771 140.272ZM16.6017 75.2579C16.924 76.0608 17.2405 76.8578 17.5628 77.6607C17.6624 77.6255 17.762 77.5903 17.8617 77.561C17.2639 74.9063 16.6603 72.2458 16.0626 69.591C15.9278 69.6145 15.793 69.6379 15.6641 69.6614C15.9512 71.437 16.2442 73.2186 16.6017 75.2579ZM42.9965 129.214C41.1036 127.919 40.1015 128.106 39.7264 130.058C40.5586 130.058 41.3614 130.116 42.1526 130.028C42.4983 129.993 42.8031 129.647 42.9965 129.214ZM38.3258 138.801C38.3375 139.282 38.232 140.131 38.3903 140.184C38.988 140.389 39.7206 140.483 40.3183 140.313C40.6289 140.225 40.752 139.498 41.0684 138.83C40.0194 138.789 39.3103 138.76 38.3258 138.801ZM60.9465 129.032C60.0265 128.815 59.1123 128.546 58.1805 128.423C57.9812 128.393 57.653 128.868 57.5007 129.173C57.4538 129.266 57.7878 129.729 57.9168 129.718C58.9482 129.624 59.9737 129.454 60.9465 129.032ZM55.6488 128.551C53.9435 128.405 53.9435 128.405 54.846 131.423C54.8108 130.368 57.4304 130.368 55.6488 128.551ZM36.3919 136.299C36.9545 135.39 37.5229 134.482 38.1148 133.527C37.5874 133.322 37.1596 133.152 36.6146 132.941C36.4564 134.125 36.3157 135.191 36.3919 136.299ZM56.1528 134.722C56.3345 134.248 56.522 133.779 56.7213 133.263C56.2876 133.263 55.725 133.263 55.0628 133.263C55.1448 134.271 55.221 135.256 55.2972 136.24C55.3851 136.281 55.4672 136.328 55.5551 136.369C55.7953 135.894 56.0356 135.414 56.1528 134.722ZM42.4925 138.795C42.3987 139.393 42.3049 139.997 42.2053 140.594C42.5687 140.442 43.0961 140.389 43.2602 140.114C43.5942 139.581 43.9986 138.807 42.4925 138.795ZM61.8783 139.147C62.2006 139.528 62.5288 139.915 62.8511 140.295C63.0211 139.827 63.191 139.358 63.361 138.889C62.857 138.895 62.3471 138.895 61.8783 139.147ZM23.511 49.4844C23.4407 49.502 23.3645 49.5137 23.2942 49.5313C23.3176 49.625 23.3469 49.7247 23.3703 49.8184C23.4289 49.754 23.4817 49.6895 23.511 49.4844ZM65.8809 107.765C65.834 107.718 65.8574 107.742 65.8809 107.765V107.765ZM85.5363 29.448C85.5891 29.4305 85.6477 29.4129 85.7004 29.3953C85.6418 29.3719 85.5891 29.3543 85.5363 29.448ZM24.6713 85.6307C24.7123 85.5896 24.7534 85.5545 24.7944 85.5135C24.7534 85.5193 24.7123 85.5252 24.6713 85.6307ZM22.3331 66.7957C22.3682 66.8426 22.4034 66.8953 22.4386 66.9422C22.4268 66.8719 22.421 66.8074 22.3331 66.7957Z" fill="#0B0A0B"/>
<path d="M15.9042 77.5612C16.8008 79.4658 17.6916 81.5051 18.5882 83.6676C17.6916 81.763 16.7949 79.7295 15.9042 77.5612Z" fill="#333D3C"/>
<path d="M85.7999 24.8126C85.0205 23.5761 84.2469 22.1989 83.4617 20.7104C84.2352 21.9586 85.0205 23.3182 85.7999 24.8126Z" fill="#333D3C"/>
<path d="M19.239 85.5953C19.5848 86.2751 19.9188 87.0839 20.2587 88.0215C19.9188 87.3417 19.5789 86.533 19.239 85.5953Z" fill="#333D3C"/>
<path d="M82.4541 19.1341C82.0087 18.7707 81.5692 18.2902 81.1179 17.6983C81.5574 18.0616 82.0087 18.5363 82.4541 19.1341Z" fill="#333D3C"/>
<path d="M79.4298 15.7991C78.9903 15.5471 78.539 15.1779 78.0936 14.6915C78.539 14.9435 78.9785 15.3127 79.4298 15.7991Z" fill="#333D3C"/>
<path d="M72.064 10.7772C71.4487 10.6249 70.8216 10.3553 70.1301 9.98608C70.7279 10.1443 71.3901 10.4022 72.064 10.7772Z" fill="#333D3C"/>
<path d="M12.5579 50.7969C12.886 51.1602 13.2084 51.6408 13.5541 52.2385C13.2318 51.881 12.8919 51.4005 12.5579 50.7969Z" fill="#0B0A0B"/>
<path d="M75.0823 12.5705C74.5607 12.3947 74.0392 12.0841 73.4648 11.668C73.9688 11.8556 74.5256 12.1486 75.0823 12.5705Z" fill="#333D3C"/>
<path d="M18.5768 83.9135C18.8053 84.2709 19.028 84.7515 19.2566 85.3492C19.028 84.9918 18.7995 84.5171 18.5768 83.9135Z" fill="#333D3C"/>
<path d="M73.3706 11.4569C73.0072 11.41 72.5911 11.2518 72.1282 10.994C72.4974 11.0467 72.9076 11.1991 73.3706 11.4569Z" fill="#333D3C"/>
<path d="M83.4559 20.4761C83.2274 20.3354 83.0047 20.0717 82.782 19.7025C83.0047 19.849 83.2332 20.101 83.4559 20.4761Z" fill="#333D3C"/>
<path d="M76.4123 13.4555C76.1134 13.4086 75.7969 13.2445 75.4043 12.9925C75.6856 13.0452 76.0431 13.1859 76.4123 13.4555Z" fill="#333D3C"/>
<path d="M77.4145 14.1236C77.1214 14.0826 76.8226 13.9185 76.4709 13.6665C76.7522 13.7192 77.0746 13.8658 77.4145 14.1236Z" fill="#333D3C"/>
<path d="M13.5604 52.4498C13.6659 52.5084 13.7831 52.6667 13.8945 52.9245C13.789 52.8659 13.6776 52.7077 13.5604 52.4498Z" fill="#0B0A0B"/>
<path d="M78.0472 14.4926C77.9124 14.5278 77.719 14.475 77.4788 14.3344C77.6194 14.2933 77.8069 14.3519 78.0472 14.4926Z" fill="#333D3C"/>
<path d="M81.0834 17.5046C81.019 17.5222 80.9252 17.4695 80.8021 17.3288C80.8666 17.3054 80.9603 17.3699 81.0834 17.5046Z" fill="#333D3C"/>
<path d="M82.753 19.5091C82.6885 19.5266 82.5947 19.468 82.4775 19.3332C82.5361 19.3157 82.6299 19.3743 82.753 19.5091Z" fill="#333D3C"/>
<path d="M80.7492 17.1707C80.6847 17.1941 80.591 17.1355 80.4679 16.9949C80.5324 16.9715 80.6261 17.0301 80.7492 17.1707Z" fill="#333D3C"/>
<path d="M80.4092 16.837C80.3448 16.8545 80.251 16.7959 80.1338 16.6612C80.1983 16.6377 80.2862 16.6963 80.4092 16.837Z" fill="#333D3C"/>
<path d="M79.7407 16.1687C79.6762 16.1862 79.5824 16.1276 79.4594 15.987C79.5297 15.9694 79.6176 16.028 79.7407 16.1687Z" fill="#333D3C"/>
<path d="M80.0747 16.5026C80.0103 16.5202 79.9165 16.4616 79.7935 16.321C79.8638 16.3034 79.9517 16.3678 80.0747 16.5026Z" fill="#333D3C"/>
<path d="M85.1206 89.4574C85.1148 89.393 85.2027 89.2992 85.3785 89.1761C85.3785 89.2406 85.2964 89.3344 85.1206 89.4574Z" fill="#0B0A0B"/>
<path d="M90.1018 60.3669C90.096 60.2907 90.1897 60.1969 90.3831 60.0739C90.389 60.1442 90.2952 60.2497 90.1018 60.3669Z" fill="#0B0A0B"/>
<path d="M13.9297 53.1004C13.9883 53.0887 14.0879 53.1531 14.211 53.3114C14.1465 53.3231 14.0586 53.2528 13.9297 53.1004Z" fill="#0B0A0B"/>
<path d="M67.6804 91.1042C66.1391 92.1356 64.5569 93.1495 63.1152 94.1106C63.0097 93.9934 62.8164 93.7472 62.7109 93.63C63.5723 91.7313 64.5276 89.7798 65.3597 87.8693C68.2723 81.2062 70.2238 74.2559 71.0208 67.0419C72.3335 55.1924 69.8018 44.134 63.2266 34.1774C59.8745 29.999 56.5869 25.9202 52.2737 22.6971C51.465 22.0934 51.2423 21.4371 51.6291 20.4877C52.221 19.0461 52.766 17.5869 53.1996 16.0925C53.5864 14.7446 54.3131 14.6978 55.2859 15.3658C58.9075 17.833 62.6874 20.1068 66.0805 22.8553C71.4603 27.2036 75.5742 32.6478 78.4458 38.9828C80.4851 43.4894 81.5634 48.2245 81.7861 53.153C82.085 59.822 81.1532 66.3504 79.1549 72.6971C77.0744 79.3133 74.0037 85.4022 68.7821 90.1431C68.4598 90.442 68.1258 90.7585 67.6804 91.1042Z" fill="#2B2A2D"/>
<path d="M61.3983 79.8992C62.9806 80.708 64.5629 81.5225 66.3971 82.4602C64.2288 87.2187 62.1953 91.6667 60.0914 96.2905C60.7478 96.144 61.2225 96.0385 61.8613 95.892C63.0978 100.738 64.3284 105.743 65.6236 110.812C56.9328 113.83 48.3005 113.713 39.3988 110.888C38.9358 110.754 38.6721 110.701 38.4084 110.648C38.3967 110.05 38.2853 109.435 38.3967 108.867C39.6449 102.332 40.9342 95.8099 42.2 89.2816C42.2996 88.7658 42.3348 88.2384 42.3992 87.7169C42.2527 87.6524 42.1004 87.5938 41.9539 87.5293C41.7312 87.8751 41.403 88.1915 41.3034 88.5725C40.9459 89.9672 40.6997 91.3913 40.3188 92.7801C40.2368 93.0732 39.6566 93.5596 39.2405 93.8409C39.1116 93.7178 39.1409 93.6592 39.1409 93.6592C37.3125 92.0242 35.6013 90.3364 33.4388 88.4025C36.199 85.6189 38.9827 82.8177 41.9011 80.1278C42.7391 80.9365 43.331 81.8097 44.1573 82.2961C49.1386 85.2321 57.4602 84.3706 61.3983 79.8992Z" fill="#DCB1D3"/>
<path d="M20.9028 55.3505C20.9614 59.5875 20.6156 63.7425 21.1958 67.7568C22.3385 75.6799 26.2356 82.3782 31.5744 88.2678C31.715 88.4202 32.0139 88.7132 32.1194 88.8948C32.0197 89.0179 31.7033 89.3285 31.6037 89.4574C30.1151 88.344 28.4918 87.0899 27.1557 85.8182C21.354 80.2861 17.2459 73.5585 16.9002 65.5416C16.4431 62.3653 15.6578 59.3355 15.9743 55.96C16.3259 47.4509 17.3046 39.0413 21.3716 31.2882C25.4738 23.4705 31.885 18.6241 40.2417 16.28C43.2129 15.4478 46.3247 15.102 49.3838 14.5981C50.1808 14.4691 51.3411 14.3402 52.5425 14.3402C51.6752 16.7371 50.7902 19.3742 49.9288 21.4546C49.7706 21.8355 48.6981 22.2868 48.1824 22.4274C35.8582 25.8029 28.5915 33.8022 23.5926 45.0833C22.1803 48.2537 22.3327 52.9244 20.9028 55.3505Z" fill="#2A2A2C"/>
<path d="M86.8025 69.0869C87.8808 71.7005 89.0412 74.2556 88.8536 77.2327C88.584 81.5693 87.3182 85.3785 84.5756 88.6778C83.6907 89.7444 83.0051 90.9985 82.2256 92.1412C79.5826 96.0149 79.0435 99.9296 81.7451 103.791C83.0109 105.596 85.1089 106.405 87.2596 105.907C88.4961 105.62 89.8382 105.057 90.7406 106.452C91.6607 107.876 91.4028 109.587 90.5648 110.777C89.4221 112.406 87.664 113.684 85.6012 113.865C82.3897 114.147 78.856 114.176 75.4043 114.387C76.4591 112.781 77.4905 111.404 78.2231 110.15C78.4106 109.828 78.1703 109.37 78.0238 109.001C76.8283 106.048 75.6152 103.041 74.449 100.076C74.2146 99.4783 74.3611 98.652 74.5311 98.0308C74.9296 96.6068 75.0526 95.382 74.1443 94.0107C73.5641 93.1375 73.3239 92.0885 72.6675 91.2974C71.3724 89.7385 71.9057 88.4141 73.1246 86.99C77.0803 82.3721 79.9753 77.2737 82.1963 71.5716C82.6241 71.5716 83.1047 71.5364 83.2981 71.4075C84.4818 70.6515 85.6363 69.8604 86.8025 69.0869Z" fill="#2A2A2C"/>
<path d="M82.7706 63.0568C82.8937 60.0622 83.0988 57.0617 83.1164 54.0671C83.1691 45.2357 80.1569 37.4415 75.0116 30.3622C70.0069 23.4764 63.4844 18.4131 56.1532 14.264C55.6844 14.0003 55.0397 13.1447 55.1569 12.8927C55.5847 12.0019 55.4089 10.2673 57.0205 10.5779C60.103 11.1756 63.2676 11.7031 66.1743 12.84C76.5294 16.8718 82.8468 24.7422 86.1403 35.1149C86.7263 36.9551 86.2751 39.1761 86.0641 41.1979C85.4898 46.6538 84.8159 52.0981 84.1185 57.5364C83.8665 59.5113 83.4563 61.4687 83.0343 63.5198C82.8937 63.4143 82.8351 63.2385 82.7706 63.0568Z" fill="#2A2A2C"/>
<path d="M24.0973 113.895C23.693 113.573 23.4058 113.268 23.0249 112.916C22.0755 112.195 21.3078 111.252 20.335 110.918C17.3815 109.91 18.4773 108.796 17.4635 105.773C16.8599 103.968 16.6548 104.302 15.9164 101.155C16.2153 101.014 16.4028 100.645 16.6958 100.258C16.9126 100.141 17.0767 100.147 17.3697 100.293C18.2429 101.395 19.0223 102.256 20.4054 101.518C20.4757 101.495 20.5519 101.489 20.8273 101.518C23.3707 101.237 24.279 99.1035 23.2359 96.3433C23.2183 96.2789 23.2066 96.2144 23.2007 96.1031C24.1208 94.2747 22.8843 92.6865 22.4037 91.1511C21.1731 87.2423 19.5966 83.814 18.1609 79.9697C18.0202 79.5888 18.0378 78.7918 18.2253 78.2761C18.8055 79.3837 19.3388 80.5147 19.9834 81.5871C22.2514 85.3729 25.2518 88.2796 29.6177 89.5454C31.1883 90.0025 31.6337 90.6296 30.403 91.8485C29.1782 93.255 29.2368 94.6146 30.2917 96.0035C31.1121 97.0817 30.9363 98.0604 30.4675 99.2676C29.3892 102.045 28.5219 104.899 27.5666 107.724C27.5315 107.83 27.5373 107.958 27.4729 108.04C26.5645 109.16 25.6738 110.297 26.9572 111.709C27.8186 112.658 28.4398 113.684 29.6588 114.469C31.5282 115.665 32.671 115.893 34.2181 114.176C34.5521 113.801 35.8765 114.323 36.8435 114.622C36.9314 114.938 36.9255 115.067 36.9197 115.196C36.6384 115.266 36.3629 115.337 35.9 115.489C35.5777 115.583 35.437 115.589 35.2964 115.6C33.1515 115.618 30.9773 115.852 28.8676 115.577C27.2736 115.354 25.7617 114.493 24.0973 113.895Z" fill="#2A2A2B"/>
<path d="M41.0626 79.5592C38.4782 82.3429 35.5247 85.2437 32.911 88.0567C28.1583 83.011 24.5073 76.9749 23.0071 69.9249C23.5872 70.3 24.0561 70.7629 24.5483 71.2083C29.178 75.4219 34.9679 78.2114 41.0626 79.5592Z" fill="#2B2A2D"/>
<path d="M36.7967 111.586C36.4626 112.4 36.1052 113.098 34.8804 112.506C34.4643 112.307 33.5032 112.816 33.0285 113.256C31.5459 114.615 31.3935 114.61 30.7782 112.658C28.9966 113.15 28.7271 112.893 29.1138 111.076C27.344 110.601 27.2678 110.373 28.3579 108.972C28.5219 108.761 28.6684 108.527 28.7505 108.281C29.8991 104.712 31.036 101.137 32.2491 97.3335C34.5053 98.7693 36.4158 99.953 38.2676 101.219C38.4962 101.377 38.5372 102.033 38.4434 102.409C37.8867 104.665 37.2538 106.903 36.6795 109.16C36.5505 109.664 36.5447 110.197 36.5505 110.918C36.6326 111.263 36.7674 111.439 36.7967 111.586Z" fill="#ECBEA0"/>
<path d="M34.2417 50.2226C33.6732 50.6328 32.2609 50.4277 31.2705 50.6035C30.7255 52.2913 31.1943 50.92 32.4367 52.4495C34.5464 52.3499 35.3669 53.1352 37.6758 53.0531C37.6113 53.3754 36.9257 56.6513 33.9955 57.9172C32.3547 58.6263 30.7665 58.3743 30.2098 58.2571C29.8816 58.1867 28.6744 57.9113 27.4672 56.9561C26.2834 56.0243 25.463 54.7175 24.959 53.1352C24.0624 50.3398 24.0331 47.5386 25.3165 44.626C25.5743 43.9111 25.9318 43.3602 26.1545 42.9851C28.9381 40.3597 31.9503 40.4945 34.5288 43.0496C34.482 43.1434 36.0349 44.0693 35.906 44.0517C34.9508 44.374 36.6561 49.033 35.8533 49.3787" fill="#F7F5F5"/>
<path d="M19.8249 29.7059C20.3171 25.5217 22.7433 22.4509 25.9196 19.7493C31.0005 15.4302 36.597 12.0254 43.2133 10.8241C46.7822 10.1736 50.4742 10.2322 54.3303 9.95673C54.0548 11.6855 53.9845 13.2268 52.2206 13.4026C49.0267 13.719 45.786 14.012 42.6449 14.645C35.9641 15.9928 30.1507 18.8292 25.4683 23.9335C23.6809 25.885 21.5244 28.7976 19.8249 30.9776C19.7135 31.0303 19.8249 29.7059 19.8249 29.7059Z" fill="#2A2A2B"/>
<path d="M67.9968 63.0918C67.9792 63.502 67.7096 64.1642 67.4166 64.258C63.1445 65.5765 56.3289 63.4961 55.5144 58.0929C55.0162 54.7995 56.9208 51.1426 59.6576 49.2146L61.0875 48.318L63.3906 47.4624L65.1311 47.2397L65.8929 47.3276L66.5317 47.5913L66.8423 47.9722L67.0533 48.5817L67.2877 49.7127L67.3814 50.0819L67.4166 50.9199L67.6334 53.0531L67.8854 56.1063L67.8268 56.9853L67.8385 57.4542L68.0554 58.8782C68.0554 58.8606 68.0554 61.7615 67.9968 63.0918Z" fill="#F6F6F5"/>
<path d="M73.9743 112.125C73.5582 114.182 73.189 114.094 71.4778 112.811C70.9563 112.418 70.0127 112.078 69.5205 112.272C67.7741 112.963 68.0085 111.633 67.903 110.631C67.8269 109.898 67.7214 109.119 67.4752 108.445C66.6607 106.206 65.8637 104.014 64.9788 101.776C67.1939 100.774 69.5088 99.6193 71.7708 98.7461C71.302 100.164 70.2999 101.284 70.8684 102.702C71.0735 103.212 71.2786 103.721 71.4485 104.249C72.2572 106.792 73.1656 109.582 73.9743 112.125Z" fill="#EBBD9F"/>
<path d="M37.8107 53.3346C36.7442 53.3112 35.6659 53.2994 34.5758 53.2936C33.6382 53.2877 32.7064 53.2877 31.7922 53.2936C31.7453 53.4518 31.6984 53.6042 31.6516 53.7624C32.0676 54.155 32.4544 54.8348 32.9115 54.8876C34.3532 55.0458 35.8182 54.9638 37.336 54.9638C37.4943 54.8934 37.5939 54.8348 37.6935 54.7762C37.506 55.0693 37.3185 55.3623 36.961 55.7022C36.7442 55.8428 36.6973 55.9366 36.6562 56.0303C36.6562 56.0303 36.6855 55.9952 36.7031 56.0069C34.4118 56.1065 32.1497 56.001 30.5322 54.0085C29.2957 52.479 28.6276 50.7854 29.1727 49.1035C30.163 48.9277 31.0714 48.9863 31.6398 48.5819C31.9446 48.3651 31.6691 47.3395 31.6223 46.4136C31.5754 45.9448 31.5695 45.7397 31.5637 45.5346C31.5637 45.5346 31.593 45.5639 31.7043 45.5756C33.017 45.0247 34.3356 44.468 35.6483 43.9171C35.7303 43.9523 35.8651 44.0167 36.0116 44.1105C36.7148 44.5559 37.213 45.347 37.547 46.8824C38.1037 49.4199 37.8811 52.5083 37.8107 53.3346Z" fill="#AB5C34"/>
<path d="M41.0039 79.5594C34.792 78.2291 29.1778 75.4161 24.5482 71.2143C24.0559 70.7689 23.5812 70.3001 23.0011 69.7961C22.7374 69.046 22.5733 68.3486 22.415 67.6513C22.5557 67.622 22.7022 67.5927 22.8428 67.5575C24.8939 69.0284 26.8571 70.6459 29.0137 71.941C33.3738 74.5605 38.0562 76.3948 43.1312 77.1215C43.8989 77.2328 44.6666 77.3559 45.405 77.5727C45.6335 77.6431 45.8855 78.0826 46.0555 78.3404C45.7976 78.4869 45.3405 78.9851 45.2467 78.9147C43.559 77.6782 42.4865 79.0378 41.0039 79.5594Z" fill="#1C1C1C"/>
<path d="M61.5678 10.5428C59.9328 10.2205 57.9403 9.92752 56.4342 9.65209C56.3873 9.43526 56.7448 8.45073 56.6979 8.23976C57.2781 8.01707 57.9168 7.50722 58.4208 7.6127C65.1602 9.03675 71.5537 11.2754 77.0507 15.6354C80.6255 18.4718 83.2567 21.9528 84.9152 26.1898C85.1789 26.8638 85.3078 27.5904 85.3078 28.4226C79.9047 18.9582 72.3449 13.2444 61.5678 10.5428Z" fill="#282729"/>
<path d="M53.8153 9.44684C47.4861 8.685 41.1687 9.72813 35.6308 12.3711C32.1556 14.0296 28.3582 16.4733 25.2639 18.3369C25.4983 12.0957 48.7578 4.34252 55.7257 7.70047C55.8488 9.37065 54.8115 9.49372 53.8153 9.44684Z" fill="#282729"/>
<path d="M64.064 94.7549C66.3495 93.1258 68.7112 91.5435 71.108 89.8323C71.782 91.1098 72.4969 92.4694 73.1122 94.0048C70.5103 96.3606 67.4864 97.7671 64.064 98.9802C64.064 97.4214 64.064 96.0325 64.064 94.7549Z" fill="#DAB0D3"/>
<path d="M61.3275 79.665C57.4597 84.2477 49.1381 85.1033 44.151 82.1673C43.3247 81.6809 42.7328 80.8077 42.012 80.0049C43.0141 79.202 43.8873 79.5009 44.8483 80.1514C49.1146 83.0288 53.7267 82.8882 57.8875 79.7881C58.9951 78.9618 60.091 78.9969 61.3275 79.665Z" fill="#E4C0DC"/>
<path d="M39.2232 93.4485C40.7059 94.3803 39.61 95.5699 39.4928 96.8123C39.5162 97.3221 39.3521 97.7265 39.1939 98.0019C38.4672 97.8027 37.4886 97.3163 36.9318 96.9471C34.9276 95.6168 32.9703 94.2162 31.0012 92.839C31.3763 92.253 31.7513 91.6611 32.0912 91.1278C34.4998 91.9775 36.6916 92.8331 39.0708 93.5774C39.188 93.5247 39.2349 93.4543 39.2232 93.4485Z" fill="#DAB0D3"/>
<path d="M49.39 77.8364C51.652 77.8481 53.7559 77.8481 55.8422 77.8481C56.2055 79.9403 55.7836 81.0068 53.416 81.2471C51.4001 81.4464 49.1497 81.6046 47.2861 80.3212C47.3447 79.5535 47.4151 78.7037 47.4795 77.8364C48.0421 77.8306 48.634 77.8306 49.39 77.8364Z" fill="#E0B195"/>
<path d="M89.2109 59.4294C87.8982 60.3729 86.6324 61.5098 85.1498 62.4006C84.9798 62.342 84.552 62.2306 84.552 62.2306C84.5813 61.8438 84.7688 61.2226 84.8274 60.8417C85.1966 58.4917 85.5776 56.1476 85.9995 53.5339C86.8317 53.9559 87.5408 54.3134 88.3846 54.8466C88.7187 56.4699 89.0175 57.976 89.2109 59.4294Z" fill="#BB7761"/>
<path d="M73.9746 112.125C73.1073 109.511 72.2576 106.792 71.4371 104.249C71.2672 103.727 71.0621 103.217 70.8569 102.702C70.2885 101.278 70.2182 99.9767 71.7184 98.9101C71.7477 98.664 71.818 98.5878 72.07 98.6288C72.3044 98.7284 72.322 98.7167 72.4275 98.7343C72.533 98.8925 72.7029 99.1328 72.7147 99.4668C72.908 103.358 74.1563 107.114 75.6682 110.502C75.5452 111.17 75.5042 111.656 75.5335 112.307C75.0178 112.248 74.5548 112.26 73.9746 112.125Z" fill="#E6B195"/>
<path d="M36.1516 36.8084C34.2998 36.363 32.3659 35.8708 30.6312 35.4371C31.9674 32.1554 36.0051 31.3525 38.1617 33.9545C38.4957 34.3588 38.8942 35.5309 38.736 35.6364C38.021 36.1169 37.1068 36.4978 36.1516 36.8084Z" fill="#5F5142"/>
<path d="M89.2112 59.4295C88.9358 58.064 88.4845 56.347 88.2736 54.7764C89.2171 54.0732 89.0764 53.7743 88.3556 53.3172C87.6406 52.8601 86.9257 52.6374 86.1756 52.0162C86.0701 51.8052 85.9705 51.6822 85.9587 51.6236C86.0935 50.8676 86.3924 49.8538 86.5213 49.1154C88.8947 49.1329 90.5005 50.6156 90.8638 53.0945C91.192 55.3507 90.6001 57.5131 89.2112 59.4295Z" fill="#CA8871"/>
<path d="M64.0643 94.7553C64.1932 96.0153 64.0643 97.4217 64.0643 98.9806C67.4926 97.7616 70.5047 96.238 73.1126 94.0052C74.2846 95.0659 74.0326 96.2497 72.6613 96.9412C69.9715 98.3008 67.2874 99.6721 64.3163 101.178C63.8123 99.1388 63.3962 97.5096 63.1149 95.9567C63.0622 95.6636 63.6951 95.1304 64.0643 94.7553Z" fill="#E4C0DC"/>
<path d="M64.0229 80.0459C63.3783 79.7236 62.6575 79.2841 61.9777 79.0673C60.4833 78.5809 59.0827 77.5319 57.5766 79.3837C57.4887 79.1259 57.3129 78.7508 57.225 78.4929C57.6411 78.2292 58.1099 77.7839 58.5611 77.6901C61.421 77.0923 64.2984 76.5708 67.3926 75.9789C67.3516 76.7817 67.5391 77.4908 67.334 78.282C66.1971 78.8153 64.9899 79.5712 64.0229 80.0459Z" fill="#1C1C1C"/>
<path d="M59.6514 39.6392C58.8896 38.7074 58.8544 37.6936 59.8507 37.0665C61.0052 36.334 62.9977 36.4512 63.6423 37.3127C63.8415 37.5764 64.0056 37.8694 64.158 38.1624C64.5389 38.8891 65.0253 39.7857 65.4883 40.6999C63.3551 41.0046 61.4271 40.7995 59.6514 39.6392Z" fill="#5F5142"/>
<path d="M55.9417 51.0611C56.3402 48.4181 58.274 46.8475 60.4892 45.2477C61.2569 44.8902 61.843 44.6441 62.4231 44.4038C62.681 44.3452 62.9447 44.2866 63.2963 44.187C64.2808 44.1108 65.1775 44.0756 66.2206 44.017C66.7539 44.8257 66.877 45.5348 65.5994 45.5407C61.3683 45.5407 58.4557 47.8497 55.9417 51.0611Z" fill="#8D5647"/>
<path d="M37.8746 42.7041C38.3375 44.4035 38.7067 46.0386 38.9822 47.7498C38.0972 45.0013 37.2827 42.4169 34.5869 40.4596C34.2119 40.2662 33.9247 40.1431 33.7137 40.0669C33.7137 40.0669 33.7137 39.979 33.6903 39.856C32.2956 39.393 30.9242 39.0707 29.5647 38.6956C29.1193 38.5726 28.6446 38.2737 28.2227 38.0686C28.4746 37.7521 28.8028 37.4532 29.1486 37.0899C30.0686 37.2423 30.8949 37.4474 31.7271 37.6642C34.5107 38.3792 36.3567 40.2545 37.8746 42.7041Z" fill="#8D5647"/>
<path d="M75.4688 110.584C73.8338 107.167 72.8551 102.942 72.6676 99.1562C74.1151 101.594 75.7443 104.436 75.8615 107.437C75.8732 107.753 76.2365 108.046 76.4065 108.369C76.6292 108.779 77.2621 109.517 77.1331 109.734C76.9222 110.097 76.0431 110.379 75.4688 110.584Z" fill="#D9A78C"/>
<path d="M86.7495 69.1398C85.636 70.0188 84.4816 70.6517 83.2978 71.4077C83.1044 71.5308 82.5008 71.6069 82.196 71.5718C82.5945 69.2335 83.374 66.8953 83.8369 64.6391C83.9834 64.5805 84.1299 64.5277 84.2765 64.4691C85.0852 65.9342 85.8939 67.5634 86.7495 69.1398Z" fill="#1C1C1C"/>
<path d="M14.1995 43.5304C14.6273 42.9502 15.0551 42.4755 15.4185 42.0067C15.606 42.0536 15.7877 42.1063 15.9752 42.1532C15.5943 45.2123 15.2134 48.2772 14.7738 51.7582C13.1798 48.8867 12.8927 46.3199 14.1995 43.5304Z" fill="#CA8871"/>
<path d="M69.0811 60.7242C69.0811 57.5186 69.0811 54.4771 69.0811 52.092C70.1769 57.2783 70.2648 63.1503 69.0811 69.0458C69.0811 66.3266 69.0811 63.6075 69.0811 60.7242Z" fill="#202121"/>
<path d="M39.0703 98.8806C39 99.285 38.8711 99.789 38.6953 100.768C35.8472 98.5232 33.1866 96.5776 30.7018 94.5382C30.4733 94.3506 30.8952 93.2079 31.0066 92.8387C33.1866 94.4971 35.0209 96.5248 37.0896 98.0778C37.6287 98.4821 38.414 98.6228 39.0703 98.8806Z" fill="#CEACCB"/>
<path d="M39.0702 98.8808C38.3611 98.7225 37.6286 98.4823 37.0836 98.0721C35.0149 96.5191 33.0048 94.8782 30.9244 93.1611C30.8717 93.0498 30.9479 92.8798 31.0006 92.8329C33.0283 94.1632 34.9329 95.6107 36.9312 96.941C37.4879 97.3102 38.1853 97.4802 38.9706 97.6618C39.123 97.5798 39.2402 97.527 39.2402 97.527C39.205 97.9138 39.1581 98.4002 39.0702 98.8808Z" fill="#ECCCE3"/>
<path d="M64.0236 80.0458C64.9143 79.4832 66.2856 78.7155 67.3288 78.2818C67.2643 79.2487 66.7896 80.5029 66.5962 81.7101C65.6937 81.1358 64.8557 80.6142 64.0236 80.0458Z" fill="#2B2A2D"/>
<path d="M16.5783 75.0236C16.256 73.1131 15.9629 71.3316 15.6699 69.5501C15.8047 69.5266 15.9395 69.5032 16.0684 69.4797C16.6662 72.1344 17.4456 75.0822 18.0433 77.7369C17.9437 77.772 17.6683 77.5201 17.5687 77.5552C17.2522 76.7524 16.9357 75.9554 16.5783 75.0236Z" fill="#2A2A2B"/>
<path d="M28.0648 37.9044C28.5864 38.0626 29.1197 38.4669 29.565 38.59C30.9188 38.9709 32.2959 39.2874 33.7083 39.7386C33.72 39.8383 33.7259 39.9789 33.6438 40.0902C33.3274 40.5532 32.0322 40.0961 30.5906 39.7738C29.817 39.6038 28.7036 39.4046 27.3147 39.3284C27.4846 39.0471 27.6898 38.379 28.0648 37.9044Z" fill="#0B0A0B"/>
<path d="M24.2259 54.3428C23.763 53.6513 23.3117 52.825 22.7257 52.0222C22.6788 51.653 22.7667 51.2603 22.8546 50.8677C23.0129 50.856 23.1652 50.8442 23.3235 50.8267C23.6282 51.9518 23.9329 53.0829 24.2259 54.3428Z" fill="#1A1513"/>
<path d="M56.042 62.2656C55.7373 61.9785 55.3915 61.58 55.0575 61.0584C55.374 61.3338 55.6904 61.7499 56.042 62.2656Z" fill="#D9A78C"/>
<path d="M15.2306 67.3408C15.213 66.8954 15.2951 66.4032 15.465 65.823C15.4767 66.2508 15.4064 66.7724 15.2306 67.3408Z" fill="#080A0A"/>
<path d="M23.5401 49.4493C23.4991 49.5841 23.4405 49.6485 23.3877 49.713C23.3643 49.6192 23.335 49.5196 23.3115 49.4259C23.3818 49.4083 23.4522 49.3965 23.5401 49.4493Z" fill="#1A1513"/>
<path d="M33.1981 59.3823C33.3036 59.394 33.2684 59.5053 33.2626 59.5639C33.0165 59.6401 32.7762 59.6577 32.4187 59.6518C32.5593 59.5405 32.8289 59.4584 33.1981 59.3823Z" fill="#1A1513"/>
<path d="M30.8481 59.5524C30.8833 59.6462 30.8305 59.6755 30.6137 59.6931C30.3969 59.6931 30.3441 59.7048 30.2914 59.7165C30.2914 59.7165 30.1976 59.5876 30.1566 59.5173C30.3266 59.4587 30.5434 59.4704 30.8481 59.5524Z" fill="#1A1513"/>
<path d="M28.223 58.7203C28.0706 58.7496 27.8655 58.6734 27.5901 58.5035C27.7366 58.4859 27.9534 58.5504 28.223 58.7203Z" fill="#1A1513"/>
<path d="M85.5483 29.284C85.6011 29.2488 85.6597 29.2664 85.7124 29.284C85.6597 29.3016 85.6011 29.3191 85.5483 29.284Z" fill="#282729"/>
<path d="M20.2531 29.9639C20.2121 30.1104 20.1594 30.2452 20.1125 30.3858C20.1066 30.2686 20.1008 30.1455 20.1535 29.9814C20.2238 29.9346 20.2473 29.9521 20.2531 29.9639Z" fill="#2A2A2B"/>
<path d="M22.386 66.6607C22.4329 66.7017 22.4446 66.7662 22.4505 66.8365C22.4153 66.7838 22.3802 66.7369 22.386 66.6607Z" fill="#1C1C1C"/>
<path d="M56.3642 62.6347C56.2997 62.6523 56.2118 62.582 56.0829 62.4296C56.1415 62.4179 56.2411 62.4824 56.3642 62.6347Z" fill="#D9A78C"/>
<path d="M56.7334 63.0101C56.669 63.0277 56.5694 62.9456 56.417 62.7874C56.4815 62.7757 56.5869 62.846 56.7334 63.0101Z" fill="#D9A78C"/>
<path d="M29.9219 59.3588C29.8867 59.4233 29.8223 59.435 29.6875 59.394C29.7051 59.3354 29.8047 59.3178 29.9219 59.3588Z" fill="#1A1513"/>
<path d="M28.7211 58.9603C28.6391 59.0189 28.5746 59.0131 28.434 58.931C28.4867 58.8724 28.6156 58.8842 28.7211 58.9603Z" fill="#1A1513"/>
<path d="M37.2239 56.5986C37.2649 56.6807 37.2415 56.7451 37.1419 56.8624C37.1009 56.8038 37.1302 56.6924 37.2239 56.5986Z" fill="#1A1513"/>
<path d="M38.9294 50.0473C39.0055 50.0707 39.0231 50.1293 39.0231 50.2641C38.9587 50.2641 38.9176 50.1704 38.9294 50.0473Z" fill="#1A1513"/>
<path d="M39.6569 64.5806C41.4795 64.645 43.22 64.8267 44.9663 64.9439C46.1149 65.0201 47.2753 65.0142 48.6876 65.0435C49.092 65.0259 49.2326 65.0025 49.3733 64.9849C50.3695 65.2897 51.3599 65.5944 52.4265 65.9695C53.036 67.7158 52.3269 68.7121 50.8559 69.5267C47.7558 71.2437 42.6691 70.9507 39.9734 68.7589C38.3969 67.4697 38.2739 66.2097 39.6569 64.5806ZM44.8491 66.198C43.5892 66.0398 42.3351 65.8464 41.0751 65.7526C40.7586 65.7292 40.2429 65.946 40.1433 66.1921C40.032 66.4617 40.1726 67.077 40.3953 67.2118C41.4033 67.8096 42.4757 68.2843 43.6946 69.0227C45.7223 69.7493 47.6855 69.5325 49.6897 68.8C48.5821 66.7899 47.1874 65.8054 44.8491 66.198Z" fill="#7A1A25"/>
<path d="M47.6322 61.2986C47.4681 61.6795 47.263 61.9667 46.9348 62.1542C46.255 61.4862 45.6983 60.4723 45.1298 60.4606C44.4149 60.4489 43.6823 61.2635 42.9615 61.7206C42.774 61.6385 42.5923 61.5506 42.3462 61.4276C42.9791 59.0834 44.8075 58.5795 47.1575 60.1559C47.3685 60.5485 47.4739 60.8767 47.6322 61.2986Z" fill="#1A1513"/>
<path d="M30.239 59.7517C30.3445 59.699 30.4031 59.6931 30.532 59.7165C30.4676 59.7693 30.3269 59.781 30.239 59.7517Z" fill="#E5A98C"/>
<path d="M45.3468 63.5254C46.4251 63.6485 47.521 63.9004 48.6461 64.2755L45.3468 63.5254Z" fill="#EBB496"/>
<path d="M49.2735 64.9382C49.1856 65.0144 49.0391 65.0378 48.793 65.032C48.8633 64.9616 49.045 64.9206 49.2735 64.9382Z" fill="#E6B195"/>
<path d="M43.0847 61.7384C43.6766 61.2637 44.4091 60.4491 45.1241 60.4608C45.6925 60.4725 46.2493 61.4864 46.8412 62.1779C45.6574 62.1251 44.4384 61.9435 43.0847 61.7384Z" fill="#D7957B"/>
<path d="M44.995 66.1571C47.1399 65.5886 48.6401 66.8076 49.7536 68.8118C47.7435 69.5443 45.4462 69.8373 43.3951 68.888C43.8347 67.9386 44.5379 66.8896 44.995 66.1571Z" fill="#C34B95"/>
<path d="M44.9946 66.1805C44.6313 67.0009 43.9398 68.0499 43.4124 68.8938C42.2989 68.4836 41.3495 67.8155 40.3416 67.2236C40.113 67.0888 39.9724 66.4735 40.0896 66.2039C40.1892 65.9636 40.7049 65.741 41.0214 65.7644C42.2813 65.8582 43.6409 65.9343 44.9946 66.1805Z" fill="#93344E"/>
<path d="M30.8543 59.2358C35.2463 59.2358 38.8067 54.8988 38.8067 49.5488C38.8067 44.1987 35.2463 39.8617 30.8543 39.8617C26.4623 39.8617 22.9019 44.1987 22.9019 49.5488C22.9019 54.8988 26.4623 59.2358 30.8543 59.2358Z" stroke="#0B0A0B" stroke-miterlimit="10"/>
<path d="M67.915 57.8527C66.8485 57.8292 65.3951 58.3508 64.3051 58.3449C63.3674 58.3391 62.4357 58.3391 61.5214 58.3449C61.4746 58.5032 61.4277 58.6555 61.3808 58.8138C61.7969 59.2064 62.1837 59.8862 62.6408 59.9389C64.0824 60.0972 65.5475 60.0151 67.0653 60.0151C67.2235 59.9448 68.0498 59.8627 68.0498 59.7455C68.0498 60.2554 68.0381 60.1089 68.0381 61.0114C67.8213 61.152 66.4207 60.9938 66.3796 61.0875C66.3796 61.0875 66.4089 61.0524 66.4265 61.0641C64.1351 61.1637 61.8731 61.0582 60.2556 59.0657C59.0191 57.5362 58.351 55.8426 58.896 54.1607C59.8864 53.9849 60.7948 54.0435 61.3632 53.6391C61.668 53.4223 61.3925 52.3967 61.3456 51.4708C61.2988 51.002 61.2929 50.7969 61.287 50.5918C61.287 50.5918 61.3163 50.6211 61.4277 50.6328C62.7404 50.0819 65.5358 48.6696 66.8543 48.1129C66.9422 48.148 67.3876 49.8241 67.3817 49.9999C67.37 50.4218 67.5224 50.7969 67.6806 52.8714C67.792 54.3599 67.8506 55.1276 67.8799 56.1063C67.9092 56.8037 67.915 57.4073 67.915 57.8527Z" fill="#AB5C34"/>
<path d="M15.231 67.3408C15.231 67.3408 13.7659 71.7946 15.9049 77.567C18.0439 83.3394 21.1323 91.3211 21.1323 91.3211" fill="#0B0A0B"/>
<path d="M20.8444 90.5712L23.0069 96.2967C23.0069 96.2967 23.7277 100.575 20.8444 101.225C17.9612 101.882 17.9377 100.17 17.9377 100.17C17.9377 100.17 16.795 99.1917 15.9569 101.003C15.1189 102.813 18.5003 111.375 21.4598 113.333C24.4251 115.29 25.9663 115.77 25.9663 115.77V114.651C25.9663 114.651 22.919 113.11 21.1316 111.047C19.3442 108.984 17.8908 107.121 17.2345 105.157C16.5781 103.194 16.9825 101.483 17.1817 101.436C17.381 101.383 18.389 102.444 19.6958 102.139C21.0027 101.835 22.0634 103.095 23.3175 101.284C24.5774 99.473 23.9738 95.447 23.9738 95.2477C23.9738 95.0485 21.8114 89.6628 21.8114 89.6628L20.6569 88.9069L20.8444 90.5712Z" fill="#0B0A0B"/>
<path d="M67.6687 66.1397C67.6687 66.1397 63.3028 66.4855 61.0876 65.4717C58.8724 64.4578 56.2353 64.3992 54.7058 60.174C53.1762 55.9487 55.3856 52.1395 55.3856 52.1395C55.3856 52.1395 61.0232 46.2206 66.526 45.3474C72.0288 44.4742 58.7084 49.643 58.7084 49.643L56.5752 51.3894L56.0419 52.2098L55.3621 53.4346L55.1453 55.1107L54.7585 56.5523L55.3621 57.4899V58.5624L55.7606 59.4707L56.7334 62.7525L57.4074 63.2623L58.7142 63.907L61.2752 64.5868L64.4866 65.3076L67.8621 65.4072L67.6687 66.1397Z" fill="#0B0A0B"/>
<path d="M13.6487 42.0535C13.3616 41.655 15.1782 40.5181 16.4323 38.1271C17.4169 36.2518 17.3173 35.0153 17.6923 32.6419C18.3487 28.4342 19.7493 25.3458 20.8627 22.8786C21.8473 20.7045 22.8845 18.4072 24.8888 15.9869C25.4806 15.2661 27.9537 12.3711 32.9408 9.74571C33.7378 9.32963 35.6131 8.35682 38.3264 7.47192C46.6246 4.76446 54.3895 5.497 57.2434 5.87206C65.3424 6.92691 70.9624 9.92152 72.4392 10.7009C74.9122 12.0136 77.9947 13.678 81.0421 16.989C81.0421 16.989 83.3862 19.4738 84.8454 22.2223C85.5603 23.5643 86.0702 24.9415 86.0702 24.9415C86.0936 25.0001 86.2636 25.4689 86.4335 26.0022C87.084 28.0708 87.4005 30.286 87.4825 30.8779C87.9689 34.3648 88.2092 36.1053 88.0861 37.8224C87.9807 39.2816 87.7111 40.8111 87.4591 42.2C86.9844 44.8371 86.5566 46.2671 87.3302 47.0289C87.758 47.4508 88.133 47.1754 89.0414 47.6325C90.5709 48.4002 91.3679 49.6953 91.6082 50.0997C92.8388 52.1566 92.5282 54.3249 92.3641 55.4853C92.0184 57.8939 90.9225 59.441 89.6977 61.1698C89.2406 61.8203 85.9354 64.3285 85.2849 64.053C85.0739 63.9651 86.4101 62.8868 86.4277 62.6466C86.457 62.0723 87.588 62.1953 88.6429 61.1698C89.1351 60.6892 89.4809 60.238 89.6508 60.0153C89.8149 59.7985 90.0845 59.441 90.3541 58.9604C90.6764 58.3861 90.6881 58.1986 91.2624 56.7452C91.7019 55.6259 91.7312 55.6377 91.7664 55.3857C91.8543 54.7703 91.6785 54.6297 91.5144 53.3756C91.3679 52.2445 91.491 52.2094 91.3152 51.6116C91.1804 51.1545 90.987 50.8029 90.6119 50.0997C90.2251 49.3789 90.0259 49.0214 89.8618 48.8749C89.2816 48.365 88.8538 48.6346 87.6466 48.0896C87.1075 47.8435 86.8262 47.7145 86.5918 47.4332C86.0057 46.7359 86.1874 45.6986 86.3398 44.8664C86.8438 42.1648 87.084 41.0221 87.1954 40.3892C87.547 38.4318 87.4591 36.8906 87.3477 34.7516C87.295 33.7202 87.2247 32.554 86.9434 31.0303C86.7031 29.7293 86.2753 28.3697 85.4314 25.6974C84.8454 23.8456 84.5465 22.9079 84.3238 22.4274C83.2045 20.0305 81.7687 18.5596 81.3527 18.1494C80.8077 17.6102 80.3154 17.2176 79.5887 16.6374C78.4694 15.7466 77.6197 15.1782 77.0219 14.7738C74.6192 13.1447 74.2617 12.6817 72.9431 11.8027C70.892 10.4314 69.1926 9.84534 65.9987 8.73188C62.881 7.64773 60.2908 7.07342 59.2535 6.86831C56.1534 6.25884 47.5153 4.55935 37.8166 8.2279C35.1208 9.24759 30.6553 10.994 26.5941 15.272C24.9884 16.9656 22.0817 20.0305 20.7572 24.7832C19.8548 28.0181 18.4307 36.5448 17.3876 39.4281C17.3173 39.6215 17.0711 40.2778 16.4792 40.8873C15.4654 41.9422 13.889 42.3934 13.6487 42.0535Z" fill="#0B0A0B"/>
</g>
</svg>
