<svg width="2082" height="1716" viewBox="0 0 2082 1716" fill="none" xmlns="http://www.w3.org/2000/svg">
<path d="M1983.1 1716H98.9C21.9 1716 -25.2 1631.4 15.4 1565.9L957.5 46.5C995.9 -15.5 1086.1 -15.5 1124.6 46.5L2066.7 1565.9C2107.3 1631.4 2060.2 1716 1983.1 1716Z" fill="url(#paint0_radial_125_2704)"/>
<path d="M2032.7 1587L1090.5 67.6C1079.6 50.1 1061.6 40 1041 40C1020.4 40 1002.3 50 991.5 67.6L49.3004 1587C38.0004 1605.2 37.5004 1627.3 47.9004 1646.1C58.3004 1664.9 77.4004 1676 98.8004 1676H1983.1C2004.6 1676 2023.6 1664.8 2034 1646.1C2044.5 1627.3 2044 1605.2 2032.7 1587ZM173.8 1576L1041 177.4L1908.2 1576H173.8Z" fill="#0F0F0E"/>
<path d="M1041 1419C1099.54 1419 1147 1371.54 1147 1313C1147 1254.46 1099.54 1207 1041 1207C982.458 1207 935 1254.46 935 1313C935 1371.54 982.458 1419 1041 1419Z" fill="#0F0F0E"/>
<path d="M1065 1147H1017C1004.7 1147 994.5 1137.3 993.8 1125L964.6 575.5C963.4 553.5 981 534.9 1003.1 534.9H1078.9C1101 534.9 1118.5 553.4 1117.4 575.5L1088.2 1125C1087.5 1137.3 1077.3 1147 1065 1147Z" fill="#0F0F0E"/>
<defs>
<radialGradient id="paint0_radial_125_2704" cx="0" cy="0" r="1" gradientUnits="userSpaceOnUse" gradientTransform="translate(1041 858) scale(953.671 953.671)">
<stop stop-color="#FCEA10"/>
<stop offset="1" stop-color="#FCEA10"/>
</radialGradient>
</defs>
</svg>
