<svg width="460" height="377" viewBox="0 0 460 377" fill="none" xmlns="http://www.w3.org/2000/svg">
<path fill-rule="evenodd" clip-rule="evenodd" d="M175.18 227.86C176.63 228.07 177.63 228.58 178.76 229.08C180.96 229.25 183.17 229.42 185.37 229.59C186.45 230.45 187.45 231.44 188.63 232.17C190.67 233.44 192.47 232.75 193.85 233.38C198.58 235.56 198.33 237.75 200.01 242.62C204.15 242.84 204.21 242.86 208 244.55C214.48 244.78 216.35 243.49 219.8 248.94C223.61 249.56 225.35 248.99 225.87 252.98C227.74 254.02 229.6 255.07 231.47 256.11C235.71 258.48 238.33 259.59 233.99 262.56C233.37 263.64 232.58 265.02 231.96 266.11C231.85 267.81 231.75 269.52 231.64 271.22C234 265.03 233.45 264.73 238.57 260.88C238.34 259.74 238.45 258.75 238.81 257.88C237.18 257.21 236.67 256.17 236.53 254.88C236.15 251.31 237.15 251.71 240.16 250.68C242.17 248.69 242.42 247.79 243.7 245.27C240.83 248.93 238.66 249.47 237.39 250.04C236.12 250.62 235.51 250.67 234.58 250.81C234.69 251.6 234.88 253.37 234.36 253.87C231.77 256.37 227.76 250.47 226.55 248.74C221.35 247.79 208.2 229.89 206.08 225.74C205.5 224.61 196.59 232.45 195.51 231.77C192.93 231.67 191.51 232.12 189.28 230.73C187.73 229.77 186.4 228.49 184.96 227.36C180.87 227.29 178.55 226.69 176.91 224.81C174.39 221.91 172.9 218.01 176.55 215.72C180.25 207.6 179.59 209.15 190.74 207.31C193.25 206.9 195.5 205.47 196.97 203.39C203.39 194.32 205.19 189.07 215.45 184.73C218.6 183.4 221.25 183.69 224.6 183.01C231.24 181.66 230.87 181.83 237.11 184.55C241.22 184.07 242.57 184.44 246.65 185.1C256.17 184.39 261.42 187.39 269.73 191.12C275.71 190.36 277.84 191.41 282.78 194.73C286.33 194.68 292.11 195.71 289.82 202.36C291.57 210.33 290.42 224.15 282.79 228.75C282.15 230.17 279.7 234.38 276.5 236.45C272.97 241.83 264.5 249.8 260.51 240.45C258.47 239.49 258.07 239.26 256.37 237.77C255.73 238 253.29 239.01 252.78 238.94C250.91 238.69 250.62 235.76 250.42 234.35C248.19 230.73 246.74 229.8 244.06 228.86C248.87 234.03 248.63 234.68 251.14 240.87C251.64 240.96 252.12 241.1 252.49 241.47C261.8 238.82 261.38 246.4 254.58 251.79C253.53 255.96 251.24 256.51 249.42 256.73C247.63 258.16 246.31 259.73 245.43 261.44C247.99 259.05 249.02 258.53 253.91 257.37C254.61 256.62 255.36 256.11 256.15 255.81C257.22 252.1 259.97 248.92 263.59 247.27C264.66 246.78 266.05 246.36 268.19 245.86C270.52 245.25 272.33 245.09 274.28 243.69C276.41 238.75 277.37 238.71 281.19 234.7C285.39 230.29 292.19 225.34 292.69 224.48C292.74 223.01 292.88 210.39 293.2 209.73C292.74 204.83 290.86 197.16 298.91 199.21C307.64 199.53 312.4 201.71 314.57 204.55C319.49 203.16 324.28 206 327.79 209.19C335.64 207.7 338.99 212.66 342.34 217.21C343.66 217.59 344.72 218.22 345.63 218.97C352.12 216.6 353.76 216.86 358.91 221.78C358.05 220.45 357.18 219.12 356.32 217.79C353.89 217.05 354.31 217.19 352.65 215.26C352.01 215.18 351.54 215.12 350.89 215.03C346.21 218.07 343.79 217.04 341.29 211.92C338.21 209.92 338.22 209.87 336.07 206.88C332.32 205.94 327.53 203.83 321.43 199.93C317.67 201.22 303.02 198.75 300.98 196.67C298.6 196.08 297.08 195.65 296.19 195.15C293.35 193.55 299.34 179.77 303.58 179.46C308.15 179.13 336.09 180.22 341.75 180.28C345.47 180.32 350.75 177.67 356.28 176.66C359.27 176.12 362.78 176.21 365.28 176.72C371.73 169.42 378.94 172.59 383.23 174.11C388.94 174.37 389.3 174.53 394.6 176.67C392.55 174.86 390.43 173.28 388.2 172.01C382.62 172.07 381 170.17 379.46 169.02C369.42 172.6 372.09 168.64 361.78 171.99C359.45 172.74 356.33 172.97 353.21 172.59C342.95 180.28 314.66 176.95 304.08 171.61C299.32 174.48 296.29 175.27 294.3 174.62C287.46 172.37 290.43 149.98 292.85 145.54C291.77 141.09 291.38 141.01 292.22 136.5C292.38 133.55 292.3 130.73 291.88 126.92C290.9 133.86 288.26 154.16 285.67 159.08C287.33 167.19 287.47 169.44 287.05 177.71C294.76 189.37 284.33 190.21 277.56 184.62C267.11 185.75 256.68 172.59 255.53 173.01C252.01 174.29 247.64 180.87 244.37 181.39C242.16 181.74 238.18 183.16 232.13 178.12C230.63 176.87 227.97 176.46 226.18 177.27C221.52 179.37 221.21 179.27 216.2 179.07C214.54 179 212.56 179.47 211.49 180.75C209.85 182.72 205.58 191.36 198.19 195.71C196.73 196.57 196.83 198.87 195.78 200.2C195.39 200.69 194.53 200.55 194.04 200.96C189.23 204.99 184.38 206.08 178.01 206.05C176.23 210.62 175.16 211.73 172.72 212.69C167.43 220.93 150.49 226.58 150.33 215.33C150.32 214.31 149.14 213.64 148.79 212.68C148.49 211.88 148.7 210.94 148.4 210.14C147.73 208.34 146.15 206.87 145.72 205C145.19 202.69 145.48 200.26 145.36 197.88C142.39 194.09 141.28 194.74 140.82 189.9C139.52 187.06 140.4 185.05 141.16 182.19C139.28 179.1 139.36 179.16 136.43 177.03C139.55 181.6 139.85 184.2 137.7 189.17C138.58 191.3 138.44 193.97 138.28 195.75C145.73 200.59 137.94 204.29 134.82 198.97C132.34 198.88 130.19 198.66 128.62 196.63C127.1 195.3 125.57 193.97 124.05 192.64C125.32 194.55 126.26 195.89 127.77 197.62C129.27 198.54 129.5 199.17 130.53 200.59C132.84 201.05 134.81 201.71 136.84 202.4C145 205.16 143.57 206.34 146.79 215.86C147.43 217.76 146.56 219.86 146.44 221.86C148.7 224.23 150.65 224.84 148.5 231.02C147.77 233.11 147.21 236.66 147.19 238.87C147.08 248.19 147.7 247.66 139.48 252.08C139.21 254.61 139.29 257.21 138.65 259.68C138.35 260.85 137.2 262.37 136.21 263.06C130.56 267.01 122.7 268.87 116.25 265.59C114.18 266.21 112.16 266.96 110.22 267.9C112.26 267.28 114.28 266.8 116.28 266.81C117.95 267.14 119.6 267.66 121.3 267.81C125.42 268.18 137.25 266.18 138.19 265.55C139.46 264.69 140.41 258.64 141.41 255.83C142.32 253.29 146.32 252.19 148.41 250.61C148.87 249.08 149.62 247.6 149.8 246.01C150.14 243.07 149.41 240.04 149.98 237.14C150.55 234.26 153.76 228.45 156.1 226.57C160.37 223.12 167.75 222.92 170.84 223.96C172.47 224.58 173.71 225.82 175.18 227.86Z" fill="url(#paint0_radial_66_5142)"/>
<path fill-rule="evenodd" clip-rule="evenodd" d="M172.43 220.56C172.17 218.28 172.68 216.13 174.92 214.38C175.07 214.26 175.36 213.82 175.16 213.84C174.77 213.87 174.35 214.08 174.07 214.42C172.38 216.48 170.05 218.8 168.09 219.95C166.92 220.64 170.77 219.89 171.95 220.35C172.11 220.41 172.45 220.73 172.43 220.56Z" fill="url(#paint1_radial_66_5142)"/>
<path fill-rule="evenodd" clip-rule="evenodd" d="M276.32 189.21C278.71 189.22 280.48 191.25 283.42 192.71C284.28 193.14 285.34 192.82 286.27 193.01C288.78 193.53 290.22 194.66 290.87 196.42C291.85 199.11 290.92 200.73 291.77 201.02C292.55 201.28 292.39 198.18 293.91 197.62C294.66 197.34 295.49 197.31 295.11 196.96C292.03 194.18 294.4 187.88 295.73 185.17C296.5 183.6 299.42 180.34 299.3 179.78C299.17 179.17 295.68 182.93 293.76 182.3C291.91 181.69 290.14 178.07 289.16 176.11C289 175.79 288.93 176.88 289.11 177.19C291.17 180.79 292.82 185.93 289.95 188.48C286.24 191.78 282.45 189.37 278.18 187.75C274.2 186.27 271.46 189.2 276.32 189.21Z" fill="url(#paint2_radial_66_5142)"/>
<path fill-rule="evenodd" clip-rule="evenodd" d="M153.97 224.08C153.35 222.64 151.02 223.28 149.76 222.36C149.45 222.13 150.26 222.95 150.48 223.29C151.28 224.52 150.11 226.87 151.45 227.33C152.15 227.57 152.63 226.47 153.16 225.69C153.63 224.99 154.23 224.68 153.97 224.08Z" fill="url(#paint3_radial_66_5142)"/>
<path fill-rule="evenodd" clip-rule="evenodd" d="M143.29 204.07C143.66 203.7 143.54 201.07 143.24 200.92C142.97 200.79 141.35 201.91 141.21 202.83C141.17 203.12 143.04 204.32 143.29 204.07Z" fill="url(#paint4_radial_66_5142)"/>
<path fill-rule="evenodd" clip-rule="evenodd" d="M335.88 131.09C336.07 131.47 336.12 131.79 336.19 132.14C336.52 132.69 336.85 133.24 337.18 133.78C337.16 134.18 337.09 134.58 337.12 134.98C337.16 135.67 337.63 135.98 337.71 136.41C337.99 137.89 337.43 138.2 336.57 139.41C337.21 140.42 337.22 140.44 337.46 141.62C338.49 143.19 339.11 143.41 338.41 145.14C338.9 146.14 339.33 146.46 338.48 147.25C338.55 147.86 338.61 148.48 338.68 149.09C338.83 150.49 339.01 151.29 337.58 150.77C337.22 150.81 336.76 150.85 336.4 150.89C335.98 151.15 335.56 151.41 335.14 151.67C336.99 151.19 336.97 151.01 338.74 151.57C338.97 151.33 339.22 151.18 339.49 151.12C339.37 150.62 339.53 150.33 339.81 150.08C340.59 149.39 340.66 149.69 341.41 150.23C342.22 150.37 342.47 150.28 343.28 150.16C341.94 150.1 341.45 149.68 341.1 149.48C340.75 149.28 340.64 149.14 340.45 148.95C340.28 149.11 339.9 149.45 339.69 149.41C338.67 149.22 339.38 147.28 339.59 146.71C338.94 145.33 340.95 139.22 341.57 138.03C341.74 137.7 338.4 136.92 338.38 136.55C337.97 135.93 337.63 135.67 337.58 134.91C337.55 134.38 337.62 133.85 337.65 133.33C336.98 132.35 336.73 131.71 336.9 131.01C337.16 129.93 337.83 128.92 338.98 129.4C341.51 128.91 341.04 129.01 343.34 131.33C343.86 131.85 344.57 132.14 345.31 132.14C348.52 132.13 350.06 131.67 352.81 133.36C353.65 133.88 354.03 134.55 354.75 135.23C356.18 136.57 356.08 136.51 356.49 138.44C357.29 139.33 357.43 139.71 357.96 140.78C359.73 142.9 359.9 144.64 360.42 147.23C361.6 148.51 361.71 149.19 361.76 150.91C362.37 151.74 363.1 153.27 361.14 153.85C359.56 155.6 356.11 157.65 353.74 156.63C353.3 156.72 351.9 156.85 350.87 156.44C349.01 156.51 345.71 155.85 347.24 153.34C347.12 152.7 347.11 152.57 347.18 151.92C347.02 151.81 346.37 151.4 346.3 151.27C346.05 150.79 346.69 150.23 346.99 149.94C347.47 148.81 347.44 148.31 347.21 147.52C346.8 149.52 346.61 149.57 345.57 151.2C345.63 151.33 345.68 151.47 345.66 151.62C347.85 153.37 345.99 154.54 343.58 153.84C342.42 154.29 341.91 153.85 341.55 153.45C340.91 153.27 340.32 153.22 339.77 153.3C340.76 153.5 341.06 153.66 342.15 154.61C342.44 154.65 342.69 154.74 342.89 154.88C343.94 154.51 345.15 154.62 346.15 155.2C346.44 155.37 346.78 155.63 347.26 156.05C347.79 156.5 348.14 156.9 348.79 157.12C350.31 156.79 350.48 157.01 352.07 157.24C353.82 157.49 356.12 158.26 356.41 158.23C356.76 158 359.76 155.91 359.97 155.87C361.05 154.94 362.54 153.21 363.41 155.45C364.8 157.56 365.09 159.05 364.78 160.04C365.93 160.97 366.07 162.57 365.91 163.93C367.58 165.53 366.97 167.15 366.46 168.7C366.59 169.08 366.62 169.43 366.6 169.77C368.25 170.9 368.46 171.33 368.17 173.37C368.34 172.94 368.51 172.52 368.67 172.09C368.44 171.39 368.47 171.52 368.65 170.8C368.56 170.63 368.5 170.51 368.41 170.35C366.91 169.76 366.74 169.02 367.53 167.57C367.48 166.51 367.5 166.5 367.84 165.5C367.43 164.46 367.12 162.98 367.02 160.88C366.08 160.21 364.21 156.34 364.36 155.52C364.1 154.86 363.95 154.43 363.91 154.14C363.81 153.2 368.06 152.3 368.85 153.25C369.7 154.27 374.13 161.04 375.07 162.38C375.68 163.26 377.2 164.06 378.36 165.2C378.99 165.81 379.56 166.66 379.86 167.33C382.66 167.62 383.13 169.85 383.49 171.12C384.39 172.51 384.41 172.62 384.8 174.23C384.88 173.44 384.9 172.68 384.82 171.94C383.87 170.63 384.05 169.93 384.06 169.38C381.53 167.62 382.91 167.58 380.39 165.71C379.82 165.29 379.24 164.59 378.81 163.79C375.27 162.66 371.31 155.44 370.79 152.05C369.31 151.41 368.62 150.83 368.44 150.25C367.82 148.26 373.6 145.2 375.05 145.02C375.92 144.02 375.87 143.91 377.07 143.35C377.79 142.89 378.44 142.4 379.27 141.66C377.47 142.6 372.24 145.38 370.65 145.6C369.02 147.35 368.51 147.76 366.49 149.05C365.04 152.83 363.09 150.51 363.27 147.98C361.25 145.71 362.6 141.04 362.31 140.84C361.42 140.23 359.13 140.3 358.46 139.62C358.01 139.16 357 138.46 357.17 136.19C357.21 135.63 356.86 134.93 356.37 134.65C355.09 133.9 355.06 133.81 354.27 132.6C354.01 132.2 353.57 131.81 353.09 131.77C352.35 131.71 349.6 132.16 347.33 131.15C346.88 130.95 346.36 131.36 345.87 131.34C345.69 131.33 345.58 131.1 345.4 131.06C343.64 130.6 342.57 129.64 341.51 128.14C340.14 128.49 339.69 128.42 339.06 128.01C336.23 128.15 332.05 125.11 334.68 123.18C334.92 123 334.88 122.62 335.05 122.37C335.19 122.16 335.44 122.06 335.58 121.85C335.89 121.39 335.97 120.77 336.34 120.35C336.8 119.84 337.42 119.5 337.96 119.07C338.35 117.74 338.02 117.58 339.08 116.66C339.53 115.88 340.15 115.75 340.95 115.45C341.36 114.49 341.36 114.52 341.37 113.47C340.82 114.97 340.25 115.48 338.72 115.81C338.37 116.37 337.71 116.79 337.27 117.05C337.38 119.62 335.2 118.4 335.93 116.78C335.53 116.18 335.23 115.64 335.44 114.93C335.5 114.35 335.55 113.77 335.61 113.18C335.37 113.8 335.22 114.25 335.06 114.89C335.1 115.4 334.98 115.56 334.82 116.04C335.1 116.66 335.27 117.24 335.45 117.83C336.17 120.22 335.65 120.08 333.95 122.44C333.61 122.91 332.97 123.06 332.48 123.36C332.3 124.29 332.49 124.85 330.67 125.38C330.06 125.56 329.13 126.02 328.6 126.39C326.39 127.93 326.62 127.99 324.19 126.79C323.55 127.15 322.95 127.61 322.26 127.87C321.93 128 321.38 127.98 321.05 127.86C319.17 127.19 317.41 125.65 317.1 123.58C316.61 123.2 316.09 122.85 315.54 122.55C316.03 122.92 316.48 123.32 316.81 123.79C317.01 124.24 317.17 124.71 317.42 125.14C318.02 126.17 320.48 128.62 320.79 128.74C321.21 128.89 322.79 128.1 323.62 127.87C324.37 127.66 325.3 128.42 326.03 128.64C326.47 128.49 326.94 128.42 327.35 128.2C328.1 127.79 328.69 127.1 329.47 126.75C330.24 126.4 332.15 126.18 332.99 126.42C334.52 126.85 335.81 128.55 336.08 129.45C336.2 129.9 336.12 130.41 335.88 131.09Z" fill="url(#paint5_radial_66_5142)"/>
<path fill-rule="evenodd" clip-rule="evenodd" d="M204.45 268.25C204.1 268.01 203.91 267.74 203.69 267.46C203.15 267.13 202.6 266.79 202.06 266.46C201.89 266.1 201.77 265.71 201.56 265.37C201.2 264.77 200.65 264.71 200.38 264.37C199.45 263.19 199.8 262.65 200.01 261.18C198.97 260.58 198.96 260.56 198.21 259.63C196.57 258.71 195.92 258.8 195.75 256.94C194.85 256.28 194.33 256.19 194.72 255.1C194.38 254.59 194.03 254.07 193.69 253.56C192.91 252.39 192.38 251.76 193.89 251.57C194.19 251.37 194.58 251.12 194.88 250.92C195.13 250.5 195.38 250.07 195.64 249.65C194.22 250.93 194.32 251.08 192.49 251.4C192.4 251.72 192.24 251.96 192.03 252.14C192.36 252.53 192.36 252.86 192.22 253.21C191.85 254.18 191.64 253.94 190.73 253.81C189.95 254.06 189.77 254.26 189.1 254.73C190.32 254.17 190.95 254.32 191.35 254.33C191.75 254.35 191.92 254.42 192.17 254.5C192.25 254.28 192.43 253.8 192.63 253.74C193.63 253.44 193.88 255.49 193.96 256.09C195.17 257.02 196.2 263.36 196.2 264.71C196.2 265.08 199.53 264.24 199.72 264.55C200.37 264.92 200.8 264.99 201.19 265.64C201.46 266.09 201.64 266.6 201.86 267.08C202.9 267.64 203.42 268.1 203.59 268.8C203.86 269.88 203.73 271.08 202.48 271.19C200.46 272.79 200.83 272.48 197.72 271.48C197.02 271.25 196.25 271.33 195.6 271.67C192.75 273.16 191.59 274.27 188.38 274.04C187.39 273.97 186.75 273.54 185.8 273.28C183.91 272.75 184.03 272.76 182.78 271.23C181.66 270.81 181.36 270.54 180.4 269.83C177.86 268.76 176.9 267.29 175.25 265.23C173.61 264.64 173.2 264.09 172.37 262.58C171.45 262.12 170.1 261.1 171.57 259.69C172.17 257.41 174.29 254 176.86 253.82C177.21 253.54 178.4 252.78 179.49 252.67C181.11 251.75 184.34 250.82 184.14 253.75C184.54 254.27 184.61 254.38 184.85 254.99C185.04 255.02 185.81 255.08 185.93 255.16C186.38 255.47 186.07 256.26 185.93 256.65C186.03 257.88 186.28 258.31 186.84 258.9C186.28 256.93 186.43 256.8 186.6 254.87C186.48 254.78 186.38 254.68 186.33 254.54C183.58 253.99 184.69 252.1 187.15 251.61C187.97 250.67 188.63 250.83 189.13 251.02C189.78 250.89 190.33 250.66 190.78 250.34C189.81 250.62 189.47 250.61 188.06 250.27C187.78 250.37 187.52 250.4 187.28 250.38C186.52 251.19 185.39 251.65 184.24 251.6C183.9 251.58 183.49 251.51 182.87 251.36C182.19 251.21 181.7 251.01 181.02 251.12C179.82 252.11 179.57 251.99 178.06 252.52C176.4 253.1 173.99 253.48 173.75 253.63C173.54 254 171.84 257.23 171.67 257.36C171.14 258.68 170.61 260.91 168.81 259.32C166.61 258.09 165.67 256.9 165.48 255.88C164.03 255.59 163.17 254.23 162.69 252.94C160.47 252.29 160.26 250.57 160 248.95C159.71 248.68 159.52 248.38 159.39 248.06C157.41 247.81 157.02 247.53 156.34 245.58C156.39 246.04 156.43 246.49 156.48 246.95C157.01 247.46 156.92 247.37 157.09 248.08C157.24 248.19 157.36 248.26 157.51 248.37C159.12 248.21 159.6 248.79 159.57 250.44C160.1 251.36 160.09 251.37 160.25 252.43C161.09 253.17 162.05 254.34 163.1 256.15C164.24 256.31 167.68 258.88 167.93 259.69C168.47 260.15 168.8 260.47 168.96 260.71C169.48 261.5 166.12 264.25 164.99 263.77C163.77 263.25 156.72 259.28 155.27 258.52C154.32 258.02 152.61 258 151.05 257.53C150.21 257.28 149.32 256.79 148.74 256.33C146.12 257.36 144.68 255.59 143.78 254.63C142.34 253.81 142.27 253.72 141.19 252.47C141.48 253.21 141.82 253.89 142.22 254.52C143.67 255.24 143.83 255.94 144.08 256.44C147.14 256.84 145.93 257.51 149.03 258.01C149.73 258.12 150.56 258.48 151.32 258.99C154.98 258.36 161.82 262.95 163.84 265.72C165.44 265.61 166.33 265.81 166.75 266.24C168.22 267.72 164.5 273.1 163.29 273.92C162.98 275.21 163.07 275.28 162.26 276.33C161.83 277.07 161.48 277.8 161.08 278.84C162.25 277.18 165.61 272.3 166.92 271.38C167.56 269.07 167.82 268.48 169.02 266.4C168.57 262.38 171.37 263.54 172.37 265.87C175.21 266.96 176.16 271.72 176.51 271.77C177.59 271.9 179.58 270.79 180.49 271.08C181.11 271.28 182.32 271.44 183.21 273.54C183.43 274.06 184.06 274.52 184.63 274.54C186.11 274.61 186.17 274.68 187.44 275.39C187.86 275.63 188.43 275.77 188.87 275.58C189.55 275.29 191.79 273.63 194.27 273.48C194.76 273.45 195.04 272.85 195.48 272.64C195.65 272.56 195.85 272.71 196.03 272.67C197.8 272.27 199.19 272.63 200.83 273.47C201.89 272.53 202.31 272.38 203.07 272.46C205.52 271.04 210.63 271.82 209.18 274.74C209.05 275.01 209.26 275.33 209.23 275.63C209.2 275.88 209.02 276.09 208.99 276.34C208.92 276.89 209.14 277.48 209 278.02C208.83 278.69 208.44 279.27 208.15 279.9C208.41 281.27 208.79 281.25 208.27 282.55C208.23 283.45 207.74 283.85 207.16 284.49C207.24 285.53 207.23 285.51 207.7 286.44C207.5 284.85 207.77 284.14 208.97 283.15C209.02 282.49 209.41 281.82 209.69 281.38C208.41 279.15 210.9 279.23 211.01 281.01C211.64 281.36 212.16 281.7 212.3 282.43C212.52 282.97 212.73 283.52 212.95 284.06C212.88 283.4 212.81 282.93 212.65 282.29C212.38 281.86 212.41 281.66 212.33 281.16C211.79 280.74 211.38 280.31 210.94 279.86C209.2 278.07 209.73 277.96 210.15 275.08C210.24 274.51 210.74 274.08 211.03 273.58C210.76 272.67 210.34 272.26 211.71 270.95C212.17 270.51 212.78 269.67 213.08 269.1C214.34 266.71 214.11 266.77 216.81 266.72C217.22 266.1 217.54 265.42 218.03 264.87C218.26 264.61 218.76 264.37 219.11 264.32C221.09 264.05 223.35 264.61 224.58 266.3C225.2 266.41 225.81 266.49 226.44 266.5C225.83 266.39 225.25 266.25 224.74 265.98C224.35 265.67 224 265.32 223.58 265.06C222.57 264.42 219.26 263.37 218.93 263.41C218.49 263.46 217.45 264.9 216.82 265.49C216.25 266.02 215.08 265.78 214.33 265.91C214.01 266.24 213.62 266.52 213.36 266.91C212.88 267.62 212.67 268.5 212.14 269.17C211.61 269.84 210.02 270.91 209.17 271.09C207.62 271.41 205.69 270.49 205.03 269.82C204.71 269.46 204.55 268.97 204.45 268.25Z" fill="url(#paint6_radial_66_5142)"/>
<defs>
<radialGradient id="paint0_radial_66_5142" cx="0" cy="0" r="1" gradientUnits="userSpaceOnUse" gradientTransform="translate(230.527 117.748) scale(164.174 164.174)">
<stop stop-color="#F59E1B"/>
<stop offset="0.6394" stop-color="#EC673B"/>
<stop offset="1" stop-color="#A92D17"/>
</radialGradient>
<radialGradient id="paint1_radial_66_5142" cx="0" cy="0" r="1" gradientUnits="userSpaceOnUse" gradientTransform="translate(168.792 213.216) scale(8.86781 8.8678)">
<stop stop-color="#FFD119"/>
<stop offset="1" stop-color="#020203"/>
</radialGradient>
<radialGradient id="paint2_radial_66_5142" cx="0" cy="0" r="1" gradientUnits="userSpaceOnUse" gradientTransform="translate(281.98 177.979) scale(28.7408 28.7408)">
<stop stop-color="#FFD119"/>
<stop offset="1" stop-color="#020203"/>
</radialGradient>
<radialGradient id="paint3_radial_66_5142" cx="0" cy="0" r="1" gradientUnits="userSpaceOnUse" gradientTransform="translate(157.876 218.651) scale(12.7619 12.7619)">
<stop stop-color="#FFD119"/>
<stop offset="1" stop-color="#020203"/>
</radialGradient>
<radialGradient id="paint4_radial_66_5142" cx="0" cy="0" r="1" gradientUnits="userSpaceOnUse" gradientTransform="translate(146.043 200.587) scale(8.55607 8.55612)">
<stop stop-color="#FFD119"/>
<stop offset="1" stop-color="#020203"/>
</radialGradient>
<radialGradient id="paint5_radial_66_5142" cx="0" cy="0" r="1" gradientUnits="userSpaceOnUse" gradientTransform="translate(371.103 125.664) rotate(54.5203) scale(47.4945 47.4945)">
<stop stop-color="#F59E1B"/>
<stop offset="0.6394" stop-color="#EC673B"/>
<stop offset="1" stop-color="#A92D17"/>
</radialGradient>
<radialGradient id="paint6_radial_66_5142" cx="0" cy="0" r="1" gradientUnits="userSpaceOnUse" gradientTransform="translate(175.615 289.314) rotate(-152.864) scale(47.4945 47.4945)">
<stop stop-color="#F59E1B"/>
<stop offset="0.6394" stop-color="#EC673B"/>
<stop offset="1" stop-color="#A92D17"/>
</radialGradient>
</defs>
</svg>
