<svg width="144" height="226" viewBox="0 0 144 226" fill="none" xmlns="http://www.w3.org/2000/svg">
<path d="M7.65628 39.2925L12.2734 36.2847L14.8241 35.6644L21.657 35.1568L71.1825 44.3117L89.4757 50.5763L115.267 46.3654L119.513 47.6014L116.74 53.7062L112.17 57.3954L99.3128 57.8278L81.4989 58.0722L52.6214 49.8149L22.2393 43.9921L5.83727 43.7806L2.55995 45.2093L7.65628 39.2925Z" fill="#E64C63"/>
<path d="M8.54774 38.1646L129.664 40.5473L126.17 75.3244L122.522 95.7631L118.106 106.286L109.624 113.951L100.884 117.297L86.4251 120.807L67.3332 121.813L47.8085 118.721L37.9353 114.289L26.1762 107.507L18.0138 98.4043L14.9117 51.1261L8.54774 38.1646Z" fill="#F0C0A1"/>
<path d="M94.0153 90.1565C99.0867 90.1565 103.198 86.1313 103.198 81.1661C103.198 76.2008 99.0867 72.1757 94.0153 72.1757C88.9438 72.1757 84.8326 76.2008 84.8326 81.1661C84.8326 86.1313 88.9438 90.1565 94.0153 90.1565Z" fill="#6C2B0D"/>
<path d="M39.6668 86.0162C44.7382 86.0162 48.8495 81.991 48.8495 77.0258C48.8495 72.0606 44.7382 68.0354 39.6668 68.0354C34.5954 68.0354 30.4841 72.0606 30.4841 77.0258C30.4841 81.991 34.5954 86.0162 39.6668 86.0162Z" fill="#6C2B0D"/>
<path d="M70.8166 196.72C71.0485 199.343 71.5226 201.975 71.4607 204.592C71.3371 210.063 71.1 215.542 70.4868 220.975C70.3683 222.042 68.5287 223.363 67.1734 223.833C60.1859 226.267 52.9666 226.004 45.8503 224.467C40.7076 223.353 39.3059 218.762 42.5266 214.993C42.9749 214.471 42.8409 213.531 42.7791 212.596C42.5833 212.408 42.5626 212.365 42.5626 212.365C42.8873 211.43 43.4181 210.509 43.5005 209.555C43.9385 204.503 44.3559 199.451 44.5672 194.389C44.6342 192.796 43.954 191.184 43.7994 189.568C43.7066 188.59 43.7942 187.537 44.0983 186.602C44.696 184.755 45.505 182.965 46.2264 181.151C45.9636 180.836 45.6957 180.521 45.4329 180.206C43.6757 180.92 41.7433 181.414 40.1974 182.405C37.5539 184.093 32.2979 182.039 29.8966 179.214C26.6811 175.426 28.5413 171.897 29.9945 168.692C35.2712 157.046 40.8312 145.499 46.7057 134.093C49.344 128.975 54.0178 125.545 60.3972 124.464C61.0516 124.351 61.6339 123.909 63.3447 123.115C61.0053 122.617 59.7737 122.293 58.5164 122.09C45.371 120.009 33.246 115.826 23.4038 107.32C17.9004 102.564 13.6749 97.1402 15.4682 89.9638C12.3712 87.9148 8.92898 86.4015 6.65135 83.9718C2.11155 79.1312 1.05003 73.393 4.04393 67.4198C5.86294 63.787 8.96506 61.5828 13.9377 61.6768C15.0611 62.4993 15.7773 63.082 16.5194 63.9374C16.5245 64.9525 16.509 65.695 16.1999 66.4893C15.6897 68.026 15.3857 69.5111 15.3754 70.9962C15.3754 71.1325 17.2511 71.2829 18.2044 71.6353C18.0756 72.1288 17.9931 72.4061 17.7149 72.8384C17.6118 73.7126 17.6994 74.4363 17.7612 75.3386C17.8128 75.7428 17.8901 75.9684 17.9416 76.4336C18.0859 77.1198 18.2611 77.5663 18.4105 78.1866C18.4466 78.5908 18.5548 78.7976 18.7042 79.2205C18.8846 79.902 19.0753 80.339 19.2505 81.0393C19.405 82.1578 19.5699 83.0131 19.673 84.141C19.6112 85.1561 19.6163 85.894 19.5339 86.8621C19.3999 87.7127 19.3535 88.3331 19.1165 89.1038C18.8537 89.5456 18.7815 89.8417 18.6372 90.1941C18.5599 90.2552 18.6063 90.4338 18.4157 90.6077C18.1632 91.2562 18.0962 91.7356 17.9467 92.4358C17.9107 92.9763 17.9519 93.2912 17.9467 93.8692C18.1323 94.7951 18.359 95.4577 18.5806 96.3553C19.5339 98.1741 20.4975 99.7579 21.5538 101.544C21.8991 101.896 22.1516 102.047 22.3423 102.188C22.2856 102.178 22.265 102.286 22.3526 102.493C24.4601 104.378 26.4801 106.051 28.598 107.681C28.6959 107.634 28.495 107.714 28.5774 107.888C29.0103 108.255 29.3658 108.447 29.7626 108.645C29.809 108.65 29.8553 108.725 29.9687 108.903C30.5974 109.336 31.1127 109.594 31.7929 110.027C33.4109 110.938 34.8641 111.676 36.446 112.63C58.0011 122.481 79.9323 123.134 102.317 115.92C103.466 115.549 108.078 112.658 109.294 112.456C108.423 113.42 109.711 114.585 108.665 114.999C103.373 117.085 92.1603 120.845 86.5642 122.166C85.178 122.495 83.7764 122.777 82.2408 123.806C83.3075 124.191 84.3381 124.765 85.446 124.938C91.9439 125.963 96.7311 129.271 99.6374 134.479C104.409 143.037 108.872 151.74 113.293 160.458C115.287 164.392 117.322 168.4 118.425 172.578C118.904 174.392 117.348 176.841 116.23 178.773C114.411 181.907 108.82 182.772 105.61 180.732C105.053 180.375 104.239 180.206 103.543 180.201C99.761 180.173 98.6892 178.787 98.277 175.502C97.9059 172.508 96.4631 169.627 95.4943 166.699C94.9893 166.84 94.4792 166.981 93.9742 167.127C94.608 169.674 95.1955 172.231 95.8808 174.764C97.1794 179.548 98.5655 184.318 99.8538 189.107C100.05 189.845 100.204 190.757 99.9053 191.41C98.0193 195.498 99.0602 200.015 102.451 202.886C103.286 203.596 103.744 204.785 104.1 205.833C104.806 207.915 105.321 210.049 106.192 212.286C106.465 212.417 106.496 212.459 106.496 212.459C106.316 214.367 106.47 216.369 105.857 218.151C105.234 219.951 104.28 222.432 102.724 223.052C95.551 225.914 88.0019 226.394 80.396 224.298C77.3197 223.452 75.3255 221.595 74.8926 218.682C74.738 217.629 75.4234 216.492 75.5831 215.378C75.7171 214.433 75.6398 213.46 75.6913 212.065C75.681 211.393 75.6347 211.158 75.5934 210.918C75.0008 207.99 74.4082 205.062 73.7435 201.65C73.5168 200.936 73.3622 200.706 73.2127 200.48C73.0324 199.117 72.852 197.754 72.4862 196.011C71.9451 195.621 71.5895 195.607 71.2391 195.592C71.2391 195.592 71.0588 195.668 70.8939 195.874C70.6517 196.302 70.6723 196.518 70.8166 196.72ZM59.3924 131.899C59.4284 132.369 59.4645 132.843 59.3718 133.647C59.3305 133.76 59.2893 133.868 58.6143 133.924C58.135 131.894 57.6558 129.868 57.1817 127.838C56.7746 127.815 56.3727 127.791 55.9656 127.763C55.2287 132.19 54.497 136.617 53.7601 141.044C54.1054 141.091 54.4455 141.138 54.7907 141.185C55.2957 140.452 55.7956 139.714 56.3006 138.981C56.5015 139.056 56.7025 139.131 56.9035 139.206C56.7643 140.283 56.6252 141.359 56.4397 142.877C56.4294 143.173 56.4139 143.469 56.1924 144.085C56.1769 144.207 56.1666 144.329 55.8316 144.907C55.1875 150.443 54.5073 155.975 53.9663 161.516C53.9302 161.91 54.9092 162.385 55.3936 163.179C55.1669 163.597 54.9402 164.016 54.2136 164.575C54.3785 165.209 54.3836 166.3 54.734 166.403C57.0065 167.075 59.3357 167.639 61.6906 168.039C71.0124 169.613 80.2724 168.645 90.1043 167.414C90.769 167.174 91.4338 166.93 92.2376 166.239C92.3046 165.933 92.3716 165.632 92.5881 165.144C92.6087 164.89 92.4747 164.73 91.9027 164.458C91.5677 164.335 91.238 164.218 90.3877 163.997C89.9548 163.593 89.5168 163.193 89.6508 162.596C90.1507 161.628 91.1607 160.613 91.0524 159.701C90.7175 156.849 90.0785 154.01 89.3365 151.219C88.8727 149.485 88.3883 147.558 87.2289 146.209C84.8018 143.384 83.292 140.433 83.5291 136.8C83.7197 133.844 83.8485 130.883 84.0134 127.758C83.4775 127.871 82.9055 127.993 82.246 127.5C82.55 125.239 80.9526 124.844 79.3345 124.351C79.1799 123.876 79.0305 122.988 78.8656 122.983C74.1815 122.908 69.4923 122.922 64.4011 122.922C67.6063 126.837 72.5068 127.298 79.0356 125.239C77.1187 127.852 74.0166 129.441 71.167 128.153C67.5857 126.532 64.298 126.517 60.2787 127.425C60.1138 128.247 59.9437 129.069 59.48 130.197C59.4439 130.611 59.4027 131.02 59.3924 131.899ZM12.634 77.0587C13.1184 75.959 13.6028 74.8593 14.1593 73.5904C12.4588 73.5246 11.0263 73.4635 9.59887 72.9042C10.9438 72.0348 12.2887 71.1701 13.6904 70.263C13.6904 68.2375 13.6904 66.0193 13.6904 63.7729C6.09998 64.7457 2.92573 71.8468 6.51222 79.7234C8.44975 83.5019 11.6395 85.8141 16.4781 86.8809C16.4781 85.2031 16.4781 83.8449 16.4472 81.9886C16.2308 80.7761 16.0144 79.5589 15.6485 77.4817C14.5458 79.2064 13.9274 80.1792 12.9432 80.8184M98.4264 203.718C95.8396 203.629 93.1652 203.319 91.9491 204.987C93.1652 208.394 94.1288 211.082 94.7781 212.896C92.7066 214.316 91.2843 215.289 89.8621 216.261C90.3001 216.661 90.733 217.056 91.171 217.455C97.1536 217.949 97.3391 217.855 101.853 211.895C103.317 208.648 102.08 205.062 98.4264 203.718ZM98.1481 136.401C98.1481 136.401 98.1791 136.387 98.0812 135.907C95.752 133.482 93.4228 131.057 90.6969 128.219C88.5378 133.769 88.3574 138.017 89.4086 142.896C91.6244 153.146 96.0715 162.554 100.163 172.146C100.586 173.138 100.725 174.299 100.704 175.375C100.663 177.405 100.74 178.787 103.827 177.983C104.847 177.72 106.511 178.895 107.625 179.703C110.01 181.437 110.67 180.615 111.118 178.129C113.045 178.378 115.519 179.205 114.246 175.365C116.519 174.75 117.647 173.913 115.509 171.85C114.839 171.201 114.844 169.994 114.463 169.073C113.463 166.648 112.417 164.241 111.278 161.328C107.315 153.625 103.353 145.918 99.2973 137.773C98.9159 137.322 98.5398 136.871 98.1481 136.401ZM32.2 169.026C31.8702 170.346 31.8599 171.845 31.1333 172.95C30.2624 174.266 29.1391 175.018 31.4579 176.141C32.3855 176.592 32.3855 178.476 33.2976 179.163C34.4467 180.023 36.1008 180.314 38.0847 181.061C38.3114 180.845 39.1101 179.473 39.8058 179.515C46.3037 179.896 45.1392 174.947 46.3501 171.798C49.1482 164.519 53.0336 157.507 52.6162 149.433C52.3379 144 52.477 138.549 52.3997 133.106C52.3946 132.716 52.1782 132.326 51.7968 131.071C42.1916 142.764 38.3217 156.078 32.2 169.026ZM63.9167 195.503C62.0616 195.466 60.0932 195.78 58.3669 195.32C54.6052 194.324 50.9672 192.932 47.2055 191.682C46.8293 194.977 46.4532 198.281 45.9636 202.595C53.7653 202.595 61.1444 202.595 68.7502 202.595C68.6059 200.029 68.4771 197.759 68.3328 195.235C66.9106 195.404 65.7048 195.545 63.9167 195.503ZM96.8032 201.556C97.2051 201.26 97.9987 200.875 97.9472 200.687C97.2824 198.276 96.494 195.889 95.989 194.3C88.6666 195.104 81.844 195.856 74.9699 196.612C75.243 197.909 75.6656 199.916 76.1706 202.332C82.9983 201.246 89.6302 203.638 96.8032 201.556ZM69.214 208.371C68.5544 207.125 68.034 204.912 67.2146 204.813C65.1019 204.559 62.8449 205.194 60.6755 205.617C60.392 205.673 60.088 206.618 60.1705 207.092C60.6343 209.72 61.2217 212.333 61.6288 214.311C59.2945 215.754 57.6197 216.783 55.4194 218.141C64.5454 218.672 69.0852 215.453 69.214 208.371ZM83.4208 215.354C82.8746 215.961 82.3284 216.572 81.7513 217.215C85.6882 218.668 87.5278 217.784 89.8312 212.638C87.265 213.592 85.482 214.25 83.4208 215.354ZM50.6992 214.659C49.7872 215.538 48.8802 216.412 47.762 217.483C52.2915 219.72 53.6674 216.313 55.811 214.109C54.2651 214.179 52.7192 214.25 50.6992 214.659ZM85.8737 223.038C86.6312 222.47 87.3886 221.901 88.1461 221.332C86.5745 220.966 84.9977 220.604 83.426 220.237C83.2457 220.66 83.0653 221.083 82.8849 221.506C83.6888 221.962 84.4927 222.423 85.8737 223.038ZM85.8685 205.974C86.6157 205.772 87.3629 205.565 88.1101 205.363C88.0895 204.954 88.0689 204.545 88.0482 204.136C86.3735 204.136 84.6936 204.094 83.0292 204.188C82.8128 204.202 82.6427 204.931 82.4521 205.33C83.4105 205.593 84.3638 205.856 85.8685 205.974ZM78.3606 208.559C78.6492 208.079 79.0872 207.624 79.1902 207.116C79.3706 206.228 79.4891 205.278 79.3036 204.414C79.2521 204.179 78.0411 204.146 77.3609 204.019C77.2269 204.865 76.8662 205.753 77.026 206.552C77.1909 207.412 77.8401 208.197 78.3606 208.559ZM53.6519 206.477C54.6825 206.387 55.7183 206.298 56.7489 206.209C56.7901 205.8 56.8365 205.396 56.8777 204.987C55.3627 204.804 53.8477 204.536 52.3276 204.503C51.972 204.494 51.5959 205.269 51.23 205.687C51.8278 205.95 52.4255 206.214 53.6519 206.477Z" fill="#171212"/>
<path d="M119.502 12.5C117.132 11.3298 114.911 10.3569 112.448 9.24783C111.144 8.88596 110.077 8.65568 109.031 8.16692C108.634 7.40088 108.305 6.55495 107.784 6.44686C102.317 5.28135 96.8186 4.23334 91.0936 3.08193C90.5267 2.98794 90.197 2.96914 89.6662 2.78115C88.5583 2.58377 87.6462 2.55557 86.3889 2.47098C80.6588 2.49918 75.2842 2.58377 69.5695 2.67776C64.6947 3.67408 59.9643 4.20984 55.6512 5.73251C43.1345 10.1549 33.4624 17.5427 28.2475 29.3387C28.4021 29.5361 28.6495 29.6207 29.1854 29.7523C30.2263 29.6959 30.9838 29.5925 31.9628 29.5596C32.4936 29.6442 32.8079 29.6536 33.3799 29.8228C39.3316 31.0588 45.2524 31.5381 50.6579 33.3287C66.6426 38.6204 82.7148 43.4047 99.7558 45.0965C99.7506 45.7216 99.7506 46.1351 99.4415 46.6051C85.6881 45.4631 72.6304 42.8313 59.9643 38.4278C53.4663 36.1672 46.7726 34.1934 39.9809 32.8681C32.3751 31.3877 24.5992 31.1528 17.0037 34.4707C15.5299 35.326 14.319 36.1578 12.8607 37.0649C10.1296 38.8601 7.64065 40.5802 4.9817 42.4036C4.61069 42.8266 4.41488 43.1462 3.95626 43.5033C3.06994 44.401 2.44642 45.2563 1.65801 46.3372C5.19297 47.5121 5.497 45.6182 5.86802 43.5597C5.91955 43.1932 5.94532 43.0475 6.2442 42.8971C7.8004 42.3801 9.0835 41.8679 10.65 41.3603C11.5054 41.3603 21.3631 40.4956 21.9402 40.6601C21.9454 40.8293 21.0488 41.8303 21.0385 41.9525C21.0282 42.0747 12.6391 42.5258 12.366 42.6151C6.7801 44.495 5.87317 45.6135 6.05352 50.1533C4.75496 50.0593 3.56978 49.7914 2.56494 49.5659C3.46672 51.7418 4.22936 53.584 4.99716 55.4263C-1.104 50.675 -1.63992 46.3701 3.50794 40.9844C5.39394 39.0152 7.8107 37.469 9.97497 35.7161C11.928 34.1323 13.8706 32.5344 16.107 31.1058" fill="#1C1013"/>
<path d="M27.2273 21.9697C33.7871 17.0774 39.914 11.5742 46.9994 7.42441C59.5212 0.0883007 73.7487 -0.809329 88.208 0.506564C98.6738 1.46059 108.758 3.65061 118.142 9.13507C118.75 9.64262 119.08 9.75072 119.409 9.85881C121.703 11.4943 123.779 13.2378 125.846 15.3057C125.387 15.9025 125.382 15.9589 124.97 15.9871" fill="#1C1013"/>
<path d="M108.485 115.074C108.568 114.148 108.635 112.893 109.325 112.461C115.215 108.781 118.168 103.447 120.049 97.4174C121.053 94.2029 122.3 91.0494 123.212 87.8161C123.547 86.6365 124.717 84.7002 121.223 84.5922C120.389 84.3102 120.048 84.0705 119.708 83.5958C119.662 83.0601 119.621 82.7546 119.677 82.247C119.961 81.4246 120.146 80.809 120.471 79.7374C119.09 80.3343 118.209 80.715 117.101 81.0721C117.065 80.1416 117.256 79.2299 117.611 78.2148C117.92 77.7683 118.059 77.4299 118.389 76.9459C118.719 76.3772 118.868 75.959 119.193 75.3527C120.033 73.0875 120.687 71.0056 121.512 68.7356C121.749 68.0777 121.806 67.603 121.96 66.9733C122.058 66.5832 122.063 66.3529 122.254 65.8971C122.522 64.7645 122.61 63.8527 122.79 62.7436C122.888 62.1233 122.893 61.705 123.089 61.0753C123.336 60.1682 123.398 59.4633 123.547 58.4952C123.743 56.7892 123.836 54.3454 124.042 52.7287C124.181 52.428 124.243 53.3068 124.485 53.3773C125.037 55.0785 125.397 56.5824 125.779 58.373C125.681 59.3881 125.557 60.1212 125.196 60.9249C124.923 62.0951 124.892 63.2042 124.892 64.5107C124.763 65.0699 124.604 65.4318 124.284 65.8172C124.037 65.9065 123.954 65.9676 123.872 66.0334C124.011 66.1744 124.145 66.3153 124.3 66.6819C124.13 67.4667 123.944 68.026 123.537 68.6322C123.372 69.0975 123.429 69.5158 123.496 70.1361C123.316 70.6813 123.13 71.0291 122.78 71.3909C122.527 71.4708 122.439 71.5319 122.357 71.593C122.486 71.7387 122.615 71.8844 122.759 72.2228C122.61 72.7632 122.45 73.1063 122.017 73.5339C121.048 74.9955 120.347 76.3725 119.523 77.9798C121.074 77.8858 121.976 77.8294 123.032 77.7636C122.347 79.0372 121.806 80.0476 120.976 81.5891C122.331 81.7207 123.98 82.1672 124.176 81.8523C125.871 79.1359 127.304 76.2832 128.943 73.346C129.231 73.0546 129.391 72.8854 129.746 72.594C130.04 72.2134 130.148 71.9502 130.236 71.5883C130.221 71.4896 130.334 71.3204 130.525 71.1935C130.818 70.7988 130.916 70.5356 130.973 70.1925C130.926 70.1173 131.014 69.9575 131.22 69.826C131.55 69.4077 131.674 69.1257 131.72 68.5571C131.869 66.5597 132.308 64.8444 132.287 63.1337C132.235 59.3834 131.952 55.6331 132.034 51.8734C133.426 51.8593 134.544 51.8499 135.894 51.6948C136.456 50.0077 136.78 48.4615 137.383 46.92C138.038 46.9106 138.414 46.9059 138.79 46.8965C138.666 49.9466 139.98 53.6499 135.394 54.2138C134.297 60.9343 133.24 67.3962 132.143 74.1308C133.137 74.3376 135.152 74.488 136.925 75.16C142.747 77.3641 145.159 83.718 142.747 90.0343C140.037 97.1448 133.544 101.271 125.289 101.121C124.166 101.102 123.042 101.013 121.837 100.952C118.987 106.915 115.947 112.639 108.485 115.074ZM138.687 92.1491C142.449 86.8433 141.835 80.7103 137.265 77.9234C132.885 75.254 129.004 76.6263 128.587 81.1238C130.324 81.6126 132.199 81.9181 133.833 82.6653C135.106 83.2434 136.08 84.3666 136.569 85.3159C133.869 84.7425 131.164 84.1645 127.912 83.4736C132.349 90.3539 131.715 94.2922 126.34 94.6587C126.948 92.1115 130.813 89.6255 126.469 86.6835C125.201 90.6547 124.016 94.3674 122.826 98.0848C129.494 99.7108 135.832 97.3093 138.687 92.1491Z" fill="#1B1416"/>
<path d="M15.3083 71.0996C15.3186 69.6145 15.6175 67.9461 16.1637 66.649C17.0654 67.1143 17.7302 67.4668 18.3073 67.744C20.4097 62.4147 22.5122 57.09 24.6146 51.7606C18.9772 53.3209 16.3337 56.3945 16.5811 61.2257C16.6223 62.034 16.5605 63.1243 16.5347 63.9326C15.8184 63.3499 14.8187 62.504 13.9994 61.705C13.5717 60.8638 13.6851 59.9192 13.1543 59.6654C11.6651 58.9651 9.84608 58.3119 8.41354 57.5177C10.1295 57.4425 11.8609 57.8654 13.6541 58.1427C14.4632 58.1004 15.0403 57.9688 15.6123 57.8372C14.8909 57.2216 14.1746 56.8597 13.3295 56.1266C13.6645 55.3887 14.1231 54.5099 14.5044 53.6593C14.4632 52.9402 14.4992 51.7841 15.0042 50.4682C15.3804 49.486 15.8957 48.7435 16.3131 48.2406C16.5398 47.8411 16.7614 47.4464 16.9881 47.0469C17.3695 46.4266 18.0291 45.5242 19.106 44.6642C20.0954 43.8747 22.6101 42.0042 22.507 42.6857C22.4091 43.3483 22.3679 43.3201 22.2391 43.9828C22.1978 44.1472 18.8484 47.672 18.6268 47.8035C17.6993 49.439 16.9933 50.9429 15.8751 53.3256C19.2555 51.4692 21.631 50.1675 24.3157 48.8986C25.2587 48.9033 25.8925 48.8798 26.7067 49.0114C26.7428 50.0547 26.5882 50.9429 26.2429 52.0144C24.7383 56.23 23.4294 60.2528 22.0123 64.5154C21.0178 66.5973 20.1315 68.4443 19.2452 70.3147C19.2452 70.3429 19.2142 70.3946 19.0597 70.5027C18.7762 70.874 18.498 71.2452 18.2146 71.6165" fill="#140F12"/>
<path d="M6.56899 56.5965C6.10522 56.3239 5.52808 55.8727 4.99217 55.4216C4.15223 53.4007 3.46688 51.7371 2.55995 49.5612C3.56479 49.7867 4.55933 49.8948 6.04855 50.1486C9.02699 51.3329 11.856 52.4561 14.5356 53.6592C14.5046 53.6968 14.2264 54.2749 13.9481 54.8623C13.6647 55.4592 13.3813 56.0607 13.3607 56.1218C13.474 57.0148 13.7471 57.7573 13.7317 58.2742C12.1652 58.0863 10.3204 57.6727 8.40862 57.527C7.90878 57.3531 7.83148 57.3249 7.30072 57.0007" fill="#2B1113"/>
<path d="M126.402 18.7458C125.686 18.1019 123.929 16.8189 123.46 16.2409C123.686 16.0764 125.258 15.6863 125.846 15.3057C127.608 16.5135 129.2 18.2194 130.767 19.822C130.916 20.7854 130.895 21.5703 130.648 22.4961" fill="#1C1013"/>
<path d="M75.5211 211.068C75.6705 211.153 75.7117 211.388 75.6241 211.768C75.4592 211.679 75.4386 211.449 75.5211 211.068Z" fill="#F0EFEE"/>
<path d="M71.5071 195.729C71.6102 195.602 71.9657 195.616 72.3161 195.818C72.1358 195.959 71.9451 195.917 71.5071 195.729Z" fill="#F0EFEE"/>
<path d="M70.9608 196.598C70.6774 196.514 70.6567 196.302 70.8732 195.95C71.0535 195.964 71.1257 196.1 71.1617 196.246C71.172 196.316 71.1205 196.401 70.9608 196.598Z" fill="#F0EFEE"/>
<path d="M73.2022 200.682C73.3928 200.706 73.5474 200.931 73.6711 201.364C73.4804 201.345 73.3207 201.119 73.2022 200.682Z" fill="#F0EFEE"/>
<path d="M56.3055 143.723C56.3158 143.427 56.424 143.178 56.7126 142.585C57.7432 139.521 58.5161 136.551 59.2685 133.778C59.3097 133.666 59.2736 133.736 59.4076 133.224C59.2221 132.115 59.3973 131.706 59.4282 130.888C59.3251 130.399 59.6189 129.878 59.7168 129.615C59.8817 128.792 59.9899 128.35 60.2887 127.434C61.9841 126.809 62.8498 128.614 63.9628 129.347C64.777 129.765 65.416 130.019 66.2353 130.442C72.3365 133.017 77.5359 131.147 82.3178 127.556C82.895 127.434 83.4824 127.88 84.0132 127.768C83.8483 130.893 83.7195 133.854 83.5288 136.81C83.2969 140.438 84.8016 143.394 87.2287 146.218C88.3881 147.567 88.8725 149.489 89.3363 151.228C90.0834 154.02 90.7224 156.858 91.0522 159.711C91.1604 160.618 90.743 161.567 89.6506 162.606C83.9256 163.085 78.2006 163.903 73.0734 163.894C67.1835 163.884 61.2111 163.471 55.3213 163.09C54.8111 162.653 53.9196 161.915 53.9557 161.52C54.4968 155.979 54.8781 150.706 55.8211 144.912" fill="#DC4040"/>
<path d="M73.4857 190.296C72.8622 189.206 72.5015 187.692 71.4709 185.897C71.0483 187.462 71.1669 188.552 70.4712 189.751C64.7926 189.459 59.15 188.891 53.6312 188.341C51.2608 187.612 48.8646 186.846 46.7674 186.16C47.5042 183.115 48.5503 180.112 49.3902 176.648C49.4933 176.225 49.5294 175.882 49.5294 175.882C49.6994 175.525 49.7406 175.191 50.0962 174.454C50.0859 173.969 50.225 173.899 50.225 173.781C50.225 173.781 50.2766 173.561 50.4157 173.387C50.5548 173.213 50.8692 173.091 50.931 173.33C51.9049 173.683 53.3014 174.195 53.6466 173.843C55.007 172.452 56.0376 170.797 57.1919 169.237C57.4959 169.256 57.8 169.275 58.3925 169.547C59.1346 169.787 59.5777 169.777 60.0261 169.763C62.6644 169.998 65.2976 170.238 68.2039 170.882C68.5852 173.288 68.6161 175.652 71.4915 175.694C74.6967 175.741 73.5269 173.119 73.8413 171.469C73.8825 171.244 73.8773 171.009 73.8928 170.778C76.7063 170.628 79.5714 170.172 82.8539 170.261C85.9869 173.49 89.3003 174.736 93.4691 174.167C94.3605 178.274 95.6797 182.49 96.2311 187.006C88.6252 188.181 80.7463 189.525 73.4857 190.296Z" fill="#4F6FB4"/>
<path d="M32.2822 168.748C38.3164 156.078 42.1914 142.759 51.8069 131.071C52.1882 132.322 52.4047 132.712 52.4098 133.106C52.482 138.549 52.348 144 52.6262 149.433C53.0385 157.507 49.1531 164.519 46.3602 171.798C45.1492 174.947 46.3138 179.896 39.8159 179.515C39.1202 179.473 38.3215 180.845 38.0948 181.061C36.1109 180.319 34.4568 180.023 33.3076 179.163C32.3904 178.476 32.3955 176.592 31.468 176.141C29.1492 175.018 30.2725 174.266 31.1434 172.95C31.8648 171.845 31.8751 170.346 32.2822 168.748Z" fill="#ECBDA0"/>
<path d="M111.092 178.27C111.175 180.596 110.005 181.437 107.624 179.703C106.511 178.895 104.847 177.72 103.827 177.983C100.74 178.782 100.663 177.405 100.704 175.375C100.725 174.298 100.585 173.142 100.163 172.146C96.0714 162.554 91.6244 153.141 89.4086 142.896C88.3522 138.022 88.5326 133.774 90.6969 128.219C93.4177 131.053 95.752 133.478 97.8183 136.25C97.133 137.275 96.1797 138.107 96.3549 138.61C97.7874 142.741 99.4415 146.81 101.013 150.904C101.884 153.174 102.404 155.613 103.657 157.69C107.547 164.143 109.547 171.192 111.092 178.27Z" fill="#EBBDA0"/>
<path d="M64.2054 195.592C65.6998 195.541 66.9056 195.4 68.3279 195.235C68.4721 197.764 68.601 200.029 68.7452 202.595C61.1394 202.595 53.7603 202.595 45.9586 202.595C46.4482 198.281 46.8244 194.972 47.2005 191.682C50.9622 192.937 54.6002 194.323 58.3619 195.32C60.0933 195.776 62.0618 195.465 64.2054 195.592Z" fill="#E8BDA0"/>
<path d="M110.856 178.209C109.042 171.211 107.547 164.143 103.662 157.69C102.41 155.613 101.894 153.174 101.018 150.904C99.4468 146.81 97.7926 142.741 96.3601 138.61C96.1849 138.102 97.1331 137.27 97.8699 136.49C98.1791 136.387 98.1482 136.401 97.9679 136.659C98.3234 137.35 98.8542 137.782 99.3901 138.215C103.353 145.918 107.599 153.493 111.376 161.619C111.711 164.956 111.876 168.01 112.499 170.91C112.86 172.583 113.829 174.045 114.349 175.69C115.844 179.05 113.046 178.382 110.856 178.209Z" fill="#E8B295"/>
<path d="M96.4889 201.566C89.6251 203.638 82.9983 201.246 76.1654 202.332C75.6604 199.916 75.2379 197.909 74.9648 196.612C81.8389 195.856 88.6615 195.104 95.9839 194.3C96.4889 195.889 97.2721 198.271 97.942 200.687C97.9987 200.875 97.2 201.26 96.4889 201.566Z" fill="#E5BA9F"/>
<path d="M69.2138 208.413C69.0849 215.19 64.6791 219.17 55.4243 218.146C57.6247 216.788 59.2994 215.754 61.6337 214.316C61.2215 212.337 60.6392 209.729 60.1754 207.097C60.0929 206.622 60.397 205.678 60.6804 205.621C62.8447 205.198 65.1068 204.564 67.2196 204.818C68.0337 204.916 68.5542 206.862 69.2138 208.413Z" fill="#54504C"/>
<path d="M90.0993 167.413C80.8548 168.711 71.0074 169.608 61.6856 168.039C59.3307 167.644 57.0067 167.075 54.729 166.403C54.3735 166.3 54.3529 165.435 54.2086 164.575C57.7487 164.988 61.2785 165.581 64.2879 165.75C73.2283 166.248 81.8905 166.605 90.6146 164.063C90.9495 164.185 91.2432 164.119 92.3615 164.688C92.7685 164.956 92.6242 165.097 92.4697 165.426C92.4027 165.731 92.6397 165.698 92.2326 166.239C91.4391 166.892 90.8155 167.329 90.0993 167.413Z" fill="#C84041"/>
<path d="M101.601 212.229C97.5142 217.859 97.1535 217.948 91.1657 217.455C90.7277 217.056 90.2949 216.661 89.8569 216.261C91.2791 215.288 92.7013 214.316 94.7728 212.896C94.1236 211.082 93.1651 208.394 91.9438 204.987C93.16 203.319 95.5303 203.281 98.4212 203.718C99.5239 206.669 100.802 209.625 101.601 212.229Z" fill="#504D4A"/>
<path d="M73.6147 190.084C81.0041 189.107 88.646 187.645 96.2055 186.752C97.066 189.412 97.4164 189.544 95.9272 190.399C95.077 190.888 94 191.043 92.2789 191.584C92.3253 191.466 92.0058 192.279 91.5987 193.327C90.1971 192.721 88.9964 192.204 87.6978 191.64C87.0795 192.618 86.4663 193.586 86.0798 194.197C83.8176 193.825 81.978 193.525 79.2263 193.078C79.1954 193.102 78.4173 193.731 77.464 194.512C76.9848 193.572 76.6343 192.89 76.3767 192.387C75.0318 192.73 73.7899 193.05 71.5071 193.637C72.5016 191.946 72.9963 191.123 73.6147 190.084Z" fill="#CDDAE9"/>
<path d="M90.6455 164.053C82.1791 166.643 73.2283 166.248 64.2879 165.75C61.2785 165.581 57.5014 165.064 54.2086 164.575C54.5538 164.175 55.0846 163.677 55.3268 163.085C61.227 163.292 67.189 163.884 73.0789 163.889C78.2061 163.893 84.2145 162.986 89.6561 162.601C90.4033 163.033 89.955 163.602 90.6455 164.053Z" fill="#2E1010"/>
<path d="M13.1955 81.2366C14.4631 81.9275 15.4679 82.2048 16.4728 82.482C16.4728 83.8402 16.4728 85.1984 16.4728 86.8762C11.6341 85.8094 8.16096 83.5582 6.31104 79.2722C7.3674 76.9976 8.27948 74.0744 9.80477 72.9794C11.2888 73.2661 12.4586 73.5199 14.1591 73.5856" fill="#B67661"/>
<path d="M82.3179 127.561C77.5772 131.461 72.1923 133.205 66.1066 130.381C65.0708 129.887 64.4679 129.859 63.7517 129.253C62.819 128.684 61.912 128.045 60.8402 127.298C64.303 126.532 67.5958 126.546 71.1771 128.162C74.0216 129.45 77.0773 127.857 79.0149 125.032C79.0355 124.821 79.3395 124.36 79.3395 124.36C81.2616 124.426 82.5756 124.985 82.3179 127.561Z" fill="#2D0F10"/>
<path d="M9.59351 73.158C8.61959 75.1788 7.38801 77.2373 6.31103 79.2769C2.6627 72.1429 6.0946 64.7504 13.685 63.7729C13.685 66.0193 13.685 68.2375 13.685 70.263C12.2834 71.1701 10.9436 72.0348 9.59351 73.158Z" fill="#D0876F"/>
<path d="M16.5297 63.9373C16.5349 62.8517 16.6173 62.0387 16.5761 61.2303C16.3287 56.3944 18.9722 53.3256 24.6096 51.7653C22.5072 57.0947 20.4048 62.4193 18.3023 67.7487C17.7252 67.4714 16.7719 67.1706 16.1587 66.6537C16.4782 65.7091 16.5349 64.9524 16.5297 63.9373Z" fill="#20457A"/>
<path d="M53.9095 188.341C59.1552 188.844 64.9163 189.201 70.4712 189.751C70.7907 190.756 70.296 191.866 70.3063 192.829C69.2603 192.707 68.1988 192.43 67.1682 192.519C66.3643 192.585 65.6017 193.102 64.3598 193.604C63.7414 193.088 62.752 192.26 61.7472 191.419C60.2941 192.185 58.81 195.903 57.362 191.288C56.5375 191.692 55.7852 192.054 54.7649 192.552C54.5278 191.701 54.3217 190.968 54.0177 189.76C53.9198 188.971 53.9146 188.656 53.9095 188.341Z" fill="#C6D3E4"/>
<path d="M59.2688 133.778C58.836 136.575 57.4086 140.579 56.3986 143.422C56.2852 142.421 56.7593 140.283 56.8984 139.206C56.6975 139.131 56.4965 139.056 56.2955 138.981C55.7905 139.714 55.2907 140.452 54.7857 141.185C54.4404 141.138 54.1003 141.091 53.7551 141.044C54.492 136.617 55.2237 132.19 55.9606 127.763C56.3677 127.786 56.7696 127.81 57.1767 127.838C57.6508 129.868 58.4753 131.725 59.2688 133.778Z" fill="#AD3B3B"/>
<path d="M78.8759 125.3C72.3367 127.8 67.6114 126.851 64.4062 122.936C69.4974 122.936 74.1866 122.922 78.8707 122.997C79.0356 123.002 79.3396 123.674 79.3396 124.365C79.1799 124.577 78.9119 125.324 78.8759 125.3Z" fill="#C99985"/>
<path d="M93.4642 174.172C89.3572 174.994 85.6367 173.448 82.849 170.266C83.6477 169.796 84.8432 169.763 85.7913 169.604C91.9131 168.57 92.1192 168.476 93.4642 174.172Z" fill="#6A86C3"/>
<path d="M114.303 175.544C113.674 174.139 112.86 172.583 112.499 170.91C111.876 168.015 111.654 164.664 111.376 161.581C112.649 163.823 113.463 166.652 114.462 169.077C114.844 170.003 114.839 171.211 115.508 171.855C117.647 173.913 116.689 174.689 114.303 175.544Z" fill="#D9A48A"/>
<path d="M83.5599 215.129C85.482 214.245 87.2598 213.587 89.8311 212.638C87.5277 217.779 85.6881 218.663 81.7512 217.215C82.3335 216.572 82.8746 215.965 83.5599 215.129Z" fill="#4C4746"/>
<path d="M50.9313 214.49C52.7142 214.25 54.2652 214.18 55.8163 214.104C53.6675 216.313 52.2916 219.716 47.7673 217.479C48.8804 216.412 49.7873 215.533 50.9313 214.49Z" fill="#4C4746"/>
<path d="M101.585 212.271C100.57 209.832 99.1995 206.599 98.4265 203.718C102.09 204.338 103.75 209.24 101.585 212.271Z" fill="#6F6B69"/>
<path d="M53.6417 188.299C54.7187 188.421 54.8682 189.441 53.9252 189.521C52.776 190.16 51.6269 190.564 50.2974 191.034C50.1532 190.268 49.9934 189.427 49.8285 188.543C48.5093 188.726 47.2211 188.905 45.1754 189.192C45.8556 187.956 46.1596 187.039 46.7676 186.16C49.0813 186.682 51.2714 187.57 53.6417 188.299Z" fill="#BFCBDA"/>
<path d="M73.8879 170.778C73.8827 171.244 73.8827 171.244 73.8364 171.469C73.522 173.119 74.6918 175.741 71.4866 175.694C68.6112 175.652 68.302 173.175 68.199 170.882C68.7916 170.576 69.9304 170.764 70.7755 171.107C71.1929 172.132 71.0744 172.719 71.2341 173.396C71.4711 173.377 71.7133 173.359 71.9504 173.344C72.0277 172.499 72.0998 171.657 72.1771 170.811C72.5533 170.76 73.218 170.769 73.8879 170.778Z" fill="#728FC9"/>
<path d="M57.1869 169.237C56.2078 170.882 55.002 172.452 53.6416 173.843C53.2964 174.195 51.6062 173.772 50.6632 173.213C50.859 172.414 51.3692 171.972 51.8639 171.582C53.5747 170.708 54.8268 169.782 56.2594 168.941C56.3985 168.955 56.8829 169.138 57.1869 169.237Z" fill="#728FC9"/>
<path d="M85.8531 223.109C84.7606 222.573 83.6888 221.962 82.8849 221.501C83.0653 221.078 83.2457 220.655 83.426 220.232C84.9977 220.599 86.5745 220.961 88.1462 221.328C87.3887 221.896 86.8991 222.62 85.8531 223.109Z" fill="#474541"/>
<path d="M85.5954 206.044C84.3638 205.856 83.4105 205.589 82.4521 205.325C82.6427 204.926 82.8076 204.193 83.0292 204.183C84.6988 204.085 86.3735 204.132 88.0482 204.132C88.0688 204.541 88.0895 204.949 88.1101 205.358C87.3629 205.565 86.6157 205.767 85.5954 206.044Z" fill="#474541"/>
<path d="M78.3195 208.789C77.8403 208.197 77.191 207.417 77.0209 206.552C76.8663 205.748 77.2271 204.865 77.3559 204.019C78.0361 204.146 79.247 204.179 79.2986 204.414C79.4841 205.278 79.3656 206.228 79.1852 207.116C79.0873 207.623 78.6493 208.079 78.3195 208.789Z" fill="#474541"/>
<path d="M53.3377 206.477C52.4257 206.214 51.8279 205.95 51.225 205.687C51.5909 205.274 51.967 204.494 52.3226 204.503C53.8427 204.541 55.3577 204.804 56.8727 204.987C56.8315 205.396 56.7851 205.8 56.7439 206.209C55.7184 206.298 54.6827 206.388 53.3377 206.477Z" fill="#4C4746"/>
<path d="M16.4781 82.482C16.3698 82.4914 14.0149 82.4914 13.2008 81.2366C13.0977 81.0768 13.2471 80.8748 13.278 80.5787C14.1386 79.8079 14.5457 79.2111 15.6484 77.4816C15.8391 78.5954 16.5914 82.4162 16.4781 82.482Z" fill="#2B1113"/>
<path d="M56.2646 168.946C55.0124 169.871 52.3947 172.597 50.6685 173.213C50.452 172.475 51.7094 170.078 51.7867 169.566C51.7867 169.566 51.8691 169.383 51.9928 169.167C52.235 168.692 52.1577 168.372 52.2762 168.114C52.6008 168.076 53.1161 168.1 53.8633 168.118C54.4044 168.198 54.5332 168.217 54.6569 168.236C55.1361 168.447 55.6102 168.654 56.2646 168.946Z" fill="#45689A"/>
<path d="M72.1719 170.807C72.3265 171.7 72.0225 172.494 71.9452 173.34C71.7082 173.359 71.466 173.377 71.2289 173.391C71.0692 172.719 70.9095 172.043 70.7703 171.103C71.1001 170.797 71.636 170.802 72.1719 170.807Z" fill="#4F6FB4"/>
<path d="M99.3434 137.994C98.859 137.782 98.3231 137.35 97.9779 136.669C98.5396 136.871 98.9157 137.322 99.3434 137.994Z" fill="#EBBDA0"/>
<path d="M99.7609 44.8851C82.7199 43.4 66.6477 38.6158 50.6631 33.324C45.2627 31.5334 38.8627 31.7073 33.045 30.2458C36.9149 23.2997 42.3204 16.7954 49.2151 12.547C64.5814 3.07256 80.8597 3.8057 97.3029 9.53453C108.547 13.454 114.648 21.3494 115.838 32.1961C116.302 36.4211 115.952 40.7165 115.905 45.1153C115.843 45.2516 116.008 45.9002 115.663 45.9425C110.206 45.7451 104.873 45.1341 99.7609 44.8851Z" fill="#F9D5D3"/>
<path d="M17.2665 34.4378C24.6044 31.1434 32.3803 31.3784 39.9861 32.8588C46.7726 34.1841 53.4715 36.1579 59.9695 38.4184C72.6407 42.822 85.5542 45.0684 99.5858 46.3138C100.766 46.3655 101.879 46.4877 102.714 46.5629C103.28 46.6193 103.126 46.5018 104.09 46.8166C106.527 47.014 108.459 47.1644 110.809 47.3712C111.747 47.2537 112.504 47.1174 112.788 47.4088C106.347 53.3256 97.5813 54.6838 89.3158 53.5747C77.1651 51.9439 66.117 47.2067 54.9401 42.8643C45.6338 39.2456 36.3945 35.3872 26.0524 34.8561C23.1203 34.7104 20.1934 34.5788 17.2665 34.4378Z" fill="#D45561"/>
<path d="M108.593 8.23274C109.763 8.46772 111.17 8.82959 112.613 9.46404C114.014 10.9538 114.7 12.3966 116.039 13.2378C122.388 17.2184 127.422 22.0167 130.865 28.1967C135.064 35.7396 134.528 43.6585 134.168 51.6102C133.652 51.6102 133.359 51.6055 133.019 51.5961C132.972 51.5961 132.931 51.6619 132.792 51.4739C132.163 51.1732 131.674 51.0604 131.163 50.9805C131.143 51.0134 131.225 50.9993 131.071 50.8113C130.39 50.4917 129.875 50.3554 129.272 50.205C129.19 50.1862 129.102 50.3131 128.942 50.1016C128.427 49.7868 128.072 49.6834 127.628 49.533C127.546 49.486 127.397 49.5941 127.232 49.4155C126.737 49.1476 126.407 49.0536 125.98 48.8938C125.882 48.8233 125.629 48.8562 125.408 48.6777C124.619 48.3581 124.047 48.2124 123.398 48.0479C123.315 48.0291 123.223 48.1466 123.068 47.9492C122.568 47.6672 122.218 47.5826 121.692 47.4041C121.234 47.1879 120.966 47.2114 120.574 47.1832C119.796 46.6803 118.667 46.6897 118.028 46.0694C118.023 41.4026 118.93 36.6983 118.436 32.3841C117.503 24.2631 113.535 17.2701 105.8 12.2979C102.142 9.9481 97.9471 8.20924 93.9948 6.1931C95.989 5.92993 97.8338 6.1743 99.6476 6.54088C102.647 7.15653 105.625 7.57949 108.593 8.23274Z" fill="#DA5561"/>
<path d="M115.493 12.7726C112.767 12.3966 103.394 7.15654 100.941 6.80407C99.2662 6.55969 97.5554 5.94873 95.7415 6.20251C99.3435 8.15756 103.167 9.84002 106.496 12.1193C113.545 16.9411 117.637 23.7133 118.482 31.5852C118.93 35.7678 118.296 41.539 118.033 46.0835C117.24 46.4407 116.245 45.8626 115.715 45.8955C115.694 41.6329 116.297 36.4258 115.833 32.2008C114.643 21.3541 108.542 13.454 97.2977 9.53925C80.8545 3.81041 64.5761 3.07727 49.2099 12.5517C42.3203 16.8002 37.1725 23.4642 33.0398 30.2505C32.3389 30.1753 32.3389 30.1753 31.499 29.9967C37.9351 16.2973 49.4881 7.24113 65.4522 4.21458C66.0499 3.989 66.591 3.8856 67.2557 3.66472C68.3636 3.65532 69.1366 3.73521 70.3011 3.73051C76.1292 4.17698 81.5965 4.78793 87.0742 4.92892C88.3573 4.96181 91.1605 7.16594 90.6761 3.00677C96.1641 4.08769 107.769 7.40092 112.69 9.36066C113.215 9.46875 115.096 12.0065 115.493 12.7726Z" fill="#AF3946"/>
<path d="M115.457 47.6719C112.685 49.533 109.124 52.6253 106.053 53.8707C96.623 57.7056 87.0126 55.9574 77.8506 53.0718C66.8438 49.6035 56.1513 45.308 45.3145 41.3979C35.1785 37.7463 23.8419 35.4717 12.4589 37.2576C13.3246 36.3412 15.5353 35.3166 17.0039 34.4613C20.1884 34.5741 23.1205 34.7057 26.0474 34.8561C36.3895 35.3871 45.6288 39.2455 54.9352 42.8642C66.1069 47.2067 77.1549 51.9439 89.3109 53.5746C97.5814 54.6838 106.084 53.3491 112.783 47.4088C113.726 47.3947 114.813 47.4322 115.457 47.6719Z" fill="#B53844"/>
<path d="M19.2145 41.2711C19.6061 41.1536 19.9978 41.0314 20.6316 41.2711C21.1623 42.164 21.4458 42.7045 21.5076 43.2919C20.8892 43.5504 20.5028 43.7619 19.9565 44.0533C19.6061 44.2741 19.4515 44.448 19.1681 44.7535C18.6322 45.2564 18.2767 45.6558 17.9263 46.0553C17.6634 46.3326 17.4058 46.6098 16.942 47.1926C16.6277 47.7519 16.5195 48.0103 16.4061 48.2641C16.4061 48.2641 16.3958 48.3017 16.1897 48.391C15.8651 48.8751 15.7465 49.2698 15.6229 49.6646C15.6229 49.6646 15.6486 49.7163 15.4477 49.8056C15.1333 50.3084 15.0251 50.7173 14.9117 51.1262C14.752 51.8969 14.5871 52.663 14.5047 53.664C11.9075 52.6911 8.92395 51.5068 6.05372 50.1487C5.56934 45.6229 6.72361 44.3728 12.5259 42.5212C14.2006 42.0559 13.8245 42.2298 14.2006 42.0559C14.2006 42.0559 14.2006 42.0559 14.4583 42.0653C15.0457 42.0136 15.3755 41.9478 16.0145 41.9149C17.2873 41.7175 18.2509 41.4967 19.2145 41.2711Z" fill="#E64C63"/>
<path d="M126.552 18.5766C128.51 21.9368 130.509 25.0386 132.529 28.427C132.864 29.9403 133.194 31.1622 133.493 32.3935C134.966 38.4889 136.796 45.4772 133.694 50.6844C133.147 50.4682 132.843 50.3319 132.544 50.1909C132.668 42.493 133.158 34.8185 129.334 27.5106C126.201 21.5233 121.527 16.88 115.74 13.0217C114.519 12.2086 113.736 10.6625 112.7 9.35126C114.911 10.0703 117.137 11.3204 119.61 12.688" fill="#B7333F"/>
<path d="M28.2268 29.7335C33.3386 18.0502 43.1345 10.1455 55.6511 5.72312C59.9642 4.20044 64.6792 3.40151 69.5694 2.66837C69.925 3.10073 69.9456 3.54249 69.9507 3.72108C69.1469 3.73048 68.3379 3.73988 66.9981 3.75398C66.1014 3.97956 65.7356 4.19574 65.3697 4.41192C49.6324 7.42908 38.1618 16.3631 31.5042 29.9872" fill="#C9515E"/>
<path d="M131.215 50.2567C131.215 50.2567 131.684 50.3319 131.267 50.4917C131.102 50.9335 130.921 51.0792 130.556 51.2672C128.999 50.9946 127.721 50.7079 126.289 50.4212C126.129 50.4212 125.804 50.4259 125.665 50.2567C125.093 49.9654 124.666 49.8432 124.089 49.5283C121.28 48.3769 119.317 49.7304 117.281 54.054C116.756 54.6791 116.22 55.3699 115.684 56.1313C115.148 56.8879 114.679 57.621 114.267 58.3166C113.551 58.3918 112.752 58.4388 111.881 58.4435C111.124 58.4435 110.418 58.4106 109.774 58.3589C109.861 58.1286 109.974 57.7009 109.882 57.1887C109.835 56.9208 109.743 56.6999 109.66 56.5354C109.768 56.4555 109.877 56.3756 110.016 56.2863C110.459 56.0138 110.861 55.8869 110.861 55.8869C111.139 55.7741 111.52 55.572 111.938 55.1631C112.005 54.9282 112.164 54.7684 112.829 54.6227C113.53 54.2561 113.813 53.9553 114.102 53.6499C114.102 53.6499 114.164 53.758 114.334 53.7063C114.648 53.3961 114.798 53.1423 114.942 52.8885C114.942 52.7052 115.035 52.5642 115.576 52.3951C116.101 52.0708 116.261 51.8311 116.416 51.5867C116.416 51.5867 116.426 51.6995 116.596 51.6431C116.89 51.3518 117.019 51.1168 117.142 50.8818C117.142 50.8818 117.173 50.9946 117.354 50.9382C117.719 50.4964 117.905 50.1111 118.096 49.7257C117.987 49.0818 117.884 48.438 117.488 47.6015C116.988 47.4887 116.776 47.5639 116.565 47.6343C116.256 47.7095 115.947 47.7847 115.225 47.6296C113.396 47.39 111.974 47.3853 110.546 47.3806C108.423 47.249 106.306 47.1221 103.765 46.7837C102.93 46.6427 102.513 46.7038 102.096 46.7649C101.498 46.7602 100.251 46.4077 99.3747 46.2997C99.1016 45.7827 99.7561 45.7169 99.7561 45.0919C104.868 45.1342 109.985 45.3832 115.663 45.7921C117.513 46.0083 118.802 46.0647 120.085 46.1164C120.311 45.9519 120.548 45.9284 121.12 46.3138C121.744 46.6709 122.053 46.7602 122.362 46.8542" fill="#1B1416"/>
<path d="M69.9508 3.72581C69.585 3.54252 69.5901 3.11486 69.5695 2.67309C74.9338 2.32062 80.7773 2.28302 86.5693 2.48041C88.2852 2.50391 88.7696 2.612 90.0063 2.79998C90.3825 2.98797 90.872 3.05376 91.4389 3.14305C92.1603 7.37741 88.3883 5.1357 87.0846 4.92421C81.6018 4.78792 75.7789 4.17227 69.9508 3.72581Z" fill="#C64653"/>
<path d="M5.83702 43.7807C5.49176 45.6182 5.12074 47.5733 1.58063 46.4031C2.36388 45.3222 2.97195 44.1708 4.11591 43.3671C5.01254 43.4611 5.47115 43.7337 5.83702 43.7807Z" fill="#2B1113"/>
<path d="M95.9324 104.175C95.1182 104.11 94.3092 104.044 93.3456 103.757C94.1649 102.972 95.1337 102.404 96.3858 101.844C103.966 101.116 108.918 97.7276 110.866 91.1622C112.721 84.9023 108.645 77.8341 102.652 76.6686C94 73.1909 88.5326 74.2812 83.4982 80.2309C77.3249 84.8553 77.1497 92.3042 82.8437 98.0142C82.8953 99.0247 82.9107 99.8189 82.7407 100.514C82.2099 100.228 81.8544 100.035 81.3803 99.645C80.0972 98.1458 78.9378 96.8534 77.7423 95.312C77.2888 93.9867 76.8662 92.9058 76.5055 91.5758C76.4798 90.1377 76.3973 88.9534 76.4746 87.5764C76.655 86.9137 76.6807 86.4438 76.7786 85.7952C76.8405 85.4945 76.825 85.3723 76.9796 85.048C78.1133 82.7217 79.082 80.5928 80.293 78.3933C89.4241 69.4077 99.9672 68.3455 109.614 74.8921C109.624 74.8874 109.593 74.8968 109.645 75.1318C111.165 77.8294 112.638 80.292 114.107 82.7546C114.153 83.2104 114.195 83.6663 114.287 84.6438C113.88 87.943 113.427 90.7204 112.973 93.4979C112.798 93.5637 112.69 93.6765 112.474 94.1183C112.144 94.8138 111.979 95.2321 111.819 95.6503C111.819 95.6503 111.912 95.6597 111.721 95.6926C111.422 95.9511 111.319 96.1767 111.216 96.3976C111.216 96.3976 111.216 96.3976 111.031 96.5151C110.634 96.9991 110.423 97.361 110.211 97.7276C107.645 99.41 105.079 101.097 102.018 102.977C99.6631 103.508 97.7978 103.842 95.9324 104.175Z" fill="#1F1614"/>
<path d="M138.486 92.4922C136.126 97.4409 129.494 99.7108 122.831 98.0895C124.021 94.3721 125.206 90.6594 126.474 86.6882C130.818 89.6255 126.953 92.1116 126.345 94.6635C131.715 94.2969 132.354 90.3586 127.917 83.4784C131.168 84.1692 133.554 84.4606 136.574 85.3206C137.352 85.3911 138.151 90.3304 138.486 92.4922Z" fill="#B97861"/>
<path d="M138.486 92.4922C137.909 90.4385 137.172 88.0887 136.832 85.612C135.719 84.4136 135.147 83.483 133.874 82.905C132.241 82.1624 130.267 81.6314 128.53 81.1426C128.041 76.443 134.745 74.878 138.012 78.1302C141.604 81.4199 142.732 87.2004 138.486 92.4922Z" fill="#CA856E"/>
<path d="M136.77 37.2528C136.878 38.4841 137.094 39.6544 137.141 41.1065C137.233 43.0052 137.3 45.0965 137.331 47.061C137.331 48.9455 136.728 52.0144 135.471 51.7559C134.6 51.5068 134.389 51.0603 133.936 50.7596C135.868 44.5937 134.966 38.4889 133.492 32.3934C133.193 31.1621 132.529 29.9402 132.4 28.4223C132.719 28.1309 133.997 27.4024 134.188 27.6374C134.683 28.3236 134.631 28.8828 135.074 29.3293C135.188 30.0248 135.533 31.0635 135.842 32.1961C136.321 33.6858 136.27 34.6399 136.558 35.6926" fill="#C24F5C"/>
<path d="M126.449 50.4212C126.428 52.7945 126.042 55.9527 125.784 58.6079C125.351 57.3813 124.882 55.2383 124.253 53.4243C123.98 53.1188 124.068 52.724 124.119 52.4796C124.717 51.6337 125.263 50.9617 125.81 50.3554C125.804 50.3554 126.289 50.4212 126.449 50.4212Z" fill="#120F17"/>
<path d="M133.693 50.6891C134.384 51.0651 134.837 51.3658 135.471 51.7606C134.533 51.8687 133.415 51.9439 132.024 51.9627C131.751 51.9721 131.766 51.8734 131.709 51.7089C131.431 51.4316 131.256 51.4974 131.04 51.3846C131.04 51.3846 130.612 51.2577 130.571 51.2577C130.607 51.0792 131.003 50.8959 131.21 50.4541C131.606 50.1956 131.874 50.205 132.343 50.205C132.848 50.3319 133.147 50.4729 133.693 50.6891Z" fill="#1C1013"/>
<path d="M22.0124 64.5294C23.0121 63.566 23.9963 62.9175 24.7693 62.0997C28.7783 57.8842 36.3532 57.4048 40.5941 61.376C34.9516 59.5337 29.8398 59.6888 25.8359 63.8621C24.0324 65.7419 23.1461 68.3455 21.8424 70.6249C21.1879 70.5732 20.5387 70.5168 19.5699 70.3805C20.1316 68.4583 21.0127 66.6161 22.0124 64.5294Z" fill="#BD8873"/>
<path d="M29.6956 42.789C28.6959 43.6819 27.6653 44.5843 26.609 45.4913C25.465 46.4735 24.3313 47.4275 23.208 48.3487C21.5075 48.3487 19.8997 48.0244 18.627 47.8176C18.627 47.8176 18.9361 47.3617 19.1113 47.1315C19.4566 46.7884 19.57 46.6427 19.8482 46.3372C20.1213 46.0364 21.3735 44.7206 22.2392 43.9968C23.3986 43.0287 25.0424 41.6564 27.0882 41.7833C27.6241 41.8162 28.598 41.976 29.6956 42.789Z" fill="#435E87"/>
<path d="M18.6267 47.8177C20.1263 47.8976 21.4042 48.1091 22.9759 48.3159C23.4963 48.3582 24.0838 48.6213 24.3208 48.908C22.0226 50.3461 19.2606 51.4787 15.8802 53.335C16.9932 50.957 17.6992 49.4532 18.6267 47.8177Z" fill="#20457A"/>
<path d="M13.5719 58.4998C13.3503 57.8936 13.3246 56.9066 13.3349 56.1312C14.0511 56.4884 15.159 57.2967 15.8804 57.9171C15.2982 58.0486 14.3758 58.4622 13.5719 58.4998Z" fill="#1C1013"/>
<path d="M131.534 22.7545C132.338 24.3242 133.364 25.8328 134.08 27.5434C133.941 27.7878 132.74 28.4129 132.405 28.4223C130.2 25.3252 128.515 21.9368 126.541 18.5719" fill="#BA4C58"/>
<path d="M72.2337 104.434C72.8108 104.185 73.6714 104.584 73.8363 104.754L72.2337 104.434ZM73.8363 104.758C74.0939 107.771 72.4192 109.505 69.4356 110.459C63.5869 112.334 57.898 111.963 52.5698 109.148C48.7051 107.108 48.3547 104.857 51.1837 101.708C58.0887 101.943 64.7773 102.357 71.8524 102.77C72.2388 102.77 72.1976 102.69 72.2594 102.916M59.1244 109.148C63.0459 110.078 68.6317 109.171 69.1831 107.334C69.0697 106.591 68.9255 105.675 68.8636 105.289C67.4878 105.289 66.452 105.289 65.2359 104.763C61.1856 104.349 57.1405 103.908 53.08 103.654C52.946 103.644 52.2091 106.239 52.5389 106.417C54.4197 107.437 56.5376 108.095 59.1244 109.148Z" fill="#7B1928"/>
<path d="M40.3107 93.0467C39.8727 93.4227 39.4296 93.8034 38.6205 94.325C37.9919 94.5553 37.8527 94.7245 37.8218 94.9689C37.8218 94.9689 37.8167 94.8984 37.7857 94.8796C36.0183 94.8843 34.2817 94.9031 32.0195 94.7762C30.3551 94.1934 29.2111 93.7564 28.0672 93.324C27.928 92.9668 27.7889 92.6097 27.49 92.1209C27.2942 91.557 27.2633 91.1246 27.4282 90.3116C27.691 89.0991 27.7528 88.2672 28.1239 87.426C29.7161 87.0171 30.9735 86.4955 32.2926 86.237C36.7861 85.3629 39.9397 87.097 40.9136 91.1528C40.6096 91.9188 40.4602 92.4828 40.3107 93.0467ZM32.3854 90.9037C34.6218 91.1528 36.8582 91.3972 39.6666 91.7073C38.7133 87.9429 36.4099 87.3179 33.7613 87.4119C31.4012 87.4965 29.2524 88.0792 29.1751 91.1105C30.1696 91.0024 30.9941 90.9131 32.3854 90.9037Z" fill="#74ABC7"/>
<path d="M43.3254 68.1764C42.7947 67.6688 42.3103 67.368 41.6507 66.8793C35.5547 63.4344 31.0871 63.7728 27.5418 67.744C23.0329 72.7961 23.1669 82.2846 27.8149 87.4354C27.7531 88.2672 27.6912 89.0991 27.4078 90.0907C26.0216 88.7043 24.8622 87.1628 23.5327 85.2219C23.2133 84.5921 23.0535 84.3571 22.8938 84.1222C22.564 83.0412 22.2393 81.9603 21.9405 80.3625C21.8632 79.3285 21.7601 78.8069 21.657 78.2852C21.6673 76.631 21.6777 74.9814 21.7189 72.8431C21.724 72.2368 21.6983 72.1193 21.6725 71.9971C21.7137 71.6917 21.755 71.3862 21.8168 70.8504C23.1411 68.3455 24.0326 65.7372 25.831 63.8574C29.8297 59.6841 34.9467 59.5291 40.6047 61.6298C41.3879 62.0011 41.8723 62.3629 42.5577 62.9316C42.7638 63.1384 42.9802 63.3263 42.9802 63.3263L43.2791 63.2888C43.8407 63.8621 44.4024 64.4402 45.2681 65.3284C46.2833 66.6537 47.2623 67.5842 47.6334 68.6839C48.6227 71.6118 49.3545 74.6148 50.1377 77.7589C50.1326 78.0409 50.1738 78.1536 50.1583 78.5672C49.9728 80.5082 49.8388 82.1436 49.5709 83.9859C48.9937 85.4287 48.5506 86.6694 47.9889 87.9805C47.7467 88.1873 47.69 88.3471 47.4788 88.6432C45.6546 90.1847 44.0572 91.6087 42.4546 93.0326C41.9135 93.0138 41.3776 92.995 40.5737 93.0044C40.4604 92.4734 40.6098 91.9094 41.1663 91.1011C43.1451 89.2071 44.7219 87.5623 46.5306 85.7717C47.2108 84.1269 47.6643 82.6183 48.226 80.8747C47.4118 77.2983 46.4894 73.9522 45.5155 70.4275" fill="#181311"/>
<path d="M117.894 49.8149C117.905 50.1063 117.719 50.4917 117.291 50.9193C117.266 50.6091 117.482 50.2614 117.894 49.8149Z" fill="#1C1013"/>
<path d="M113.885 53.7015C113.813 53.9459 113.53 54.2514 113.004 54.5757C113.066 54.3219 113.37 54.0399 113.885 53.7015Z" fill="#1C1013"/>
<path d="M116.756 47.6814C116.776 47.5592 116.988 47.484 117.266 47.5263C117.204 47.6767 117.075 47.7049 116.756 47.6814Z" fill="#1C1013"/>
<path d="M114.736 52.9825C114.792 53.1376 114.648 53.3914 114.267 53.7062C114.195 53.537 114.359 53.3068 114.736 52.9825Z" fill="#1C1013"/>
<path d="M116.199 51.6619C116.256 51.8264 116.096 52.0708 115.705 52.3669C115.648 52.193 115.818 51.9674 116.199 51.6619Z" fill="#1C1013"/>
<path d="M116.946 50.9476C117.013 51.1121 116.89 51.347 116.539 51.6196C116.457 51.441 116.601 51.2295 116.946 50.9476Z" fill="#1C1013"/>
<path d="M111.7 55.2243C111.716 55.3794 111.5 55.6002 111.031 55.8728C111.01 55.7083 111.237 55.4969 111.7 55.2243Z" fill="#1C1013"/>
<path d="M83.0189 101.257C83.0189 101.257 82.9622 100.937 82.9416 100.773C82.9056 99.8189 82.8953 99.0246 83.0395 97.939C83.4003 97.4784 83.6012 97.3093 83.9722 97.22C84.3329 97.4597 84.4669 97.6476 84.5339 98.1129C85.0183 98.8461 85.5181 99.3348 86.2602 99.9458C89.3365 100.655 92.0367 103.362 95.2985 100.519C95.6747 100.561 95.8293 100.576 95.9942 100.796C96.0406 101.28 96.0715 101.558 96.1024 101.835C95.1336 102.404 94.1649 102.972 93.0467 103.715C90.8309 103.677 88.7697 103.466 86.2602 103.048C84.8843 102.314 83.9516 101.783 83.0189 101.257Z" fill="#6AA3BF"/>
<path d="M80.293 78.3934C81.1278 73.7784 84.9461 71.1748 89.388 69.92C96.1797 67.9978 102.858 68.8579 108.696 72.9512C109.15 73.2708 109.335 73.9053 109.624 74.6431C99.9672 68.3456 89.4241 69.4077 80.293 78.3934Z" fill="#C98C75"/>
<path d="M76.4746 87.5764C76.3252 87.2897 76.3303 86.8104 76.521 86.1524C76.6807 86.4438 76.655 86.9137 76.4746 87.5764Z" fill="#DC9F83"/>
<path d="M131.04 51.3846C131.215 51.3188 131.746 51.5397 131.772 51.8687C131.607 51.9298 131.323 51.6666 131.04 51.3846Z" fill="#1B1416"/>
<path d="M43.2378 63.1948C43.279 63.2982 42.9802 63.3358 42.9802 63.3358C42.9802 63.3358 42.7637 63.1478 42.7843 63.0115C42.9699 62.8893 43.1038 62.9645 43.2378 63.1948Z" fill="#BD8873"/>
<path d="M58.5526 108.917C56.5171 108.137 54.4199 107.437 52.5442 106.412C52.2144 106.234 52.9513 103.64 53.0852 103.649C57.1458 103.903 64.5198 104.368 68.0702 105.285C65.1124 105.801 58.4701 104.594 58.5526 108.917Z" fill="#94304D"/>
<path d="M58.5523 108.917C58.1968 104.457 62.0461 105.585 65.0915 105.336C66.4519 105.289 67.4928 105.289 68.8687 105.289C68.9305 105.679 69.0696 106.591 69.1881 107.334C68.6316 109.171 62.4325 110.736 58.5523 108.917Z" fill="#C44E97"/>
<path d="M55.976 96.9992C56.0997 96.0686 56.4707 95.1851 56.9757 94.1324C60.2118 92.7883 63.0099 92.5909 64.8289 96.1626C64.9629 96.5198 64.9732 96.6467 64.8598 97.1026C64.7361 97.4315 64.7774 97.7699 64.7774 97.7699C64.7413 97.8874 64.7052 98.0002 64.6176 98.2869C62.072 96.5903 59.4646 95.265 55.976 96.9992Z" fill="#352018"/>
<path d="M37.9866 94.9172C37.8475 94.7198 37.9918 94.5507 38.4246 94.4332C38.5174 94.6118 38.3679 94.7668 37.9866 94.9172Z" fill="#EFB99D"/>
<path d="M32.0966 90.8614C30.9887 90.9084 30.1694 91.0024 29.1697 91.1152C29.2522 88.0839 31.3958 87.5012 33.7559 87.4166C36.4046 87.3226 38.7079 87.9476 39.6613 91.712C36.858 91.3971 34.6216 91.1528 32.0966 90.8614Z" fill="#BFE4F5"/>
<path d="M50.1373 77.7682C50.2713 77.7776 50.3589 77.9609 50.328 78.21C50.1734 78.163 50.1322 78.0502 50.1373 77.7682Z" fill="#E8B295"/>
<path d="M95.0718 100.491C92.0367 103.362 89.3365 100.66 86.4251 99.7625C88.9758 98.9495 91.609 98.4419 94.4844 98.0378C94.8399 98.9213 94.9533 99.7061 95.0718 100.491Z" fill="#A3D7F3"/>
<path d="M95.2983 100.519C94.9582 99.7062 94.8397 98.9213 94.2574 97.8827C90.6555 95.9747 87.5585 95.6128 84.544 97.8733C84.4667 97.6477 84.3276 97.455 83.9669 97.2201C86.3012 93.8269 89.7228 94.8891 92.9692 95.641C95.4632 96.2191 96.7927 97.737 96.1383 100.411C95.824 100.576 95.6745 100.562 95.2983 100.519Z" fill="#79B0C9"/>
<path d="M84.5287 98.113C87.5535 95.6128 90.6505 95.9746 94.0154 97.784C91.6089 98.4419 88.9757 98.9495 86.1777 99.6403C85.5129 99.3349 85.0131 98.8461 84.5287 98.113Z" fill="#D1EBF8"/>
<path d="M64.8801 97.7228C64.777 97.7745 64.7306 97.4362 64.8285 97.2905C65.1377 97.3093 65.1583 97.4878 64.8801 97.7228Z" fill="#DC9F83"/>
<path d="M22.507 40.5473C26.6139 41.553 32.7563 43.1227 40.1766 45.2516C45.175 46.685 48.2926 47.6672 52.4563 48.9502C69.322 54.1433 77.6905 57.4753 81.4934 57.3954C83.6938 57.3531 109.66 56.526 109.66 56.526L113.983 58.0251C109.969 58.3635 104.203 58.7724 97.241 58.9792C92.9177 59.1108 86.2497 59.3081 81.0864 59.0403C66.39 58.2789 61.5049 53.6169 39.6974 47.8787C35.4616 46.7649 29.5151 45.3268 22.239 43.9874L22.3885 42.0323L22.507 40.5473Z" fill="#1B1416"/>
<path d="M5.32169 41.7739L10.7323 40.8011L22.5121 40.552V41.8867L6.74392 44.0673L5.36806 48.0808L1.97739 49.0818L1.33327 45.9048C1.33327 45.9048 1.42602 45.9612 1.58576 46.0458" fill="#1C1013"/>
<path d="M130.705 22.0637C130.705 22.0637 135.26 27.9618 136.363 34.466C137.466 40.9703 137.332 47.061 137.332 47.061L138.79 46.9106C138.79 46.9106 140.408 32.0316 130.767 19.822" fill="#1B1416"/>
<path d="M32.7975 21.528L28.2473 29.6395L22.5069 30.5137H21.5072L20.0334 30.6405L27.2271 21.9697" fill="#1C1013"/>
<path d="M127.252 49.9841C127.092 49.9324 126.706 49.7961 126.392 49.9512C125.928 50.1862 125.938 50.9005 125.912 51.5209C125.851 52.9684 125.387 54.383 125.155 55.8163C124.969 56.9724 124.902 57.2638 124.779 58.0111C124.258 61.1598 124.356 62.894 124.16 64.6892C123.599 69.8823 120.682 74.5913 119.863 75.9119C118.873 77.5098 117.755 78.9855 118.214 79.4225C118.605 79.7938 120.512 78.0502 121.239 78.5437C121.61 78.7975 121.558 79.54 121.424 79.963C121.28 80.4141 121.063 80.4705 120.78 80.9875C120.605 81.3165 120.208 82.0449 120.435 82.6606C120.734 83.4642 122.017 83.8167 122.934 83.7885C124.042 83.7556 124.81 83.1587 125.227 82.8251C126.582 81.7441 127.046 80.3531 127.268 79.7327C128.458 76.4148 129.411 76.7296 130.957 73.1485C131.364 72.2039 131.483 71.7528 132.792 65.709C133.405 62.8799 134.518 57.5693 133.802 53.0859C133.688 52.3903 133.73 51.347 132.884 51.0791C130.705 50.3883 129.597 50.7643 127.252 49.9841Z" fill="#20457A"/>
<path d="M33.081 77.2513C35.4886 77.2513 37.4404 75.3408 37.4404 72.9841C37.4404 70.6273 35.4886 68.7168 33.081 68.7168C30.6733 68.7168 28.7215 70.6273 28.7215 72.9841C28.7215 75.3408 30.6733 77.2513 33.081 77.2513Z" fill="#FDFDFD"/>
<path d="M101.194 87.7409C103.601 87.7409 105.553 85.8304 105.553 83.4736C105.553 81.1169 103.601 79.2064 101.194 79.2064C98.7859 79.2064 96.8341 81.1169 96.8341 83.4736C96.8341 85.8304 98.7859 87.7409 101.194 87.7409Z" fill="#FDFDFD"/>
</svg>
