<svg width="343" height="434" viewBox="0 0 343 434" fill="none" xmlns="http://www.w3.org/2000/svg">
<path d="M85.7601 98.5599V34.9499C85.7601 32.1299 88.0501 29.8499 90.8601 29.8499H98.0301C102.05 29.8499 105.45 25.4599 105.45 20.2499C105.45 15.0399 102.06 10.6499 98.0301 10.6499H18.0501C14.0301 10.6499 10.6401 15.0499 10.6401 20.2499C10.6401 25.4499 14.0401 29.8499 18.0501 29.8499H27.4101C30.2301 29.8499 32.5201 32.1399 32.5201 34.9499V98.7599C50.2601 98.5599 67.9701 98.3799 85.7601 98.5599Z" fill="white"/>
<path d="M98.0402 0.439941H18.0602C8.3502 0.439941 0.450195 9.31994 0.450195 20.2499C0.450195 31.1699 8.3502 40.0499 18.0602 40.0499H22.3202V382.47C22.3202 399.52 38.8302 413.39 59.1502 413.39C79.4502 413.39 95.9702 399.52 95.9702 382.47V40.0499H98.0402C107.76 40.0499 115.66 31.1599 115.66 20.2499C115.65 9.31994 107.75 0.439941 98.0402 0.439941ZM98.0402 29.8399H90.8702C88.0502 29.8399 85.7702 32.1299 85.7702 34.9399V382.47C85.7702 393.89 73.8302 403.18 59.1602 403.18C44.4802 403.18 32.5402 393.89 32.5402 382.47V34.9499C32.5402 32.1299 30.2502 29.8499 27.4302 29.8499H18.0702C14.0502 29.8499 10.6602 25.4599 10.6602 20.2499C10.6602 15.0399 14.0602 10.6499 18.0702 10.6499H98.0502C102.07 10.6499 105.47 15.0499 105.47 20.2499C105.45 25.4499 102.06 29.8399 98.0402 29.8399Z" fill="white"/>
<path opacity="0.6" d="M59.1499 374.43C59.1499 379.06 55.3899 382.81 50.7599 382.81C46.1299 382.81 42.3799 379.06 42.3799 374.43V45.5799C42.3799 40.9499 46.1299 37.1899 50.7599 37.1899C55.3899 37.1899 59.1499 40.9499 59.1499 45.5799V374.43Z" fill="white"/>
<path d="M306.36 330.28C280.21 286.25 235.82 233.14 214.52 209.58C213.26 208.18 212.56 206.37 212.56 204.48V75.4999C212.56 71.2999 215.96 67.8899 220.17 67.8899H230.86C236.85 67.8899 241.9 61.3399 241.9 53.5899C241.9 45.8299 236.84 39.2799 230.86 39.2799H111.66C105.68 39.2799 100.62 45.8299 100.62 53.5899C100.62 61.3399 105.68 67.8899 111.66 67.8899H125.61C129.81 67.8899 133.22 71.2999 133.22 75.4999V204.48C133.22 206.41 132.49 208.25 131.18 209.66C109.07 233.42 62.8003 287.27 36.0103 331.5C58.9403 330.75 81.9403 330.28 105.02 330.28C171.18 330.28 238.92 330.28 306.36 330.28Z" fill="white"/>
<path d="M105.02 330.28C81.9401 330.28 58.9401 330.75 36.0101 331.5C23.7601 351.72 15.5901 369.92 15.6601 382.33C15.7501 398.6 25.1001 417.99 69.0901 417.99C75.2401 417.99 79.4201 417.51 79.4601 417.51C79.7401 417.48 80.0501 417.46 80.3501 417.46H262.17C262.46 417.46 262.76 417.48 263.06 417.51C263.09 417.51 267.26 417.99 273.42 417.99C317.41 417.99 326.76 398.59 326.84 382.33C326.91 369.67 318.64 350.98 306.36 330.28C238.92 330.28 171.18 330.28 105.02 330.28Z" fill="#68B42E"/>
<path d="M227.77 200.4V86.19C227.77 84.49 229.15 83.11 230.85 83.11C245.33 83.11 257.1 69.87 257.1 53.6C257.1 37.33 245.33 24.08 230.85 24.08H111.66C97.1901 24.08 85.4001 37.33 85.4001 53.6C85.4001 69.87 97.1801 83.11 111.66 83.11H114.92C116.62 83.11 118 84.49 118 86.19V200.32C118 201.09 117.72 201.82 117.2 202.39C109.07 211.31 84.7401 238.46 60.7001 269.56C20.5901 321.46 0.310074 359.43 0.440074 382.41C0.630074 414.69 25.6401 433.2 69.0801 433.2C74.8101 433.2 79.0601 432.83 80.6001 432.68C80.7001 432.67 80.7901 432.67 80.8901 432.67H261.59C261.69 432.67 261.78 432.67 261.88 432.68C263.42 432.83 267.68 433.2 273.4 433.2C273.41 433.2 273.41 433.2 273.41 433.2C316.85 433.2 341.86 414.69 342.04 382.41C342.31 332.82 246.52 222.69 228.52 202.44C228.04 201.88 227.77 201.15 227.77 200.4ZM273.42 417.99C267.26 417.99 263.09 417.51 263.06 417.51C262.76 417.48 262.46 417.46 262.17 417.46H80.3501C80.0501 417.46 79.7501 417.48 79.4601 417.51C79.4201 417.51 75.2401 417.99 69.0901 417.99C25.1001 417.99 15.7501 398.59 15.6601 382.33C15.4301 342.79 98.9801 244.29 131.18 209.66C132.49 208.25 133.22 206.41 133.22 204.48V70.9799C133.22 69.2799 131.84 67.8999 130.14 67.8999H111.66C105.68 67.8999 100.62 61.35 100.62 53.6C100.62 45.84 105.68 39.29 111.66 39.29H230.85C236.84 39.29 241.89 45.84 241.89 53.6C241.89 61.35 236.83 67.8999 230.85 67.8999H215.64C213.94 67.8999 212.56 69.2799 212.56 70.9799V204.48C212.56 206.37 213.26 208.19 214.52 209.58C245.85 244.2 327.08 342.73 326.85 382.32C326.76 398.6 317.41 417.99 273.42 417.99Z" fill="black"/>
<path opacity="0.6" d="M208.25 392.41C257.51 402.66 330.24 388.43 263.5 302.68C196.75 216.94 186.85 273.6 208.25 302.68C242 348.54 169.9 384.43 208.25 392.41Z" fill="white"/>
<path d="M69.4302 384.21C69.4302 392.49 62.7302 399.2 54.4402 399.2C46.1602 399.2 39.4502 392.5 39.4502 384.21C39.4502 375.93 46.1502 369.22 54.4402 369.22C62.7302 369.23 69.4302 375.93 69.4302 384.21Z" fill="#9CC42E"/>
<path d="M66.1699 384.21C66.1699 390.67 60.9099 395.94 54.4399 395.94C47.9799 395.94 42.7099 390.68 42.7099 384.21C42.7099 377.75 47.9699 372.48 54.4399 372.48C60.9099 372.49 66.1699 377.75 66.1699 384.21ZM54.4399 365.96C44.3799 365.96 36.1899 374.15 36.1899 384.21C36.1899 394.27 44.3799 402.46 54.4399 402.46C64.4999 402.46 72.6899 394.27 72.6899 384.21C72.6899 374.15 64.5099 365.96 54.4399 365.96Z" fill="#3E6429"/>
<path d="M84.9503 368.42C84.9503 371.29 82.6203 373.62 79.7503 373.62C76.8803 373.62 74.5503 371.29 74.5503 368.42C74.5503 365.55 76.8803 363.22 79.7503 363.22C82.6203 363.22 84.9503 365.54 84.9503 368.42Z" fill="#9CC42E"/>
<path d="M83.8099 368.42C83.8099 370.66 81.9799 372.49 79.7399 372.49C77.4999 372.49 75.6699 370.66 75.6699 368.42C75.6699 366.18 77.4999 364.35 79.7399 364.35C81.9899 364.35 83.8099 366.18 83.8099 368.42ZM79.7499 362.09C76.2599 362.09 73.4199 364.93 73.4199 368.42C73.4199 371.91 76.2599 374.75 79.7499 374.75C83.2399 374.75 86.0799 371.91 86.0799 368.42C86.0799 364.93 83.2399 362.09 79.7499 362.09Z" fill="#3E6429"/>
<path d="M238.851 264.573L83.1147 274.952L90.6479 387.983L246.384 377.604L238.851 264.573Z" fill="#010202"/>
<path d="M133.44 349.01C119.81 349.92 112.5 342.84 111.49 327.77C111.01 320.63 112.36 314.98 115.54 310.83C118.72 306.68 123.43 304.4 129.69 303.98C132.72 303.78 135.38 304.08 137.69 304.89C140 305.7 141.72 306.95 142.87 308.65L138.6 313.49C137.58 312.15 136.33 311.15 134.85 310.48C133.37 309.81 131.79 309.54 130.13 309.65C126.16 309.92 123.07 311.56 120.86 314.58C118.65 317.6 117.73 321.75 118.08 327.02C118.85 338.51 124.19 343.92 134.11 343.26C137.09 343.06 140 342.25 142.82 340.82L144.6 346.16C141.11 347.8 137.39 348.75 133.44 349.01Z" fill="white"/>
<path d="M151.68 347.18L148.76 303.33L155.18 302.9L158.1 346.75L151.68 347.18ZM151.71 328.19L151.32 322.32L177.29 320.59L177.68 326.46L151.71 328.19ZM173.66 345.71L170.74 301.86L177.16 301.43L180.08 345.28L173.66 345.71Z" fill="white"/>
<path d="M186.04 335.02L190.11 303.05L196.78 302.6L192.65 334.57L186.04 335.02ZM186.04 335.02L189.98 328.99L208.01 327.79L208.39 333.53L186.04 335.02ZM208.43 343.39L205.51 299.54L211.93 299.11L214.85 342.96L208.43 343.39ZM213.58 333.19L213.2 327.45L217.96 327.13L218.34 332.87L213.58 333.19Z" fill="white"/>
</svg>
