<svg width="164" height="424" viewBox="0 0 164 424" fill="none" xmlns="http://www.w3.org/2000/svg">
<path d="M110.27 100.9V35.6199C110.27 32.7299 112.61 30.3899 115.51 30.3899H122.87C126.99 30.3899 130.48 25.8799 130.48 20.5399C130.48 15.1999 127 10.6899 122.87 10.6899H40.8002C36.6802 10.6899 33.2002 15.1999 33.2002 20.5399C33.2002 25.8799 36.6802 30.3899 40.8002 30.3899H50.4102C53.3102 30.3899 55.6502 32.7399 55.6502 35.6199V101.1C73.8402 100.9 92.0202 100.72 110.27 100.9Z" fill="white"/>
<path d="M55.6401 101.1V392.23C55.6401 403.95 67.8901 413.48 82.9501 413.48C98.0102 413.48 110.26 403.95 110.26 392.23V100.9C92.0201 100.72 73.8401 100.9 55.6401 101.1Z" fill="#F6A117"/>
<path d="M122.87 0.209961H40.8002C30.8302 0.209961 22.7202 9.32995 22.7202 20.53C22.7202 31.73 30.8302 40.85 40.8002 40.85H43.0402C44.2102 40.85 45.1702 41.7999 45.1702 42.9799V392.23C45.1702 409.72 62.1202 423.96 82.9602 423.96C103.79 423.96 120.74 409.73 120.74 392.23V42.99C120.74 41.82 121.69 40.86 122.87 40.86C132.84 40.86 140.95 31.7399 140.95 20.5399C140.95 9.32995 132.83 0.209961 122.87 0.209961ZM122.87 30.39H117.64C113.57 30.39 110.28 33.69 110.28 37.75V392.24C110.28 403.96 98.0302 413.49 82.9702 413.49C67.9102 413.49 55.6602 403.96 55.6602 392.24V37.75C55.6602 33.68 52.3602 30.38 48.2902 30.38H40.8102C36.6902 30.38 33.2102 25.87 33.2102 20.53C33.2102 15.19 36.6902 10.6799 40.8102 10.6799H122.88C127 10.6799 130.49 15.19 130.49 20.53C130.47 25.88 126.99 30.39 122.87 30.39Z" fill="black"/>
<path opacity="0.6" d="M102.83 329.61C102.83 333.45 99.7202 336.56 95.8802 336.56C92.0402 336.56 88.9302 333.45 88.9302 329.61V56.96C88.9302 53.12 92.0402 50.01 95.8802 50.01C99.7202 50.01 102.83 53.12 102.83 56.96V329.61Z" fill="white"/>
<path d="M155.941 193.293L0.20459 203.673L7.73771 316.703L163.474 306.324L155.941 193.293Z" fill="#010202"/>
<path d="M52.4801 278.35L49.5601 234.5L55.9801 234.07L58.9001 277.92L52.4801 278.35ZM72.1101 277.04L57.2901 244.53L54.4501 244.72L53.7501 234.22L57.8301 233.95L72.6501 266.46L74.1901 266.36L74.8901 276.86L72.1101 277.04ZM73.9701 276.92L71.0501 233.07L77.4701 232.64L80.3901 276.49L73.9701 276.92Z" fill="white"/>
<path d="M89.65 275.87L89.18 268.83C95.7 264.63 100.5 260.4 103.58 256.13C106.66 251.86 108.05 247.58 107.76 243.28C107.59 240.77 106.85 238.93 105.53 237.75C104.21 236.58 102.3 236.07 99.78 236.24C98.11 236.35 96.4 236.95 94.66 238.04C92.91 239.13 91.44 240.52 90.25 242.21L85.71 238.26C87 236.13 88.9 234.36 91.44 232.95C93.97 231.54 96.67 230.74 99.53 230.55C104.16 230.24 107.7 231.11 110.14 233.15C112.58 235.19 113.95 238.42 114.24 242.85C114.53 247.28 113.41 251.62 110.87 255.87C108.33 260.12 104.31 264.31 98.82 268.44L99.27 275.23L89.65 275.87ZM91.51 275.75L91.12 269.88L117.8 268.1L118.19 273.97L91.51 275.75Z" fill="white"/>
</svg>
