<svg width="286" height="413" viewBox="0 0 286 413" fill="none" xmlns="http://www.w3.org/2000/svg">
<path d="M193.1 139.66L193.19 40.5501C193.19 36.9401 196.12 34.01 199.74 34.01H199.75C203.36 34.01 206.29 31.08 206.3 27.47L206.31 13.18C206.31 9.57005 203.39 6.64005 199.77 6.63005L193.22 6.62005L92.8401 6.53005L86.2901 6.52005C82.6701 6.51005 79.7401 9.44005 79.7401 13.06L79.7301 27.35C79.7301 30.96 82.6601 33.9 86.2701 33.9C89.8901 33.9 92.8201 36.83 92.8101 40.45L92.7201 139.57C92.7201 142.17 91.1701 144.52 88.7801 145.56C40.7301 166.42 7.09008 214.24 7.04008 269.96C6.98008 344.94 67.6901 405.77 142.66 405.85C217.64 405.91 278.47 345.19 278.54 270.22C278.59 214.49 245.03 166.61 197.02 145.66C194.64 144.62 193.1 142.27 193.1 139.66Z" fill="white" stroke="black" stroke-width="13" stroke-miterlimit="10"/>
<path d="M7.25 277.66C7.25 277.66 38.95 318.28 102.31 300.28C165.67 282.28 137.83 341.41 232.99 333.04C250.58 331.49 262.15 339.16 262.15 339.16L223.53 379.24L156.64 405.16L84.64 392.81L43.99 366.89L15.21 316.58L7.25 277.66Z" fill="#B04E98"/>
<path opacity="0.3" d="M143.37 409.58C67.3201 409.64 5.61009 347.99 5.54009 271.88C5.49009 215.31 39.5301 166.69 88.2201 145.42C90.6401 144.36 92.2101 141.97 92.2101 139.33L92.1201 38.72C92.1201 35.05 89.1401 32.08 85.4801 32.08C81.8101 32.08 78.8401 29.11 78.8401 25.44L78.8301 10.94C78.8301 7.27003 81.8001 4.29002 85.4701 4.29002L92.1101 4.28002L108.67 4.27002C112.34 4.27002 115.32 7.24002 115.32 10.92V156.07C115.32 158.35 114.15 160.48 112.21 161.69C78.2701 182.82 22.2601 305.91 80.0001 360.06C128.98 405.99 197.17 373.84 224.04 367.36C230.87 365.71 235.21 374.56 229.75 378.99C206.14 398.07 176.1 409.54 143.37 409.58Z" fill="white"/>
<path d="M193.1 139.66L193.19 40.5501C193.19 36.9401 196.12 34.01 199.74 34.01H199.75C203.36 34.01 206.29 31.08 206.3 27.47L206.31 13.18C206.31 9.57005 203.39 6.64005 199.77 6.63005L193.22 6.62005L92.8401 6.53005L86.2901 6.52005C82.6701 6.51005 79.7401 9.44005 79.7401 13.06L79.7301 27.35C79.7301 30.96 82.6601 33.9 86.2701 33.9C89.8901 33.9 92.8201 36.83 92.8101 40.45L92.7201 139.57C92.7201 142.17 91.1701 144.52 88.7801 145.56C40.7301 166.42 7.09008 214.24 7.04008 269.96C6.98008 344.94 67.6901 405.77 142.66 405.85C217.64 405.91 278.47 345.19 278.54 270.22C278.59 214.49 245.03 166.61 197.02 145.66C194.64 144.62 193.1 142.27 193.1 139.66Z" stroke="black" stroke-width="13" stroke-miterlimit="10"/>
<path d="M103.04 342.57C103.04 347.96 98.68 352.32 93.29 352.32C87.9 352.32 83.54 347.96 83.54 342.57C83.54 337.18 87.9 332.82 93.29 332.82C98.68 332.81 103.04 337.18 103.04 342.57Z" fill="#C06CA9"/>
<path d="M100.92 342.57C100.92 346.78 97.5001 350.2 93.2901 350.2C89.0801 350.2 85.6602 346.78 85.6602 342.57C85.6602 338.36 89.0801 334.94 93.2901 334.94C97.4901 334.94 100.92 338.36 100.92 342.57ZM93.2901 330.69C86.7401 330.69 81.4102 336.02 81.4102 342.57C81.4102 349.12 86.7401 354.45 93.2901 354.45C99.8401 354.45 105.17 349.12 105.17 342.57C105.16 336.02 99.8401 330.69 93.2901 330.69Z" fill="#632D59"/>
<path d="M89.0403 322.93C89.0403 324.8 87.5303 326.31 85.6603 326.31C83.7903 326.31 82.2803 324.8 82.2803 322.93C82.2803 321.06 83.7903 319.55 85.6603 319.55C87.5303 319.55 89.0403 321.06 89.0403 322.93Z" fill="#C06CA9"/>
<path d="M88.3003 322.93C88.3003 324.39 87.1103 325.58 85.6503 325.58C84.1903 325.58 83.0003 324.39 83.0003 322.93C83.0003 321.47 84.1903 320.28 85.6503 320.28C87.1103 320.28 88.3003 321.47 88.3003 322.93ZM85.6503 318.81C83.3803 318.81 81.5303 320.66 81.5303 322.93C81.5303 325.2 83.3803 327.05 85.6503 327.05C87.9203 327.05 89.7703 325.2 89.7703 322.93C89.7803 320.66 87.9303 318.81 85.6503 318.81Z" fill="#632D59"/>
<path d="M216.902 202.172L61.1655 212.552L68.6986 325.582L224.435 315.203L216.902 202.172Z" fill="#010202"/>
<path d="M92.92 287.23L90 243.38L96.42 242.95L99.34 286.8L92.92 287.23ZM112.55 285.92L97.73 253.41L94.89 253.6L94.19 243.1L98.27 242.83L113.09 275.34L114.63 275.24L115.33 285.74L112.55 285.92ZM114.41 285.8L111.49 241.95L117.91 241.52L120.83 285.37L114.41 285.8Z" fill="white"/>
<path d="M129.72 284.78L126.8 240.93L133.22 240.5L136.14 284.35L129.72 284.78ZM129.76 265.8L129.37 259.93L155.34 258.2L155.73 264.07L129.76 265.8ZM151.71 283.31L148.79 239.46L155.21 239.03L158.13 282.88L151.71 283.31Z" fill="white"/>
<path d="M164.08 272.63L168.15 240.66L174.82 240.21L170.69 272.18L164.08 272.63ZM164.08 272.63L168.02 266.6L186.05 265.4L186.43 271.14L164.08 272.63ZM186.48 281L183.56 237.15L189.98 236.72L192.9 280.57L186.48 281ZM191.63 270.79L191.25 265.05L196.01 264.73L196.39 270.47L191.63 270.79Z" fill="white"/>
</svg>
