<svg width="144" height="118" viewBox="0 0 144 118" fill="none" xmlns="http://www.w3.org/2000/svg">
<g id="PROT-1_Fraco_MundoVermelho">
<g id="Barra_Mundo_Vermelho">
<g id="Group">
<path id="Vector" d="M82.3299 71.08C80.2099 67.41 75.3199 61.22 75.3199 59.59C75.3199 57.96 75.3199 44.19 75.3199 44.19C75.3199 44.19 75.5299 43.38 75.8499 43.16C76.7699 42.5 75.7299 41.59 75.0799 41.59C74.4299 41.59 74.2599 41.59 74.2599 41.59H71.7399H71.2399H69.6399C69.6399 41.59 69.4799 41.59 68.8199 41.59C68.1699 41.59 67.1199 42.51 68.0499 43.16C68.3699 43.38 68.5799 44.19 68.5799 44.19C68.5799 44.19 68.5799 57.96 68.5799 59.59C68.5799 61.22 63.6899 67.41 61.5699 71.08C59.4499 74.75 62.3299 76.29 63.0399 76.29H71.2399H71.4899H71.7399H80.8599C81.5599 76.3 84.4399 74.75 82.3299 71.08Z" fill="white"/>
</g>
</g>
<g id="Frasco_Mundo_Vermelho">
<g id="Group_2">
<g id="Group_3">
<path id="Vector_2" d="M82.3301 71.08C80.2101 67.41 75.3201 61.22 75.3201 59.59C75.3201 58.89 75.3201 55.92 75.3201 52.77C73.2001 52.96 70.1801 52.95 68.5901 52.88C68.5901 55.99 68.5901 58.9 68.5901 59.59C68.5901 61.22 63.7001 67.41 61.5801 71.08C59.4601 74.75 62.3401 76.29 63.0501 76.29H71.2501H71.5001H71.7501H80.8701C81.5601 76.3 84.4401 74.75 82.3301 71.08Z" fill="url(#paint0_linear_123_2494)"/>
<path id="Vector_3" d="M82.8801 70.7601C82.0801 69.3801 80.8901 67.6401 79.7401 65.9501C78.1401 63.6101 75.9501 60.4101 75.9501 59.5901V52.7701V52.0601L75.2501 52.1201C73.1001 52.3201 70.0301 52.2901 68.6001 52.2301L67.9301 52.2001V52.8701V59.5801C67.9301 60.4101 65.7401 63.6101 64.1401 65.9401C62.9901 67.6201 61.8001 69.3601 61.0001 70.7501C59.7601 72.9001 60.1001 74.3901 60.6101 75.2601C61.2701 76.4001 62.4401 76.9301 63.0301 76.9301H71.2301H71.4801H71.7301H80.8501C81.4401 76.9301 82.6101 76.4001 83.2701 75.2601C83.7801 74.4001 84.1201 72.9101 82.8801 70.7601ZM80.8601 75.6501H71.7401H71.4901H71.2401H63.0401H63.0501C62.8901 75.6401 62.1101 75.3301 61.7101 74.5701C61.2701 73.7501 61.4201 72.6501 62.1401 71.4101C62.9101 70.0701 64.0901 68.3501 65.2301 66.6901C67.7201 63.0501 69.2401 60.7601 69.2401 59.6001V52.8901L68.5701 53.5301C70.0901 53.6001 73.1601 53.6201 75.3901 53.4201L74.6901 52.7801V59.6001C74.6901 60.7601 76.2101 63.0501 78.7001 66.6901C79.8401 68.3501 81.0101 70.0701 81.7901 71.4101C82.5101 72.6601 82.6601 73.7501 82.2201 74.5701C81.7901 75.3301 81.0201 75.6401 80.8601 75.6501Z" fill="#AE1917"/>
</g>
</g>
<g id="Group_4" opacity="0.2">
<path id="Vector_4" d="M67.9001 42.0601C67.6301 42.3801 67.5601 42.8001 68.0501 43.1501C68.3701 43.3701 68.5801 44.1801 68.5801 44.1801C68.5801 44.1801 68.5801 57.9501 68.5801 59.5801C68.5801 61.2101 63.6901 67.4001 61.5701 71.0701C59.4501 74.7401 62.3301 76.2801 63.0401 76.2801H63.4901C62.3701 74.8001 63.1801 73.5601 63.1801 73.5601C63.1801 73.5601 69.4601 62.6501 69.7701 61.8101C70.0901 60.9601 70.0301 59.3401 70.0301 59.3401V44.6201C69.9101 43.2201 68.6701 42.4301 67.9001 42.0601Z" fill="white"/>
</g>
<g id="Group_5">
<path id="Vector_5" d="M77.88 71.93C77.88 72.75 77.22 73.41 76.4 73.41C75.58 73.41 74.92 72.75 74.92 71.93C74.92 71.11 75.58 70.45 76.4 70.45C77.22 70.45 77.88 71.11 77.88 71.93Z" fill="url(#paint1_linear_123_2494)"/>
<path id="Vector_6" d="M77.5601 71.93C77.5601 72.57 77.0401 73.09 76.4001 73.09C75.7601 73.09 75.2401 72.57 75.2401 71.93C75.2401 71.29 75.7601 70.77 76.4001 70.77C77.0401 70.77 77.5601 71.29 77.5601 71.93ZM76.4001 70.13C75.4101 70.13 74.6001 70.94 74.6001 71.93C74.6001 72.92 75.4101 73.73 76.4001 73.73C77.3901 73.73 78.2001 72.92 78.2001 71.93C78.2001 70.93 77.3901 70.13 76.4001 70.13Z" fill="#AE1917"/>
</g>
<g id="Group_6">
<path id="Vector_7" d="M82.88 70.76C82.08 69.38 80.89 67.64 79.74 65.95C78.14 63.61 75.95 60.41 75.95 59.59V44.19L75.93 44.35C76 44.08 76.15 43.74 76.23 43.66C76.23 43.66 76.22 43.67 76.21 43.67C76.75 43.29 76.96 42.72 76.78 42.16C76.54 41.42 75.7 40.92 75.06 40.92H74.24H71.72H71.22H69.62H68.8C68.16 40.92 67.32 41.42 67.08 42.16C66.9 42.72 67.11 43.28 67.65 43.67C67.64 43.66 67.63 43.66 67.63 43.66C67.71 43.74 67.85 44.07 67.93 44.35L67.9101 44.18V59.58C67.9101 60.41 65.72 63.61 64.12 65.94C62.97 67.62 61.78 69.36 60.98 70.75C59.74 72.9 60.08 74.39 60.59 75.26C61.25 76.4 62.42 76.93 63.01 76.93H71.21H71.46H71.71H80.83C81.42 76.93 82.59 76.4 83.25 75.26C83.78 74.4 84.12 72.91 82.88 70.76ZM80.86 75.65H71.74H71.49H71.24H63.04H63.05C62.89 75.64 62.11 75.33 61.71 74.57C61.27 73.75 61.42 72.65 62.14 71.41C62.91 70.07 64.0901 68.35 65.2301 66.69C67.72 63.05 69.24 60.76 69.24 59.6V44.2V44.12L69.22 44.04C69.14 43.73 68.9 42.97 68.44 42.65C68.36 42.59 68.34 42.56 68.34 42.56C68.34 42.57 68.35 42.58 68.34 42.59C68.36 42.47 68.67 42.24 68.83 42.24H69.65H71.25H71.75H74.27H75.09C75.26 42.24 75.56 42.47 75.58 42.59C75.58 42.58 75.58 42.57 75.58 42.56C75.58 42.56 75.5601 42.6 75.4801 42.65C75.0201 42.97 74.78 43.73 74.7 44.04L74.68 44.12V44.2V59.6C74.68 60.76 76.2 63.05 78.69 66.69C79.83 68.35 81 70.07 81.78 71.41C82.5 72.66 82.65 73.75 82.21 74.57C81.79 75.33 81.02 75.64 80.86 75.65Z" fill="#020203"/>
</g>
<g id="Group_7">
<path id="Vector_8" d="M75.7501 68.9501C75.7501 69.2301 75.5201 69.4601 75.2401 69.4601C74.9601 69.4601 74.7301 69.2301 74.7301 68.9501C74.7301 68.6701 74.9601 68.4401 75.2401 68.4401C75.5201 68.4401 75.7501 68.6701 75.7501 68.9501Z" fill="url(#paint2_linear_123_2494)"/>
<path id="Vector_9" d="M75.6401 68.9501C75.6401 69.1701 75.4601 69.3501 75.2401 69.3501C75.0201 69.3501 74.8401 69.1701 74.8401 68.9501C74.8401 68.7301 75.0201 68.5501 75.2401 68.5501C75.4601 68.5501 75.6401 68.7301 75.6401 68.9501ZM75.2401 68.3201C74.9001 68.3201 74.6101 68.6001 74.6101 68.9501C74.6101 69.2901 74.8901 69.5801 75.2401 69.5801C75.5801 69.5801 75.8701 69.3001 75.8701 68.9501C75.8701 68.6101 75.5901 68.3201 75.2401 68.3201Z" fill="#AE1917"/>
</g>
<g id="Group_8">
<path id="Vector_10" d="M76.9701 68.2401C76.9701 68.3801 76.8601 68.5001 76.7101 68.5001C76.5601 68.5001 76.4501 68.3901 76.4501 68.2401C76.4501 68.0901 76.5601 67.9801 76.7101 67.9801C76.8601 67.9801 76.9701 68.0901 76.9701 68.2401Z" fill="url(#paint3_linear_123_2494)"/>
<path id="Vector_11" d="M76.91 68.24C76.91 68.35 76.82 68.44 76.71 68.44C76.6 68.44 76.51 68.35 76.51 68.24C76.51 68.13 76.6 68.04 76.71 68.04C76.82 68.03 76.91 68.13 76.91 68.24ZM76.71 67.92C76.54 67.92 76.4 68.06 76.4 68.23C76.4 68.4 76.54 68.54 76.71 68.54C76.88 68.54 77.02 68.4 77.02 68.23C77.02 68.06 76.88 67.92 76.71 67.92Z" fill="#AE1917"/>
</g>
</g>
</g>
<defs>
<linearGradient id="paint0_linear_123_2494" x1="60.806" y1="64.5354" x2="83.0907" y2="64.5354" gradientUnits="userSpaceOnUse">
<stop offset="0.8422" stop-color="#E41B17"/>
<stop offset="1" stop-color="#AE1917"/>
</linearGradient>
<linearGradient id="paint1_linear_123_2494" x1="74.9187" y1="71.9278" x2="77.8774" y2="71.9278" gradientUnits="userSpaceOnUse">
<stop offset="0.8422" stop-color="#E41B17"/>
<stop offset="1" stop-color="#AE1917"/>
</linearGradient>
<linearGradient id="paint2_linear_123_2494" x1="74.7275" y1="68.95" x2="75.7542" y2="68.95" gradientUnits="userSpaceOnUse">
<stop offset="0.8422" stop-color="#E41B17"/>
<stop offset="1" stop-color="#AE1917"/>
</linearGradient>
<linearGradient id="paint3_linear_123_2494" x1="76.4541" y1="68.2359" x2="76.9674" y2="68.2359" gradientUnits="userSpaceOnUse">
<stop offset="0.8422" stop-color="#E41B17"/>
<stop offset="1" stop-color="#AE1917"/>
</linearGradient>
</defs>
</svg>
