<svg width="47" height="60" viewBox="0 0 47 60" fill="none" xmlns="http://www.w3.org/2000/svg">
<path d="M23.5 31.5991C22.1193 31.5991 21 30.4798 21 29.0991V13.5C21 12.1193 22.1193 11 23.5 11V11C24.8807 11 26 12.1193 26 13.5V29.0991C26 30.4798 24.8807 31.5991 23.5 31.5991V31.5991Z" fill="#C2C2C2"/>
<path d="M23.5 50.5991C22.1193 50.5991 21 49.4798 21 48.0991V32.5C21 31.1193 22.1193 30 23.5 30V30C24.8807 30 26 31.1193 26 32.5V48.0991C26 49.4798 24.8807 50.5991 23.5 50.5991V50.5991Z" fill="#C2C2C2"/>
<path d="M39.6859 47.942C38.6628 48.8692 37.0818 48.7915 36.1546 47.7685L25.6789 36.2102C24.7517 35.1872 24.8294 33.6061 25.8524 32.6789V32.6789C26.8755 31.7517 28.4565 31.8294 29.3837 32.8524L39.8594 44.4107C40.7866 45.4337 40.7089 47.0147 39.6859 47.942V47.942Z" fill="#C2C2C2"/>
<path d="M7.83256 46.8002C6.82047 45.8611 6.76134 44.2793 7.7005 43.2672L18.3111 31.8326C19.2502 30.8205 20.832 30.7614 21.8441 31.7005V31.7005C22.8562 32.6397 22.9153 34.2215 21.9762 35.2336L11.3656 46.6682C10.4265 47.6803 8.84466 47.7394 7.83256 46.8002V46.8002Z" fill="#C2C2C2"/>
<circle cx="24" cy="31" r="10" fill="url(#paint0_radial_451_3)"/>
<circle cx="8" cy="48" r="8" fill="url(#paint1_radial_451_3)"/>
<circle cx="39" cy="48" r="8" fill="url(#paint2_radial_451_3)"/>
<circle cx="23" cy="52" r="8" fill="url(#paint3_radial_451_3)"/>
<circle cx="24" cy="8" r="8" fill="url(#paint4_radial_451_3)"/>
<defs>
<radialGradient id="paint0_radial_451_3" cx="0" cy="0" r="1" gradientUnits="userSpaceOnUse" gradientTransform="translate(24 31) rotate(53.1301) scale(20.7447)">
<stop stop-color="#000AF2"/>
<stop offset="0.190171" stop-color="#1219B5"/>
<stop offset="0.417297" stop-color="#00046D"/>
<stop offset="0.550131" stop-color="#00034B"/>
</radialGradient>
<radialGradient id="paint1_radial_451_3" cx="0" cy="0" r="1" gradientUnits="userSpaceOnUse" gradientTransform="translate(8 48) rotate(53.1301) scale(16.5957)">
<stop stop-color="#FDFDFD"/>
<stop offset="0.190171" stop-color="#C5C5C5"/>
<stop offset="0.417297" stop-color="#BDBDBD"/>
<stop offset="0.550131" stop-color="#393939" stop-opacity="0.5"/>
</radialGradient>
<radialGradient id="paint2_radial_451_3" cx="0" cy="0" r="1" gradientUnits="userSpaceOnUse" gradientTransform="translate(39 48) rotate(53.1301) scale(16.5957)">
<stop stop-color="#FDFDFD"/>
<stop offset="0.190171" stop-color="#C5C5C5"/>
<stop offset="0.417297" stop-color="#BDBDBD"/>
<stop offset="0.550131" stop-color="#393939" stop-opacity="0.5"/>
</radialGradient>
<radialGradient id="paint3_radial_451_3" cx="0" cy="0" r="1" gradientUnits="userSpaceOnUse" gradientTransform="translate(23 52) rotate(53.1301) scale(16.5957)">
<stop stop-color="#FDFDFD"/>
<stop offset="0.190171" stop-color="#C5C5C5"/>
<stop offset="0.417297" stop-color="#BDBDBD"/>
<stop offset="0.550131" stop-color="#393939" stop-opacity="0.5"/>
</radialGradient>
<radialGradient id="paint4_radial_451_3" cx="0" cy="0" r="1" gradientUnits="userSpaceOnUse" gradientTransform="translate(24 8) rotate(53.1301) scale(16.5957)">
<stop stop-color="#FDFDFD"/>
<stop offset="0.190171" stop-color="#C5C5C5"/>
<stop offset="0.417297" stop-color="#BDBDBD"/>
<stop offset="0.550131" stop-color="#393939" stop-opacity="0.5"/>
</radialGradient>
</defs>
</svg>
