<svg width="339" height="53" viewBox="0 0 339 53" fill="none" xmlns="http://www.w3.org/2000/svg">
<g filter="url(#filter0_d_98_114)">
<rect x="0.241699" y="0.431396" width="330.476" height="44.2361" rx="10" fill="#FFA800"/>
</g>
<g filter="url(#filter1_d_98_114)">
<path d="M64.7069 31.1179C63.5922 31.1179 62.6105 30.8677 61.7619 30.3674C60.9195 29.8671 60.2609 29.1229 59.7859 28.1349C59.3109 27.1469 59.0734 25.9214 59.0734 24.4584C59.0734 22.9891 59.3077 21.7604 59.7764 20.7724C60.2514 19.7844 60.9132 19.0402 61.7619 18.5399C62.6105 18.0332 63.5922 17.7799 64.7069 17.7799C66.3155 17.7799 67.541 18.1599 68.3834 18.9199C69.2257 19.6799 69.726 20.6647 69.8844 21.8744L66.6544 22.4349C66.5087 21.8902 66.2775 21.4406 65.9609 21.0859C65.6505 20.7249 65.2325 20.5444 64.7069 20.5444C64.2382 20.5444 63.8234 20.6869 63.4624 20.9719C63.1077 21.2506 62.8322 21.6781 62.6359 22.2544C62.4395 22.8307 62.3414 23.5654 62.3414 24.4584C62.3414 25.3324 62.4427 26.0576 62.6454 26.6339C62.848 27.2039 63.1267 27.6282 63.4814 27.9069C63.8424 28.1856 64.2509 28.3249 64.7069 28.3249C65.3592 28.3249 65.8469 28.1539 66.1699 27.8119C66.4929 27.4636 66.6544 27.0424 66.6544 26.5484H69.8654C69.8654 27.5301 69.6659 28.3629 69.2669 29.0469C68.8742 29.7246 68.2947 30.2407 67.5284 30.5954C66.762 30.9437 65.8215 31.1179 64.7069 31.1179ZM76.3021 31.1179C75.4344 31.1179 74.6364 30.9406 73.9081 30.5859C73.1861 30.2249 72.6066 29.6802 72.1696 28.9519C71.7389 28.2172 71.5236 27.2862 71.5236 26.1589C71.5236 24.9936 71.7389 24.0436 72.1696 23.3089C72.6066 22.5742 73.1861 22.0327 73.9081 21.6844C74.6364 21.3297 75.4344 21.1524 76.3021 21.1524C77.1507 21.1524 77.9329 21.3297 78.6486 21.6844C79.3642 22.0327 79.9374 22.5742 80.3681 23.3089C80.8051 24.0436 81.0236 24.9936 81.0236 26.1589C81.0236 27.2862 80.8051 28.2172 80.3681 28.9519C79.9374 29.6802 79.3642 30.2249 78.6486 30.5859C77.9329 30.9406 77.1507 31.1179 76.3021 31.1179ZM76.1881 28.4674C76.4794 28.4674 76.7612 28.3914 77.0336 28.2394C77.3122 28.0874 77.5434 27.8436 77.7271 27.5079C77.9107 27.1659 78.0026 26.7162 78.0026 26.1589C78.0026 25.2912 77.8474 24.6801 77.5371 24.3254C77.2267 23.9707 76.8531 23.7934 76.4161 23.7934C76.1247 23.7934 75.8334 23.8694 75.5421 24.0214C75.2571 24.1734 75.0196 24.4236 74.8296 24.7719C74.6459 25.1139 74.5541 25.5762 74.5541 26.1589C74.5541 27.0012 74.7156 27.5966 75.0386 27.9449C75.3679 28.2932 75.7511 28.4674 76.1881 28.4674ZM95.7279 30.8139V25.3609C95.7279 24.8669 95.6076 24.5027 95.3669 24.2684C95.1326 24.0277 94.8381 23.9074 94.4834 23.9074C93.9641 23.9074 93.5398 24.1322 93.2104 24.5819C92.8811 25.0252 92.7164 25.7884 92.7164 26.8714H91.5194C91.5194 25.7504 91.6208 24.8226 91.8234 24.0879C92.0261 23.3469 92.3048 22.7642 92.6594 22.3399C93.0141 21.9092 93.4194 21.6052 93.8754 21.4279C94.3378 21.2442 94.8286 21.1524 95.3479 21.1524C96.1459 21.1524 96.7983 21.3329 97.3049 21.6939C97.8179 22.0549 98.1948 22.5521 98.4354 23.1854C98.6824 23.8187 98.8059 24.5439 98.8059 25.3609V30.8139H95.7279ZM83.4634 30.8139V21.4564H86.1424L86.4654 22.7769C86.7884 22.2132 87.1906 21.8016 87.6719 21.5419C88.1596 21.2822 88.6884 21.1524 89.2584 21.1524C90.0628 21.1524 90.7183 21.3329 91.2249 21.6939C91.7379 22.0549 92.1148 22.5521 92.3554 23.1854C92.5961 23.8187 92.7164 24.5439 92.7164 25.3609V30.8139H89.6574V25.3609C89.6574 24.8669 89.5371 24.5027 89.2964 24.2684C89.0558 24.0277 88.7644 23.9074 88.4224 23.9074C88.0741 23.9074 87.7543 24.0056 87.4629 24.2019C87.1716 24.3982 86.9373 24.7149 86.7599 25.1519C86.5889 25.5826 86.5034 26.1557 86.5034 26.8714V30.8139H83.4634ZM107.05 31.1179C106.512 31.1179 106.008 30.9564 105.539 30.6334C105.077 30.3041 104.703 29.8006 104.418 29.1229C104.14 28.4389 104 27.5681 104 26.5104H104.798C104.798 26.8397 104.884 27.1437 105.055 27.4224C105.232 27.7011 105.454 27.9259 105.72 28.0969C105.992 28.2616 106.268 28.3439 106.546 28.3439C106.933 28.3439 107.262 28.2457 107.534 28.0494C107.813 27.8531 108.028 27.5839 108.18 27.2419C108.332 26.8999 108.408 26.5136 108.408 26.0829C108.408 25.6712 108.332 25.3007 108.18 24.9714C108.035 24.6421 107.823 24.3824 107.544 24.1924C107.265 24.0024 106.926 23.9074 106.527 23.9074C106.217 23.9074 105.929 23.9802 105.663 24.1259C105.403 24.2716 105.194 24.4774 105.036 24.7434C104.878 25.0031 104.798 25.3102 104.798 25.6649H104C104 24.6579 104.127 23.8219 104.38 23.1569C104.64 22.4856 105.014 21.9852 105.501 21.6559C105.995 21.3202 106.594 21.1524 107.297 21.1524C108.082 21.1524 108.785 21.3582 109.406 21.7699C110.033 22.1816 110.53 22.7579 110.897 23.4989C111.265 24.2336 111.448 25.0949 111.448 26.0829C111.448 27.0836 111.252 27.9639 110.859 28.7239C110.473 29.4776 109.947 30.0666 109.282 30.4909C108.624 30.9089 107.88 31.1179 107.05 31.1179ZM101.758 30.8139V17.7039H104.798V28.3724L103.658 30.8139H101.758ZM115.671 20.2499C115.094 20.2499 114.648 20.1042 114.331 19.8129C114.021 19.5152 113.866 19.0972 113.866 18.5589C113.866 18.0332 114.021 17.6152 114.331 17.3049C114.648 16.9882 115.094 16.8299 115.671 16.8299C116.228 16.8299 116.668 16.9882 116.991 17.3049C117.314 17.6152 117.476 18.0332 117.476 18.5589C117.476 19.0972 117.314 19.5152 116.991 19.8129C116.668 20.1042 116.228 20.2499 115.671 20.2499ZM114.151 30.8139V21.3994H117.191V30.8139H114.151ZM126.878 30.8139V25.3609C126.878 24.8669 126.758 24.5027 126.517 24.2684C126.276 24.0277 125.985 23.9074 125.643 23.9074C125.295 23.9074 124.975 24.0056 124.684 24.2019C124.392 24.3982 124.158 24.7149 123.981 25.1519C123.81 25.5826 123.724 26.1557 123.724 26.8714H122.803C122.803 25.5287 122.961 24.4362 123.278 23.5939C123.601 22.7516 124.038 22.1341 124.589 21.7414C125.146 21.3487 125.776 21.1524 126.479 21.1524C127.283 21.1524 127.939 21.3329 128.446 21.6939C128.959 22.0549 129.335 22.5521 129.576 23.1854C129.817 23.8187 129.937 24.5439 129.937 25.3609V30.8139H126.878ZM120.684 30.8139V21.4564H123.363L123.724 23.0049V30.8139H120.684ZM139.049 30.8139L138.659 28.3154V24.8099C138.659 24.3412 138.574 23.9771 138.403 23.7174C138.232 23.4577 137.868 23.3279 137.31 23.3279C136.981 23.3279 136.712 23.3786 136.503 23.4799C136.3 23.5749 136.148 23.7047 136.047 23.8694C135.952 24.0277 135.904 24.2019 135.904 24.3919H132.617C132.617 23.6572 132.791 23.0524 133.14 22.5774C133.488 22.0961 134.011 21.7382 134.707 21.5039C135.404 21.2696 136.272 21.1524 137.31 21.1524C138.216 21.1524 138.995 21.2917 139.647 21.5704C140.306 21.8491 140.813 22.2671 141.167 22.8244C141.522 23.3817 141.699 24.0816 141.699 24.9239V30.8139H139.049ZM136.104 31.1179C135.268 31.1179 134.562 30.9786 133.985 30.6999C133.415 30.4149 132.985 30.0317 132.693 29.5504C132.402 29.0691 132.256 28.5371 132.256 27.9544C132.256 27.4034 132.408 26.9284 132.712 26.5294C133.016 26.1241 133.466 25.8106 134.061 25.5889C134.663 25.3672 135.401 25.2564 136.275 25.2564C136.807 25.2564 137.275 25.2849 137.681 25.3419C138.092 25.3989 138.514 25.4686 138.944 25.5509V27.2609C138.628 27.1912 138.298 27.1374 137.956 27.0994C137.621 27.0614 137.291 27.0424 136.968 27.0424C136.519 27.0424 136.161 27.1152 135.895 27.2609C135.635 27.4002 135.505 27.6314 135.505 27.9544C135.505 28.1887 135.622 28.3946 135.857 28.5719C136.091 28.7429 136.462 28.8284 136.968 28.8284C137.399 28.8284 137.738 28.7429 137.985 28.5719C138.232 28.4009 138.406 28.1856 138.507 27.9259C138.609 27.6662 138.659 27.4097 138.659 27.1564H139.372C139.372 27.8784 139.258 28.5402 139.03 29.1419C138.802 29.7436 138.447 30.2249 137.966 30.5859C137.484 30.9406 136.864 31.1179 136.104 31.1179ZM153.824 31.1179C152.956 31.1179 152.158 30.9406 151.43 30.5859C150.708 30.2249 150.128 29.6802 149.691 28.9519C149.26 28.2172 149.045 27.2862 149.045 26.1589C149.045 24.9936 149.26 24.0436 149.691 23.3089C150.128 22.5742 150.708 22.0327 151.43 21.6844C152.158 21.3297 152.956 21.1524 153.824 21.1524C154.672 21.1524 155.454 21.3297 156.17 21.6844C156.886 22.0327 157.459 22.5742 157.89 23.3089C158.327 24.0436 158.545 24.9936 158.545 26.1589C158.545 27.2862 158.327 28.2172 157.89 28.9519C157.459 29.6802 156.886 30.2249 156.17 30.5859C155.454 30.9406 154.672 31.1179 153.824 31.1179ZM153.71 28.4674C154.001 28.4674 154.283 28.3914 154.555 28.2394C154.834 28.0874 155.065 27.8436 155.249 27.5079C155.432 27.1659 155.524 26.7162 155.524 26.1589C155.524 25.2912 155.369 24.6801 155.059 24.3254C154.748 23.9707 154.375 23.7934 153.938 23.7934C153.646 23.7934 153.355 23.8694 153.064 24.0214C152.779 24.1734 152.541 24.4236 152.351 24.7719C152.167 25.1139 152.076 25.5762 152.076 26.1589C152.076 27.0012 152.237 27.5966 152.56 27.9449C152.889 28.2932 153.273 28.4674 153.71 28.4674ZM164.604 31.1179C163.711 31.1179 162.923 31.0007 162.239 30.7664C161.555 30.5257 161.02 30.1679 160.633 29.6929C160.253 29.2116 160.067 28.6067 160.073 27.8784H162.818C162.831 28.2077 162.958 28.4357 163.198 28.5624C163.445 28.6891 163.778 28.7524 164.196 28.7524C164.449 28.7524 164.658 28.7207 164.823 28.6574C164.988 28.5941 165.111 28.5117 165.193 28.4104C165.276 28.3027 165.317 28.1887 165.317 28.0684C165.317 27.9101 165.26 27.7834 165.146 27.6884C165.032 27.5934 164.855 27.4984 164.614 27.4034L162.343 26.5199C161.672 26.2412 161.153 25.8897 160.785 25.4654C160.424 25.0347 160.244 24.5249 160.244 23.9359C160.244 23.1062 160.627 22.4349 161.393 21.9219C162.16 21.4089 163.208 21.1524 164.538 21.1524C165.786 21.1524 166.745 21.4437 167.416 22.0264C168.088 22.6091 168.427 23.3501 168.433 24.2494H165.649C165.649 24.0467 165.564 23.8726 165.393 23.7269C165.222 23.5749 164.937 23.4989 164.538 23.4989C164.209 23.4989 163.949 23.5527 163.759 23.6604C163.569 23.7681 163.474 23.9106 163.474 24.0879C163.474 24.3286 163.673 24.5186 164.072 24.6579L166.656 25.6934C167.296 25.9467 167.8 26.2634 168.167 26.6434C168.534 27.0234 168.718 27.4984 168.718 28.0684C168.718 28.5877 168.537 29.0817 168.176 29.5504C167.822 30.0127 167.334 30.3896 166.713 30.6809C166.093 30.9722 165.39 31.1179 164.604 31.1179ZM179.906 31.1179C179.12 31.1179 178.382 30.9152 177.692 30.5099C177.002 30.1046 176.441 29.5251 176.011 28.7714C175.586 28.0177 175.374 27.1247 175.374 26.0924C175.374 25.0601 175.586 24.1766 176.011 23.4419C176.435 22.7009 176.992 22.1341 177.683 21.7414C178.373 21.3487 179.114 21.1524 179.906 21.1524C180.691 21.1524 181.375 21.3107 181.958 21.6274C182.54 21.9377 183.009 22.3589 183.364 22.8909C183.725 23.4229 183.959 24.0246 184.067 24.6959C184.181 25.3609 184.158 26.0481 184 26.7574H177.778V25.2184H181.777L181.34 25.5034C181.359 25.2817 181.35 25.0569 181.312 24.8289C181.28 24.6009 181.213 24.3919 181.112 24.2019C181.011 24.0056 180.865 23.8504 180.675 23.7364C180.491 23.6161 180.254 23.5559 179.963 23.5559C179.64 23.5559 179.358 23.6351 179.117 23.7934C178.883 23.9454 178.699 24.1702 178.566 24.4679C178.439 24.7592 178.376 25.1171 178.376 25.5414V26.7384C178.376 27.1374 178.433 27.4826 178.547 27.7739C178.661 28.0652 178.829 28.2932 179.051 28.4579C179.279 28.6162 179.564 28.6954 179.906 28.6954C180.184 28.6954 180.428 28.6384 180.637 28.5244C180.846 28.4104 180.992 28.2299 181.074 27.9829H184.095C184 28.5656 183.766 29.0944 183.392 29.5694C183.025 30.0444 182.543 30.4212 181.948 30.6999C181.359 30.9786 180.678 31.1179 179.906 31.1179ZM186.572 30.8139V17.7039H189.612V30.8139H186.572ZM196.586 31.1179C195.801 31.1179 195.063 30.9152 194.373 30.5099C193.682 30.1046 193.122 29.5251 192.691 28.7714C192.267 28.0177 192.055 27.1247 192.055 26.0924C192.055 25.0601 192.267 24.1766 192.691 23.4419C193.116 22.7009 193.673 22.1341 194.363 21.7414C195.054 21.3487 195.795 21.1524 196.586 21.1524C197.372 21.1524 198.056 21.3107 198.638 21.6274C199.221 21.9377 199.69 22.3589 200.044 22.8909C200.405 23.4229 200.64 24.0246 200.747 24.6959C200.861 25.3609 200.839 26.0481 200.681 26.7574H194.458V25.2184H198.458L198.021 25.5034C198.04 25.2817 198.03 25.0569 197.992 24.8289C197.961 24.6009 197.894 24.3919 197.793 24.2019C197.691 24.0056 197.546 23.8504 197.356 23.7364C197.172 23.6161 196.935 23.5559 196.643 23.5559C196.32 23.5559 196.038 23.6351 195.798 23.7934C195.563 23.9454 195.38 24.1702 195.247 24.4679C195.12 24.7592 195.057 25.1171 195.057 25.5414V26.7384C195.057 27.1374 195.114 27.4826 195.228 27.7739C195.342 28.0652 195.51 28.2932 195.731 28.4579C195.959 28.6162 196.244 28.6954 196.586 28.6954C196.865 28.6954 197.109 28.6384 197.318 28.5244C197.527 28.4104 197.672 28.2299 197.755 27.9829H200.776C200.681 28.5656 200.446 29.0944 200.073 29.5694C199.705 30.0444 199.224 30.4212 198.629 30.6999C198.04 30.9786 197.359 31.1179 196.586 31.1179ZM215.517 30.8139V25.3609C215.517 24.8669 215.397 24.5027 215.156 24.2684C214.922 24.0277 214.627 23.9074 214.273 23.9074C213.753 23.9074 213.329 24.1322 213 24.5819C212.67 25.0252 212.506 25.7884 212.506 26.8714H211.309C211.309 25.7504 211.41 24.8226 211.613 24.0879C211.815 23.3469 212.094 22.7642 212.449 22.3399C212.803 21.9092 213.209 21.6052 213.665 21.4279C214.127 21.2442 214.618 21.1524 215.137 21.1524C215.935 21.1524 216.587 21.3329 217.094 21.6939C217.607 22.0549 217.984 22.5521 218.225 23.1854C218.472 23.8187 218.595 24.5439 218.595 25.3609V30.8139H215.517ZM203.253 30.8139V21.4564H205.932L206.255 22.7769C206.578 22.2132 206.98 21.8016 207.461 21.5419C207.949 21.2822 208.478 21.1524 209.048 21.1524C209.852 21.1524 210.507 21.3329 211.014 21.6939C211.527 22.0549 211.904 22.5521 212.145 23.1854C212.385 23.8187 212.506 24.5439 212.506 25.3609V30.8139H209.447V25.3609C209.447 24.8669 209.326 24.5027 209.086 24.2684C208.845 24.0277 208.554 23.9074 208.212 23.9074C207.863 23.9074 207.543 24.0056 207.252 24.2019C206.961 24.3982 206.726 24.7149 206.549 25.1519C206.378 25.5826 206.293 26.1557 206.293 26.8714V30.8139H203.253ZM225.29 31.1179C224.505 31.1179 223.767 30.9152 223.077 30.5099C222.387 30.1046 221.826 29.5251 221.395 28.7714C220.971 28.0177 220.759 27.1247 220.759 26.0924C220.759 25.0601 220.971 24.1766 221.395 23.4419C221.82 22.7009 222.377 22.1341 223.067 21.7414C223.758 21.3487 224.499 21.1524 225.29 21.1524C226.076 21.1524 226.76 21.3107 227.342 21.6274C227.925 21.9377 228.394 22.3589 228.748 22.8909C229.109 23.4229 229.344 24.0246 229.451 24.6959C229.565 25.3609 229.543 26.0481 229.385 26.7574H223.162V25.2184H227.162L226.725 25.5034C226.744 25.2817 226.734 25.0569 226.696 24.8289C226.665 24.6009 226.598 24.3919 226.497 24.2019C226.396 24.0056 226.25 23.8504 226.06 23.7364C225.876 23.6161 225.639 23.5559 225.347 23.5559C225.024 23.5559 224.743 23.6351 224.502 23.7934C224.268 23.9454 224.084 24.1702 223.951 24.4679C223.824 24.7592 223.761 25.1171 223.761 25.5414V26.7384C223.761 27.1374 223.818 27.4826 223.932 27.7739C224.046 28.0652 224.214 28.2932 224.435 28.4579C224.663 28.6162 224.948 28.6954 225.29 28.6954C225.569 28.6954 225.813 28.6384 226.022 28.5244C226.231 28.4104 226.377 28.2299 226.459 27.9829H229.48C229.385 28.5656 229.151 29.0944 228.777 29.5694C228.41 30.0444 227.928 30.4212 227.333 30.6999C226.744 30.9786 226.063 31.1179 225.29 31.1179ZM238.151 30.8139V25.3609C238.151 24.8669 238.03 24.5027 237.79 24.2684C237.549 24.0277 237.258 23.9074 236.916 23.9074C236.567 23.9074 236.247 24.0056 235.956 24.2019C235.665 24.3982 235.43 24.7149 235.253 25.1519C235.082 25.5826 234.997 26.1557 234.997 26.8714H234.075C234.075 25.5287 234.233 24.4362 234.55 23.5939C234.873 22.7516 235.31 22.1341 235.861 21.7414C236.418 21.3487 237.049 21.1524 237.752 21.1524C238.556 21.1524 239.211 21.3329 239.718 21.6939C240.231 22.0549 240.608 22.5521 240.849 23.1854C241.089 23.8187 241.21 24.5439 241.21 25.3609V30.8139H238.151ZM231.957 30.8139V21.4564H234.636L234.997 23.0049V30.8139H231.957ZM247.642 31.1179C247.047 31.1179 246.489 31.0102 245.97 30.7949C245.457 30.5796 245.042 30.2439 244.726 29.7879C244.415 29.3256 244.26 28.7334 244.26 28.0114V19.0909H247.319V27.8974C247.319 28.4674 247.601 28.7524 248.165 28.7524C248.342 28.7524 248.529 28.7334 248.725 28.6954C248.928 28.6511 249.162 28.5814 249.428 28.4864L249.875 30.6049C249.488 30.7442 249.118 30.8646 248.763 30.9659C248.415 31.0672 248.041 31.1179 247.642 31.1179ZM243.149 23.4229V21.4564H249.447V23.4229H243.149ZM256.041 31.1179C255.174 31.1179 254.376 30.9406 253.647 30.5859C252.925 30.2249 252.346 29.6802 251.909 28.9519C251.478 28.2172 251.263 27.2862 251.263 26.1589C251.263 24.9936 251.478 24.0436 251.909 23.3089C252.346 22.5742 252.925 22.0327 253.647 21.6844C254.376 21.3297 255.174 21.1524 256.041 21.1524C256.89 21.1524 257.672 21.3297 258.388 21.6844C259.103 22.0327 259.677 22.5742 260.107 23.3089C260.544 24.0436 260.763 24.9936 260.763 26.1589C260.763 27.2862 260.544 28.2172 260.107 28.9519C259.677 29.6802 259.103 30.2249 258.388 30.5859C257.672 30.9406 256.89 31.1179 256.041 31.1179ZM255.927 28.4674C256.219 28.4674 256.5 28.3914 256.773 28.2394C257.051 28.0874 257.283 27.8436 257.466 27.5079C257.65 27.1659 257.742 26.7162 257.742 26.1589C257.742 25.2912 257.587 24.6801 257.276 24.3254C256.966 23.9707 256.592 23.7934 256.155 23.7934C255.864 23.7934 255.573 23.8694 255.281 24.0214C254.996 24.1734 254.759 24.4236 254.569 24.7719C254.385 25.1139 254.293 25.5762 254.293 26.1589C254.293 27.0012 254.455 27.5966 254.778 27.9449C255.107 28.2932 255.49 28.4674 255.927 28.4674ZM266.822 31.1179C265.929 31.1179 265.141 31.0007 264.457 30.7664C263.773 30.5257 263.238 30.1679 262.851 29.6929C262.471 29.2116 262.284 28.6067 262.291 27.8784H265.036C265.049 28.2077 265.176 28.4357 265.416 28.5624C265.663 28.6891 265.996 28.7524 266.414 28.7524C266.667 28.7524 266.876 28.7207 267.041 28.6574C267.205 28.5941 267.329 28.5117 267.411 28.4104C267.494 28.3027 267.535 28.1887 267.535 28.0684C267.535 27.9101 267.478 27.7834 267.364 27.6884C267.25 27.5934 267.072 27.4984 266.832 27.4034L264.561 26.5199C263.89 26.2412 263.371 25.8897 263.003 25.4654C262.642 25.0347 262.462 24.5249 262.462 23.9359C262.462 23.1062 262.845 22.4349 263.611 21.9219C264.378 21.4089 265.426 21.1524 266.756 21.1524C268.003 21.1524 268.963 21.4437 269.634 22.0264C270.306 22.6091 270.644 23.3501 270.651 24.2494H267.867C267.867 24.0467 267.782 23.8726 267.611 23.7269C267.44 23.5749 267.155 23.4989 266.756 23.4989C266.426 23.4989 266.167 23.5527 265.977 23.6604C265.787 23.7681 265.692 23.9106 265.692 24.0879C265.692 24.3286 265.891 24.5186 266.29 24.6579L268.874 25.6934C269.514 25.9467 270.017 26.2634 270.385 26.6434C270.752 27.0234 270.936 27.4984 270.936 28.0684C270.936 28.5877 270.755 29.0817 270.394 29.5504C270.04 30.0127 269.552 30.3896 268.931 30.6809C268.311 30.9722 267.608 31.1179 266.822 31.1179Z" fill="black"/>
</g>
<defs>
<filter id="filter0_d_98_114" x="0.241699" y="0.431396" width="338.476" height="52.2361" filterUnits="userSpaceOnUse" color-interpolation-filters="sRGB">
<feFlood flood-opacity="0" result="BackgroundImageFix"/>
<feColorMatrix in="SourceAlpha" type="matrix" values="0 0 0 0 0 0 0 0 0 0 0 0 0 0 0 0 0 0 127 0" result="hardAlpha"/>
<feOffset dx="4" dy="4"/>
<feGaussianBlur stdDeviation="2"/>
<feComposite in2="hardAlpha" operator="out"/>
<feColorMatrix type="matrix" values="0 0 0 0 0 0 0 0 0 0 0 0 0 0 0 0 0 0 0.25 0"/>
<feBlend mode="normal" in2="BackgroundImageFix" result="effect1_dropShadow_98_114"/>
<feBlend mode="normal" in="SourceGraphic" in2="effect1_dropShadow_98_114" result="shape"/>
</filter>
<filter id="filter1_d_98_114" x="55.0734" y="16.8299" width="219.862" height="22.288" filterUnits="userSpaceOnUse" color-interpolation-filters="sRGB">
<feFlood flood-opacity="0" result="BackgroundImageFix"/>
<feColorMatrix in="SourceAlpha" type="matrix" values="0 0 0 0 0 0 0 0 0 0 0 0 0 0 0 0 0 0 127 0" result="hardAlpha"/>
<feOffset dy="4"/>
<feGaussianBlur stdDeviation="2"/>
<feComposite in2="hardAlpha" operator="out"/>
<feColorMatrix type="matrix" values="0 0 0 0 0 0 0 0 0 0 0 0 0 0 0 0 0 0 0.25 0"/>
<feBlend mode="normal" in2="BackgroundImageFix" result="effect1_dropShadow_98_114"/>
<feBlend mode="normal" in="SourceGraphic" in2="effect1_dropShadow_98_114" result="shape"/>
</filter>
</defs>
</svg>
