<svg width="339" height="53" viewBox="0 0 339 53" fill="none" xmlns="http://www.w3.org/2000/svg">
<g filter="url(#filter0_d_393_2)">
<rect x="0.241699" y="0.431396" width="330.476" height="44.2361" rx="10" fill="#FFA800"/>
</g>
<g filter="url(#filter1_d_393_2)">
<path d="M63.6285 18.0649H68.141C69.452 18.0649 70.6078 18.3246 71.6085 18.8439C72.6091 19.3632 73.3913 20.1011 73.955 21.0574C74.525 22.0074 74.81 23.1411 74.81 24.4584C74.81 25.7567 74.525 26.8841 73.955 27.8404C73.3913 28.7904 72.6091 29.5251 71.6085 30.0444C70.6078 30.5574 69.452 30.8139 68.141 30.8139H63.6285V18.0649ZM66.6685 20.8579V28.0399H68.141C68.8313 28.0399 69.4266 27.8847 69.927 27.5744C70.4336 27.2577 70.8231 26.8302 71.0955 26.2919C71.3741 25.7536 71.5135 25.1424 71.5135 24.4584C71.5135 23.7491 71.3741 23.1252 71.0955 22.5869C70.8231 22.0486 70.4336 21.6274 69.927 21.3234C69.4266 21.0131 68.8313 20.8579 68.141 20.8579H66.6685ZM80.9535 31.1179C80.1682 31.1179 79.4303 30.9152 78.74 30.5099C78.0497 30.1046 77.4892 29.5251 77.0585 28.7714C76.6342 28.0177 76.422 27.1247 76.422 26.0924C76.422 25.0601 76.6342 24.1766 77.0585 23.4419C77.4828 22.7009 78.0402 22.1341 78.7305 21.7414C79.4208 21.3487 80.1618 21.1524 80.9535 21.1524C81.7388 21.1524 82.4228 21.3107 83.0055 21.6274C83.5882 21.9377 84.0568 22.3589 84.4115 22.8909C84.7725 23.4229 85.0068 24.0246 85.1145 24.6959C85.2285 25.3609 85.2063 26.0481 85.048 26.7574H78.8255V25.2184H82.825L82.388 25.5034C82.407 25.2817 82.3975 25.0569 82.3595 24.8289C82.3278 24.6009 82.2613 24.3919 82.16 24.2019C82.0587 24.0056 81.913 23.8504 81.723 23.7364C81.5393 23.6161 81.3018 23.5559 81.0105 23.5559C80.6875 23.5559 80.4057 23.6351 80.165 23.7934C79.9307 23.9454 79.747 24.1702 79.614 24.4679C79.4873 24.7592 79.424 25.1171 79.424 25.5414V26.7384C79.424 27.1374 79.481 27.4826 79.595 27.7739C79.709 28.0652 79.8768 28.2932 80.0985 28.4579C80.3265 28.6162 80.6115 28.6954 80.9535 28.6954C81.2322 28.6954 81.476 28.6384 81.685 28.5244C81.894 28.4104 82.0397 28.2299 82.122 27.9829H85.143C85.048 28.5656 84.8137 29.0944 84.44 29.5694C84.0727 30.0444 83.5913 30.4212 82.996 30.6999C82.407 30.9786 81.7262 31.1179 80.9535 31.1179ZM91.4387 31.1179C90.6217 31.1179 89.8617 30.9121 89.1587 30.5004C88.462 30.0887 87.8983 29.5092 87.4677 28.7619C87.0433 28.0146 86.8312 27.1406 86.8312 26.1399C86.8312 25.0442 87.0433 24.1291 87.4677 23.3944C87.8983 22.6534 88.462 22.0961 89.1587 21.7224C89.8617 21.3424 90.6217 21.1524 91.4387 21.1524C92.129 21.1524 92.7307 21.2696 93.2437 21.5039C93.763 21.7382 94.1937 22.0454 94.5357 22.4254C94.8777 22.8054 95.131 23.2234 95.2957 23.6794C95.4667 24.1354 95.5522 24.5819 95.5522 25.0189L92.5122 24.9904C92.4679 24.7181 92.357 24.4711 92.1797 24.2494C92.0087 24.0214 91.7553 23.9074 91.4197 23.9074C91.1537 23.9074 90.9003 23.9771 90.6597 24.1164C90.4253 24.2494 90.2322 24.4774 90.0802 24.8004C89.9345 25.1234 89.8617 25.5699 89.8617 26.1399C89.8617 26.6972 89.9345 27.1374 90.0802 27.4604C90.2322 27.7834 90.4253 28.0114 90.6597 28.1444C90.9003 28.2774 91.1537 28.3439 91.4197 28.3439C91.8503 28.3439 92.1385 28.2457 92.2842 28.0494C92.4362 27.8467 92.5122 27.5934 92.5122 27.2894H95.5522C95.5522 27.9607 95.4034 28.5877 95.1057 29.1704C94.808 29.7531 94.3552 30.2249 93.7472 30.5859C93.1455 30.9406 92.376 31.1179 91.4387 31.1179ZM101.945 31.1179C101.077 31.1179 100.279 30.9406 99.5506 30.5859C98.8286 30.2249 98.2491 29.6802 97.8121 28.9519C97.3815 28.2172 97.1661 27.2862 97.1661 26.1589C97.1661 24.9936 97.3815 24.0436 97.8121 23.3089C98.2491 22.5742 98.8286 22.0327 99.5506 21.6844C100.279 21.3297 101.077 21.1524 101.945 21.1524C102.793 21.1524 103.575 21.3297 104.291 21.6844C105.007 22.0327 105.58 22.5742 106.011 23.3089C106.448 24.0436 106.666 24.9936 106.666 26.1589C106.666 27.2862 106.448 28.2172 106.011 28.9519C105.58 29.6802 105.007 30.2249 104.291 30.5859C103.575 30.9406 102.793 31.1179 101.945 31.1179ZM101.831 28.4674C102.122 28.4674 102.404 28.3914 102.676 28.2394C102.955 28.0874 103.186 27.8436 103.37 27.5079C103.553 27.1659 103.645 26.7162 103.645 26.1589C103.645 25.2912 103.49 24.6801 103.18 24.3254C102.869 23.9707 102.496 23.7934 102.059 23.7934C101.767 23.7934 101.476 23.8694 101.185 24.0214C100.9 24.1734 100.662 24.4236 100.472 24.7719C100.288 25.1139 100.197 25.5762 100.197 26.1589C100.197 27.0012 100.358 27.5966 100.681 27.9449C101.01 28.2932 101.394 28.4674 101.831 28.4674ZM121.371 30.8139V25.3609C121.371 24.8669 121.25 24.5027 121.01 24.2684C120.775 24.0277 120.481 23.9074 120.126 23.9074C119.607 23.9074 119.182 24.1322 118.853 24.5819C118.524 25.0252 118.359 25.7884 118.359 26.8714H117.162C117.162 25.7504 117.263 24.8226 117.466 24.0879C117.669 23.3469 117.947 22.7642 118.302 22.3399C118.657 21.9092 119.062 21.6052 119.518 21.4279C119.98 21.2442 120.471 21.1524 120.991 21.1524C121.789 21.1524 122.441 21.3329 122.948 21.6939C123.461 22.0549 123.837 22.5521 124.078 23.1854C124.325 23.8187 124.449 24.5439 124.449 25.3609V30.8139H121.371ZM109.106 30.8139V21.4564H111.785L112.108 22.7769C112.431 22.2132 112.833 21.8016 113.315 21.5419C113.802 21.2822 114.331 21.1524 114.901 21.1524C115.705 21.1524 116.361 21.3329 116.868 21.6939C117.381 22.0549 117.757 22.5521 117.998 23.1854C118.239 23.8187 118.359 24.5439 118.359 25.3609V30.8139H115.3V25.3609C115.3 24.8669 115.18 24.5027 114.939 24.2684C114.698 24.0277 114.407 23.9074 114.065 23.9074C113.717 23.9074 113.397 24.0056 113.106 24.2019C112.814 24.3982 112.58 24.7149 112.403 25.1519C112.232 25.5826 112.146 26.1557 112.146 26.8714V30.8139H109.106ZM132.54 31.1179C131.85 31.1179 131.274 30.9786 130.811 30.6999C130.349 30.4212 130.001 29.9842 129.766 29.3889C129.538 28.7936 129.424 28.0209 129.424 27.0709H130.441C130.441 27.3242 130.514 27.5459 130.659 27.7359C130.805 27.9259 131.001 28.0747 131.248 28.1824C131.495 28.2901 131.765 28.3439 132.056 28.3439C132.347 28.3439 132.645 28.2711 132.949 28.1254C133.259 27.9797 133.519 27.7454 133.728 27.4224C133.943 27.0994 134.051 26.6719 134.051 26.1399C134.051 25.6902 133.972 25.2976 133.813 24.9619C133.655 24.6262 133.43 24.3666 133.139 24.1829C132.854 23.9992 132.512 23.9074 132.113 23.9074C131.79 23.9074 131.502 23.9739 131.248 24.1069C130.995 24.2399 130.796 24.4299 130.65 24.6769C130.511 24.9176 130.441 25.2026 130.441 25.5319H129.424C129.424 24.4679 129.576 23.6161 129.88 22.9764C130.191 22.3367 130.596 21.8744 131.096 21.5894C131.597 21.2981 132.129 21.1524 132.692 21.1524C133.44 21.1524 134.149 21.3487 134.82 21.7414C135.492 22.1341 136.036 22.7009 136.454 23.4419C136.879 24.1829 137.091 25.0822 137.091 26.1399C137.091 27.1912 136.876 28.0874 136.445 28.8284C136.021 29.5694 135.46 30.1362 134.763 30.5289C134.073 30.9216 133.332 31.1179 132.54 31.1179ZM127.401 35.3549V21.4564H129.88L130.441 23.8979V35.3549H127.401ZM143.489 31.1179C142.621 31.1179 141.823 30.9406 141.095 30.5859C140.373 30.2249 139.793 29.6802 139.356 28.9519C138.925 28.2172 138.71 27.2862 138.71 26.1589C138.71 24.9936 138.925 24.0436 139.356 23.3089C139.793 22.5742 140.373 22.0327 141.095 21.6844C141.823 21.3297 142.621 21.1524 143.489 21.1524C144.337 21.1524 145.119 21.3297 145.835 21.6844C146.551 22.0327 147.124 22.5742 147.555 23.3089C147.992 24.0436 148.21 24.9936 148.21 26.1589C148.21 27.2862 147.992 28.2172 147.555 28.9519C147.124 29.6802 146.551 30.2249 145.835 30.5859C145.119 30.9406 144.337 31.1179 143.489 31.1179ZM143.375 28.4674C143.666 28.4674 143.948 28.3914 144.22 28.2394C144.499 28.0874 144.73 27.8436 144.914 27.5079C145.097 27.1659 145.189 26.7162 145.189 26.1589C145.189 25.2912 145.034 24.6801 144.724 24.3254C144.413 23.9707 144.04 23.7934 143.603 23.7934C143.311 23.7934 143.02 23.8694 142.729 24.0214C142.444 24.1734 142.206 24.4236 142.016 24.7719C141.832 25.1139 141.741 25.5762 141.741 26.1589C141.741 27.0012 141.902 27.5966 142.225 27.9449C142.554 28.2932 142.938 28.4674 143.375 28.4674ZM141.066 20.0219L139.869 19.3284C140.021 18.4227 140.306 17.7071 140.724 17.1814C141.148 16.6557 141.661 16.3929 142.263 16.3929C142.466 16.3929 142.675 16.4341 142.89 16.5164C143.112 16.5924 143.365 16.7032 143.65 16.8489C143.903 16.9692 144.116 17.0706 144.287 17.1529C144.458 17.2289 144.625 17.2669 144.79 17.2669C144.974 17.2669 145.154 17.1972 145.332 17.0579C145.509 16.9186 145.664 16.6969 145.797 16.3929L147.061 17.2194C146.978 17.7324 146.82 18.2011 146.586 18.6254C146.351 19.0497 146.079 19.3886 145.769 19.6419C145.465 19.8952 145.164 20.0219 144.866 20.0219C144.594 20.0219 144.34 19.9744 144.106 19.8794C143.872 19.7844 143.599 19.6609 143.289 19.5089C143.036 19.3632 142.833 19.2619 142.681 19.2049C142.535 19.1416 142.396 19.1099 142.263 19.1099C142.048 19.1099 141.845 19.1701 141.655 19.2904C141.465 19.4044 141.269 19.6482 141.066 20.0219ZM154.393 31.1179C153.608 31.1179 152.87 30.9152 152.179 30.5099C151.489 30.1046 150.929 29.5251 150.498 28.7714C150.074 28.0177 149.861 27.1247 149.861 26.0924C149.861 25.0601 150.074 24.1766 150.498 23.4419C150.922 22.7009 151.48 22.1341 152.17 21.7414C152.86 21.3487 153.601 21.1524 154.393 21.1524C155.178 21.1524 155.862 21.3107 156.445 21.6274C157.028 21.9377 157.496 22.3589 157.851 22.8909C158.212 23.4229 158.446 24.0246 158.554 24.6959C158.668 25.3609 158.646 26.0481 158.487 26.7574H152.265V25.2184H156.264L155.827 25.5034C155.846 25.2817 155.837 25.0569 155.799 24.8289C155.767 24.6009 155.701 24.3919 155.599 24.2019C155.498 24.0056 155.352 23.8504 155.162 23.7364C154.979 23.6161 154.741 23.5559 154.45 23.5559C154.127 23.5559 153.845 23.6351 153.604 23.7934C153.37 23.9454 153.186 24.1702 153.053 24.4679C152.927 24.7592 152.863 25.1171 152.863 25.5414V26.7384C152.863 27.1374 152.92 27.4826 153.034 27.7739C153.148 28.0652 153.316 28.2932 153.538 28.4579C153.766 28.6162 154.051 28.6954 154.393 28.6954C154.672 28.6954 154.915 28.6384 155.124 28.5244C155.333 28.4104 155.479 28.2299 155.561 27.9829H158.582C158.487 28.5656 158.253 29.0944 157.879 29.5694C157.512 30.0444 157.031 30.4212 156.435 30.6999C155.846 30.9786 155.166 31.1179 154.393 31.1179ZM170.17 31.1179C169.303 31.1179 168.505 30.9406 167.776 30.5859C167.054 30.2249 166.475 29.6802 166.038 28.9519C165.607 28.2172 165.392 27.2862 165.392 26.1589C165.392 24.9936 165.607 24.0436 166.038 23.3089C166.475 22.5742 167.054 22.0327 167.776 21.6844C168.505 21.3297 169.303 21.1524 170.17 21.1524C171.019 21.1524 171.801 21.3297 172.517 21.6844C173.232 22.0327 173.806 22.5742 174.236 23.3089C174.673 24.0436 174.892 24.9936 174.892 26.1589C174.892 27.2862 174.673 28.2172 174.236 28.9519C173.806 29.6802 173.232 30.2249 172.517 30.5859C171.801 30.9406 171.019 31.1179 170.17 31.1179ZM170.056 28.4674C170.348 28.4674 170.629 28.3914 170.902 28.2394C171.18 28.0874 171.412 27.8436 171.595 27.5079C171.779 27.1659 171.871 26.7162 171.871 26.1589C171.871 25.2912 171.716 24.6801 171.405 24.3254C171.095 23.9707 170.721 23.7934 170.284 23.7934C169.993 23.7934 169.702 23.8694 169.41 24.0214C169.125 24.1734 168.888 24.4236 168.698 24.7719C168.514 25.1139 168.422 25.5762 168.422 26.1589C168.422 27.0012 168.584 27.5966 168.907 27.9449C169.236 28.2932 169.619 28.4674 170.056 28.4674ZM186.196 31.1179C185.41 31.1179 184.673 30.9152 183.982 30.5099C183.292 30.1046 182.731 29.5251 182.301 28.7714C181.876 28.0177 181.664 27.1247 181.664 26.0924C181.664 25.0601 181.876 24.1766 182.301 23.4419C182.725 22.7009 183.282 22.1341 183.973 21.7414C184.663 21.3487 185.404 21.1524 186.196 21.1524C186.981 21.1524 187.665 21.3107 188.248 21.6274C188.83 21.9377 189.299 22.3589 189.654 22.8909C190.015 23.4229 190.249 24.0246 190.357 24.6959C190.471 25.3609 190.449 26.0481 190.29 26.7574H184.068V25.2184H188.067L187.63 25.5034C187.649 25.2817 187.64 25.0569 187.602 24.8289C187.57 24.6009 187.504 24.3919 187.402 24.2019C187.301 24.0056 187.155 23.8504 186.965 23.7364C186.782 23.6161 186.544 23.5559 186.253 23.5559C185.93 23.5559 185.648 23.6351 185.407 23.7934C185.173 23.9454 184.989 24.1702 184.856 24.4679C184.73 24.7592 184.666 25.1171 184.666 25.5414V26.7384C184.666 27.1374 184.723 27.4826 184.837 27.7739C184.951 28.0652 185.119 28.2932 185.341 28.4579C185.569 28.6162 185.854 28.6954 186.196 28.6954C186.474 28.6954 186.718 28.6384 186.927 28.5244C187.136 28.4104 187.282 28.2299 187.364 27.9829H190.385C190.29 28.5656 190.056 29.0944 189.682 29.5694C189.315 30.0444 188.834 30.4212 188.238 30.6999C187.649 30.9786 186.968 31.1179 186.196 31.1179ZM192.862 30.8139V17.7039H195.902V30.8139H192.862ZM202.876 31.1179C202.091 31.1179 201.353 30.9152 200.663 30.5099C199.973 30.1046 199.412 29.5251 198.981 28.7714C198.557 28.0177 198.345 27.1247 198.345 26.0924C198.345 25.0601 198.557 24.1766 198.981 23.4419C199.406 22.7009 199.963 22.1341 200.653 21.7414C201.344 21.3487 202.085 21.1524 202.876 21.1524C203.662 21.1524 204.346 21.3107 204.928 21.6274C205.511 21.9377 205.98 22.3589 206.334 22.8909C206.695 23.4229 206.93 24.0246 207.037 24.6959C207.151 25.3609 207.129 26.0481 206.971 26.7574H200.748V25.2184H204.748L204.311 25.5034C204.33 25.2817 204.32 25.0569 204.282 24.8289C204.251 24.6009 204.184 24.3919 204.083 24.2019C203.982 24.0056 203.836 23.8504 203.646 23.7364C203.462 23.6161 203.225 23.5559 202.933 23.5559C202.61 23.5559 202.329 23.6351 202.088 23.7934C201.854 23.9454 201.67 24.1702 201.537 24.4679C201.41 24.7592 201.347 25.1171 201.347 25.5414V26.7384C201.347 27.1374 201.404 27.4826 201.518 27.7739C201.632 28.0652 201.8 28.2932 202.021 28.4579C202.249 28.6162 202.534 28.6954 202.876 28.6954C203.155 28.6954 203.399 28.6384 203.608 28.5244C203.817 28.4104 203.963 28.2299 204.045 27.9829H207.066C206.971 28.5656 206.737 29.0944 206.363 29.5694C205.996 30.0444 205.514 30.4212 204.919 30.6999C204.33 30.9786 203.649 31.1179 202.876 31.1179ZM221.807 30.8139V25.3609C221.807 24.8669 221.687 24.5027 221.446 24.2684C221.212 24.0277 220.917 23.9074 220.563 23.9074C220.043 23.9074 219.619 24.1322 219.29 24.5819C218.96 25.0252 218.796 25.7884 218.796 26.8714H217.599C217.599 25.7504 217.7 24.8226 217.903 24.0879C218.105 23.3469 218.384 22.7642 218.739 22.3399C219.093 21.9092 219.499 21.6052 219.955 21.4279C220.417 21.2442 220.908 21.1524 221.427 21.1524C222.225 21.1524 222.877 21.3329 223.384 21.6939C223.897 22.0549 224.274 22.5521 224.515 23.1854C224.762 23.8187 224.885 24.5439 224.885 25.3609V30.8139H221.807ZM209.543 30.8139V21.4564H212.222L212.545 22.7769C212.868 22.2132 213.27 21.8016 213.751 21.5419C214.239 21.2822 214.768 21.1524 215.338 21.1524C216.142 21.1524 216.797 21.3329 217.304 21.6939C217.817 22.0549 218.194 22.5521 218.435 23.1854C218.675 23.8187 218.796 24.5439 218.796 25.3609V30.8139H215.737V25.3609C215.737 24.8669 215.616 24.5027 215.376 24.2684C215.135 24.0277 214.844 23.9074 214.502 23.9074C214.153 23.9074 213.833 24.0056 213.542 24.2019C213.251 24.3982 213.016 24.7149 212.839 25.1519C212.668 25.5826 212.583 26.1557 212.583 26.8714V30.8139H209.543ZM231.58 31.1179C230.795 31.1179 230.057 30.9152 229.367 30.5099C228.677 30.1046 228.116 29.5251 227.685 28.7714C227.261 28.0177 227.049 27.1247 227.049 26.0924C227.049 25.0601 227.261 24.1766 227.685 23.4419C228.11 22.7009 228.667 22.1341 229.357 21.7414C230.048 21.3487 230.789 21.1524 231.58 21.1524C232.366 21.1524 233.05 21.3107 233.632 21.6274C234.215 21.9377 234.684 22.3589 235.038 22.8909C235.399 23.4229 235.634 24.0246 235.741 24.6959C235.855 25.3609 235.833 26.0481 235.675 26.7574H229.452V25.2184H233.452L233.015 25.5034C233.034 25.2817 233.024 25.0569 232.986 24.8289C232.955 24.6009 232.888 24.3919 232.787 24.2019C232.686 24.0056 232.54 23.8504 232.35 23.7364C232.166 23.6161 231.929 23.5559 231.637 23.5559C231.314 23.5559 231.033 23.6351 230.792 23.7934C230.558 23.9454 230.374 24.1702 230.241 24.4679C230.114 24.7592 230.051 25.1171 230.051 25.5414V26.7384C230.051 27.1374 230.108 27.4826 230.222 27.7739C230.336 28.0652 230.504 28.2932 230.725 28.4579C230.953 28.6162 231.238 28.6954 231.58 28.6954C231.859 28.6954 232.103 28.6384 232.312 28.5244C232.521 28.4104 232.667 28.2299 232.749 27.9829H235.77C235.675 28.5656 235.441 29.0944 235.067 29.5694C234.7 30.0444 234.218 30.4212 233.623 30.6999C233.034 30.9786 232.353 31.1179 231.58 31.1179ZM244.441 30.8139V25.3609C244.441 24.8669 244.32 24.5027 244.08 24.2684C243.839 24.0277 243.548 23.9074 243.206 23.9074C242.857 23.9074 242.537 24.0056 242.246 24.2019C241.955 24.3982 241.72 24.7149 241.543 25.1519C241.372 25.5826 241.287 26.1557 241.287 26.8714H240.365C240.365 25.5287 240.523 24.4362 240.84 23.5939C241.163 22.7516 241.6 22.1341 242.151 21.7414C242.708 21.3487 243.339 21.1524 244.042 21.1524C244.846 21.1524 245.501 21.3329 246.008 21.6939C246.521 22.0549 246.898 22.5521 247.139 23.1854C247.379 23.8187 247.5 24.5439 247.5 25.3609V30.8139H244.441ZM238.247 30.8139V21.4564H240.926L241.287 23.0049V30.8139H238.247ZM253.932 31.1179C253.337 31.1179 252.78 31.0102 252.26 30.7949C251.747 30.5796 251.332 30.2439 251.016 29.7879C250.705 29.3256 250.55 28.7334 250.55 28.0114V19.0909H253.609V27.8974C253.609 28.4674 253.891 28.7524 254.455 28.7524C254.632 28.7524 254.819 28.7334 255.015 28.6954C255.218 28.6511 255.452 28.5814 255.718 28.4864L256.165 30.6049C255.778 30.7442 255.408 30.8646 255.053 30.9659C254.705 31.0672 254.331 31.1179 253.932 31.1179ZM249.439 23.4229V21.4564H255.737V23.4229H249.439ZM262.331 31.1179C261.464 31.1179 260.666 30.9406 259.937 30.5859C259.215 30.2249 258.636 29.6802 258.199 28.9519C257.768 28.2172 257.553 27.2862 257.553 26.1589C257.553 24.9936 257.768 24.0436 258.199 23.3089C258.636 22.5742 259.215 22.0327 259.937 21.6844C260.666 21.3297 261.464 21.1524 262.331 21.1524C263.18 21.1524 263.962 21.3297 264.678 21.6844C265.394 22.0327 265.967 22.5742 266.397 23.3089C266.834 24.0436 267.053 24.9936 267.053 26.1589C267.053 27.2862 266.834 28.2172 266.397 28.9519C265.967 29.6802 265.394 30.2249 264.678 30.5859C263.962 30.9406 263.18 31.1179 262.331 31.1179ZM262.217 28.4674C262.509 28.4674 262.791 28.3914 263.063 28.2394C263.342 28.0874 263.573 27.8436 263.756 27.5079C263.94 27.1659 264.032 26.7162 264.032 26.1589C264.032 25.2912 263.877 24.6801 263.566 24.3254C263.256 23.9707 262.882 23.7934 262.445 23.7934C262.154 23.7934 261.863 23.8694 261.571 24.0214C261.286 24.1734 261.049 24.4236 260.859 24.7719C260.675 25.1139 260.583 25.5762 260.583 26.1589C260.583 27.0012 260.745 27.5966 261.068 27.9449C261.397 28.2932 261.78 28.4674 262.217 28.4674Z" fill="black"/>
</g>
<defs>
<filter id="filter0_d_393_2" x="0.241699" y="0.431396" width="338.476" height="52.2361" filterUnits="userSpaceOnUse" color-interpolation-filters="sRGB">
<feFlood flood-opacity="0" result="BackgroundImageFix"/>
<feColorMatrix in="SourceAlpha" type="matrix" values="0 0 0 0 0 0 0 0 0 0 0 0 0 0 0 0 0 0 127 0" result="hardAlpha"/>
<feOffset dx="4" dy="4"/>
<feGaussianBlur stdDeviation="2"/>
<feComposite in2="hardAlpha" operator="out"/>
<feColorMatrix type="matrix" values="0 0 0 0 0 0 0 0 0 0 0 0 0 0 0 0 0 0 0.25 0"/>
<feBlend mode="normal" in2="BackgroundImageFix" result="effect1_dropShadow_393_2"/>
<feBlend mode="normal" in="SourceGraphic" in2="effect1_dropShadow_393_2" result="shape"/>
</filter>
<filter id="filter1_d_393_2" x="59.6285" y="16.3929" width="211.424" height="26.962" filterUnits="userSpaceOnUse" color-interpolation-filters="sRGB">
<feFlood flood-opacity="0" result="BackgroundImageFix"/>
<feColorMatrix in="SourceAlpha" type="matrix" values="0 0 0 0 0 0 0 0 0 0 0 0 0 0 0 0 0 0 127 0" result="hardAlpha"/>
<feOffset dy="4"/>
<feGaussianBlur stdDeviation="2"/>
<feComposite in2="hardAlpha" operator="out"/>
<feColorMatrix type="matrix" values="0 0 0 0 0 0 0 0 0 0 0 0 0 0 0 0 0 0 0.25 0"/>
<feBlend mode="normal" in2="BackgroundImageFix" result="effect1_dropShadow_393_2"/>
<feBlend mode="normal" in="SourceGraphic" in2="effect1_dropShadow_393_2" result="shape"/>
</filter>
</defs>
</svg>
