<svg width="216" height="371" viewBox="0 0 216 371" fill="none" xmlns="http://www.w3.org/2000/svg">
<path d="M11.5096 64.9033L18.4188 59.9682L22.2358 58.9503L32.4608 58.1175L106.573 73.1388L133.947 83.4177L172.541 76.5085L178.895 78.5366L174.747 88.5533L167.907 94.6066L148.668 95.316L122.01 95.717L78.797 82.1685L33.3321 72.6144L8.7876 72.2674L3.8833 74.6116L11.5096 64.9033Z" fill="#E64C63"/>
<path d="M12.8428 63.0526L194.085 66.9622L188.857 124.025L183.398 157.56L176.789 174.826L164.097 187.402L151.019 192.893L129.381 198.653L100.811 200.303L71.5939 195.229L56.8194 187.958L39.2226 176.83L27.0081 161.894L22.366 84.3199L12.8428 63.0526Z" fill="#F0C0A1"/>
<path d="M140.74 148.361C148.329 148.361 154.481 141.756 154.481 133.61C154.481 125.463 148.329 118.858 140.74 118.858C133.151 118.858 126.999 125.463 126.999 133.61C126.999 141.756 133.151 148.361 140.74 148.361Z" fill="#6C2B0D"/>
<path d="M59.4107 141.567C66.9998 141.567 73.1519 134.963 73.1519 126.816C73.1519 118.669 66.9998 112.065 59.4107 112.065C51.8216 112.065 45.6694 118.669 45.6694 126.816C45.6694 134.963 51.8216 141.567 59.4107 141.567Z" fill="#6C2B0D"/>
<path d="M106.024 323.211C106.371 327.514 107.08 331.832 106.988 336.127C106.803 345.103 106.448 354.094 105.53 363.008C105.353 364.758 102.6 366.925 100.572 367.696C90.1158 371.691 79.3125 371.259 68.6634 368.737C60.9677 366.91 58.8703 359.376 63.6897 353.192C64.3606 352.336 64.1601 350.794 64.0676 349.259C63.7746 348.951 63.7437 348.881 63.7437 348.881C64.2295 347.347 65.0238 345.835 65.1472 344.27C65.8026 335.981 66.4272 327.691 66.7434 319.386C66.8436 316.772 65.8257 314.127 65.5944 311.475C65.4556 309.871 65.5867 308.143 66.0417 306.609C66.9362 303.578 68.1468 300.64 69.2264 297.664C68.8331 297.147 68.4321 296.631 68.0388 296.114C65.4093 297.286 62.5177 298.096 60.2043 299.723C56.2485 302.491 48.3832 299.121 44.7898 294.487C39.978 288.272 42.7617 282.481 44.9363 277.222C52.8325 258.113 61.1528 239.167 69.9435 220.452C73.8916 212.055 80.8856 206.426 90.432 204.652C91.4113 204.467 92.2827 203.742 94.8428 202.439C91.3419 201.622 89.4989 201.09 87.6174 200.758C67.9463 197.342 49.802 190.479 35.0737 176.522C26.8382 168.718 20.5151 159.82 23.1986 148.045C18.5642 144.683 13.4131 142.2 10.0048 138.213C3.21132 130.271 1.62282 120.855 6.10299 111.054C8.82503 105.094 13.4671 101.477 20.9084 101.631C22.5894 102.981 23.6612 103.937 24.7716 105.34C24.7794 107.006 24.7562 108.224 24.2936 109.528C23.5302 112.049 23.0752 114.486 23.0598 116.923C23.0598 117.146 25.8666 117.393 27.2932 117.971C27.1004 118.781 26.977 119.236 26.5606 119.945C26.4064 121.38 26.5375 122.567 26.63 124.048C26.7071 124.711 26.8228 125.081 26.8999 125.844C27.1158 126.97 27.378 127.703 27.6016 128.721C27.6556 129.384 27.8176 129.723 28.0412 130.417C28.3111 131.535 28.5964 132.252 28.8586 133.401C29.0899 135.237 29.3367 136.64 29.4909 138.491C29.3983 140.156 29.406 141.367 29.2827 142.955C29.0822 144.351 29.0128 145.369 28.6581 146.634C28.2648 147.358 28.1568 147.844 27.9409 148.423C27.8253 148.523 27.8947 148.816 27.6094 149.101C27.2315 150.165 27.1313 150.952 26.9076 152.101C26.8537 152.988 26.9154 153.504 26.9076 154.453C27.1852 155.972 27.5245 157.059 27.8561 158.532C29.2827 161.516 30.7247 164.115 32.3054 167.045C32.8221 167.623 33.1999 167.87 33.4852 168.101C33.4004 168.086 33.3696 168.263 33.5007 168.603C36.6545 171.695 39.6773 174.44 42.8466 177.116C42.9931 177.039 42.6923 177.17 42.8157 177.455C43.4635 178.056 43.9955 178.373 44.5893 178.696C44.6587 178.704 44.7281 178.828 44.8977 179.121C45.8385 179.83 46.6096 180.254 47.6275 180.964C50.0488 182.46 52.2233 183.67 54.5906 185.236C86.8463 201.398 119.665 202.47 153.162 190.633C154.882 190.024 161.783 185.282 163.603 184.95C162.3 186.531 164.228 188.443 162.662 189.122C154.743 192.546 137.963 198.715 129.589 200.881C127.515 201.421 125.417 201.884 123.119 203.573C124.716 204.205 126.258 205.146 127.916 205.431C137.64 207.112 144.803 212.541 149.152 221.085C156.293 235.127 162.971 249.408 169.587 263.712C172.571 270.166 175.617 276.744 177.267 283.599C177.984 286.575 175.655 290.593 173.982 293.762C171.26 298.905 162.894 300.324 158.089 296.978C157.257 296.392 156.038 296.114 154.997 296.106C149.337 296.06 147.733 293.785 147.117 288.395C146.561 283.483 144.402 278.756 142.953 273.952C142.197 274.184 141.433 274.415 140.678 274.654C141.626 278.833 142.505 283.028 143.531 287.184C145.474 295.034 147.548 302.861 149.476 310.719C149.769 311.93 150.001 313.425 149.553 314.497C146.731 321.206 148.289 328.616 153.363 333.328C154.612 334.492 155.298 336.443 155.83 338.163C156.887 341.579 157.658 345.08 158.961 348.75C159.37 348.966 159.416 349.035 159.416 349.035C159.146 352.166 159.377 355.451 158.46 358.374C157.527 361.327 156.1 365.399 153.771 366.416C143.037 371.112 131.741 371.899 120.359 368.46C115.755 367.072 112.771 364.026 112.123 359.245C111.892 357.518 112.918 355.652 113.157 353.824C113.357 352.274 113.242 350.678 113.319 348.388C113.303 347.285 113.234 346.9 113.172 346.506C112.285 341.702 111.399 336.898 110.404 331.3C110.065 330.128 109.833 329.75 109.61 329.38C109.34 327.144 109.07 324.907 108.522 322.047C107.713 321.406 107.181 321.383 106.656 321.36C106.656 321.36 106.386 321.484 106.14 321.823C105.777 322.525 105.808 322.879 106.024 323.211ZM88.9283 216.851C88.9823 217.622 89.0363 218.401 88.8975 219.72C88.8358 219.905 88.7741 220.082 87.7639 220.175C87.0468 216.843 86.3296 213.52 85.6202 210.189C85.011 210.15 84.4096 210.112 83.8004 210.065C82.6977 217.329 81.6027 224.593 80.5 231.857C81.0167 231.934 81.5256 232.011 82.0423 232.088C82.798 230.885 83.5459 229.675 84.3016 228.472C84.6024 228.595 84.9031 228.719 85.2038 228.842C84.9956 230.608 84.7874 232.374 84.5098 234.864C84.4944 235.35 84.4713 235.836 84.1397 236.846C84.1166 237.047 84.1011 237.247 83.5999 238.196C82.636 247.279 81.6181 256.355 80.8085 265.447C80.7545 266.095 82.2196 266.873 82.9445 268.177C82.6052 268.863 82.2659 269.549 81.1786 270.467C81.4254 271.508 81.4331 273.297 81.9574 273.466C85.358 274.569 88.8435 275.494 92.3675 276.15C106.317 278.733 120.174 277.145 134.887 275.124C135.881 274.731 136.876 274.33 138.079 273.196C138.179 272.695 138.28 272.202 138.603 271.4C138.634 270.983 138.434 270.721 137.578 270.274C137.077 270.073 136.583 269.881 135.311 269.518C134.663 268.855 134.008 268.2 134.208 267.22C134.956 265.632 136.467 263.966 136.306 262.47C135.804 257.79 134.848 253.132 133.738 248.552C133.044 245.706 132.319 242.545 130.584 240.332C126.952 235.697 124.693 230.855 125.047 224.894C125.333 220.044 125.525 215.186 125.772 210.058C124.97 210.243 124.114 210.443 123.127 209.634C123.582 205.925 121.192 205.277 118.77 204.467C118.539 203.688 118.315 202.231 118.069 202.223C111.059 202.1 104.042 202.123 96.4235 202.123C101.22 208.546 108.553 209.302 118.323 205.925C115.455 210.212 110.813 212.818 106.548 210.705C101.189 208.045 96.2693 208.022 90.2546 209.51C90.0079 210.86 89.7534 212.209 89.0594 214.06C89.0054 214.738 88.9437 215.409 88.9283 216.851ZM18.9575 126.87C19.6823 125.066 20.4072 123.261 21.24 121.179C18.6953 121.071 16.5516 120.971 14.4156 120.053C16.4282 118.627 18.4408 117.208 20.5382 115.72C20.5382 112.396 20.5382 108.757 20.5382 105.071C9.17974 106.667 4.42968 118.318 9.79664 131.242C12.696 137.442 17.4692 141.236 24.71 142.986C24.71 140.233 24.71 138.005 24.6637 134.959C24.3398 132.969 24.016 130.972 23.4685 127.564C21.8183 130.394 20.893 131.99 19.4201 133.039M147.34 334.693C143.469 334.546 139.467 334.037 137.647 336.775C139.467 342.365 140.909 346.776 141.881 349.753C138.781 352.081 136.653 353.678 134.524 355.274C135.18 355.929 135.827 356.577 136.483 357.232C145.436 358.042 145.713 357.888 152.468 348.11C154.658 342.782 152.807 336.898 147.34 334.693ZM146.924 224.238C146.924 224.238 146.97 224.215 146.824 223.429C143.338 219.45 139.853 215.471 135.773 210.813C132.542 219.92 132.273 226.891 133.846 234.895C137.161 251.713 143.816 267.151 149.939 282.889C150.571 284.516 150.779 286.421 150.748 288.187C150.687 291.518 150.802 293.785 155.421 292.467C156.948 292.035 159.439 293.963 161.105 295.289C164.675 298.134 165.662 296.785 166.333 292.706C169.217 293.114 172.918 294.471 171.013 288.171C174.414 287.161 176.103 285.789 172.903 282.404C171.9 281.339 171.908 279.358 171.337 277.846C169.841 273.867 168.276 269.919 166.572 265.138C160.642 252.5 154.712 239.854 148.643 226.49C148.073 225.75 147.51 225.01 146.924 224.238ZM48.2367 277.769C47.7431 279.936 47.7277 282.396 46.6404 284.208C45.3373 286.367 43.6562 287.601 47.1262 289.444C48.5142 290.184 48.5143 293.276 49.8791 294.402C51.5987 295.813 54.074 296.291 57.0428 297.517C57.382 297.163 58.5773 294.911 59.6183 294.98C69.342 295.605 67.5993 287.485 69.4114 282.319C73.5986 270.374 79.4128 258.869 78.7882 245.621C78.3718 236.707 78.58 227.762 78.4643 218.833C78.4566 218.193 78.1327 217.553 77.5621 215.494C63.1885 234.679 57.3975 256.525 48.2367 277.769ZM95.6987 321.214C92.9227 321.152 89.977 321.669 87.3938 320.913C81.7647 319.278 76.3206 316.996 70.6915 314.945C70.1286 320.35 69.5656 325.771 68.8331 332.85C80.5077 332.85 91.5501 332.85 102.932 332.85C102.716 328.64 102.523 324.915 102.307 320.774C100.179 321.052 98.3744 321.283 95.6987 321.214ZM144.911 331.146C145.513 330.66 146.7 330.028 146.623 329.719C145.628 325.763 144.448 321.846 143.693 319.24C132.735 320.558 122.526 321.792 112.239 323.034C112.648 325.162 113.28 328.454 114.036 332.418C124.253 330.637 134.177 334.562 144.911 331.146ZM103.626 342.327C102.639 340.283 101.86 336.651 100.634 336.489C97.4722 336.073 94.0948 337.114 90.8484 337.808C90.4243 337.901 89.9693 339.451 90.0927 340.229C90.7867 344.54 91.6658 348.827 92.2749 352.074C88.7818 354.441 86.2757 356.13 82.983 358.358C96.6394 359.23 103.433 353.947 103.626 342.327ZM124.885 353.786C124.068 354.78 123.251 355.783 122.387 356.839C128.278 359.222 131.031 357.772 134.478 349.329C130.638 350.894 127.97 351.973 124.885 353.786ZM75.9196 352.644C74.5548 354.086 73.1976 355.521 71.5243 357.279C78.3024 360.949 80.3612 355.359 83.5691 351.742C81.2557 351.858 78.9424 351.973 75.9196 352.644ZM128.556 366.393C129.689 365.46 130.823 364.527 131.956 363.594C129.605 362.993 127.245 362.399 124.893 361.797C124.623 362.491 124.353 363.185 124.083 363.879C125.286 364.627 126.489 365.383 128.556 366.393ZM128.548 338.394C129.666 338.063 130.784 337.723 131.902 337.392C131.872 336.721 131.841 336.05 131.81 335.379C129.304 335.379 126.79 335.31 124.299 335.464C123.975 335.487 123.721 336.682 123.436 337.338C124.87 337.77 126.296 338.201 128.548 338.394ZM117.313 342.635C117.745 341.849 118.4 341.101 118.555 340.268C118.824 338.811 119.002 337.253 118.724 335.834C118.647 335.448 116.835 335.394 115.817 335.186C115.617 336.574 115.077 338.032 115.316 339.343C115.563 340.754 116.534 342.041 117.313 342.635ZM80.3381 339.219C81.8803 339.073 83.4303 338.926 84.9725 338.78C85.0342 338.109 85.1036 337.446 85.1653 336.775C82.8982 336.474 80.6311 336.034 78.3563 335.981C77.8243 335.965 77.2614 337.237 76.7139 337.924C77.6084 338.356 78.5029 338.787 80.3381 339.219Z" fill="#171212"/>
<path d="M178.879 20.9421C175.332 19.022 172.009 17.4258 168.323 15.606C166.372 15.0122 164.776 14.6344 163.21 13.8324C162.617 12.5755 162.123 11.1875 161.344 11.0102C153.163 9.0978 144.935 7.37822 136.368 5.48899C135.52 5.33477 135.026 5.30392 134.232 4.99548C132.574 4.67161 131.209 4.62534 129.328 4.48654C120.753 4.53281 112.71 4.67161 104.158 4.82583C96.8637 6.46059 89.7848 7.33966 83.3306 9.83807C64.6003 17.0942 50.1265 29.2162 42.3228 48.5711C42.5541 48.895 42.9243 49.0338 43.7262 49.2497C45.2839 49.1572 46.4174 48.9875 47.8825 48.9335C48.6768 49.0723 49.1472 49.0878 50.0031 49.3654C58.9095 51.3934 67.7696 52.1799 75.8585 55.1179C99.7785 63.8006 123.83 71.6505 149.33 74.4265C149.323 75.4521 149.323 76.1307 148.86 76.9018C128.279 75.028 108.739 70.7098 89.7849 63.4844C80.0611 59.7754 70.0444 56.5367 59.8811 54.3622C48.4994 51.9332 36.8633 51.5476 25.4971 56.9917C23.2917 58.3951 21.4796 59.76 19.2974 61.2482C15.2105 64.1939 11.486 67.0161 7.50704 70.0081C6.95184 70.7021 6.65882 71.2264 5.97253 71.8125C4.64621 73.2853 3.71315 74.6887 2.53335 76.4623C7.82319 78.3901 8.27815 75.2825 8.83335 71.905C8.91047 71.3035 8.94903 71.0645 9.39628 70.8177C11.725 69.9695 13.6451 69.129 15.9893 68.2962C17.2693 68.2962 32.0207 66.8773 32.8844 67.1472C32.8921 67.4248 31.5504 69.0673 31.5349 69.2678C31.5195 69.4683 18.9658 70.2086 18.5571 70.3551C10.1982 73.4395 8.84105 75.2748 9.11094 82.7237C7.16774 82.5695 5.39419 82.13 3.89051 81.7598C5.23996 85.3301 6.38121 88.3528 7.53017 91.3756C-1.59981 83.5797 -2.40178 76.5163 5.30164 67.6793C8.12392 64.4483 11.7405 61.9114 14.9791 59.0351C17.9017 56.4365 20.8087 53.8147 24.1554 51.4705" fill="#1C1013"/>
<path d="M40.7959 36.48C50.6122 28.4527 59.7807 19.423 70.3835 12.6141C89.1216 0.576997 110.412 -0.895834 132.049 1.26328C147.711 2.82864 162.801 6.42204 176.843 15.4209C177.753 16.2537 178.247 16.4311 178.74 16.6084C182.172 19.2919 185.279 22.1528 188.372 25.5457C187.685 26.525 187.678 26.6175 187.061 26.6638" fill="#1C1013"/>
<path d="M162.393 189.245C162.516 187.726 162.616 185.667 163.649 184.958C172.463 178.92 176.882 170.168 179.696 160.275C181.2 155 183.066 149.826 184.431 144.521C184.932 142.585 186.683 139.408 181.455 139.231C180.205 138.768 179.696 138.375 179.187 137.596C179.118 136.717 179.056 136.216 179.141 135.383C179.565 134.034 179.843 133.023 180.329 131.265C178.262 132.245 176.943 132.869 175.286 133.455C175.232 131.928 175.517 130.433 176.049 128.767C176.512 128.034 176.72 127.479 177.213 126.685C177.707 125.752 177.931 125.066 178.416 124.071C179.673 120.354 180.653 116.938 181.886 113.214C182.241 112.134 182.326 111.355 182.557 110.322C182.704 109.682 182.711 109.304 182.997 108.556C183.398 106.698 183.529 105.202 183.799 103.382C183.945 102.364 183.953 101.678 184.246 100.644C184.616 99.1562 184.709 97.9995 184.932 96.411C185.225 93.6118 185.364 89.6021 185.673 86.9494C185.881 86.4559 185.973 87.8979 186.336 88.0136C187.161 90.805 187.701 93.2726 188.271 96.2105C188.125 97.8761 187.94 99.0791 187.4 100.398C186.991 102.318 186.945 104.138 186.945 106.281C186.752 107.199 186.513 107.793 186.035 108.425C185.665 108.571 185.541 108.672 185.418 108.78C185.626 109.011 185.827 109.242 186.058 109.844C185.804 111.132 185.526 112.049 184.917 113.044C184.67 113.807 184.755 114.494 184.855 115.511C184.585 116.406 184.308 116.977 183.783 117.57C183.405 117.701 183.274 117.802 183.151 117.902C183.344 118.141 183.537 118.38 183.752 118.935C183.529 119.822 183.29 120.385 182.642 121.087C181.192 123.485 180.144 125.744 178.91 128.381C181.231 128.227 182.58 128.135 184.161 128.027C183.136 130.116 182.326 131.774 181.084 134.304C183.112 134.519 185.58 135.252 185.873 134.735C188.41 130.278 190.554 125.598 193.006 120.778C193.438 120.3 193.677 120.022 194.209 119.544C194.648 118.92 194.81 118.488 194.941 117.894C194.918 117.732 195.088 117.455 195.373 117.246C195.813 116.599 195.959 116.167 196.044 115.604C195.975 115.481 196.106 115.218 196.414 115.003C196.908 114.316 197.093 113.854 197.162 112.921C197.386 109.643 198.041 106.829 198.01 104.022C197.933 97.8684 197.509 91.7149 197.633 85.546C199.715 85.5229 201.388 85.5074 203.408 85.253C204.249 82.4847 204.734 79.9477 205.637 77.4185C206.616 77.403 207.179 77.3953 207.742 77.3799C207.557 82.3844 209.523 88.4608 202.66 89.3861C201.018 100.413 199.437 111.016 197.794 122.066C199.283 122.405 202.298 122.652 204.95 123.755C213.664 127.371 217.273 137.797 213.664 148.16C209.608 159.827 199.892 166.598 187.539 166.351C185.858 166.32 184.177 166.174 182.372 166.073C178.108 175.859 173.558 185.251 162.393 189.245ZM207.588 151.63C213.217 142.925 212.299 132.862 205.459 128.289C198.905 123.909 193.098 126.161 192.474 133.54C195.072 134.342 197.879 134.843 200.324 136.069C202.228 137.018 203.686 138.861 204.418 140.418C200.378 139.478 196.329 138.529 191.464 137.396C198.103 148.685 197.154 155.147 189.112 155.748C190.022 151.569 195.805 147.49 189.304 142.662C187.407 149.178 185.634 155.27 183.853 161.37C193.831 164.038 203.316 160.097 207.588 151.63Z" fill="#1B1416"/>
<path d="M22.9606 117.092C22.976 114.656 23.4232 111.918 24.2406 109.79C25.5901 110.553 26.5848 111.132 27.4484 111.587C30.5946 102.842 33.7407 94.1054 36.8869 85.3609C28.4509 87.921 24.4951 92.9641 24.8652 100.891C24.9269 102.217 24.8344 104.006 24.7958 105.333C23.724 104.377 22.228 102.989 21.0019 101.678C20.3619 100.297 20.5315 98.7475 19.7373 98.3311C17.5088 97.1821 14.7868 96.1103 12.6431 94.8071C15.2109 94.6837 17.8018 95.3777 20.4853 95.8326C21.6959 95.7632 22.5596 95.5473 23.4155 95.3314C22.336 94.3213 21.2641 93.7275 19.9995 92.5246C20.5007 91.3139 21.187 89.8719 21.7576 88.4762C21.6959 87.2964 21.7499 85.3995 22.5056 83.2404C23.0685 81.6287 23.8396 80.4104 24.4642 79.5853C24.8035 78.9298 25.1351 78.2821 25.4744 77.6267C26.045 76.6088 27.032 75.1283 28.6437 73.7171C30.1242 72.4216 33.8873 69.3526 33.733 70.4707C33.5865 71.558 33.5248 71.5117 33.332 72.599C33.2703 72.8689 28.2581 78.6522 27.9265 78.8681C26.5385 81.5516 25.4821 84.0192 23.8088 87.9287C28.8673 84.8828 32.4221 82.7468 36.4396 80.6648C37.8508 80.6726 38.7992 80.634 40.0176 80.8499C40.0716 82.5618 39.8402 84.0192 39.3236 85.7773C37.0719 92.6942 35.1133 99.295 32.9927 106.289C31.5045 109.705 30.1782 112.735 28.8519 115.804C28.8519 115.851 28.8056 115.936 28.5743 116.113C28.1502 116.722 27.7338 117.331 27.3096 117.94" fill="#140F12"/>
<path d="M9.88256 93.2957C9.18856 92.8484 8.32492 92.1082 7.52296 91.3679C6.26604 88.0521 5.24046 85.3224 3.8833 81.7521C5.38697 82.1223 6.87524 82.2996 9.10375 82.716C13.5608 84.6592 17.7942 86.5022 21.804 88.4762C21.7577 88.5379 21.3413 89.4864 20.9249 90.4503C20.5008 91.4296 20.0767 92.4166 20.0459 92.5169C20.2155 93.982 20.6242 95.2003 20.6011 96.0486C18.2569 95.7401 15.4963 95.0615 12.6354 94.8225C11.8875 94.5372 11.7718 94.4909 10.9776 93.9588" fill="#2B1113"/>
<path d="M189.205 31.1902C188.133 30.1338 185.503 28.0286 184.802 27.0802C185.141 26.8103 187.493 26.1703 188.372 25.5457C191.009 27.5274 193.392 30.3266 195.736 32.9561C195.96 34.5368 195.929 35.8246 195.559 37.3437" fill="#1C1013"/>
<path d="M113.065 346.753C113.289 346.892 113.35 347.277 113.219 347.902C112.973 347.755 112.942 347.378 113.065 346.753Z" fill="#F0EFEE"/>
<path d="M107.058 321.584C107.212 321.376 107.744 321.399 108.269 321.73C107.999 321.962 107.714 321.892 107.058 321.584Z" fill="#F0EFEE"/>
<path d="M106.24 323.01C105.816 322.872 105.785 322.525 106.109 321.946C106.379 321.969 106.487 322.193 106.541 322.432C106.556 322.548 106.479 322.687 106.24 323.01Z" fill="#F0EFEE"/>
<path d="M109.594 329.711C109.88 329.75 110.111 330.12 110.296 330.83C110.011 330.799 109.772 330.429 109.594 329.711Z" fill="#F0EFEE"/>
<path d="M84.3099 236.252C84.3253 235.767 84.4872 235.358 84.919 234.386C86.4612 229.359 87.6179 224.485 88.7438 219.936C88.8054 219.751 88.7515 219.866 88.952 219.026C88.6744 217.206 88.9365 216.535 88.9828 215.193C88.8286 214.391 89.2681 213.535 89.4146 213.104C89.6614 211.754 89.8233 211.029 90.2706 209.526C92.8075 208.5 94.103 211.461 95.7686 212.664C96.987 213.35 97.9431 213.767 99.1692 214.461C108.299 218.686 116.08 215.617 123.236 209.726C124.099 209.526 124.978 210.258 125.773 210.073C125.526 215.201 125.333 220.059 125.048 224.909C124.701 230.862 126.952 235.713 130.584 240.347C132.319 242.56 133.044 245.714 133.738 248.567C134.856 253.148 135.813 257.805 136.306 262.486C136.468 263.974 135.843 265.532 134.209 267.236C125.642 268.022 117.074 269.364 109.402 269.349C100.588 269.333 91.6509 268.655 82.837 268.03C82.0736 267.313 80.7396 266.102 80.7936 265.454C81.6033 256.363 82.1739 247.711 83.585 238.203" fill="#DC4040"/>
<path d="M110.019 312.67C109.086 310.881 108.546 308.398 107.004 305.452C106.371 308.02 106.549 309.809 105.508 311.775C97.0102 311.297 88.5665 310.364 80.3079 309.462C76.7607 308.267 73.1751 307.01 70.0366 305.884C71.1393 300.887 72.7047 295.96 73.9616 290.277C74.1158 289.583 74.1698 289.02 74.1698 289.02C74.4243 288.434 74.4859 287.886 75.018 286.676C75.0026 285.881 75.2108 285.766 75.2108 285.573C75.2108 285.573 75.2879 285.21 75.4961 284.925C75.7043 284.64 76.1747 284.439 76.2672 284.833C77.7246 285.411 79.8143 286.251 80.331 285.673C82.3667 283.391 83.909 280.676 85.6363 278.116C86.0912 278.147 86.5462 278.178 87.4329 278.625C88.5433 279.018 89.2065 279.003 89.8774 278.98C93.8255 279.365 97.7659 279.759 102.115 280.815C102.686 284.763 102.732 288.642 107.035 288.711C111.831 288.788 110.081 284.486 110.551 281.779C110.613 281.409 110.605 281.023 110.628 280.645C114.838 280.399 119.126 279.651 124.038 279.797C128.726 285.095 133.684 287.138 139.923 286.205C141.257 292.945 143.231 299.862 144.056 307.272C132.674 309.2 120.884 311.405 110.019 312.67Z" fill="#4F6FB4"/>
<path d="M48.3611 277.314C57.3908 256.525 63.1896 234.672 77.5785 215.494C78.1492 217.545 78.473 218.185 78.4808 218.833C78.5887 227.763 78.3882 236.707 78.8046 245.621C79.4215 258.869 73.6073 270.374 69.4279 282.319C67.6157 287.485 69.3585 295.605 59.6347 294.98C58.5937 294.911 57.3985 297.163 57.0592 297.517C54.0904 296.299 51.6152 295.813 49.8956 294.402C48.523 293.276 48.5307 290.184 47.1427 289.444C43.6727 287.601 45.3537 286.367 46.6569 284.208C47.7364 282.396 47.7519 279.936 48.3611 277.314Z" fill="#ECBDA0"/>
<path d="M166.294 292.937C166.418 296.754 164.667 298.134 161.105 295.289C159.439 293.963 156.948 292.035 155.422 292.467C150.803 293.778 150.687 291.518 150.749 288.187C150.779 286.421 150.571 284.524 149.939 282.889C143.816 267.151 137.162 251.706 133.846 234.895C132.265 226.899 132.535 219.928 135.774 210.813C139.845 215.463 143.338 219.442 146.43 223.992C145.405 225.673 143.978 227.038 144.24 227.863C146.384 234.641 148.859 241.319 151.211 248.035C152.514 251.76 153.293 255.762 155.167 259.17C160.989 269.757 163.981 281.324 166.294 292.937Z" fill="#EBBDA0"/>
<path d="M96.1313 321.36C98.3675 321.275 100.172 321.044 102.3 320.774C102.516 324.923 102.709 328.639 102.925 332.85C91.5432 332.85 80.5008 332.85 68.8262 332.85C69.5587 325.771 70.1216 320.342 70.6846 314.945C76.3137 317.003 81.7578 319.278 87.3869 320.913C89.9778 321.661 92.9235 321.152 96.1313 321.36Z" fill="#E8BDA0"/>
<path d="M165.94 292.837C163.226 281.355 160.989 269.757 155.175 259.17C153.301 255.762 152.53 251.76 151.219 248.035C148.867 241.319 146.392 234.641 144.248 227.863C143.986 227.03 145.405 225.665 146.508 224.385C146.971 224.215 146.924 224.239 146.654 224.663C147.186 225.796 147.981 226.506 148.783 227.215C154.712 239.854 161.066 252.284 166.719 265.616C167.22 271.091 167.467 276.104 168.4 280.861C168.94 283.607 170.389 286.005 171.168 288.704C173.404 294.217 169.217 293.122 165.94 292.837Z" fill="#E8B295"/>
<path d="M144.441 331.161C134.17 334.562 124.254 330.637 114.029 332.418C113.273 328.454 112.641 325.162 112.232 323.034C122.519 321.792 132.728 320.558 143.686 319.24C144.441 321.846 145.613 325.756 146.616 329.719C146.701 330.028 145.505 330.66 144.441 331.161Z" fill="#E5BA9F"/>
<path d="M103.626 342.396C103.433 353.516 96.8404 360.047 82.9912 358.366C86.2839 356.137 88.79 354.441 92.2831 352.081C91.6663 348.835 90.7949 344.555 90.1009 340.237C89.9775 339.458 90.4325 337.908 90.8566 337.816C94.0953 337.122 97.4804 336.081 100.642 336.497C101.86 336.659 102.639 339.852 103.626 342.396Z" fill="#54504C"/>
<path d="M134.879 275.124C121.046 277.253 106.31 278.725 92.3603 276.15C88.8363 275.502 85.3585 274.569 81.9502 273.466C81.4182 273.297 81.3873 271.878 81.1714 270.467C86.4689 271.145 91.7511 272.117 96.2544 272.395C109.633 273.212 122.596 273.798 135.651 269.626C136.152 269.827 136.591 269.719 138.265 270.652C138.874 271.091 138.658 271.323 138.427 271.862C138.326 272.364 138.681 272.31 138.072 273.196C136.884 274.268 135.951 274.985 134.879 275.124Z" fill="#C84041"/>
<path d="M152.091 348.658C145.976 357.896 145.436 358.042 136.476 357.232C135.82 356.577 135.173 355.929 134.517 355.274C136.645 353.678 138.774 352.081 141.874 349.753C140.902 346.776 139.468 342.365 137.64 336.775C139.46 334.037 143.007 333.976 147.333 334.693C148.983 339.535 150.896 344.386 152.091 348.658Z" fill="#504D4A"/>
<path d="M110.212 312.323C121.27 310.719 132.705 308.321 144.018 306.856C145.305 311.22 145.83 311.436 143.601 312.84C142.329 313.641 140.717 313.896 138.142 314.783C138.211 314.59 137.733 315.924 137.124 317.644C135.026 316.649 133.23 315.801 131.286 314.875C130.361 316.479 129.444 318.068 128.865 319.07C125.48 318.461 122.727 317.967 118.609 317.235C118.563 317.273 117.399 318.307 115.972 319.587C115.255 318.045 114.731 316.926 114.345 316.101C112.333 316.664 110.474 317.189 107.058 318.152C108.546 315.376 109.287 314.027 110.212 312.323Z" fill="#CDDAE9"/>
<path d="M135.697 269.611C123.027 273.86 109.633 273.212 96.2544 272.395C91.7511 272.117 86.0988 271.269 81.1714 270.467C81.688 269.811 82.4823 268.994 82.8447 268.022C91.674 268.362 100.596 269.333 109.41 269.341C117.082 269.349 126.073 267.86 134.216 267.228C135.334 267.938 134.664 268.871 135.697 269.611Z" fill="#2E1010"/>
<path d="M19.7982 133.725C21.6951 134.859 23.1988 135.314 24.7025 135.769C24.7025 137.997 24.7025 140.226 24.7025 142.979C17.4617 141.228 12.2644 137.534 9.49609 130.502C11.0769 126.77 12.4417 121.973 14.7242 120.177C16.9451 120.647 18.6955 121.063 21.2402 121.171" fill="#B67661"/>
<path d="M123.236 209.734C116.141 216.134 108.083 218.995 98.9765 214.361C97.4265 213.551 96.5243 213.505 95.4525 212.51C94.0568 211.577 92.6996 210.528 91.0957 209.302C96.2776 208.045 101.205 208.068 106.564 210.721C110.821 212.834 115.394 210.22 118.293 205.585C118.324 205.238 118.779 204.483 118.779 204.483C121.655 204.59 123.621 205.508 123.236 209.734Z" fill="#2D0F10"/>
<path d="M14.4085 120.47C12.9511 123.786 11.1082 127.163 9.49653 130.51C4.03704 118.804 9.17266 106.675 20.5312 105.071C20.5312 108.757 20.5312 112.396 20.5312 115.72C18.4337 117.208 16.4289 118.627 14.4085 120.47Z" fill="#D0876F"/>
<path d="M24.7876 105.34C24.7953 103.559 24.9187 102.225 24.857 100.899C24.4869 92.9641 28.4427 87.9287 36.8787 85.3687C33.7325 94.1131 30.5864 102.85 27.4403 111.594C26.5766 111.139 25.15 110.646 24.2324 109.798C24.7105 108.248 24.7953 107.006 24.7876 105.34Z" fill="#20457A"/>
<path d="M80.7246 309.462C88.5745 310.287 97.1956 310.873 105.508 311.775C105.986 313.425 105.246 315.245 105.261 316.826C103.696 316.626 102.108 316.171 100.565 316.317C99.3624 316.425 98.2212 317.273 96.3628 318.098C95.4375 317.25 93.9569 315.893 92.4532 314.513C90.2787 315.77 88.0579 321.869 85.8911 314.297C84.6573 314.96 83.5314 315.554 82.0046 316.371C81.6499 314.975 81.3415 313.772 80.8865 311.791C80.74 310.495 80.7323 309.979 80.7246 309.462Z" fill="#C6D3E4"/>
<path d="M88.7436 219.936C88.0959 224.524 85.9599 231.094 84.4485 235.759C84.2788 234.116 84.9883 230.608 85.1965 228.842C84.8957 228.719 84.595 228.595 84.2943 228.472C83.5386 229.675 82.7906 230.886 82.0349 232.088C81.5183 232.011 81.0093 231.934 80.4927 231.857C81.5954 224.593 82.6903 217.329 83.793 210.065C84.4022 210.104 85.0037 210.143 85.6129 210.189C86.3223 213.52 87.5561 216.566 88.7436 219.936Z" fill="#AD3B3B"/>
<path d="M118.084 206.025C108.299 210.127 101.228 208.569 96.4316 202.146C104.05 202.146 111.067 202.123 118.077 202.246C118.324 202.254 118.778 203.357 118.778 204.49C118.539 204.837 118.138 206.063 118.084 206.025Z" fill="#C99985"/>
<path d="M139.915 286.213C133.769 287.562 128.202 285.025 124.03 279.805C125.225 279.034 127.014 278.98 128.433 278.718C137.594 277.021 137.902 276.867 139.915 286.213Z" fill="#6A86C3"/>
<path d="M171.099 288.465C170.158 286.159 168.94 283.607 168.4 280.861C167.467 276.111 167.135 270.613 166.719 265.555C168.623 269.233 169.842 273.875 171.338 277.854C171.908 279.373 171.901 281.355 172.903 282.411C176.103 285.789 174.669 287.061 171.099 288.465Z" fill="#D9A48A"/>
<path d="M125.094 353.415C127.971 351.966 130.631 350.886 134.479 349.329C131.032 357.765 128.279 359.214 122.388 356.839C123.259 355.783 124.069 354.788 125.094 353.415Z" fill="#4C4746"/>
<path d="M76.2674 352.367C78.9354 351.973 81.2565 351.858 83.5775 351.734C80.362 355.359 78.3031 360.942 71.5327 357.271C73.1983 355.521 74.5555 354.079 76.2674 352.367Z" fill="#4C4746"/>
<path d="M152.068 348.727C150.549 344.725 148.497 339.42 147.341 334.693C152.823 335.711 155.306 343.753 152.068 348.727Z" fill="#6F6B69"/>
<path d="M80.3232 309.393C81.9348 309.593 82.1585 311.266 80.7473 311.397C79.0277 312.446 77.3082 313.109 75.3187 313.88C75.1028 312.624 74.8637 311.243 74.617 309.794C72.6429 310.094 70.7151 310.387 67.6538 310.858C68.6717 308.83 69.1266 307.326 70.0365 305.884C73.4988 306.74 76.7761 308.197 80.3232 309.393Z" fill="#BFCBDA"/>
<path d="M110.621 280.646C110.613 281.409 110.613 281.409 110.544 281.779C110.074 284.486 111.824 288.788 107.028 288.711C102.725 288.642 102.262 284.578 102.108 280.815C102.995 280.314 104.699 280.622 105.963 281.185C106.588 282.866 106.411 283.83 106.65 284.941C107.004 284.91 107.367 284.879 107.722 284.856C107.837 283.468 107.945 282.088 108.061 280.7C108.624 280.615 109.619 280.63 110.621 280.646Z" fill="#728FC9"/>
<path d="M85.6285 278.116C84.1634 280.815 82.359 283.391 80.3232 285.673C79.8066 286.251 77.2773 285.557 75.8662 284.64C76.1592 283.329 76.9226 282.604 77.6629 281.964C80.223 280.53 82.0968 279.011 84.2405 277.63C84.4487 277.654 85.1736 277.954 85.6285 278.116Z" fill="#728FC9"/>
<path d="M128.526 366.509C126.891 365.63 125.287 364.627 124.084 363.872C124.354 363.178 124.624 362.484 124.894 361.79C127.246 362.391 129.605 362.985 131.957 363.586C130.824 364.519 130.091 365.707 128.526 366.509Z" fill="#474541"/>
<path d="M128.14 338.51C126.297 338.201 124.87 337.762 123.436 337.33C123.721 336.675 123.968 335.472 124.3 335.456C126.798 335.294 129.304 335.371 131.81 335.371C131.841 336.042 131.872 336.713 131.903 337.384C130.785 337.723 129.667 338.055 128.14 338.51Z" fill="#474541"/>
<path d="M117.252 343.013C116.535 342.041 115.563 340.761 115.309 339.343C115.077 338.024 115.617 336.574 115.81 335.186C116.828 335.394 118.64 335.448 118.717 335.834C118.995 337.253 118.817 338.811 118.547 340.268C118.401 341.101 117.745 341.849 117.252 343.013Z" fill="#474541"/>
<path d="M79.8686 339.219C78.5037 338.787 77.6092 338.356 76.707 337.924C77.2545 337.245 77.8174 335.965 78.3495 335.981C80.6243 336.042 82.8914 336.474 85.1585 336.775C85.0968 337.446 85.0274 338.109 84.9657 338.78C83.4312 338.926 81.8812 339.073 79.8686 339.219Z" fill="#4C4746"/>
<path d="M24.7107 135.769C24.5488 135.784 21.0248 135.784 19.8064 133.725C19.6522 133.463 19.8758 133.131 19.9221 132.646C21.2098 131.381 21.819 130.402 23.4692 127.564C23.7545 129.392 24.8803 135.661 24.7107 135.769Z" fill="#2B1113"/>
<path d="M84.2481 277.638C82.3743 279.157 78.4571 283.63 75.8738 284.64C75.55 283.429 77.4315 279.496 77.5472 278.656C77.5472 278.656 77.6705 278.355 77.8556 278.001C78.218 277.222 78.1024 276.697 78.2797 276.273C78.7655 276.212 79.5366 276.25 80.6547 276.281C81.4644 276.412 81.6572 276.443 81.8423 276.474C82.5594 276.821 83.2688 277.16 84.2481 277.638Z" fill="#45689A"/>
<path d="M108.052 280.692C108.284 282.157 107.829 283.46 107.713 284.848C107.359 284.879 106.996 284.91 106.641 284.933C106.402 283.83 106.163 282.72 105.955 281.177C106.449 280.676 107.251 280.684 108.052 280.692Z" fill="#4F6FB4"/>
<path d="M148.713 226.853C147.989 226.506 147.187 225.796 146.67 224.678C147.51 225.01 148.073 225.75 148.713 226.853Z" fill="#EBBDA0"/>
<path d="M149.338 74.0795C123.837 71.6428 99.7863 63.7929 75.8663 55.1101C67.7851 52.1722 58.2078 52.4575 49.502 50.0593C55.293 38.6623 63.382 27.9901 73.6995 21.0192C96.6941 5.47356 121.054 6.6765 145.66 16.0764C162.486 22.5075 171.615 35.4622 173.397 53.2595C174.091 60.1918 173.566 67.2398 173.497 74.4574C173.404 74.681 173.651 75.7451 173.135 75.8145C164.969 75.4907 156.987 74.4882 149.338 74.0795Z" fill="#F9D5D3"/>
<path d="M25.8901 56.9377C36.8708 51.5322 48.5069 51.9177 59.8885 54.3467C70.0441 56.5213 80.0686 59.76 89.7923 63.469C108.754 70.6943 128.078 74.3803 149.076 76.4237C150.841 76.5085 152.507 76.709 153.756 76.8324C154.604 76.9249 154.373 76.7322 155.815 77.2488C159.462 77.5727 162.354 77.8194 165.87 78.1587C167.274 77.9659 168.407 77.7423 168.831 78.2204C159.193 87.9287 146.076 90.1572 133.707 88.3374C115.524 85.6617 98.9917 77.8888 82.2663 70.7637C68.34 64.8262 54.5139 58.4953 39.0376 57.624C34.65 57.3849 30.2701 57.169 25.8901 56.9377Z" fill="#D45561"/>
<path d="M162.555 13.9404C164.306 14.3259 166.411 14.9197 168.57 15.9607C170.667 18.4051 171.693 20.7725 173.698 22.1528C183.198 28.6841 190.732 36.5572 195.883 46.6973C202.167 59.0737 201.365 72.0669 200.825 85.1142C200.054 85.1142 199.615 85.1065 199.106 85.091C199.037 85.091 198.975 85.199 198.767 84.8906C197.826 84.397 197.093 84.212 196.33 84.0809C196.299 84.1349 196.422 84.1117 196.191 83.8033C195.173 83.2789 194.402 83.0553 193.5 82.8085C193.377 82.7777 193.245 82.9859 193.006 82.6389C192.235 82.1222 191.703 81.9526 191.04 81.7059C190.917 81.6287 190.693 81.8061 190.446 81.5131C189.706 81.0735 189.213 80.9193 188.573 80.6571C188.426 80.5415 188.048 80.5954 187.717 80.3024C186.537 79.7781 185.681 79.539 184.709 79.2691C184.586 79.2383 184.447 79.4311 184.216 79.1072C183.468 78.6445 182.943 78.5057 182.157 78.2127C181.471 77.858 181.07 77.8966 180.484 77.8503C179.319 77.0252 177.63 77.0406 176.674 76.0228C176.666 68.3656 178.024 60.6467 177.283 53.5679C175.888 40.2431 169.95 28.7689 158.376 20.6105C152.901 16.755 146.624 13.9018 140.709 10.5938C143.694 10.1619 146.454 10.5629 149.169 11.1644C153.656 12.1745 158.114 12.8685 162.555 13.9404Z" fill="#DA5561"/>
<path d="M172.88 21.3894C168.801 20.7725 154.774 12.1745 151.104 11.5962C148.598 11.1952 146.038 10.1928 143.323 10.6092C148.713 13.817 154.435 16.5776 159.416 20.3175C169.965 28.2291 176.088 39.3409 177.352 52.257C178.023 59.1199 177.075 68.5892 176.682 76.0459C175.494 76.6319 174.006 75.6835 173.212 75.7374C173.181 68.7434 174.083 60.1995 173.389 53.2672C171.608 35.4699 162.478 22.5075 145.652 16.0841C121.046 6.68422 96.6863 5.48128 73.6916 21.0269C63.3819 27.9978 55.6785 38.9322 49.4941 50.0671C48.4454 49.9437 48.4454 49.9437 47.1885 49.6507C56.8197 27.1727 74.1081 12.3133 97.9972 7.34737C98.8917 6.97724 99.7013 6.80759 100.696 6.44517C102.354 6.42975 103.511 6.56084 105.253 6.55312C113.975 7.28568 122.156 8.28813 130.353 8.51946C132.273 8.57344 136.468 12.19 135.743 5.36561C143.956 7.13917 161.321 12.5755 168.685 15.7911C169.472 15.9684 172.286 20.1324 172.88 21.3894Z" fill="#AF3946"/>
<path d="M172.826 78.6522C168.678 81.7058 163.349 86.7798 158.754 88.8232C144.642 95.1155 130.261 92.247 116.551 87.5123C100.08 81.8215 84.079 74.7735 67.8625 68.3579C52.6947 62.3663 35.7302 58.6341 18.6963 61.5644C19.9918 60.0607 23.2998 58.3797 25.4975 56.9762C30.263 57.1613 34.6506 57.3772 39.0306 57.624C54.5068 58.4953 68.3329 64.8262 82.2592 70.7638C98.9769 77.8888 115.51 85.6617 133.7 88.3374C146.077 90.1573 158.8 87.9673 168.824 78.2204C170.236 78.1973 171.863 78.259 172.826 78.6522Z" fill="#B53844"/>
<path d="M28.8052 68.1497C29.3912 67.9569 29.9772 67.7564 30.9257 68.1497C31.72 69.6148 32.1441 70.5016 32.2366 71.4655C31.3113 71.8896 30.7329 72.2366 29.9156 72.7147C29.3912 73.0771 29.1599 73.3624 28.7358 73.8636C27.9338 74.6887 27.4017 75.3442 26.8774 75.9996C26.4841 76.4546 26.0985 76.9095 25.4045 77.8657C24.9342 78.7833 24.7722 79.2074 24.6026 79.6238C24.6026 79.6238 24.5872 79.6855 24.2787 79.832C23.7929 80.6263 23.6156 81.274 23.4305 81.9218C23.4305 81.9218 23.469 82.0066 23.1683 82.1531C22.6979 82.9782 22.536 83.6491 22.3664 84.3199C22.1273 85.5846 21.8806 86.8415 21.7572 88.4839C17.8708 86.8877 13.406 84.9445 9.11091 82.716C8.38606 75.2902 10.1134 73.239 18.7961 70.2008C21.3022 69.4374 20.7393 69.7227 21.3022 69.4374C21.3022 69.4374 21.3022 69.4374 21.6878 69.4529C22.5668 69.368 23.0604 69.2601 24.0165 69.2061C25.9212 68.8822 27.3632 68.5198 28.8052 68.1497Z" fill="#E64C63"/>
<path d="M189.428 30.9126C192.358 36.4261 195.35 41.5154 198.373 47.0751C198.874 49.5581 199.367 51.563 199.815 53.5833C202.02 63.5847 204.757 75.0511 200.115 83.5951C199.298 83.2404 198.843 83.0167 198.396 82.7854C198.581 70.1546 199.313 57.5623 193.592 45.5715C188.903 35.7475 181.909 28.1289 173.25 21.798C171.422 20.464 170.25 17.927 168.7 15.7756C172.008 16.9554 175.339 19.0066 179.041 21.2505" fill="#B7333F"/>
<path d="M42.2915 49.2188C49.941 30.049 64.5998 17.0788 83.3302 9.82265C89.7844 7.32424 96.8401 6.01335 104.158 4.81041C104.69 5.51983 104.721 6.24468 104.729 6.5377C103.526 6.55312 102.315 6.56855 100.31 6.59168C98.9684 6.96181 98.4209 7.31653 97.8734 7.67124C74.3236 12.6218 57.1586 27.2807 47.1958 49.6352" fill="#C9515E"/>
<path d="M196.407 82.8934C196.407 82.8934 197.108 83.0167 196.484 83.2789C196.237 84.0038 195.967 84.2428 195.419 84.5513C193.091 84.104 191.178 83.6336 189.035 83.1633C188.796 83.1633 188.31 83.171 188.102 82.8934C187.246 82.4153 186.606 82.2148 185.742 81.6981C181.539 79.8089 178.602 82.0297 175.556 89.124C174.769 90.1495 173.967 91.2831 173.165 92.5323C172.363 93.7738 171.661 94.9767 171.045 96.118C169.973 96.2413 168.778 96.3184 167.474 96.3262C166.341 96.3262 165.284 96.2722 164.32 96.1874C164.452 95.8095 164.621 95.1078 164.482 94.2673C164.413 93.8278 164.274 93.4653 164.151 93.1954C164.313 93.0643 164.475 92.9333 164.683 92.7867C165.346 92.3395 165.948 92.1313 165.948 92.1313C166.364 91.9462 166.935 91.6147 167.559 90.9438C167.659 90.5582 167.898 90.2961 168.893 90.057C169.942 89.4555 170.366 88.962 170.798 88.4608C170.798 88.4608 170.89 88.6382 171.145 88.5533C171.615 88.0444 171.839 87.628 172.055 87.2116C172.055 86.9109 172.194 86.6795 173.003 86.4019C173.79 85.8699 174.029 85.4766 174.26 85.0756C174.26 85.0756 174.276 85.2607 174.53 85.1682C174.97 84.6901 175.162 84.3045 175.347 83.9189C175.347 83.9189 175.394 84.104 175.664 84.0115C176.211 83.2866 176.489 82.6543 176.774 82.022C176.612 80.9656 176.458 79.9092 175.864 78.5366C175.116 78.3515 174.8 78.4749 174.484 78.5905C174.021 78.7139 173.558 78.8373 172.479 78.5828C169.741 78.1896 167.613 78.1819 165.477 78.1741C162.3 77.9582 159.131 77.75 155.329 77.1948C154.08 76.9635 153.455 77.0637 152.831 77.164C151.936 77.1563 150.07 76.5779 148.759 76.4006C148.351 75.5524 149.33 75.4444 149.33 74.4188C156.979 74.4882 164.637 74.8969 173.134 75.5678C175.903 75.9225 177.83 76.015 179.75 76.0999C180.09 75.83 180.444 75.7914 181.3 76.4237C182.233 77.0098 182.696 77.1563 183.159 77.3105" fill="#1B1416"/>
<path d="M104.729 6.54541C104.181 6.24468 104.189 5.54296 104.158 4.81812C112.185 4.23978 120.93 4.17809 129.597 4.50196C132.165 4.54052 132.89 4.71787 134.741 5.02632C135.303 5.33476 136.036 5.44272 136.884 5.58923C137.964 12.537 132.319 8.85876 130.368 8.51176C122.164 8.28813 113.45 7.27797 104.729 6.54541Z" fill="#C64653"/>
<path d="M8.78689 72.2674C8.27024 75.2825 7.71503 78.4903 2.41748 76.5702C3.58957 74.7967 4.4995 72.9075 6.21137 71.5889C7.55311 71.7431 8.2394 72.1903 8.78689 72.2674Z" fill="#2B1113"/>
<path d="M143.609 171.363C142.391 171.255 141.18 171.147 139.738 170.677C140.964 169.389 142.414 168.456 144.288 167.539C155.631 166.343 163.041 160.784 165.956 150.011C168.732 139.74 162.632 128.142 153.664 126.23C140.717 120.524 132.536 122.313 125.002 132.075C115.764 139.663 115.502 151.885 124.023 161.254C124.1 162.912 124.123 164.215 123.868 165.356C123.074 164.886 122.542 164.57 121.833 163.93C119.913 161.47 118.178 159.349 116.389 156.82C115.71 154.645 115.078 152.872 114.538 150.69C114.499 148.33 114.376 146.387 114.492 144.127C114.762 143.04 114.8 142.269 114.947 141.205C115.039 140.711 115.016 140.511 115.247 139.979C116.944 136.162 118.394 132.669 120.206 129.06C133.87 114.316 149.647 112.574 164.082 123.315C164.097 123.307 164.051 123.323 164.128 123.708C166.403 128.135 168.608 132.175 170.806 136.216C170.875 136.964 170.937 137.712 171.076 139.316C170.467 144.729 169.788 149.286 169.11 153.844C168.847 153.951 168.686 154.137 168.362 154.861C167.868 156.003 167.621 156.689 167.382 157.375C167.382 157.375 167.521 157.391 167.236 157.445C166.789 157.869 166.634 158.239 166.48 158.601C166.48 158.601 166.48 158.601 166.203 158.794C165.609 159.588 165.293 160.182 164.976 160.784C161.136 163.544 157.296 166.312 152.716 169.397C149.192 170.268 146.4 170.816 143.609 171.363Z" fill="#1F1614"/>
<path d="M207.287 152.193C203.756 160.313 193.831 164.038 183.861 161.377C185.642 155.278 187.416 149.186 189.313 142.67C195.813 147.49 190.03 151.569 189.12 155.756C197.155 155.154 198.111 148.692 191.472 137.403C196.337 138.537 199.908 139.015 204.426 140.426C205.591 140.542 206.786 148.646 207.287 152.193Z" fill="#B97861"/>
<path d="M207.287 152.193C206.423 148.824 205.321 144.968 204.812 140.904C203.146 138.938 202.29 137.411 200.386 136.463C197.941 135.244 194.988 134.373 192.389 133.571C191.657 125.86 201.689 123.292 206.578 128.628C211.952 134.026 213.641 143.511 207.287 152.193Z" fill="#CA856E"/>
<path d="M204.719 61.5567C204.881 63.577 205.205 65.497 205.274 67.8798C205.413 70.9951 205.513 74.4266 205.56 77.6498C205.56 80.742 204.658 85.7773 202.776 85.3532C201.473 84.9445 201.157 84.212 200.478 83.7185C203.37 73.6015 202.02 63.5847 199.815 53.5833C199.368 51.563 198.373 49.5581 198.18 47.0674C198.658 46.5893 200.571 45.3941 200.856 45.7797C201.596 46.9055 201.519 47.8231 202.182 48.5557C202.352 49.6969 202.869 51.4011 203.331 53.2595C204.048 55.7039 203.971 57.2693 204.403 58.9966" fill="#C24F5C"/>
<path d="M189.274 83.1633C189.244 87.0574 188.665 92.2393 188.28 96.5961C187.632 94.5835 186.93 91.0672 185.989 88.0907C185.581 87.5895 185.712 86.9417 185.789 86.5408C186.683 85.1528 187.501 84.0501 188.318 83.0553C188.311 83.0553 189.035 83.1633 189.274 83.1633Z" fill="#120F17"/>
<path d="M200.116 83.6028C201.149 84.2197 201.828 84.7132 202.776 85.3609C201.373 85.5383 199.699 85.6617 197.617 85.6925C197.209 85.7079 197.232 85.546 197.147 85.2761C196.731 84.8212 196.468 84.9291 196.145 84.744C196.145 84.744 195.505 84.5358 195.443 84.5358C195.497 84.2428 196.091 83.9421 196.399 83.2172C196.993 82.7931 197.394 82.8085 198.096 82.8085C198.851 83.0167 199.298 83.2481 200.116 83.6028Z" fill="#1C1013"/>
<path d="M32.9925 106.312C34.4884 104.731 35.9613 103.667 37.1179 102.325C43.1172 95.4085 54.4526 94.622 60.7988 101.138C52.3551 98.1151 44.7057 98.3696 38.7141 105.217C36.0152 108.302 34.6889 112.574 32.738 116.313C31.7587 116.229 30.7871 116.136 29.3374 115.912C30.1779 112.759 31.4965 109.736 32.9925 106.312Z" fill="#BD8873"/>
<path d="M44.4898 70.6404C42.9938 72.1055 41.4516 73.586 39.8708 75.0743C38.1589 76.6859 36.4625 78.2513 34.7815 79.7626C32.2368 79.7626 29.8309 79.2306 27.9263 78.8913C27.9263 78.8913 28.3889 78.1433 28.6511 77.7655C29.1678 77.2025 29.3374 76.9635 29.7538 76.4623C30.1625 75.9688 32.0363 73.8097 33.3318 72.6221C35.0668 71.0336 37.5266 68.782 40.5879 68.9902C41.3899 69.0442 42.8473 69.3063 44.4898 70.6404Z" fill="#435E87"/>
<path d="M27.926 78.8913C30.1699 79.0224 32.0823 79.3694 34.4342 79.7087C35.213 79.7781 36.0921 80.2099 36.4468 80.6803C33.0076 83.0399 28.8744 84.8982 23.8159 87.9441C25.4815 84.0423 26.538 81.5747 27.926 78.8913Z" fill="#20457A"/>
<path d="M20.3615 96.4187C20.0299 95.424 19.9913 93.8046 20.0067 92.5323C21.0786 93.1183 22.7365 94.4447 23.816 95.4625C22.9447 95.6784 21.5644 96.357 20.3615 96.4187Z" fill="#1C1013"/>
<path d="M196.884 37.7678C198.087 40.3433 199.622 42.8186 200.694 45.6255C200.485 46.0264 198.689 47.052 198.187 47.0674C194.887 41.9858 192.365 36.4261 189.412 30.9049" fill="#BA4C58"/>
<path d="M108.145 171.787C109.009 171.379 110.297 172.034 110.543 172.312ZM110.543 172.319C110.929 177.262 108.423 180.108 103.958 181.673C95.206 184.75 86.6929 184.141 78.7196 179.522C72.9362 176.175 72.4119 172.481 76.6453 167.315C86.9782 167.7 96.9872 168.379 107.575 169.058C108.153 169.058 108.091 168.927 108.184 169.297M88.5281 179.522C94.3963 181.048 102.755 179.56 103.58 176.545C103.411 175.327 103.195 173.823 103.102 173.191C101.043 173.191 99.4934 173.191 97.6735 172.327C91.6126 171.649 85.5593 170.924 79.483 170.507C79.2825 170.492 78.1798 174.748 78.6733 175.041C81.4879 176.715 84.6571 177.794 88.5281 179.522Z" fill="#7B1928"/>
<path d="M60.3748 153.103C59.7194 153.72 59.0562 154.345 57.8456 155.201C56.9048 155.579 56.6966 155.856 56.6504 156.257C56.6504 156.257 56.6426 156.141 56.5964 156.111C53.9515 156.118 51.3528 156.149 47.9676 155.941C45.4769 154.985 43.765 154.268 42.0532 153.558C41.845 152.972 41.6368 152.386 41.1895 151.584C40.8965 150.659 40.8502 149.949 41.097 148.615C41.4903 146.626 41.5828 145.261 42.138 143.881C44.5207 143.21 46.4022 142.354 48.3763 141.93C55.1004 140.496 59.8196 143.341 61.277 149.996C60.8221 151.253 60.5984 152.178 60.3748 153.103ZM48.5151 149.587C51.8617 149.996 55.2084 150.397 59.4109 150.906C57.9844 144.729 54.5375 143.703 50.574 143.858C47.0423 143.996 43.8267 144.953 43.7111 149.926C45.1993 149.749 46.4331 149.602 48.5151 149.587Z" fill="#74ABC7"/>
<path d="M64.8853 112.296C64.0911 111.463 63.3662 110.97 62.3792 110.168C53.2569 104.515 46.5713 105.071 41.2661 111.587C34.5188 119.876 34.7193 135.445 41.6748 143.896C41.5822 145.261 41.4897 146.626 41.0656 148.253C38.9913 145.978 37.2563 143.449 35.2668 140.264C34.7887 139.231 34.5497 138.845 34.3107 138.46C33.8171 136.686 33.3313 134.913 32.8841 132.291C32.7684 130.594 32.6142 129.739 32.46 128.883C32.4754 126.168 32.4908 123.462 32.5525 119.953C32.5602 118.958 32.5216 118.766 32.4831 118.565C32.5448 118.064 32.6065 117.563 32.699 116.684C34.6808 112.574 36.0148 108.294 38.706 105.209C44.6898 98.3619 52.347 98.1074 60.8138 101.554C61.9859 102.164 62.7108 102.757 63.7363 103.69C64.0448 104.03 64.3686 104.338 64.3686 104.338L64.8159 104.276C65.6564 105.217 66.4969 106.166 67.7924 107.623C69.3115 109.798 70.7766 111.324 71.3318 113.129C72.8123 117.933 73.9073 122.86 75.0794 128.019C75.0717 128.482 75.1334 128.667 75.1103 129.345C74.8327 132.53 74.6322 135.213 74.2312 138.236C73.3675 140.604 72.7044 142.639 71.8639 144.791C71.5014 145.13 71.4166 145.392 71.1005 145.878C68.3707 148.407 65.9803 150.744 63.5821 153.08C62.7724 153.049 61.9705 153.018 60.7676 153.034C60.5979 152.163 60.8215 151.237 61.6543 149.911C64.6154 146.803 66.975 144.104 69.6816 141.166C70.6995 138.468 71.3781 135.992 72.2186 133.131C71.0002 127.263 69.6199 121.773 68.1625 115.99" fill="#181311"/>
<path d="M176.474 82.1685C176.489 82.6466 176.211 83.2789 175.571 83.9806C175.533 83.4717 175.857 82.9011 176.474 82.1685Z" fill="#1C1013"/>
<path d="M170.474 88.5456C170.366 88.9466 169.942 89.4478 169.156 89.9799C169.248 89.5635 169.703 89.1008 170.474 88.5456Z" fill="#1C1013"/>
<path d="M174.77 78.6677C174.8 78.4672 175.117 78.3438 175.533 78.4132C175.44 78.66 175.248 78.7062 174.77 78.6677Z" fill="#1C1013"/>
<path d="M171.747 87.3658C171.831 87.6203 171.615 88.0367 171.045 88.5533C170.937 88.2757 171.184 87.8979 171.747 87.3658Z" fill="#1C1013"/>
<path d="M173.937 85.199C174.022 85.4689 173.783 85.8699 173.197 86.3557C173.112 86.0703 173.366 85.7002 173.937 85.199Z" fill="#1C1013"/>
<path d="M175.055 84.0269C175.155 84.2968 174.97 84.6823 174.446 85.1296C174.322 84.8366 174.538 84.4896 175.055 84.0269Z" fill="#1C1013"/>
<path d="M167.205 91.044C167.228 91.2985 166.904 91.6609 166.202 92.1082C166.171 91.8383 166.511 91.4913 167.205 91.044Z" fill="#1C1013"/>
<path d="M124.284 166.575C124.284 166.575 124.199 166.05 124.169 165.78C124.115 164.215 124.099 162.912 124.315 161.131C124.855 160.375 125.156 160.097 125.711 159.951C126.251 160.344 126.451 160.652 126.551 161.416C127.276 162.619 128.024 163.421 129.135 164.423C133.738 165.588 137.779 170.029 142.66 165.364C143.223 165.433 143.454 165.456 143.701 165.819C143.77 166.613 143.817 167.068 143.863 167.523C142.413 168.456 140.963 169.389 139.29 170.608C135.974 170.546 132.89 170.199 129.135 169.513C127.076 168.31 125.68 167.438 124.284 166.575Z" fill="#6AA3BF"/>
<path d="M120.205 129.06C121.454 121.488 127.168 117.216 133.815 115.157C143.979 112.003 153.972 113.414 162.709 120.13C163.387 120.655 163.665 121.696 164.097 122.906C149.646 112.574 133.869 114.316 120.205 129.06Z" fill="#C98C75"/>
<path d="M114.491 144.128C114.268 143.657 114.275 142.871 114.561 141.791C114.8 142.269 114.761 143.04 114.491 144.128Z" fill="#DC9F83"/>
<path d="M196.145 84.744C196.407 84.6361 197.201 84.9985 197.24 85.5383C196.993 85.6385 196.569 85.2067 196.145 84.744Z" fill="#1B1416"/>
<path d="M64.7544 104.122C64.8161 104.292 64.3688 104.353 64.3688 104.353C64.3688 104.353 64.045 104.045 64.0758 103.821C64.3534 103.621 64.5539 103.744 64.7544 104.122Z" fill="#BD8873"/>
<path d="M87.6723 179.144C84.6264 177.864 81.4879 176.715 78.6811 175.034C78.1876 174.741 79.2903 170.484 79.4908 170.5C85.5671 170.916 96.6018 171.679 101.915 173.183C97.4886 174.031 87.5489 172.05 87.6723 179.144Z" fill="#94304D"/>
<path d="M87.672 179.144C87.14 171.826 92.9002 173.677 97.4575 173.268C99.4932 173.191 101.051 173.191 103.11 173.191C103.202 173.831 103.41 175.327 103.588 176.545C102.755 179.56 93.4785 182.128 87.672 179.144Z" fill="#C44E97"/>
<path d="M83.8164 159.588C84.0015 158.062 84.5567 156.612 85.3124 154.885C90.155 152.679 94.3421 152.355 97.0641 158.216C97.2646 158.802 97.2801 159.01 97.1104 159.758C96.9254 160.298 96.987 160.853 96.987 160.853C96.9331 161.046 96.8791 161.231 96.748 161.701C92.9387 158.917 89.0368 156.743 83.8164 159.588Z" fill="#352018"/>
<path d="M56.8964 156.172C56.6882 155.848 56.9041 155.571 57.5518 155.378C57.6906 155.671 57.467 155.926 56.8964 156.172Z" fill="#EFB99D"/>
<path d="M48.083 149.518C46.4252 149.595 45.1991 149.749 43.7031 149.934C43.8265 144.96 47.0343 144.004 50.566 143.865C54.5296 143.711 57.9764 144.737 59.403 150.913C55.2081 150.397 51.8615 149.996 48.083 149.518Z" fill="#BFE4F5"/>
<path d="M75.0797 128.034C75.2802 128.05 75.4113 128.351 75.365 128.759C75.1337 128.682 75.072 128.497 75.0797 128.034Z" fill="#E8B295"/>
<path d="M142.321 165.318C137.779 170.029 133.739 165.595 129.382 164.122C133.199 162.788 137.139 161.956 141.442 161.292C141.974 162.742 142.144 164.03 142.321 165.318Z" fill="#A3D7F3"/>
<path d="M142.66 165.364C142.151 164.03 141.974 162.742 141.103 161.038C135.713 157.907 131.078 157.314 126.567 161.023C126.452 160.652 126.243 160.336 125.704 159.951C129.197 154.383 134.317 156.126 139.175 157.36C142.907 158.308 144.897 160.799 143.917 165.187C143.447 165.456 143.223 165.433 142.66 165.364Z" fill="#79B0C9"/>
<path d="M126.543 161.416C131.07 157.314 135.704 157.907 140.74 160.876C137.139 161.956 133.198 162.788 129.011 163.922C128.016 163.421 127.268 162.619 126.543 161.416Z" fill="#D1EBF8"/>
<path d="M97.1412 160.776C96.987 160.861 96.9176 160.305 97.0641 160.066C97.5268 160.097 97.5576 160.39 97.1412 160.776Z" fill="#DC9F83"/>
<path d="M33.7325 66.9622C39.8783 68.6123 49.07 71.1879 60.174 74.681C67.6538 77.0329 72.3191 78.6445 78.5497 80.7497C103.788 89.2705 116.311 94.7377 122.002 94.6066C125.295 94.5372 164.151 93.18 164.151 93.18L170.621 95.6399C164.614 96.1951 155.985 96.8659 145.567 97.2052C139.097 97.4211 129.119 97.745 121.393 97.3055C99.4006 96.0563 92.0904 88.4068 59.4569 78.9915C53.1183 77.164 44.2197 74.8044 33.3315 72.6067L33.5552 69.3989L33.7325 66.9622Z" fill="#1B1416"/>
<path d="M8.01626 68.9748L16.113 67.3786L33.7406 66.9699V69.1598L10.1445 72.7378L8.08566 79.3231L3.01174 80.9656L2.04785 75.7529C2.04785 75.7529 2.18664 75.8454 2.42569 75.9842" fill="#1C1013"/>
<path d="M195.644 36.6343C195.644 36.6343 202.46 46.3117 204.11 56.984C205.761 67.6562 205.56 77.6498 205.56 77.6498L207.742 77.403C207.742 77.403 210.164 52.9896 195.736 32.9561" fill="#1B1416"/>
<path d="M49.1317 35.7552L42.3228 49.0646L33.7326 50.4989H32.2366L30.0312 50.7071L40.796 36.48" fill="#1C1013"/>
<path d="M190.476 82.4461C190.237 82.3613 189.659 82.1377 189.189 82.3921C188.495 82.7777 188.51 83.9498 188.472 84.9677C188.379 87.3427 187.685 89.6637 187.338 92.0156C187.06 93.9126 186.96 94.3907 186.775 95.6167C185.996 100.783 186.143 103.629 185.85 106.574C185.009 115.095 180.645 122.822 179.419 124.988C177.938 127.61 176.265 130.032 176.951 130.749C177.537 131.358 180.39 128.497 181.478 129.307C182.033 129.723 181.956 130.941 181.755 131.635C181.539 132.376 181.215 132.468 180.791 133.316C180.529 133.856 179.935 135.051 180.275 136.062C180.722 137.38 182.642 137.959 184.015 137.912C185.672 137.858 186.821 136.879 187.446 136.332C189.474 134.558 190.168 132.275 190.5 131.258C192.281 125.814 193.707 126.33 196.021 120.454C196.63 118.904 196.807 118.164 198.766 108.248C199.684 103.605 201.349 94.8919 200.277 87.5355C200.108 86.3942 200.169 84.6823 198.905 84.2428C195.643 83.1093 193.985 83.7262 190.476 82.4461Z" fill="#20457A"/>
<path d="M49.5558 127.186C53.1587 127.186 56.0795 124.051 56.0795 120.184C56.0795 116.317 53.1587 113.183 49.5558 113.183C45.9529 113.183 43.0322 116.317 43.0322 120.184C43.0322 124.051 45.9529 127.186 49.5558 127.186Z" fill="#FDFDFD"/>
<path d="M151.482 144.397C155.085 144.397 158.005 141.263 158.005 137.396C158.005 133.529 155.085 130.394 151.482 130.394C147.879 130.394 144.958 133.529 144.958 137.396C144.958 141.263 147.879 144.397 151.482 144.397Z" fill="#FDFDFD"/>
</svg>
