<svg width="201" height="366" viewBox="0 0 201 366" fill="none" xmlns="http://www.w3.org/2000/svg">
<path d="M22.2568 167.071L38.6014 186.254L69.7677 199.974L105.739 203.892L140.21 199.412L153.028 192.922L165.418 174.781L185.193 111.487C185.599 105.973 185.577 98.6171 183.951 90.1676C182.613 83.2114 180.558 77.4009 178.599 72.9285C176.048 69.6463 173.505 66.3641 170.955 63.0745C169.011 61.2855 167.074 59.4892 165.13 57.7002C161.855 64.2129 158.573 70.733 155.298 77.2457C145.392 82.2873 135.486 87.3363 125.58 92.3779C113.05 92.7475 100.52 93.1098 87.99 93.4794C77.1675 89.0661 66.345 84.6529 55.5152 80.2396C50.1705 75.0945 44.8184 69.9494 39.4737 64.7969C38.4757 62.5644 37.4851 60.3393 36.4871 58.1068C33.5302 60.598 29.9892 64.1464 26.8031 68.981C20.2313 78.9533 18.8045 88.8887 18.4497 94.226C18.6715 101.079 18.8932 107.924 19.115 114.777C20.1647 132.216 21.2145 149.647 22.2568 167.071Z" fill="#678B44"/>
<path d="M147.321 194.001C147.669 195.842 146.634 196.648 145.096 197.328C135.671 201.49 125.773 203.767 115.571 204.846C115.031 204.905 114.492 204.949 113.849 205.008C113.464 206.923 113.605 207.928 116.007 208.35C122.712 209.518 129.173 211.447 133.985 217.235C139.567 223.482 145.118 229.381 150.271 235.613C153.79 239.871 154.1 238.88 150.308 243.796C149.872 244.366 149.495 245.445 149.739 245.992C152.474 252.157 155.327 258.271 158.173 264.562C158.661 265.552 159.134 266.38 159.615 267.378C160.613 270.919 161.559 274.297 162.594 277.654C162.853 278.489 163.392 279.228 163.888 280.16C168.257 284.514 164.132 287.759 162.579 291.189C161.951 292.571 160.613 293.651 159.511 294.774C159.238 295.055 158.587 294.922 158.173 295.114C157.575 295.395 156.909 295.691 156.481 296.171C153.524 299.491 150.397 299.358 147.321 295.994C146.626 295.233 145.141 294.641 144.15 294.789C139.618 295.484 136.484 293.126 136.876 288.439C137.127 285.423 136.27 282.932 135.05 280.219C134.399 278.223 133.749 276.404 133.098 274.593C132.914 274.652 132.729 274.711 132.537 274.77C133.18 276.981 133.83 279.184 134.503 281.586C134.688 282.532 134.747 283.331 135.006 284.048C135.826 286.295 135.479 288.018 132.877 288.949C132.1 289.104 131.487 289.245 130.659 289.356C128.996 289.6 127.547 289.866 125.883 290.147C117.146 291.329 108.615 292.497 99.8696 293.651C97.2748 293.643 94.8945 293.665 92.3072 293.651C84.9739 293.288 77.9659 292.298 71.128 290.221C70.3444 289.984 69.4721 290.036 68.4667 289.888C67.5574 289.681 66.8182 289.54 66.0937 289.26C64.7779 287.522 65.1845 285.815 65.7093 284.063C66.0641 282.887 66.2416 281.668 66.6555 280.359C67.0326 278.895 67.2617 277.535 67.6018 276.094C67.757 275.724 67.8014 275.436 67.8457 275.147C67.757 275.14 67.6609 275.125 67.5722 275.118C67.55 275.473 67.5278 275.835 67.38 276.301C66.8921 277.787 66.5373 279.162 66.1233 280.699C65.3988 282.976 64.5413 285.046 64.0978 287.204C63.6986 289.127 63.7503 291.145 63.4768 293.214C62.1831 295.388 60.3868 296.519 58.0804 295.861C56.2101 295.321 55.323 296.083 54.0515 297.243C52.7652 298.419 50.4958 300.001 49.3352 299.565C46.0455 298.337 42.8594 296.489 40.1316 294.279C38.4683 292.934 37.6552 290.494 36.5833 288.483C35.1418 285.778 35.6888 284.004 38.8084 280.744C39.9394 276.633 40.9818 272.686 41.9723 268.716C42.1572 267.969 42.0832 267.164 42.135 266.38C42.268 266.144 42.3937 265.907 42.5268 265.53C45.6316 263.157 45.9199 259.38 47.4279 256.289C49.106 252.859 50.3775 249.215 51.6564 245.607C51.9151 244.876 51.6638 243.663 51.1907 243.02C47.0509 237.454 47.4205 239.427 51.3089 234.201C53.0831 231.821 55.0791 229.603 57.1859 227.119C61.2073 222.95 64.9405 218.906 68.8289 215.018C72.1111 211.728 76.0069 209.407 80.5976 208.387C82.0317 208.069 83.488 207.832 84.863 207.574C85.3657 205.334 84.5599 204.713 82.4383 204.314C75.97 203.079 69.5681 201.475 63.1516 199.945C61.2665 199.494 59.4332 198.828 57.4224 198.2C54.6059 196.847 51.9447 195.561 49.2982 194.26C41.5806 190.475 34.6021 185.626 28.3408 179.734C25.82 176.237 22.9665 172.933 20.867 169.207C18.021 164.158 16.6386 158.688 18.8859 153.336C15.3006 151.251 11.5822 149.639 8.52176 147.207C-0.807442 139.778 -3.17302 123.256 5.18778 114.163C8.31477 110.755 12.1884 109.262 17.06 109.292C17.2965 106.63 17.5183 104.073 17.7401 101.522C17.9545 99.0976 18.021 96.636 18.4645 94.2556C18.6198 93.4129 19.699 92.7402 20.6822 92.0601C21.3845 93.132 22.0868 94.1225 22.0942 95.1279C22.109 98.3288 21.865 101.537 21.6211 104.901C19.0633 115.974 20.1204 126.723 23.0182 137.516C23.1365 137.871 23.2326 138.093 23.3435 138.506C23.5948 139.497 23.8314 140.303 24.0606 141.308C25.1251 145.825 24.3341 149.987 22.7225 153.979C21.1997 157.756 21.5693 161.393 22.9961 165.008C24.7776 169.532 27.5202 173.421 31.1794 176.873C32.3179 177.967 33.3528 178.913 34.4617 180.015C40.1982 185.116 46.6074 188.908 53.3936 192.101C67.9049 198.925 83.3032 201.645 99.2117 201.785C114.677 201.918 129.824 200.115 144.135 193.669C144.963 193.262 146.242 193.861 147.321 194.001ZM128.907 261.272C128.84 261.146 128.781 261.021 128.715 260.902C128.766 261.117 128.826 261.331 128.892 261.826C128.936 262.07 128.988 262.322 129.033 262.566C129.129 262.536 129.232 262.506 129.328 262.477C129.203 262.144 129.07 261.819 128.907 261.272ZM68.6589 272.701C68.6737 272.449 68.6884 272.205 68.7106 271.954C68.6515 271.954 68.5924 271.954 68.5332 271.954C68.511 272.257 68.4815 272.56 68.2449 273.026C68.1784 273.285 68.1119 273.536 68.0527 273.795C68.1488 273.809 68.2449 273.832 68.341 273.846C68.3706 273.521 68.4075 273.188 68.6589 272.701ZM10.7764 125.525C12.6467 125.074 14.517 124.624 16.609 124.121C16.4834 122.997 16.3577 121.859 16.3207 120.292C16.3429 117.926 16.3651 115.56 16.4242 112.966C16.3429 112.796 16.2098 112.744 15.648 112.744C11.8409 112.884 8.83962 114.592 6.73279 117.689C2.61523 123.736 2.67436 130.183 5.24691 137.117C8.12995 143.652 13.1494 147.51 20.113 149.285C21.8281 143.519 19.4329 138.684 17.9397 133.709C17.1782 135.623 17.1191 137.486 18.2502 139.238C18.9524 140.325 19.4699 141.619 18.021 142.173C17.4222 142.402 15.892 141.441 15.4558 140.65C13.4229 136.961 13.6447 133.295 16.1951 129.843C16.5351 129.384 16.7865 128.852 17.437 127.743C15.5445 127.987 14.273 128.061 13.0311 128.335C10.4955 128.889 9.7415 128.128 10.392 125.555C10.3994 125.562 10.4068 125.562 10.7764 125.525ZM144.335 249.562C144.335 249.562 144.313 249.548 143.995 249.636C139.219 252.911 133.786 254.286 128.079 254.915C132.1 264.806 136.048 274.467 139.929 284.159C140.225 284.898 140.232 285.881 140.04 286.665C139.589 288.454 139.36 290.346 141.001 291.374C141.873 291.921 143.44 291.344 144.697 291.278C145.592 291.226 146.56 291.544 147.454 292.002C148.149 292.357 148.955 292.771 149.347 293.385C150.16 294.656 150.973 295.898 152.651 295.388C154.278 294.893 154.544 293.458 154.374 291.921C154.344 291.625 154.366 291.322 154.366 290.967C158.225 292.86 159.437 292.475 159.608 289.06C159.231 288.284 158.853 287.5 158.395 286.561C160.273 287.153 162.077 287.212 162.624 285.179C163.208 283.02 161.433 282.022 160.265 281.438C159.497 277.949 159.267 274.645 158.04 271.762C154.795 264.133 151.121 256.689 147.514 248.808C147.344 248.402 147.173 248.003 146.885 247.33C145.924 248.18 145.141 248.875 144.335 249.562ZM88.6997 208.535C88.5518 210.59 88.2339 212.527 89.6902 214.478C92.3367 218.026 94.6284 221.841 97.467 226.143C101.466 222.085 104.963 218.418 108.593 214.885C111.594 211.965 110.707 208.705 109.894 205.267C108.888 205.319 108.038 205.363 106.878 205.326C106.671 205.363 106.464 205.4 105.865 205.393C105.207 205.422 104.556 205.452 103.47 205.385C98.4798 205.385 93.4899 205.385 88.2857 205.385C88.4409 206.346 88.6036 207.248 88.6997 208.535ZM118.587 211.906C114.758 211.115 114.773 211.129 112.577 214.271C108.896 219.535 104.29 223.874 99.256 227.814C97.5262 229.167 96.2621 229.204 95.0202 227.274C91.7823 222.27 88.4188 217.354 85.277 212.29C84.5008 211.041 83.7763 210.619 82.4753 210.967C81.6473 211.189 80.8342 211.462 79.6883 211.736C79.23 211.972 78.7717 212.216 77.9881 212.475C77.0123 212.977 75.9404 213.354 75.0755 213.998C66.1307 220.614 59.1005 229.085 52.2552 237.735C51.9521 238.119 51.9447 239.147 52.2478 239.531C55.53 243.745 59.3519 247.293 64.874 249.104C67.5944 249.762 70.2926 250.546 73.0426 251.033C75.2381 251.425 76.5613 249.452 75.6816 247.374C74.802 245.297 73.9001 243.235 73.0056 240.758C72.7986 239.76 72.3773 238.747 72.4364 237.764C72.4881 236.907 73.0869 236.086 73.4418 235.251C74.0553 235.864 74.9498 236.374 75.2455 237.121C76.517 240.307 77.6554 243.552 78.7421 246.812C79.0156 247.626 79.1709 248.646 78.9269 249.437C76.0365 258.966 73.0204 268.45 70.1374 277.979C69.3316 280.647 68.8289 283.405 68.1488 286.258C69.8047 286.768 71.2093 287.241 72.636 287.633C82.5714 290.324 92.6398 291.573 103.344 290.435C113.132 289.725 122.749 287.988 132.108 285.733C132.233 285.327 132.293 285.246 132.278 285.186C129.513 275.532 126.748 265.877 123.947 256.238C123.843 255.876 123.326 255.351 123.037 255.365C120.576 255.528 120.369 253.687 119.903 252.017C119.548 250.745 119.082 249.503 118.654 247.87C117.463 243.552 116.222 239.243 115.135 234.896C114.98 234.29 115.623 233.477 115.896 232.767C116.562 233.144 117.323 233.425 117.855 233.942C118.195 234.275 118.203 234.962 118.358 235.487C119.799 240.551 121.189 245.622 122.734 250.656C122.926 251.292 123.91 252.135 124.531 252.135C134.207 252.083 142.568 249.075 148.748 241.194C149.65 240.041 149.739 239.272 148.748 238.193C142.546 231.421 136.58 224.421 130.104 217.923C127.842 215.654 124.368 214.604 121.197 212.748C120.45 212.504 119.703 212.26 118.587 211.906ZM51.8707 295.255C52.5065 292.527 55.5522 293.311 56.5206 292.061C57.8734 292.357 59.2188 293.059 59.7289 292.667C60.5864 292.01 61.0891 290.708 61.3996 289.577C61.577 288.934 61.0447 288.114 60.8895 287.352C60.7934 286.864 60.6234 286.288 60.7786 285.866C62.8041 280.337 64.8518 274.822 66.9586 269.322C68.888 264.281 70.8988 259.269 72.9465 254.064C66.0568 253.177 60.0024 250.834 54.8055 246.694C50.9984 255.454 47.2062 263.904 43.6948 272.471C42.6746 274.963 42.342 277.779 41.9649 280.477C41.7654 281.904 41.8023 283.072 40.346 284.033C39.6289 284.506 39.0893 286.236 39.3998 287.02C39.6881 287.729 41.2331 287.951 42.2459 288.328C42.5268 288.432 42.8964 288.299 42.6746 288.313C42.6746 289.91 42.1867 292.29 42.7781 292.601C44.0422 293.259 45.8681 292.845 47.0953 292.867C47.5536 293.872 47.938 295.299 48.8177 296.297C49.1282 296.622 50.6806 295.831 51.8707 295.255ZM129.89 265.552C129.957 265.67 130.031 265.781 130.097 265.9C130.164 265.781 130.304 265.633 130.267 265.552C130.23 265.449 130.045 265.404 129.89 265.552ZM127.606 258.3C127.687 258.271 127.761 258.248 127.842 258.219C127.761 258.197 127.687 258.175 127.606 258.3ZM126.896 255.469C126.844 255.395 126.785 255.321 126.734 255.247C126.741 255.351 126.756 255.454 126.896 255.469ZM129.735 263.8C129.654 263.83 129.58 263.852 129.498 263.881C129.58 263.911 129.661 263.933 129.735 263.8ZM127.369 256.888C127.318 256.814 127.258 256.74 127.207 256.666C127.214 256.77 127.229 256.873 127.369 256.888ZM128.086 259.55C128.138 259.623 128.197 259.697 128.249 259.771C128.234 259.668 128.227 259.564 128.086 259.55Z" fill="#0B0F0D"/>
<path d="M165.751 279.834C165.654 279.864 165.514 279.783 165.322 279.583C165.425 279.546 165.558 279.627 165.751 279.834Z" fill="#4A9695"/>
<path d="M108.437 10.4628C111.062 13.161 113.775 15.7779 116.273 18.587C117.234 19.6663 118.04 19.4889 119.142 19.171C126.785 16.9459 134.451 16.495 142.051 19.2893C151.86 22.8968 158.003 30.304 161.84 39.6036C163.607 43.8838 164.191 48.6593 165.366 53.1908C165.544 53.8857 165.876 54.6176 166.357 55.135C167.48 56.3326 168.745 57.4119 170.083 58.6169C170.223 58.6982 170.238 58.676 170.26 58.7573C170.29 58.8386 170.445 58.8978 170.497 59.053C171.827 60.635 173.099 62.0839 174.392 63.5032C175.494 64.7082 175.627 65.9279 174.363 67.2068C173.283 66.7485 172.197 66.4676 171.502 65.7875C169.366 63.6806 167.384 61.426 165.071 58.9347C163.089 68.6705 158.144 75.819 150.685 81.0676C146.346 84.1206 141.489 86.4418 136.691 89.1031C134.289 89.931 132.064 90.7516 129.661 91.5722C123.717 92.681 117.996 94.2112 112.178 94.8248C95.9812 96.5251 80.2059 94.6548 65.325 87.6616C61.0226 85.6361 57.0455 82.9231 52.9131 80.5427C52.9057 80.5649 52.9501 80.5575 52.9057 80.4466C52.7135 80.2618 52.5731 80.1953 52.3587 79.9809C45.9273 74.3848 40.2573 68.3896 37.3374 59.8514C36.5094 60.8937 35.9254 61.5886 35.3784 62.3204C30.0337 69.4393 26.2488 77.3196 23.9571 85.9096C23.5506 87.425 22.9813 88.5708 21.1406 88.3565C20.8153 87.4546 20.1205 86.501 20.2535 85.673C20.5492 83.7658 21.2515 81.9177 21.9316 79.7665C22.5008 78.3102 22.8335 77.0904 23.3731 75.9742C25.1251 72.3076 26.951 68.6853 28.8878 64.9669C31.1204 62.0617 33.242 59.2452 35.2823 56.377C35.6815 55.8225 36.0215 54.9798 35.918 54.3514C34.6244 46.5229 34.8979 38.7609 36.8125 30.9545C36.9751 30.718 36.9973 30.5701 37.0491 30.3114C37.1673 30.0231 37.1821 29.8383 37.2782 29.4908C41.004 18.6314 47.8789 10.6846 58.0361 5.7982C65.3028 2.30159 73.0574 0.409138 81.3813 0.349998C84.2273 0.763973 86.859 1.15577 89.5055 1.44408C90.363 1.54018 91.2427 1.36276 92.115 1.31101C92.115 1.31101 92.2998 1.30362 92.455 1.48104C92.9503 1.96893 93.2386 2.46422 93.6378 2.5825C99.123 4.17187 103.854 7.16579 108.437 10.4628ZM147.802 25.8316C147.802 25.8316 147.831 25.8242 147.728 25.6172C147.595 25.5285 147.469 25.4472 147.159 25.085C143.344 22.8968 139.448 20.96 134.503 20.7678C132.034 20.753 129.565 20.7382 126.711 20.6569C125.226 21.0117 123.732 21.3592 121.899 21.6918C120.775 21.9728 119.652 22.2537 118.166 22.542C117.323 22.712 116.488 22.8894 115.46 22.8007C113.819 20.716 112.37 18.4318 110.507 16.5689C97.7702 3.78007 82.6601 0.527417 65.6207 5.8869C57.0751 8.57774 49.6161 13.1093 44.7889 20.8713C36.2803 34.5398 36.1102 48.9033 42.1129 63.9024C43.4139 65.4253 44.7224 66.9481 46.1269 68.8036C48.182 72.7807 51.4273 75.5676 55.2344 78.0589C55.3452 78.0441 55.4635 78.0293 55.5744 78.0145C55.4783 77.9258 55.3822 77.8371 55.2344 77.4157C54.5616 75.9964 53.852 74.5992 53.231 73.1577C48.5664 62.2983 48.5516 51.7271 54.983 41.4443C60.1059 33.2536 68.7698 30.6071 76.6057 35.2347C80.8046 37.7186 83.5398 41.5109 84.9666 46.5968C85.0405 48.5336 85.1218 50.4778 84.9813 52.6734C84.8335 52.9395 84.7596 53.3091 84.5378 53.4644C83.7986 53.9744 83.015 54.4106 82.2461 54.8689C82.0613 54.0188 81.7952 53.1761 81.7361 52.3111C81.6991 51.8011 82.0761 51.2688 82.1427 50.7366C82.7784 45.658 79.2005 39.781 73.9815 37.2602C69.2429 34.976 64.0239 35.9148 60.1946 39.9437C55.5079 44.8818 53.1349 50.8918 52.9501 57.6411C52.7505 64.8486 55.1974 71.3761 58.8788 77.4601C60.0912 79.4634 61.1483 81.9842 62.9816 83.1079C68.2819 86.3457 74.0776 88.6078 80.5163 89.8719C82.3275 90.2489 84.1312 90.6333 86.312 91.1138C96.7796 92.9767 107.284 93.058 117.73 91.1877C122.002 90.4263 126.135 88.8813 130.711 87.7429C132.182 87.3141 133.653 86.8854 135.457 86.3605C139.456 84.2315 143.684 82.4351 147.381 79.8774C150.397 77.7853 152.792 74.784 155.764 72.1006C157.198 69.8977 158.632 67.6873 160.243 65.1887C160.975 61.766 162.195 58.3729 162.35 54.9281C162.72 46.9443 159.585 39.9141 155.18 33.4605C153.952 31.6642 152.178 30.2448 150.648 28.6703C150.648 28.6703 150.67 28.6629 150.737 28.3302C149.924 27.6501 149.11 26.9626 148.282 26.3047C148.282 26.3047 148.312 26.3047 148.245 26.0534C148.09 25.9647 147.942 25.8833 147.802 25.8316Z" fill="#0A0E0C"/>
<path d="M150.811 192.878C149.702 191.303 150.123 190.268 151.587 189.307C159.356 184.184 164.124 176.91 166.66 168.039C169.617 157.69 172.596 147.34 175.708 137.035C177.224 132.001 179.227 127.107 180.706 122.066C184.239 110.009 185.4 97.8039 181.726 85.5769C180.469 81.3928 178.355 77.4749 176.765 73.3795C176.396 72.4332 176.588 71.2652 176.773 70.0307C178.591 69.4171 179.271 70.3929 179.952 71.5609C187.359 84.3128 188.919 98.0775 186.679 112.36C185.769 118.14 184.069 123.803 182.679 129.71C183.818 129.71 185.134 129.613 186.435 129.724C192.511 130.242 196.769 133.228 199.394 138.824C204.62 149.972 196.281 166.339 183.796 169.968C179.397 171.247 174.976 171.307 170.497 170.833C170.024 171.388 169.321 171.876 169.114 172.519C166.46 180.636 161.404 186.941 154.522 191.828C153.553 192.515 152.156 192.597 150.811 192.878ZM192.23 159.989C192.23 159.989 192.238 160.033 192.533 159.9C196.052 155.494 197.856 150.527 197.42 144.849C196.843 137.412 192.001 132.97 184.55 133.021C180.639 133.043 180.41 133.236 179.493 137.435C179.294 138.396 179.094 139.357 178.894 140.288C181.57 140.695 184.062 141.072 186.856 141.604C188.438 142.447 190.094 143.178 191.595 144.154C193.154 145.167 193.435 146.446 191.373 147.651C190.545 147.237 189.695 146.867 188.889 146.409C185.474 144.48 181.874 143.578 177.335 144.191C178.562 145.315 179.375 146.002 180.114 146.742C184.217 150.859 183.966 157.571 179.449 161.075C178.798 161.578 177.534 161.305 176.558 161.393C176.736 160.514 176.817 159.597 177.128 158.769C177.305 158.296 177.889 157.993 178.229 157.564C180.558 154.585 179.878 150.549 176.514 148.545C174.725 154.785 172.951 160.965 171.177 167.145C178.828 168.993 187.662 166.132 192.245 160.233C192.245 160.225 192.275 159.996 192.23 159.989Z" fill="#0A0F0C"/>
<path d="M102.93 290.354C92.6396 291.588 82.5785 290.331 72.6431 287.641C71.2164 287.256 69.8118 286.776 68.1559 286.266C68.8286 283.412 69.3313 280.655 70.1445 277.986C73.0349 268.457 76.0436 258.973 78.9341 249.444C79.1706 248.653 79.0154 247.633 78.7492 246.82C77.6626 243.56 76.5241 240.322 75.2526 237.128C74.9569 236.382 74.0699 235.872 73.4489 235.258C73.0941 236.093 72.4953 236.914 72.4435 237.772C72.3844 238.755 72.7984 239.767 72.8279 240.972C69.9819 243.745 67.3206 246.302 64.6519 248.86C59.359 247.293 55.5371 243.745 52.2549 239.531C51.9518 239.147 51.9592 238.112 52.2623 237.735C59.1003 229.085 66.1304 220.614 75.0826 213.998C75.9549 213.354 77.0194 212.977 78.1578 212.637C79.7324 215.143 81.0335 217.561 82.5859 219.808C85.3876 223.852 88.3446 227.784 91.1832 231.939C89.8009 235.162 89.9413 235.606 93.1644 239.013C92.9205 246.923 92.6248 254.626 92.5804 262.322C92.5435 268.783 91.7229 267.519 98.6274 267.836C100.801 267.933 101.156 266.979 101.163 265.035C101.2 255.528 101.377 246.014 101.577 236.507C101.592 235.665 101.924 234.6 102.501 234.024C106.545 229.958 110.854 226.143 114.75 221.944C117.271 219.224 119.237 216.001 121.455 213C124.375 214.604 127.857 215.654 130.119 217.923C136.595 224.421 142.56 231.421 148.763 238.193C149.753 239.272 149.664 240.041 148.763 241.194C142.583 249.075 134.214 252.091 124.545 252.135C123.932 252.135 122.948 251.3 122.749 250.656C121.204 245.63 119.814 240.551 118.372 235.487C118.225 234.955 118.217 234.275 117.87 233.942C117.338 233.425 116.576 233.144 115.911 232.767C115.637 233.484 114.994 234.29 115.149 234.896C116.229 239.243 117.478 243.545 118.513 248.173C117.626 255.055 117.02 261.649 116.14 268.206C115.282 274.593 113.028 280.485 108.607 285.312C106.892 287.175 104.83 288.69 102.93 290.354Z" fill="#F1E8DC"/>
<path d="M54.6943 352.686C55.3079 351.711 55.8771 350.713 56.5424 349.774C57.119 348.968 57.8139 348.243 58.5088 347.423C52.8906 344.17 51.3456 339.676 53.5855 334.057C53.9033 333.259 54.1695 332.402 54.65 331.699C58.871 325.601 59.5289 318.43 60.8891 311.452C61.9684 305.9 63.2251 300.385 64.6519 294.619C64.9624 293.924 65.0215 293.466 65.0954 292.837C65.295 292.047 65.4798 291.418 65.7829 290.701C65.9455 290.317 65.9973 290.028 66.0416 289.644C66.0343 289.555 66.1156 289.393 66.1156 289.393C66.8474 289.533 67.5867 289.674 68.4811 290.065C68.2372 291.751 67.8232 293.185 67.3057 294.708C67.1283 295.351 67.047 295.898 66.9731 296.637C65.3763 304.894 63.7796 312.974 62.0793 321.195C61.1183 323.893 60.2534 326.443 59.2628 329.097C57.9322 332.01 56.3502 334.723 55.6923 337.65C55.3596 339.136 56.4833 341.125 57.4073 342.611C57.6661 343.032 59.6103 342.67 60.6526 342.293C64.8145 340.777 69.0578 339.742 73.508 339.971C76.7015 340.134 79.8876 340.496 83.2363 340.873C87.9157 342.189 92.4399 343.409 97.0749 344.651C98.716 341.102 98.96 337.621 97.8881 333.873C96.757 329.91 94.8572 326.096 95.4412 321.749C96.0622 317.092 96.5131 312.405 97.0749 307.733C97.4224 304.872 97.8363 302.019 98.3834 299.121C99.1965 299.025 99.8471 298.973 100.586 299.084C100.801 300.104 100.941 300.947 101.059 301.79C102.22 310.394 103.381 318.992 104.512 327.789C104.77 329.607 105.059 331.234 105.325 333.067C104.874 335.573 104.43 337.872 104.046 340.178C103.639 342.625 103.632 345.006 105.51 347.157C108.94 345.53 112.325 343.919 115.903 342.33C120.176 341.694 124.279 340.452 128.345 340.541C133.142 340.637 137.925 341.834 142.693 342.655C143.98 342.877 145.14 343.106 145.347 341.413C145.754 338.064 145.798 334.804 142.886 332.305C141.821 331.389 140.749 330.406 139.966 329.26C139.367 328.388 138.687 327.027 138.968 326.199C140.143 322.71 138.79 320.441 135.981 318.652C134.303 317.58 133.704 316.101 133.593 314.113C133.357 310.054 132.862 306.003 132.411 301.96C131.945 297.768 131.405 293.584 130.895 289.393C131.509 289.26 132.13 289.119 132.906 288.964C133.327 289.984 133.593 291.026 133.786 292.416C133.83 293.059 133.956 293.355 134.074 293.651C134.14 293.946 134.2 294.235 134.214 294.87C134.296 295.794 134.429 296.378 134.562 296.962C134.784 298.796 135.005 300.622 135.175 302.817C135.242 303.468 135.368 303.756 135.493 304.044C135.833 307.319 136.077 310.609 136.565 313.854C136.706 314.815 137.327 315.961 138.088 316.523C141.355 318.933 143.189 321.786 141.984 326.007C141.851 326.488 142.205 327.168 142.479 327.678C142.693 328.077 143.107 328.38 143.462 328.676C148.489 332.875 149.487 338.293 147.691 344.215C146.863 346.95 146.841 349.567 146.974 352.672C147.003 353.581 147.099 354.098 147.144 354.793C146.848 356.383 146.597 357.802 146.212 359.295C145.916 359.643 145.761 359.916 145.443 360.182C138.406 363.893 131.036 365.527 123.074 365.349C121.499 365.179 120.087 365.172 118.705 364.98C112.392 364.078 106.035 363.206 103.395 355.821C103.196 354.084 102.989 352.531 102.811 350.979C102.723 350.232 102.693 349.478 102.627 348.561C102.006 347.009 101.399 345.627 100.549 343.705C99.8101 345.797 99.2631 347.364 98.6569 349.101C98.2725 351.644 97.9472 354.002 97.5111 356.516C96.8014 359.983 94.9385 362.163 91.6193 362.917C87.9231 363.753 84.2048 364.485 80.3311 365.239C78.934 365.483 77.6994 365.756 76.3097 366C75.9548 365.956 75.7552 365.941 75.4596 365.741C74.1585 365.571 72.9387 365.579 71.512 365.564C69.7009 365.364 68.0893 365.261 66.5074 365.002C62.582 364.352 58.7749 363.383 55.951 360.02C55.4853 358.09 55.0787 356.346 54.7091 354.409C54.7313 353.699 54.7091 353.189 54.6943 352.686ZM129.838 343.224C125.809 343.268 121.729 342.914 117.995 344.946C119.134 344.917 120.221 344.533 121.337 344.459C124.161 344.274 126.999 344.237 129.601 344.34C129.897 344.703 130.237 345.035 130.489 345.42C130.917 346.07 131.302 346.758 131.708 347.43C131.006 347.652 130.304 347.911 129.587 348.073C129.158 348.17 128.47 347.926 128.286 348.147C126.785 350.018 125.373 351.962 123.643 354.276C127.509 353.721 131.021 353.063 134.569 352.768C136.462 352.605 137.23 351.733 137.925 350.121C138.701 348.332 139.914 346.743 141.141 344.732C137.644 344.252 133.956 343.734 129.838 343.224ZM83.5173 344.68C83.0146 344.946 82.5193 345.213 81.8688 345.56C82.3197 345.878 82.7559 346.026 82.9111 346.321C83.3029 347.068 83.5616 347.881 83.8721 348.672C83.1107 348.813 82.3493 348.983 81.5879 349.094C81.1591 349.153 80.4864 348.946 80.309 349.168C78.7122 351.127 77.1968 353.159 75.9696 354.756C78.9414 354.512 82.9037 354.224 86.8586 353.84C87.4278 353.788 88.1301 353.455 88.4628 353.019C90.0447 350.934 91.5232 348.761 93.3122 346.24C90.0817 345.627 86.9104 345.013 83.5173 344.68ZM72.4361 352.206C74.1659 350.86 75.8883 349.508 77.6181 348.162C77.5073 347.815 77.389 347.475 77.2781 347.127C74.8312 347.127 72.3547 346.92 69.9596 347.246C69.1464 347.356 68.5403 348.842 67.7862 349.655C67.3131 350.166 66.7661 350.624 66.1969 351.023C65.3911 351.6 64.5336 352.11 63.4765 352.782C67.838 355.296 70.1962 355.052 72.4361 352.206ZM118.128 346.632C116.924 346.846 116.007 347.231 115.637 348.665C115.415 349.545 114.514 350.254 113.885 351.016C113.375 351.629 112.821 352.213 112.288 352.805C112.355 353.041 112.422 353.285 112.488 353.522C114.61 353.721 116.739 353.958 118.868 354.083C119.186 354.106 119.585 353.655 119.866 353.344C120.93 352.161 121.98 350.964 122.985 349.729C123.673 348.887 124.272 347.963 125.27 346.573C122.423 346.58 120.479 346.58 118.128 346.632ZM101.91 329.873C101.082 325.024 100.254 320.167 99.4405 315.384C96.8531 322.695 99.3222 329.526 101.496 336.386C101.754 336.371 102.006 336.357 102.264 336.342C102.161 334.324 102.057 332.305 101.91 329.873ZM114.765 359.384C115.297 360.034 115.741 361.128 116.369 361.247C118.232 361.594 120.169 361.557 122.32 361.683C121.876 359.887 123.229 357.95 120.819 357.417C119.459 357.114 118.018 357.174 116.628 356.974C114.965 356.737 114.491 357.484 114.765 359.384ZM72.1182 360.722C72.1182 359.827 72.1182 358.933 72.1182 358.09C69.76 357.743 67.7049 357.447 64.9845 357.048C65.2802 358.77 65.0658 360.589 65.8716 361.461C66.9879 362.673 71.0463 362.097 72.1182 360.722ZM125.513 356.974C123.85 358.164 124.575 359.82 125.099 361.077C125.299 361.557 127.776 361.772 127.938 361.454C128.596 360.167 128.759 358.63 129.165 356.944C127.635 356.944 126.785 356.944 125.513 356.974ZM63.2399 345.856C64.1935 345.368 65.1472 344.873 66.0934 344.385C65.9751 344.104 65.8568 343.823 65.746 343.542C64.2823 344.037 62.035 344.133 61.5175 345.124C60.5417 347.009 60.5639 349.404 60.1721 351.585C60.3273 351.688 60.4752 351.792 60.6304 351.895C61.8575 350.831 63.0921 349.759 63.75 349.19C63.4321 347.859 63.2177 347.002 63.2399 345.856ZM78.0025 357.854C77.0859 357.854 76.1766 357.854 75.186 357.854C74.9569 359.51 74.7647 360.855 74.5799 362.193C78.2834 362.895 79.5549 361.365 78.0025 357.854ZM132.81 361.062C134.407 360.456 135.412 357.757 134.229 356.663C133.763 356.227 132.411 356.745 131.464 356.826C131.79 358.245 132.107 359.672 132.81 361.062ZM82.3788 357.432C81.9057 358.874 81.4326 360.308 80.8412 362.097C82.0831 362.03 83.0959 362.186 83.2142 361.934C83.776 360.685 84.1308 359.332 84.4339 357.987C84.4487 357.905 83.3399 357.58 82.3788 357.432ZM77.7512 343.387C74.809 343.106 71.8669 342.825 68.9247 342.544C68.8508 342.817 68.7842 343.091 68.7103 343.357C69.2278 343.638 69.7304 344.126 70.2627 344.163C72.7465 344.326 75.2378 344.37 77.7216 344.407C77.8103 344.407 77.9064 343.904 77.7512 343.387ZM139.751 358.349C139.751 357.802 139.921 357.181 139.714 356.73C139.426 356.116 138.857 355.636 138.413 355.096C137.925 355.725 137.134 356.309 137.031 356.996C136.898 357.831 137.341 358.763 137.63 360.064C138.502 359.502 139.101 359.118 139.751 358.349ZM86.9178 359.872C87.2356 360.293 87.5979 361.084 87.8492 361.054C88.3667 360.988 89.0985 360.559 89.2464 360.123C89.5938 359.073 89.6456 357.935 89.8304 356.737C87.0434 356.176 86.8217 357.669 86.9178 359.872ZM109.945 359.044C110.559 359.628 111.172 360.212 111.786 360.803C111.69 356.176 111.69 356.176 109.575 355.71C109.686 356.76 109.775 357.713 109.945 359.044ZM62.3233 359.864C61.7393 358.548 64.1492 356.449 60.9483 355.562C60.7561 356.878 60.453 358.075 60.4604 359.266C60.4678 360.36 61 361.099 62.3233 359.864ZM107.92 350.239C107.735 351.526 108.156 352.287 109.376 351.319C110.27 350.609 110.81 349.456 111.557 348.436C109.479 347.903 108.511 348.354 107.92 350.239ZM142.058 349.101C141.762 349.715 141.474 350.336 141.067 351.171C144.283 350.713 144.379 350.557 142.93 347.068C142.693 347.637 142.457 348.214 142.058 349.101ZM144.275 354.771C143.654 354.645 143.026 354.52 142.405 354.394C142.361 355.392 142.309 356.397 142.265 357.395C142.597 357.462 142.937 357.536 143.27 357.602C143.573 356.774 143.884 355.954 144.275 354.771ZM94.3545 356.006C91.2275 355.51 93.0535 358.053 92.2329 358.977C92.5064 359.125 92.7725 359.273 93.0461 359.421C93.5118 358.401 93.9775 357.373 94.3545 356.006ZM95.2564 351.799C95.2564 351.178 95.2564 350.565 95.2564 349.944C95.0642 349.892 94.8794 349.84 94.6872 349.788C93.9627 350.594 93.2383 351.4 92.5138 352.206C92.6247 352.391 92.7356 352.575 92.8465 352.76C93.5931 352.546 94.3323 352.332 95.2564 351.799ZM116.532 345.486C116.613 345.427 116.687 345.375 116.768 345.316C116.657 345.323 116.554 345.338 116.532 345.486Z" fill="#070909"/>
<path d="M67.3949 294.619C67.8089 293.185 68.2229 291.758 68.6442 290.132C69.487 290.021 70.3593 289.969 71.1355 290.206C77.9734 292.283 84.9814 293.274 92.3221 293.858C91.9007 300.94 91.6272 307.829 90.5183 314.586C89.4464 321.099 87.6131 327.493 85.9055 333.88C85.2697 336.253 84.0204 338.471 83.052 340.755C79.8659 340.481 76.6798 340.119 73.4863 339.957C69.036 339.735 64.7928 340.762 60.6309 342.278C59.5959 342.655 57.6517 343.017 57.3856 342.596C56.4615 341.117 55.3379 339.129 55.6706 337.635C56.3285 334.708 57.9179 331.988 59.4259 329.09C66.0421 327.582 72.3552 326.17 79.0749 324.662C78.1213 324.093 77.4781 323.701 76.8202 323.324C72.2295 320.67 67.1805 320.966 62.1611 321.032C63.7579 312.96 65.3546 304.88 67.0623 296.504C67.2545 295.684 67.3284 295.151 67.3949 294.619Z" fill="#5C7991"/>
<path d="M104.512 327.589C103.351 318.984 102.191 310.387 101.03 301.782C100.912 300.932 100.772 300.089 100.587 298.862C100.38 297.029 100.225 295.58 100.077 294.013C100.091 293.813 100.091 293.739 100.099 293.658C108.63 292.483 117.161 291.315 125.876 290.354C126.615 293.466 127.347 296.356 127.672 299.284C128.353 305.316 129.151 311.37 129.247 317.425C129.306 321.387 127.872 325.187 125.144 328.395C122.165 331.899 119.4 335.58 116.665 339.276C116.066 340.082 116 341.28 115.689 342.3C112.296 343.912 108.911 345.516 105.481 347.149C103.603 344.991 103.61 342.61 104.017 340.171C104.401 337.857 104.845 335.558 105.466 333.06C109.923 330.827 114.181 328.794 118.447 326.761C118.417 326.562 118.388 326.362 118.358 326.162C117.567 326.029 116.747 325.682 115.993 325.785C112.163 326.325 108.341 326.976 104.512 327.589Z" fill="#5C7991"/>
<path d="M51.7671 295.41C50.6878 295.839 49.1354 296.622 48.8397 296.29C47.9674 295.292 47.583 293.865 47.1173 292.86C45.8902 292.838 44.0642 293.251 42.8001 292.594C42.2088 292.283 42.6966 289.903 42.6966 288.306C42.911 288.291 42.5488 288.417 42.2679 288.321C41.2551 287.951 39.7027 287.722 39.4218 287.012C39.1039 286.229 39.6436 284.499 40.368 284.026C41.8243 283.065 41.7874 281.897 41.987 280.47C42.364 277.764 42.6893 274.955 43.7168 272.464C47.2208 263.896 51.0205 255.454 54.8276 246.687C60.0244 250.827 66.0788 253.17 72.9685 254.057C70.9208 259.261 68.9175 264.273 66.9807 269.315C64.8738 274.815 62.8262 280.33 60.8006 285.859C60.6454 286.288 60.808 286.857 60.9115 287.345C61.0668 288.099 61.599 288.92 61.4216 289.57C61.1111 290.694 60.6084 292.002 59.7509 292.66C59.2408 293.052 57.8954 292.35 56.5426 292.054C55.5446 293.318 52.499 292.527 51.7671 295.41Z" fill="#9CC97C"/>
<path d="M159.571 289.393C159.445 292.468 158.225 292.852 154.366 290.96C154.366 291.315 154.337 291.618 154.374 291.913C154.544 293.451 154.278 294.885 152.651 295.38C150.973 295.891 150.16 294.649 149.347 293.377C148.955 292.764 148.149 292.35 147.455 291.995C146.56 291.529 145.584 291.219 144.697 291.27C143.441 291.337 141.873 291.913 141.001 291.366C139.36 290.339 139.596 288.446 140.04 286.657C140.24 285.874 140.225 284.891 139.929 284.151C136.048 274.46 132.101 264.791 128.079 254.907C133.786 254.286 139.219 252.911 144.195 249.762C143.16 251.351 141.925 252.8 140.676 254.271C142.524 253.673 144.49 253.044 146.752 252.312C146.634 254.996 142.93 257.443 147.026 259.328C147.307 258.847 147.58 258.389 147.846 257.931C148.105 257.982 148.364 258.034 148.623 258.086C148.526 259.564 148.66 261.102 148.268 262.492C147.772 264.222 147.595 265.611 149.133 266.935C149.798 267.504 150.67 268.672 150.485 269.263C149.842 271.259 151.284 272.22 152.016 273.61C152.866 275.221 153.346 277.04 153.945 278.777C154.729 281.069 153.428 283.723 155.268 285.889C155.66 286.347 155.327 287.411 155.364 288.195C155.401 288.942 155.483 289.688 155.586 290.893C157.153 290.317 158.358 289.858 159.571 289.393Z" fill="#9BC97B"/>
<path d="M115.874 342.322C115.992 341.287 116.059 340.09 116.658 339.284C119.393 335.588 122.165 331.906 125.137 328.402C127.864 325.194 129.306 321.402 129.239 317.432C129.143 311.378 128.345 305.323 127.665 299.291C127.332 296.364 126.608 293.481 126.076 290.354C127.547 289.866 128.996 289.6 130.659 289.356C131.376 293.569 131.916 297.753 132.381 301.945C132.832 305.989 133.327 310.04 133.564 314.098C133.682 316.087 134.274 317.572 135.952 318.637C138.761 320.419 140.114 322.695 138.938 326.185C138.657 327.013 139.337 328.373 139.936 329.245C140.72 330.391 141.784 331.381 142.856 332.291C145.769 334.782 145.725 338.049 145.318 341.398C145.111 343.091 143.95 342.862 142.664 342.64C137.889 341.827 133.113 340.622 128.315 340.526C124.25 340.444 120.154 341.686 115.874 342.322Z" fill="#3D566E"/>
<path d="M103.137 290.398C104.823 288.683 106.893 287.175 108.585 285.319C113.006 280.492 115.253 274.6 116.118 268.213C117.005 261.656 117.612 255.062 118.499 248.365C119.075 249.503 119.541 250.753 119.896 252.024C120.369 253.695 120.568 255.535 123.03 255.373C123.326 255.351 123.836 255.883 123.939 256.245C126.741 265.885 129.506 275.539 132.271 285.194C132.285 285.253 132.226 285.342 132.101 285.741C122.757 287.995 113.139 289.733 103.137 290.398Z" fill="#E5D4BE"/>
<path d="M99.8774 293.643C100.092 293.747 100.092 293.828 99.8921 294.02C98.2658 294.109 97.5044 294.508 97.9997 296.201C98.2732 297.125 98.1401 298.167 98.1919 299.158C97.8075 302.011 97.3935 304.865 97.0461 307.726C96.4843 312.398 96.0407 317.077 95.4123 321.742C94.8283 326.088 96.7282 329.91 97.8592 333.865C98.9311 337.613 98.6872 341.095 97.0461 344.643C92.4111 343.401 87.8869 342.189 83.2075 340.866C84.0207 338.471 85.2626 336.26 85.8983 333.88C87.6134 327.493 89.4467 321.099 90.5112 314.586C91.6201 307.829 91.8936 300.94 92.5293 293.887C94.9097 293.651 97.2826 293.636 99.8774 293.643Z" fill="#3D566F"/>
<path d="M80.0137 211.721C80.8342 211.469 81.6474 211.196 82.4753 210.974C83.769 210.627 84.5009 211.048 85.2771 212.297C88.4114 217.361 91.7824 222.277 95.0202 227.282C96.2621 229.204 97.5336 229.167 99.2561 227.821C104.29 223.881 108.903 219.542 112.577 214.279C114.773 211.137 114.758 211.122 118.794 212.142C118.595 213.184 118.358 214.16 117.759 214.803C112.407 220.525 107.114 226.306 101.518 231.784C99.8696 233.395 99.2191 234.955 99.2117 237.062C99.1674 245.548 99.1008 254.035 99.0565 262.521C99.0417 266.018 98.5686 266.365 94.5989 265.197C94.902 256.386 95.2051 247.448 95.6634 238.474C97.7924 237.513 98.9752 236.027 98.5908 233.809C98.2064 231.577 96.4544 230.741 94.4067 230.431C93.8005 230.342 93.1795 230.305 92.5438 230.083C88.3523 223.852 84.183 217.79 80.0137 211.721Z" fill="#E8E2DA"/>
<path d="M103.891 205.474C104.549 205.445 105.199 205.415 106.123 205.496C106.656 205.533 106.914 205.467 107.173 205.4C108.031 205.356 108.881 205.312 109.886 205.267C110.707 208.712 111.586 211.965 108.585 214.885C104.955 218.418 101.459 222.085 97.4596 226.143C94.6209 221.841 92.3292 218.026 89.6828 214.478C88.2265 212.527 88.5517 210.59 88.9066 208.365C92.3884 207.914 95.6854 207.781 98.9306 207.278C100.638 207.012 102.242 206.095 103.891 205.474Z" fill="#9CC97C"/>
<path d="M159.593 289.23C158.366 289.858 157.153 290.317 155.594 290.915C155.49 289.703 155.409 288.964 155.372 288.217C155.335 287.434 155.667 286.377 155.276 285.911C153.435 283.745 154.736 281.084 153.952 278.799C153.354 277.055 152.873 275.244 152.023 273.632C151.284 272.242 149.85 271.281 150.493 269.285C150.678 268.701 149.813 267.533 149.14 266.957C147.602 265.633 147.78 264.244 148.275 262.514C148.674 261.124 148.534 259.579 148.63 258.108C148.371 258.056 148.112 258.005 147.854 257.953C147.588 258.411 147.314 258.869 147.033 259.35C142.938 257.465 146.649 255.018 146.76 252.335C144.505 253.059 142.539 253.695 140.683 254.294C141.932 252.822 143.167 251.366 144.357 249.74C144.313 249.562 144.335 249.577 144.557 249.629C145.725 249.518 146.671 249.355 147.625 249.193C151.129 256.711 154.803 264.155 158.048 271.784C159.275 274.667 159.504 277.971 160.273 281.461C161.448 282.045 163.215 283.043 162.631 285.201C162.084 287.234 160.28 287.175 158.403 286.584C158.854 287.5 159.231 288.284 159.593 289.23Z" fill="#95C674"/>
<path d="M95.508 238.503C95.2049 247.433 94.9018 256.371 94.5987 265.183C98.5684 266.351 99.0415 266.003 99.0563 262.506C99.0933 254.02 99.1672 245.534 99.2116 237.047C99.2189 234.94 99.8695 233.388 101.518 231.769C107.107 226.291 112.407 220.51 117.759 214.789C118.358 214.153 118.594 213.177 118.979 212.186C119.703 212.26 120.45 212.504 121.322 212.874C119.23 216.001 117.256 219.231 114.736 221.944C110.84 226.143 106.53 229.958 102.486 234.024C101.91 234.6 101.585 235.665 101.562 236.507C101.363 246.014 101.185 255.521 101.148 265.035C101.141 266.979 100.786 267.933 98.6128 267.836C91.7083 267.519 92.5288 268.79 92.5658 262.322C92.6102 254.626 92.9058 246.931 93.3124 239.021C94.1995 238.71 94.8574 238.607 95.508 238.503Z" fill="#7696B2"/>
<path d="M10.4216 125.57C9.74892 128.135 10.503 128.904 13.0385 128.349C14.2731 128.076 15.552 128.002 17.4444 127.758C16.7939 128.867 16.5425 129.399 16.2025 129.857C13.6521 133.302 13.4303 136.969 15.4632 140.665C15.8994 141.456 17.4296 142.417 18.0284 142.188C19.4699 141.626 18.9598 140.34 18.2576 139.253C17.1265 137.494 17.1857 135.631 17.9471 133.724C19.4404 138.699 21.8355 143.533 20.1205 149.299C13.1568 147.525 8.13738 143.666 5.36523 136.843C5.85313 134.722 6.08231 132.844 6.65153 131.07C7.33902 128.896 7.78994 126.449 10.4216 125.57Z" fill="#79A33F"/>
<path d="M10.4067 125.562C7.78235 126.449 7.33881 128.896 6.64392 131.062C6.07471 132.836 5.84554 134.714 5.34286 136.673C2.6742 130.183 2.61506 123.744 6.73263 117.697C8.83946 114.599 11.8408 112.892 15.877 112.87C16.1727 113.091 16.2614 113.165 16.3871 113.202C16.3649 115.568 16.3427 117.933 16.1062 120.521C13.0827 121.053 10.7467 123.115 10.4067 125.562Z" fill="#89C060"/>
<path d="M64.7632 248.986C67.3136 246.302 69.9748 243.745 72.8209 241.179C73.9002 243.242 74.802 245.304 75.6817 247.382C76.5688 249.459 75.2382 251.425 73.0427 251.041C70.2927 250.553 67.5945 249.769 64.7632 248.986Z" fill="#E5D4BE"/>
<path d="M79.8507 211.728C84.1826 217.783 88.3445 223.852 92.4917 230.217C92.0481 230.934 91.6342 231.348 91.2202 231.769C88.3298 227.792 85.3728 223.852 82.5711 219.808C81.0113 217.561 79.7102 215.143 78.3057 212.63C78.7788 212.223 79.2371 211.987 79.8507 211.728Z" fill="#7696B2"/>
<path d="M103.677 205.43C102.243 206.103 100.638 207.019 98.9308 207.278C95.6929 207.781 92.3959 207.906 88.9436 208.172C88.6036 207.248 88.4483 206.346 88.2783 205.385C93.4752 205.378 98.4651 205.378 103.677 205.43Z" fill="#89C060"/>
<path d="M10.5913 125.548C10.7465 123.115 13.0826 121.053 16.0543 120.728C16.35 121.859 16.4757 122.997 16.6013 124.121C14.5093 124.624 12.639 125.074 10.5913 125.548Z" fill="#79A33F"/>
<path d="M147.565 248.993C146.671 249.341 145.717 249.503 144.564 249.622C145.141 248.882 145.924 248.187 146.885 247.337C147.166 248.003 147.344 248.409 147.565 248.993Z" fill="#9BC97B"/>
<path d="M129.905 265.441C130.045 265.404 130.223 265.449 130.267 265.545C130.297 265.626 130.156 265.774 130.097 265.892C130.023 265.781 129.957 265.663 129.905 265.441Z" fill="#10100C"/>
<path d="M128.936 261.494C129.069 261.819 129.202 262.144 129.328 262.47C129.232 262.499 129.129 262.529 129.032 262.558C128.988 262.314 128.936 262.063 128.899 261.671C128.914 261.516 128.936 261.494 128.936 261.494Z" fill="#10100C"/>
<path d="M107.018 205.363C106.915 205.474 106.656 205.541 106.316 205.526C106.456 205.4 106.663 205.363 107.018 205.363Z" fill="#89C060"/>
<path d="M127.605 258.226C127.687 258.175 127.761 258.197 127.842 258.226C127.761 258.248 127.687 258.278 127.605 258.226Z" fill="#10100C"/>
<path d="M126.829 255.513C126.756 255.454 126.741 255.351 126.733 255.247C126.785 255.321 126.844 255.395 126.829 255.513Z" fill="#10100C"/>
<path d="M129.735 263.881C129.653 263.933 129.579 263.911 129.498 263.881C129.579 263.859 129.661 263.83 129.735 263.881Z" fill="#10100C"/>
<path d="M127.303 256.933C127.229 256.874 127.214 256.77 127.207 256.667C127.258 256.74 127.31 256.814 127.303 256.933Z" fill="#10100C"/>
<path d="M128.153 259.505C128.227 259.564 128.242 259.668 128.249 259.771C128.198 259.697 128.138 259.623 128.153 259.505Z" fill="#10100C"/>
<path d="M128.9 261.531C128.833 261.331 128.774 261.117 128.722 260.902C128.789 261.028 128.848 261.154 128.929 261.383C128.937 261.494 128.914 261.516 128.9 261.531Z" fill="#10100C"/>
<path d="M16.402 113.084C16.2615 113.158 16.1654 113.091 16.0693 112.899C16.2098 112.751 16.3355 112.803 16.402 113.084Z" fill="#79A33F"/>
<path d="M134.562 296.755C134.407 296.356 134.274 295.772 134.148 294.996C134.303 295.395 134.444 295.987 134.562 296.755Z" fill="#0B0F0D"/>
<path d="M135.494 303.86C135.346 303.734 135.22 303.446 135.117 302.987C135.257 303.113 135.383 303.409 135.494 303.86Z" fill="#0B0F0D"/>
<path d="M134.082 293.466C133.934 293.34 133.815 293.037 133.712 292.571C133.86 292.697 133.978 293 134.082 293.466Z" fill="#0B0F0D"/>
<path d="M64.7113 293.355C64.7113 293.178 64.9035 293.104 64.9922 293.052C65.0144 293.458 64.9552 293.917 64.7482 294.471C64.6374 294.227 64.6743 293.88 64.7113 293.355Z" fill="#0B0F0D"/>
<path d="M42.0168 63.5845C36.0954 48.9032 36.2655 34.5398 44.7741 20.8713C49.6013 13.1167 57.0603 8.57773 65.6059 5.8869C82.6527 0.520024 97.7554 3.78007 110.493 16.5689C112.355 18.4392 113.804 20.716 115.542 23.1038C116.761 25.8094 117.981 28.175 118.994 30.6219C122.409 38.8866 123.754 47.3435 120.635 56.0073C117.818 63.8137 113.132 70.2968 106.774 75.7155C99.5444 81.8733 91.531 86.3457 82.3053 88.6522C81.5882 88.8296 80.9303 89.2879 80.2502 89.6132C74.0406 88.6152 68.245 86.3531 62.952 83.1152C61.1113 81.9916 60.0616 79.4708 58.8492 77.4675C55.1678 71.3835 52.7283 64.8486 52.9205 57.6484C53.1053 50.8992 55.4783 44.8892 60.1651 39.9511C63.9943 35.9222 69.2134 34.9834 73.9519 37.2676C79.1709 39.7884 82.7488 45.6728 82.1131 50.744C82.0466 51.2762 81.677 51.8085 81.7065 52.3185C81.7657 53.1761 82.0392 54.0188 82.2166 54.8763C82.9854 54.4106 83.7764 53.9818 84.5082 53.4717C84.73 53.3165 84.8113 52.9543 85.2031 52.4886C91.154 45.8132 89.3059 35.3012 82.6453 30.097C71.1871 21.13 57.0085 25.5802 49.6161 36.2623C44.4784 43.6916 42.2089 52.0968 42.4159 61.1598C42.4455 61.9582 42.1646 62.7714 42.0168 63.5845Z" fill="#6A9558"/>
<path d="M118.521 22.5272C119.644 22.2463 120.768 21.9654 122.106 21.8471C122.646 22.2019 122.949 22.4533 123.296 22.5863C129.181 24.8632 134 28.6259 137.549 33.7488C143.093 41.74 143.226 50.877 141.903 59.9918C140.683 68.3674 137.63 76.1812 132.832 83.2483C131.879 84.6529 131.147 86.2053 130.312 87.6838C126.113 88.8739 121.98 90.4189 117.708 91.1804C107.262 93.0506 96.7575 92.9693 86.2012 90.9216C92.2999 88.6669 98.0808 85.88 103.44 82.0803C112.2 75.8707 119.245 68.3157 123.06 58.1437C125.743 50.9805 126.031 43.5512 123.865 36.2401C122.476 31.5607 120.332 27.0957 118.521 22.5272Z" fill="#6A9558"/>
<path d="M127.096 20.716C129.565 20.7308 132.034 20.7456 134.776 20.9452C135.856 21.6105 136.661 22.0836 137.46 22.5641C142.878 25.8094 147.92 29.4391 151.468 34.8503C156.355 42.2871 158.299 50.4113 157.294 59.2156C156.798 63.555 156.067 67.8647 155.446 72.1819C152.777 74.784 150.389 77.7853 147.373 79.8774C143.677 82.4351 139.448 84.2315 135.183 86.294C135.19 85.5178 135.338 84.7268 135.737 84.1058C143.307 72.3593 146.752 59.6518 145 45.6506C144.187 39.1527 142.014 33.2536 137.164 28.7368C134.037 25.8168 130.467 23.3699 127.096 20.716Z" fill="#6A9458"/>
<path d="M55.1528 77.8593C51.4122 75.5676 48.167 72.7807 46.1267 68.4414C46.0158 63.4958 45.2913 58.8312 45.8901 54.3367C47.0285 45.7689 50.089 37.8664 57.3853 32.47C65.5687 26.4156 75.4597 27.0513 82.0759 33.6084C85.8312 37.3341 86.8957 42.6419 84.9442 46.2124C83.5322 41.5108 80.797 37.7112 76.5981 35.2347C68.7622 30.5997 60.0983 33.2462 54.9754 41.4443C48.544 51.7271 48.5662 62.2983 53.2234 73.1577C53.8443 74.5992 54.554 75.9964 55.2193 77.6153C55.2045 77.8075 55.1528 77.8593 55.1528 77.8593Z" fill="#698F58"/>
<path d="M118.335 22.5346C120.324 27.0957 122.475 31.5607 123.865 36.2475C126.038 43.5586 125.743 50.9879 123.059 58.1511C119.245 68.3231 112.2 75.8781 103.44 82.0877C98.0803 85.88 92.2995 88.6743 86.0085 90.8773C84.1013 90.6333 82.2902 90.2563 80.3682 89.7388C80.9374 89.2805 81.5879 88.8222 82.305 88.6448C91.5233 86.3383 99.5366 81.8659 106.774 75.7081C113.139 70.2894 117.818 63.8137 120.635 55.9999C123.754 47.3361 122.409 38.8792 118.993 30.6145C117.981 28.1676 116.761 25.802 115.63 23.2221C116.473 22.8894 117.315 22.712 118.335 22.5346Z" fill="#405D35"/>
<path d="M84.9443 46.4046C86.8959 42.6419 85.8314 37.3342 82.0761 33.6084C75.4673 27.0513 65.5688 26.4156 57.3855 32.47C50.0966 37.8664 47.0287 45.7689 45.8903 54.3367C45.2915 58.8238 46.016 63.4958 46.0825 68.2787C44.7075 66.9481 43.4065 65.4253 42.061 63.7398C42.1645 62.7714 42.4528 61.9508 42.4307 61.1451C42.2237 52.0894 44.4857 43.6768 49.6308 36.2475C57.0232 25.5581 71.2018 21.1152 82.6601 30.0822C89.3132 35.2939 91.1687 45.7984 85.3213 52.3481C85.0995 50.4704 85.0256 48.5336 84.9443 46.4046Z" fill="#36512D"/>
<path d="M126.896 20.6865C130.467 23.3699 134.037 25.8168 137.164 28.7294C142.013 33.2462 144.187 39.1453 145 45.6432C146.752 59.6444 143.3 72.3519 135.737 84.0984C135.338 84.7268 135.183 85.5104 135.013 86.3383C133.638 86.8854 132.167 87.3067 130.503 87.7133C131.147 86.2053 131.886 84.6529 132.839 83.2483C137.637 76.1812 140.69 68.3674 141.91 59.9918C143.233 50.8696 143.1 41.7326 137.556 33.7488C134 28.6259 129.18 24.8632 123.303 22.5863C122.956 22.4533 122.653 22.2093 122.291 21.8619C123.725 21.3592 125.211 21.0044 126.896 20.6865Z" fill="#405D35"/>
<path d="M155.593 72.1375C156.066 67.8574 156.791 63.5476 157.286 59.2082C158.291 50.4039 156.347 42.2871 151.461 34.8429C147.912 29.4391 142.871 25.802 137.452 22.5568C136.654 22.0762 135.848 21.6031 134.968 20.9896C139.433 20.9526 143.329 22.8894 147.166 25.2845C147.402 25.6024 147.609 25.7059 147.824 25.8168C147.824 25.8168 147.794 25.8242 147.831 25.9277C148.008 26.1199 148.149 26.2086 148.289 26.2973C148.289 26.2973 148.26 26.2973 148.275 26.4452C149.073 27.2805 149.864 27.968 150.648 28.6481C150.648 28.6481 150.625 28.6555 150.633 28.8107C150.744 29.1803 150.795 29.4243 150.943 29.5943C158.942 38.7905 161.559 49.5242 160.117 61.4408C159.955 62.764 160.065 64.1242 160.043 65.4696C158.617 67.6873 157.182 69.8903 155.593 72.1375Z" fill="#36512D"/>
<path d="M160.14 65.3291C160.073 64.1316 159.962 62.7714 160.125 61.4481C161.574 49.5242 158.957 38.7978 150.951 29.6017C150.803 29.4317 150.751 29.1877 150.648 28.8107C152.163 30.2374 153.938 31.6568 155.165 33.4531C159.571 39.9141 162.698 46.9369 162.335 54.9207C162.18 58.3655 160.96 61.766 160.14 65.3291Z" fill="#648059"/>
<path d="M150.692 28.4855C149.872 27.968 149.088 27.2805 148.29 26.4304C149.095 26.9552 149.908 27.6427 150.692 28.4855Z" fill="#648059"/>
<path d="M147.78 25.7207C147.624 25.7207 147.41 25.6172 147.27 25.4324C147.462 25.4398 147.595 25.5285 147.78 25.7207Z" fill="#648059"/>
<path d="M52.9129 80.4392C52.7281 80.4614 52.4989 80.3653 52.3511 80.1953C52.5802 80.1879 52.7207 80.2544 52.9129 80.4392Z" fill="#9ECA7B"/>
<path d="M55.2339 77.7779C55.3596 77.8371 55.4557 77.9258 55.5518 78.0145C55.4409 78.0293 55.33 78.0441 55.1822 77.9554C55.1526 77.8593 55.2044 77.8075 55.2339 77.7779Z" fill="#698F58"/>
<path d="M170.26 58.7573C170.348 58.7056 170.467 58.7277 170.519 58.8312C170.452 58.8978 170.289 58.8386 170.26 58.7573Z" fill="white"/>
<path d="M37.0487 30.2892C36.96 30.2005 36.9748 30.0157 37.0931 29.7274C37.1818 29.8161 37.167 30.0009 37.0487 30.2892Z" fill="#92D0D2"/>
<path d="M148.268 26.1716C148.157 26.2086 148.024 26.1199 147.839 25.9129C147.942 25.8833 148.09 25.9647 148.268 26.1716Z" fill="#648059"/>
<path d="M54.2584 89.214C54.4802 89.2066 54.7019 89.1918 55.1233 89.2805C55.3229 89.384 55.5003 89.4284 55.5003 89.4284L55.663 89.3175C56.21 89.3544 56.7496 89.3914 57.5702 89.6353C58.6199 89.8941 59.3961 89.9458 60.1797 89.9902C61.1481 90.3598 62.1239 90.7368 63.2623 91.3726C63.632 91.7126 63.8316 91.7939 64.0312 91.8678C65.1622 92.7254 66.2932 93.5829 67.4834 94.7361C67.7273 95.2462 67.9122 95.4532 68.1044 95.6601C68.1044 95.6601 68.0452 95.6675 68.0674 95.7636C68.2079 95.9632 68.3261 96.0741 68.4444 96.185C68.6588 96.7616 68.8732 97.3382 69.0358 98.2918C68.8362 99.7555 68.6958 100.857 68.5553 101.951C68.5553 101.951 68.5331 101.899 68.4222 101.951C68.2522 102.165 68.1857 102.328 68.1192 102.491C68.1192 102.491 68.1044 102.424 68.0009 102.446C67.7643 102.705 67.646 102.942 67.5204 103.171C67.5204 103.171 67.4612 103.311 67.2321 103.348C66.855 103.526 66.7072 103.673 66.5593 103.814C66.2636 103.977 65.9606 104.132 65.3027 104.265C63.1367 104.331 61.3329 104.428 59.5292 104.531C58.8417 104.45 58.1542 104.368 57.134 104.198C55.589 103.799 54.3693 103.481 52.8317 103.082C53.2235 104.694 53.5044 105.817 53.8666 107.074C54.1623 107.296 54.3619 107.377 54.7167 107.421C55.4782 107.835 56.0991 108.286 56.757 108.885C57.0749 109.159 57.3484 109.284 57.755 109.484C58.5903 110.275 59.3 110.992 60.0023 111.872C60.2832 112.256 60.5641 112.485 60.9485 112.803C61.1777 113.21 61.3108 113.52 61.4734 114.008C61.7026 114.304 61.8873 114.429 62.1904 114.644C62.8336 115.841 63.3437 116.95 63.8389 118.237C64.0977 118.717 64.386 119.028 64.7778 119.471C65.7905 123.611 66.6924 127.603 67.6017 131.595C67.5943 133.029 67.5869 134.47 67.5425 136.311C67.4982 137.368 67.4908 138.019 67.4834 138.669C67.2542 139.556 66.929 140.436 66.8181 141.338C66.4189 144.605 64.8739 147.414 63.2328 150.497C60.5345 154.119 57.6811 157.084 53.3491 158.096C48.7215 158.961 44.2639 158.614 39.9541 156.123C35.977 153.461 33.1901 149.965 30.8837 145.648C30.2849 144.302 29.8118 143.238 29.346 142.166C29.346 142.166 29.4421 142.136 29.4421 141.914C29.2352 141.449 29.0282 141.205 28.8212 140.961C28.8212 140.961 28.8212 140.769 28.8655 140.48C27.2466 132.666 26.2856 125.126 28.8951 117.482C29.4717 116.196 29.9226 115.006 30.5214 113.742C32.6652 111.598 34.6612 109.528 36.7976 107.429C37.0489 107.266 37.1746 107.141 37.352 106.971C37.4112 106.934 37.5368 106.971 37.6847 106.941C37.9508 106.764 38.0691 106.608 38.2834 106.35C38.7196 106.172 39.067 106.098 39.5549 106.009C39.8358 105.869 39.9763 105.751 40.272 105.573C40.8634 105.514 41.2996 105.507 41.9501 105.536C43.2142 105.307 44.2639 105.048 45.4762 104.745C46.3338 104.221 47.0212 103.733 47.8492 103.171C49.7269 101.537 48.1005 101.655 46.9991 101.397C45.8902 100.997 44.9514 100.62 43.8573 100.162C42.9924 99.8368 42.2753 99.5929 41.5361 99.2233C41.2035 99.0533 40.9004 99.0089 40.4199 98.9719C39.4219 98.6097 38.6087 98.2401 37.7586 97.7152C37.1007 97.2569 36.4871 96.9464 35.8735 96.6359C35.8735 96.6359 35.8661 96.6359 35.8514 96.4881C35.5557 96.1185 35.2747 95.8967 34.8682 95.6528C34.6612 95.6158 34.5799 95.601 34.4912 95.5788C34.5133 95.3718 34.5429 95.1648 34.676 94.7213C34.5429 94.2556 34.2989 94.0264 34.0624 93.7973C34.0476 93.7085 34.0328 93.6198 34.1807 93.2798C34.3581 92.5849 34.3803 92.1488 34.4024 91.7052C34.4024 91.7052 34.3507 91.5648 34.5207 91.4243C34.8977 90.8107 35.1047 90.345 35.3043 89.8793C35.3043 89.8793 35.3191 89.9384 35.43 89.9089C35.6222 89.7241 35.7035 89.5688 35.7922 89.4136C35.7922 89.4136 35.8661 89.4579 35.9918 89.4727C36.3614 89.3101 36.6128 89.1253 36.8641 88.9478C36.8641 88.9478 36.975 88.9257 37.2116 88.9848C38.1873 88.8813 38.9192 88.7113 39.6584 88.5413C40.6416 88.4378 41.6174 88.3343 42.7854 88.1864C43.9534 88.2899 44.9366 88.4452 46.2451 88.7556C47.7161 88.8591 48.8767 88.8074 50.03 88.7556C50.7322 88.7926 51.4345 88.8222 52.3733 89.0661C53.1274 89.2879 53.6966 89.2509 54.2584 89.214ZM49.6529 99.9182C51.0131 100.243 52.3733 100.606 53.7483 100.901C57.2449 101.648 60.6824 103.001 64.3564 101.907C67.1729 101.071 68.0748 98.1736 66.0641 96.0224C65.1178 95.0096 63.8833 94.2556 62.7227 93.0506C62.3531 92.8732 61.9835 92.6884 61.222 92.511C58.9674 92.2153 56.7201 91.757 54.4506 91.6609C49.2833 91.4391 44.1087 91.2986 38.9414 91.3652C38.0691 91.3726 37.2042 92.5627 36.3393 93.1985C37.1229 94.0486 37.7512 95.2462 38.7196 95.6749C41.9427 97.0943 45.2914 98.2327 48.7437 99.7186C48.9285 99.7925 49.0985 99.859 49.6529 99.9182ZM41.7135 153.491C49.5051 157.542 57.2671 155.184 61.2886 147.429C62.257 145.559 62.9667 143.526 63.5433 141.493C66.5815 130.863 62.5231 118.784 54.1032 113.151C47.3244 108.619 39.2149 110.26 34.7203 117.069C32.3991 120.58 31.2163 124.49 31.0389 128.623C30.6249 138.433 32.8796 147.215 41.7135 153.491Z" fill="#0C0D0C"/>
<path d="M39.4292 88.5634C38.8896 88.7556 38.1503 88.9257 37.2041 89.0809C37.7437 88.8887 38.4904 88.7113 39.4292 88.5634Z" fill="#10100C"/>
<path d="M35.1344 89.9902C35.0752 90.3968 34.8756 90.8625 34.543 91.4095C34.6021 91.0103 34.7943 90.5298 35.1344 89.9902Z" fill="#10100C"/>
<path d="M34.2843 91.8752C34.3582 92.1931 34.336 92.6293 34.2104 93.2059C34.1069 93.3315 34.0551 93.1098 34.0107 93.0063C34.0403 92.5997 34.1216 92.304 34.2843 91.8752Z" fill="#10100C"/>
<path d="M36.672 88.9922C36.5833 89.1696 36.3319 89.3544 35.918 89.5097C36.0067 89.3175 36.2654 89.1548 36.672 88.9922Z" fill="#10100C"/>
<path d="M35.6369 89.4875C35.6886 89.6132 35.5999 89.7684 35.3781 89.9458C35.3264 89.8128 35.4151 89.6649 35.6369 89.4875Z" fill="#10100C"/>
<path d="M36.9161 25.9647C37.1157 25.9425 37.2784 26.0238 37.4484 26.0977C37.3301 26.1569 37.2192 26.2086 36.9974 26.2677C36.8865 26.2751 36.8866 26.0681 36.9161 25.9647Z" fill="#92D0D2"/>
<path d="M135.642 118.096C136.883 117.431 137.719 115.568 139.722 117.039C140.247 118.03 140.639 118.769 141.031 119.693C141.326 120.617 141.474 121.881 141.918 121.999C146.664 123.249 150.367 126.132 153.93 129.281C153.938 129.273 153.916 129.281 153.923 129.421C154.189 129.85 154.448 130.124 154.773 130.552C156.126 133.694 157.841 136.584 158.61 139.704C160.413 147.03 158.432 153.824 154.743 160.218C151.402 164.742 147.403 168.512 142.088 171.166C141.792 171.344 141.725 171.395 141.496 171.432C140.461 171.817 139.589 172.208 138.717 172.585C138.717 172.571 138.687 172.571 138.495 172.571C134.496 172.925 130.689 173.509 126.882 173.524C124.59 173.532 122.291 172.652 119.992 172.171C119.992 172.171 119.918 172.231 119.888 172.075C119.585 171.839 119.304 171.765 119.031 171.684C118.816 171.55 118.609 171.417 118.188 171.129C117.39 170.715 116.806 170.464 116.222 170.205C115.985 169.954 115.741 169.702 115.372 169.421C115.238 169.385 115.261 169.385 115.194 169.244C114.699 168.83 114.27 168.564 113.864 168.135C110.33 164.387 108.001 160.107 106.708 155.102C106.626 154.541 106.523 154.134 106.442 153.52C106.368 151.924 106.264 150.534 106.161 149.144C107.011 145.5 107.861 141.855 108.866 137.959C109.081 137.457 109.14 137.213 109.192 136.969C109.192 136.969 109.199 136.939 109.332 136.828C114.004 128.468 120.864 123.241 130.112 121.526C132.625 121.053 134.562 120.476 135.642 118.096ZM153.502 140.458C151.868 137.9 150.655 134.906 148.526 132.851C138.732 123.404 122.468 125.023 114.159 136.023C107.469 144.879 107.935 157.579 115.202 164.609C122.742 171.905 133.749 172.755 143.47 166.797C152.267 161.393 156.54 150.467 153.502 140.458Z" fill="#0C0C0C"/>
<path d="M144.305 103.319C144.497 103.311 144.594 103.415 144.808 103.518C146.56 104.08 148.105 104.538 149.65 104.997C149.835 105.108 150.02 105.211 150.397 105.418C150.833 105.581 151.069 105.64 151.387 105.825C151.631 106.017 151.801 106.091 152.052 106.305C153.96 107.998 154.632 109.883 153.841 112.212C152.585 114.415 150.352 115.006 148.186 115.006C140.668 114.999 133.143 114.91 125.639 114.511C122.261 114.333 119.016 113.165 116.709 110.341C113.974 106.985 114.765 102.579 118.772 101.071C121.241 100.14 124.168 99.6299 126.756 99.9699C132.581 100.746 138.332 102.165 144.305 103.319ZM136.676 104.235C133.527 103.622 130.4 102.779 127.221 102.476C125.018 102.262 122.646 102.483 120.539 103.126C119.371 103.481 118.011 105.004 117.811 106.187C117.633 107.237 118.646 109.077 119.644 109.61C121.869 110.807 124.398 112.027 126.844 112.13C134.185 112.441 141.555 112.219 148.911 112.197C149.147 112.197 149.436 112.249 149.606 112.138C150.271 111.687 151.202 111.288 151.446 110.645C151.631 110.149 151.077 109.188 150.596 108.678C150.086 108.139 149.31 107.754 148.585 107.54C144.756 106.423 140.905 105.389 136.676 104.235Z" fill="#0C0E0B"/>
<path d="M192.105 160.41C187.669 166.124 178.835 168.985 171.184 167.137C172.958 160.957 174.732 154.777 176.521 148.538C179.885 150.541 180.565 154.578 178.236 157.557C177.904 157.985 177.312 158.289 177.135 158.762C176.824 159.59 176.743 160.506 176.566 161.386C177.542 161.297 178.806 161.578 179.456 161.068C183.973 157.564 184.224 150.852 180.122 146.734C179.375 145.988 178.569 145.307 177.342 144.184C181.881 143.563 185.474 144.472 188.896 146.402C189.702 146.852 190.552 147.23 191.558 147.858C191.905 152.057 192.075 156.049 192.245 160.033C192.245 160.033 192.238 159.989 192.179 160.011C192.068 160.063 191.979 160.107 191.986 160.122C192.008 160.225 192.053 160.314 192.105 160.41Z" fill="#79A33F"/>
<path d="M192.385 159.967C192.067 156.041 191.897 152.057 191.727 147.873C193.442 146.439 193.161 145.16 191.602 144.147C190.101 143.171 188.453 142.439 186.708 141.353C186.131 140.621 185.806 139.955 185.281 139.689C183.448 138.758 181.548 137.967 179.67 137.117C180.41 133.236 180.639 133.044 184.549 133.021C192.001 132.977 196.843 137.412 197.42 144.849C197.856 150.527 196.052 155.494 192.385 159.967Z" fill="#89C060"/>
<path d="M179.575 137.272C181.541 137.959 183.441 138.75 185.274 139.682C185.799 139.948 186.124 140.613 186.553 141.271C184.069 141.064 181.578 140.687 178.895 140.281C179.087 139.357 179.286 138.396 179.575 137.272Z" fill="#79A33F"/>
<path d="M192.171 160.321C192.053 160.321 192.001 160.225 191.972 160.129C191.964 160.114 192.06 160.07 192.186 160.018C192.275 159.996 192.245 160.225 192.171 160.321Z" fill="#89C060"/>
<path d="M91.1758 231.939C91.6415 231.355 92.0481 230.934 92.5138 230.379C93.1791 230.298 93.8001 230.335 94.4063 230.423C96.454 230.734 98.1986 231.569 98.5904 233.802C98.9748 236.02 97.792 237.505 95.663 238.466C94.8498 238.614 94.1919 238.718 93.3714 238.814C89.9339 235.606 89.8008 235.162 91.1758 231.939ZM93.1348 232.405C91.5232 234.475 91.8781 236.67 93.9553 236.87C94.7981 236.951 95.9882 236.493 96.5205 235.857C96.9714 235.317 97.0601 233.721 96.661 233.395C95.833 232.73 94.5689 232.597 93.1348 232.405Z" fill="#5C7991"/>
<path d="M130.267 343.217C133.956 343.734 137.645 344.244 141.141 344.732C139.914 346.743 138.702 348.332 137.926 350.121C137.231 351.733 136.462 352.605 134.57 352.768C131.021 353.071 127.51 353.721 123.644 354.276C125.373 351.962 126.785 350.018 128.286 348.147C128.463 347.926 129.158 348.17 129.587 348.073C130.304 347.911 130.999 347.652 131.709 347.43C131.302 346.758 130.925 346.078 130.489 345.42C130.23 345.035 129.898 344.695 129.838 344.178C130.149 343.756 130.208 343.49 130.267 343.217Z" fill="#514E4B"/>
<path d="M83.6287 344.54C86.9109 345.013 90.0823 345.627 93.3128 346.255C91.5238 348.776 90.0527 350.942 88.4634 353.034C88.1307 353.47 87.421 353.795 86.8592 353.854C82.9043 354.231 78.942 354.527 75.9702 354.771C77.1974 353.174 78.7128 351.141 80.3095 349.182C80.487 348.961 81.1597 349.175 81.5884 349.108C82.3572 348.998 83.1113 348.835 83.8727 348.687C83.5622 347.896 83.2961 347.083 82.9117 346.336C82.7564 346.041 82.3203 345.885 81.8694 345.575C82.5199 345.213 83.0152 344.946 83.6287 344.54Z" fill="#514E4B"/>
<path d="M62.0646 321.195C67.1801 320.98 72.2365 320.685 76.8272 323.338C77.4851 323.716 78.1282 324.107 79.0818 324.677C72.3621 326.185 66.0564 327.604 59.5659 329.001C60.2386 326.436 61.0961 323.886 62.0646 321.195Z" fill="#3D566F"/>
<path d="M72.3106 352.331C70.1964 355.052 67.8382 355.296 63.4619 352.782C64.519 352.102 65.3766 351.6 66.1823 351.023C66.7515 350.616 67.2912 350.158 67.7717 349.655C68.5257 348.85 69.1319 347.356 69.9451 347.245C72.3476 346.92 74.824 347.127 77.2635 347.127C77.3744 347.475 77.4927 347.815 77.6036 348.162C75.8885 349.515 74.1587 350.86 72.3106 352.331Z" fill="#514E4B"/>
<path d="M118.336 346.61C120.487 346.58 122.424 346.58 125.262 346.58C124.264 347.97 123.666 348.887 122.978 349.737C121.973 350.971 120.923 352.161 119.858 353.352C119.578 353.662 119.178 354.113 118.86 354.091C116.731 353.965 114.61 353.729 112.481 353.529C112.414 353.292 112.348 353.049 112.281 352.812C112.814 352.221 113.375 351.637 113.878 351.023C114.506 350.262 115.408 349.552 115.63 348.672C116.007 347.231 116.924 346.854 118.336 346.61Z" fill="#514E4B"/>
<path d="M104.49 327.781C108.341 326.976 112.163 326.325 116 325.785C116.754 325.682 117.574 326.022 118.365 326.162C118.395 326.362 118.424 326.562 118.454 326.761C114.196 328.794 109.938 330.827 105.503 332.867C105.037 331.234 104.748 329.6 104.49 327.781Z" fill="#3D566F"/>
<path d="M114.75 359.177C114.492 357.484 114.965 356.73 116.613 356.974C118.003 357.174 119.445 357.114 120.805 357.417C123.215 357.95 121.862 359.887 122.305 361.683C120.154 361.557 118.217 361.594 116.355 361.247C115.741 361.128 115.29 360.034 114.75 359.177Z" fill="#514E4B"/>
<path d="M72.0594 360.914C71.0466 362.097 66.9882 362.673 65.8719 361.461C65.0662 360.589 65.2806 358.77 64.9849 357.048C67.7053 357.447 69.7603 357.75 72.1185 358.09C72.1185 358.933 72.1185 359.827 72.0594 360.914Z" fill="#514E4B"/>
<path d="M125.721 356.959C126.785 356.944 127.628 356.944 129.166 356.944C128.759 358.637 128.596 360.175 127.939 361.454C127.776 361.772 125.299 361.55 125.1 361.077C124.575 359.82 123.851 358.171 125.721 356.959Z" fill="#474545"/>
<path d="M63.1292 345.996C63.2253 347.002 63.4323 347.866 63.7576 349.19C63.0997 349.759 61.8651 350.831 60.638 351.895C60.4828 351.792 60.3349 351.688 60.1797 351.585C60.5715 349.404 60.5493 347.002 61.5251 345.124C62.0352 344.133 64.2825 344.037 65.7535 343.542C65.8718 343.823 65.9901 344.104 66.101 344.385C65.1474 344.873 64.1938 345.36 63.1292 345.996Z" fill="#474545"/>
<path d="M78.2097 357.898C79.5552 361.365 78.2837 362.895 74.5801 362.193C74.7649 360.855 74.9571 359.51 75.1863 357.854C76.1768 357.854 77.0935 357.854 78.2097 357.898Z" fill="#514E4B"/>
<path d="M132.618 361.077C132.107 359.672 131.79 358.245 131.472 356.826C132.418 356.745 133.763 356.235 134.236 356.663C135.412 357.757 134.406 360.456 132.618 361.077Z" fill="#474545"/>
<path d="M82.5638 357.395C83.3326 357.58 84.4489 357.905 84.4267 357.979C84.1236 359.325 83.7688 360.67 83.207 361.927C83.0961 362.178 82.0759 362.023 80.834 362.089C81.4254 360.308 81.9059 358.866 82.5638 357.395Z" fill="#474545"/>
<path d="M77.877 343.512C77.914 343.904 77.8105 344.407 77.7218 344.407C75.2305 344.37 72.7393 344.326 70.2629 344.163C69.7306 344.126 69.2279 343.638 68.7104 343.357C68.7844 343.084 68.8509 342.81 68.9248 342.544C71.867 342.825 74.8092 343.106 77.877 343.512Z" fill="#474545"/>
<path d="M139.722 358.541C139.101 359.118 138.51 359.495 137.623 360.064C137.342 358.763 136.898 357.839 137.024 356.996C137.135 356.309 137.918 355.725 138.406 355.096C138.857 355.636 139.426 356.116 139.707 356.73C139.922 357.181 139.752 357.802 139.722 358.541Z" fill="#474545"/>
<path d="M86.9181 359.672C86.822 357.669 87.0437 356.176 89.8233 356.737C89.6385 357.928 89.5867 359.073 89.2393 360.123C89.0914 360.567 88.3596 360.988 87.8421 361.055C87.5908 361.091 87.2286 360.293 86.9181 359.672Z" fill="#474545"/>
<path d="M98.3541 299.114C98.1397 298.16 98.2727 297.118 97.9992 296.194C97.5039 294.508 98.2654 294.102 99.8843 294.131C100.224 295.587 100.38 297.036 100.505 298.692C99.8251 298.966 99.1746 299.018 98.3541 299.114Z" fill="#255D5D"/>
<path d="M109.908 358.859C109.775 357.713 109.679 356.76 109.576 355.71C111.69 356.168 111.69 356.168 111.786 360.803C111.172 360.212 110.559 359.628 109.908 358.859Z" fill="#474545"/>
<path d="M62.2865 360.057C61.0076 361.106 60.468 360.36 60.4606 359.273C60.4532 358.083 60.7637 356.893 60.9485 355.569C64.1494 356.449 61.7395 358.556 62.2865 360.057Z" fill="#474545"/>
<path d="M107.876 350.106C108.511 348.354 109.48 347.911 111.542 348.436C110.796 349.456 110.256 350.609 109.362 351.319C108.157 352.287 107.728 351.518 107.876 350.106Z" fill="#474545"/>
<path d="M130.053 343.224C130.208 343.49 130.141 343.756 129.949 344.082C126.985 344.237 124.154 344.274 121.33 344.459C120.221 344.533 119.127 344.917 117.988 344.946C121.736 342.914 125.817 343.268 130.053 343.224Z" fill="#10100C"/>
<path d="M142.139 348.946C142.457 348.214 142.701 347.637 142.938 347.061C144.386 350.557 144.283 350.713 141.075 351.163C141.467 350.336 141.762 349.715 142.139 348.946Z" fill="#474545"/>
<path d="M144.232 354.948C143.884 355.954 143.574 356.774 143.263 357.602C142.931 357.536 142.59 357.462 142.258 357.395C142.302 356.397 142.354 355.392 142.398 354.394C143.027 354.52 143.648 354.645 144.232 354.948Z" fill="#474545"/>
<path d="M94.3994 356.183C93.978 357.381 93.5123 358.401 93.0466 359.428C92.773 359.28 92.5069 359.132 92.2334 358.985C93.054 358.061 91.2354 355.518 94.3994 356.183Z" fill="#474545"/>
<path d="M95.168 351.962C94.3327 352.339 93.5934 352.546 92.8468 352.76C92.7359 352.575 92.625 352.391 92.5142 352.206C93.2386 351.4 93.9631 350.594 94.6875 349.788C94.8797 349.84 95.0645 349.892 95.2567 349.944C95.2567 350.565 95.2567 351.178 95.168 351.962Z" fill="#474545"/>
<path d="M75.4524 365.726C74.2992 365.911 73.0573 365.911 71.771 365.741C72.9316 365.564 74.1439 365.556 75.4524 365.726Z" fill="#91B3B4"/>
<path d="M67.2911 294.708C67.3207 295.151 67.2541 295.684 67.0693 296.334C67.0398 295.898 67.1137 295.351 67.2911 294.708Z" fill="#0B0F0D"/>
<path d="M65.7763 290.701C65.7097 290.509 65.7615 290.228 65.9241 289.836C65.9833 290.028 65.9389 290.317 65.7763 290.701Z" fill="#0B0F0D"/>
<path d="M116.487 345.412C116.546 345.331 116.657 345.323 116.768 345.309C116.687 345.368 116.613 345.427 116.487 345.412Z" fill="#10100C"/>
<path d="M76.0066 164.831C75.6517 162.465 76.7088 160.935 78.5939 159.981C81.3734 158.569 84.1973 158.547 86.7551 160.44C88.4775 161.711 89.4681 163.441 88.6624 165.888C88.4702 166.058 88.3593 166.124 88.0858 166.376C87.6053 166.161 87.1765 165.851 87.0582 165.452C86.0972 162.059 82.6671 160.58 79.6362 162.458C78.5643 163.123 77.8177 164.328 76.9232 165.282C76.6571 165.178 76.3762 165.067 76.0066 164.831Z" fill="#10100C"/>
<path d="M116.229 170.39C116.806 170.464 117.39 170.715 118.055 171.114C117.508 171.026 116.872 170.804 116.229 170.39Z" fill="#99B273"/>
<path d="M119.104 171.824C119.319 171.765 119.592 171.846 119.94 172.053C119.718 172.105 119.445 172.031 119.104 171.824Z" fill="#99B273"/>
<path d="M28.814 141.16C29.0136 141.234 29.2206 141.478 29.4275 141.892C29.228 141.818 29.021 141.574 28.814 141.16Z" fill="#99B273"/>
<path d="M34.0332 93.9969C34.2919 94.0708 34.5285 94.2999 34.6985 94.6178C34.4176 94.5217 34.218 94.3369 34.0332 93.9969Z" fill="#10100C"/>
<path d="M59.7139 104.62C61.3106 104.457 63.1144 104.361 65.1473 104.28C63.5653 104.42 61.7468 104.553 59.7139 104.62Z" fill="#10100C"/>
<path d="M68.666 101.877C68.6808 100.872 68.8213 99.7777 68.9913 98.4693C68.9469 99.4229 68.873 100.598 68.666 101.877Z" fill="#10100C"/>
<path d="M49.7862 88.7482C48.8326 88.8517 47.6793 88.9035 46.3931 88.8296C47.3689 88.7113 48.4777 88.7039 49.7862 88.7482Z" fill="#10100C"/>
<path d="M67.5944 138.595C67.4762 138.041 67.4836 137.39 67.5427 136.555C67.6462 137.072 67.6832 137.782 67.5944 138.595Z" fill="#999F72"/>
<path d="M60.0242 89.8867C59.4032 89.9532 58.6196 89.9089 57.7178 89.7167C58.3461 89.6427 59.1075 89.7093 60.0242 89.8867Z" fill="#10100C"/>
<path d="M54.0811 89.1548C53.6967 89.2509 53.1348 89.2879 52.4917 89.1918C52.9057 89.0735 53.401 89.0809 54.0811 89.1548Z" fill="#10100C"/>
<path d="M68.0749 95.5419C67.9123 95.4753 67.72 95.2683 67.5278 94.9135C67.6979 94.9727 67.8753 95.187 68.0749 95.5419Z" fill="#10100C"/>
<path d="M67.624 103.149C67.624 102.956 67.7497 102.727 68.0158 102.483C68.0232 102.683 67.8828 102.897 67.624 103.149Z" fill="#10100C"/>
<path d="M109.066 137.013C109.147 137.205 109.095 137.449 108.955 137.789C108.888 137.612 108.903 137.338 109.066 137.013Z" fill="#8E5844"/>
<path d="M63.9423 91.757C63.8314 91.8087 63.6318 91.7348 63.3657 91.513C63.4766 91.4465 63.6614 91.5352 63.9423 91.757Z" fill="#10100C"/>
<path d="M68.4222 96.0741C68.3187 96.0889 68.2004 95.978 68.0674 95.7488C68.1635 95.7341 68.2892 95.845 68.4222 96.0741Z" fill="#10100C"/>
<path d="M55.5595 89.2731C55.6556 89.3323 55.5004 89.4357 55.5004 89.4357C55.5004 89.4357 55.3229 89.384 55.286 89.3323C55.249 89.2805 55.4634 89.214 55.5595 89.2731Z" fill="#10100C"/>
<path d="M68.2303 102.461C68.1711 102.35 68.2376 102.188 68.4372 101.981C68.4964 102.099 68.4225 102.254 68.2303 102.461Z" fill="#10100C"/>
<path d="M66.7 103.814C66.6926 103.688 66.833 103.548 67.1361 103.378C67.1509 103.503 67.0031 103.651 66.7 103.814Z" fill="#10100C"/>
<path d="M41.5586 153.402C32.88 147.215 30.6253 138.433 31.0318 128.623C31.2019 124.49 32.3921 120.58 34.7133 117.069C39.2152 110.268 47.3173 108.619 54.0961 113.151C62.5161 118.784 66.5745 130.855 63.5362 141.493C62.9596 143.526 62.2499 145.559 61.2815 147.429C57.2675 155.191 49.4981 157.549 41.5586 153.402Z" fill="#FDFDFD"/>
<path d="M62.7819 93.3907C63.8834 94.263 65.1179 95.0096 66.0641 96.0224C68.0675 98.1736 67.173 101.064 64.3565 101.907C60.6825 103.001 57.245 101.648 53.7484 100.901C52.3808 100.606 51.0206 100.251 49.3795 99.8221C48.9359 99.6447 48.7659 99.5633 48.6033 99.4894C45.2989 98.2401 41.9575 97.1017 38.727 95.6823C37.7586 95.2536 37.1303 94.056 36.3467 93.2059C37.2116 92.5627 38.0765 91.38 38.9488 91.3726C44.1161 91.306 49.2908 91.4465 54.458 91.6683C56.7201 91.7644 58.9748 92.2227 61.503 92.6588C62.1092 92.9841 62.4418 93.1837 62.7819 93.3907Z" fill="#625442"/>
<path d="M41.9429 105.573C42.7856 105.278 43.8501 105.004 45.1068 104.782C44.2493 105.085 43.207 105.344 41.9429 105.573Z" fill="#10100C"/>
<path d="M37.7435 97.767C37.1817 97.6044 36.5755 97.2939 35.9102 96.8282C36.472 96.9908 37.0856 97.3013 37.7435 97.767Z" fill="#10100C"/>
<path d="M41.5286 99.2676C41.2773 99.3563 40.9964 99.3194 40.6489 99.1493C40.8929 99.0532 41.196 99.0976 41.5286 99.2676Z" fill="#10100C"/>
<path d="M62.7524 93.2206C62.4419 93.1911 62.1019 92.9841 61.6953 92.6514C61.991 92.6884 62.3606 92.8732 62.7524 93.2206Z" fill="#10100C"/>
<path d="M63.8242 118.259C64.1199 118.399 64.3786 118.71 64.6522 119.19C64.3713 119.05 64.083 118.747 63.8242 118.259Z" fill="#10100C"/>
<path d="M35.8363 96.5325C35.5776 96.4511 35.3041 96.222 35.001 95.8524C35.2597 95.9411 35.5406 96.1628 35.8363 96.5325Z" fill="#10100C"/>
<path d="M59.9878 111.894C60.2539 111.983 60.52 112.227 60.8157 112.604C60.5496 112.507 60.2687 112.278 59.9878 111.894Z" fill="#10100C"/>
<path d="M56.7422 108.915C56.9714 108.893 57.2375 109.018 57.5554 109.292C57.3336 109.314 57.0527 109.188 56.7422 108.915Z" fill="#10100C"/>
<path d="M39.5479 106.046C39.5479 105.943 39.6883 105.825 39.9692 105.692C39.9692 105.795 39.8288 105.913 39.5479 106.046Z" fill="#10100C"/>
<path d="M37.6777 106.985C37.6555 106.874 37.7886 106.734 38.0473 106.549C38.0621 106.645 37.9438 106.8 37.6777 106.985Z" fill="#10100C"/>
<path d="M61.4663 114.03C61.5994 113.993 61.7694 114.126 61.9986 114.422C61.8729 114.452 61.6881 114.326 61.4663 114.03Z" fill="#10100C"/>
<path d="M36.7902 107.466C36.7754 107.362 36.9011 107.237 37.1525 107.074C37.1672 107.177 37.049 107.311 36.7902 107.466Z" fill="#10100C"/>
<path d="M53.8516 107.096C53.9698 107.03 54.1768 107.104 54.4725 107.333C54.3469 107.407 54.1473 107.318 53.8516 107.096Z" fill="#10100C"/>
<path d="M48.6772 99.6077C48.766 99.5633 48.9286 99.6373 49.1873 99.8221C49.0986 99.859 48.9286 99.7925 48.6772 99.6077Z" fill="#10100C"/>
<path d="M90.5992 176.799C91.4641 176.94 92.1738 177.176 92.8835 177.413C92.5656 178.056 92.4177 178.943 91.9003 179.305C89.483 181.028 86.9843 182.654 84.4709 184.236C82.4602 185.5 80.5382 185.249 78.9932 183.445C77.1672 181.308 75.3635 179.135 73.7446 176.836C73.3675 176.304 73.7667 175.217 73.8111 174.382C74.5725 174.685 75.5631 174.781 76.051 175.328C77.6699 177.124 79.1336 179.061 80.6047 180.991C81.5879 182.284 82.5637 182.21 83.8056 181.331C85.9864 179.8 88.2337 178.374 90.5992 176.799Z" fill="#864C4B"/>
<path d="M153.553 140.643C156.54 150.467 152.274 161.401 143.463 166.805C133.749 172.77 122.734 171.913 115.194 164.616C107.927 157.586 107.469 144.879 114.152 136.03C122.461 125.03 138.724 123.411 148.519 132.859C150.648 134.906 151.86 137.9 153.553 140.643Z" fill="#FDFEFD"/>
<path d="M141.503 171.432C140.816 171.854 139.958 172.268 138.916 172.645C139.596 172.216 140.468 171.824 141.503 171.432Z" fill="#99B273"/>
<path d="M106.708 155.095C106.501 154.799 106.316 154.356 106.279 153.809C106.523 154.127 106.626 154.533 106.708 155.095Z" fill="#9ECA7B"/>
<path d="M115.201 169.237C114.795 169.133 114.329 168.889 113.856 168.468C114.277 168.557 114.706 168.83 115.201 169.237Z" fill="#98C774"/>
<path d="M153.93 129.429C154.211 129.547 154.507 129.813 154.751 130.249C154.448 130.131 154.196 129.85 153.93 129.429Z" fill="#8E5844"/>
<path d="M136.876 104.28C140.912 105.389 144.756 106.431 148.578 107.547C149.31 107.761 150.079 108.146 150.589 108.686C151.069 109.196 151.631 110.157 151.439 110.652C151.202 111.295 150.271 111.687 149.598 112.145C149.428 112.256 149.14 112.204 148.903 112.204C141.548 112.219 134.178 112.441 126.837 112.138C124.39 112.034 121.869 110.815 119.637 109.617C118.639 109.077 117.619 107.237 117.804 106.194C118.003 105.012 119.363 103.489 120.531 103.134C122.638 102.491 125.011 102.276 127.214 102.483C130.4 102.779 133.527 103.622 136.876 104.28Z" fill="#625442"/>
<path d="M93.3126 232.323C94.5693 232.597 95.8334 232.73 96.654 233.395C97.0531 233.721 96.9644 235.317 96.5135 235.857C95.9812 236.493 94.7911 236.951 93.9483 236.87C91.8785 236.67 91.5236 234.475 93.3126 232.323Z" fill="#E8E2DA"/>
</svg>
