<svg width="216" height="365" viewBox="0 0 216 365" fill="none" xmlns="http://www.w3.org/2000/svg">
<path d="M70.814 56.7639L48.6715 74.1514L29.5692 108.567L20.3887 148.831L28.4609 166.241L64.3817 183.321L92.2002 193.026L139.758 190.33L155.662 183.321L167.913 113.786L162.918 77.596L128.084 38.2082L71.8174 39.0918L70.814 56.7639Z" fill="#F0C0A1"/>
<path d="M63.6478 294.521C64.6063 294.131 65.2578 293.675 66.1714 293.809C66.5757 295.494 66.9501 297.464 67.2422 299.006C67.2871 299.186 67.2646 299.568 66.9576 299.65C66.0366 301.028 65.43 302.323 64.4191 304.458C67.4069 304.031 69.5036 303.724 71.6976 303.409C71.8848 304.869 72.0795 306.352 72.3192 308.217C74.4683 307.221 76.1156 306.449 77.8229 305.663C78.2498 307.363 78.5942 308.711 79.0061 310.351C80.646 309.4 81.8965 308.681 83.1545 307.955C83.6563 309.355 84.1355 310.695 84.8618 312.717C86.8687 310.972 88.4487 309.602 90.3207 307.969C91.4739 309.669 92.6271 311.362 94.0199 313.413C95.525 311.272 96.2663 310.216 97.0526 309.1C97.9512 310.051 98.7299 310.875 98.9621 311.122C100.946 310.86 102.302 310.68 103.919 310.471C103.919 310.358 104.039 309.609 103.889 308.928C103.672 307.925 103.253 306.966 103.088 305.686C103.889 302.967 104.518 300.549 105.147 298.13C105.507 298.153 105.874 298.175 106.233 298.205C106.75 300.841 107.266 303.469 107.656 306.412C107.222 308.381 106.915 310.044 106.368 312.972C108.876 311.362 110.299 310.456 111.879 309.445C112.418 310.725 112.957 312.013 113.938 314.357C115.316 312.305 116.282 310.867 117.338 309.302C118.431 311.1 119.195 312.358 120.169 313.968C121.374 312.343 122.153 311.294 122.954 310.216C123.853 311.541 124.632 312.695 125.905 314.582C127.327 312.14 128.376 310.343 129.394 308.584C131.289 309.55 133.205 310.53 135.429 311.669C136.006 309.684 136.425 308.239 136.867 306.741C138.327 307.603 139.518 308.306 141.008 309.183C141.877 306.809 142.581 304.899 143.285 302.638C142.094 297.224 140.903 292.147 139.585 286.763C137.294 286.935 135.13 287.429 132.614 287.811C120.521 289.811 108.719 291.533 96.7755 289.893C89.5719 288.905 82.4357 287.407 75.0373 285.954C74.0414 285.602 72.9407 285.43 72.1619 285.101C72.1544 284.936 72.4539 284.621 72.4764 284.254C72.5288 283.401 72.1694 282.36 72.5513 281.881C96.1989 289.249 119.712 289.601 142.992 281.521C139.525 267.938 136.231 255.043 132.921 242.066C131.199 242.456 129.941 242.74 128.181 243.137C133.827 230.766 139.263 218.845 145.074 206.1C140.162 203.584 135.924 201.413 131.506 198.957C128.203 197.167 125.261 197.077 122.295 199.286C111.145 207.591 98.7973 207.958 87.3629 200.252C84.7945 198.522 82.4506 197.714 79.403 199.556C71.6452 207.051 64.1945 214.562 56.7962 222.013C62.592 227.195 67.4893 231.568 72.072 236.098C65.6996 234.099 59.6342 231.95 53.1944 229.673C52.2883 231.096 51.2774 232.676 50.1317 234.368C49.9894 234.481 49.9146 234.84 49.6674 234.99C49.5252 236.27 49.1957 237.933 49.8097 238.442C56.4742 243.908 63.2884 249.202 70.9114 255.208C71.3831 252.594 71.5778 251.509 71.9223 250.161C72.1619 248.865 72.2518 247.847 72.5213 246.559C72.7085 245.885 72.7235 245.466 72.9182 244.769C72.9706 241.594 76.2729 238.382 72.6561 235.776C73.7943 235.05 75.0149 234.533 75.232 233.747C76.243 230.025 76.9019 226.206 77.8679 222.477C78.13 221.466 79.0136 220.613 79.6126 219.684C80.0095 219.849 80.4064 220.013 80.8107 220.178C80.6385 221.578 80.5486 222.994 80.2791 224.379C76.8794 241.864 73.4349 259.341 70.0877 276.834C69.7956 278.369 70.3947 280.346 70.0727 281.978C68.3729 282.33 66.718 282.308 65.138 282.382C65.0856 280.75 65.1081 279.32 65.46 277.964C67.0026 271.929 68.7024 265.931 70.1925 259.88C70.4396 258.885 70.3423 257.125 69.7208 256.698C64.7636 253.298 59.6417 250.138 53.6062 246.282C50.3638 256.458 47.3162 266.036 44.2385 275.598C44.0214 276.265 43.6245 276.901 43.1902 277.455C40.2773 281.214 40.4869 281.828 45.2195 283.094C44.1786 287.961 44.9124 288.658 49.6749 287.332C51.3298 292.574 51.7417 292.581 55.7029 288.942C56.9834 287.766 59.5593 286.396 60.6675 286.928C63.9474 288.508 64.6213 286.583 65.8044 284.464C67.1149 286.149 68.1258 287.766 69.2265 289.594C69.2116 290.088 69.1142 290.372 68.7548 290.769C67.7139 291.436 66.9277 291.982 65.9093 292.282C63.3483 291.75 59.7914 290.357 58.8929 291.353C54.7519 295.958 51.6967 295.352 46.6871 292.147C43.4148 290.058 41.7449 287.295 39.4461 284.756C36.0165 280.975 38.3977 277.942 40.8314 274.939C41.0036 274.73 40.9886 274.37 41.086 274.093C43.6395 266.53 45.9758 258.885 48.8587 251.449C50.1092 248.229 50.581 245.601 48.387 242.71C45.5564 238.988 45.3992 235.349 48.679 231.583C51.4646 228.378 50.7832 226.633 46.5823 225.412C34.9008 222.02 26.851 214.24 20.7856 204.101C19.0708 201.233 17.6405 198.193 16.083 195.235C15.5738 196.62 15.8359 197.684 16.2178 198.702C20.0667 209.006 24.32 219.182 27.6223 229.658C28.9177 233.762 31.883 238.082 29.0825 242.71C28.109 240.98 27.3677 239.43 26.821 237.82C25.0089 232.444 23.2642 227.045 21.4895 221.646C21.4895 221.646 21.4745 221.683 21.4969 221.339C20.6133 218.823 19.7073 216.651 18.8087 214.487C18.8087 214.487 18.7937 214.525 18.8087 214.195C18.2246 212.585 17.6181 211.297 17.019 210.002C17.019 210.002 17.004 210.039 17.019 209.687C14.6453 203.884 12.2491 198.433 9.85284 192.981C9.85284 192.981 9.83038 193.011 9.86033 192.629C9.67313 190.944 9.5608 189.604 9.20137 188.339C7.14961 181.015 6.04884 173.632 8.04069 165.941C8.51244 164.421 8.69967 163.028 8.90185 161.239C8.33275 155.121 7.74866 149.4 7.16459 143.679C6.67785 138.857 6.18364 134.027 5.46478 128.665C4.97805 127.946 4.85074 127.699 4.58865 127.52C4.58865 127.52 4.686 127.632 4.45387 127.34C3.98212 126.741 3.8623 126.209 3.56278 125.782C3.56278 125.782 3.55528 125.827 3.52532 125.513C2.62674 123.903 1.75063 122.6 0.881999 121.304C0.881999 121.304 0.859549 121.334 0.89699 120.945C-0.608132 112.768 -0.533253 105.175 3.58524 98.0611C3.58524 98.0611 3.54781 98.0462 3.82487 97.9338C5.12781 96.4063 6.15367 94.9835 7.17955 93.5682C8.1605 92.7296 9.13397 91.8909 10.6241 91.1645C11.5077 91.1346 12.1667 91.0522 12.2116 90.8425C13.8665 82.7329 15.4615 74.6082 17.0639 66.491M17.0714 66.4835C17.0714 66.4835 17.0864 66.2888 17.2886 65.9444C18.5316 62.0805 19.5725 58.561 20.6133 55.0416C20.6133 55.0416 20.5759 55.0341 20.838 54.8619C21.5344 53.3118 21.9687 51.9415 22.4105 50.5637C22.4105 50.5637 22.3731 50.5562 22.6052 50.4139C22.9946 49.7699 23.1518 49.2607 23.3091 48.7515C23.3091 48.7515 23.2642 48.7515 23.5038 48.5718C25.0913 45.2321 26.4316 42.0721 27.7795 38.9121C27.7795 38.9121 27.757 38.8896 27.9817 38.8447C28.3636 38.5302 28.5209 38.2756 28.6781 38.0135C28.6781 38.0135 28.6407 38.006 28.8803 37.8712C29.2697 37.2347 29.4194 36.7255 29.5692 36.2238C29.5692 36.2238 29.5392 36.2089 29.7639 36.149C30.1458 35.8345 30.3105 35.5798 30.4678 35.3253C30.4678 35.3253 30.4303 35.3178 30.6625 35.183C31.0519 34.5465 31.2016 34.0448 31.3589 33.5356C31.3589 33.5356 31.3364 33.5206 31.5536 33.4532C31.9355 33.1387 32.0927 32.8841 32.2575 32.6295C32.2575 32.6295 32.22 32.6295 32.4971 32.5172C33.3133 31.5887 33.8524 30.7799 34.3841 29.9637C34.5563 29.8963 34.6911 29.7915 35.0955 29.3123C35.5298 28.4062 35.6795 27.8371 35.8368 27.268C35.8368 27.268 35.8143 27.253 36.0539 27.2081C36.4358 26.9011 36.5856 26.639 36.7279 26.3769C36.7279 26.3769 36.7204 26.3694 37.0349 26.3694C38.6374 24.8867 39.9253 23.3966 41.2058 21.9065C41.2058 21.9065 41.1833 21.8915 41.4305 21.8465C41.8124 21.532 41.9546 21.27 42.0969 21.0079C42.0969 21.0079 42.0894 20.9854 42.374 21.0378C43.0704 20.7683 43.4822 20.4388 43.8866 20.1168C43.8866 20.1168 43.8716 20.0943 44.0962 20.0344C44.4781 19.7199 44.6279 19.4653 44.7851 19.2182C44.7851 19.2182 44.7702 19.2107 45.0547 19.2182C45.7886 18.9486 46.2379 18.6716 46.8818 18.2822C47.3087 17.9827 47.4434 17.7355 47.4809 17.4285C47.4809 17.4285 47.4584 17.4135 47.7804 17.3836C51.4796 15.2869 54.8642 13.2202 58.2414 11.146C58.2414 11.146 58.204 11.1385 58.5559 11.1609C62.5696 9.67827 66.2313 8.17315 69.893 6.66803C69.893 6.66803 69.8555 6.65305 70.215 6.69049C73.3226 6.08395 76.0632 5.44746 79.1783 4.81096C82.4731 4.33172 85.3785 3.71769 88.3139 3.38072C104.623 1.53114 120.872 1.11929 136.792 6.12888C142.873 8.04585 148.908 10.0826 154.966 12.067C154.966 12.067 154.974 12.0296 155.123 12.2991C156.958 13.2951 158.643 14.0214 160.32 14.7478C160.32 14.7478 160.343 14.7253 160.47 15.0024C161.705 15.6988 162.806 16.1181 163.907 16.5374C163.907 16.5374 163.922 16.5075 164.042 16.7995C165.562 17.9153 166.97 18.7464 168.377 19.5776C168.467 19.7573 168.602 19.8996 169.104 20.289C170.279 21.0303 171.126 21.4721 171.972 21.9214C171.972 21.9214 171.994 21.8915 172.107 22.1611C173.028 22.8575 173.844 23.2843 174.652 23.7111C174.652 23.7111 174.675 23.6886 174.795 23.9432C175.431 24.3326 175.94 24.4674 176.45 24.6022C176.45 24.6022 176.457 24.5797 176.442 24.9017C177.625 26.2121 178.831 27.2006 180.029 28.1965C180.029 28.1965 180.051 28.1815 180.111 28.3987C180.426 28.7731 180.68 28.9304 180.935 29.0876C180.935 29.0876 180.95 29.0651 181.01 29.2898C181.324 29.6717 181.579 29.8289 181.834 29.9862C181.834 29.9862 181.849 29.9637 181.909 30.1809C182.223 30.5628 182.47 30.72 182.725 30.8773C182.725 30.8773 182.74 30.8548 182.8 31.0869C183.114 31.4688 183.369 31.6186 183.623 31.7759C183.623 31.7759 183.638 31.7534 183.698 31.9855C184.013 32.3674 184.267 32.5247 184.522 32.6744C184.522 32.6744 184.522 32.6595 184.544 32.9665C185.742 34.5689 186.918 35.8644 188.094 37.1599C188.094 37.1599 188.116 37.1449 188.184 37.362C188.498 37.7364 188.745 37.8937 189 38.0509C189 38.0509 189.007 38.0435 189.007 38.343C189.599 39.3389 190.19 40.0428 190.789 40.7467C190.789 40.7467 190.812 40.7242 190.834 41.0537C192.931 45.0599 194.998 48.7291 197.072 52.4058C197.072 52.4058 197.087 52.3683 197.072 52.7278C200.427 62.9791 202.052 73.133 201.602 83.609C201.565 84.5525 202.134 85.5259 202.426 86.4844C202.426 86.8738 202.434 87.2707 202.104 88.042C201.116 93.2837 200.292 98.136 199.858 103.011C199.558 106.41 199.783 109.855 200.112 113.344C202.014 113.681 203.579 113.951 205.144 114.221C205.144 114.221 205.152 114.191 205.279 114.43C205.916 114.82 206.425 114.969 206.941 115.112C206.941 115.112 206.949 115.082 207.009 115.299C207.323 115.681 207.585 115.846 207.84 116.01C207.84 116.01 207.84 115.973 207.967 116.22C208.604 116.609 209.113 116.759 209.63 116.901C209.63 116.901 209.637 116.871 209.675 117.119C209.982 117.508 210.251 117.65 210.528 117.8C210.528 117.8 210.536 117.77 210.491 118.055C210.768 118.758 211.09 119.17 211.412 119.59C211.412 119.59 211.434 119.567 211.479 119.807C211.794 120.189 212.056 120.338 212.318 120.488C212.318 120.488 212.325 120.458 212.288 120.825C215.381 129.287 214.257 137.06 210.498 144.638C210.498 144.638 210.528 144.653 210.296 144.787C209.914 145.424 209.765 145.933 209.607 146.435C209.607 146.435 209.63 146.442 209.368 146.51C208.843 146.824 208.581 147.079 208.319 147.333C208.155 147.416 208.027 147.535 207.645 148.037C205.114 150.418 202.875 152.455 200.629 154.499C200.629 154.499 200.666 154.514 200.329 154.492C198.368 155.226 195.02 154.612 197.012 158.236C197.132 158.678 197.252 159.127 197.634 159.988C198.218 160.842 198.54 161.276 198.854 161.711C198.854 161.711 198.862 161.666 198.884 161.98C199.783 163.583 200.651 164.878 201.528 166.174C201.528 166.174 201.557 166.151 201.513 166.488C202.389 168.697 203.31 170.577 204.223 172.449C204.223 172.449 204.238 172.419 204.216 172.771C205.698 176.56 207.204 179.997 208.716 183.434C208.716 183.434 208.664 183.643 208.424 184.025C207.743 190.862 207.308 197.324 206.657 204.004C204.5 208.849 202.568 213.476 200.636 218.096C200.636 218.096 200.659 218.119 200.382 218.216C199.685 219.137 199.266 219.954 198.847 220.77C198.847 220.77 198.862 220.792 198.577 220.89C197.574 222.11 196.862 223.233 196.144 224.357C196.144 224.357 196.166 224.387 195.926 224.454C195.455 224.768 195.222 225.016 194.99 225.263C194.781 225.353 194.623 225.495 194.197 226.026C193.148 227.487 192.407 228.602 191.666 229.726C191.666 229.726 191.681 229.748 191.456 229.808C191.082 230.123 190.924 230.377 190.775 230.632C190.775 230.632 190.797 230.647 190.572 230.707C190.19 231.021 190.033 231.276 189.876 231.523C189.876 231.523 189.898 231.53 189.621 231.635C188.925 232.564 188.498 233.38 188.071 234.204C188.071 234.204 188.094 234.226 187.817 234.353C187.113 235.589 186.693 236.697 186.274 237.805C186.274 237.805 186.319 237.813 186.087 237.94C185.698 238.584 185.54 239.093 185.383 239.603C185.383 239.603 185.428 239.603 185.166 239.812C183.122 245.031 182.665 250.004 185.406 254.856C185.406 254.856 185.42 254.818 185.406 255.148C186.282 257.05 187.18 258.63 188.079 260.202C188.079 260.202 188.101 260.21 188.109 260.532C189.599 262.134 191.089 263.422 192.572 264.71C192.572 264.71 192.594 264.688 192.721 264.928C193.365 265.317 193.875 265.467 194.391 265.609C194.391 265.609 194.391 265.564 194.631 265.819C196.473 266.208 198.09 266.507 199.685 266.433C203.003 266.268 206.305 265.901 209.622 265.616C209.622 265.616 209.637 265.571 209.772 265.796C210.416 266.178 210.918 266.343 211.419 266.508C211.419 266.508 211.419 266.47 211.487 266.687C211.801 267.069 212.056 267.234 212.31 267.399C212.31 267.399 212.318 267.361 212.385 267.578C212.707 267.96 212.954 268.125 213.209 268.29C213.209 268.29 213.217 268.252 213.209 268.522C213.501 269.226 213.793 269.645 214.093 270.072C214.093 270.072 214.108 270.042 214.078 270.446C213.516 274.423 212.984 278.002 212.453 281.574C211.247 286.741 207.054 288.972 202.913 291.241C201.767 291.87 200.599 292.447 199.071 293.061C198.427 293.158 198.165 293.248 197.896 293.345C197.896 293.345 197.484 293.33 196.907 293.368C188.348 293.645 180.366 293.764 172.406 294.214C170.085 294.341 167.816 295.397 165.524 296.026C165.524 296.026 165.21 295.988 164.693 296.048C158.006 297.216 151.836 298.325 145.119 299.538C146.048 300.833 146.931 302.069 147.807 303.304C147.538 305.379 147.268 307.445 146.609 309.969C144.078 313.9 145.636 316.746 147.77 319.494C147.77 319.494 147.747 319.823 147.755 320.325C148.069 321.83 148.376 322.834 148.684 323.837C148.684 323.837 148.698 323.807 148.691 324.136C149.882 325.731 151.08 326.989 152.278 328.255C152.278 328.255 152.675 328.292 152.922 328.659C153.79 332.321 154.292 335.646 155.063 338.911C155.782 341.973 156.786 344.969 157.669 347.994C157.37 351.004 157.07 354.014 156.531 357.534C155.842 358.567 155.4 359.091 154.951 359.615C154.951 359.615 154.966 359.638 154.629 359.683C148.444 361.203 142.663 363.427 136.732 363.959C130.352 364.535 123.83 363.517 117.368 363.202C117.368 363.202 117.346 363.232 117.211 362.993C116.582 362.603 116.08 362.453 115.578 362.311C115.578 362.311 115.548 362.334 115.444 362.057C114.515 361.36 113.699 360.933 112.883 360.514C112.883 360.514 112.86 360.544 112.86 360.267C112.568 359.556 112.269 359.121 111.977 358.687C110.741 354.898 108.48 351.446 111.535 347.103C112.77 345.35 111.991 341.876 111.535 339.293C110.314 332.351 108.869 325.439 107.281 318.573C106.929 317.045 105.619 315.735 104.75 314.327C104.174 315.825 103.036 317.352 103.103 318.82C103.507 327.094 104.211 335.354 104.81 344.422C103.897 350.33 102.983 355.43 102.07 360.536C102.07 360.536 102.1 360.559 101.897 360.634C101.433 360.881 101.261 361.121 101.186 361.428C101.186 361.428 101.216 361.435 100.849 361.42C87.9919 365.793 75.4043 366.242 62.7193 362.311C62.7193 362.311 62.6968 362.341 62.5695 362.079C61.641 361.338 60.8398 360.858 60.046 360.379C59.8888 359.93 59.724 359.488 59.2972 358.545C58.7581 355.602 58.481 353.146 58.2114 350.697C58.2114 350.697 58.2264 350.278 58.511 349.918C59.8588 348.136 61.7458 346.766 61.8432 345.283C62.1652 340.244 61.8582 335.167 61.7908 330.105C61.7983 329.715 61.8058 329.318 62.1053 328.442C62.7642 327.192 63.3932 326.443 63.4531 325.657C63.865 320.565 64.3143 315.465 64.3967 310.358C64.4191 308.853 63.3034 307.333 62.7118 305.813C62.0229 303.799 61.334 301.777 60.2857 299.433C59.6417 298.826 59.3496 298.557 59.0651 298.28C58.7805 298.729 58.5035 299.178 58.2189 299.628C56.0773 299.643 53.9282 299.658 51.0378 299.673C48.7464 299.343 47.2038 299.014 45.534 298.497C45.1521 298.175 44.8825 298.04 44.261 297.905C40.0077 296.685 36.1063 295.457 32.2125 294.236C31.4038 293.517 30.5951 292.798 29.8388 291.615C30.4228 290.964 30.962 290.777 31.8082 290.649M117.375 152.657C117.375 152.657 117.45 152.635 117.263 152.073C116.417 150.965 115.571 149.864 114.687 148.232C114.335 147.625 113.983 147.026 113.571 145.723C113.362 140.586 113.804 135.375 113.706 129.616C114.964 127.205 115.563 124.869 117.353 122.24C123.823 113.734 131.625 107.556 142.97 107.541C146.392 107.541 146.063 105.639 144.962 102.696C144.992 98.6003 143.022 97.4022 138.934 97.1775C134.748 96.9454 130.352 95.8222 126.638 93.9277C124.684 92.9317 122.894 89.3599 123.074 87.1134C123.231 85.1665 126.047 83.1073 128.121 81.7594C129.746 80.7036 132.022 80.6586 134.808 79.9697C130.63 74.9377 126.788 70.3175 122.752 65.1207C121.157 63.5631 119.555 61.9981 117.81 59.8864C116.2 58.4562 114.59 57.0335 112.71 55.094C111.632 54.2628 110.546 53.4316 109.228 52.0913C103.68 45.3294 97.1949 46.5201 89.8115 49.8823C86.7114 51.29 83.6113 52.6978 80.0769 54.1505C79.7923 54.3078 79.6501 54.5474 79.0136 54.9517C76.7746 56.2247 74.5357 57.4902 71.6602 58.928C67.347 62.1329 63.0263 65.3378 58.8929 68.4155C63.1611 70.4148 66.9801 71.7028 70.215 73.8669C73.0006 75.7239 74.6704 78.854 73.345 82.4408C72.0271 85.9902 68.7772 86.7914 65.5723 86.2298C60.3156 85.3163 55.0889 84.0583 49.9744 82.5157C47.5483 81.7819 46.2978 82.1488 45.0697 84.7621C44.3958 85.6083 43.7293 86.4545 42.5013 87.5702C41.7899 88.7084 41.071 89.8466 40.5993 90.5954C46.5374 91.187 52.0936 91.7486 57.5525 92.3776C57.5525 92.3776 57.56 92.2578 57.7397 92.8868C58.3462 93.059 58.9453 93.2238 60.1209 93.5008C66.9127 98.4056 69.3014 105.811 71.3083 113.981C71.4281 115.838 71.5479 117.695 71.3831 119.717C71.488 119.964 71.5928 120.204 71.8923 121.155C71.6976 123.738 71.4954 126.321 70.8964 129.399C69.7956 132.042 68.7024 134.693 67.362 137.277C67.362 137.277 67.1224 137.247 66.7854 137.119C66.6955 137.426 66.6057 137.733 66.3286 138.572C64.1496 140.392 61.9705 142.211 59.11 144.121C58.2264 144.301 57.3353 144.48 55.8751 144.615C55.1712 144.84 54.4599 145.057 53.0371 145.454C52.0562 145.394 51.0827 145.334 49.6375 144.907C49.0609 144.877 48.4768 144.847 47.6456 144.915C47.6456 144.915 47.4509 144.727 47.3311 144.42C47.0765 144.458 46.8144 144.503 46.0956 144.653C45.9383 144.69 45.7886 144.72 45.3018 144.428C44.9124 144.181 44.5231 143.934 44.2161 143.327C43.8866 143.297 43.5496 143.267 43.0853 143.23C43.0853 143.23 42.9955 143.132 42.681 142.586C42.1044 142.406 41.5353 142.226 40.3447 142.039C39.7456 141.904 39.1465 141.762 38.3453 141.126C37.5216 140.429 36.7054 139.725 35.687 138.452C34.4814 136.138 33.2833 133.817 32.1526 130.762C31.3364 127.744 30.5202 124.727 29.6965 121.716C29.2771 121.754 28.8578 121.784 28.4385 121.821C28.2063 122.869 27.9817 123.918 27.6971 125.722C27.128 130.837 26.5589 135.951 25.7577 141.792C25.578 142.803 25.3908 143.814 25.226 144.832C23.9456 152.635 28.6407 161.815 35.9266 165.889C36.4808 166.241 37.0424 166.6 38.0608 167.349C39.8205 168.705 48.6565 175.631 50.1018 176.402C77.0891 190.892 105.686 192.989 135.227 187.26C139.473 186.437 143.509 184.52 147.98 182.483C148.099 180.611 148.227 178.739 148.541 176.05C148.541 171.258 148.541 166.458 148.541 161.486C145.254 161.815 142.042 162.137 138.088 162.414C136.238 162.197 134.381 161.98 132.172 161.209C128.765 159.696 125.35 158.184 121.621 156.267C121.12 156.184 120.618 156.109 120.124 155.488C119.906 155.233 119.689 154.971 119.412 154.627C119.412 154.627 119.307 154.597 119.105 154.095C118.821 153.9 118.529 153.713 118.237 153.578M118.244 153.586C118.244 153.586 118.304 153.578 118.162 153.107ZM64.6887 105.4C64.3517 104.965 64.0148 104.538 63.4157 103.565C62.2176 102.898 61.027 102.232 59.7315 100.877C52.7001 94.2796 44.8975 94.5117 37.0948 100.869C36.4583 102.232 35.8218 103.595 35.058 105.587C31.913 112.903 31.7033 120.406 34.0995 127.901C36.331 134.873 40.8164 139.838 48.1698 141.62C56.0848 143.544 64.0597 139.179 65.5124 132.14C65.5124 132.14 65.43 132.237 65.9767 132.357C66.0441 131.998 66.1189 131.638 66.7105 131.219C67.2122 130.44 67.7064 129.654 68.6275 128.276C68.4927 123.716 68.3579 119.155 68.3354 114.423C68.3354 114.423 68.2381 114.243 68.328 113.779C67.9835 112.97 67.639 112.169 67.2122 111.42C67.2122 111.42 67.3096 111.413 67.317 110.806C67.025 110.289 66.733 109.765 66.4784 109.009C66.4784 109.009 66.3361 108.814 66.2462 108.327C65.9991 108.133 65.752 107.938 65.5424 107.811M148.511 128.051C148.444 127.894 148.384 127.744 148.384 126.973C148.234 125.97 148.077 124.966 148.01 123.386C147.942 123.004 147.867 122.63 147.822 121.634C147.755 121.23 147.695 120.825 147.74 119.687C147.029 117.403 147.014 114.071 145.464 113.037C141.053 110.087 128.503 114.588 124.841 119.62C117.817 125.138 114.62 132.372 115.953 141.186C118.139 155.653 136.388 161.224 147.83 157.689C148.624 157.442 149.342 155.668 149.395 154.574C149.552 151.002 149.387 147.423 149.552 143.237C149.327 142.196 149.103 141.163 148.976 139.426C148.938 138.49 148.901 137.554 149.125 136.064C148.901 133.555 148.691 131.054 148.511 128.051ZM147.426 195.213C147.53 193.228 147.643 191.244 147.762 189.095C139.481 190.675 131.775 192.083 124.107 193.685C122.894 193.94 121.861 195.04 120.738 195.744C120.977 196.433 121.217 197.115 121.457 197.804C125.5 192.839 129.581 195.512 133.58 196.808C135.4 197.399 137.062 198.477 139.181 199.795C141.21 201.083 143.24 202.371 145.666 203.914C146.175 200.672 146.572 198.2 147.426 195.213ZM197.671 123.289C197.619 123.379 197.506 123.506 197.536 123.551C197.626 123.723 197.768 123.865 198.113 124.607C200.09 125.745 202.112 126.823 204.036 128.051C205.968 129.287 206.852 130.725 203.662 132.027C201.752 131.061 199.85 130.103 197.626 128.972C196.495 135.966 195.477 142.256 194.481 148.546C194.316 149.572 194.301 150.613 193.972 151.841C194.219 151.946 194.474 152.051 195.387 152.193C198.899 149.662 202.411 147.131 206.372 144.158C209.877 139.239 211.517 133.825 210.633 127.774C209.66 121.14 205.361 117.156 199.004 117.111C198.652 119.095 198.293 121.11 197.671 123.289ZM159.946 249.584C159.624 249.659 159.444 249.861 158.763 250.303C152.997 252.909 147.223 255.515 141.293 258.196C143.659 264.194 146.108 270.094 148.294 276.092C148.953 277.897 148.931 279.964 149.133 281.918C149.41 284.591 148.893 287.707 153.573 285.849C154.906 285.325 157.347 286.404 158.748 287.459C163.338 290.904 164.019 290.769 165.435 285.625C166.835 285.79 168.235 285.954 169.628 286.119C169.538 284.382 169.448 282.652 170.062 281.065C171.253 280.443 172.885 280.084 173.462 279.103C173.806 278.511 172.533 276.939 171.934 275.838C171.47 274.984 170.504 274.19 170.467 273.344C170.145 265.317 165.936 258.81 162.29 251.546C162.005 251.127 161.72 250.707 161.301 249.764C160.994 249.719 160.687 249.682 159.946 249.584ZM100.198 344.512C100.52 340.393 100.879 336.275 101.074 332.149C101.089 331.782 99.9954 331.37 98.8872 330.479C96.0941 330.509 93.2037 330.105 90.5229 330.681C87.4977 331.333 84.7121 332.845 88.6284 336.282C89.0852 336.687 89.3472 337.593 89.3098 338.244C89.1376 341.307 88.8231 344.355 88.6134 346.766C85.8278 348.758 83.0797 350.719 79.4779 353.295C91.1145 353.782 91.1145 353.782 97.6516 346.788C98.2657 346.137 98.8797 345.485 100.198 344.512ZM150.271 343.389C150.346 339.937 150.353 336.477 150.526 333.025C150.653 330.382 149.485 329.176 146.4 328.734C144.782 328.659 143.12 328.307 141.555 328.547C135.265 329.505 134.763 330.674 138.193 335.593C138.357 335.833 138.567 336.095 138.597 336.372C138.994 339.719 139.368 343.067 139.66 345.702C137.354 347.672 135.063 349.626 132.284 352C141.922 353.483 145.202 351.79 150.271 343.389ZM163.136 237.087C161.219 233.44 159.309 229.8 157.512 226.378C151.095 230.954 144.984 235.312 138.185 239.79C137.526 240.741 136.171 241.819 136.313 242.628C137.077 246.776 138.223 250.857 139.57 256.324C147.53 252.28 154.726 248.611 161.93 244.964C165.607 243.099 166.049 240.711 163.136 237.087ZM22.0585 65.54C26.3268 59.834 30.1533 53.7237 34.9457 48.4895C47.4809 34.8011 63.6329 27.3953 81.5296 23.786C89.9388 22.0937 98.5577 21.3074 107.109 20.4612C111.827 19.997 112.044 16.8744 112.77 12.2467C102.437 12.988 92.5372 12.8233 82.9823 14.5606C65.2728 17.7805 50.274 26.8936 36.668 38.4628C28.1614 45.6964 22.725 54.5399 21.0626 65.9818C21.0776 66.3038 21.1001 66.6258 21.115 66.9403C21.2648 66.5884 21.3996 66.2214 22.0585 65.54ZM76.842 198.313C80.4962 196.95 83.7311 193.116 88.224 196.426C88.4861 196.62 89.5494 195.729 90.2458 195.34C89.789 194.651 89.4596 193.535 88.853 193.356C86.8836 192.764 84.8169 192.435 82.7651 192.142C69.1741 190.196 56.6239 185.291 44.9499 178.274C39.1765 174.8 33.9123 170.472 28.416 166.533C28.0341 166.615 27.6522 166.698 27.2703 166.78C27.7046 168.652 28.139 170.524 28.6032 173.108C32.879 191.761 42.6136 207.336 55.3435 220.845C62.3599 213.304 69.2864 205.853 76.842 198.313ZM187.457 176.979C182.006 192.397 173.724 206.198 163.121 218.561C159.856 222.372 158.875 225.457 162.342 229.621C164.109 231.74 164.746 234.765 166.303 237.101C168.737 240.763 167.958 244.32 166.895 248.132C166.43 249.809 166.43 251.943 167.059 253.538C170.175 261.483 173.604 269.301 176.802 277.216C177.198 278.204 177.281 279.732 176.779 280.593C174.825 283.947 172.578 287.137 169.755 291.428C179.011 290.874 187.652 290.53 196.256 289.773C201.79 289.287 205.968 285.932 209.031 281.574C211.277 278.384 212.782 274.512 210.319 270.701C207.9 266.964 204.306 268.477 200.996 269.241C195.245 270.566 189.621 268.41 186.229 263.572C178.988 253.238 178.793 241.886 185.877 231.508C187.966 228.453 190.467 225.682 192.841 222.829C200.187 214 204.538 204.049 205.257 192.435C205.751 184.467 202.651 177.615 199.483 170.052C197.319 166.114 195.163 162.175 192.999 158.236C192.609 158.386 192.212 158.543 191.823 158.693C190.58 164.736 189.337 170.771 187.457 176.979ZM148.406 229.029C149.335 228.288 150.301 227.592 151.177 226.79C165.157 214.083 173.701 198.021 179.28 180.296C184.627 163.291 187.128 145.813 186.327 127.954C185.735 114.752 182.852 102.06 177.378 89.9964C169.688 73.0357 158.673 58.4562 144.258 46.7971C135.16 39.4437 125.036 33.3484 115.339 26.7438C112.725 24.9616 110.786 25.0889 109.745 28.6907C108.592 32.6894 107.117 36.6132 105.537 40.4696C104.496 43.0081 105.132 44.4758 107.296 46.1007C118.851 54.7346 128.728 65.2105 136.605 77.1317C154.217 103.797 160.987 133.42 157.482 165.155C155.348 184.482 150.121 203.09 142.319 220.935C140.08 226.049 137.728 231.111 135.429 236.195C135.714 236.502 135.991 236.809 136.276 237.116C140.147 234.541 144.011 231.965 148.406 229.029ZM23.2642 133.435C25.6079 124.382 27.143 115.029 30.4303 106.328C42.3066 74.8852 63.7602 53.3268 96.768 44.2811C98.1533 43.8992 100.16 43.3451 100.58 42.3342C102.893 36.778 104.803 31.0495 107.124 24.6321C103.912 24.6321 101.665 24.3326 99.5237 24.6846C91.3316 26.0324 82.9973 26.9535 75.0373 29.185C52.6552 35.4526 35.4773 48.4445 24.4922 69.3814C13.5969 90.1386 10.9835 112.671 10.04 135.457C9.6881 143.964 11.2981 152.612 12.5186 161.119C15.5588 182.266 24.4323 200.619 39.9852 215.438C43.5646 218.853 47.8927 221.481 51.8764 224.469C52.146 224.132 52.4156 223.802 52.6777 223.466C52.3931 222.979 52.191 222.417 51.8165 222.005C37.5216 206.228 27.0756 188.279 24.0205 167.065C22.4704 156.304 23.3989 145.184 23.2642 133.435ZM84.8618 328.51C89.9239 327.813 94.9784 327.109 100.228 326.39C100.228 323.665 100.317 320.4 100.16 317.15C100.123 316.326 99.1418 314.806 98.8422 314.859C95.5849 315.503 92.4848 315.675 89.7591 313.331C86.2921 316.491 82.8325 314.252 79.5003 313.159C75.569 311.871 71.765 310.179 67.6241 308.554C67.0325 313.968 66.411 319.711 65.7445 325.859C68.5975 326.256 71.0087 326.608 73.4199 326.915C76.9918 327.364 80.5711 327.776 84.8618 328.51ZM132.284 11.8349C160.807 18.9486 181.287 36.3436 195.754 61.6911C195.754 59.4521 195.41 57.5127 194.698 55.7006C190.265 44.3635 183.219 35.0332 173.642 27.4327C158.905 15.7437 141.787 9.75315 123.733 5.94167C122.37 5.65712 120.663 7.01997 119.113 7.61902C119.24 8.19561 119.367 8.76471 119.495 9.3413C123.523 10.0901 127.552 10.8389 132.284 11.8349ZM143.756 319.307C143.352 317.727 142.783 316.162 142.588 314.552C142.244 311.759 140.536 311.055 138.687 312.62C135.115 315.637 130.495 314.237 126.376 316.154C121.966 318.213 115.616 316.109 109.73 315.802C110.269 318.917 110.883 322.474 111.557 326.42C123.059 325.17 134.164 328.854 145.172 324.586C144.805 323.118 144.408 321.561 143.756 319.307ZM110.247 9.37874C112.523 9.49107 115.616 11.0187 115.294 6.54073C96.6258 -2.45257 39.8729 17.3012 36.1513 33.1237C44.4332 28.1366 52.9622 22.0637 62.27 17.6157C77.0891 10.5319 92.9116 7.32698 110.247 9.37874ZM99.1118 194.037C97.5243 194.037 95.9443 194.037 94.4242 194.037C94.2445 196.373 94.0948 198.35 93.9375 200.409C98.9321 203.861 104.75 203.165 110.157 202.626C116.484 201.997 117.795 199.683 116.829 194.082C111.228 194.089 105.597 194.089 99.1118 194.037ZM64.172 83.6015C66.3586 82.7179 68.6949 82.0664 70.6044 80.771C71.0312 80.4864 70.3647 77.596 69.4736 76.5177C63.7003 69.5387 53.1719 71.2685 49.5926 80.0596C54.2427 81.2128 58.8405 82.3584 64.172 83.6015ZM127.29 91.2843C131.79 94.1448 136.643 94.976 142.371 94.1448C141.12 91.6962 140.14 89.7268 139.114 87.7799C138.702 86.9936 138.26 86.2074 137.728 85.5035C135.999 83.2046 130.674 82.8976 127.574 84.852C124.901 86.5368 124.998 88.5512 127.29 91.2843ZM5.3225 102.18C1.99027 109.361 2.5893 116.227 6.85007 123.91C8.01074 114.588 9.03662 106.388 10.0625 98.1884C9.56828 98.0611 9.06658 97.9264 8.57237 97.7991C7.60639 99.0571 6.64042 100.315 5.3225 102.18ZM158.433 294.416C159.249 292.626 156.913 289.616 154.27 289.841C149.155 290.282 146.078 288.448 145.449 282.749C141.383 285.962 144.213 289.152 144.625 292.005C144.797 293.173 146.482 294.925 147.575 295.007C150.96 295.247 154.389 294.805 158.433 294.416ZM152.293 148.666C152.293 155.945 152.293 163.223 152.293 170.509C155.46 154.717 155.236 138.991 152.293 125.101C152.293 131.488 152.293 139.628 152.293 148.666ZM80.8931 346.054C74.7902 344.624 72.5887 345.747 68.7398 352.262C73.8542 354.389 78.3247 352.367 80.8931 346.054ZM121.898 349.297C121.314 350.075 120.73 350.847 120.086 351.7C126.466 354.097 130.495 351.91 132.015 345.538C125.171 344.594 124.841 344.706 121.898 349.297ZM69.6983 333.946C69.6309 332.613 70.0278 330.921 69.3538 330.067C68.8222 329.393 66.6806 329.251 65.8269 329.79C65.1679 330.209 65.3252 332.029 65.2503 333.235C65.1829 334.26 65.0182 335.429 65.4151 336.297C65.9692 337.503 67.01 338.491 67.8412 339.57C68.2156 339.3 68.59 339.03 68.9645 338.768C66.396 337.084 66.5982 335.653 69.6983 333.946ZM125.53 361.016C126.968 360.709 128.465 360.544 129.783 359.96C130.038 359.848 129.783 357.332 129.394 357.227C127.155 356.598 124.804 356.358 122.49 355.991C122.235 356.47 121.988 356.957 121.734 357.436C122.774 358.567 123.808 359.69 125.53 361.016ZM11.7473 186.871C12.6085 189.02 13.4621 191.162 14.3233 193.311C14.5928 193.221 14.8549 193.131 15.1245 193.034C13.522 185.912 11.9121 178.799 10.3096 171.677C9.95017 171.737 9.59074 171.805 9.2388 171.865C10.0101 176.635 10.7889 181.404 11.7473 186.871ZM82.4581 331.392C77.3811 327.925 74.7004 328.435 73.697 333.661C75.921 333.661 78.085 333.826 80.1967 333.587C81.1178 333.482 81.9414 332.553 82.4581 331.392ZM69.9529 357.084C69.9903 358.38 69.6983 360.649 70.1251 360.799C71.7351 361.345 73.6895 361.6 75.2845 361.143C76.1157 360.903 76.4526 358.956 77.2988 357.174C74.4832 357.047 72.5812 356.957 69.9529 357.084ZM130.532 330.906C128.069 330.322 125.62 329.603 123.126 329.273C122.587 329.206 121.719 330.471 121.299 331.28C121.172 331.535 122.063 332.778 122.415 332.748C125.186 332.486 127.934 332.036 130.532 330.906ZM116.342 329.618C111.782 329.228 111.782 329.228 114.2 337.316C114.103 334.485 121.112 334.485 116.342 329.618ZM64.7711 350.375C66.2837 347.941 67.7963 345.508 69.3838 342.954C67.976 342.4 66.8303 341.951 65.3626 341.382C64.9358 344.549 64.5539 347.402 64.7711 350.375ZM117.697 346.144C118.192 344.879 118.686 343.606 119.218 342.235C118.049 342.235 116.544 342.235 114.785 342.235C114.994 344.939 115.204 347.574 115.414 350.21C115.646 350.33 115.87 350.442 116.102 350.562C116.739 349.282 117.375 348.001 117.697 346.144ZM81.1103 357.062C80.8557 358.672 80.6011 360.274 80.3465 361.884C81.3199 361.48 82.7352 361.338 83.177 360.604C84.0531 359.159 85.1314 357.092 81.1103 357.062ZM133.041 358.005C133.909 359.031 134.785 360.057 135.654 361.076C136.111 359.818 136.56 358.56 137.017 357.302C135.654 357.317 134.291 357.332 133.041 358.005ZM30.2656 117.837C30.0709 117.882 29.8762 117.92 29.6815 117.965C29.7489 118.219 29.8238 118.474 29.8912 118.736C30.0409 118.556 30.1907 118.377 30.2656 117.837ZM143.749 273.936C143.689 273.876 143.622 273.816 143.749 273.936ZM196.398 64.1547C196.54 64.1098 196.69 64.0574 196.832 64.0124C196.69 63.96 196.54 63.9151 196.398 64.1547ZM33.3657 214.652C33.478 214.547 33.5828 214.442 33.6952 214.345C33.5828 214.36 33.4705 214.375 33.3657 214.652ZM27.0981 164.197C27.1954 164.324 27.2853 164.459 27.3826 164.586C27.3677 164.406 27.3452 164.227 27.0981 164.197Z" fill="#0B0A0B"/>
<path d="M9.87598 193.041C12.2722 198.148 14.6684 203.599 17.0646 209.395C14.6684 204.296 12.2722 198.844 9.87598 193.041Z" fill="#333D3C"/>
<path d="M197.109 51.7468C195.02 48.4295 192.953 44.7529 190.842 40.7617C192.909 44.0939 195.013 47.7481 197.109 51.7468Z" fill="#333D3C"/>
<path d="M18.8232 214.555C19.7443 216.374 20.6503 218.538 21.5489 221.054C20.6354 219.235 19.7218 217.071 18.8232 214.555Z" fill="#333D3C"/>
<path d="M188.146 36.5383C186.948 35.5724 185.772 34.2769 184.567 32.6894C185.75 33.6554 186.956 34.9359 188.146 36.5383Z" fill="#333D3C"/>
<path d="M180.044 27.6049C178.861 26.9235 177.663 25.9351 176.472 24.6396C177.663 25.3136 178.846 26.302 180.044 27.6049Z" fill="#333D3C"/>
<path d="M160.312 14.1487C158.665 13.7443 156.98 13.018 155.138 12.0296C156.741 12.4564 158.508 13.1453 160.312 14.1487Z" fill="#333D3C"/>
<path d="M0.919434 121.349C1.79555 122.315 2.67166 123.618 3.58522 125.221C2.73157 124.247 1.8255 122.967 0.919434 121.349Z" fill="#0B0A0B"/>
<path d="M168.393 18.9486C167 18.4694 165.592 17.6457 164.064 16.5374C165.42 17.0391 166.902 17.8179 168.393 18.9486Z" fill="#333D3C"/>
<path d="M17.0415 210.054C17.6555 211.005 18.2546 212.301 18.8611 213.903C18.2471 212.945 17.6406 211.672 17.0415 210.054Z" fill="#333D3C"/>
<path d="M163.817 15.9758C162.836 15.841 161.735 15.4292 160.492 14.7403C161.466 14.8751 162.581 15.2794 163.817 15.9758Z" fill="#333D3C"/>
<path d="M190.827 40.1327C190.221 39.7508 189.622 39.0469 189.022 38.0584C189.629 38.4478 190.236 39.1292 190.827 40.1327Z" fill="#333D3C"/>
<path d="M60.106 360.417C60.8772 360.566 61.6785 361.046 62.607 361.772C61.8732 361.6 61.0045 361.166 60.106 360.417Z" fill="#27332A"/>
<path d="M171.964 21.3149C171.156 21.1951 170.309 20.7458 169.269 20.0719C170.025 20.2216 170.976 20.6035 171.964 21.3149Z" fill="#333D3C"/>
<path d="M174.652 23.1195C173.873 23.0072 173.065 22.5729 172.121 21.8915C172.87 22.0188 173.746 22.4157 174.652 23.1195Z" fill="#333D3C"/>
<path d="M58.2112 299.62C58.1962 299.171 58.8103 298.437 59.0948 297.988C59.3794 298.257 59.6714 298.534 59.9934 299.059C59.634 299.328 58.9076 299.62 58.2112 299.62Z" fill="#080A0A"/>
<path d="M155.265 359.308C155.422 358.814 155.864 358.29 156.546 357.646C156.381 358.118 155.969 358.702 155.265 359.308Z" fill="#27332A"/>
<path d="M3.61523 125.775C3.90727 125.925 4.20679 126.351 4.5138 127.048C4.22176 126.898 3.92225 126.471 3.61523 125.775Z" fill="#0B0A0B"/>
<path d="M176.344 24.093C175.977 24.1828 175.468 24.0481 174.824 23.6662C175.191 23.5688 175.693 23.7186 176.344 24.093Z" fill="#333D3C"/>
<path d="M184.47 32.1727C184.297 32.2251 184.043 32.0754 183.721 31.701C183.893 31.6411 184.14 31.8058 184.47 32.1727Z" fill="#333D3C"/>
<path d="M101.418 361.038C101.291 360.828 101.463 360.589 101.92 360.327C102.04 360.529 101.867 360.761 101.418 361.038Z" fill="#27332A"/>
<path d="M188.947 37.5418C188.783 37.5942 188.528 37.4369 188.206 37.07C188.371 37.0176 188.618 37.1748 188.947 37.5418Z" fill="#333D3C"/>
<path d="M183.571 31.2741C183.398 31.3341 183.144 31.1768 182.822 30.8024C183.001 30.7425 183.249 30.9072 183.571 31.2741Z" fill="#333D3C"/>
<path d="M182.672 30.3831C182.508 30.4355 182.253 30.2782 181.931 29.9038C182.096 29.8439 182.343 30.0087 182.672 30.3831Z" fill="#333D3C"/>
<path d="M180.883 28.5934C180.718 28.6458 180.463 28.4886 180.134 28.1141C180.306 28.0542 180.553 28.219 180.883 28.5934Z" fill="#333D3C"/>
<path d="M181.782 29.492C181.617 29.5444 181.362 29.3871 181.033 29.0127C181.205 28.9528 181.452 29.1176 181.782 29.492Z" fill="#333D3C"/>
<path d="M195.283 224.903C195.26 224.724 195.492 224.476 195.964 224.147C195.987 224.319 195.762 224.581 195.283 224.903Z" fill="#0B0A0B"/>
<path d="M208.626 146.981C208.603 146.779 208.865 146.525 209.39 146.195C209.397 146.39 209.15 146.659 208.626 146.981Z" fill="#0B0A0B"/>
<path d="M198.165 293.068C198.18 292.978 198.45 292.888 198.817 292.933C198.749 293.068 198.584 293.068 198.165 293.068Z" fill="#333D3C"/>
<path d="M4.59619 127.52C4.76093 127.482 5.01551 127.669 5.35248 128.081C5.18025 128.119 4.93316 127.924 4.59619 127.52Z" fill="#0B0A0B"/>
<path d="M148.571 229.314C144.438 232.069 140.2 234.788 136.336 237.371C136.051 237.064 135.542 236.398 135.257 236.091C137.556 231.006 140.125 225.772 142.356 220.657C150.159 202.813 155.386 184.198 157.52 164.878C161.032 133.143 154.255 103.52 136.643 76.8546C127.672 65.6523 118.858 54.7421 107.304 46.1082C105.14 44.4908 104.541 42.731 105.574 40.1926C107.154 36.3361 108.63 32.4124 109.783 28.4137C110.824 24.8119 112.763 24.6846 115.376 26.4667C125.074 33.0713 135.198 39.1667 144.296 46.5201C158.71 58.1717 169.725 72.7511 177.416 89.7193C182.89 101.783 185.773 114.483 186.364 127.677C187.165 145.536 184.664 163.021 179.318 180.019C173.739 197.744 165.517 214.045 151.537 226.753C150.661 227.547 149.762 228.393 148.571 229.314Z" fill="#2B2A2D"/>
<path d="M131.738 199.301C135.976 201.473 140.214 203.644 145.127 206.16C139.308 218.905 133.872 230.826 128.233 243.197C129.993 242.8 131.259 242.515 132.973 242.126C136.283 255.103 139.585 268.514 143.052 282.098C119.772 290.178 96.6482 289.871 72.8134 282.293C71.5704 281.933 70.8665 281.791 70.1626 281.649C70.1401 280.054 69.8406 278.406 70.1326 276.871C73.4798 259.379 76.9244 241.901 80.324 224.417C80.5936 223.039 80.6835 221.616 80.8557 220.216C80.4588 220.051 80.062 219.886 79.6576 219.721C79.0585 220.65 78.1749 221.504 77.9129 222.515C76.9469 226.251 76.2879 230.07 75.277 233.784C75.0598 234.571 73.5023 235.873 72.3866 236.622C72.0421 236.293 72.1245 236.143 72.1245 236.143C67.2272 231.762 62.6445 227.24 56.8486 222.058C64.2469 214.607 71.6977 207.096 79.5153 199.893C81.7543 202.057 83.3418 204.401 85.5508 205.704C98.9097 213.581 121.202 211.282 131.738 199.301Z" fill="#DCB1D3"/>
<path d="M23.2714 133.548C23.4362 144.9 22.5076 156.02 24.0577 166.788C27.1129 188.009 37.5589 205.951 51.8538 221.728C52.2282 222.14 53.0294 222.926 53.314 223.413C53.0444 223.75 52.1982 224.581 51.9287 224.918C47.9449 221.93 43.5943 218.576 40.015 215.161C24.4695 200.342 13.4694 182.318 12.5484 160.842C11.3278 152.335 9.22362 144.226 10.0698 135.18C11.0133 112.393 13.6267 89.8616 24.5219 69.1044C35.5071 48.1675 52.685 35.1755 75.0671 28.9079C83.027 26.6764 91.3614 25.7554 99.5534 24.4075C101.695 24.0555 104.803 23.7111 108.015 23.7111C105.694 30.1285 103.32 37.2048 101.006 42.761C100.587 43.7719 97.7188 44.985 96.3335 45.3669C63.3256 54.4126 43.8564 75.8288 30.4601 106.051C26.701 114.543 27.0979 127.048 23.2714 133.548Z" fill="#2A2A2C"/>
<path d="M199.791 170.337C202.688 177.338 205.781 184.183 205.294 192.157C204.575 203.772 201.183 213.978 193.837 222.807C191.464 225.66 189.637 229.029 187.547 232.084C180.464 242.463 179.026 252.954 186.267 263.288C189.659 268.125 195.283 270.282 201.034 268.956C204.343 268.192 207.938 266.68 210.356 270.416C212.82 274.228 212.131 278.811 209.885 282.001C206.822 286.359 202.119 289.781 196.586 290.267C187.982 291.024 178.524 291.106 169.269 291.66C172.092 287.362 174.862 283.663 176.817 280.308C177.318 279.455 176.675 278.227 176.278 277.238C173.08 269.323 169.823 261.281 166.708 253.336C166.079 251.741 166.468 249.524 166.932 247.854C167.996 244.043 168.333 240.756 165.899 237.087C164.342 234.743 163.705 231.935 161.945 229.815C158.478 225.645 159.901 222.088 163.166 218.276C173.769 205.913 181.527 192.255 187.465 176.979C188.611 176.986 189.899 176.882 190.423 176.545C193.568 174.523 196.675 172.419 199.791 170.337Z" fill="#2A2A2C"/>
<path d="M189 154.185C189.322 146.158 189.883 138.13 189.928 130.096C190.063 106.44 181.998 85.5634 168.212 66.5958C154.809 48.1525 137.331 34.5914 117.697 23.479C116.439 22.7676 114.709 20.4837 115.031 19.8098C116.17 17.421 115.713 12.7784 120.019 13.617C128.278 15.227 136.747 16.6348 144.535 19.6675C172.271 30.4729 189.194 51.5521 198.008 79.3257C199.573 84.253 198.375 90.2135 197.806 95.6275C196.271 110.237 194.458 124.824 192.601 139.396C191.927 144.69 190.827 149.932 189.703 155.413C189.322 155.151 189.157 154.664 189 154.185Z" fill="#2A2A2C"/>
<path d="M31.831 290.357C30.7527 289.489 29.9814 288.68 28.963 287.736C26.417 285.812 24.3653 283.274 21.7594 282.382C13.8519 279.687 16.7947 276.699 14.0765 268.597C12.4516 263.759 11.9049 264.658 9.93555 256.234C10.7293 255.852 11.2385 254.871 12.0173 253.83C12.5939 253.516 13.0431 253.538 13.8219 253.92C16.1507 256.863 18.2474 259.184 21.9541 257.2C22.1488 257.14 22.351 257.117 23.0848 257.207C29.899 256.451 32.3252 250.745 29.5396 243.347C29.4872 243.174 29.4647 242.995 29.4422 242.695C31.9059 237.79 28.6036 233.537 27.3081 229.434C24.0058 218.958 19.79 209.785 15.9336 199.481C15.5517 198.463 15.6041 196.328 16.1133 194.943C17.6708 197.901 19.1011 200.941 20.8159 203.809C26.8888 213.948 34.9311 221.736 46.6126 225.12C50.8135 226.341 52.0191 228.018 48.7093 231.291C45.4295 235.057 45.5867 238.696 48.4173 242.418C50.6113 245.301 50.1395 247.937 48.889 251.157C46.0061 258.593 43.6698 266.238 41.1163 273.801C41.019 274.086 41.0339 274.437 40.8617 274.647C38.428 277.65 36.0468 280.683 39.4764 284.464C41.7753 287.003 43.4451 289.758 46.7175 291.855C51.727 295.06 54.7822 295.666 58.9232 291.061C59.8217 290.065 63.3711 291.451 65.9471 292.244C66.1792 293.091 66.1717 293.442 66.1567 293.787C65.4079 293.974 64.6591 294.161 63.4236 294.573C62.5624 294.82 62.188 294.843 61.8136 294.873C56.0702 294.918 50.2444 295.547 44.5983 294.805C40.3375 294.266 36.2864 291.952 31.831 290.357Z" fill="#2A2A2B"/>
<path d="M75.3148 285.857C82.481 287.122 89.6172 288.613 96.8208 289.609C108.764 291.256 120.566 289.526 133.034 287.542C135.07 289.129 136.373 290.604 138.021 292.454C138.702 290.238 139.226 288.515 139.75 286.8C140.941 291.87 142.132 296.939 142.925 302.398C140.904 302.818 139.271 302.758 137.661 302.915C127.709 303.859 117.541 305.004 107.596 305.978C107.08 303.342 106.75 300.841 106.233 298.205C105.874 298.183 105.507 298.16 105.148 298.13C104.519 300.549 104.272 302.975 103.088 305.686C90.9051 303.844 78.8342 301.62 67.2051 299.485C67.2051 299.485 67.3174 298.909 67.4821 298.445C68.1111 295.442 68.5829 292.911 69.0547 290.372C69.152 290.088 69.2493 289.811 69.474 289.054C70.5673 287.167 71.2113 286.523 72.1772 285.108" fill="#5271B6"/>
<path d="M77.2689 198.395C70.3424 205.846 62.4423 213.619 55.4334 221.159C42.7035 207.643 32.924 191.476 28.9028 172.598C30.4529 173.602 31.7184 174.845 33.0363 176.043C45.4442 187.305 60.9522 194.786 77.2689 198.395Z" fill="#2B2A2D"/>
<path d="M65.8497 284.18C64.9661 286.366 63.9927 288.223 60.7128 286.643C59.6046 286.112 57.0287 287.474 55.7482 288.658C51.7869 292.297 51.3676 292.289 49.7202 287.048C44.9502 288.373 44.2164 287.677 45.2647 282.809C40.5322 281.544 40.315 280.93 43.2354 277.171C43.6697 276.609 44.0666 275.973 44.2838 275.314C47.3614 265.751 50.4091 256.174 53.6515 245.997C59.6869 249.846 64.8089 253.014 69.7735 256.413C70.3875 256.833 70.4924 258.6 70.2453 259.596C68.7551 265.646 67.0628 271.644 65.5127 277.68C65.1683 279.028 65.1458 280.465 65.1608 282.397C65.4079 283.318 65.7748 283.783 65.8497 284.18Z" fill="#ECBEA0"/>
<path d="M59.0131 119.814C57.4855 120.908 53.7114 120.368 51.0606 120.833C49.6004 125.348 50.8659 121.686 54.1757 125.775C59.8218 125.505 62.0158 127.609 68.2085 127.385C68.0438 128.246 66.2017 137.03 58.3616 140.422C53.9586 142.324 49.7203 141.642 48.2151 141.328C47.339 141.148 44.1116 140.392 40.8618 137.838C37.6943 135.345 35.5002 131.848 34.1449 127.602C31.7487 120.106 31.6588 112.618 35.0959 104.8C35.7848 102.891 36.7507 101.416 37.3498 100.397C44.808 93.3661 52.8728 93.7255 59.7769 100.577C59.6421 100.832 63.813 103.31 63.461 103.265C60.9001 104.127 65.4754 116.617 63.3188 117.53" fill="#F7F5F5"/>
<path d="M20.3891 64.8586C21.707 53.6563 28.2067 45.4193 36.7133 38.1857C50.3193 26.6165 65.3181 17.5034 83.0276 14.2835C92.5825 12.5462 102.474 12.7035 112.816 11.9696C112.082 16.5973 111.88 20.7233 107.162 21.1951C98.603 22.0412 89.9317 22.8275 81.515 24.5198C63.6183 28.1216 48.0429 35.7221 35.5077 49.4105C30.7153 54.6372 24.9494 62.4399 20.3891 68.2807C20.097 68.4005 20.3891 64.8586 20.3891 64.8586Z" fill="#2A2A2B"/>
<path d="M149.417 154.29C149.365 155.383 148.646 157.165 147.852 157.405C136.418 160.932 118.162 155.368 115.975 140.901C114.642 132.08 119.742 122.285 127.073 117.111L130.899 114.707L137.069 112.408L141.735 111.802L143.771 112.034L145.486 112.738L146.325 113.756L146.886 115.381L147.508 118.407L147.77 119.395L147.867 121.634L148.444 127.34L149.125 135.517L148.968 137.876L148.998 139.134L149.575 142.945C149.575 142.945 149.575 150.718 149.417 154.29Z" fill="#F6F6F5"/>
<path d="M165.428 285.625C164.319 291.136 163.331 290.904 158.741 287.459C157.34 286.411 154.824 285.497 153.492 286.022C148.804 287.879 149.44 284.307 149.163 281.634C148.961 279.679 148.669 277.582 148.01 275.778C145.824 269.78 143.69 263.909 141.323 257.911C147.261 255.23 153.462 252.13 159.512 249.794C158.261 253.59 155.573 256.586 157.093 260.39C157.64 261.76 158.194 263.13 158.643 264.531C160.83 271.337 163.256 278.811 165.428 285.625Z" fill="#EBBD9F"/>
<path d="M84.8547 328.787C80.9159 328.203 76.7375 327.821 73.1582 327.371C70.747 327.064 68.0138 326.383 65.1533 325.986C65.8198 319.846 67.0628 313.683 67.6544 308.269C71.7953 309.894 75.5993 311.586 79.5306 312.874C82.8628 313.968 86.3299 316.206 89.7894 313.046C92.5226 315.383 95.6152 315.211 98.8725 314.574C99.1721 314.514 100.153 316.042 100.19 316.865C100.348 320.115 100.258 323.388 100.258 326.106C95.0161 326.825 90.2686 328.24 84.8547 328.787Z" fill="#E9BD9F"/>
<path d="M68.5678 128.141C65.7148 128.081 62.8244 128.044 59.904 128.029C57.388 128.014 54.9019 128.014 52.4383 128.029C52.3185 128.448 52.1912 128.867 52.0714 129.287C53.1871 130.335 54.228 132.162 55.4411 132.29C59.305 132.709 63.2288 132.492 67.2874 132.484C67.7067 132.29 67.9763 132.14 68.2383 131.983C67.7366 132.761 67.2424 133.548 66.2764 134.469C65.6924 134.851 65.5726 135.105 65.4602 135.352C65.4602 135.352 65.5426 135.255 65.5875 135.3C59.4472 135.569 53.3893 135.285 49.0611 129.946C45.7439 125.85 43.9617 121.319 45.4219 116.797C48.0802 116.332 50.5063 116.49 52.0339 115.396C52.8501 114.812 52.1163 112.064 51.9815 109.593C51.8617 108.342 51.8392 107.788 51.8243 107.234C51.8243 107.234 51.9066 107.309 52.2062 107.346C55.7256 105.864 59.2451 104.381 62.7645 102.898C62.9891 102.996 63.3411 103.161 63.7305 103.408C65.61 104.598 66.9429 106.725 67.8415 110.828C69.3466 117.65 68.755 125.925 68.5678 128.141Z" fill="#AB5C34"/>
<path d="M77.1192 198.395C60.488 194.823 45.4443 187.305 33.0364 176.035C31.7185 174.837 30.453 173.594 28.888 172.239C28.1766 170.232 27.7497 168.36 27.3154 166.488C27.6973 166.406 28.0792 166.323 28.4611 166.241C33.9574 170.18 39.2141 174.515 44.995 177.982C56.669 184.999 69.2192 189.904 82.8102 191.85C84.862 192.143 86.9213 192.472 88.8981 193.064C89.5047 193.243 90.1861 194.434 90.6429 195.123C89.954 195.512 88.7334 196.853 88.4713 196.658C83.9634 193.348 81.088 196.987 77.1192 198.395Z" fill="#1C1C1C"/>
<path d="M132.195 13.5122C127.814 12.6436 122.475 11.8723 118.446 11.1235C118.319 10.5469 119.27 7.91106 119.15 7.33447C120.7 6.73542 122.408 5.37257 123.77 5.65712C141.824 9.4686 158.942 15.4591 173.679 27.1482C183.256 34.7487 190.303 44.0789 194.736 55.416C195.44 57.2207 195.792 59.1676 195.792 61.4065C181.324 36.0591 161.076 20.7533 132.195 13.5122Z" fill="#282729"/>
<path d="M143.921 319.367C144.445 321.269 144.805 323.118 145.179 324.586C134.172 328.854 123.149 325.746 111.64 326.997C110.958 323.051 110.307 318.633 109.768 315.518C115.653 315.825 122.003 317.929 126.414 315.87C130.525 313.953 135.152 315.353 138.724 312.335C140.574 310.778 142.281 311.474 142.626 314.267C142.82 315.877 143.389 317.442 143.921 319.367Z" fill="#E8BC9F"/>
<path d="M111.437 10.5843C94.4842 8.54007 77.5535 11.3332 62.7344 18.417C53.4266 22.8649 43.2502 29.4096 34.9683 34.3967C35.5973 17.6831 97.8913 -3.08906 116.559 5.90423C116.881 10.3822 114.096 10.7041 111.437 10.5843Z" fill="#282729"/>
<path d="M138.896 239.093C145.014 234.735 151.349 230.489 157.759 225.914C159.556 229.336 161.473 232.983 163.135 237.087C156.171 243.392 148.069 247.158 138.896 250.415C138.896 246.245 138.896 242.523 138.896 239.093Z" fill="#DAB0D3"/>
<path d="M131.551 198.665C121.187 210.938 98.8948 213.229 85.5434 205.359C83.3344 204.056 81.7469 201.72 79.8149 199.571C82.5032 197.422 84.847 198.23 87.4154 199.96C98.8424 207.665 111.19 207.299 122.348 198.994C125.313 196.785 128.248 196.883 131.551 198.665Z" fill="#E4C0DC"/>
<path d="M150.309 343.104C146.392 351.865 141.645 353.655 132.015 352.165C134.793 349.791 137.167 347.327 139.473 345.358C139.174 342.722 138.747 340.034 138.35 336.687C138.32 336.417 137.841 335.489 137.676 335.249C134.239 330.329 135.31 329.228 141.592 328.262C143.165 328.023 148.407 328.173 149.852 329.363C153.341 333.826 150.571 338.551 150.309 343.104Z" fill="#524E4A"/>
<path d="M100.235 344.512C99.6282 345.163 98.3028 346.137 97.6962 346.788C91.1591 353.79 91.1591 353.79 79.5225 353.295C83.1243 350.72 85.6029 348.765 88.3959 346.773C88.6056 344.362 89.1822 341.299 89.3544 338.244C89.3919 337.593 89.1373 336.687 88.673 336.282C84.7492 332.845 87.5348 331.333 90.5675 330.681C93.2483 330.105 96.0264 329.925 98.9318 330.479C104.046 331.033 100.107 340.124 100.235 344.512Z" fill="#524E4A"/>
<path d="M66.9879 299.358C78.924 301.41 90.5531 303.544 102.564 305.686C103.276 306.674 103.695 307.633 103.912 308.636C104.062 309.325 103.942 310.074 103.942 310.179C102.325 310.388 100.969 310.568 98.9848 310.83C98.7452 310.583 97.9739 309.759 97.0754 308.808C96.2891 309.924 95.5478 310.98 94.0426 313.121C92.6498 311.07 91.4966 309.377 90.3435 307.677C88.4714 309.31 86.8914 310.68 84.8846 312.425C84.1583 310.396 83.679 309.063 83.1773 307.663C81.9193 308.389 80.6688 309.115 79.0289 310.059C78.617 308.419 78.2725 307.063 77.8457 305.371C76.1384 306.165 74.491 306.929 72.3419 307.925C72.1023 306.06 71.9076 304.57 71.7204 303.117C69.5264 303.432 67.4297 303.731 64.4419 304.166C65.4603 302.031 66.0743 300.736 66.9879 299.358Z" fill="#CCD9E8"/>
<path d="M107.686 306.12C117.765 304.839 127.709 303.851 137.661 302.908C139.271 302.758 140.903 302.818 142.925 302.743C142.626 304.615 141.922 306.532 141.046 308.898C139.555 308.022 138.365 307.318 136.905 306.457C136.47 307.955 136.043 309.4 135.467 311.384C133.235 310.246 131.326 309.265 129.431 308.299C128.413 310.059 127.357 311.856 125.942 314.297C124.661 312.41 123.89 311.257 122.992 309.931C122.19 311.01 121.412 312.058 120.206 313.683C119.225 312.073 118.461 310.815 117.375 309.018C116.32 310.59 115.354 312.021 113.976 314.072C112.995 311.721 112.456 310.441 111.917 309.16C110.344 310.164 108.921 311.077 106.405 312.687C106.944 309.752 107.251 308.089 107.686 306.12Z" fill="#D0DDED"/>
<path d="M72.3485 235.589C76.3173 238.082 73.3894 241.28 73.0674 244.597C73.1198 245.967 72.6855 247.046 72.2662 247.787C70.3267 247.255 67.7059 245.952 66.2083 244.957C60.8467 241.392 55.605 237.641 50.3184 233.956C51.3293 232.376 52.3327 230.804 53.2462 229.381C59.6936 231.665 65.5643 233.941 71.9367 235.941C72.2437 235.791 72.371 235.611 72.3485 235.589Z" fill="#DAB0D3"/>
<path d="M99.5763 193.775C105.634 193.797 111.265 193.797 116.851 193.797C117.817 199.399 116.687 202.267 110.359 202.896C104.953 203.435 98.9323 203.862 93.9302 200.409C94.0874 198.35 94.2746 196.081 94.4544 193.745C95.9745 193.752 97.5619 193.752 99.5763 193.775Z" fill="#E0B195"/>
<path d="M206.245 144.465C202.733 146.996 199.334 150.037 195.365 152.425C194.908 152.275 193.77 151.976 193.77 151.976C193.852 150.943 194.354 149.28 194.519 148.262C195.507 141.972 196.533 135.682 197.664 128.688C199.888 129.811 201.797 130.777 204.059 132.2C204.92 136.543 205.729 140.586 206.245 144.465Z" fill="#BB7761"/>
<path d="M165.427 285.625C163.106 278.623 160.829 271.337 158.635 264.523C158.186 263.123 157.632 261.753 157.085 260.382C155.565 256.578 155.378 253.089 159.392 250.228C159.474 249.577 159.654 249.375 160.335 249.479C160.964 249.742 161.009 249.719 161.301 249.764C161.586 250.183 162.035 250.835 162.072 251.733C162.589 262.149 165.944 272.214 169.98 281.289C169.658 283.079 169.538 284.389 169.62 286.127C168.228 285.954 166.977 285.977 165.427 285.625Z" fill="#E6B195"/>
<path d="M64.127 83.8785C59.1624 82.6879 53.988 81.3625 49.3379 80.2094C52.9172 71.4182 63.7301 69.2616 69.5035 76.2406C70.4021 77.3189 71.4579 80.4639 71.0386 80.7485C69.1291 82.029 66.6805 83.0399 64.127 83.8785Z" fill="#5F5142"/>
<path d="M206.245 144.465C205.504 140.804 204.298 136.213 203.729 131.998C206.26 130.11 205.878 129.317 203.946 128.081C202.022 126.853 200.12 126.254 198.105 124.607C197.821 124.045 197.559 123.708 197.529 123.551C197.888 121.529 198.689 118.803 199.041 116.826C205.399 116.871 209.697 120.855 210.671 127.49C211.554 133.533 209.967 139.328 206.245 144.465Z" fill="#CA8871"/>
<path d="M138.896 239.093C139.233 242.463 138.896 246.245 138.896 250.415C148.069 247.158 156.142 243.07 163.136 237.087C166.273 239.925 165.607 243.1 161.93 244.957C154.726 248.603 147.53 252.273 139.57 256.316C138.222 250.85 137.107 246.484 136.343 242.336C136.201 241.535 137.893 240.104 138.896 239.093Z" fill="#E4C0DC"/>
<path d="M138.777 199.691C137.047 198.837 135.115 197.654 133.295 197.062C129.297 195.767 125.545 192.951 121.502 197.916C121.262 197.227 120.798 196.224 120.558 195.535C121.674 194.823 122.924 193.64 124.137 193.393C131.805 191.798 139.511 190.39 147.793 188.803C147.673 190.952 148.182 192.846 147.628 194.973C144.603 196.388 141.36 198.41 138.777 199.691Z" fill="#1C1C1C"/>
<path d="M127.073 91.4566C125.028 88.963 124.939 86.2523 127.604 84.5675C130.704 82.6131 136.029 82.9201 137.758 85.2189C138.29 85.9228 138.724 86.7091 139.144 87.4953C140.17 89.4423 141.457 91.846 142.708 94.2946C136.987 95.1183 131.82 94.5567 127.073 91.4566Z" fill="#5F5142"/>
<path d="M117.121 122.061C118.191 114.984 123.358 110.776 129.304 106.485C131.356 105.527 132.921 104.875 134.493 104.224C135.19 104.067 135.893 103.909 136.829 103.64C139.473 103.43 141.869 103.34 144.662 103.183C146.092 105.355 146.422 107.257 143 107.257C131.663 107.264 123.86 113.442 117.121 122.061Z" fill="#8D5647"/>
<path d="M68.7403 99.6636C69.9758 104.224 70.9718 108.597 71.7056 113.172C69.3393 105.804 67.1528 98.8848 59.9267 93.6506C58.9233 93.1264 58.152 92.7969 57.5904 92.6023C57.5904 92.6023 57.5979 92.3701 57.523 92.0406C53.7864 90.7901 50.1097 89.9365 46.478 88.9256C45.2948 88.5961 44.0143 87.7948 42.8911 87.2407C43.565 86.3946 44.4487 85.6008 45.3622 84.6124C47.8258 85.0242 50.0498 85.5709 52.2588 86.1475C59.7245 88.0794 64.6667 93.104 68.7403 99.6636Z" fill="#8D5647"/>
<path d="M169.441 281.499C165.053 272.356 162.432 261.034 161.938 250.88C165.816 257.409 170.182 265.032 170.504 273.06C170.541 273.906 171.5 274.7 171.972 275.553C172.571 276.654 174.263 278.623 173.919 279.215C173.334 280.196 170.976 280.952 169.441 281.499Z" fill="#D9A78C"/>
<path d="M199.655 170.472C196.675 172.831 193.575 174.523 190.415 176.545C189.891 176.882 188.288 177.069 187.457 176.979C188.528 170.719 190.61 164.451 191.853 158.416C192.242 158.266 192.639 158.109 193.028 157.959C195.192 161.898 197.356 166.248 199.655 170.472Z" fill="#1C1C1C"/>
<path d="M5.3147 101.88C6.4529 100.323 7.60608 99.0571 8.57205 97.7991C9.06627 97.9264 9.56797 98.0611 10.0622 98.1884C9.03631 106.388 8.01792 114.588 6.84976 123.91C2.58899 116.22 1.81023 109.361 5.3147 101.88Z" fill="#CA8871"/>
<path d="M158.433 294.416C154.704 294.7 150.563 295.696 147.186 295.457C146.085 295.382 144.4 293.622 144.236 292.454C143.824 289.601 141.42 285.677 145.486 282.465C146.115 288.163 149.2 289.998 154.307 289.556C156.951 289.331 159.579 292.521 158.433 294.416Z" fill="#282729"/>
<path d="M152.33 147.932C152.33 139.343 152.33 131.204 152.33 124.816C155.273 138.707 155.498 154.432 152.33 170.225C152.33 162.939 152.33 155.66 152.33 147.932Z" fill="#202121"/>
<path d="M71.9368 250.146C71.7421 251.232 71.3977 252.58 70.9259 255.193C63.303 249.187 56.1742 243.976 49.5097 238.502C48.8957 237.993 50.0339 234.937 50.3185 233.949C56.1518 238.389 61.0715 243.818 66.6202 247.974C68.0729 249.075 70.1846 249.449 71.9368 250.146Z" fill="#CEACCB"/>
<path d="M81.1921 345.77C78.414 351.82 75.7333 355.647 68.4023 352.509C72.2513 345.987 74.8721 344.077 81.1921 345.77Z" fill="#4B4945"/>
<path d="M122.048 348.967C124.759 344.617 125.328 344.534 132.172 345.478C130.922 352 126.316 354.172 119.937 351.775C120.573 350.922 121.224 349.986 122.048 348.967Z" fill="#4B4945"/>
<path d="M71.937 250.146C70.035 249.719 68.0731 249.075 66.6204 247.982C61.0717 243.818 55.7026 239.43 50.1165 234.833C49.9667 234.541 50.1838 234.069 50.3261 233.956C55.755 237.521 60.8545 241.392 66.216 244.957C67.7137 245.953 69.5707 246.402 71.6749 246.881C72.0868 246.664 72.4013 246.522 72.4013 246.522C72.2964 247.547 72.1766 248.858 71.937 250.146Z" fill="#ECCCE3"/>
<path d="M138.777 199.691C141.166 198.185 144.827 196.126 147.628 194.973C147.448 197.564 146.19 200.919 145.673 204.161C143.247 202.618 141.001 201.211 138.777 199.691Z" fill="#2B2A2D"/>
<path d="M69.6979 333.946C66.8299 335.414 66.3956 337.091 68.9641 338.761C68.5897 339.03 68.2152 339.3 67.8408 339.562C67.0096 338.484 65.9688 337.495 65.4147 336.29C65.0178 335.421 65.1825 334.253 65.2499 333.227C65.3248 332.022 64.9654 329.835 65.6243 329.423C66.478 328.884 68.8742 329.311 69.4059 329.985C70.0723 330.846 69.8552 332.373 69.6979 333.946Z" fill="#4B4945"/>
<path d="M125.425 361.263C124.047 360.035 122.617 358.432 121.583 357.309C121.838 356.83 122.25 356.388 122.497 355.909C124.811 356.276 127.155 356.515 129.401 357.144C129.783 357.249 130.045 359.848 129.791 359.96C128.465 360.544 127.2 361.061 125.425 361.263Z" fill="#4B4945"/>
<path d="M11.6949 186.234C10.8263 181.12 10.0475 176.35 9.26123 171.58C9.62066 171.52 9.98011 171.453 10.3321 171.393C11.9345 178.514 14.0162 186.392 15.6187 193.513C15.3491 193.603 14.6153 192.929 14.3532 193.026C13.4995 190.877 12.6459 188.728 11.6949 186.234Z" fill="#2A2A2B"/>
<path d="M82.6598 331.452C82.6598 332.426 82.7197 333.444 80.1887 333.654C78.077 333.894 75.9204 333.729 73.689 333.729C74.6999 328.502 77.4031 327.686 82.6598 331.452Z" fill="#4B4945"/>
<path d="M69.9232 356.98C72.1921 356.965 74.6108 356.935 77.4189 357.062C76.5727 358.844 76.1384 360.941 75.3147 361.18C73.7197 361.637 71.7653 361.383 70.1553 360.836C69.7285 360.694 69.5937 358.38 69.9232 356.98Z" fill="#4B4945"/>
<path d="M130.959 331.011C128.278 331.767 125.096 333.19 122.363 332.748C122.018 332.688 121.112 331.535 121.247 331.28C121.666 330.471 122.527 329.206 123.074 329.273C125.568 329.603 128.421 330.06 130.959 331.011Z" fill="#4B4945"/>
<path d="M42.4562 86.8064C43.8565 87.2258 45.2867 88.3041 46.4699 88.641C50.1016 89.6519 53.7783 90.5056 57.5673 91.7187C57.6048 91.9882 57.6123 92.3627 57.4026 92.6697C56.5489 93.9052 53.0894 92.6846 49.2255 91.8235C47.1438 91.3592 44.171 90.8351 40.4419 90.6254C40.9062 89.8766 41.4603 88.0869 42.4562 86.8064Z" fill="#0B0A0B"/>
<path d="M116.409 329.588C120.895 334.253 115.6 334.755 114.013 337.413C111.594 329.326 111.564 328.996 116.409 329.588Z" fill="#4B4945"/>
<path d="M65.8499 284.681C65.483 284.217 65.1834 283.064 65.146 282.367C66.5313 281.753 68.4558 281.656 70.1556 281.304C71.2114 281.409 71.6832 281.536 72.5668 281.881C72.724 282.57 72.5818 283.618 72.5218 284.472C71.5259 286.246 70.4251 288.283 69.257 289.96C68.0364 288.613 67.1603 286.366 65.8499 284.681Z" fill="#080A0A"/>
<path d="M64.6964 350.719C64.1123 347.837 64.966 344.265 65.3928 341.09C66.8605 341.666 67.9762 342.4 69.3765 342.954C67.789 345.508 66.5909 348.443 64.6964 350.719Z" fill="#333D3C"/>
<path d="M117.854 346.429C117.375 348.001 116.739 349.282 116.102 350.57C115.87 350.45 115.645 350.338 115.413 350.218C115.204 347.582 115.001 344.946 114.784 342.243C116.551 342.243 118.056 342.243 119.217 342.243C118.686 343.613 118.191 344.879 117.854 346.429Z" fill="#4B4945"/>
<path d="M139.63 286.479C139.226 288.515 138.702 290.238 138.028 292.454C136.381 290.604 135.078 289.129 133.385 287.647C135.175 287.145 137.339 286.658 139.63 286.479Z" fill="#708EC9"/>
<path d="M81.1478 357.025C85.3112 356.935 84.0831 359.121 83.2145 360.566C82.7727 361.293 81.2451 361.772 80.2642 362.176C80.5188 360.566 80.5412 358.664 81.1478 357.025Z" fill="#4B4945"/>
<path d="M132.569 357.646C133.872 357.302 135.819 357.137 137.182 357.129C136.725 358.387 136.186 360.185 135.737 361.443C134.861 360.409 133.498 359.001 132.569 357.646Z" fill="#4B4945"/>
<path d="M32.1674 130.844C30.9243 129.002 29.7113 126.786 28.1537 124.622C28.0339 123.626 28.2661 122.577 28.4907 121.529C28.9101 121.492 29.3294 121.462 29.7487 121.424C30.5724 124.449 31.3886 127.46 32.1674 130.844Z" fill="#1A1513"/>
<path d="M69.0321 290.485C68.8149 292.896 67.9687 296.46 67.2948 299.276C66.8455 298.19 66.5834 295.906 66.1791 294.221C66.0293 293.555 65.917 292.896 65.917 292.289C66.6883 291.481 67.9912 291.151 69.0321 290.485Z" fill="#080A0A"/>
<path d="M117.39 152.073C116.567 151.302 115.653 150.246 114.747 148.831C115.616 149.58 116.454 150.681 117.39 152.073Z" fill="#D9A78C"/>
<path d="M8.07828 165.657C8.02587 164.466 8.2505 163.148 8.69979 161.591C8.73723 162.736 8.55004 164.129 8.07828 165.657Z" fill="#080A0A"/>
<path d="M30.3407 117.733C30.2284 118.092 30.0787 118.272 29.9289 118.444C29.8615 118.189 29.7866 117.935 29.7192 117.673C29.9139 117.635 30.1086 117.59 30.3407 117.733Z" fill="#1A1513"/>
<path d="M56.2046 144.346C56.4966 144.368 56.3918 144.675 56.3693 144.832C55.7104 145.042 55.0664 145.087 54.1079 145.057C54.5048 144.765 55.2162 144.54 56.2046 144.346Z" fill="#1A1513"/>
<path d="M49.9142 144.795C50.0041 145.049 49.8618 145.117 49.2927 145.169C48.7161 145.177 48.5663 145.207 48.4241 145.237C48.4241 145.237 48.1695 144.892 48.0571 144.705C48.5214 144.555 49.098 144.585 49.9142 144.795Z" fill="#1A1513"/>
<path d="M42.8834 142.571C42.479 142.646 41.9174 142.444 41.1836 141.994C41.5805 141.934 42.157 142.122 42.8834 142.571Z" fill="#1A1513"/>
<path d="M196.436 63.7204C196.578 63.623 196.728 63.668 196.878 63.7204C196.728 63.7728 196.578 63.8177 196.436 63.7204Z" fill="#282729"/>
<path d="M21.5418 65.54C21.437 65.9369 21.2947 66.3038 21.16 66.6707C21.145 66.3487 21.1225 66.0267 21.2798 65.5849C21.452 65.4651 21.5119 65.5101 21.5418 65.54Z" fill="#2A2A2B"/>
<path d="M27.2479 163.837C27.3827 163.942 27.3976 164.122 27.4201 164.301C27.3228 164.174 27.2254 164.039 27.2479 163.837Z" fill="#1C1C1C"/>
<path d="M118.266 153.054C118.094 153.099 117.854 152.905 117.51 152.508C117.667 152.47 117.929 152.65 118.266 153.054Z" fill="#D9A78C"/>
<path d="M119.247 154.065C119.075 154.103 118.806 153.893 118.409 153.466C118.573 153.429 118.858 153.623 119.247 154.065Z" fill="#D9A78C"/>
<path d="M47.4356 144.278C47.3383 144.458 47.1736 144.48 46.8066 144.375C46.8591 144.211 47.1137 144.166 47.4356 144.278Z" fill="#1A1513"/>
<path d="M44.2233 143.215C44.0061 143.372 43.8264 143.35 43.4595 143.14C43.5943 142.983 43.9237 143.005 44.2233 143.215Z" fill="#1A1513"/>
<path d="M67.0026 136.895C67.1074 137.119 67.055 137.284 66.7854 137.599C66.6581 137.441 66.748 137.134 67.0026 136.895Z" fill="#1A1513"/>
<path d="M45.5566 298.205C45.3844 298.325 45.1298 298.182 44.7778 297.793C44.9126 297.748 45.1747 297.883 45.5566 298.205Z" fill="#080A0A"/>
<path d="M71.5705 119.343C71.7727 119.41 71.8251 119.552 71.8176 119.927C71.6379 119.912 71.5331 119.672 71.5705 119.343Z" fill="#1A1513"/>
<path d="M73.5098 158.259C78.3846 158.438 83.0573 158.91 87.7374 159.232C90.8225 159.442 93.9226 159.427 97.7116 159.509C98.7899 159.457 99.1718 159.404 99.5537 159.352C102.212 160.168 104.878 160.984 107.738 161.995C109.371 166.683 107.476 169.334 103.53 171.52C95.2255 176.125 81.6045 175.339 74.3859 169.461C70.1327 166.001 69.8032 162.639 73.5098 158.259ZM87.4079 162.594C84.0382 162.175 80.6835 161.658 77.2988 161.396C76.4602 161.336 75.0748 161.92 74.8053 162.564C74.5057 163.291 74.8802 164.938 75.4867 165.29C78.1824 166.885 81.0654 168.165 84.3302 170.142C89.7666 172.089 95.0159 171.513 100.392 169.543C97.4196 164.182 93.6755 161.553 87.4079 162.594Z" fill="#7A1A25"/>
<path d="M94.8662 149.467C94.4319 150.486 93.8703 151.257 92.9941 151.766C91.167 149.984 89.6844 147.258 88.1568 147.236C86.2398 147.206 84.2854 149.385 82.346 150.606C81.8517 150.381 81.35 150.156 80.7061 149.827C82.4059 143.544 87.3031 142.204 93.6007 146.412C94.1623 147.468 94.4543 148.344 94.8662 149.467Z" fill="#1A1513"/>
<path d="M48.2817 145.334C48.5663 145.199 48.716 145.169 49.068 145.244C48.8883 145.379 48.5139 145.409 48.2817 145.334Z" fill="#E5A98C"/>
<path d="M88.7559 155.443C91.6388 155.772 94.5742 156.446 97.5919 157.45Z" fill="#EBB496"/>
<path d="M99.2764 159.225C99.0368 159.434 98.6549 159.487 97.981 159.472C98.1756 159.292 98.6549 159.18 99.2764 159.225Z" fill="#E6B195"/>
<path d="M82.6982 150.658C84.2857 149.378 86.2402 147.199 88.1571 147.236C89.6847 147.258 91.1674 149.984 92.7548 151.841C89.5799 151.691 86.315 151.205 82.6982 150.658Z" fill="#D7957B"/>
<path d="M87.8127 162.489C93.5561 160.977 97.5773 164.227 100.55 169.603C95.1736 171.572 89.0183 172.351 83.522 169.813C84.7051 167.252 86.5771 164.459 87.8127 162.489Z" fill="#C34B95"/>
<path d="M87.812 162.549C86.8385 164.751 84.9815 167.551 83.5737 169.813C80.5934 168.72 78.0474 166.93 75.3517 165.335C74.7451 164.975 74.3707 163.336 74.6703 162.609C74.9398 161.965 76.3252 161.374 77.1638 161.441C80.5485 161.688 84.1877 161.89 87.812 162.549Z" fill="#93344E"/>
<path d="M49.9367 143.941C61.7025 143.941 71.2405 132.325 71.2405 117.995C71.2405 103.665 61.7025 92.0481 49.9367 92.0481C38.1709 92.0481 28.6328 103.665 28.6328 117.995C28.6328 132.325 38.1709 143.941 49.9367 143.941Z" stroke="#0B0A0B" stroke-width="3" stroke-miterlimit="10"/>
<path d="M149.207 140.242C146.354 140.182 142.461 141.575 139.54 141.56C137.024 141.545 134.538 141.545 132.075 141.56C131.955 141.979 131.827 142.399 131.708 142.818C132.823 143.866 133.864 145.693 135.077 145.821C138.941 146.24 142.865 146.023 146.924 146.015C147.343 145.821 149.567 145.596 149.567 145.289C149.574 146.659 149.544 146.255 149.544 148.674C148.96 149.056 145.216 148.629 145.096 148.876C145.096 148.876 145.179 148.779 145.224 148.823C139.083 149.093 133.026 148.808 128.697 143.469C125.38 139.373 123.598 134.843 125.058 130.32C127.716 129.856 130.143 130.013 131.67 128.92C132.486 128.336 131.753 125.588 131.618 123.117C131.498 121.866 131.475 121.312 131.46 120.758C131.46 120.758 131.543 120.833 131.842 120.87C135.362 119.387 142.85 115.606 146.369 114.123C146.594 114.221 147.792 118.706 147.785 119.17C147.755 120.301 148.167 121.304 148.586 126.861C148.885 130.852 149.035 132.896 149.125 135.524C149.185 137.434 149.2 139.051 149.207 140.242Z" fill="#AB5C34"/>
<path d="M8.07818 165.657C8.07818 165.657 4.15438 177.578 9.88283 193.049C15.6038 208.519 23.8932 229.883 23.8932 229.883" fill="#0B0A0B"/>
<path d="M23.1217 227.891L28.9101 243.227C28.9101 243.227 30.842 254.684 23.1217 256.436C15.4014 258.188 15.3341 253.605 15.3341 253.605C15.3341 253.605 12.2714 250.977 10.0324 255.829C7.79345 260.682 16.8392 283.611 24.7766 288.852C32.7141 294.094 36.8401 295.382 36.8401 295.382V292.379C36.8401 292.379 28.6705 288.246 23.893 282.719C19.1156 277.193 15.2067 272.206 13.4545 266.949C11.7023 261.693 12.7806 257.11 13.3197 256.975C13.8589 256.84 16.5546 259.671 20.0591 258.862C23.5636 258.053 26.3941 261.423 29.7637 256.571C33.1334 251.718 31.516 240.935 31.516 240.396C31.516 239.857 25.7201 225.435 25.7201 225.435L22.62 223.413L23.1217 227.891Z" fill="#0B0A0B"/>
<path d="M148.549 162.444C148.549 162.444 136.86 163.373 130.914 160.647C124.976 157.922 117.922 157.779 113.826 146.45C109.73 135.128 115.646 124.929 115.646 124.929C115.646 124.929 130.749 109.069 145.486 106.732C160.223 104.396 124.542 118.234 124.542 118.234L118.828 122.907L117.39 125.101L115.571 128.388L114.987 132.881L113.953 136.745L115.578 139.261V142.136L116.649 144.563L119.247 153.346L121.052 154.717L124.549 156.446L131.408 158.259L140.012 160.198L149.058 160.468L148.549 162.444Z" fill="#0B0A0B"/>
<path d="M3.83225 97.9338C3.06846 96.863 7.92081 93.8228 11.2905 87.413C13.9338 82.3884 13.6717 79.0786 14.6602 72.7212C16.4199 61.4515 20.164 53.1696 23.1517 46.5725C25.7876 40.7467 28.5732 34.5914 33.9347 28.1067C35.5297 26.1822 42.1492 18.417 55.5006 11.3931C57.6347 10.2698 62.6518 7.67893 69.9228 5.30518C92.1477 -1.95086 112.957 0.0185297 120.603 1.01446C142.303 3.84498 157.355 11.8573 161.308 13.954C167.943 17.466 176.187 21.9289 184.357 30.8024C184.357 30.8024 190.632 37.4669 194.548 44.8128C196.465 48.4071 197.836 52.0988 197.836 52.0988C197.896 52.2485 198.352 53.5065 198.809 54.9443C200.546 60.478 201.393 66.4236 201.61 68.0036C202.905 77.3414 203.557 82.0065 203.227 86.6042C202.95 90.5131 202.216 94.6091 201.55 98.3382C200.284 105.4 199.139 109.241 201.205 111.27C202.351 112.393 203.347 111.66 205.788 112.888C209.884 114.947 212.018 118.414 212.662 119.492C215.957 125.011 215.126 130.807 214.684 133.915C213.763 140.369 210.82 144.51 207.54 149.145C206.312 150.883 197.454 157.6 195.724 156.873C195.155 156.634 198.742 153.743 198.779 153.099C198.862 151.564 201.887 151.894 204.71 149.145C206.028 147.865 206.949 146.644 207.406 146.045C207.847 145.461 208.566 144.503 209.293 143.215C210.161 141.68 210.191 141.178 211.719 137.284C212.894 134.289 212.977 134.319 213.067 133.645C213.291 131.99 212.827 131.623 212.393 128.253C212.003 125.228 212.325 125.131 211.854 123.536C211.487 122.308 210.985 121.372 209.967 119.492C208.926 117.568 208.402 116.602 207.952 116.205C206.395 114.835 205.249 115.568 202.014 114.101C200.569 113.442 199.82 113.105 199.184 112.349C197.619 110.492 198.098 107.706 198.51 105.474C199.85 98.2334 200.502 95.1707 200.801 93.4784C201.737 88.2367 201.512 84.1032 201.205 78.3822C201.056 75.6191 200.876 72.4965 200.127 68.408C199.491 64.9335 198.345 61.2793 196.084 54.1206C194.519 49.1559 193.717 46.6474 193.118 45.3594C190.13 38.942 186.274 34.9958 185.166 33.9025C183.698 32.4573 182.395 31.4089 180.448 29.8589C177.453 27.4702 175.169 25.9575 173.574 24.8718C167.142 20.5062 166.183 19.2706 162.656 16.9193C157.153 13.2501 152.615 11.6701 144.056 8.69732C135.699 5.79191 128.772 4.25683 125.994 3.7102C117.69 2.07778 94.544 -2.47503 68.575 7.34945C61.3489 10.0826 49.3903 14.7552 38.5175 26.2196C34.2118 30.7575 26.4315 38.957 22.8822 51.6944C20.4635 60.3657 16.6445 83.1971 13.8514 90.9174C13.6642 91.4416 13.0128 93.1863 11.4253 94.8263C8.70706 97.6343 4.48372 98.8399 3.83225 97.9338Z" fill="#0B0A0B"/>
</svg>
